ISO-10303-21;
HEADER;
/* Generated by software containing ST-Developer
 * from STEP Tools, Inc. (www.steptools.com) 
 */
/* OPTION: using custom renumber hook */

FILE_DESCRIPTION(
/* description */ ('STEP AP242 Edition 2',
'CAx-IF Rec.Pracs.---Representation and Presentation of Product Manufa
cturing Information (PMI)---4.0---2014-10-13',
'CAx-IF Rec.Pracs.---3D Tessellated Geometry---0.4---2014-09-14','2;1',
'CAx-IF Rec.Pracs.---User Defined Attributes---1.5---2016-08-15'),
/* implementation_level */ '2;1');

FILE_NAME(
/* name */ 'Base',
/* time_stamp */ '2026-06-13T05:36:07Z',
/* author */ (''),
/* organization */ (''),
/* preprocessor_version */ 'ST-DEVELOPER v20',
/* originating_system */ 'ONSHAPE BY PTC INC, 1.216',
/* authorisation */ '  ');

FILE_SCHEMA (('AP242_MANAGED_MODEL_BASED_3D_ENGINEERING_MIM_LF { 1 0 10303 442 3 1 4 }'));
ENDSEC;

DATA;
#10=SHAPE_REPRESENTATION_RELATIONSHIP('','',#1027,#11);
#11=ADVANCED_BREP_SHAPE_REPRESENTATION('',(#1025),#1649);
#12=CYLINDRICAL_SURFACE('',#1067,0.0025);
#13=CYLINDRICAL_SURFACE('',#1068,0.0025);
#14=CYLINDRICAL_SURFACE('',#1069,0.0025);
#15=CYLINDRICAL_SURFACE('',#1070,0.0025);
#16=CYLINDRICAL_SURFACE('',#1071,0.0025);
#17=CYLINDRICAL_SURFACE('',#1072,0.0025);
#18=CYLINDRICAL_SURFACE('',#1073,0.0025);
#19=CYLINDRICAL_SURFACE('',#1074,0.0025);
#20=CYLINDRICAL_SURFACE('',#1075,0.0025);
#21=CYLINDRICAL_SURFACE('',#1076,0.0025);
#22=CYLINDRICAL_SURFACE('',#1077,0.0025);
#23=CYLINDRICAL_SURFACE('',#1078,0.0025);
#24=CYLINDRICAL_SURFACE('',#1079,0.006);
#25=CYLINDRICAL_SURFACE('',#1081,0.004);
#26=CYLINDRICAL_SURFACE('',#1086,0.004);
#27=CYLINDRICAL_SURFACE('',#1089,0.006);
#28=CIRCLE('',#1037,0.0025);
#29=CIRCLE('',#1038,0.0025);
#30=CIRCLE('',#1039,0.0025);
#31=CIRCLE('',#1040,0.0025);
#32=CIRCLE('',#1041,0.0025);
#33=CIRCLE('',#1042,0.0025);
#34=CIRCLE('',#1043,0.0025);
#35=CIRCLE('',#1044,0.0025);
#36=CIRCLE('',#1045,0.0025);
#37=CIRCLE('',#1046,0.0025);
#38=CIRCLE('',#1047,0.0025);
#39=CIRCLE('',#1048,0.0025);
#40=CIRCLE('',#1050,0.0025);
#41=CIRCLE('',#1051,0.0025);
#42=CIRCLE('',#1052,0.0025);
#43=CIRCLE('',#1053,0.0025);
#44=CIRCLE('',#1054,0.0025);
#45=CIRCLE('',#1055,0.0025);
#46=CIRCLE('',#1056,0.0025);
#47=CIRCLE('',#1057,0.0025);
#48=CIRCLE('',#1058,0.006);
#49=CIRCLE('',#1059,0.0025);
#50=CIRCLE('',#1060,0.0025);
#51=CIRCLE('',#1061,0.0025);
#52=CIRCLE('',#1062,0.0025);
#53=CIRCLE('',#1063,0.006);
#54=CIRCLE('',#1080,0.006);
#55=CIRCLE('',#1082,0.004);
#56=CIRCLE('',#1083,0.004);
#57=CIRCLE('',#1087,0.004);
#58=CIRCLE('',#1088,0.004);
#59=CIRCLE('',#1090,0.006);
#60=ORIENTED_EDGE('',*,*,#316,.F.);
#61=ORIENTED_EDGE('',*,*,#317,.T.);
#62=ORIENTED_EDGE('',*,*,#318,.T.);
#63=ORIENTED_EDGE('',*,*,#319,.F.);
#64=ORIENTED_EDGE('',*,*,#320,.F.);
#65=ORIENTED_EDGE('',*,*,#321,.T.);
#66=ORIENTED_EDGE('',*,*,#322,.T.);
#67=ORIENTED_EDGE('',*,*,#323,.F.);
#68=ORIENTED_EDGE('',*,*,#324,.T.);
#69=ORIENTED_EDGE('',*,*,#325,.T.);
#70=ORIENTED_EDGE('',*,*,#326,.T.);
#71=ORIENTED_EDGE('',*,*,#327,.F.);
#72=ORIENTED_EDGE('',*,*,#328,.T.);
#73=ORIENTED_EDGE('',*,*,#329,.T.);
#74=ORIENTED_EDGE('',*,*,#330,.F.);
#75=ORIENTED_EDGE('',*,*,#331,.F.);
#76=ORIENTED_EDGE('',*,*,#332,.F.);
#77=ORIENTED_EDGE('',*,*,#333,.T.);
#78=ORIENTED_EDGE('',*,*,#334,.F.);
#79=ORIENTED_EDGE('',*,*,#317,.F.);
#80=ORIENTED_EDGE('',*,*,#335,.T.);
#81=ORIENTED_EDGE('',*,*,#336,.T.);
#82=ORIENTED_EDGE('',*,*,#337,.T.);
#83=ORIENTED_EDGE('',*,*,#338,.F.);
#84=ORIENTED_EDGE('',*,*,#339,.F.);
#85=ORIENTED_EDGE('',*,*,#340,.T.);
#86=ORIENTED_EDGE('',*,*,#341,.T.);
#87=ORIENTED_EDGE('',*,*,#342,.F.);
#88=ORIENTED_EDGE('',*,*,#343,.F.);
#89=ORIENTED_EDGE('',*,*,#344,.T.);
#90=ORIENTED_EDGE('',*,*,#345,.T.);
#91=ORIENTED_EDGE('',*,*,#346,.F.);
#92=ORIENTED_EDGE('',*,*,#347,.F.);
#93=ORIENTED_EDGE('',*,*,#348,.T.);
#94=ORIENTED_EDGE('',*,*,#349,.T.);
#95=ORIENTED_EDGE('',*,*,#350,.F.);
#96=ORIENTED_EDGE('',*,*,#351,.F.);
#97=ORIENTED_EDGE('',*,*,#352,.F.);
#98=ORIENTED_EDGE('',*,*,#319,.T.);
#99=ORIENTED_EDGE('',*,*,#353,.T.);
#100=ORIENTED_EDGE('',*,*,#354,.F.);
#101=ORIENTED_EDGE('',*,*,#355,.F.);
#102=ORIENTED_EDGE('',*,*,#356,.T.);
#103=ORIENTED_EDGE('',*,*,#357,.F.);
#104=ORIENTED_EDGE('',*,*,#358,.T.);
#105=ORIENTED_EDGE('',*,*,#359,.F.);
#106=ORIENTED_EDGE('',*,*,#325,.F.);
#107=ORIENTED_EDGE('',*,*,#360,.T.);
#108=ORIENTED_EDGE('',*,*,#361,.F.);
#109=ORIENTED_EDGE('',*,*,#362,.F.);
#110=ORIENTED_EDGE('',*,*,#363,.T.);
#111=ORIENTED_EDGE('',*,*,#364,.F.);
#112=ORIENTED_EDGE('',*,*,#365,.F.);
#113=ORIENTED_EDGE('',*,*,#366,.F.);
#114=ORIENTED_EDGE('',*,*,#327,.T.);
#115=ORIENTED_EDGE('',*,*,#367,.T.);
#116=ORIENTED_EDGE('',*,*,#368,.T.);
#117=ORIENTED_EDGE('',*,*,#369,.T.);
#118=ORIENTED_EDGE('',*,*,#370,.T.);
#119=ORIENTED_EDGE('',*,*,#371,.F.);
#120=ORIENTED_EDGE('',*,*,#372,.T.);
#121=ORIENTED_EDGE('',*,*,#373,.T.);
#122=ORIENTED_EDGE('',*,*,#374,.T.);
#123=ORIENTED_EDGE('',*,*,#375,.F.);
#124=ORIENTED_EDGE('',*,*,#324,.F.);
#125=ORIENTED_EDGE('',*,*,#366,.T.);
#126=ORIENTED_EDGE('',*,*,#376,.F.);
#127=ORIENTED_EDGE('',*,*,#377,.F.);
#128=ORIENTED_EDGE('',*,*,#378,.T.);
#129=ORIENTED_EDGE('',*,*,#335,.F.);
#130=ORIENTED_EDGE('',*,*,#316,.T.);
#131=ORIENTED_EDGE('',*,*,#352,.T.);
#132=ORIENTED_EDGE('',*,*,#379,.T.);
#133=ORIENTED_EDGE('',*,*,#380,.T.);
#134=ORIENTED_EDGE('',*,*,#381,.F.);
#135=ORIENTED_EDGE('',*,*,#360,.F.);
#136=ORIENTED_EDGE('',*,*,#382,.T.);
#137=ORIENTED_EDGE('',*,*,#383,.T.);
#138=ORIENTED_EDGE('',*,*,#384,.T.);
#139=ORIENTED_EDGE('',*,*,#385,.T.);
#140=ORIENTED_EDGE('',*,*,#386,.F.);
#141=ORIENTED_EDGE('',*,*,#387,.T.);
#142=ORIENTED_EDGE('',*,*,#388,.T.);
#143=ORIENTED_EDGE('',*,*,#389,.T.);
#144=ORIENTED_EDGE('',*,*,#390,.T.);
#145=ORIENTED_EDGE('',*,*,#391,.T.);
#146=ORIENTED_EDGE('',*,*,#392,.F.);
#147=ORIENTED_EDGE('',*,*,#393,.T.);
#148=ORIENTED_EDGE('',*,*,#358,.F.);
#149=ORIENTED_EDGE('',*,*,#381,.T.);
#150=ORIENTED_EDGE('',*,*,#394,.F.);
#151=ORIENTED_EDGE('',*,*,#395,.F.);
#152=ORIENTED_EDGE('',*,*,#396,.T.);
#153=ORIENTED_EDGE('',*,*,#376,.T.);
#154=ORIENTED_EDGE('',*,*,#365,.T.);
#155=ORIENTED_EDGE('',*,*,#397,.F.);
#156=ORIENTED_EDGE('',*,*,#333,.F.);
#157=ORIENTED_EDGE('',*,*,#398,.T.);
#158=ORIENTED_EDGE('',*,*,#372,.F.);
#159=ORIENTED_EDGE('',*,*,#399,.F.);
#160=ORIENTED_EDGE('',*,*,#340,.F.);
#161=ORIENTED_EDGE('',*,*,#400,.T.);
#162=ORIENTED_EDGE('',*,*,#368,.F.);
#163=ORIENTED_EDGE('',*,*,#401,.F.);
#164=ORIENTED_EDGE('',*,*,#336,.F.);
#165=ORIENTED_EDGE('',*,*,#378,.F.);
#166=ORIENTED_EDGE('',*,*,#402,.F.);
#167=ORIENTED_EDGE('',*,*,#403,.T.);
#168=ORIENTED_EDGE('',*,*,#404,.T.);
#169=ORIENTED_EDGE('',*,*,#379,.F.);
#170=ORIENTED_EDGE('',*,*,#351,.T.);
#171=ORIENTED_EDGE('',*,*,#405,.F.);
#172=ORIENTED_EDGE('',*,*,#355,.T.);
#173=ORIENTED_EDGE('',*,*,#406,.T.);
#174=ORIENTED_EDGE('',*,*,#347,.T.);
#175=ORIENTED_EDGE('',*,*,#407,.F.);
#176=ORIENTED_EDGE('',*,*,#362,.T.);
#177=ORIENTED_EDGE('',*,*,#408,.T.);
#178=ORIENTED_EDGE('',*,*,#343,.T.);
#179=ORIENTED_EDGE('',*,*,#409,.F.);
#180=ORIENTED_EDGE('',*,*,#410,.F.);
#181=ORIENTED_EDGE('',*,*,#411,.T.);
#182=ORIENTED_EDGE('',*,*,#412,.F.);
#183=ORIENTED_EDGE('',*,*,#413,.F.);
#184=ORIENTED_EDGE('',*,*,#414,.F.);
#185=ORIENTED_EDGE('',*,*,#415,.F.);
#186=ORIENTED_EDGE('',*,*,#416,.F.);
#187=ORIENTED_EDGE('',*,*,#417,.F.);
#188=ORIENTED_EDGE('',*,*,#418,.F.);
#189=ORIENTED_EDGE('',*,*,#419,.F.);
#190=ORIENTED_EDGE('',*,*,#420,.F.);
#191=ORIENTED_EDGE('',*,*,#421,.F.);
#192=ORIENTED_EDGE('',*,*,#422,.T.);
#193=ORIENTED_EDGE('',*,*,#423,.T.);
#194=ORIENTED_EDGE('',*,*,#396,.F.);
#195=ORIENTED_EDGE('',*,*,#424,.F.);
#196=ORIENTED_EDGE('',*,*,#402,.T.);
#197=ORIENTED_EDGE('',*,*,#377,.T.);
#198=ORIENTED_EDGE('',*,*,#395,.T.);
#199=ORIENTED_EDGE('',*,*,#425,.F.);
#200=ORIENTED_EDGE('',*,*,#403,.F.);
#201=ORIENTED_EDGE('',*,*,#424,.T.);
#202=ORIENTED_EDGE('',*,*,#394,.T.);
#203=ORIENTED_EDGE('',*,*,#380,.F.);
#204=ORIENTED_EDGE('',*,*,#404,.F.);
#205=ORIENTED_EDGE('',*,*,#425,.T.);
#206=ORIENTED_EDGE('',*,*,#420,.T.);
#207=ORIENTED_EDGE('',*,*,#383,.F.);
#208=ORIENTED_EDGE('',*,*,#417,.T.);
#209=ORIENTED_EDGE('',*,*,#384,.F.);
#210=ORIENTED_EDGE('',*,*,#416,.T.);
#211=ORIENTED_EDGE('',*,*,#385,.F.);
#212=ORIENTED_EDGE('',*,*,#422,.F.);
#213=ORIENTED_EDGE('',*,*,#386,.T.);
#214=ORIENTED_EDGE('',*,*,#415,.T.);
#215=ORIENTED_EDGE('',*,*,#387,.F.);
#216=ORIENTED_EDGE('',*,*,#414,.T.);
#217=ORIENTED_EDGE('',*,*,#388,.F.);
#218=ORIENTED_EDGE('',*,*,#413,.T.);
#219=ORIENTED_EDGE('',*,*,#389,.F.);
#220=ORIENTED_EDGE('',*,*,#412,.T.);
#221=ORIENTED_EDGE('',*,*,#390,.F.);
#222=ORIENTED_EDGE('',*,*,#419,.T.);
#223=ORIENTED_EDGE('',*,*,#391,.F.);
#224=ORIENTED_EDGE('',*,*,#411,.F.);
#225=ORIENTED_EDGE('',*,*,#392,.T.);
#226=ORIENTED_EDGE('',*,*,#410,.T.);
#227=ORIENTED_EDGE('',*,*,#393,.F.);
#228=ORIENTED_EDGE('',*,*,#421,.T.);
#229=ORIENTED_EDGE('',*,*,#382,.F.);
#230=ORIENTED_EDGE('',*,*,#426,.T.);
#231=ORIENTED_EDGE('',*,*,#423,.F.);
#232=ORIENTED_EDGE('',*,*,#427,.F.);
#233=ORIENTED_EDGE('',*,*,#428,.T.);
#234=ORIENTED_EDGE('',*,*,#426,.F.);
#235=ORIENTED_EDGE('',*,*,#427,.T.);
#236=ORIENTED_EDGE('',*,*,#428,.F.);
#237=ORIENTED_EDGE('',*,*,#429,.T.);
#238=ORIENTED_EDGE('',*,*,#430,.F.);
#239=ORIENTED_EDGE('',*,*,#431,.F.);
#240=ORIENTED_EDGE('',*,*,#418,.T.);
#241=ORIENTED_EDGE('',*,*,#429,.F.);
#242=ORIENTED_EDGE('',*,*,#431,.T.);
#243=ORIENTED_EDGE('',*,*,#430,.T.);
#244=ORIENTED_EDGE('',*,*,#409,.T.);
#245=ORIENTED_EDGE('',*,*,#353,.F.);
#246=ORIENTED_EDGE('',*,*,#318,.F.);
#247=ORIENTED_EDGE('',*,*,#334,.T.);
#248=ORIENTED_EDGE('',*,*,#397,.T.);
#249=ORIENTED_EDGE('',*,*,#367,.F.);
#250=ORIENTED_EDGE('',*,*,#326,.F.);
#251=ORIENTED_EDGE('',*,*,#359,.T.);
#252=ORIENTED_EDGE('',*,*,#338,.T.);
#253=ORIENTED_EDGE('',*,*,#432,.T.);
#254=ORIENTED_EDGE('',*,*,#370,.F.);
#255=ORIENTED_EDGE('',*,*,#433,.F.);
#256=ORIENTED_EDGE('',*,*,#401,.T.);
#257=ORIENTED_EDGE('',*,*,#371,.T.);
#258=ORIENTED_EDGE('',*,*,#432,.F.);
#259=ORIENTED_EDGE('',*,*,#337,.F.);
#260=ORIENTED_EDGE('',*,*,#339,.T.);
#261=ORIENTED_EDGE('',*,*,#433,.T.);
#262=ORIENTED_EDGE('',*,*,#369,.F.);
#263=ORIENTED_EDGE('',*,*,#400,.F.);
#264=ORIENTED_EDGE('',*,*,#342,.T.);
#265=ORIENTED_EDGE('',*,*,#434,.T.);
#266=ORIENTED_EDGE('',*,*,#374,.F.);
#267=ORIENTED_EDGE('',*,*,#435,.F.);
#268=ORIENTED_EDGE('',*,*,#399,.T.);
#269=ORIENTED_EDGE('',*,*,#375,.T.);
#270=ORIENTED_EDGE('',*,*,#434,.F.);
#271=ORIENTED_EDGE('',*,*,#341,.F.);
#272=ORIENTED_EDGE('',*,*,#332,.T.);
#273=ORIENTED_EDGE('',*,*,#435,.T.);
#274=ORIENTED_EDGE('',*,*,#373,.F.);
#275=ORIENTED_EDGE('',*,*,#398,.F.);
#276=ORIENTED_EDGE('',*,*,#354,.T.);
#277=ORIENTED_EDGE('',*,*,#436,.T.);
#278=ORIENTED_EDGE('',*,*,#348,.F.);
#279=ORIENTED_EDGE('',*,*,#406,.F.);
#280=ORIENTED_EDGE('',*,*,#405,.T.);
#281=ORIENTED_EDGE('',*,*,#350,.T.);
#282=ORIENTED_EDGE('',*,*,#437,.F.);
#283=ORIENTED_EDGE('',*,*,#356,.F.);
#284=ORIENTED_EDGE('',*,*,#357,.T.);
#285=ORIENTED_EDGE('',*,*,#437,.T.);
#286=ORIENTED_EDGE('',*,*,#349,.F.);
#287=ORIENTED_EDGE('',*,*,#436,.F.);
#288=ORIENTED_EDGE('',*,*,#361,.T.);
#289=ORIENTED_EDGE('',*,*,#438,.T.);
#290=ORIENTED_EDGE('',*,*,#344,.F.);
#291=ORIENTED_EDGE('',*,*,#408,.F.);
#292=ORIENTED_EDGE('',*,*,#407,.T.);
#293=ORIENTED_EDGE('',*,*,#346,.T.);
#294=ORIENTED_EDGE('',*,*,#439,.F.);
#295=ORIENTED_EDGE('',*,*,#363,.F.);
#296=ORIENTED_EDGE('',*,*,#364,.T.);
#297=ORIENTED_EDGE('',*,*,#439,.T.);
#298=ORIENTED_EDGE('',*,*,#345,.F.);
#299=ORIENTED_EDGE('',*,*,#438,.F.);
#300=ORIENTED_EDGE('',*,*,#440,.T.);
#301=ORIENTED_EDGE('',*,*,#321,.F.);
#302=ORIENTED_EDGE('',*,*,#441,.F.);
#303=ORIENTED_EDGE('',*,*,#329,.F.);
#304=ORIENTED_EDGE('',*,*,#330,.T.);
#305=ORIENTED_EDGE('',*,*,#441,.T.);
#306=ORIENTED_EDGE('',*,*,#320,.T.);
#307=ORIENTED_EDGE('',*,*,#442,.F.);
#308=ORIENTED_EDGE('',*,*,#331,.T.);
#309=ORIENTED_EDGE('',*,*,#442,.T.);
#310=ORIENTED_EDGE('',*,*,#323,.T.);
#311=ORIENTED_EDGE('',*,*,#443,.F.);
#312=ORIENTED_EDGE('',*,*,#443,.T.);
#313=ORIENTED_EDGE('',*,*,#322,.F.);
#314=ORIENTED_EDGE('',*,*,#440,.F.);
#315=ORIENTED_EDGE('',*,*,#328,.F.);
#316=EDGE_CURVE('',#444,#445,#540,.T.);
#317=EDGE_CURVE('',#444,#446,#541,.T.);
#318=EDGE_CURVE('',#446,#447,#542,.T.);
#319=EDGE_CURVE('',#445,#447,#543,.T.);
#320=EDGE_CURVE('',#448,#449,#544,.T.);
#321=EDGE_CURVE('',#448,#450,#545,.T.);
#322=EDGE_CURVE('',#450,#451,#546,.T.);
#323=EDGE_CURVE('',#449,#451,#547,.T.);
#324=EDGE_CURVE('',#452,#453,#548,.T.);
#325=EDGE_CURVE('',#453,#454,#549,.T.);
#326=EDGE_CURVE('',#454,#455,#550,.T.);
#327=EDGE_CURVE('',#452,#455,#551,.T.);
#328=EDGE_CURVE('',#456,#457,#552,.T.);
#329=EDGE_CURVE('',#457,#458,#553,.T.);
#330=EDGE_CURVE('',#459,#458,#554,.T.);
#331=EDGE_CURVE('',#456,#459,#555,.T.);
#332=EDGE_CURVE('',#460,#461,#556,.T.);
#333=EDGE_CURVE('',#460,#462,#557,.T.);
#334=EDGE_CURVE('',#446,#462,#558,.T.);
#335=EDGE_CURVE('',#444,#463,#559,.T.);
#336=EDGE_CURVE('',#463,#464,#560,.T.);
#337=EDGE_CURVE('',#464,#465,#561,.T.);
#338=EDGE_CURVE('',#466,#465,#562,.T.);
#339=EDGE_CURVE('',#467,#466,#563,.T.);
#340=EDGE_CURVE('',#467,#468,#564,.T.);
#341=EDGE_CURVE('',#468,#469,#565,.T.);
#342=EDGE_CURVE('',#461,#469,#566,.T.);
#343=EDGE_CURVE('',#470,#471,#567,.T.);
#344=EDGE_CURVE('',#470,#472,#568,.T.);
#345=EDGE_CURVE('',#472,#473,#569,.T.);
#346=EDGE_CURVE('',#474,#473,#570,.T.);
#347=EDGE_CURVE('',#475,#474,#571,.T.);
#348=EDGE_CURVE('',#475,#476,#572,.T.);
#349=EDGE_CURVE('',#476,#477,#573,.T.);
#350=EDGE_CURVE('',#478,#477,#574,.T.);
#351=EDGE_CURVE('',#479,#478,#575,.T.);
#352=EDGE_CURVE('',#445,#479,#576,.T.);
#353=EDGE_CURVE('',#447,#471,#577,.T.);
#354=EDGE_CURVE('',#480,#481,#578,.T.);
#355=EDGE_CURVE('',#482,#480,#579,.T.);
#356=EDGE_CURVE('',#482,#483,#580,.T.);
#357=EDGE_CURVE('',#481,#483,#581,.T.);
#358=EDGE_CURVE('',#484,#485,#582,.T.);
#359=EDGE_CURVE('',#454,#485,#583,.T.);
#360=EDGE_CURVE('',#453,#484,#584,.T.);
#361=EDGE_CURVE('',#486,#487,#585,.T.);
#362=EDGE_CURVE('',#488,#486,#586,.T.);
#363=EDGE_CURVE('',#488,#489,#587,.T.);
#364=EDGE_CURVE('',#487,#489,#588,.T.);
#365=EDGE_CURVE('',#490,#491,#589,.T.);
#366=EDGE_CURVE('',#452,#490,#590,.T.);
#367=EDGE_CURVE('',#455,#491,#591,.T.);
#368=EDGE_CURVE('',#492,#493,#592,.T.);
#369=EDGE_CURVE('',#493,#494,#593,.T.);
#370=EDGE_CURVE('',#494,#495,#594,.T.);
#371=EDGE_CURVE('',#492,#495,#595,.T.);
#372=EDGE_CURVE('',#496,#497,#596,.T.);
#373=EDGE_CURVE('',#497,#498,#597,.T.);
#374=EDGE_CURVE('',#498,#499,#598,.T.);
#375=EDGE_CURVE('',#496,#499,#599,.T.);
#376=EDGE_CURVE('',#500,#490,#600,.T.);
#377=EDGE_CURVE('',#501,#500,#601,.T.);
#378=EDGE_CURVE('',#501,#463,#602,.T.);
#379=EDGE_CURVE('',#479,#502,#603,.T.);
#380=EDGE_CURVE('',#502,#503,#604,.T.);
#381=EDGE_CURVE('',#484,#503,#605,.T.);
#382=EDGE_CURVE('',#504,#504,#28,.T.);
#383=EDGE_CURVE('',#505,#505,#29,.T.);
#384=EDGE_CURVE('',#506,#506,#30,.T.);
#385=EDGE_CURVE('',#507,#507,#31,.T.);
#386=EDGE_CURVE('',#508,#508,#32,.T.);
#387=EDGE_CURVE('',#509,#509,#33,.T.);
#388=EDGE_CURVE('',#510,#510,#34,.T.);
#389=EDGE_CURVE('',#511,#511,#35,.T.);
#390=EDGE_CURVE('',#512,#512,#36,.T.);
#391=EDGE_CURVE('',#513,#513,#37,.T.);
#392=EDGE_CURVE('',#514,#514,#38,.T.);
#393=EDGE_CURVE('',#515,#515,#39,.T.);
#394=EDGE_CURVE('',#516,#503,#606,.T.);
#395=EDGE_CURVE('',#517,#516,#607,.T.);
#396=EDGE_CURVE('',#517,#500,#608,.T.);
#397=EDGE_CURVE('',#485,#491,#609,.T.);
#398=EDGE_CURVE('',#460,#497,#610,.T.);
#399=EDGE_CURVE('',#468,#496,#611,.T.);
#400=EDGE_CURVE('',#467,#493,#612,.T.);
#401=EDGE_CURVE('',#464,#492,#613,.T.);
#402=EDGE_CURVE('',#518,#501,#614,.T.);
#403=EDGE_CURVE('',#518,#519,#615,.T.);
#404=EDGE_CURVE('',#519,#502,#616,.T.);
#405=EDGE_CURVE('',#482,#478,#617,.T.);
#406=EDGE_CURVE('',#480,#475,#618,.T.);
#407=EDGE_CURVE('',#488,#474,#619,.T.);
#408=EDGE_CURVE('',#486,#470,#620,.T.);
#409=EDGE_CURVE('',#462,#471,#621,.T.);
#410=EDGE_CURVE('',#520,#520,#40,.T.);
#411=EDGE_CURVE('',#521,#521,#41,.T.);
#412=EDGE_CURVE('',#522,#522,#42,.T.);
#413=EDGE_CURVE('',#523,#523,#43,.T.);
#414=EDGE_CURVE('',#524,#524,#44,.T.);
#415=EDGE_CURVE('',#525,#525,#45,.T.);
#416=EDGE_CURVE('',#526,#526,#46,.T.);
#417=EDGE_CURVE('',#527,#527,#47,.T.);
#418=EDGE_CURVE('',#528,#528,#48,.T.);
#419=EDGE_CURVE('',#529,#529,#49,.T.);
#420=EDGE_CURVE('',#530,#530,#50,.T.);
#421=EDGE_CURVE('',#531,#531,#51,.T.);
#422=EDGE_CURVE('',#532,#532,#52,.T.);
#423=EDGE_CURVE('',#533,#533,#53,.T.);
#424=EDGE_CURVE('',#518,#517,#622,.T.);
#425=EDGE_CURVE('',#519,#516,#623,.T.);
#426=EDGE_CURVE('',#534,#534,#54,.T.);
#427=EDGE_CURVE('',#535,#535,#55,.T.);
#428=EDGE_CURVE('',#536,#536,#56,.T.);
#429=EDGE_CURVE('',#537,#537,#57,.T.);
#430=EDGE_CURVE('',#538,#538,#58,.T.);
#431=EDGE_CURVE('',#539,#539,#59,.T.);
#432=EDGE_CURVE('',#465,#495,#624,.T.);
#433=EDGE_CURVE('',#466,#494,#625,.T.);
#434=EDGE_CURVE('',#469,#499,#626,.T.);
#435=EDGE_CURVE('',#461,#498,#627,.T.);
#436=EDGE_CURVE('',#481,#476,#628,.T.);
#437=EDGE_CURVE('',#483,#477,#629,.T.);
#438=EDGE_CURVE('',#487,#472,#630,.T.);
#439=EDGE_CURVE('',#489,#473,#631,.T.);
#440=EDGE_CURVE('',#457,#450,#632,.T.);
#441=EDGE_CURVE('',#458,#448,#633,.T.);
#442=EDGE_CURVE('',#459,#449,#634,.T.);
#443=EDGE_CURVE('',#456,#451,#635,.T.);
#444=VERTEX_POINT('',#1376);
#445=VERTEX_POINT('',#1377);
#446=VERTEX_POINT('',#1379);
#447=VERTEX_POINT('',#1381);
#448=VERTEX_POINT('',#1384);
#449=VERTEX_POINT('',#1385);
#450=VERTEX_POINT('',#1387);
#451=VERTEX_POINT('',#1389);
#452=VERTEX_POINT('',#1393);
#453=VERTEX_POINT('',#1394);
#454=VERTEX_POINT('',#1396);
#455=VERTEX_POINT('',#1398);
#456=VERTEX_POINT('',#1401);
#457=VERTEX_POINT('',#1402);
#458=VERTEX_POINT('',#1404);
#459=VERTEX_POINT('',#1406);
#460=VERTEX_POINT('',#1410);
#461=VERTEX_POINT('',#1411);
#462=VERTEX_POINT('',#1413);
#463=VERTEX_POINT('',#1416);
#464=VERTEX_POINT('',#1418);
#465=VERTEX_POINT('',#1420);
#466=VERTEX_POINT('',#1422);
#467=VERTEX_POINT('',#1424);
#468=VERTEX_POINT('',#1426);
#469=VERTEX_POINT('',#1428);
#470=VERTEX_POINT('',#1432);
#471=VERTEX_POINT('',#1433);
#472=VERTEX_POINT('',#1435);
#473=VERTEX_POINT('',#1437);
#474=VERTEX_POINT('',#1439);
#475=VERTEX_POINT('',#1441);
#476=VERTEX_POINT('',#1443);
#477=VERTEX_POINT('',#1445);
#478=VERTEX_POINT('',#1447);
#479=VERTEX_POINT('',#1449);
#480=VERTEX_POINT('',#1454);
#481=VERTEX_POINT('',#1455);
#482=VERTEX_POINT('',#1457);
#483=VERTEX_POINT('',#1459);
#484=VERTEX_POINT('',#1462);
#485=VERTEX_POINT('',#1463);
#486=VERTEX_POINT('',#1467);
#487=VERTEX_POINT('',#1468);
#488=VERTEX_POINT('',#1470);
#489=VERTEX_POINT('',#1472);
#490=VERTEX_POINT('',#1476);
#491=VERTEX_POINT('',#1477);
#492=VERTEX_POINT('',#1481);
#493=VERTEX_POINT('',#1482);
#494=VERTEX_POINT('',#1484);
#495=VERTEX_POINT('',#1486);
#496=VERTEX_POINT('',#1489);
#497=VERTEX_POINT('',#1490);
#498=VERTEX_POINT('',#1492);
#499=VERTEX_POINT('',#1494);
#500=VERTEX_POINT('',#1498);
#501=VERTEX_POINT('',#1500);
#502=VERTEX_POINT('',#1503);
#503=VERTEX_POINT('',#1505);
#504=VERTEX_POINT('',#1509);
#505=VERTEX_POINT('',#1511);
#506=VERTEX_POINT('',#1513);
#507=VERTEX_POINT('',#1515);
#508=VERTEX_POINT('',#1517);
#509=VERTEX_POINT('',#1519);
#510=VERTEX_POINT('',#1521);
#511=VERTEX_POINT('',#1523);
#512=VERTEX_POINT('',#1525);
#513=VERTEX_POINT('',#1527);
#514=VERTEX_POINT('',#1529);
#515=VERTEX_POINT('',#1531);
#516=VERTEX_POINT('',#1533);
#517=VERTEX_POINT('',#1535);
#518=VERTEX_POINT('',#1544);
#519=VERTEX_POINT('',#1546);
#520=VERTEX_POINT('',#1554);
#521=VERTEX_POINT('',#1556);
#522=VERTEX_POINT('',#1558);
#523=VERTEX_POINT('',#1560);
#524=VERTEX_POINT('',#1562);
#525=VERTEX_POINT('',#1564);
#526=VERTEX_POINT('',#1566);
#527=VERTEX_POINT('',#1568);
#528=VERTEX_POINT('',#1570);
#529=VERTEX_POINT('',#1572);
#530=VERTEX_POINT('',#1574);
#531=VERTEX_POINT('',#1576);
#532=VERTEX_POINT('',#1578);
#533=VERTEX_POINT('',#1580);
#534=VERTEX_POINT('',#1600);
#535=VERTEX_POINT('',#1603);
#536=VERTEX_POINT('',#1605);
#537=VERTEX_POINT('',#1610);
#538=VERTEX_POINT('',#1612);
#539=VERTEX_POINT('',#1615);
#540=LINE('',#1375,#636);
#541=LINE('',#1378,#637);
#542=LINE('',#1380,#638);
#543=LINE('',#1382,#639);
#544=LINE('',#1383,#640);
#545=LINE('',#1386,#641);
#546=LINE('',#1388,#642);
#547=LINE('',#1390,#643);
#548=LINE('',#1392,#644);
#549=LINE('',#1395,#645);
#550=LINE('',#1397,#646);
#551=LINE('',#1399,#647);
#552=LINE('',#1400,#648);
#553=LINE('',#1403,#649);
#554=LINE('',#1405,#650);
#555=LINE('',#1407,#651);
#556=LINE('',#1409,#652);
#557=LINE('',#1412,#653);
#558=LINE('',#1414,#654);
#559=LINE('',#1415,#655);
#560=LINE('',#1417,#656);
#561=LINE('',#1419,#657);
#562=LINE('',#1421,#658);
#563=LINE('',#1423,#659);
#564=LINE('',#1425,#660);
#565=LINE('',#1427,#661);
#566=LINE('',#1429,#662);
#567=LINE('',#1431,#663);
#568=LINE('',#1434,#664);
#569=LINE('',#1436,#665);
#570=LINE('',#1438,#666);
#571=LINE('',#1440,#667);
#572=LINE('',#1442,#668);
#573=LINE('',#1444,#669);
#574=LINE('',#1446,#670);
#575=LINE('',#1448,#671);
#576=LINE('',#1450,#672);
#577=LINE('',#1451,#673);
#578=LINE('',#1453,#674);
#579=LINE('',#1456,#675);
#580=LINE('',#1458,#676);
#581=LINE('',#1460,#677);
#582=LINE('',#1461,#678);
#583=LINE('',#1464,#679);
#584=LINE('',#1465,#680);
#585=LINE('',#1466,#681);
#586=LINE('',#1469,#682);
#587=LINE('',#1471,#683);
#588=LINE('',#1473,#684);
#589=LINE('',#1475,#685);
#590=LINE('',#1478,#686);
#591=LINE('',#1479,#687);
#592=LINE('',#1480,#688);
#593=LINE('',#1483,#689);
#594=LINE('',#1485,#690);
#595=LINE('',#1487,#691);
#596=LINE('',#1488,#692);
#597=LINE('',#1491,#693);
#598=LINE('',#1493,#694);
#599=LINE('',#1495,#695);
#600=LINE('',#1497,#696);
#601=LINE('',#1499,#697);
#602=LINE('',#1501,#698);
#603=LINE('',#1502,#699);
#604=LINE('',#1504,#700);
#605=LINE('',#1506,#701);
#606=LINE('',#1532,#702);
#607=LINE('',#1534,#703);
#608=LINE('',#1536,#704);
#609=LINE('',#1537,#705);
#610=LINE('',#1539,#706);
#611=LINE('',#1540,#707);
#612=LINE('',#1541,#708);
#613=LINE('',#1542,#709);
#614=LINE('',#1543,#710);
#615=LINE('',#1545,#711);
#616=LINE('',#1547,#712);
#617=LINE('',#1548,#713);
#618=LINE('',#1549,#714);
#619=LINE('',#1550,#715);
#620=LINE('',#1551,#716);
#621=LINE('',#1552,#717);
#622=LINE('',#1582,#718);
#623=LINE('',#1584,#719);
#624=LINE('',#1621,#720);
#625=LINE('',#1622,#721);
#626=LINE('',#1626,#722);
#627=LINE('',#1627,#723);
#628=LINE('',#1631,#724);
#629=LINE('',#1633,#725);
#630=LINE('',#1636,#726);
#631=LINE('',#1638,#727);
#632=LINE('',#1641,#728);
#633=LINE('',#1642,#729);
#634=LINE('',#1644,#730);
#635=LINE('',#1646,#731);
#636=VECTOR('',#1115,1.);
#637=VECTOR('',#1116,1.);
#638=VECTOR('',#1117,1.);
#639=VECTOR('',#1118,1.);
#640=VECTOR('',#1119,1.);
#641=VECTOR('',#1120,1.);
#642=VECTOR('',#1121,1.);
#643=VECTOR('',#1122,1.);
#644=VECTOR('',#1125,1.);
#645=VECTOR('',#1126,1.);
#646=VECTOR('',#1127,1.);
#647=VECTOR('',#1128,1.);
#648=VECTOR('',#1129,1.);
#649=VECTOR('',#1130,1.);
#650=VECTOR('',#1131,1.);
#651=VECTOR('',#1132,1.);
#652=VECTOR('',#1135,1.);
#653=VECTOR('',#1136,1.);
#654=VECTOR('',#1137,1.);
#655=VECTOR('',#1138,1.);
#656=VECTOR('',#1139,1.);
#657=VECTOR('',#1140,1.);
#658=VECTOR('',#1141,1.);
#659=VECTOR('',#1142,1.);
#660=VECTOR('',#1143,1.);
#661=VECTOR('',#1144,1.);
#662=VECTOR('',#1145,1.);
#663=VECTOR('',#1148,1.);
#664=VECTOR('',#1149,1.);
#665=VECTOR('',#1150,1.);
#666=VECTOR('',#1151,1.);
#667=VECTOR('',#1152,1.);
#668=VECTOR('',#1153,1.);
#669=VECTOR('',#1154,1.);
#670=VECTOR('',#1155,1.);
#671=VECTOR('',#1156,1.);
#672=VECTOR('',#1157,1.);
#673=VECTOR('',#1158,1.);
#674=VECTOR('',#1161,1.);
#675=VECTOR('',#1162,1.);
#676=VECTOR('',#1163,1.);
#677=VECTOR('',#1164,1.);
#678=VECTOR('',#1165,1.);
#679=VECTOR('',#1166,1.);
#680=VECTOR('',#1167,1.);
#681=VECTOR('',#1168,1.);
#682=VECTOR('',#1169,1.);
#683=VECTOR('',#1170,1.);
#684=VECTOR('',#1171,1.);
#685=VECTOR('',#1174,1.);
#686=VECTOR('',#1175,1.);
#687=VECTOR('',#1176,1.);
#688=VECTOR('',#1177,1.);
#689=VECTOR('',#1178,1.);
#690=VECTOR('',#1179,1.);
#691=VECTOR('',#1180,1.);
#692=VECTOR('',#1181,1.);
#693=VECTOR('',#1182,1.);
#694=VECTOR('',#1183,1.);
#695=VECTOR('',#1184,1.);
#696=VECTOR('',#1187,1.);
#697=VECTOR('',#1188,1.);
#698=VECTOR('',#1189,1.);
#699=VECTOR('',#1190,1.);
#700=VECTOR('',#1191,1.);
#701=VECTOR('',#1192,1.);
#702=VECTOR('',#1219,1.);
#703=VECTOR('',#1220,1.);
#704=VECTOR('',#1221,1.);
#705=VECTOR('',#1222,1.);
#706=VECTOR('',#1225,1.);
#707=VECTOR('',#1226,1.);
#708=VECTOR('',#1227,1.);
#709=VECTOR('',#1228,1.);
#710=VECTOR('',#1229,1.);
#711=VECTOR('',#1230,1.);
#712=VECTOR('',#1231,1.);
#713=VECTOR('',#1232,1.);
#714=VECTOR('',#1233,1.);
#715=VECTOR('',#1234,1.);
#716=VECTOR('',#1235,1.);
#717=VECTOR('',#1236,1.);
#718=VECTOR('',#1267,1.);
#719=VECTOR('',#1270,1.);
#720=VECTOR('',#1331,1.);
#721=VECTOR('',#1332,1.);
#722=VECTOR('',#1339,1.);
#723=VECTOR('',#1340,1.);
#724=VECTOR('',#1347,1.);
#725=VECTOR('',#1350,1.);
#726=VECTOR('',#1355,1.);
#727=VECTOR('',#1358,1.);
#728=VECTOR('',#1363,1.);
#729=VECTOR('',#1364,1.);
#730=VECTOR('',#1367,1.);
#731=VECTOR('',#1370,1.);
#732=EDGE_LOOP('',(#60,#61,#62,#63));
#733=EDGE_LOOP('',(#64,#65,#66,#67));
#734=EDGE_LOOP('',(#68,#69,#70,#71));
#735=EDGE_LOOP('',(#72,#73,#74,#75));
#736=EDGE_LOOP('',(#76,#77,#78,#79,#80,#81,#82,#83,#84,#85,#86,#87));
#737=EDGE_LOOP('',(#88,#89,#90,#91,#92,#93,#94,#95,#96,#97,#98,#99));
#738=EDGE_LOOP('',(#100,#101,#102,#103));
#739=EDGE_LOOP('',(#104,#105,#106,#107));
#740=EDGE_LOOP('',(#108,#109,#110,#111));
#741=EDGE_LOOP('',(#112,#113,#114,#115));
#742=EDGE_LOOP('',(#116,#117,#118,#119));
#743=EDGE_LOOP('',(#120,#121,#122,#123));
#744=EDGE_LOOP('',(#124,#125,#126,#127,#128,#129,#130,#131,#132,#133,#134,
#135));
#745=EDGE_LOOP('',(#136));
#746=EDGE_LOOP('',(#137));
#747=EDGE_LOOP('',(#138));
#748=EDGE_LOOP('',(#139));
#749=EDGE_LOOP('',(#140));
#750=EDGE_LOOP('',(#141));
#751=EDGE_LOOP('',(#142));
#752=EDGE_LOOP('',(#143));
#753=EDGE_LOOP('',(#144));
#754=EDGE_LOOP('',(#145));
#755=EDGE_LOOP('',(#146));
#756=EDGE_LOOP('',(#147));
#757=EDGE_LOOP('',(#148,#149,#150,#151,#152,#153,#154,#155));
#758=EDGE_LOOP('',(#156,#157,#158,#159,#160,#161,#162,#163,#164,#165,#166,
#167,#168,#169,#170,#171,#172,#173,#174,#175,#176,#177,#178,#179));
#759=EDGE_LOOP('',(#180));
#760=EDGE_LOOP('',(#181));
#761=EDGE_LOOP('',(#182));
#762=EDGE_LOOP('',(#183));
#763=EDGE_LOOP('',(#184));
#764=EDGE_LOOP('',(#185));
#765=EDGE_LOOP('',(#186));
#766=EDGE_LOOP('',(#187));
#767=EDGE_LOOP('',(#188));
#768=EDGE_LOOP('',(#189));
#769=EDGE_LOOP('',(#190));
#770=EDGE_LOOP('',(#191));
#771=EDGE_LOOP('',(#192));
#772=EDGE_LOOP('',(#193));
#773=EDGE_LOOP('',(#194,#195,#196,#197));
#774=EDGE_LOOP('',(#198,#199,#200,#201));
#775=EDGE_LOOP('',(#202,#203,#204,#205));
#776=EDGE_LOOP('',(#206));
#777=EDGE_LOOP('',(#207));
#778=EDGE_LOOP('',(#208));
#779=EDGE_LOOP('',(#209));
#780=EDGE_LOOP('',(#210));
#781=EDGE_LOOP('',(#211));
#782=EDGE_LOOP('',(#212));
#783=EDGE_LOOP('',(#213));
#784=EDGE_LOOP('',(#214));
#785=EDGE_LOOP('',(#215));
#786=EDGE_LOOP('',(#216));
#787=EDGE_LOOP('',(#217));
#788=EDGE_LOOP('',(#218));
#789=EDGE_LOOP('',(#219));
#790=EDGE_LOOP('',(#220));
#791=EDGE_LOOP('',(#221));
#792=EDGE_LOOP('',(#222));
#793=EDGE_LOOP('',(#223));
#794=EDGE_LOOP('',(#224));
#795=EDGE_LOOP('',(#225));
#796=EDGE_LOOP('',(#226));
#797=EDGE_LOOP('',(#227));
#798=EDGE_LOOP('',(#228));
#799=EDGE_LOOP('',(#229));
#800=EDGE_LOOP('',(#230));
#801=EDGE_LOOP('',(#231));
#802=EDGE_LOOP('',(#232));
#803=EDGE_LOOP('',(#233));
#804=EDGE_LOOP('',(#234));
#805=EDGE_LOOP('',(#235));
#806=EDGE_LOOP('',(#236));
#807=EDGE_LOOP('',(#237));
#808=EDGE_LOOP('',(#238));
#809=EDGE_LOOP('',(#239));
#810=EDGE_LOOP('',(#240));
#811=EDGE_LOOP('',(#241));
#812=EDGE_LOOP('',(#242));
#813=EDGE_LOOP('',(#243));
#814=EDGE_LOOP('',(#244,#245,#246,#247));
#815=EDGE_LOOP('',(#248,#249,#250,#251));
#816=EDGE_LOOP('',(#252,#253,#254,#255));
#817=EDGE_LOOP('',(#256,#257,#258,#259));
#818=EDGE_LOOP('',(#260,#261,#262,#263));
#819=EDGE_LOOP('',(#264,#265,#266,#267));
#820=EDGE_LOOP('',(#268,#269,#270,#271));
#821=EDGE_LOOP('',(#272,#273,#274,#275));
#822=EDGE_LOOP('',(#276,#277,#278,#279));
#823=EDGE_LOOP('',(#280,#281,#282,#283));
#824=EDGE_LOOP('',(#284,#285,#286,#287));
#825=EDGE_LOOP('',(#288,#289,#290,#291));
#826=EDGE_LOOP('',(#292,#293,#294,#295));
#827=EDGE_LOOP('',(#296,#297,#298,#299));
#828=EDGE_LOOP('',(#300,#301,#302,#303));
#829=EDGE_LOOP('',(#304,#305,#306,#307));
#830=EDGE_LOOP('',(#308,#309,#310,#311));
#831=EDGE_LOOP('',(#312,#313,#314,#315));
#832=FACE_BOUND('',#732,.T.);
#833=FACE_BOUND('',#733,.T.);
#834=FACE_BOUND('',#734,.T.);
#835=FACE_BOUND('',#735,.T.);
#836=FACE_BOUND('',#736,.T.);
#837=FACE_BOUND('',#737,.T.);
#838=FACE_BOUND('',#738,.T.);
#839=FACE_BOUND('',#739,.T.);
#840=FACE_BOUND('',#740,.T.);
#841=FACE_BOUND('',#741,.T.);
#842=FACE_BOUND('',#742,.T.);
#843=FACE_BOUND('',#743,.T.);
#844=FACE_BOUND('',#744,.T.);
#845=FACE_BOUND('',#745,.T.);
#846=FACE_BOUND('',#746,.T.);
#847=FACE_BOUND('',#747,.T.);
#848=FACE_BOUND('',#748,.T.);
#849=FACE_BOUND('',#749,.T.);
#850=FACE_BOUND('',#750,.T.);
#851=FACE_BOUND('',#751,.T.);
#852=FACE_BOUND('',#752,.T.);
#853=FACE_BOUND('',#753,.T.);
#854=FACE_BOUND('',#754,.T.);
#855=FACE_BOUND('',#755,.T.);
#856=FACE_BOUND('',#756,.T.);
#857=FACE_BOUND('',#757,.T.);
#858=FACE_BOUND('',#758,.T.);
#859=FACE_BOUND('',#759,.T.);
#860=FACE_BOUND('',#760,.T.);
#861=FACE_BOUND('',#761,.T.);
#862=FACE_BOUND('',#762,.T.);
#863=FACE_BOUND('',#763,.T.);
#864=FACE_BOUND('',#764,.T.);
#865=FACE_BOUND('',#765,.T.);
#866=FACE_BOUND('',#766,.T.);
#867=FACE_BOUND('',#767,.T.);
#868=FACE_BOUND('',#768,.T.);
#869=FACE_BOUND('',#769,.T.);
#870=FACE_BOUND('',#770,.T.);
#871=FACE_BOUND('',#771,.T.);
#872=FACE_BOUND('',#772,.T.);
#873=FACE_BOUND('',#773,.T.);
#874=FACE_BOUND('',#774,.T.);
#875=FACE_BOUND('',#775,.T.);
#876=FACE_BOUND('',#776,.T.);
#877=FACE_BOUND('',#777,.T.);
#878=FACE_BOUND('',#778,.T.);
#879=FACE_BOUND('',#779,.T.);
#880=FACE_BOUND('',#780,.T.);
#881=FACE_BOUND('',#781,.T.);
#882=FACE_BOUND('',#782,.T.);
#883=FACE_BOUND('',#783,.T.);
#884=FACE_BOUND('',#784,.T.);
#885=FACE_BOUND('',#785,.T.);
#886=FACE_BOUND('',#786,.T.);
#887=FACE_BOUND('',#787,.T.);
#888=FACE_BOUND('',#788,.T.);
#889=FACE_BOUND('',#789,.T.);
#890=FACE_BOUND('',#790,.T.);
#891=FACE_BOUND('',#791,.T.);
#892=FACE_BOUND('',#792,.T.);
#893=FACE_BOUND('',#793,.T.);
#894=FACE_BOUND('',#794,.T.);
#895=FACE_BOUND('',#795,.T.);
#896=FACE_BOUND('',#796,.T.);
#897=FACE_BOUND('',#797,.T.);
#898=FACE_BOUND('',#798,.T.);
#899=FACE_BOUND('',#799,.T.);
#900=FACE_BOUND('',#800,.T.);
#901=FACE_BOUND('',#801,.T.);
#902=FACE_BOUND('',#802,.T.);
#903=FACE_BOUND('',#803,.T.);
#904=FACE_BOUND('',#804,.T.);
#905=FACE_BOUND('',#805,.T.);
#906=FACE_BOUND('',#806,.T.);
#907=FACE_BOUND('',#807,.T.);
#908=FACE_BOUND('',#808,.T.);
#909=FACE_BOUND('',#809,.T.);
#910=FACE_BOUND('',#810,.T.);
#911=FACE_BOUND('',#811,.T.);
#912=FACE_BOUND('',#812,.T.);
#913=FACE_BOUND('',#813,.T.);
#914=FACE_BOUND('',#814,.T.);
#915=FACE_BOUND('',#815,.T.);
#916=FACE_BOUND('',#816,.T.);
#917=FACE_BOUND('',#817,.T.);
#918=FACE_BOUND('',#818,.T.);
#919=FACE_BOUND('',#819,.T.);
#920=FACE_BOUND('',#820,.T.);
#921=FACE_BOUND('',#821,.T.);
#922=FACE_BOUND('',#822,.T.);
#923=FACE_BOUND('',#823,.T.);
#924=FACE_BOUND('',#824,.T.);
#925=FACE_BOUND('',#825,.T.);
#926=FACE_BOUND('',#826,.T.);
#927=FACE_BOUND('',#827,.T.);
#928=FACE_BOUND('',#828,.T.);
#929=FACE_BOUND('',#829,.T.);
#930=FACE_BOUND('',#830,.T.);
#931=FACE_BOUND('',#831,.T.);
#932=PLANE('',#1029);
#933=PLANE('',#1030);
#934=PLANE('',#1031);
#935=PLANE('',#1032);
#936=PLANE('',#1033);
#937=PLANE('',#1034);
#938=PLANE('',#1035);
#939=PLANE('',#1036);
#940=PLANE('',#1049);
#941=PLANE('',#1064);
#942=PLANE('',#1065);
#943=PLANE('',#1066);
#944=PLANE('',#1084);
#945=PLANE('',#1085);
#946=PLANE('',#1091);
#947=PLANE('',#1092);
#948=PLANE('',#1093);
#949=PLANE('',#1094);
#950=PLANE('',#1095);
#951=PLANE('',#1096);
#952=PLANE('',#1097);
#953=PLANE('',#1098);
#954=PLANE('',#1099);
#955=PLANE('',#1100);
#956=PLANE('',#1101);
#957=PLANE('',#1102);
#958=PLANE('',#1103);
#959=PLANE('',#1104);
#960=PLANE('',#1105);
#961=PLANE('',#1106);
#962=PLANE('',#1107);
#963=PLANE('',#1108);
#964=PLANE('',#1109);
#965=PLANE('',#1110);
#966=ADVANCED_FACE('',(#832,#833),#932,.T.);
#967=ADVANCED_FACE('',(#834,#835),#933,.T.);
#968=ADVANCED_FACE('',(#836),#934,.F.);
#969=ADVANCED_FACE('',(#837),#935,.T.);
#970=ADVANCED_FACE('',(#838,#839,#840),#936,.F.);
#971=ADVANCED_FACE('',(#841,#842,#843),#937,.T.);
#972=ADVANCED_FACE('',(#844),#938,.T.);
#973=ADVANCED_FACE('',(#845,#846,#847,#848,#849,#850,#851,#852,#853,#854,
#855,#856,#857),#939,.F.);
#974=ADVANCED_FACE('',(#858,#859,#860,#861,#862,#863,#864,#865,#866,#867,
#868,#869,#870,#871,#872),#940,.T.);
#975=ADVANCED_FACE('',(#873),#941,.T.);
#976=ADVANCED_FACE('',(#874),#942,.F.);
#977=ADVANCED_FACE('',(#875),#943,.F.);
#978=ADVANCED_FACE('',(#876,#877),#12,.F.);
#979=ADVANCED_FACE('',(#878,#879),#13,.F.);
#980=ADVANCED_FACE('',(#880,#881),#14,.F.);
#981=ADVANCED_FACE('',(#882,#883),#15,.F.);
#982=ADVANCED_FACE('',(#884,#885),#16,.F.);
#983=ADVANCED_FACE('',(#886,#887),#17,.F.);
#984=ADVANCED_FACE('',(#888,#889),#18,.F.);
#985=ADVANCED_FACE('',(#890,#891),#19,.F.);
#986=ADVANCED_FACE('',(#892,#893),#20,.F.);
#987=ADVANCED_FACE('',(#894,#895),#21,.F.);
#988=ADVANCED_FACE('',(#896,#897),#22,.F.);
#989=ADVANCED_FACE('',(#898,#899),#23,.F.);
#990=ADVANCED_FACE('',(#900,#901),#24,.T.);
#991=ADVANCED_FACE('',(#902,#903),#25,.F.);
#992=ADVANCED_FACE('',(#904,#905),#944,.T.);
#993=ADVANCED_FACE('',(#906),#945,.T.);
#994=ADVANCED_FACE('',(#907,#908),#26,.F.);
#995=ADVANCED_FACE('',(#909,#910),#27,.T.);
#996=ADVANCED_FACE('',(#911,#912),#946,.T.);
#997=ADVANCED_FACE('',(#913),#947,.T.);
#998=ADVANCED_FACE('',(#914),#948,.F.);
#999=ADVANCED_FACE('',(#915),#949,.F.);
#1000=ADVANCED_FACE('',(#916),#950,.T.);
#1001=ADVANCED_FACE('',(#917),#951,.F.);
#1002=ADVANCED_FACE('',(#918),#952,.T.);
#1003=ADVANCED_FACE('',(#919),#953,.T.);
#1004=ADVANCED_FACE('',(#920),#954,.F.);
#1005=ADVANCED_FACE('',(#921),#955,.T.);
#1006=ADVANCED_FACE('',(#922),#956,.T.);
#1007=ADVANCED_FACE('',(#923),#957,.F.);
#1008=ADVANCED_FACE('',(#924),#958,.T.);
#1009=ADVANCED_FACE('',(#925),#959,.T.);
#1010=ADVANCED_FACE('',(#926),#960,.F.);
#1011=ADVANCED_FACE('',(#927),#961,.T.);
#1012=ADVANCED_FACE('',(#928),#962,.T.);
#1013=ADVANCED_FACE('',(#929),#963,.F.);
#1014=ADVANCED_FACE('',(#930),#964,.F.);
#1015=ADVANCED_FACE('',(#931),#965,.T.);
#1016=CLOSED_SHELL('',(#966,#967,#968,#969,#970,#971,#972,#973,#974,#975,
#976,#977,#978,#979,#980,#981,#982,#983,#984,#985,#986,#987,#988,#989,#990,
#991,#992,#993,#994,#995,#996,#997,#998,#999,#1000,#1001,#1002,#1003,#1004,
#1005,#1006,#1007,#1008,#1009,#1010,#1011,#1012,#1013,#1014,#1015));
#1017=STYLED_ITEM('',(#1018),#1025);
#1018=PRESENTATION_STYLE_ASSIGNMENT((#1019));
#1019=SURFACE_STYLE_USAGE(.BOTH.,#1020);
#1020=SURFACE_SIDE_STYLE('',(#1021));
#1021=SURFACE_STYLE_FILL_AREA(#1022);
#1022=FILL_AREA_STYLE('',(#1023));
#1023=FILL_AREA_STYLE_COLOUR('',#1024);
#1024=COLOUR_RGB('',0.43921568627451,0.474509803921569,0.501960784313726);
#1025=MANIFOLD_SOLID_BREP('Part 1',#1016);
#1026=SHAPE_DEFINITION_REPRESENTATION(#1654,#1027);
#1027=SHAPE_REPRESENTATION('Part 1',(#1028),#1649);
#1028=AXIS2_PLACEMENT_3D('',#1373,#1111,#1112);
#1029=AXIS2_PLACEMENT_3D('',#1374,#1113,#1114);
#1030=AXIS2_PLACEMENT_3D('',#1391,#1123,#1124);
#1031=AXIS2_PLACEMENT_3D('',#1408,#1133,#1134);
#1032=AXIS2_PLACEMENT_3D('',#1430,#1146,#1147);
#1033=AXIS2_PLACEMENT_3D('',#1452,#1159,#1160);
#1034=AXIS2_PLACEMENT_3D('',#1474,#1172,#1173);
#1035=AXIS2_PLACEMENT_3D('',#1496,#1185,#1186);
#1036=AXIS2_PLACEMENT_3D('',#1507,#1193,#1194);
#1037=AXIS2_PLACEMENT_3D('',#1508,#1195,#1196);
#1038=AXIS2_PLACEMENT_3D('',#1510,#1197,#1198);
#1039=AXIS2_PLACEMENT_3D('',#1512,#1199,#1200);
#1040=AXIS2_PLACEMENT_3D('',#1514,#1201,#1202);
#1041=AXIS2_PLACEMENT_3D('',#1516,#1203,#1204);
#1042=AXIS2_PLACEMENT_3D('',#1518,#1205,#1206);
#1043=AXIS2_PLACEMENT_3D('',#1520,#1207,#1208);
#1044=AXIS2_PLACEMENT_3D('',#1522,#1209,#1210);
#1045=AXIS2_PLACEMENT_3D('',#1524,#1211,#1212);
#1046=AXIS2_PLACEMENT_3D('',#1526,#1213,#1214);
#1047=AXIS2_PLACEMENT_3D('',#1528,#1215,#1216);
#1048=AXIS2_PLACEMENT_3D('',#1530,#1217,#1218);
#1049=AXIS2_PLACEMENT_3D('',#1538,#1223,#1224);
#1050=AXIS2_PLACEMENT_3D('',#1553,#1237,#1238);
#1051=AXIS2_PLACEMENT_3D('',#1555,#1239,#1240);
#1052=AXIS2_PLACEMENT_3D('',#1557,#1241,#1242);
#1053=AXIS2_PLACEMENT_3D('',#1559,#1243,#1244);
#1054=AXIS2_PLACEMENT_3D('',#1561,#1245,#1246);
#1055=AXIS2_PLACEMENT_3D('',#1563,#1247,#1248);
#1056=AXIS2_PLACEMENT_3D('',#1565,#1249,#1250);
#1057=AXIS2_PLACEMENT_3D('',#1567,#1251,#1252);
#1058=AXIS2_PLACEMENT_3D('',#1569,#1253,#1254);
#1059=AXIS2_PLACEMENT_3D('',#1571,#1255,#1256);
#1060=AXIS2_PLACEMENT_3D('',#1573,#1257,#1258);
#1061=AXIS2_PLACEMENT_3D('',#1575,#1259,#1260);
#1062=AXIS2_PLACEMENT_3D('',#1577,#1261,#1262);
#1063=AXIS2_PLACEMENT_3D('',#1579,#1263,#1264);
#1064=AXIS2_PLACEMENT_3D('',#1581,#1265,#1266);
#1065=AXIS2_PLACEMENT_3D('',#1583,#1268,#1269);
#1066=AXIS2_PLACEMENT_3D('',#1585,#1271,#1272);
#1067=AXIS2_PLACEMENT_3D('',#1586,#1273,#1274);
#1068=AXIS2_PLACEMENT_3D('',#1587,#1275,#1276);
#1069=AXIS2_PLACEMENT_3D('',#1588,#1277,#1278);
#1070=AXIS2_PLACEMENT_3D('',#1589,#1279,#1280);
#1071=AXIS2_PLACEMENT_3D('',#1590,#1281,#1282);
#1072=AXIS2_PLACEMENT_3D('',#1591,#1283,#1284);
#1073=AXIS2_PLACEMENT_3D('',#1592,#1285,#1286);
#1074=AXIS2_PLACEMENT_3D('',#1593,#1287,#1288);
#1075=AXIS2_PLACEMENT_3D('',#1594,#1289,#1290);
#1076=AXIS2_PLACEMENT_3D('',#1595,#1291,#1292);
#1077=AXIS2_PLACEMENT_3D('',#1596,#1293,#1294);
#1078=AXIS2_PLACEMENT_3D('',#1597,#1295,#1296);
#1079=AXIS2_PLACEMENT_3D('',#1598,#1297,#1298);
#1080=AXIS2_PLACEMENT_3D('',#1599,#1299,#1300);
#1081=AXIS2_PLACEMENT_3D('',#1601,#1301,#1302);
#1082=AXIS2_PLACEMENT_3D('',#1602,#1303,#1304);
#1083=AXIS2_PLACEMENT_3D('',#1604,#1305,#1306);
#1084=AXIS2_PLACEMENT_3D('',#1606,#1307,#1308);
#1085=AXIS2_PLACEMENT_3D('',#1607,#1309,#1310);
#1086=AXIS2_PLACEMENT_3D('',#1608,#1311,#1312);
#1087=AXIS2_PLACEMENT_3D('',#1609,#1313,#1314);
#1088=AXIS2_PLACEMENT_3D('',#1611,#1315,#1316);
#1089=AXIS2_PLACEMENT_3D('',#1613,#1317,#1318);
#1090=AXIS2_PLACEMENT_3D('',#1614,#1319,#1320);
#1091=AXIS2_PLACEMENT_3D('',#1616,#1321,#1322);
#1092=AXIS2_PLACEMENT_3D('',#1617,#1323,#1324);
#1093=AXIS2_PLACEMENT_3D('',#1618,#1325,#1326);
#1094=AXIS2_PLACEMENT_3D('',#1619,#1327,#1328);
#1095=AXIS2_PLACEMENT_3D('',#1620,#1329,#1330);
#1096=AXIS2_PLACEMENT_3D('',#1623,#1333,#1334);
#1097=AXIS2_PLACEMENT_3D('',#1624,#1335,#1336);
#1098=AXIS2_PLACEMENT_3D('',#1625,#1337,#1338);
#1099=AXIS2_PLACEMENT_3D('',#1628,#1341,#1342);
#1100=AXIS2_PLACEMENT_3D('',#1629,#1343,#1344);
#1101=AXIS2_PLACEMENT_3D('',#1630,#1345,#1346);
#1102=AXIS2_PLACEMENT_3D('',#1632,#1348,#1349);
#1103=AXIS2_PLACEMENT_3D('',#1634,#1351,#1352);
#1104=AXIS2_PLACEMENT_3D('',#1635,#1353,#1354);
#1105=AXIS2_PLACEMENT_3D('',#1637,#1356,#1357);
#1106=AXIS2_PLACEMENT_3D('',#1639,#1359,#1360);
#1107=AXIS2_PLACEMENT_3D('',#1640,#1361,#1362);
#1108=AXIS2_PLACEMENT_3D('',#1643,#1365,#1366);
#1109=AXIS2_PLACEMENT_3D('',#1645,#1368,#1369);
#1110=AXIS2_PLACEMENT_3D('',#1647,#1371,#1372);
#1111=DIRECTION('',(0.,0.,1.));
#1112=DIRECTION('',(1.,0.,0.));
#1113=DIRECTION('',(0.,0.,1.));
#1114=DIRECTION('',(1.,0.,0.));
#1115=DIRECTION('',(-1.,0.,0.));
#1116=DIRECTION('',(-1.89457854031596E-16,1.,0.));
#1117=DIRECTION('',(-1.,0.,0.));
#1118=DIRECTION('',(-1.89457854031596E-16,1.,0.));
#1119=DIRECTION('',(3.41817433690012E-16,-1.,0.));
#1120=DIRECTION('',(1.,0.,0.));
#1121=DIRECTION('',(3.41817433690012E-16,-1.,0.));
#1122=DIRECTION('',(1.,0.,0.));
#1123=DIRECTION('',(0.,0.,-1.));
#1124=DIRECTION('',(1.,0.,0.));
#1125=DIRECTION('',(-1.,0.,0.));
#1126=DIRECTION('',(9.57088814332031E-17,1.,0.));
#1127=DIRECTION('',(1.,0.,0.));
#1128=DIRECTION('',(9.57088814332032E-17,1.,0.));
#1129=DIRECTION('',(-3.41817433690012E-16,1.,0.));
#1130=DIRECTION('',(-1.,0.,0.));
#1131=DIRECTION('',(-3.41817433690012E-16,1.,0.));
#1132=DIRECTION('',(-1.,0.,0.));
#1133=DIRECTION('',(-1.,-1.89457854031596E-16,0.));
#1134=DIRECTION('',(1.89457854031597E-16,-1.,0.));
#1135=DIRECTION('',(0.,0.,1.));
#1136=DIRECTION('',(-1.89457854031596E-16,1.,0.));
#1137=DIRECTION('',(0.,0.,-1.));
#1138=DIRECTION('',(0.,0.,-1.));
#1139=DIRECTION('',(-1.89457854031596E-16,1.,0.));
#1140=DIRECTION('',(0.,0.,1.));
#1141=DIRECTION('',(1.89457854031597E-16,-1.,1.15648231731787E-16));
#1142=DIRECTION('',(0.,0.,1.));
#1143=DIRECTION('',(-1.89457854031596E-16,1.,0.));
#1144=DIRECTION('',(0.,0.,1.));
#1145=DIRECTION('',(1.89457854031597E-16,-1.,0.));
#1146=DIRECTION('',(-1.,-1.89457854031596E-16,0.));
#1147=DIRECTION('',(1.89457854031597E-16,-1.,0.));
#1148=DIRECTION('',(-1.89457854031596E-16,1.,0.));
#1149=DIRECTION('',(0.,0.,1.));
#1150=DIRECTION('',(1.89457854031596E-16,-1.,0.));
#1151=DIRECTION('',(0.,0.,1.));
#1152=DIRECTION('',(-1.89457854031596E-16,1.,0.));
#1153=DIRECTION('',(0.,0.,1.));
#1154=DIRECTION('',(1.89457854031596E-16,-1.,1.15648231731787E-16));
#1155=DIRECTION('',(0.,0.,1.));
#1156=DIRECTION('',(-1.89457854031596E-16,1.,0.));
#1157=DIRECTION('',(0.,0.,-1.));
#1158=DIRECTION('',(0.,0.,-1.));
#1159=DIRECTION('',(-1.,9.57088814332031E-17,0.));
#1160=DIRECTION('',(-9.57088814332031E-17,-1.,0.));
#1161=DIRECTION('',(0.,0.,1.));
#1162=DIRECTION('',(9.57088814332031E-17,1.,0.));
#1163=DIRECTION('',(0.,0.,1.));
#1164=DIRECTION('',(-9.57088814332031E-17,-1.,1.15648231731787E-16));
#1165=DIRECTION('',(9.57088814332031E-17,1.,0.));
#1166=DIRECTION('',(0.,0.,-1.));
#1167=DIRECTION('',(0.,0.,-1.));
#1168=DIRECTION('',(0.,0.,1.));
#1169=DIRECTION('',(9.57088814332031E-17,1.,0.));
#1170=DIRECTION('',(0.,0.,1.));
#1171=DIRECTION('',(-9.57088814332031E-17,-1.,0.));
#1172=DIRECTION('',(-1.,9.57088814332032E-17,0.));
#1173=DIRECTION('',(-9.57088814332032E-17,-1.,0.));
#1174=DIRECTION('',(9.57088814332032E-17,1.,0.));
#1175=DIRECTION('',(0.,0.,-1.));
#1176=DIRECTION('',(0.,0.,-1.));
#1177=DIRECTION('',(9.57088814332032E-17,1.,0.));
#1178=DIRECTION('',(0.,0.,1.));
#1179=DIRECTION('',(-9.57088814332032E-17,-1.,1.15648231731787E-16));
#1180=DIRECTION('',(0.,0.,1.));
#1181=DIRECTION('',(9.57088814332032E-17,1.,0.));
#1182=DIRECTION('',(0.,0.,1.));
#1183=DIRECTION('',(-9.57088814332032E-17,-1.,0.));
#1184=DIRECTION('',(0.,0.,1.));
#1185=DIRECTION('',(0.,-1.,0.));
#1186=DIRECTION('',(0.,0.,-1.));
#1187=DIRECTION('',(-1.,0.,0.));
#1188=DIRECTION('',(0.,0.,-1.));
#1189=DIRECTION('',(-1.,0.,0.));
#1190=DIRECTION('',(-1.,0.,0.));
#1191=DIRECTION('',(0.,0.,-1.));
#1192=DIRECTION('',(-1.,0.,0.));
#1193=DIRECTION('',(0.,0.,1.));
#1194=DIRECTION('',(1.,0.,0.));
#1195=DIRECTION('',(0.,0.,1.));
#1196=DIRECTION('',(1.,0.,0.));
#1197=DIRECTION('',(0.,0.,1.));
#1198=DIRECTION('',(1.,0.,0.));
#1199=DIRECTION('',(0.,0.,1.));
#1200=DIRECTION('',(1.,0.,0.));
#1201=DIRECTION('',(0.,0.,1.));
#1202=DIRECTION('',(1.,0.,0.));
#1203=DIRECTION('',(0.,0.,-1.));
#1204=DIRECTION('',(1.,0.,0.));
#1205=DIRECTION('',(0.,0.,1.));
#1206=DIRECTION('',(1.,0.,0.));
#1207=DIRECTION('',(0.,0.,1.));
#1208=DIRECTION('',(1.,0.,0.));
#1209=DIRECTION('',(0.,0.,1.));
#1210=DIRECTION('',(1.,0.,0.));
#1211=DIRECTION('',(0.,0.,1.));
#1212=DIRECTION('',(1.,0.,0.));
#1213=DIRECTION('',(0.,0.,1.));
#1214=DIRECTION('',(1.,0.,0.));
#1215=DIRECTION('',(0.,0.,-1.));
#1216=DIRECTION('',(1.,0.,0.));
#1217=DIRECTION('',(0.,0.,1.));
#1218=DIRECTION('',(1.,0.,0.));
#1219=DIRECTION('',(0.,-1.,0.));
#1220=DIRECTION('',(-1.,0.,0.));
#1221=DIRECTION('',(0.,-1.,0.));
#1222=DIRECTION('',(1.,0.,0.));
#1223=DIRECTION('',(0.,0.,1.));
#1224=DIRECTION('',(1.,0.,0.));
#1225=DIRECTION('',(-1.,-1.89457854031596E-16,0.));
#1226=DIRECTION('',(-1.,-1.89457854031596E-16,0.));
#1227=DIRECTION('',(-1.,-1.89457854031596E-16,0.));
#1228=DIRECTION('',(-1.,-1.89457854031596E-16,0.));
#1229=DIRECTION('',(0.,-1.,0.));
#1230=DIRECTION('',(-1.,0.,0.));
#1231=DIRECTION('',(0.,-1.,0.));
#1232=DIRECTION('',(-1.,-1.89457854031596E-16,0.));
#1233=DIRECTION('',(-1.,-1.89457854031596E-16,0.));
#1234=DIRECTION('',(-1.,-1.89457854031596E-16,0.));
#1235=DIRECTION('',(-1.,-1.89457854031596E-16,0.));
#1236=DIRECTION('',(-1.,0.,0.));
#1237=DIRECTION('',(0.,0.,1.));
#1238=DIRECTION('',(1.,0.,0.));
#1239=DIRECTION('',(0.,0.,-1.));
#1240=DIRECTION('',(1.,0.,0.));
#1241=DIRECTION('',(0.,0.,1.));
#1242=DIRECTION('',(1.,0.,0.));
#1243=DIRECTION('',(0.,0.,1.));
#1244=DIRECTION('',(1.,0.,0.));
#1245=DIRECTION('',(0.,0.,1.));
#1246=DIRECTION('',(1.,0.,0.));
#1247=DIRECTION('',(0.,0.,1.));
#1248=DIRECTION('',(1.,0.,0.));
#1249=DIRECTION('',(0.,0.,1.));
#1250=DIRECTION('',(1.,0.,0.));
#1251=DIRECTION('',(0.,0.,1.));
#1252=DIRECTION('',(1.,0.,0.));
#1253=DIRECTION('',(0.,0.,1.));
#1254=DIRECTION('',(1.,0.,0.));
#1255=DIRECTION('',(0.,0.,1.));
#1256=DIRECTION('',(1.,0.,0.));
#1257=DIRECTION('',(0.,0.,1.));
#1258=DIRECTION('',(1.,0.,0.));
#1259=DIRECTION('',(0.,0.,1.));
#1260=DIRECTION('',(1.,0.,0.));
#1261=DIRECTION('',(0.,0.,-1.));
#1262=DIRECTION('',(1.,0.,0.));
#1263=DIRECTION('',(0.,0.,-1.));
#1264=DIRECTION('',(1.,0.,0.));
#1265=DIRECTION('',(1.,0.,0.));
#1266=DIRECTION('',(0.,0.,-1.));
#1267=DIRECTION('',(0.,0.,-1.));
#1268=DIRECTION('',(0.,-1.,0.));
#1269=DIRECTION('',(0.,0.,-1.));
#1270=DIRECTION('',(0.,0.,-1.));
#1271=DIRECTION('',(1.,0.,0.));
#1272=DIRECTION('',(0.,0.,-1.));
#1273=DIRECTION('',(0.,0.,-1.));
#1274=DIRECTION('',(-1.,0.,0.));
#1275=DIRECTION('',(0.,0.,-1.));
#1276=DIRECTION('',(-1.,0.,0.));
#1277=DIRECTION('',(0.,0.,-1.));
#1278=DIRECTION('',(-1.,0.,0.));
#1279=DIRECTION('',(0.,0.,-1.));
#1280=DIRECTION('',(-1.,0.,0.));
#1281=DIRECTION('',(0.,0.,-1.));
#1282=DIRECTION('',(-1.,0.,0.));
#1283=DIRECTION('',(0.,0.,-1.));
#1284=DIRECTION('',(-1.,0.,0.));
#1285=DIRECTION('',(0.,0.,-1.));
#1286=DIRECTION('',(-1.,0.,0.));
#1287=DIRECTION('',(0.,0.,-1.));
#1288=DIRECTION('',(-1.,0.,0.));
#1289=DIRECTION('',(0.,0.,-1.));
#1290=DIRECTION('',(-1.,0.,0.));
#1291=DIRECTION('',(0.,0.,-1.));
#1292=DIRECTION('',(-1.,0.,0.));
#1293=DIRECTION('',(0.,0.,-1.));
#1294=DIRECTION('',(-1.,0.,0.));
#1295=DIRECTION('',(0.,0.,-1.));
#1296=DIRECTION('',(-1.,0.,0.));
#1297=DIRECTION('',(0.,0.,-1.));
#1298=DIRECTION('',(-1.,0.,0.));
#1299=DIRECTION('',(0.,0.,-1.));
#1300=DIRECTION('',(1.,0.,0.));
#1301=DIRECTION('',(0.,0.,-1.));
#1302=DIRECTION('',(-1.,0.,0.));
#1303=DIRECTION('',(0.,0.,-1.));
#1304=DIRECTION('',(1.,0.,0.));
#1305=DIRECTION('',(0.,0.,-1.));
#1306=DIRECTION('',(1.,0.,0.));
#1307=DIRECTION('',(0.,0.,1.));
#1308=DIRECTION('',(1.,0.,0.));
#1309=DIRECTION('',(0.,0.,1.));
#1310=DIRECTION('',(1.,0.,0.));
#1311=DIRECTION('',(0.,0.,-1.));
#1312=DIRECTION('',(-1.,0.,0.));
#1313=DIRECTION('',(0.,0.,1.));
#1314=DIRECTION('',(1.,0.,0.));
#1315=DIRECTION('',(0.,0.,1.));
#1316=DIRECTION('',(1.,0.,0.));
#1317=DIRECTION('',(0.,0.,-1.));
#1318=DIRECTION('',(-1.,0.,0.));
#1319=DIRECTION('',(0.,0.,1.));
#1320=DIRECTION('',(1.,0.,0.));
#1321=DIRECTION('',(0.,0.,1.));
#1322=DIRECTION('',(1.,0.,0.));
#1323=DIRECTION('',(0.,0.,1.));
#1324=DIRECTION('',(1.,0.,0.));
#1325=DIRECTION('',(0.,-1.,0.));
#1326=DIRECTION('',(0.,0.,-1.));
#1327=DIRECTION('',(0.,1.,0.));
#1328=DIRECTION('',(0.,0.,1.));
#1329=DIRECTION('',(2.19104658064532E-32,-1.15648231731787E-16,-1.));
#1330=DIRECTION('',(0.,1.,-1.15648231731787E-16));
#1331=DIRECTION('',(-1.,-1.89457854031596E-16,0.));
#1332=DIRECTION('',(-1.,-1.89457854031596E-16,0.));
#1333=DIRECTION('',(1.89457854031596E-16,-1.,0.));
#1334=DIRECTION('',(1.,1.89457854031596E-16,0.));
#1335=DIRECTION('',(1.89457854031596E-16,-1.,0.));
#1336=DIRECTION('',(1.,1.89457854031596E-16,0.));
#1337=DIRECTION('',(0.,0.,-1.));
#1338=DIRECTION('',(-1.,0.,0.));
#1339=DIRECTION('',(-1.,-1.89457854031596E-16,0.));
#1340=DIRECTION('',(-1.,-1.89457854031596E-16,0.));
#1341=DIRECTION('',(1.89457854031596E-16,-1.,0.));
#1342=DIRECTION('',(1.,1.89457854031596E-16,0.));
#1343=DIRECTION('',(1.89457854031596E-16,-1.,0.));
#1344=DIRECTION('',(1.,1.89457854031596E-16,0.));
#1345=DIRECTION('',(1.89457854031596E-16,-1.,0.));
#1346=DIRECTION('',(1.,1.89457854031596E-16,0.));
#1347=DIRECTION('',(-1.,-1.89457854031596E-16,0.));
#1348=DIRECTION('',(1.89457854031596E-16,-1.,0.));
#1349=DIRECTION('',(1.,1.89457854031596E-16,0.));
#1350=DIRECTION('',(-1.,-1.89457854031596E-16,0.));
#1351=DIRECTION('',(2.19104658064532E-32,-1.15648231731787E-16,-1.));
#1352=DIRECTION('',(0.,1.,-1.15648231731787E-16));
#1353=DIRECTION('',(1.89457854031596E-16,-1.,0.));
#1354=DIRECTION('',(1.,1.89457854031596E-16,0.));
#1355=DIRECTION('',(-1.,-1.89457854031596E-16,0.));
#1356=DIRECTION('',(1.89457854031596E-16,-1.,0.));
#1357=DIRECTION('',(1.,1.89457854031596E-16,0.));
#1358=DIRECTION('',(-1.,-1.89457854031596E-16,0.));
#1359=DIRECTION('',(0.,0.,-1.));
#1360=DIRECTION('',(-1.,0.,0.));
#1361=DIRECTION('',(0.,-1.,0.));
#1362=DIRECTION('',(0.,0.,-1.));
#1363=DIRECTION('',(0.,0.,1.));
#1364=DIRECTION('',(0.,0.,1.));
#1365=DIRECTION('',(-1.,-3.41817433690012E-16,0.));
#1366=DIRECTION('',(3.41817433690012E-16,-1.,0.));
#1367=DIRECTION('',(0.,0.,1.));
#1368=DIRECTION('',(0.,-1.,0.));
#1369=DIRECTION('',(0.,0.,-1.));
#1370=DIRECTION('',(0.,0.,1.));
#1371=DIRECTION('',(-1.,-3.41817433690012E-16,0.));
#1372=DIRECTION('',(3.41817433690012E-16,-1.,0.));
#1373=CARTESIAN_POINT('',(0.,0.,0.));
#1374=CARTESIAN_POINT('',(0.,0.,0.063));
#1375=CARTESIAN_POINT('',(0.,-0.1575,0.063));
#1376=CARTESIAN_POINT('',(0.068,-0.1575,0.063));
#1377=CARTESIAN_POINT('',(-0.068,-0.1575,0.063));
#1378=CARTESIAN_POINT('',(0.068,-0.011,0.063));
#1379=CARTESIAN_POINT('',(0.068,0.1355,0.063));
#1380=CARTESIAN_POINT('',(-2.77555756156289E-17,0.1355,0.063));
#1381=CARTESIAN_POINT('',(-0.068,0.1355,0.063));
#1382=CARTESIAN_POINT('',(-0.068,-0.011,0.063));
#1383=CARTESIAN_POINT('',(-0.053,0.019,0.063));
#1384=CARTESIAN_POINT('',(-0.053,0.1205,0.063));
#1385=CARTESIAN_POINT('',(-0.053,-0.0825,0.063));
#1386=CARTESIAN_POINT('',(-4.16333634234433E-17,0.1205,0.063));
#1387=CARTESIAN_POINT('',(0.053,0.1205,0.063));
#1388=CARTESIAN_POINT('',(0.053,0.019,0.063));
#1389=CARTESIAN_POINT('',(0.053,-0.0825,0.063));
#1390=CARTESIAN_POINT('',(-3.46944695195361E-18,-0.0825,0.063));
#1391=CARTESIAN_POINT('',(0.,0.,0.06));
#1392=CARTESIAN_POINT('',(0.,-0.1575,0.06));
#1393=CARTESIAN_POINT('',(0.065,-0.1575,0.06));
#1394=CARTESIAN_POINT('',(-0.065,-0.1575,0.06));
#1395=CARTESIAN_POINT('',(-0.065,-0.0125,0.06));
#1396=CARTESIAN_POINT('',(-0.065,0.1325,0.06));
#1397=CARTESIAN_POINT('',(2.77555756156289E-17,0.1325,0.06));
#1398=CARTESIAN_POINT('',(0.065,0.1325,0.06));
#1399=CARTESIAN_POINT('',(0.065,-0.0125,0.06));
#1400=CARTESIAN_POINT('',(0.053,1.81163239855706E-17,0.06));
#1401=CARTESIAN_POINT('',(0.053,-0.0825,0.06));
#1402=CARTESIAN_POINT('',(0.053,0.1205,0.06));
#1403=CARTESIAN_POINT('',(0.,0.1205,0.06));
#1404=CARTESIAN_POINT('',(-0.053,0.1205,0.06));
#1405=CARTESIAN_POINT('',(-0.053,-1.81163239855706E-17,0.06));
#1406=CARTESIAN_POINT('',(-0.053,-0.0825,0.06));
#1407=CARTESIAN_POINT('',(0.,-0.0825,0.06));
#1408=CARTESIAN_POINT('',(0.068,-0.011,0.063));
#1409=CARTESIAN_POINT('',(0.068,0.0855,0.063));
#1410=CARTESIAN_POINT('',(0.068,0.0855,0.005));
#1411=CARTESIAN_POINT('',(0.068,0.0855,0.02));
#1412=CARTESIAN_POINT('',(0.068,-0.011,0.005));
#1413=CARTESIAN_POINT('',(0.068,0.1355,0.005));
#1414=CARTESIAN_POINT('',(0.068,0.1355,0.063));
#1415=CARTESIAN_POINT('',(0.068,-0.1575,0.063));
#1416=CARTESIAN_POINT('',(0.068,-0.1575,0.005));
#1417=CARTESIAN_POINT('',(0.068,-0.011,0.005));
#1418=CARTESIAN_POINT('',(0.068,-0.1495,0.005));
#1419=CARTESIAN_POINT('',(0.068,-0.1495,0.063));
#1420=CARTESIAN_POINT('',(0.068,-0.1495,0.02));
#1421=CARTESIAN_POINT('',(0.068,-0.011,0.02));
#1422=CARTESIAN_POINT('',(0.068,-0.1195,0.02));
#1423=CARTESIAN_POINT('',(0.068,-0.1195,0.063));
#1424=CARTESIAN_POINT('',(0.068,-0.1195,0.005));
#1425=CARTESIAN_POINT('',(0.068,-0.011,0.005));
#1426=CARTESIAN_POINT('',(0.068,0.0555,0.005));
#1427=CARTESIAN_POINT('',(0.068,0.0555,0.063));
#1428=CARTESIAN_POINT('',(0.068,0.0555,0.02));
#1429=CARTESIAN_POINT('',(0.068,-0.011,0.02));
#1430=CARTESIAN_POINT('',(-0.068,-0.011,0.063));
#1431=CARTESIAN_POINT('',(-0.068,-0.011,0.005));
#1432=CARTESIAN_POINT('',(-0.068,0.0855,0.005));
#1433=CARTESIAN_POINT('',(-0.068,0.1355,0.005));
#1434=CARTESIAN_POINT('',(-0.068,0.0855,0.0125));
#1435=CARTESIAN_POINT('',(-0.068,0.0855,0.02));
#1436=CARTESIAN_POINT('',(-0.068,0.0705,0.02));
#1437=CARTESIAN_POINT('',(-0.068,0.0555,0.02));
#1438=CARTESIAN_POINT('',(-0.068,0.0555,0.0125));
#1439=CARTESIAN_POINT('',(-0.068,0.0555,0.005));
#1440=CARTESIAN_POINT('',(-0.068,-0.011,0.005));
#1441=CARTESIAN_POINT('',(-0.068,-0.1195,0.005));
#1442=CARTESIAN_POINT('',(-0.068,-0.1195,0.0125));
#1443=CARTESIAN_POINT('',(-0.068,-0.1195,0.02));
#1444=CARTESIAN_POINT('',(-0.068,-0.1345,0.02));
#1445=CARTESIAN_POINT('',(-0.068,-0.1495,0.02));
#1446=CARTESIAN_POINT('',(-0.068,-0.1495,0.0125));
#1447=CARTESIAN_POINT('',(-0.068,-0.1495,0.005));
#1448=CARTESIAN_POINT('',(-0.068,-0.011,0.005));
#1449=CARTESIAN_POINT('',(-0.068,-0.1575,0.005));
#1450=CARTESIAN_POINT('',(-0.068,-0.1575,0.063));
#1451=CARTESIAN_POINT('',(-0.068,0.1355,0.063));
#1452=CARTESIAN_POINT('',(-0.065,-0.0125,0.06));
#1453=CARTESIAN_POINT('',(-0.065,-0.1195,0.06));
#1454=CARTESIAN_POINT('',(-0.065,-0.1195,0.005));
#1455=CARTESIAN_POINT('',(-0.065,-0.1195,0.02));
#1456=CARTESIAN_POINT('',(-0.065,-0.0125,0.005));
#1457=CARTESIAN_POINT('',(-0.065,-0.1495,0.005));
#1458=CARTESIAN_POINT('',(-0.065,-0.1495,0.06));
#1459=CARTESIAN_POINT('',(-0.065,-0.1495,0.02));
#1460=CARTESIAN_POINT('',(-0.065,-0.0125,0.02));
#1461=CARTESIAN_POINT('',(-0.065,-0.0125,0.));
#1462=CARTESIAN_POINT('',(-0.065,-0.1575,0.));
#1463=CARTESIAN_POINT('',(-0.065,0.1325,0.));
#1464=CARTESIAN_POINT('',(-0.065,0.1325,0.06));
#1465=CARTESIAN_POINT('',(-0.065,-0.1575,0.06));
#1466=CARTESIAN_POINT('',(-0.065,0.0855,0.06));
#1467=CARTESIAN_POINT('',(-0.065,0.0855,0.005));
#1468=CARTESIAN_POINT('',(-0.065,0.0855,0.02));
#1469=CARTESIAN_POINT('',(-0.065,-0.0125,0.005));
#1470=CARTESIAN_POINT('',(-0.065,0.0555,0.005));
#1471=CARTESIAN_POINT('',(-0.065,0.0555,0.06));
#1472=CARTESIAN_POINT('',(-0.065,0.0555,0.02));
#1473=CARTESIAN_POINT('',(-0.065,-0.0125,0.02));
#1474=CARTESIAN_POINT('',(0.065,-0.0125,0.06));
#1475=CARTESIAN_POINT('',(0.065,-0.0125,0.));
#1476=CARTESIAN_POINT('',(0.065,-0.1575,0.));
#1477=CARTESIAN_POINT('',(0.065,0.1325,0.));
#1478=CARTESIAN_POINT('',(0.065,-0.1575,0.06));
#1479=CARTESIAN_POINT('',(0.065,0.1325,0.06));
#1480=CARTESIAN_POINT('',(0.065,-0.0125,0.005));
#1481=CARTESIAN_POINT('',(0.065,-0.1495,0.005));
#1482=CARTESIAN_POINT('',(0.065,-0.1195,0.005));
#1483=CARTESIAN_POINT('',(0.065,-0.1195,0.06));
#1484=CARTESIAN_POINT('',(0.065,-0.1195,0.02));
#1485=CARTESIAN_POINT('',(0.065,-0.0125,0.02));
#1486=CARTESIAN_POINT('',(0.065,-0.1495,0.02));
#1487=CARTESIAN_POINT('',(0.065,-0.1495,0.06));
#1488=CARTESIAN_POINT('',(0.065,-0.0125,0.005));
#1489=CARTESIAN_POINT('',(0.065,0.0555,0.005));
#1490=CARTESIAN_POINT('',(0.065,0.0855,0.005));
#1491=CARTESIAN_POINT('',(0.065,0.0855,0.06));
#1492=CARTESIAN_POINT('',(0.065,0.0855,0.02));
#1493=CARTESIAN_POINT('',(0.065,-0.0125,0.02));
#1494=CARTESIAN_POINT('',(0.065,0.0555,0.02));
#1495=CARTESIAN_POINT('',(0.065,0.0555,0.06));
#1496=CARTESIAN_POINT('',(0.,-0.1575,0.005));
#1497=CARTESIAN_POINT('',(0.,-0.1575,0.));
#1498=CARTESIAN_POINT('',(0.16,-0.1575,0.));
#1499=CARTESIAN_POINT('',(0.16,-0.1575,0.005));
#1500=CARTESIAN_POINT('',(0.16,-0.1575,0.005));
#1501=CARTESIAN_POINT('',(0.,-0.1575,0.005));
#1502=CARTESIAN_POINT('',(0.,-0.1575,0.005));
#1503=CARTESIAN_POINT('',(-0.16,-0.1575,0.005));
#1504=CARTESIAN_POINT('',(-0.16,-0.1575,0.005));
#1505=CARTESIAN_POINT('',(-0.16,-0.1575,0.));
#1506=CARTESIAN_POINT('',(0.,-0.1575,0.));
#1507=CARTESIAN_POINT('',(0.005,0.,0.));
#1508=CARTESIAN_POINT('',(0.142,-0.1455,0.));
#1509=CARTESIAN_POINT('',(0.1445,-0.1455,0.));
#1510=CARTESIAN_POINT('',(0.142,-0.1215,0.));
#1511=CARTESIAN_POINT('',(0.1445,-0.1215,0.));
#1512=CARTESIAN_POINT('',(-0.13,-0.1455,0.));
#1513=CARTESIAN_POINT('',(-0.1275,-0.1455,0.));
#1514=CARTESIAN_POINT('',(-0.13,-0.1215,0.));
#1515=CARTESIAN_POINT('',(-0.1275,-0.1215,0.));
#1516=CARTESIAN_POINT('',(0.132,-0.0015,0.));
#1517=CARTESIAN_POINT('',(0.1345,-0.0015,0.));
#1518=CARTESIAN_POINT('',(0.142,0.1235,0.));
#1519=CARTESIAN_POINT('',(0.1445,0.1235,0.));
#1520=CARTESIAN_POINT('',(0.142,0.1475,0.));
#1521=CARTESIAN_POINT('',(0.1445,0.1475,0.));
#1522=CARTESIAN_POINT('',(-0.13,0.1235,0.));
#1523=CARTESIAN_POINT('',(-0.1275,0.1235,0.));
#1524=CARTESIAN_POINT('',(-0.13,0.1475,0.));
#1525=CARTESIAN_POINT('',(-0.1275,0.1475,0.));
#1526=CARTESIAN_POINT('',(0.132,0.0565,0.));
#1527=CARTESIAN_POINT('',(0.1345,0.0565,0.));
#1528=CARTESIAN_POINT('',(-0.116,0.0565,0.));
#1529=CARTESIAN_POINT('',(-0.1135,0.0565,0.));
#1530=CARTESIAN_POINT('',(-0.116,-0.0015,0.));
#1531=CARTESIAN_POINT('',(-0.1135,-0.0015,0.));
#1532=CARTESIAN_POINT('',(-0.16,0.075,0.));
#1533=CARTESIAN_POINT('',(-0.16,0.1575,0.));
#1534=CARTESIAN_POINT('',(0.,0.1575,0.));
#1535=CARTESIAN_POINT('',(0.16,0.1575,0.));
#1536=CARTESIAN_POINT('',(0.16,0.075,0.));
#1537=CARTESIAN_POINT('',(2.77555756156289E-17,0.1325,0.));
#1538=CARTESIAN_POINT('',(0.005,0.,0.005));
#1539=CARTESIAN_POINT('',(0.932,0.0855,0.005));
#1540=CARTESIAN_POINT('',(0.932,0.0555,0.005));
#1541=CARTESIAN_POINT('',(0.932,-0.1195,0.005));
#1542=CARTESIAN_POINT('',(0.932,-0.1495,0.005));
#1543=CARTESIAN_POINT('',(0.16,0.075,0.005));
#1544=CARTESIAN_POINT('',(0.16,0.1575,0.005));
#1545=CARTESIAN_POINT('',(0.,0.1575,0.005));
#1546=CARTESIAN_POINT('',(-0.16,0.1575,0.005));
#1547=CARTESIAN_POINT('',(-0.16,0.075,0.005));
#1548=CARTESIAN_POINT('',(0.932,-0.1495,0.005));
#1549=CARTESIAN_POINT('',(0.932,-0.1195,0.005));
#1550=CARTESIAN_POINT('',(0.932,0.0555,0.005));
#1551=CARTESIAN_POINT('',(0.932,0.0855,0.005));
#1552=CARTESIAN_POINT('',(-2.77555756156289E-17,0.1355,0.005));
#1553=CARTESIAN_POINT('',(-0.116,-0.0015,0.005));
#1554=CARTESIAN_POINT('',(-0.1135,-0.0015,0.005));
#1555=CARTESIAN_POINT('',(-0.116,0.0565,0.005));
#1556=CARTESIAN_POINT('',(-0.1135,0.0565,0.005));
#1557=CARTESIAN_POINT('',(-0.13,0.1475,0.005));
#1558=CARTESIAN_POINT('',(-0.1275,0.1475,0.005));
#1559=CARTESIAN_POINT('',(-0.13,0.1235,0.005));
#1560=CARTESIAN_POINT('',(-0.1275,0.1235,0.005));
#1561=CARTESIAN_POINT('',(0.142,0.1475,0.005));
#1562=CARTESIAN_POINT('',(0.1445,0.1475,0.005));
#1563=CARTESIAN_POINT('',(0.142,0.1235,0.005));
#1564=CARTESIAN_POINT('',(0.1445,0.1235,0.005));
#1565=CARTESIAN_POINT('',(-0.13,-0.1215,0.005));
#1566=CARTESIAN_POINT('',(-0.1275,-0.1215,0.005));
#1567=CARTESIAN_POINT('',(-0.13,-0.1455,0.005));
#1568=CARTESIAN_POINT('',(-0.1275,-0.1455,0.005));
#1569=CARTESIAN_POINT('',(-0.121,-0.0455,0.005));
#1570=CARTESIAN_POINT('',(-0.115,-0.0455,0.005));
#1571=CARTESIAN_POINT('',(0.132,0.0565,0.005));
#1572=CARTESIAN_POINT('',(0.1345,0.0565,0.005));
#1573=CARTESIAN_POINT('',(0.142,-0.1215,0.005));
#1574=CARTESIAN_POINT('',(0.1445,-0.1215,0.005));
#1575=CARTESIAN_POINT('',(0.142,-0.1455,0.005));
#1576=CARTESIAN_POINT('',(0.1445,-0.1455,0.005));
#1577=CARTESIAN_POINT('',(0.132,-0.0015,0.005));
#1578=CARTESIAN_POINT('',(0.1345,-0.0015,0.005));
#1579=CARTESIAN_POINT('',(0.137,-0.0455,0.005));
#1580=CARTESIAN_POINT('',(0.143,-0.0455,0.005));
#1581=CARTESIAN_POINT('',(0.16,0.075,0.005));
#1582=CARTESIAN_POINT('',(0.16,0.1575,0.005));
#1583=CARTESIAN_POINT('',(0.,0.1575,0.005));
#1584=CARTESIAN_POINT('',(-0.16,0.1575,0.005));
#1585=CARTESIAN_POINT('',(-0.16,0.075,0.005));
#1586=CARTESIAN_POINT('',(0.142,-0.1215,0.005));
#1587=CARTESIAN_POINT('',(-0.13,-0.1455,0.005));
#1588=CARTESIAN_POINT('',(-0.13,-0.1215,0.005));
#1589=CARTESIAN_POINT('',(0.132,-0.0015,0.005));
#1590=CARTESIAN_POINT('',(0.142,0.1235,0.005));
#1591=CARTESIAN_POINT('',(0.142,0.1475,0.005));
#1592=CARTESIAN_POINT('',(-0.13,0.1235,0.005));
#1593=CARTESIAN_POINT('',(-0.13,0.1475,0.005));
#1594=CARTESIAN_POINT('',(0.132,0.0565,0.005));
#1595=CARTESIAN_POINT('',(-0.116,0.0565,0.005));
#1596=CARTESIAN_POINT('',(-0.116,-0.0015,0.005));
#1597=CARTESIAN_POINT('',(0.142,-0.1455,0.005));
#1598=CARTESIAN_POINT('',(0.137,-0.0455,0.015));
#1599=CARTESIAN_POINT('',(0.137,-0.0455,0.015));
#1600=CARTESIAN_POINT('',(0.143,-0.0455,0.015));
#1601=CARTESIAN_POINT('',(0.137,-0.0455,0.015));
#1602=CARTESIAN_POINT('',(0.137,-0.0455,0.015));
#1603=CARTESIAN_POINT('',(0.141,-0.0455,0.015));
#1604=CARTESIAN_POINT('',(0.137,-0.0455,0.005));
#1605=CARTESIAN_POINT('',(0.141,-0.0455,0.005));
#1606=CARTESIAN_POINT('',(0.,0.,0.015));
#1607=CARTESIAN_POINT('',(0.005,0.,0.005));
#1608=CARTESIAN_POINT('',(-0.121,-0.0455,0.015));
#1609=CARTESIAN_POINT('',(-0.121,-0.0455,0.015));
#1610=CARTESIAN_POINT('',(-0.117,-0.0455,0.015));
#1611=CARTESIAN_POINT('',(-0.121,-0.0455,0.005));
#1612=CARTESIAN_POINT('',(-0.117,-0.0455,0.005));
#1613=CARTESIAN_POINT('',(-0.121,-0.0455,0.015));
#1614=CARTESIAN_POINT('',(-0.121,-0.0455,0.015));
#1615=CARTESIAN_POINT('',(-0.115,-0.0455,0.015));
#1616=CARTESIAN_POINT('',(0.,0.,0.015));
#1617=CARTESIAN_POINT('',(0.005,0.,0.005));
#1618=CARTESIAN_POINT('',(-2.77555756156289E-17,0.1355,0.063));
#1619=CARTESIAN_POINT('',(2.77555756156289E-17,0.1325,0.06));
#1620=CARTESIAN_POINT('',(0.932,-0.1345,0.02));
#1621=CARTESIAN_POINT('',(0.932,-0.1495,0.02));
#1622=CARTESIAN_POINT('',(0.932,-0.1195,0.02));
#1623=CARTESIAN_POINT('',(0.932,-0.1495,0.0125));
#1624=CARTESIAN_POINT('',(0.932,-0.1195,0.0125));
#1625=CARTESIAN_POINT('',(0.932,0.0705,0.02));
#1626=CARTESIAN_POINT('',(0.932,0.0555,0.02));
#1627=CARTESIAN_POINT('',(0.932,0.0855,0.02));
#1628=CARTESIAN_POINT('',(0.932,0.0555,0.0125));
#1629=CARTESIAN_POINT('',(0.932,0.0855,0.0125));
#1630=CARTESIAN_POINT('',(0.932,-0.1195,0.0125));
#1631=CARTESIAN_POINT('',(0.932,-0.1195,0.02));
#1632=CARTESIAN_POINT('',(0.932,-0.1495,0.0125));
#1633=CARTESIAN_POINT('',(0.932,-0.1495,0.02));
#1634=CARTESIAN_POINT('',(0.932,-0.1345,0.02));
#1635=CARTESIAN_POINT('',(0.932,0.0855,0.0125));
#1636=CARTESIAN_POINT('',(0.932,0.0855,0.02));
#1637=CARTESIAN_POINT('',(0.932,0.0555,0.0125));
#1638=CARTESIAN_POINT('',(0.932,0.0555,0.02));
#1639=CARTESIAN_POINT('',(0.932,0.0705,0.02));
#1640=CARTESIAN_POINT('',(-4.16333634234433E-17,0.1205,0.038));
#1641=CARTESIAN_POINT('',(0.053,0.1205,0.038));
#1642=CARTESIAN_POINT('',(-0.053,0.1205,0.038));
#1643=CARTESIAN_POINT('',(-0.053,0.019,0.038));
#1644=CARTESIAN_POINT('',(-0.053,-0.0825,0.038));
#1645=CARTESIAN_POINT('',(-3.46944695195361E-18,-0.0825,0.038));
#1646=CARTESIAN_POINT('',(0.053,-0.0825,0.038));
#1647=CARTESIAN_POINT('',(0.053,0.019,0.038));
#1648=MECHANICAL_DESIGN_GEOMETRIC_PRESENTATION_REPRESENTATION('',(#1017),
#1649);
#1649=(
GEOMETRIC_REPRESENTATION_CONTEXT(3)
GLOBAL_UNCERTAINTY_ASSIGNED_CONTEXT((#1650))
GLOBAL_UNIT_ASSIGNED_CONTEXT((#1653,#1652,#1651))
REPRESENTATION_CONTEXT('Part 1','TOP_LEVEL_ASSEMBLY_PART')
);
#1650=UNCERTAINTY_MEASURE_WITH_UNIT(LENGTH_MEASURE(1.E-8),#1653,
'DISTANCE_ACCURACY_VALUE','Maximum Tolerance applied to model');
#1651=(
NAMED_UNIT(*)
SI_UNIT($,.STERADIAN.)
SOLID_ANGLE_UNIT()
);
#1652=(
NAMED_UNIT(*)
PLANE_ANGLE_UNIT()
SI_UNIT($,.RADIAN.)
);
#1653=(
LENGTH_UNIT()
NAMED_UNIT(*)
SI_UNIT($,.METRE.)
);
#1654=PRODUCT_DEFINITION_SHAPE('','',#1655);
#1655=PRODUCT_DEFINITION('','',#1657,#1656);
#1656=PRODUCT_DEFINITION_CONTEXT('',#1663,'design');
#1657=PRODUCT_DEFINITION_FORMATION_WITH_SPECIFIED_SOURCE('','',#1659,
 .NOT_KNOWN.);
#1658=PRODUCT_RELATED_PRODUCT_CATEGORY('','',(#1659));
#1659=PRODUCT('Part 1','Part 1','Part 1',(#1661));
#1660=PRODUCT_CATEGORY('','');
#1661=PRODUCT_CONTEXT('',#1663,'mechanical');
#1662=APPLICATION_PROTOCOL_DEFINITION('international standard',
'ap242_managed_model_based_3d_engineering',2020,#1663);
#1663=APPLICATION_CONTEXT('managed model based 3d engineering');
ENDSEC;
END-ISO-10303-21;
