ISO-10303-21;
HEADER;
/* Generated by software containing ST-Developer
 * from STEP Tools, Inc. (www.steptools.com) 
 */
/* OPTION: using custom renumber hook */

FILE_DESCRIPTION(
/* description */ ('STEP AP242 Edition 2',
'CAx-IF Rec.Pracs.---Representation and Presentation of Product Manufa
cturing Information (PMI)---4.0---2014-10-13',
'CAx-IF Rec.Pracs.---3D Tessellated Geometry---0.4---2014-09-14','2;1',
'CAx-IF Rec.Pracs.---User Defined Attributes---1.5---2016-08-15'),
/* implementation_level */ '2;1');

FILE_NAME(
/* name */ 'Cover top 1',
/* time_stamp */ '2026-06-21T04:10:18Z',
/* author */ (''),
/* organization */ (''),
/* preprocessor_version */ 'ST-DEVELOPER v20',
/* originating_system */ 'ONSHAPE BY PTC INC, 1.216',
/* authorisation */ '  ');

FILE_SCHEMA (('AP242_MANAGED_MODEL_BASED_3D_ENGINEERING_MIM_LF { 1 0 10303 442 3 1 4 }'));
ENDSEC;

DATA;
#10=SHAPE_REPRESENTATION_RELATIONSHIP('','',#1293,#11);
#11=ADVANCED_BREP_SHAPE_REPRESENTATION('',(#1291),#2051);
#12=CYLINDRICAL_SURFACE('',#1310,0.0025);
#13=CYLINDRICAL_SURFACE('',#1315,0.0025);
#14=CYLINDRICAL_SURFACE('',#1369,0.0025);
#15=CYLINDRICAL_SURFACE('',#1370,0.0025);
#16=CYLINDRICAL_SURFACE('',#1371,0.0025);
#17=CYLINDRICAL_SURFACE('',#1372,0.0025);
#18=CYLINDRICAL_SURFACE('',#1373,0.0025);
#19=CYLINDRICAL_SURFACE('',#1374,0.0025);
#20=CIRCLE('',#1296,0.0025);
#21=CIRCLE('',#1297,0.0025);
#22=CIRCLE('',#1299,0.0025);
#23=CIRCLE('',#1300,0.0025);
#24=CIRCLE('',#1301,0.0025);
#25=CIRCLE('',#1302,0.0025);
#26=CIRCLE('',#1304,0.0025);
#27=CIRCLE('',#1311,0.0025);
#28=CIRCLE('',#1312,0.0025);
#29=CIRCLE('',#1316,0.0025);
#30=CIRCLE('',#1359,0.0025);
#31=CIRCLE('',#1360,0.0025);
#32=CIRCLE('',#1361,0.0025);
#33=CIRCLE('',#1366,0.0025);
#34=CIRCLE('',#1367,0.0025);
#35=CIRCLE('',#1368,0.0025);
#36=ORIENTED_EDGE('',*,*,#384,.T.);
#37=ORIENTED_EDGE('',*,*,#385,.F.);
#38=ORIENTED_EDGE('',*,*,#386,.T.);
#39=ORIENTED_EDGE('',*,*,#387,.T.);
#40=ORIENTED_EDGE('',*,*,#388,.T.);
#41=ORIENTED_EDGE('',*,*,#389,.F.);
#42=ORIENTED_EDGE('',*,*,#390,.F.);
#43=ORIENTED_EDGE('',*,*,#391,.T.);
#44=ORIENTED_EDGE('',*,*,#392,.T.);
#45=ORIENTED_EDGE('',*,*,#393,.T.);
#46=ORIENTED_EDGE('',*,*,#394,.T.);
#47=ORIENTED_EDGE('',*,*,#395,.T.);
#48=ORIENTED_EDGE('',*,*,#396,.T.);
#49=ORIENTED_EDGE('',*,*,#397,.T.);
#50=ORIENTED_EDGE('',*,*,#398,.F.);
#51=ORIENTED_EDGE('',*,*,#399,.T.);
#52=ORIENTED_EDGE('',*,*,#400,.T.);
#53=ORIENTED_EDGE('',*,*,#401,.F.);
#54=ORIENTED_EDGE('',*,*,#402,.T.);
#55=ORIENTED_EDGE('',*,*,#403,.F.);
#56=ORIENTED_EDGE('',*,*,#404,.F.);
#57=ORIENTED_EDGE('',*,*,#405,.T.);
#58=ORIENTED_EDGE('',*,*,#406,.F.);
#59=ORIENTED_EDGE('',*,*,#407,.F.);
#60=ORIENTED_EDGE('',*,*,#408,.F.);
#61=ORIENTED_EDGE('',*,*,#409,.F.);
#62=ORIENTED_EDGE('',*,*,#410,.T.);
#63=ORIENTED_EDGE('',*,*,#411,.F.);
#64=ORIENTED_EDGE('',*,*,#412,.F.);
#65=ORIENTED_EDGE('',*,*,#413,.T.);
#66=ORIENTED_EDGE('',*,*,#414,.T.);
#67=ORIENTED_EDGE('',*,*,#415,.T.);
#68=ORIENTED_EDGE('',*,*,#416,.T.);
#69=ORIENTED_EDGE('',*,*,#417,.T.);
#70=ORIENTED_EDGE('',*,*,#418,.T.);
#71=ORIENTED_EDGE('',*,*,#419,.F.);
#72=ORIENTED_EDGE('',*,*,#420,.F.);
#73=ORIENTED_EDGE('',*,*,#421,.F.);
#74=ORIENTED_EDGE('',*,*,#422,.T.);
#75=ORIENTED_EDGE('',*,*,#423,.T.);
#76=ORIENTED_EDGE('',*,*,#424,.F.);
#77=ORIENTED_EDGE('',*,*,#425,.T.);
#78=ORIENTED_EDGE('',*,*,#426,.T.);
#79=ORIENTED_EDGE('',*,*,#427,.F.);
#80=ORIENTED_EDGE('',*,*,#421,.T.);
#81=ORIENTED_EDGE('',*,*,#428,.T.);
#82=ORIENTED_EDGE('',*,*,#429,.T.);
#83=ORIENTED_EDGE('',*,*,#430,.F.);
#84=ORIENTED_EDGE('',*,*,#426,.F.);
#85=ORIENTED_EDGE('',*,*,#431,.F.);
#86=ORIENTED_EDGE('',*,*,#432,.T.);
#87=ORIENTED_EDGE('',*,*,#429,.F.);
#88=ORIENTED_EDGE('',*,*,#433,.F.);
#89=ORIENTED_EDGE('',*,*,#434,.T.);
#90=ORIENTED_EDGE('',*,*,#431,.T.);
#91=ORIENTED_EDGE('',*,*,#435,.F.);
#92=ORIENTED_EDGE('',*,*,#436,.T.);
#93=ORIENTED_EDGE('',*,*,#437,.F.);
#94=ORIENTED_EDGE('',*,*,#438,.T.);
#95=ORIENTED_EDGE('',*,*,#439,.F.);
#96=ORIENTED_EDGE('',*,*,#440,.F.);
#97=ORIENTED_EDGE('',*,*,#436,.F.);
#98=ORIENTED_EDGE('',*,*,#441,.T.);
#99=ORIENTED_EDGE('',*,*,#438,.F.);
#100=ORIENTED_EDGE('',*,*,#432,.F.);
#101=ORIENTED_EDGE('',*,*,#434,.F.);
#102=ORIENTED_EDGE('',*,*,#440,.T.);
#103=ORIENTED_EDGE('',*,*,#442,.F.);
#104=ORIENTED_EDGE('',*,*,#443,.F.);
#105=ORIENTED_EDGE('',*,*,#444,.T.);
#106=ORIENTED_EDGE('',*,*,#445,.F.);
#107=ORIENTED_EDGE('',*,*,#446,.F.);
#108=ORIENTED_EDGE('',*,*,#422,.F.);
#109=ORIENTED_EDGE('',*,*,#427,.T.);
#110=ORIENTED_EDGE('',*,*,#430,.T.);
#111=ORIENTED_EDGE('',*,*,#447,.T.);
#112=ORIENTED_EDGE('',*,*,#410,.F.);
#113=ORIENTED_EDGE('',*,*,#448,.F.);
#114=ORIENTED_EDGE('',*,*,#449,.F.);
#115=ORIENTED_EDGE('',*,*,#450,.T.);
#116=ORIENTED_EDGE('',*,*,#419,.T.);
#117=ORIENTED_EDGE('',*,*,#451,.F.);
#118=ORIENTED_EDGE('',*,*,#452,.T.);
#119=ORIENTED_EDGE('',*,*,#420,.T.);
#120=ORIENTED_EDGE('',*,*,#450,.F.);
#121=ORIENTED_EDGE('',*,*,#453,.T.);
#122=ORIENTED_EDGE('',*,*,#411,.T.);
#123=ORIENTED_EDGE('',*,*,#452,.F.);
#124=ORIENTED_EDGE('',*,*,#454,.F.);
#125=ORIENTED_EDGE('',*,*,#455,.T.);
#126=ORIENTED_EDGE('',*,*,#412,.T.);
#127=ORIENTED_EDGE('',*,*,#453,.F.);
#128=ORIENTED_EDGE('',*,*,#456,.F.);
#129=ORIENTED_EDGE('',*,*,#457,.T.);
#130=ORIENTED_EDGE('',*,*,#458,.F.);
#131=ORIENTED_EDGE('',*,*,#413,.F.);
#132=ORIENTED_EDGE('',*,*,#455,.F.);
#133=ORIENTED_EDGE('',*,*,#414,.F.);
#134=ORIENTED_EDGE('',*,*,#458,.T.);
#135=ORIENTED_EDGE('',*,*,#459,.T.);
#136=ORIENTED_EDGE('',*,*,#460,.T.);
#137=ORIENTED_EDGE('',*,*,#461,.T.);
#138=ORIENTED_EDGE('',*,*,#395,.F.);
#139=ORIENTED_EDGE('',*,*,#462,.T.);
#140=ORIENTED_EDGE('',*,*,#463,.F.);
#141=ORIENTED_EDGE('',*,*,#464,.F.);
#142=ORIENTED_EDGE('',*,*,#465,.T.);
#143=ORIENTED_EDGE('',*,*,#466,.T.);
#144=ORIENTED_EDGE('',*,*,#467,.F.);
#145=ORIENTED_EDGE('',*,*,#389,.T.);
#146=ORIENTED_EDGE('',*,*,#468,.F.);
#147=ORIENTED_EDGE('',*,*,#400,.F.);
#148=ORIENTED_EDGE('',*,*,#469,.T.);
#149=ORIENTED_EDGE('',*,*,#470,.T.);
#150=ORIENTED_EDGE('',*,*,#471,.T.);
#151=ORIENTED_EDGE('',*,*,#462,.F.);
#152=ORIENTED_EDGE('',*,*,#468,.T.);
#153=ORIENTED_EDGE('',*,*,#388,.F.);
#154=ORIENTED_EDGE('',*,*,#472,.F.);
#155=ORIENTED_EDGE('',*,*,#403,.T.);
#156=ORIENTED_EDGE('',*,*,#401,.T.);
#157=ORIENTED_EDGE('',*,*,#390,.T.);
#158=ORIENTED_EDGE('',*,*,#469,.F.);
#159=ORIENTED_EDGE('',*,*,#399,.F.);
#160=ORIENTED_EDGE('',*,*,#397,.F.);
#161=ORIENTED_EDGE('',*,*,#473,.T.);
#162=ORIENTED_EDGE('',*,*,#474,.T.);
#163=ORIENTED_EDGE('',*,*,#475,.T.);
#164=ORIENTED_EDGE('',*,*,#467,.T.);
#165=ORIENTED_EDGE('',*,*,#476,.F.);
#166=ORIENTED_EDGE('',*,*,#477,.T.);
#167=ORIENTED_EDGE('',*,*,#478,.T.);
#168=ORIENTED_EDGE('',*,*,#464,.T.);
#169=ORIENTED_EDGE('',*,*,#475,.F.);
#170=ORIENTED_EDGE('',*,*,#479,.T.);
#171=ORIENTED_EDGE('',*,*,#465,.F.);
#172=ORIENTED_EDGE('',*,*,#478,.F.);
#173=ORIENTED_EDGE('',*,*,#480,.F.);
#174=ORIENTED_EDGE('',*,*,#476,.T.);
#175=ORIENTED_EDGE('',*,*,#466,.F.);
#176=ORIENTED_EDGE('',*,*,#479,.F.);
#177=ORIENTED_EDGE('',*,*,#481,.F.);
#178=ORIENTED_EDGE('',*,*,#482,.F.);
#179=ORIENTED_EDGE('',*,*,#443,.T.);
#180=ORIENTED_EDGE('',*,*,#483,.T.);
#181=ORIENTED_EDGE('',*,*,#484,.F.);
#182=ORIENTED_EDGE('',*,*,#444,.F.);
#183=ORIENTED_EDGE('',*,*,#482,.T.);
#184=ORIENTED_EDGE('',*,*,#485,.F.);
#185=ORIENTED_EDGE('',*,*,#486,.F.);
#186=ORIENTED_EDGE('',*,*,#487,.F.);
#187=ORIENTED_EDGE('',*,*,#445,.T.);
#188=ORIENTED_EDGE('',*,*,#486,.T.);
#189=ORIENTED_EDGE('',*,*,#488,.F.);
#190=ORIENTED_EDGE('',*,*,#423,.F.);
#191=ORIENTED_EDGE('',*,*,#446,.T.);
#192=ORIENTED_EDGE('',*,*,#487,.T.);
#193=ORIENTED_EDGE('',*,*,#489,.F.);
#194=ORIENTED_EDGE('',*,*,#490,.F.);
#195=ORIENTED_EDGE('',*,*,#491,.T.);
#196=ORIENTED_EDGE('',*,*,#463,.T.);
#197=ORIENTED_EDGE('',*,*,#492,.T.);
#198=ORIENTED_EDGE('',*,*,#493,.F.);
#199=ORIENTED_EDGE('',*,*,#490,.T.);
#200=ORIENTED_EDGE('',*,*,#494,.F.);
#201=ORIENTED_EDGE('',*,*,#495,.F.);
#202=ORIENTED_EDGE('',*,*,#496,.F.);
#203=ORIENTED_EDGE('',*,*,#497,.T.);
#204=ORIENTED_EDGE('',*,*,#460,.F.);
#205=ORIENTED_EDGE('',*,*,#498,.F.);
#206=ORIENTED_EDGE('',*,*,#495,.T.);
#207=ORIENTED_EDGE('',*,*,#499,.T.);
#208=ORIENTED_EDGE('',*,*,#500,.F.);
#209=ORIENTED_EDGE('',*,*,#415,.F.);
#210=ORIENTED_EDGE('',*,*,#416,.F.);
#211=ORIENTED_EDGE('',*,*,#500,.T.);
#212=ORIENTED_EDGE('',*,*,#501,.T.);
#213=ORIENTED_EDGE('',*,*,#502,.F.);
#214=ORIENTED_EDGE('',*,*,#417,.F.);
#215=ORIENTED_EDGE('',*,*,#502,.T.);
#216=ORIENTED_EDGE('',*,*,#503,.T.);
#217=ORIENTED_EDGE('',*,*,#504,.F.);
#218=ORIENTED_EDGE('',*,*,#505,.F.);
#219=ORIENTED_EDGE('',*,*,#506,.F.);
#220=ORIENTED_EDGE('',*,*,#448,.T.);
#221=ORIENTED_EDGE('',*,*,#418,.F.);
#222=ORIENTED_EDGE('',*,*,#504,.T.);
#223=ORIENTED_EDGE('',*,*,#507,.T.);
#224=ORIENTED_EDGE('',*,*,#508,.F.);
#225=ORIENTED_EDGE('',*,*,#509,.F.);
#226=ORIENTED_EDGE('',*,*,#492,.F.);
#227=ORIENTED_EDGE('',*,*,#471,.F.);
#228=ORIENTED_EDGE('',*,*,#437,.T.);
#229=ORIENTED_EDGE('',*,*,#435,.T.);
#230=ORIENTED_EDGE('',*,*,#433,.T.);
#231=ORIENTED_EDGE('',*,*,#428,.F.);
#232=ORIENTED_EDGE('',*,*,#425,.F.);
#233=ORIENTED_EDGE('',*,*,#424,.T.);
#234=ORIENTED_EDGE('',*,*,#491,.F.);
#235=ORIENTED_EDGE('',*,*,#493,.T.);
#236=ORIENTED_EDGE('',*,*,#509,.T.);
#237=ORIENTED_EDGE('',*,*,#510,.F.);
#238=ORIENTED_EDGE('',*,*,#511,.F.);
#239=ORIENTED_EDGE('',*,*,#441,.F.);
#240=ORIENTED_EDGE('',*,*,#442,.T.);
#241=ORIENTED_EDGE('',*,*,#439,.T.);
#242=ORIENTED_EDGE('',*,*,#511,.T.);
#243=ORIENTED_EDGE('',*,*,#512,.T.);
#244=ORIENTED_EDGE('',*,*,#513,.F.);
#245=ORIENTED_EDGE('',*,*,#483,.F.);
#246=ORIENTED_EDGE('',*,*,#514,.F.);
#247=ORIENTED_EDGE('',*,*,#515,.T.);
#248=ORIENTED_EDGE('',*,*,#516,.T.);
#249=ORIENTED_EDGE('',*,*,#496,.T.);
#250=ORIENTED_EDGE('',*,*,#498,.T.);
#251=ORIENTED_EDGE('',*,*,#459,.F.);
#252=ORIENTED_EDGE('',*,*,#457,.F.);
#253=ORIENTED_EDGE('',*,*,#456,.T.);
#254=ORIENTED_EDGE('',*,*,#454,.T.);
#255=ORIENTED_EDGE('',*,*,#451,.T.);
#256=ORIENTED_EDGE('',*,*,#449,.T.);
#257=ORIENTED_EDGE('',*,*,#506,.T.);
#258=ORIENTED_EDGE('',*,*,#447,.F.);
#259=ORIENTED_EDGE('',*,*,#497,.F.);
#260=ORIENTED_EDGE('',*,*,#516,.F.);
#261=ORIENTED_EDGE('',*,*,#517,.F.);
#262=ORIENTED_EDGE('',*,*,#518,.F.);
#263=ORIENTED_EDGE('',*,*,#518,.T.);
#264=ORIENTED_EDGE('',*,*,#519,.T.);
#265=ORIENTED_EDGE('',*,*,#461,.F.);
#266=ORIENTED_EDGE('',*,*,#520,.T.);
#267=ORIENTED_EDGE('',*,*,#521,.T.);
#268=ORIENTED_EDGE('',*,*,#406,.T.);
#269=ORIENTED_EDGE('',*,*,#522,.F.);
#270=ORIENTED_EDGE('',*,*,#523,.F.);
#271=ORIENTED_EDGE('',*,*,#524,.F.);
#272=ORIENTED_EDGE('',*,*,#522,.T.);
#273=ORIENTED_EDGE('',*,*,#405,.F.);
#274=ORIENTED_EDGE('',*,*,#525,.F.);
#275=ORIENTED_EDGE('',*,*,#526,.F.);
#276=ORIENTED_EDGE('',*,*,#527,.F.);
#277=ORIENTED_EDGE('',*,*,#528,.T.);
#278=ORIENTED_EDGE('',*,*,#529,.T.);
#279=ORIENTED_EDGE('',*,*,#530,.T.);
#280=ORIENTED_EDGE('',*,*,#531,.T.);
#281=ORIENTED_EDGE('',*,*,#532,.T.);
#282=ORIENTED_EDGE('',*,*,#407,.T.);
#283=ORIENTED_EDGE('',*,*,#521,.F.);
#284=ORIENTED_EDGE('',*,*,#533,.F.);
#285=ORIENTED_EDGE('',*,*,#534,.T.);
#286=ORIENTED_EDGE('',*,*,#512,.F.);
#287=ORIENTED_EDGE('',*,*,#510,.T.);
#288=ORIENTED_EDGE('',*,*,#508,.T.);
#289=ORIENTED_EDGE('',*,*,#535,.T.);
#290=ORIENTED_EDGE('',*,*,#536,.F.);
#291=ORIENTED_EDGE('',*,*,#537,.F.);
#292=ORIENTED_EDGE('',*,*,#507,.F.);
#293=ORIENTED_EDGE('',*,*,#503,.F.);
#294=ORIENTED_EDGE('',*,*,#501,.F.);
#295=ORIENTED_EDGE('',*,*,#499,.F.);
#296=ORIENTED_EDGE('',*,*,#494,.T.);
#297=ORIENTED_EDGE('',*,*,#489,.T.);
#298=ORIENTED_EDGE('',*,*,#488,.T.);
#299=ORIENTED_EDGE('',*,*,#485,.T.);
#300=ORIENTED_EDGE('',*,*,#484,.T.);
#301=ORIENTED_EDGE('',*,*,#513,.T.);
#302=ORIENTED_EDGE('',*,*,#534,.F.);
#303=ORIENTED_EDGE('',*,*,#538,.F.);
#304=ORIENTED_EDGE('',*,*,#528,.F.);
#305=ORIENTED_EDGE('',*,*,#520,.F.);
#306=ORIENTED_EDGE('',*,*,#524,.T.);
#307=ORIENTED_EDGE('',*,*,#481,.T.);
#308=ORIENTED_EDGE('',*,*,#480,.T.);
#309=ORIENTED_EDGE('',*,*,#477,.F.);
#310=ORIENTED_EDGE('',*,*,#474,.F.);
#311=ORIENTED_EDGE('',*,*,#539,.T.);
#312=ORIENTED_EDGE('',*,*,#391,.F.);
#313=ORIENTED_EDGE('',*,*,#473,.F.);
#314=ORIENTED_EDGE('',*,*,#408,.T.);
#315=ORIENTED_EDGE('',*,*,#532,.F.);
#316=ORIENTED_EDGE('',*,*,#540,.T.);
#317=ORIENTED_EDGE('',*,*,#541,.F.);
#318=ORIENTED_EDGE('',*,*,#386,.F.);
#319=ORIENTED_EDGE('',*,*,#384,.F.);
#320=ORIENTED_EDGE('',*,*,#519,.F.);
#321=ORIENTED_EDGE('',*,*,#542,.F.);
#322=ORIENTED_EDGE('',*,*,#543,.F.);
#323=ORIENTED_EDGE('',*,*,#544,.F.);
#324=ORIENTED_EDGE('',*,*,#545,.T.);
#325=ORIENTED_EDGE('',*,*,#542,.T.);
#326=ORIENTED_EDGE('',*,*,#517,.T.);
#327=ORIENTED_EDGE('',*,*,#515,.F.);
#328=ORIENTED_EDGE('',*,*,#505,.T.);
#329=ORIENTED_EDGE('',*,*,#537,.T.);
#330=ORIENTED_EDGE('',*,*,#523,.T.);
#331=ORIENTED_EDGE('',*,*,#546,.F.);
#332=ORIENTED_EDGE('',*,*,#544,.T.);
#333=ORIENTED_EDGE('',*,*,#514,.T.);
#334=ORIENTED_EDGE('',*,*,#541,.T.);
#335=ORIENTED_EDGE('',*,*,#547,.T.);
#336=ORIENTED_EDGE('',*,*,#525,.T.);
#337=ORIENTED_EDGE('',*,*,#404,.T.);
#338=ORIENTED_EDGE('',*,*,#472,.T.);
#339=ORIENTED_EDGE('',*,*,#387,.F.);
#340=ORIENTED_EDGE('',*,*,#539,.F.);
#341=ORIENTED_EDGE('',*,*,#548,.F.);
#342=ORIENTED_EDGE('',*,*,#535,.F.);
#343=ORIENTED_EDGE('',*,*,#470,.F.);
#344=ORIENTED_EDGE('',*,*,#394,.F.);
#345=ORIENTED_EDGE('',*,*,#392,.F.);
#346=ORIENTED_EDGE('',*,*,#549,.F.);
#347=ORIENTED_EDGE('',*,*,#550,.F.);
#348=ORIENTED_EDGE('',*,*,#551,.F.);
#349=ORIENTED_EDGE('',*,*,#543,.T.);
#350=ORIENTED_EDGE('',*,*,#552,.T.);
#351=ORIENTED_EDGE('',*,*,#526,.T.);
#352=ORIENTED_EDGE('',*,*,#547,.F.);
#353=ORIENTED_EDGE('',*,*,#546,.T.);
#354=ORIENTED_EDGE('',*,*,#527,.T.);
#355=ORIENTED_EDGE('',*,*,#552,.F.);
#356=ORIENTED_EDGE('',*,*,#545,.F.);
#357=ORIENTED_EDGE('',*,*,#538,.T.);
#358=ORIENTED_EDGE('',*,*,#533,.T.);
#359=ORIENTED_EDGE('',*,*,#553,.F.);
#360=ORIENTED_EDGE('',*,*,#529,.F.);
#361=ORIENTED_EDGE('',*,*,#553,.T.);
#362=ORIENTED_EDGE('',*,*,#536,.T.);
#363=ORIENTED_EDGE('',*,*,#554,.F.);
#364=ORIENTED_EDGE('',*,*,#530,.F.);
#365=ORIENTED_EDGE('',*,*,#555,.T.);
#366=ORIENTED_EDGE('',*,*,#556,.T.);
#367=ORIENTED_EDGE('',*,*,#557,.T.);
#368=ORIENTED_EDGE('',*,*,#554,.T.);
#369=ORIENTED_EDGE('',*,*,#548,.T.);
#370=ORIENTED_EDGE('',*,*,#540,.F.);
#371=ORIENTED_EDGE('',*,*,#531,.F.);
#372=ORIENTED_EDGE('',*,*,#557,.F.);
#373=ORIENTED_EDGE('',*,*,#393,.F.);
#374=ORIENTED_EDGE('',*,*,#398,.T.);
#375=ORIENTED_EDGE('',*,*,#556,.F.);
#376=ORIENTED_EDGE('',*,*,#409,.T.);
#377=ORIENTED_EDGE('',*,*,#555,.F.);
#378=ORIENTED_EDGE('',*,*,#402,.F.);
#379=ORIENTED_EDGE('',*,*,#551,.T.);
#380=ORIENTED_EDGE('',*,*,#396,.F.);
#381=ORIENTED_EDGE('',*,*,#550,.T.);
#382=ORIENTED_EDGE('',*,*,#549,.T.);
#383=ORIENTED_EDGE('',*,*,#385,.T.);
#384=EDGE_CURVE('',#558,#559,#674,.T.);
#385=EDGE_CURVE('',#559,#559,#20,.F.);
#386=EDGE_CURVE('',#559,#560,#675,.T.);
#387=EDGE_CURVE('',#560,#561,#676,.T.);
#388=EDGE_CURVE('',#561,#562,#677,.T.);
#389=EDGE_CURVE('',#563,#562,#678,.T.);
#390=EDGE_CURVE('',#564,#563,#679,.T.);
#391=EDGE_CURVE('',#564,#565,#680,.T.);
#392=EDGE_CURVE('',#565,#566,#681,.T.);
#393=EDGE_CURVE('',#566,#566,#21,.T.);
#394=EDGE_CURVE('',#566,#567,#682,.T.);
#395=EDGE_CURVE('',#567,#558,#683,.T.);
#396=EDGE_CURVE('',#568,#568,#22,.F.);
#397=EDGE_CURVE('',#569,#570,#684,.T.);
#398=EDGE_CURVE('',#570,#570,#23,.T.);
#399=EDGE_CURVE('',#570,#571,#685,.T.);
#400=EDGE_CURVE('',#571,#572,#686,.T.);
#401=EDGE_CURVE('',#573,#572,#687,.T.);
#402=EDGE_CURVE('',#573,#573,#24,.F.);
#403=EDGE_CURVE('',#574,#573,#688,.T.);
#404=EDGE_CURVE('',#575,#574,#689,.T.);
#405=EDGE_CURVE('',#575,#576,#690,.T.);
#406=EDGE_CURVE('',#577,#576,#691,.T.);
#407=EDGE_CURVE('',#578,#577,#692,.T.);
#408=EDGE_CURVE('',#569,#578,#693,.T.);
#409=EDGE_CURVE('',#579,#579,#25,.T.);
#410=EDGE_CURVE('',#580,#580,#26,.T.);
#411=EDGE_CURVE('',#581,#582,#694,.T.);
#412=EDGE_CURVE('',#583,#581,#695,.T.);
#413=EDGE_CURVE('',#583,#584,#696,.T.);
#414=EDGE_CURVE('',#584,#585,#697,.T.);
#415=EDGE_CURVE('',#585,#586,#698,.T.);
#416=EDGE_CURVE('',#586,#587,#699,.T.);
#417=EDGE_CURVE('',#587,#588,#700,.T.);
#418=EDGE_CURVE('',#588,#589,#701,.T.);
#419=EDGE_CURVE('',#590,#589,#702,.T.);
#420=EDGE_CURVE('',#582,#590,#703,.T.);
#421=EDGE_CURVE('',#591,#592,#704,.T.);
#422=EDGE_CURVE('',#591,#593,#705,.T.);
#423=EDGE_CURVE('',#593,#594,#706,.T.);
#424=EDGE_CURVE('',#592,#594,#707,.T.);
#425=EDGE_CURVE('',#592,#595,#708,.T.);
#426=EDGE_CURVE('',#595,#596,#709,.T.);
#427=EDGE_CURVE('',#591,#596,#710,.T.);
#428=EDGE_CURVE('',#595,#597,#711,.T.);
#429=EDGE_CURVE('',#597,#598,#712,.T.);
#430=EDGE_CURVE('',#596,#598,#713,.T.);
#431=EDGE_CURVE('',#599,#600,#714,.T.);
#432=EDGE_CURVE('',#599,#598,#715,.T.);
#433=EDGE_CURVE('',#600,#597,#716,.T.);
#434=EDGE_CURVE('',#601,#599,#717,.T.);
#435=EDGE_CURVE('',#602,#600,#718,.T.);
#436=EDGE_CURVE('',#602,#601,#719,.T.);
#437=EDGE_CURVE('',#603,#603,#27,.T.);
#438=EDGE_CURVE('',#604,#604,#28,.F.);
#439=EDGE_CURVE('',#605,#606,#720,.T.);
#440=EDGE_CURVE('',#601,#605,#721,.T.);
#441=EDGE_CURVE('',#602,#606,#722,.T.);
#442=EDGE_CURVE('',#607,#605,#723,.T.);
#443=EDGE_CURVE('',#608,#607,#724,.T.);
#444=EDGE_CURVE('',#608,#609,#725,.T.);
#445=EDGE_CURVE('',#610,#609,#726,.T.);
#446=EDGE_CURVE('',#593,#610,#727,.T.);
#447=EDGE_CURVE('',#611,#611,#29,.T.);
#448=EDGE_CURVE('',#612,#589,#728,.T.);
#449=EDGE_CURVE('',#613,#612,#729,.T.);
#450=EDGE_CURVE('',#613,#590,#730,.T.);
#451=EDGE_CURVE('',#614,#613,#731,.T.);
#452=EDGE_CURVE('',#614,#582,#732,.T.);
#453=EDGE_CURVE('',#615,#581,#733,.T.);
#454=EDGE_CURVE('',#615,#614,#734,.T.);
#455=EDGE_CURVE('',#616,#583,#735,.T.);
#456=EDGE_CURVE('',#616,#615,#736,.T.);
#457=EDGE_CURVE('',#616,#617,#737,.T.);
#458=EDGE_CURVE('',#584,#617,#738,.T.);
#459=EDGE_CURVE('',#617,#618,#739,.T.);
#460=EDGE_CURVE('',#618,#585,#740,.T.);
#461=EDGE_CURVE('',#619,#558,#741,.T.);
#462=EDGE_CURVE('',#567,#620,#742,.T.);
#463=EDGE_CURVE('',#619,#620,#743,.T.);
#464=EDGE_CURVE('',#621,#622,#744,.F.);
#465=EDGE_CURVE('',#621,#623,#745,.F.);
#466=EDGE_CURVE('',#623,#624,#746,.F.);
#467=EDGE_CURVE('',#622,#624,#747,.F.);
#468=EDGE_CURVE('',#572,#562,#748,.T.);
#469=EDGE_CURVE('',#571,#563,#749,.T.);
#470=EDGE_CURVE('',#567,#625,#750,.T.);
#471=EDGE_CURVE('',#625,#620,#751,.T.);
#472=EDGE_CURVE('',#574,#561,#752,.T.);
#473=EDGE_CURVE('',#569,#564,#753,.T.);
#474=EDGE_CURVE('',#626,#627,#754,.T.);
#475=EDGE_CURVE('',#627,#622,#755,.T.);
#476=EDGE_CURVE('',#626,#624,#756,.T.);
#477=EDGE_CURVE('',#627,#628,#757,.T.);
#478=EDGE_CURVE('',#628,#621,#758,.T.);
#479=EDGE_CURVE('',#629,#623,#759,.T.);
#480=EDGE_CURVE('',#629,#628,#760,.T.);
#481=EDGE_CURVE('',#626,#629,#761,.T.);
#482=EDGE_CURVE('',#608,#630,#762,.T.);
#483=EDGE_CURVE('',#607,#631,#763,.T.);
#484=EDGE_CURVE('',#630,#631,#764,.T.);
#485=EDGE_CURVE('',#632,#630,#765,.T.);
#486=EDGE_CURVE('',#609,#632,#766,.T.);
#487=EDGE_CURVE('',#610,#633,#767,.T.);
#488=EDGE_CURVE('',#633,#632,#768,.T.);
#489=EDGE_CURVE('',#634,#633,#769,.T.);
#490=EDGE_CURVE('',#635,#634,#770,.T.);
#491=EDGE_CURVE('',#635,#594,#771,.T.);
#492=EDGE_CURVE('',#620,#636,#772,.T.);
#493=EDGE_CURVE('',#635,#636,#773,.T.);
#494=EDGE_CURVE('',#637,#634,#774,.T.);
#495=EDGE_CURVE('',#638,#637,#775,.T.);
#496=EDGE_CURVE('',#639,#638,#776,.T.);
#497=EDGE_CURVE('',#639,#619,#777,.T.);
#498=EDGE_CURVE('',#638,#618,#778,.T.);
#499=EDGE_CURVE('',#637,#640,#779,.T.);
#500=EDGE_CURVE('',#586,#640,#780,.T.);
#501=EDGE_CURVE('',#640,#641,#781,.T.);
#502=EDGE_CURVE('',#587,#641,#782,.T.);
#503=EDGE_CURVE('',#641,#642,#783,.T.);
#504=EDGE_CURVE('',#588,#642,#784,.T.);
#505=EDGE_CURVE('',#643,#644,#785,.T.);
#506=EDGE_CURVE('',#612,#643,#786,.T.);
#507=EDGE_CURVE('',#642,#644,#787,.T.);
#508=EDGE_CURVE('',#645,#625,#788,.T.);
#509=EDGE_CURVE('',#636,#645,#789,.T.);
#510=EDGE_CURVE('',#646,#645,#790,.T.);
#511=EDGE_CURVE('',#606,#646,#791,.T.);
#512=EDGE_CURVE('',#646,#647,#792,.T.);
#513=EDGE_CURVE('',#631,#647,#793,.T.);
#514=EDGE_CURVE('',#648,#643,#794,.T.);
#515=EDGE_CURVE('',#648,#649,#795,.T.);
#516=EDGE_CURVE('',#649,#639,#796,.F.);
#517=EDGE_CURVE('',#650,#649,#797,.T.);
#518=EDGE_CURVE('',#619,#650,#798,.F.);
#519=EDGE_CURVE('',#650,#558,#799,.F.);
#520=EDGE_CURVE('',#651,#652,#800,.T.);
#521=EDGE_CURVE('',#652,#577,#801,.T.);
#522=EDGE_CURVE('',#651,#576,#802,.T.);
#523=EDGE_CURVE('',#653,#654,#803,.T.);
#524=EDGE_CURVE('',#651,#653,#804,.T.);
#525=EDGE_CURVE('',#655,#575,#805,.T.);
#526=EDGE_CURVE('',#656,#655,#806,.T.);
#527=EDGE_CURVE('',#654,#656,#807,.T.);
#528=EDGE_CURVE('',#652,#657,#808,.T.);
#529=EDGE_CURVE('',#657,#658,#809,.T.);
#530=EDGE_CURVE('',#658,#659,#810,.T.);
#531=EDGE_CURVE('',#659,#660,#811,.T.);
#532=EDGE_CURVE('',#660,#578,#812,.T.);
#533=EDGE_CURVE('',#661,#662,#813,.T.);
#534=EDGE_CURVE('',#661,#647,#814,.T.);
#535=EDGE_CURVE('',#625,#663,#815,.T.);
#536=EDGE_CURVE('',#662,#663,#816,.T.);
#537=EDGE_CURVE('',#644,#653,#817,.T.);
#538=EDGE_CURVE('',#657,#661,#818,.T.);
#539=EDGE_CURVE('',#664,#565,#819,.T.);
#540=EDGE_CURVE('',#660,#664,#820,.T.);
#541=EDGE_CURVE('',#560,#665,#821,.F.);
#542=EDGE_CURVE('',#666,#650,#822,.T.);
#543=EDGE_CURVE('',#665,#666,#823,.T.);
#544=EDGE_CURVE('',#667,#648,#824,.T.);
#545=EDGE_CURVE('',#667,#666,#825,.T.);
#546=EDGE_CURVE('',#667,#654,#826,.T.);
#547=EDGE_CURVE('',#665,#655,#827,.T.);
#548=EDGE_CURVE('',#663,#664,#828,.T.);
#549=EDGE_CURVE('',#668,#668,#30,.F.);
#550=EDGE_CURVE('',#669,#669,#31,.F.);
#551=EDGE_CURVE('',#670,#670,#32,.F.);
#552=EDGE_CURVE('',#666,#656,#829,.T.);
#553=EDGE_CURVE('',#658,#662,#830,.T.);
#554=EDGE_CURVE('',#659,#663,#831,.T.);
#555=EDGE_CURVE('',#671,#671,#33,.T.);
#556=EDGE_CURVE('',#672,#672,#34,.T.);
#557=EDGE_CURVE('',#673,#673,#35,.T.);
#558=VERTEX_POINT('',#1698);
#559=VERTEX_POINT('',#1699);
#560=VERTEX_POINT('',#1702);
#561=VERTEX_POINT('',#1704);
#562=VERTEX_POINT('',#1706);
#563=VERTEX_POINT('',#1708);
#564=VERTEX_POINT('',#1710);
#565=VERTEX_POINT('',#1712);
#566=VERTEX_POINT('',#1714);
#567=VERTEX_POINT('',#1717);
#568=VERTEX_POINT('',#1721);
#569=VERTEX_POINT('',#1723);
#570=VERTEX_POINT('',#1724);
#571=VERTEX_POINT('',#1727);
#572=VERTEX_POINT('',#1729);
#573=VERTEX_POINT('',#1731);
#574=VERTEX_POINT('',#1734);
#575=VERTEX_POINT('',#1736);
#576=VERTEX_POINT('',#1738);
#577=VERTEX_POINT('',#1740);
#578=VERTEX_POINT('',#1742);
#579=VERTEX_POINT('',#1745);
#580=VERTEX_POINT('',#1748);
#581=VERTEX_POINT('',#1750);
#582=VERTEX_POINT('',#1751);
#583=VERTEX_POINT('',#1753);
#584=VERTEX_POINT('',#1755);
#585=VERTEX_POINT('',#1757);
#586=VERTEX_POINT('',#1759);
#587=VERTEX_POINT('',#1761);
#588=VERTEX_POINT('',#1763);
#589=VERTEX_POINT('',#1765);
#590=VERTEX_POINT('',#1767);
#591=VERTEX_POINT('',#1771);
#592=VERTEX_POINT('',#1772);
#593=VERTEX_POINT('',#1774);
#594=VERTEX_POINT('',#1776);
#595=VERTEX_POINT('',#1780);
#596=VERTEX_POINT('',#1782);
#597=VERTEX_POINT('',#1786);
#598=VERTEX_POINT('',#1788);
#599=VERTEX_POINT('',#1792);
#600=VERTEX_POINT('',#1793);
#601=VERTEX_POINT('',#1798);
#602=VERTEX_POINT('',#1800);
#603=VERTEX_POINT('',#1804);
#604=VERTEX_POINT('',#1806);
#605=VERTEX_POINT('',#1809);
#606=VERTEX_POINT('',#1810);
#607=VERTEX_POINT('',#1815);
#608=VERTEX_POINT('',#1817);
#609=VERTEX_POINT('',#1819);
#610=VERTEX_POINT('',#1821);
#611=VERTEX_POINT('',#1825);
#612=VERTEX_POINT('',#1828);
#613=VERTEX_POINT('',#1830);
#614=VERTEX_POINT('',#1834);
#615=VERTEX_POINT('',#1838);
#616=VERTEX_POINT('',#1842);
#617=VERTEX_POINT('',#1846);
#618=VERTEX_POINT('',#1850);
#619=VERTEX_POINT('',#1854);
#620=VERTEX_POINT('',#1856);
#621=VERTEX_POINT('',#1859);
#622=VERTEX_POINT('',#1860);
#623=VERTEX_POINT('',#1862);
#624=VERTEX_POINT('',#1864);
#625=VERTEX_POINT('',#1871);
#626=VERTEX_POINT('',#1879);
#627=VERTEX_POINT('',#1880);
#628=VERTEX_POINT('',#1885);
#629=VERTEX_POINT('',#1889);
#630=VERTEX_POINT('',#1895);
#631=VERTEX_POINT('',#1897);
#632=VERTEX_POINT('',#1901);
#633=VERTEX_POINT('',#1905);
#634=VERTEX_POINT('',#1909);
#635=VERTEX_POINT('',#1911);
#636=VERTEX_POINT('',#1915);
#637=VERTEX_POINT('',#1918);
#638=VERTEX_POINT('',#1920);
#639=VERTEX_POINT('',#1922);
#640=VERTEX_POINT('',#1927);
#641=VERTEX_POINT('',#1931);
#642=VERTEX_POINT('',#1935);
#643=VERTEX_POINT('',#1939);
#644=VERTEX_POINT('',#1940);
#645=VERTEX_POINT('',#1945);
#646=VERTEX_POINT('',#1949);
#647=VERTEX_POINT('',#1953);
#648=VERTEX_POINT('',#1957);
#649=VERTEX_POINT('',#1959);
#650=VERTEX_POINT('',#1963);
#651=VERTEX_POINT('',#1969);
#652=VERTEX_POINT('',#1970);
#653=VERTEX_POINT('',#1975);
#654=VERTEX_POINT('',#1976);
#655=VERTEX_POINT('',#1979);
#656=VERTEX_POINT('',#1981);
#657=VERTEX_POINT('',#1985);
#658=VERTEX_POINT('',#1987);
#659=VERTEX_POINT('',#1989);
#660=VERTEX_POINT('',#1991);
#661=VERTEX_POINT('',#1995);
#662=VERTEX_POINT('',#1996);
#663=VERTEX_POINT('',#1999);
#664=VERTEX_POINT('',#2006);
#665=VERTEX_POINT('',#2010);
#666=VERTEX_POINT('',#2012);
#667=VERTEX_POINT('',#2016);
#668=VERTEX_POINT('',#2026);
#669=VERTEX_POINT('',#2028);
#670=VERTEX_POINT('',#2030);
#671=VERTEX_POINT('',#2039);
#672=VERTEX_POINT('',#2041);
#673=VERTEX_POINT('',#2043);
#674=LINE('',#1697,#832);
#675=LINE('',#1701,#833);
#676=LINE('',#1703,#834);
#677=LINE('',#1705,#835);
#678=LINE('',#1707,#836);
#679=LINE('',#1709,#837);
#680=LINE('',#1711,#838);
#681=LINE('',#1713,#839);
#682=LINE('',#1716,#840);
#683=LINE('',#1718,#841);
#684=LINE('',#1722,#842);
#685=LINE('',#1726,#843);
#686=LINE('',#1728,#844);
#687=LINE('',#1730,#845);
#688=LINE('',#1733,#846);
#689=LINE('',#1735,#847);
#690=LINE('',#1737,#848);
#691=LINE('',#1739,#849);
#692=LINE('',#1741,#850);
#693=LINE('',#1743,#851);
#694=LINE('',#1749,#852);
#695=LINE('',#1752,#853);
#696=LINE('',#1754,#854);
#697=LINE('',#1756,#855);
#698=LINE('',#1758,#856);
#699=LINE('',#1760,#857);
#700=LINE('',#1762,#858);
#701=LINE('',#1764,#859);
#702=LINE('',#1766,#860);
#703=LINE('',#1768,#861);
#704=LINE('',#1770,#862);
#705=LINE('',#1773,#863);
#706=LINE('',#1775,#864);
#707=LINE('',#1777,#865);
#708=LINE('',#1779,#866);
#709=LINE('',#1781,#867);
#710=LINE('',#1783,#868);
#711=LINE('',#1785,#869);
#712=LINE('',#1787,#870);
#713=LINE('',#1789,#871);
#714=LINE('',#1791,#872);
#715=LINE('',#1794,#873);
#716=LINE('',#1795,#874);
#717=LINE('',#1797,#875);
#718=LINE('',#1799,#876);
#719=LINE('',#1801,#877);
#720=LINE('',#1808,#878);
#721=LINE('',#1811,#879);
#722=LINE('',#1812,#880);
#723=LINE('',#1814,#881);
#724=LINE('',#1816,#882);
#725=LINE('',#1818,#883);
#726=LINE('',#1820,#884);
#727=LINE('',#1822,#885);
#728=LINE('',#1827,#886);
#729=LINE('',#1829,#887);
#730=LINE('',#1831,#888);
#731=LINE('',#1833,#889);
#732=LINE('',#1835,#890);
#733=LINE('',#1837,#891);
#734=LINE('',#1839,#892);
#735=LINE('',#1841,#893);
#736=LINE('',#1843,#894);
#737=LINE('',#1845,#895);
#738=LINE('',#1847,#896);
#739=LINE('',#1849,#897);
#740=LINE('',#1851,#898);
#741=LINE('',#1853,#899);
#742=LINE('',#1855,#900);
#743=LINE('',#1857,#901);
#744=LINE('',#1858,#902);
#745=LINE('',#1861,#903);
#746=LINE('',#1863,#904);
#747=LINE('',#1865,#905);
#748=LINE('',#1867,#906);
#749=LINE('',#1868,#907);
#750=LINE('',#1870,#908);
#751=LINE('',#1872,#909);
#752=LINE('',#1874,#910);
#753=LINE('',#1876,#911);
#754=LINE('',#1878,#912);
#755=LINE('',#1881,#913);
#756=LINE('',#1882,#914);
#757=LINE('',#1884,#915);
#758=LINE('',#1886,#916);
#759=LINE('',#1888,#917);
#760=LINE('',#1890,#918);
#761=LINE('',#1892,#919);
#762=LINE('',#1894,#920);
#763=LINE('',#1896,#921);
#764=LINE('',#1898,#922);
#765=LINE('',#1900,#923);
#766=LINE('',#1902,#924);
#767=LINE('',#1904,#925);
#768=LINE('',#1906,#926);
#769=LINE('',#1908,#927);
#770=LINE('',#1910,#928);
#771=LINE('',#1912,#929);
#772=LINE('',#1914,#930);
#773=LINE('',#1916,#931);
#774=LINE('',#1917,#932);
#775=LINE('',#1919,#933);
#776=LINE('',#1921,#934);
#777=LINE('',#1923,#935);
#778=LINE('',#1925,#936);
#779=LINE('',#1926,#937);
#780=LINE('',#1928,#938);
#781=LINE('',#1930,#939);
#782=LINE('',#1932,#940);
#783=LINE('',#1934,#941);
#784=LINE('',#1936,#942);
#785=LINE('',#1938,#943);
#786=LINE('',#1941,#944);
#787=LINE('',#1942,#945);
#788=LINE('',#1944,#946);
#789=LINE('',#1946,#947);
#790=LINE('',#1948,#948);
#791=LINE('',#1950,#949);
#792=LINE('',#1952,#950);
#793=LINE('',#1954,#951);
#794=LINE('',#1956,#952);
#795=LINE('',#1958,#953);
#796=LINE('',#1960,#954);
#797=LINE('',#1962,#955);
#798=LINE('',#1964,#956);
#799=LINE('',#1966,#957);
#800=LINE('',#1968,#958);
#801=LINE('',#1971,#959);
#802=LINE('',#1972,#960);
#803=LINE('',#1974,#961);
#804=LINE('',#1977,#962);
#805=LINE('',#1978,#963);
#806=LINE('',#1980,#964);
#807=LINE('',#1982,#965);
#808=LINE('',#1984,#966);
#809=LINE('',#1986,#967);
#810=LINE('',#1988,#968);
#811=LINE('',#1990,#969);
#812=LINE('',#1992,#970);
#813=LINE('',#1994,#971);
#814=LINE('',#1997,#972);
#815=LINE('',#1998,#973);
#816=LINE('',#2000,#974);
#817=LINE('',#2002,#975);
#818=LINE('',#2003,#976);
#819=LINE('',#2005,#977);
#820=LINE('',#2007,#978);
#821=LINE('',#2009,#979);
#822=LINE('',#2011,#980);
#823=LINE('',#2013,#981);
#824=LINE('',#2015,#982);
#825=LINE('',#2017,#983);
#826=LINE('',#2019,#984);
#827=LINE('',#2021,#985);
#828=LINE('',#2023,#986);
#829=LINE('',#2031,#987);
#830=LINE('',#2034,#988);
#831=LINE('',#2036,#989);
#832=VECTOR('',#1379,1.);
#833=VECTOR('',#1382,1.);
#834=VECTOR('',#1383,1.);
#835=VECTOR('',#1384,1.);
#836=VECTOR('',#1385,1.);
#837=VECTOR('',#1386,1.);
#838=VECTOR('',#1387,1.);
#839=VECTOR('',#1388,1.);
#840=VECTOR('',#1391,1.);
#841=VECTOR('',#1392,1.);
#842=VECTOR('',#1397,1.);
#843=VECTOR('',#1400,1.);
#844=VECTOR('',#1401,1.);
#845=VECTOR('',#1402,1.);
#846=VECTOR('',#1405,1.);
#847=VECTOR('',#1406,1.);
#848=VECTOR('',#1407,1.);
#849=VECTOR('',#1408,1.);
#850=VECTOR('',#1409,1.);
#851=VECTOR('',#1410,1.);
#852=VECTOR('',#1417,1.);
#853=VECTOR('',#1418,1.);
#854=VECTOR('',#1419,1.);
#855=VECTOR('',#1420,1.);
#856=VECTOR('',#1421,1.);
#857=VECTOR('',#1422,1.);
#858=VECTOR('',#1423,1.);
#859=VECTOR('',#1424,1.);
#860=VECTOR('',#1425,1.);
#861=VECTOR('',#1426,1.);
#862=VECTOR('',#1429,1.);
#863=VECTOR('',#1430,1.);
#864=VECTOR('',#1431,1.);
#865=VECTOR('',#1432,1.);
#866=VECTOR('',#1435,1.);
#867=VECTOR('',#1436,1.);
#868=VECTOR('',#1437,1.);
#869=VECTOR('',#1440,1.);
#870=VECTOR('',#1441,1.);
#871=VECTOR('',#1442,1.);
#872=VECTOR('',#1445,1.);
#873=VECTOR('',#1446,1.);
#874=VECTOR('',#1447,1.);
#875=VECTOR('',#1450,1.);
#876=VECTOR('',#1451,1.);
#877=VECTOR('',#1452,1.);
#878=VECTOR('',#1461,1.);
#879=VECTOR('',#1462,1.);
#880=VECTOR('',#1463,1.);
#881=VECTOR('',#1466,1.);
#882=VECTOR('',#1467,1.);
#883=VECTOR('',#1468,1.);
#884=VECTOR('',#1469,1.);
#885=VECTOR('',#1470,1.);
#886=VECTOR('',#1477,1.);
#887=VECTOR('',#1478,1.);
#888=VECTOR('',#1479,1.);
#889=VECTOR('',#1482,1.);
#890=VECTOR('',#1483,1.);
#891=VECTOR('',#1486,1.);
#892=VECTOR('',#1487,1.);
#893=VECTOR('',#1490,1.);
#894=VECTOR('',#1491,1.);
#895=VECTOR('',#1494,1.);
#896=VECTOR('',#1495,1.);
#897=VECTOR('',#1498,1.);
#898=VECTOR('',#1499,1.);
#899=VECTOR('',#1502,1.);
#900=VECTOR('',#1503,1.);
#901=VECTOR('',#1504,1.);
#902=VECTOR('',#1505,1.);
#903=VECTOR('',#1506,1.);
#904=VECTOR('',#1507,1.);
#905=VECTOR('',#1508,1.);
#906=VECTOR('',#1511,1.);
#907=VECTOR('',#1512,1.);
#908=VECTOR('',#1515,1.);
#909=VECTOR('',#1516,1.);
#910=VECTOR('',#1519,1.);
#911=VECTOR('',#1522,1.);
#912=VECTOR('',#1525,1.);
#913=VECTOR('',#1526,1.);
#914=VECTOR('',#1527,1.);
#915=VECTOR('',#1530,1.);
#916=VECTOR('',#1531,1.);
#917=VECTOR('',#1534,1.);
#918=VECTOR('',#1535,1.);
#919=VECTOR('',#1538,1.);
#920=VECTOR('',#1541,1.);
#921=VECTOR('',#1542,1.);
#922=VECTOR('',#1543,1.);
#923=VECTOR('',#1546,1.);
#924=VECTOR('',#1547,1.);
#925=VECTOR('',#1550,1.);
#926=VECTOR('',#1551,1.);
#927=VECTOR('',#1554,1.);
#928=VECTOR('',#1555,1.);
#929=VECTOR('',#1556,1.);
#930=VECTOR('',#1559,1.);
#931=VECTOR('',#1560,1.);
#932=VECTOR('',#1561,1.);
#933=VECTOR('',#1562,1.);
#934=VECTOR('',#1563,1.);
#935=VECTOR('',#1564,1.);
#936=VECTOR('',#1567,1.);
#937=VECTOR('',#1568,1.);
#938=VECTOR('',#1569,1.);
#939=VECTOR('',#1572,1.);
#940=VECTOR('',#1573,1.);
#941=VECTOR('',#1576,1.);
#942=VECTOR('',#1577,1.);
#943=VECTOR('',#1580,1.);
#944=VECTOR('',#1581,1.);
#945=VECTOR('',#1582,1.);
#946=VECTOR('',#1585,1.);
#947=VECTOR('',#1586,1.);
#948=VECTOR('',#1589,1.);
#949=VECTOR('',#1590,1.);
#950=VECTOR('',#1593,1.);
#951=VECTOR('',#1594,1.);
#952=VECTOR('',#1597,1.);
#953=VECTOR('',#1598,1.);
#954=VECTOR('',#1599,1.);
#955=VECTOR('',#1602,1.);
#956=VECTOR('',#1603,1.);
#957=VECTOR('',#1606,1.);
#958=VECTOR('',#1609,1.);
#959=VECTOR('',#1610,1.);
#960=VECTOR('',#1611,1.);
#961=VECTOR('',#1614,1.);
#962=VECTOR('',#1615,1.);
#963=VECTOR('',#1616,1.);
#964=VECTOR('',#1617,1.);
#965=VECTOR('',#1618,1.);
#966=VECTOR('',#1621,1.);
#967=VECTOR('',#1622,1.);
#968=VECTOR('',#1623,1.);
#969=VECTOR('',#1624,1.);
#970=VECTOR('',#1625,1.);
#971=VECTOR('',#1628,1.);
#972=VECTOR('',#1629,1.);
#973=VECTOR('',#1630,1.);
#974=VECTOR('',#1631,1.);
#975=VECTOR('',#1634,1.);
#976=VECTOR('',#1635,1.);
#977=VECTOR('',#1638,1.);
#978=VECTOR('',#1639,1.);
#979=VECTOR('',#1642,1.);
#980=VECTOR('',#1643,1.);
#981=VECTOR('',#1644,1.);
#982=VECTOR('',#1647,1.);
#983=VECTOR('',#1648,1.);
#984=VECTOR('',#1651,1.);
#985=VECTOR('',#1654,1.);
#986=VECTOR('',#1657,1.);
#987=VECTOR('',#1666,1.);
#988=VECTOR('',#1671,1.);
#989=VECTOR('',#1674,1.);
#990=EDGE_LOOP('',(#36,#37,#38,#39,#40,#41,#42,#43,#44,#45,#46,#47));
#991=EDGE_LOOP('',(#48));
#992=EDGE_LOOP('',(#49,#50,#51,#52,#53,#54,#55,#56,#57,#58,#59,#60));
#993=EDGE_LOOP('',(#61));
#994=EDGE_LOOP('',(#62));
#995=EDGE_LOOP('',(#63,#64,#65,#66,#67,#68,#69,#70,#71,#72));
#996=EDGE_LOOP('',(#73,#74,#75,#76));
#997=EDGE_LOOP('',(#77,#78,#79,#80));
#998=EDGE_LOOP('',(#81,#82,#83,#84));
#999=EDGE_LOOP('',(#85,#86,#87,#88));
#1000=EDGE_LOOP('',(#89,#90,#91,#92));
#1001=EDGE_LOOP('',(#93));
#1002=EDGE_LOOP('',(#94));
#1003=EDGE_LOOP('',(#95,#96,#97,#98));
#1004=EDGE_LOOP('',(#99));
#1005=EDGE_LOOP('',(#100,#101,#102,#103,#104,#105,#106,#107,#108,#109,#110));
#1006=EDGE_LOOP('',(#111));
#1007=EDGE_LOOP('',(#112));
#1008=EDGE_LOOP('',(#113,#114,#115,#116));
#1009=EDGE_LOOP('',(#117,#118,#119,#120));
#1010=EDGE_LOOP('',(#121,#122,#123,#124));
#1011=EDGE_LOOP('',(#125,#126,#127,#128));
#1012=EDGE_LOOP('',(#129,#130,#131,#132));
#1013=EDGE_LOOP('',(#133,#134,#135,#136));
#1014=EDGE_LOOP('',(#137,#138,#139,#140));
#1015=EDGE_LOOP('',(#141,#142,#143,#144));
#1016=EDGE_LOOP('',(#145,#146,#147,#148));
#1017=EDGE_LOOP('',(#149,#150,#151));
#1018=EDGE_LOOP('',(#152,#153,#154,#155,#156));
#1019=EDGE_LOOP('',(#157,#158,#159,#160,#161));
#1020=EDGE_LOOP('',(#162,#163,#164,#165));
#1021=EDGE_LOOP('',(#166,#167,#168,#169));
#1022=EDGE_LOOP('',(#170,#171,#172,#173));
#1023=EDGE_LOOP('',(#174,#175,#176,#177));
#1024=EDGE_LOOP('',(#178,#179,#180,#181));
#1025=EDGE_LOOP('',(#182,#183,#184,#185));
#1026=EDGE_LOOP('',(#186,#187,#188,#189));
#1027=EDGE_LOOP('',(#190,#191,#192,#193,#194,#195));
#1028=EDGE_LOOP('',(#196,#197,#198,#199,#200,#201,#202,#203));
#1029=EDGE_LOOP('',(#204,#205,#206,#207,#208,#209));
#1030=EDGE_LOOP('',(#210,#211,#212,#213));
#1031=EDGE_LOOP('',(#214,#215,#216,#217));
#1032=EDGE_LOOP('',(#218,#219,#220,#221,#222,#223));
#1033=EDGE_LOOP('',(#224,#225,#226,#227));
#1034=EDGE_LOOP('',(#228));
#1035=EDGE_LOOP('',(#229,#230,#231,#232,#233,#234,#235,#236,#237,#238,#239));
#1036=EDGE_LOOP('',(#240,#241,#242,#243,#244,#245));
#1037=EDGE_LOOP('',(#246,#247,#248,#249,#250,#251,#252,#253,#254,#255,#256,
#257));
#1038=EDGE_LOOP('',(#258));
#1039=EDGE_LOOP('',(#259,#260,#261,#262));
#1040=EDGE_LOOP('',(#263,#264,#265));
#1041=EDGE_LOOP('',(#266,#267,#268,#269));
#1042=EDGE_LOOP('',(#270,#271,#272,#273,#274,#275,#276));
#1043=EDGE_LOOP('',(#277,#278,#279,#280,#281,#282,#283));
#1044=EDGE_LOOP('',(#284,#285,#286,#287,#288,#289,#290));
#1045=EDGE_LOOP('',(#291,#292,#293,#294,#295,#296,#297,#298,#299,#300,#301,
#302,#303,#304,#305,#306));
#1046=EDGE_LOOP('',(#307,#308,#309,#310));
#1047=EDGE_LOOP('',(#311,#312,#313,#314,#315,#316));
#1048=EDGE_LOOP('',(#317,#318,#319,#320,#321,#322));
#1049=EDGE_LOOP('',(#323,#324,#325,#326,#327));
#1050=EDGE_LOOP('',(#328,#329,#330,#331,#332,#333));
#1051=EDGE_LOOP('',(#334,#335,#336,#337,#338,#339));
#1052=EDGE_LOOP('',(#340,#341,#342,#343,#344,#345));
#1053=EDGE_LOOP('',(#346));
#1054=EDGE_LOOP('',(#347));
#1055=EDGE_LOOP('',(#348));
#1056=EDGE_LOOP('',(#349,#350,#351,#352));
#1057=EDGE_LOOP('',(#353,#354,#355,#356));
#1058=EDGE_LOOP('',(#357,#358,#359,#360));
#1059=EDGE_LOOP('',(#361,#362,#363,#364));
#1060=EDGE_LOOP('',(#365));
#1061=EDGE_LOOP('',(#366));
#1062=EDGE_LOOP('',(#367));
#1063=EDGE_LOOP('',(#368,#369,#370,#371));
#1064=EDGE_LOOP('',(#372));
#1065=EDGE_LOOP('',(#373));
#1066=EDGE_LOOP('',(#374));
#1067=EDGE_LOOP('',(#375));
#1068=EDGE_LOOP('',(#376));
#1069=EDGE_LOOP('',(#377));
#1070=EDGE_LOOP('',(#378));
#1071=EDGE_LOOP('',(#379));
#1072=EDGE_LOOP('',(#380));
#1073=EDGE_LOOP('',(#381));
#1074=EDGE_LOOP('',(#382));
#1075=EDGE_LOOP('',(#383));
#1076=FACE_BOUND('',#990,.T.);
#1077=FACE_BOUND('',#991,.T.);
#1078=FACE_BOUND('',#992,.T.);
#1079=FACE_BOUND('',#993,.T.);
#1080=FACE_BOUND('',#994,.T.);
#1081=FACE_BOUND('',#995,.T.);
#1082=FACE_BOUND('',#996,.T.);
#1083=FACE_BOUND('',#997,.T.);
#1084=FACE_BOUND('',#998,.T.);
#1085=FACE_BOUND('',#999,.T.);
#1086=FACE_BOUND('',#1000,.T.);
#1087=FACE_BOUND('',#1001,.T.);
#1088=FACE_BOUND('',#1002,.T.);
#1089=FACE_BOUND('',#1003,.T.);
#1090=FACE_BOUND('',#1004,.T.);
#1091=FACE_BOUND('',#1005,.T.);
#1092=FACE_BOUND('',#1006,.T.);
#1093=FACE_BOUND('',#1007,.T.);
#1094=FACE_BOUND('',#1008,.T.);
#1095=FACE_BOUND('',#1009,.T.);
#1096=FACE_BOUND('',#1010,.T.);
#1097=FACE_BOUND('',#1011,.T.);
#1098=FACE_BOUND('',#1012,.T.);
#1099=FACE_BOUND('',#1013,.T.);
#1100=FACE_BOUND('',#1014,.T.);
#1101=FACE_BOUND('',#1015,.T.);
#1102=FACE_BOUND('',#1016,.T.);
#1103=FACE_BOUND('',#1017,.T.);
#1104=FACE_BOUND('',#1018,.T.);
#1105=FACE_BOUND('',#1019,.T.);
#1106=FACE_BOUND('',#1020,.T.);
#1107=FACE_BOUND('',#1021,.T.);
#1108=FACE_BOUND('',#1022,.T.);
#1109=FACE_BOUND('',#1023,.T.);
#1110=FACE_BOUND('',#1024,.T.);
#1111=FACE_BOUND('',#1025,.T.);
#1112=FACE_BOUND('',#1026,.T.);
#1113=FACE_BOUND('',#1027,.T.);
#1114=FACE_BOUND('',#1028,.T.);
#1115=FACE_BOUND('',#1029,.T.);
#1116=FACE_BOUND('',#1030,.T.);
#1117=FACE_BOUND('',#1031,.T.);
#1118=FACE_BOUND('',#1032,.T.);
#1119=FACE_BOUND('',#1033,.T.);
#1120=FACE_BOUND('',#1034,.T.);
#1121=FACE_BOUND('',#1035,.T.);
#1122=FACE_BOUND('',#1036,.T.);
#1123=FACE_BOUND('',#1037,.T.);
#1124=FACE_BOUND('',#1038,.T.);
#1125=FACE_BOUND('',#1039,.T.);
#1126=FACE_BOUND('',#1040,.T.);
#1127=FACE_BOUND('',#1041,.T.);
#1128=FACE_BOUND('',#1042,.T.);
#1129=FACE_BOUND('',#1043,.T.);
#1130=FACE_BOUND('',#1044,.T.);
#1131=FACE_BOUND('',#1045,.T.);
#1132=FACE_BOUND('',#1046,.T.);
#1133=FACE_BOUND('',#1047,.T.);
#1134=FACE_BOUND('',#1048,.T.);
#1135=FACE_BOUND('',#1049,.T.);
#1136=FACE_BOUND('',#1050,.T.);
#1137=FACE_BOUND('',#1051,.T.);
#1138=FACE_BOUND('',#1052,.T.);
#1139=FACE_BOUND('',#1053,.T.);
#1140=FACE_BOUND('',#1054,.T.);
#1141=FACE_BOUND('',#1055,.T.);
#1142=FACE_BOUND('',#1056,.T.);
#1143=FACE_BOUND('',#1057,.T.);
#1144=FACE_BOUND('',#1058,.T.);
#1145=FACE_BOUND('',#1059,.T.);
#1146=FACE_BOUND('',#1060,.T.);
#1147=FACE_BOUND('',#1061,.T.);
#1148=FACE_BOUND('',#1062,.T.);
#1149=FACE_BOUND('',#1063,.T.);
#1150=FACE_BOUND('',#1064,.T.);
#1151=FACE_BOUND('',#1065,.T.);
#1152=FACE_BOUND('',#1066,.T.);
#1153=FACE_BOUND('',#1067,.T.);
#1154=FACE_BOUND('',#1068,.T.);
#1155=FACE_BOUND('',#1069,.T.);
#1156=FACE_BOUND('',#1070,.T.);
#1157=FACE_BOUND('',#1071,.T.);
#1158=FACE_BOUND('',#1072,.T.);
#1159=FACE_BOUND('',#1073,.T.);
#1160=FACE_BOUND('',#1074,.T.);
#1161=FACE_BOUND('',#1075,.T.);
#1162=PLANE('',#1295);
#1163=PLANE('',#1298);
#1164=PLANE('',#1303);
#1165=PLANE('',#1305);
#1166=PLANE('',#1306);
#1167=PLANE('',#1307);
#1168=PLANE('',#1308);
#1169=PLANE('',#1309);
#1170=PLANE('',#1313);
#1171=PLANE('',#1314);
#1172=PLANE('',#1317);
#1173=PLANE('',#1318);
#1174=PLANE('',#1319);
#1175=PLANE('',#1320);
#1176=PLANE('',#1321);
#1177=PLANE('',#1322);
#1178=PLANE('',#1323);
#1179=PLANE('',#1324);
#1180=PLANE('',#1325);
#1181=PLANE('',#1326);
#1182=PLANE('',#1327);
#1183=PLANE('',#1328);
#1184=PLANE('',#1329);
#1185=PLANE('',#1330);
#1186=PLANE('',#1331);
#1187=PLANE('',#1332);
#1188=PLANE('',#1333);
#1189=PLANE('',#1334);
#1190=PLANE('',#1335);
#1191=PLANE('',#1336);
#1192=PLANE('',#1337);
#1193=PLANE('',#1338);
#1194=PLANE('',#1339);
#1195=PLANE('',#1340);
#1196=PLANE('',#1341);
#1197=PLANE('',#1342);
#1198=PLANE('',#1343);
#1199=PLANE('',#1344);
#1200=PLANE('',#1345);
#1201=PLANE('',#1346);
#1202=PLANE('',#1347);
#1203=PLANE('',#1348);
#1204=PLANE('',#1349);
#1205=PLANE('',#1350);
#1206=PLANE('',#1351);
#1207=PLANE('',#1352);
#1208=PLANE('',#1353);
#1209=PLANE('',#1354);
#1210=PLANE('',#1355);
#1211=PLANE('',#1356);
#1212=PLANE('',#1357);
#1213=PLANE('',#1358);
#1214=PLANE('',#1362);
#1215=PLANE('',#1363);
#1216=PLANE('',#1364);
#1217=PLANE('',#1365);
#1218=ADVANCED_FACE('',(#1076),#1162,.F.);
#1219=ADVANCED_FACE('',(#1077,#1078,#1079),#1163,.T.);
#1220=ADVANCED_FACE('',(#1080,#1081),#1164,.F.);
#1221=ADVANCED_FACE('',(#1082),#1165,.T.);
#1222=ADVANCED_FACE('',(#1083),#1166,.F.);
#1223=ADVANCED_FACE('',(#1084),#1167,.F.);
#1224=ADVANCED_FACE('',(#1085),#1168,.T.);
#1225=ADVANCED_FACE('',(#1086),#1169,.T.);
#1226=ADVANCED_FACE('',(#1087,#1088),#12,.F.);
#1227=ADVANCED_FACE('',(#1089),#1170,.F.);
#1228=ADVANCED_FACE('',(#1090,#1091),#1171,.F.);
#1229=ADVANCED_FACE('',(#1092,#1093),#13,.F.);
#1230=ADVANCED_FACE('',(#1094),#1172,.T.);
#1231=ADVANCED_FACE('',(#1095),#1173,.T.);
#1232=ADVANCED_FACE('',(#1096),#1174,.T.);
#1233=ADVANCED_FACE('',(#1097),#1175,.T.);
#1234=ADVANCED_FACE('',(#1098),#1176,.F.);
#1235=ADVANCED_FACE('',(#1099),#1177,.F.);
#1236=ADVANCED_FACE('',(#1100,#1101),#1178,.F.);
#1237=ADVANCED_FACE('',(#1102),#1179,.F.);
#1238=ADVANCED_FACE('',(#1103),#1180,.T.);
#1239=ADVANCED_FACE('',(#1104),#1181,.T.);
#1240=ADVANCED_FACE('',(#1105),#1182,.F.);
#1241=ADVANCED_FACE('',(#1106),#1183,.F.);
#1242=ADVANCED_FACE('',(#1107),#1184,.F.);
#1243=ADVANCED_FACE('',(#1108),#1185,.T.);
#1244=ADVANCED_FACE('',(#1109),#1186,.T.);
#1245=ADVANCED_FACE('',(#1110),#1187,.T.);
#1246=ADVANCED_FACE('',(#1111),#1188,.T.);
#1247=ADVANCED_FACE('',(#1112),#1189,.T.);
#1248=ADVANCED_FACE('',(#1113),#1190,.T.);
#1249=ADVANCED_FACE('',(#1114),#1191,.F.);
#1250=ADVANCED_FACE('',(#1115),#1192,.F.);
#1251=ADVANCED_FACE('',(#1116),#1193,.F.);
#1252=ADVANCED_FACE('',(#1117),#1194,.F.);
#1253=ADVANCED_FACE('',(#1118),#1195,.F.);
#1254=ADVANCED_FACE('',(#1119),#1196,.T.);
#1255=ADVANCED_FACE('',(#1120,#1121),#1197,.T.);
#1256=ADVANCED_FACE('',(#1122),#1198,.T.);
#1257=ADVANCED_FACE('',(#1123,#1124),#1199,.T.);
#1258=ADVANCED_FACE('',(#1125),#1200,.F.);
#1259=ADVANCED_FACE('',(#1126),#1201,.T.);
#1260=ADVANCED_FACE('',(#1127),#1202,.F.);
#1261=ADVANCED_FACE('',(#1128),#1203,.T.);
#1262=ADVANCED_FACE('',(#1129),#1204,.F.);
#1263=ADVANCED_FACE('',(#1130),#1205,.T.);
#1264=ADVANCED_FACE('',(#1131,#1132),#1206,.T.);
#1265=ADVANCED_FACE('',(#1133),#1207,.F.);
#1266=ADVANCED_FACE('',(#1134),#1208,.F.);
#1267=ADVANCED_FACE('',(#1135),#1209,.F.);
#1268=ADVANCED_FACE('',(#1136),#1210,.T.);
#1269=ADVANCED_FACE('',(#1137),#1211,.F.);
#1270=ADVANCED_FACE('',(#1138),#1212,.T.);
#1271=ADVANCED_FACE('',(#1139,#1140,#1141,#1142),#1213,.F.);
#1272=ADVANCED_FACE('',(#1143),#1214,.F.);
#1273=ADVANCED_FACE('',(#1144),#1215,.F.);
#1274=ADVANCED_FACE('',(#1145),#1216,.F.);
#1275=ADVANCED_FACE('',(#1146,#1147,#1148,#1149),#1217,.F.);
#1276=ADVANCED_FACE('',(#1150,#1151),#14,.F.);
#1277=ADVANCED_FACE('',(#1152,#1153),#15,.F.);
#1278=ADVANCED_FACE('',(#1154,#1155),#16,.F.);
#1279=ADVANCED_FACE('',(#1156,#1157),#17,.F.);
#1280=ADVANCED_FACE('',(#1158,#1159),#18,.F.);
#1281=ADVANCED_FACE('',(#1160,#1161),#19,.F.);
#1282=CLOSED_SHELL('',(#1218,#1219,#1220,#1221,#1222,#1223,#1224,#1225,
#1226,#1227,#1228,#1229,#1230,#1231,#1232,#1233,#1234,#1235,#1236,#1237,
#1238,#1239,#1240,#1241,#1242,#1243,#1244,#1245,#1246,#1247,#1248,#1249,
#1250,#1251,#1252,#1253,#1254,#1255,#1256,#1257,#1258,#1259,#1260,#1261,
#1262,#1263,#1264,#1265,#1266,#1267,#1268,#1269,#1270,#1271,#1272,#1273,
#1274,#1275,#1276,#1277,#1278,#1279,#1280,#1281));
#1283=STYLED_ITEM('',(#1284),#1291);
#1284=PRESENTATION_STYLE_ASSIGNMENT((#1285));
#1285=SURFACE_STYLE_USAGE(.BOTH.,#1286);
#1286=SURFACE_SIDE_STYLE('',(#1287));
#1287=SURFACE_STYLE_FILL_AREA(#1288);
#1288=FILL_AREA_STYLE('',(#1289));
#1289=FILL_AREA_STYLE_COLOUR('',#1290);
#1290=COLOUR_RGB('',0.262745098039216,0.282352941176471,0.301960784313725);
#1291=MANIFOLD_SOLID_BREP('Part 1',#1282);
#1292=SHAPE_DEFINITION_REPRESENTATION(#2056,#1293);
#1293=SHAPE_REPRESENTATION('Part 1',(#1294),#2051);
#1294=AXIS2_PLACEMENT_3D('',#1695,#1375,#1376);
#1295=AXIS2_PLACEMENT_3D('',#1696,#1377,#1378);
#1296=AXIS2_PLACEMENT_3D('',#1700,#1380,#1381);
#1297=AXIS2_PLACEMENT_3D('',#1715,#1389,#1390);
#1298=AXIS2_PLACEMENT_3D('',#1719,#1393,#1394);
#1299=AXIS2_PLACEMENT_3D('',#1720,#1395,#1396);
#1300=AXIS2_PLACEMENT_3D('',#1725,#1398,#1399);
#1301=AXIS2_PLACEMENT_3D('',#1732,#1403,#1404);
#1302=AXIS2_PLACEMENT_3D('',#1744,#1411,#1412);
#1303=AXIS2_PLACEMENT_3D('',#1746,#1413,#1414);
#1304=AXIS2_PLACEMENT_3D('',#1747,#1415,#1416);
#1305=AXIS2_PLACEMENT_3D('',#1769,#1427,#1428);
#1306=AXIS2_PLACEMENT_3D('',#1778,#1433,#1434);
#1307=AXIS2_PLACEMENT_3D('',#1784,#1438,#1439);
#1308=AXIS2_PLACEMENT_3D('',#1790,#1443,#1444);
#1309=AXIS2_PLACEMENT_3D('',#1796,#1448,#1449);
#1310=AXIS2_PLACEMENT_3D('',#1802,#1453,#1454);
#1311=AXIS2_PLACEMENT_3D('',#1803,#1455,#1456);
#1312=AXIS2_PLACEMENT_3D('',#1805,#1457,#1458);
#1313=AXIS2_PLACEMENT_3D('',#1807,#1459,#1460);
#1314=AXIS2_PLACEMENT_3D('',#1813,#1464,#1465);
#1315=AXIS2_PLACEMENT_3D('',#1823,#1471,#1472);
#1316=AXIS2_PLACEMENT_3D('',#1824,#1473,#1474);
#1317=AXIS2_PLACEMENT_3D('',#1826,#1475,#1476);
#1318=AXIS2_PLACEMENT_3D('',#1832,#1480,#1481);
#1319=AXIS2_PLACEMENT_3D('',#1836,#1484,#1485);
#1320=AXIS2_PLACEMENT_3D('',#1840,#1488,#1489);
#1321=AXIS2_PLACEMENT_3D('',#1844,#1492,#1493);
#1322=AXIS2_PLACEMENT_3D('',#1848,#1496,#1497);
#1323=AXIS2_PLACEMENT_3D('',#1852,#1500,#1501);
#1324=AXIS2_PLACEMENT_3D('',#1866,#1509,#1510);
#1325=AXIS2_PLACEMENT_3D('',#1869,#1513,#1514);
#1326=AXIS2_PLACEMENT_3D('',#1873,#1517,#1518);
#1327=AXIS2_PLACEMENT_3D('',#1875,#1520,#1521);
#1328=AXIS2_PLACEMENT_3D('',#1877,#1523,#1524);
#1329=AXIS2_PLACEMENT_3D('',#1883,#1528,#1529);
#1330=AXIS2_PLACEMENT_3D('',#1887,#1532,#1533);
#1331=AXIS2_PLACEMENT_3D('',#1891,#1536,#1537);
#1332=AXIS2_PLACEMENT_3D('',#1893,#1539,#1540);
#1333=AXIS2_PLACEMENT_3D('',#1899,#1544,#1545);
#1334=AXIS2_PLACEMENT_3D('',#1903,#1548,#1549);
#1335=AXIS2_PLACEMENT_3D('',#1907,#1552,#1553);
#1336=AXIS2_PLACEMENT_3D('',#1913,#1557,#1558);
#1337=AXIS2_PLACEMENT_3D('',#1924,#1565,#1566);
#1338=AXIS2_PLACEMENT_3D('',#1929,#1570,#1571);
#1339=AXIS2_PLACEMENT_3D('',#1933,#1574,#1575);
#1340=AXIS2_PLACEMENT_3D('',#1937,#1578,#1579);
#1341=AXIS2_PLACEMENT_3D('',#1943,#1583,#1584);
#1342=AXIS2_PLACEMENT_3D('',#1947,#1587,#1588);
#1343=AXIS2_PLACEMENT_3D('',#1951,#1591,#1592);
#1344=AXIS2_PLACEMENT_3D('',#1955,#1595,#1596);
#1345=AXIS2_PLACEMENT_3D('',#1961,#1600,#1601);
#1346=AXIS2_PLACEMENT_3D('',#1965,#1604,#1605);
#1347=AXIS2_PLACEMENT_3D('',#1967,#1607,#1608);
#1348=AXIS2_PLACEMENT_3D('',#1973,#1612,#1613);
#1349=AXIS2_PLACEMENT_3D('',#1983,#1619,#1620);
#1350=AXIS2_PLACEMENT_3D('',#1993,#1626,#1627);
#1351=AXIS2_PLACEMENT_3D('',#2001,#1632,#1633);
#1352=AXIS2_PLACEMENT_3D('',#2004,#1636,#1637);
#1353=AXIS2_PLACEMENT_3D('',#2008,#1640,#1641);
#1354=AXIS2_PLACEMENT_3D('',#2014,#1645,#1646);
#1355=AXIS2_PLACEMENT_3D('',#2018,#1649,#1650);
#1356=AXIS2_PLACEMENT_3D('',#2020,#1652,#1653);
#1357=AXIS2_PLACEMENT_3D('',#2022,#1655,#1656);
#1358=AXIS2_PLACEMENT_3D('',#2024,#1658,#1659);
#1359=AXIS2_PLACEMENT_3D('',#2025,#1660,#1661);
#1360=AXIS2_PLACEMENT_3D('',#2027,#1662,#1663);
#1361=AXIS2_PLACEMENT_3D('',#2029,#1664,#1665);
#1362=AXIS2_PLACEMENT_3D('',#2032,#1667,#1668);
#1363=AXIS2_PLACEMENT_3D('',#2033,#1669,#1670);
#1364=AXIS2_PLACEMENT_3D('',#2035,#1672,#1673);
#1365=AXIS2_PLACEMENT_3D('',#2037,#1675,#1676);
#1366=AXIS2_PLACEMENT_3D('',#2038,#1677,#1678);
#1367=AXIS2_PLACEMENT_3D('',#2040,#1679,#1680);
#1368=AXIS2_PLACEMENT_3D('',#2042,#1681,#1682);
#1369=AXIS2_PLACEMENT_3D('',#2044,#1683,#1684);
#1370=AXIS2_PLACEMENT_3D('',#2045,#1685,#1686);
#1371=AXIS2_PLACEMENT_3D('',#2046,#1687,#1688);
#1372=AXIS2_PLACEMENT_3D('',#2047,#1689,#1690);
#1373=AXIS2_PLACEMENT_3D('',#2048,#1691,#1692);
#1374=AXIS2_PLACEMENT_3D('',#2049,#1693,#1694);
#1375=DIRECTION('',(0.,0.,1.));
#1376=DIRECTION('',(1.,0.,0.));
#1377=DIRECTION('',(0.,0.,1.));
#1378=DIRECTION('',(1.,0.,0.));
#1379=DIRECTION('',(1.,0.,0.));
#1380=DIRECTION('',(0.,0.,1.));
#1381=DIRECTION('',(1.,0.,0.));
#1382=DIRECTION('',(1.,0.,0.));
#1383=DIRECTION('',(0.,-1.,0.));
#1384=DIRECTION('',(-1.,0.,0.));
#1385=DIRECTION('',(0.,1.,0.));
#1386=DIRECTION('',(-1.,0.,0.));
#1387=DIRECTION('',(0.,-1.,0.));
#1388=DIRECTION('',(-1.,0.,0.));
#1389=DIRECTION('',(0.,0.,1.));
#1390=DIRECTION('',(1.,0.,0.));
#1391=DIRECTION('',(-1.,0.,0.));
#1392=DIRECTION('',(3.41607084500048E-16,1.,0.));
#1393=DIRECTION('',(0.,0.,-1.));
#1394=DIRECTION('',(1.,0.,0.));
#1395=DIRECTION('',(0.,0.,-1.));
#1396=DIRECTION('',(-1.,0.,0.));
#1397=DIRECTION('',(-1.,0.,0.));
#1398=DIRECTION('',(0.,0.,-1.));
#1399=DIRECTION('',(-1.,0.,0.));
#1400=DIRECTION('',(-1.,0.,0.));
#1401=DIRECTION('',(0.,1.,0.));
#1402=DIRECTION('',(-1.,0.,0.));
#1403=DIRECTION('',(0.,0.,-1.));
#1404=DIRECTION('',(-1.,0.,0.));
#1405=DIRECTION('',(-1.,0.,0.));
#1406=DIRECTION('',(0.,1.,0.));
#1407=DIRECTION('',(-1.,0.,0.));
#1408=DIRECTION('',(0.,1.,0.));
#1409=DIRECTION('',(-1.,0.,0.));
#1410=DIRECTION('',(0.,1.,0.));
#1411=DIRECTION('',(0.,0.,-1.));
#1412=DIRECTION('',(-1.,0.,0.));
#1413=DIRECTION('',(0.,0.,1.));
#1414=DIRECTION('',(1.,0.,0.));
#1415=DIRECTION('',(0.,0.,1.));
#1416=DIRECTION('',(1.,0.,0.));
#1417=DIRECTION('',(-3.82835525732812E-16,-1.,0.));
#1418=DIRECTION('',(1.,0.,0.));
#1419=DIRECTION('',(-3.82835525732812E-16,-1.,0.));
#1420=DIRECTION('',(-0.707106781186548,0.707106781186548,0.));
#1421=DIRECTION('',(1.,0.,0.));
#1422=DIRECTION('',(0.,1.,0.));
#1423=DIRECTION('',(0.707106781186548,0.707106781186548,0.));
#1424=DIRECTION('',(1.,0.,0.));
#1425=DIRECTION('',(-0.707106781186548,0.707106781186548,0.));
#1426=DIRECTION('',(0.707106781186548,0.707106781186548,0.));
#1427=DIRECTION('',(-0.707106781186548,0.707106781186548,0.));
#1428=DIRECTION('',(-0.707106781186548,-0.707106781186548,0.));
#1429=DIRECTION('',(0.,0.,1.));
#1430=DIRECTION('',(-0.707106781186548,-0.707106781186548,0.));
#1431=DIRECTION('',(0.,0.,1.));
#1432=DIRECTION('',(-0.707106781186548,-0.707106781186548,0.));
#1433=DIRECTION('',(-1.,3.82835525732812E-16,0.));
#1434=DIRECTION('',(-3.82835525732812E-16,-1.,0.));
#1435=DIRECTION('',(-3.82835525732812E-16,-1.,0.));
#1436=DIRECTION('',(0.,0.,-1.));
#1437=DIRECTION('',(-3.82835525732812E-16,-1.,0.));
#1438=DIRECTION('',(-1.38777878078146E-14,-1.,0.));
#1439=DIRECTION('',(1.,-1.38777878078146E-14,0.));
#1440=DIRECTION('',(1.,-1.38777878078146E-14,0.));
#1441=DIRECTION('',(0.,0.,-1.));
#1442=DIRECTION('',(1.,-1.38777878078146E-14,0.));
#1443=DIRECTION('',(-1.,3.82835525732812E-16,0.));
#1444=DIRECTION('',(-3.82835525732812E-16,-1.,0.));
#1445=DIRECTION('',(0.,0.,1.));
#1446=DIRECTION('',(-3.82835525732812E-16,-1.,0.));
#1447=DIRECTION('',(-3.82835525732812E-16,-1.,0.));
#1448=DIRECTION('',(0.707106781186548,0.707106781186548,0.));
#1449=DIRECTION('',(-0.707106781186548,0.707106781186548,0.));
#1450=DIRECTION('',(-0.707106781186548,0.707106781186548,0.));
#1451=DIRECTION('',(-0.707106781186548,0.707106781186548,0.));
#1452=DIRECTION('',(0.,0.,-1.));
#1453=DIRECTION('',(0.,0.,1.));
#1454=DIRECTION('',(1.,0.,0.));
#1455=DIRECTION('',(0.,0.,-1.));
#1456=DIRECTION('',(1.,0.,0.));
#1457=DIRECTION('',(0.,0.,1.));
#1458=DIRECTION('',(1.,0.,0.));
#1459=DIRECTION('',(-0.707106781186548,0.707106781186548,0.));
#1460=DIRECTION('',(-0.707106781186548,-0.707106781186548,0.));
#1461=DIRECTION('',(0.,0.,1.));
#1462=DIRECTION('',(-0.707106781186548,-0.707106781186548,0.));
#1463=DIRECTION('',(-0.707106781186548,-0.707106781186548,0.));
#1464=DIRECTION('',(0.,0.,1.));
#1465=DIRECTION('',(1.,0.,0.));
#1466=DIRECTION('',(0.,-1.,0.));
#1467=DIRECTION('',(1.,0.,0.));
#1468=DIRECTION('',(-0.707106781186548,0.707106781186548,0.));
#1469=DIRECTION('',(0.,-1.,0.));
#1470=DIRECTION('',(1.,0.,0.));
#1471=DIRECTION('',(0.,0.,1.));
#1472=DIRECTION('',(1.,0.,0.));
#1473=DIRECTION('',(0.,0.,1.));
#1474=DIRECTION('',(1.,0.,0.));
#1475=DIRECTION('',(0.707106781186548,0.707106781186548,0.));
#1476=DIRECTION('',(-0.707106781186548,0.707106781186548,0.));
#1477=DIRECTION('',(0.,0.,-1.));
#1478=DIRECTION('',(-0.707106781186548,0.707106781186548,0.));
#1479=DIRECTION('',(0.,0.,-1.));
#1480=DIRECTION('',(0.707106781186548,-0.707106781186548,0.));
#1481=DIRECTION('',(0.707106781186548,0.707106781186548,0.));
#1482=DIRECTION('',(0.707106781186548,0.707106781186548,0.));
#1483=DIRECTION('',(0.,0.,-1.));
#1484=DIRECTION('',(-1.,3.82835525732812E-16,0.));
#1485=DIRECTION('',(-3.82835525732812E-16,-1.,0.));
#1486=DIRECTION('',(0.,0.,-1.));
#1487=DIRECTION('',(-3.82835525732812E-16,-1.,0.));
#1488=DIRECTION('',(0.,-1.,0.));
#1489=DIRECTION('',(0.,0.,-1.));
#1490=DIRECTION('',(0.,0.,-1.));
#1491=DIRECTION('',(1.,0.,0.));
#1492=DIRECTION('',(-1.,3.82835525732812E-16,0.));
#1493=DIRECTION('',(-3.82835525732812E-16,-1.,0.));
#1494=DIRECTION('',(-3.82835525732812E-16,-1.,0.));
#1495=DIRECTION('',(0.,0.,1.));
#1496=DIRECTION('',(0.707106781186548,0.707106781186548,0.));
#1497=DIRECTION('',(-0.707106781186548,0.707106781186548,0.));
#1498=DIRECTION('',(-0.707106781186548,0.707106781186548,0.));
#1499=DIRECTION('',(0.,0.,-1.));
#1500=DIRECTION('',(0.707106781186547,-2.4155268595135E-16,0.707106781186548));
#1501=DIRECTION('',(-3.41607084500048E-16,-1.,0.));
#1502=DIRECTION('',(0.707106781186548,0.,-0.707106781186547));
#1503=DIRECTION('',(-0.707106781186548,-2.32248400940087E-32,0.707106781186547));
#1504=DIRECTION('',(-3.41607084500048E-16,-1.,0.));
#1505=DIRECTION('',(0.707106781186548,-9.81307786677373E-15,-0.707106781186547));
#1506=DIRECTION('',(-3.82835525732812E-16,-1.,4.12284412327645E-17));
#1507=DIRECTION('',(0.707106781186548,0.,-0.707106781186547));
#1508=DIRECTION('',(-3.82835525732812E-16,-1.,4.12284412327645E-17));
#1509=DIRECTION('',(-1.,0.,0.));
#1510=DIRECTION('',(0.,0.,1.));
#1511=DIRECTION('',(0.,0.,-1.));
#1512=DIRECTION('',(0.,0.,-1.));
#1513=DIRECTION('',(-0.577350269189626,-0.577350269189626,-0.577350269189626));
#1514=DIRECTION('',(-0.707106781186548,0.,0.707106781186547));
#1515=DIRECTION('',(0.,-0.707106781186548,0.707106781186547));
#1516=DIRECTION('',(-0.707106781186548,0.707106781186548,0.));
#1517=DIRECTION('',(0.,-1.,0.));
#1518=DIRECTION('',(0.,0.,-1.));
#1519=DIRECTION('',(0.,0.,-1.));
#1520=DIRECTION('',(0.,-1.,0.));
#1521=DIRECTION('',(0.,0.,-1.));
#1522=DIRECTION('',(0.,0.,-1.));
#1523=DIRECTION('',(-1.,3.82835525732812E-16,0.));
#1524=DIRECTION('',(-3.82835525732812E-16,-1.,0.));
#1525=DIRECTION('',(-3.82835525732812E-16,-1.,0.));
#1526=DIRECTION('',(0.,0.,-1.));
#1527=DIRECTION('',(0.,0.,-1.));
#1528=DIRECTION('',(-1.38777878078146E-14,-1.,0.));
#1529=DIRECTION('',(1.,-1.38777878078146E-14,0.));
#1530=DIRECTION('',(1.,-1.38777878078146E-14,0.));
#1531=DIRECTION('',(0.,0.,-1.));
#1532=DIRECTION('',(-1.,3.82835525732812E-16,0.));
#1533=DIRECTION('',(-3.82835525732812E-16,-1.,0.));
#1534=DIRECTION('',(0.,0.,-1.));
#1535=DIRECTION('',(-3.82835525732812E-16,-1.,0.));
#1536=DIRECTION('',(0.,-1.,0.));
#1537=DIRECTION('',(0.,0.,-1.));
#1538=DIRECTION('',(1.,0.,0.));
#1539=DIRECTION('',(0.,1.,0.));
#1540=DIRECTION('',(0.,0.,1.));
#1541=DIRECTION('',(0.,0.,-1.));
#1542=DIRECTION('',(0.,0.,-1.));
#1543=DIRECTION('',(1.,0.,0.));
#1544=DIRECTION('',(0.707106781186548,0.707106781186548,0.));
#1545=DIRECTION('',(-0.707106781186548,0.707106781186548,0.));
#1546=DIRECTION('',(0.707106781186548,-0.707106781186548,0.));
#1547=DIRECTION('',(0.,0.,-1.));
#1548=DIRECTION('',(1.,0.,0.));
#1549=DIRECTION('',(0.,0.,-1.));
#1550=DIRECTION('',(0.,0.,-1.));
#1551=DIRECTION('',(0.,-1.,0.));
#1552=DIRECTION('',(0.,1.,0.));
#1553=DIRECTION('',(0.,0.,1.));
#1554=DIRECTION('',(1.,0.,0.));
#1555=DIRECTION('',(0.,0.,-1.));
#1556=DIRECTION('',(1.,0.,0.));
#1557=DIRECTION('',(1.,-3.41607084500048E-16,0.));
#1558=DIRECTION('',(3.41607084500048E-16,1.,0.));
#1559=DIRECTION('',(0.,0.,1.));
#1560=DIRECTION('',(-3.41607084500048E-16,-1.,0.));
#1561=DIRECTION('',(-3.41607084500048E-16,-1.,0.));
#1562=DIRECTION('',(0.,0.,-1.));
#1563=DIRECTION('',(-3.41607084500048E-16,-1.,0.));
#1564=DIRECTION('',(0.,0.,-1.));
#1565=DIRECTION('',(0.,1.,0.));
#1566=DIRECTION('',(0.,0.,1.));
#1567=DIRECTION('',(1.,0.,0.));
#1568=DIRECTION('',(1.,0.,0.));
#1569=DIRECTION('',(0.,0.,-1.));
#1570=DIRECTION('',(-1.,0.,0.));
#1571=DIRECTION('',(0.,0.,1.));
#1572=DIRECTION('',(0.,1.,0.));
#1573=DIRECTION('',(0.,0.,-1.));
#1574=DIRECTION('',(-0.707106781186548,0.707106781186548,0.));
#1575=DIRECTION('',(-0.707106781186548,-0.707106781186548,0.));
#1576=DIRECTION('',(0.707106781186548,0.707106781186548,0.));
#1577=DIRECTION('',(0.,0.,-1.));
#1578=DIRECTION('',(0.,1.,0.));
#1579=DIRECTION('',(0.,0.,1.));
#1580=DIRECTION('',(1.38777878078145E-16,0.,-1.));
#1581=DIRECTION('',(1.,0.,0.));
#1582=DIRECTION('',(1.,0.,0.));
#1583=DIRECTION('',(-0.707106781186548,-0.707106781186548,0.));
#1584=DIRECTION('',(0.,0.,1.));
#1585=DIRECTION('',(0.,0.,-1.));
#1586=DIRECTION('',(0.707106781186548,-0.707106781186548,0.));
#1587=DIRECTION('',(0.,0.,1.));
#1588=DIRECTION('',(1.,0.,0.));
#1589=DIRECTION('',(-1.,0.,0.));
#1590=DIRECTION('',(0.,-1.,0.));
#1591=DIRECTION('',(1.,0.,0.));
#1592=DIRECTION('',(0.,0.,-1.));
#1593=DIRECTION('',(0.,0.,-1.));
#1594=DIRECTION('',(0.,-1.,0.));
#1595=DIRECTION('',(0.,0.,1.));
#1596=DIRECTION('',(1.,0.,0.));
#1597=DIRECTION('',(0.,-1.,0.));
#1598=DIRECTION('',(-1.,0.,0.));
#1599=DIRECTION('',(0.707106781186548,0.707106781186548,0.));
#1600=DIRECTION('',(0.707106781186548,-0.707106781186548,0.));
#1601=DIRECTION('',(0.,0.,-1.));
#1602=DIRECTION('',(0.,0.,1.));
#1603=DIRECTION('',(-0.707106781186548,-0.707106781186548,0.));
#1604=DIRECTION('',(-0.577350269189626,0.577350269189626,-0.577350269189626));
#1605=DIRECTION('',(-0.707106781186548,0.,0.707106781186547));
#1606=DIRECTION('',(0.,0.707106781186548,0.707106781186547));
#1607=DIRECTION('',(-1.,0.,0.));
#1608=DIRECTION('',(0.,0.,1.));
#1609=DIRECTION('',(0.,-1.,0.));
#1610=DIRECTION('',(0.,0.,-1.));
#1611=DIRECTION('',(0.,0.,-1.));
#1612=DIRECTION('',(0.,-1.,0.));
#1613=DIRECTION('',(0.,0.,-1.));
#1614=DIRECTION('',(0.,0.,-1.));
#1615=DIRECTION('',(1.,0.,0.));
#1616=DIRECTION('',(0.,0.,-1.));
#1617=DIRECTION('',(1.,0.,0.));
#1618=DIRECTION('',(0.,0.,-1.));
#1619=DIRECTION('',(0.,-1.,0.));
#1620=DIRECTION('',(0.,0.,-1.));
#1621=DIRECTION('',(1.,0.,0.));
#1622=DIRECTION('',(0.,0.,-1.));
#1623=DIRECTION('',(0.,0.,-1.));
#1624=DIRECTION('',(1.,0.,0.));
#1625=DIRECTION('',(0.,0.,-1.));
#1626=DIRECTION('',(0.,-1.,0.));
#1627=DIRECTION('',(0.,0.,-1.));
#1628=DIRECTION('',(0.,0.,-1.));
#1629=DIRECTION('',(-1.,0.,0.));
#1630=DIRECTION('',(1.,0.,0.));
#1631=DIRECTION('',(0.,0.,-1.));
#1632=DIRECTION('',(0.,0.,1.));
#1633=DIRECTION('',(1.,0.,0.));
#1634=DIRECTION('',(0.,-1.,0.));
#1635=DIRECTION('',(0.,-1.,0.));
#1636=DIRECTION('',(-1.,0.,0.));
#1637=DIRECTION('',(0.,0.,1.));
#1638=DIRECTION('',(0.,0.707106781186548,-0.707106781186547));
#1639=DIRECTION('',(0.,-1.,0.));
#1640=DIRECTION('',(0.,-0.707106781186547,0.707106781186548));
#1641=DIRECTION('',(-1.,0.,0.));
#1642=DIRECTION('',(0.,-0.707106781186548,-0.707106781186547));
#1643=DIRECTION('',(-1.,0.,0.));
#1644=DIRECTION('',(-1.,0.,0.));
#1645=DIRECTION('',(0.,-1.,0.));
#1646=DIRECTION('',(0.,0.,-1.));
#1647=DIRECTION('',(-1.38777878078145E-16,0.,1.));
#1648=DIRECTION('',(0.,0.,-1.));
#1649=DIRECTION('',(1.,0.,1.38777878078145E-16));
#1650=DIRECTION('',(1.38777878078145E-16,0.,-1.));
#1651=DIRECTION('',(0.,-1.,0.));
#1652=DIRECTION('',(-1.,0.,0.));
#1653=DIRECTION('',(0.,0.,1.));
#1654=DIRECTION('',(0.,-1.,0.));
#1655=DIRECTION('',(0.,-0.707106781186547,-0.707106781186548));
#1656=DIRECTION('',(1.,0.,0.));
#1657=DIRECTION('',(1.,0.,0.));
#1658=DIRECTION('',(0.,0.,-1.));
#1659=DIRECTION('',(-1.,0.,0.));
#1660=DIRECTION('',(0.,0.,-1.));
#1661=DIRECTION('',(-1.,0.,0.));
#1662=DIRECTION('',(0.,0.,-1.));
#1663=DIRECTION('',(-1.,0.,0.));
#1664=DIRECTION('',(0.,0.,-1.));
#1665=DIRECTION('',(-1.,0.,0.));
#1666=DIRECTION('',(0.,-1.,0.));
#1667=DIRECTION('',(-1.,0.,0.));
#1668=DIRECTION('',(0.,0.,1.));
#1669=DIRECTION('',(-1.,0.,0.));
#1670=DIRECTION('',(0.,0.,1.));
#1671=DIRECTION('',(0.,-1.,0.));
#1672=DIRECTION('',(-1.,0.,0.));
#1673=DIRECTION('',(0.,0.,1.));
#1674=DIRECTION('',(0.,-1.,0.));
#1675=DIRECTION('',(0.,0.,-1.));
#1676=DIRECTION('',(-1.,0.,0.));
#1677=DIRECTION('',(0.,0.,-1.));
#1678=DIRECTION('',(-1.,0.,0.));
#1679=DIRECTION('',(0.,0.,-1.));
#1680=DIRECTION('',(-1.,0.,0.));
#1681=DIRECTION('',(0.,0.,-1.));
#1682=DIRECTION('',(-1.,0.,0.));
#1683=DIRECTION('',(0.,0.,1.));
#1684=DIRECTION('',(1.,0.,0.));
#1685=DIRECTION('',(0.,0.,1.));
#1686=DIRECTION('',(1.,0.,0.));
#1687=DIRECTION('',(0.,0.,1.));
#1688=DIRECTION('',(1.,0.,0.));
#1689=DIRECTION('',(0.,0.,1.));
#1690=DIRECTION('',(1.,0.,0.));
#1691=DIRECTION('',(0.,0.,1.));
#1692=DIRECTION('',(1.,0.,0.));
#1693=DIRECTION('',(0.,0.,1.));
#1694=DIRECTION('',(1.,0.,0.));
#1695=CARTESIAN_POINT('',(0.,0.,0.));
#1696=CARTESIAN_POINT('',(0.,0.,0.));
#1697=CARTESIAN_POINT('',(0.,0.1525,0.));
#1698=CARTESIAN_POINT('',(-0.175,0.1525,0.));
#1699=CARTESIAN_POINT('',(0.1,0.1525,-8.67361737988404E-19));
#1700=CARTESIAN_POINT('',(0.1,0.15,0.));
#1701=CARTESIAN_POINT('',(0.,0.1525,0.));
#1702=CARTESIAN_POINT('',(0.105,0.152500000000002,8.43942971062717E-16));
#1703=CARTESIAN_POINT('',(0.105,9.8375,-3.46944695195361E-18));
#1704=CARTESIAN_POINT('',(0.105,0.1425,-3.46944695195361E-18));
#1705=CARTESIAN_POINT('',(0.,0.1425,0.));
#1706=CARTESIAN_POINT('',(-0.165,0.1425,0.));
#1707=CARTESIAN_POINT('',(-0.165,0.,0.));
#1708=CARTESIAN_POINT('',(-0.165,-0.1425,0.));
#1709=CARTESIAN_POINT('',(0.,-0.1425,0.));
#1710=CARTESIAN_POINT('',(0.105,-0.1425,-3.46944695195361E-18));
#1711=CARTESIAN_POINT('',(0.105,9.8375,-3.46944695195361E-18));
#1712=CARTESIAN_POINT('',(0.105,-0.152499999999997,-9.32413868337534E-16));
#1713=CARTESIAN_POINT('',(-0.185,-0.1525,0.));
#1714=CARTESIAN_POINT('',(0.1,-0.1525,-5.50774703622636E-17));
#1715=CARTESIAN_POINT('',(0.1,-0.15,0.));
#1716=CARTESIAN_POINT('',(-0.185,-0.1525,0.));
#1717=CARTESIAN_POINT('',(-0.175,-0.1525,0.));
#1718=CARTESIAN_POINT('',(-0.175,5.97812397875084E-17,0.));
#1719=CARTESIAN_POINT('',(0.,0.,0.005));
#1720=CARTESIAN_POINT('',(0.1,0.13,0.005));
#1721=CARTESIAN_POINT('',(0.0975,0.13,0.005));
#1722=CARTESIAN_POINT('',(0.,-0.1425,0.005));
#1723=CARTESIAN_POINT('',(0.105,-0.1425,0.005));
#1724=CARTESIAN_POINT('',(0.1,-0.1425,0.005));
#1725=CARTESIAN_POINT('',(0.1,-0.14,0.005));
#1726=CARTESIAN_POINT('',(0.,-0.1425,0.005));
#1727=CARTESIAN_POINT('',(-0.165,-0.1425,0.005));
#1728=CARTESIAN_POINT('',(-0.165,0.,0.005));
#1729=CARTESIAN_POINT('',(-0.165,0.1425,0.005));
#1730=CARTESIAN_POINT('',(0.,0.1425,0.005));
#1731=CARTESIAN_POINT('',(0.1,0.1425,0.005));
#1732=CARTESIAN_POINT('',(0.1,0.14,0.005));
#1733=CARTESIAN_POINT('',(0.,0.1425,0.005));
#1734=CARTESIAN_POINT('',(0.105,0.1425,0.005));
#1735=CARTESIAN_POINT('',(0.105,0.,0.005));
#1736=CARTESIAN_POINT('',(0.105,0.1225,0.005));
#1737=CARTESIAN_POINT('',(0.,0.1225,0.005));
#1738=CARTESIAN_POINT('',(-0.145,0.1225,0.005));
#1739=CARTESIAN_POINT('',(-0.145,0.,0.005));
#1740=CARTESIAN_POINT('',(-0.145,-0.1225,0.005));
#1741=CARTESIAN_POINT('',(0.,-0.1225,0.005));
#1742=CARTESIAN_POINT('',(0.105,-0.1225,0.005));
#1743=CARTESIAN_POINT('',(0.105,0.,0.005));
#1744=CARTESIAN_POINT('',(0.1,-0.13,0.005));
#1745=CARTESIAN_POINT('',(0.0975,-0.13,0.005));
#1746=CARTESIAN_POINT('',(-0.169393398282202,0.146893398282202,0.218));
#1747=CARTESIAN_POINT('',(-0.172928932188134,0.150428932188134,0.218));
#1748=CARTESIAN_POINT('',(-0.170428932188134,0.150428932188134,0.218));
#1749=CARTESIAN_POINT('',(-0.1755,0.146893398282202,0.218));
#1750=CARTESIAN_POINT('',(-0.1755,0.145,0.218));
#1751=CARTESIAN_POINT('',(-0.1755,0.140786796564404,0.218));
#1752=CARTESIAN_POINT('',(-0.169393398282202,0.145,0.218));
#1753=CARTESIAN_POINT('',(-0.1775,0.145,0.218));
#1754=CARTESIAN_POINT('',(-0.1775,0.146893398282202,0.218));
#1755=CARTESIAN_POINT('',(-0.1775,0.139443650813896,0.218));
#1756=CARTESIAN_POINT('',(-0.177171572875254,0.13911522368915,0.218));
#1757=CARTESIAN_POINT('',(-0.180556349186104,0.1425,0.218));
#1758=CARTESIAN_POINT('',(-0.1825,0.1425,0.218));
#1759=CARTESIAN_POINT('',(-0.18,0.1425,0.218));
#1760=CARTESIAN_POINT('',(-0.18,0.146464466094067,0.218));
#1761=CARTESIAN_POINT('',(-0.18,0.150428932188134,0.218));
#1762=CARTESIAN_POINT('',(-0.176464466094067,0.153964466094067,0.218));
#1763=CARTESIAN_POINT('',(-0.172928932188134,0.1575,0.218));
#1764=CARTESIAN_POINT('',(-0.168964466094068,0.1575,0.218));
#1765=CARTESIAN_POINT('',(-0.164443650813896,0.1575,0.218));
#1766=CARTESIAN_POINT('',(-0.16161522368915,0.154671572875254,0.218));
#1767=CARTESIAN_POINT('',(-0.16161522368915,0.154671572875254,0.218));
#1768=CARTESIAN_POINT('',(-0.169393398282202,0.146893398282202,0.218));
#1769=CARTESIAN_POINT('',(-0.177171572875254,-0.13911522368915,0.219));
#1770=CARTESIAN_POINT('',(-0.1775,-0.139443650813896,0.219));
#1771=CARTESIAN_POINT('',(-0.1775,-0.139443650813896,0.218));
#1772=CARTESIAN_POINT('',(-0.1775,-0.139443650813896,0.22));
#1773=CARTESIAN_POINT('',(-0.177171572875254,-0.13911522368915,0.218));
#1774=CARTESIAN_POINT('',(-0.180556349186104,-0.1425,0.218));
#1775=CARTESIAN_POINT('',(-0.180556349186104,-0.1425,0.22));
#1776=CARTESIAN_POINT('',(-0.180556349186104,-0.1425,0.22));
#1777=CARTESIAN_POINT('',(-0.177171572875254,-0.13911522368915,0.22));
#1778=CARTESIAN_POINT('',(-0.1775,1.11022302462516E-16,0.317));
#1779=CARTESIAN_POINT('',(-0.1775,9.57088814332032E-17,0.22));
#1780=CARTESIAN_POINT('',(-0.1775,-0.145,0.22));
#1781=CARTESIAN_POINT('',(-0.1775,-0.145,0.317));
#1782=CARTESIAN_POINT('',(-0.1775,-0.145,0.218));
#1783=CARTESIAN_POINT('',(-0.1775,-0.146893398282202,0.218));
#1784=CARTESIAN_POINT('',(-0.1765,-0.145,0.317));
#1785=CARTESIAN_POINT('',(-1.98452365651753E-15,-0.145000000000002,0.22));
#1786=CARTESIAN_POINT('',(-0.1755,-0.145,0.22));
#1787=CARTESIAN_POINT('',(-0.1755,-0.145,0.317));
#1788=CARTESIAN_POINT('',(-0.1755,-0.145,0.218));
#1789=CARTESIAN_POINT('',(-0.169393398282202,-0.145,0.218));
#1790=CARTESIAN_POINT('',(-0.1755,-1.11022302462516E-16,0.317));
#1791=CARTESIAN_POINT('',(-0.1755,-0.140786796564404,0.12));
#1792=CARTESIAN_POINT('',(-0.1755,-0.140786796564404,0.218));
#1793=CARTESIAN_POINT('',(-0.1755,-0.140786796564404,0.22));
#1794=CARTESIAN_POINT('',(-0.1755,-0.146893398282202,0.218));
#1795=CARTESIAN_POINT('',(-0.1755,9.49432103817375E-17,0.22));
#1796=CARTESIAN_POINT('',(-0.169393398282202,-0.146893398282202,0.12));
#1797=CARTESIAN_POINT('',(-0.169393398282202,-0.146893398282202,0.218));
#1798=CARTESIAN_POINT('',(-0.16161522368915,-0.154671572875254,0.218));
#1799=CARTESIAN_POINT('',(-0.169393398282202,-0.146893398282202,0.22));
#1800=CARTESIAN_POINT('',(-0.16161522368915,-0.154671572875254,0.22));
#1801=CARTESIAN_POINT('',(-0.16161522368915,-0.154671572875254,0.219));
#1802=CARTESIAN_POINT('',(-0.172928932188134,-0.150428932188134,0.195));
#1803=CARTESIAN_POINT('',(-0.172928932188134,-0.150428932188134,0.22));
#1804=CARTESIAN_POINT('',(-0.170428932188134,-0.150428932188134,0.22));
#1805=CARTESIAN_POINT('',(-0.172928932188134,-0.150428932188134,0.218));
#1806=CARTESIAN_POINT('',(-0.170428932188134,-0.150428932188134,0.218));
#1807=CARTESIAN_POINT('',(-0.16161522368915,-0.154671572875254,0.219));
#1808=CARTESIAN_POINT('',(-0.165,-0.158056349186104,0.22));
#1809=CARTESIAN_POINT('',(-0.165,-0.158056349186104,0.218));
#1810=CARTESIAN_POINT('',(-0.165,-0.158056349186104,0.22));
#1811=CARTESIAN_POINT('',(-0.16161522368915,-0.154671572875254,0.218));
#1812=CARTESIAN_POINT('',(-0.16161522368915,-0.154671572875254,0.22));
#1813=CARTESIAN_POINT('',(-0.169393398282202,-0.146893398282202,0.218));
#1814=CARTESIAN_POINT('',(-0.165,-0.16,0.218));
#1815=CARTESIAN_POINT('',(-0.165,-0.1575,0.218));
#1816=CARTESIAN_POINT('',(-0.168964466094068,-0.1575,0.218));
#1817=CARTESIAN_POINT('',(-0.172928932188134,-0.1575,0.218));
#1818=CARTESIAN_POINT('',(-0.176464466094067,-0.153964466094067,0.218));
#1819=CARTESIAN_POINT('',(-0.18,-0.150428932188134,0.218));
#1820=CARTESIAN_POINT('',(-0.18,-0.146464466094067,0.218));
#1821=CARTESIAN_POINT('',(-0.18,-0.1425,0.218));
#1822=CARTESIAN_POINT('',(-0.1825,-0.1425,0.218));
#1823=CARTESIAN_POINT('',(-0.172928932188134,0.150428932188134,0.195));
#1824=CARTESIAN_POINT('',(-0.172928932188134,0.150428932188134,0.22));
#1825=CARTESIAN_POINT('',(-0.170428932188134,0.150428932188134,0.22));
#1826=CARTESIAN_POINT('',(-0.16161522368915,0.154671572875254,0.219));
#1827=CARTESIAN_POINT('',(-0.164443650813896,0.1575,0.22));
#1828=CARTESIAN_POINT('',(-0.164443650813896,0.1575,0.22));
#1829=CARTESIAN_POINT('',(-0.16161522368915,0.154671572875254,0.22));
#1830=CARTESIAN_POINT('',(-0.16161522368915,0.154671572875254,0.22));
#1831=CARTESIAN_POINT('',(-0.16161522368915,0.154671572875254,0.219));
#1832=CARTESIAN_POINT('',(-0.169393398282202,0.146893398282202,0.12));
#1833=CARTESIAN_POINT('',(-0.169393398282202,0.146893398282202,0.22));
#1834=CARTESIAN_POINT('',(-0.1755,0.140786796564404,0.22));
#1835=CARTESIAN_POINT('',(-0.1755,0.140786796564404,0.12));
#1836=CARTESIAN_POINT('',(-0.1755,-1.11022302462516E-16,0.317));
#1837=CARTESIAN_POINT('',(-0.1755,0.145,0.317));
#1838=CARTESIAN_POINT('',(-0.1755,0.145,0.22));
#1839=CARTESIAN_POINT('',(-0.1755,9.49432103817375E-17,0.22));
#1840=CARTESIAN_POINT('',(-0.1765,0.145,0.317));
#1841=CARTESIAN_POINT('',(-0.1775,0.145,0.317));
#1842=CARTESIAN_POINT('',(-0.1775,0.145,0.22));
#1843=CARTESIAN_POINT('',(2.77555756156289E-17,0.145,0.22));
#1844=CARTESIAN_POINT('',(-0.1775,1.11022302462516E-16,0.317));
#1845=CARTESIAN_POINT('',(-0.1775,9.57088814332032E-17,0.22));
#1846=CARTESIAN_POINT('',(-0.1775,0.139443650813896,0.22));
#1847=CARTESIAN_POINT('',(-0.1775,0.139443650813896,0.219));
#1848=CARTESIAN_POINT('',(-0.177171572875254,0.13911522368915,0.219));
#1849=CARTESIAN_POINT('',(-0.177171572875254,0.13911522368915,0.22));
#1850=CARTESIAN_POINT('',(-0.180556349186104,0.1425,0.22));
#1851=CARTESIAN_POINT('',(-0.180556349186104,0.1425,0.22));
#1852=CARTESIAN_POINT('',(-0.185,0.,0.01));
#1853=CARTESIAN_POINT('',(-0.175,0.1525,-1.83995210002005E-18));
#1854=CARTESIAN_POINT('',(-0.185,0.1525,0.01));
#1855=CARTESIAN_POINT('',(-0.185,-0.1525,0.01));
#1856=CARTESIAN_POINT('',(-0.185,-0.1525,0.01));
#1857=CARTESIAN_POINT('',(-0.185,0.,0.01));
#1858=CARTESIAN_POINT('',(-0.185,-0.145,0.010000000000001));
#1859=CARTESIAN_POINT('',(-0.1755,-0.145,0.000500000000000092));
#1860=CARTESIAN_POINT('',(-0.1775,-0.145,0.0025));
#1861=CARTESIAN_POINT('',(-0.1755,-4.02860768617298E-18,0.000500000000000028));
#1862=CARTESIAN_POINT('',(-0.1755,0.145,0.000500000000000048));
#1863=CARTESIAN_POINT('',(-0.185,0.145,0.01));
#1864=CARTESIAN_POINT('',(-0.1775,0.145,0.0025));
#1865=CARTESIAN_POINT('',(-0.1775,-3.18047975224183E-18,0.0025));
#1866=CARTESIAN_POINT('',(-0.165,0.,0.005));
#1867=CARTESIAN_POINT('',(-0.165,0.1425,0.005));
#1868=CARTESIAN_POINT('',(-0.165,-0.1425,0.005));
#1869=CARTESIAN_POINT('',(-0.185,-0.1525,0.01));
#1870=CARTESIAN_POINT('',(-0.175,-0.1575,0.005));
#1871=CARTESIAN_POINT('',(-0.175,-0.1625,0.01));
#1872=CARTESIAN_POINT('',(-0.185,-0.1525,0.01));
#1873=CARTESIAN_POINT('',(0.,0.1425,0.005));
#1874=CARTESIAN_POINT('',(0.105,0.1425,0.005));
#1875=CARTESIAN_POINT('',(0.,-0.1425,0.005));
#1876=CARTESIAN_POINT('',(0.105,-0.1425,0.005));
#1877=CARTESIAN_POINT('',(-0.1775,1.11022302462516E-16,0.317));
#1878=CARTESIAN_POINT('',(-0.1775,6.79533058175742E-17,0.02));
#1879=CARTESIAN_POINT('',(-0.1775,0.145,0.02));
#1880=CARTESIAN_POINT('',(-0.1775,-0.145,0.02));
#1881=CARTESIAN_POINT('',(-0.1775,-0.145,0.317));
#1882=CARTESIAN_POINT('',(-0.1775,0.145,0.317));
#1883=CARTESIAN_POINT('',(-0.1765,-0.145,0.317));
#1884=CARTESIAN_POINT('',(-2.01227923213315E-15,-0.145000000000002,0.02));
#1885=CARTESIAN_POINT('',(-0.1755,-0.145,0.02));
#1886=CARTESIAN_POINT('',(-0.1755,-0.145,0.317));
#1887=CARTESIAN_POINT('',(-0.1755,-1.11022302462516E-16,0.317));
#1888=CARTESIAN_POINT('',(-0.1755,0.145,0.317));
#1889=CARTESIAN_POINT('',(-0.1755,0.145,0.02));
#1890=CARTESIAN_POINT('',(-0.1755,6.71876347661086E-17,0.02));
#1891=CARTESIAN_POINT('',(-0.1765,0.145,0.317));
#1892=CARTESIAN_POINT('',(0.,0.145,0.02));
#1893=CARTESIAN_POINT('',(-0.168964466094068,-0.1575,0.22));
#1894=CARTESIAN_POINT('',(-0.172928932188134,-0.1575,0.22));
#1895=CARTESIAN_POINT('',(-0.172928932188134,-0.1575,0.02));
#1896=CARTESIAN_POINT('',(-0.165,-0.1575,0.22));
#1897=CARTESIAN_POINT('',(-0.165,-0.1575,0.02));
#1898=CARTESIAN_POINT('',(-0.168964466094068,-0.1575,0.02));
#1899=CARTESIAN_POINT('',(-0.176464466094067,-0.153964466094067,0.22));
#1900=CARTESIAN_POINT('',(-0.176464466094067,-0.153964466094067,0.02));
#1901=CARTESIAN_POINT('',(-0.18,-0.150428932188134,0.02));
#1902=CARTESIAN_POINT('',(-0.18,-0.150428932188134,0.22));
#1903=CARTESIAN_POINT('',(-0.18,-0.146464466094067,0.22));
#1904=CARTESIAN_POINT('',(-0.18,-0.1425,0.22));
#1905=CARTESIAN_POINT('',(-0.18,-0.1425,0.02));
#1906=CARTESIAN_POINT('',(-0.18,-0.146464466094067,0.02));
#1907=CARTESIAN_POINT('',(-0.1825,-0.1425,0.22));
#1908=CARTESIAN_POINT('',(-0.1825,-0.1425,0.02));
#1909=CARTESIAN_POINT('',(-0.185,-0.1425,0.02));
#1910=CARTESIAN_POINT('',(-0.185,-0.1425,0.22));
#1911=CARTESIAN_POINT('',(-0.185,-0.1425,0.22));
#1912=CARTESIAN_POINT('',(-0.1825,-0.1425,0.22));
#1913=CARTESIAN_POINT('',(-0.185,0.,0.02));
#1914=CARTESIAN_POINT('',(-0.185,-0.1525,0.02));
#1915=CARTESIAN_POINT('',(-0.185,-0.1525,0.22));
#1916=CARTESIAN_POINT('',(-0.185,0.,0.22));
#1917=CARTESIAN_POINT('',(-0.185,0.,0.02));
#1918=CARTESIAN_POINT('',(-0.185,0.1425,0.02));
#1919=CARTESIAN_POINT('',(-0.185,0.1425,0.22));
#1920=CARTESIAN_POINT('',(-0.185,0.1425,0.22));
#1921=CARTESIAN_POINT('',(-0.185,0.,0.22));
#1922=CARTESIAN_POINT('',(-0.185,0.1525,0.22));
#1923=CARTESIAN_POINT('',(-0.185,0.1525,0.02));
#1924=CARTESIAN_POINT('',(-0.1825,0.1425,0.22));
#1925=CARTESIAN_POINT('',(-0.1825,0.1425,0.22));
#1926=CARTESIAN_POINT('',(-0.1825,0.1425,0.02));
#1927=CARTESIAN_POINT('',(-0.18,0.1425,0.02));
#1928=CARTESIAN_POINT('',(-0.18,0.1425,0.22));
#1929=CARTESIAN_POINT('',(-0.18,0.146464466094067,0.22));
#1930=CARTESIAN_POINT('',(-0.18,0.146464466094067,0.02));
#1931=CARTESIAN_POINT('',(-0.18,0.150428932188134,0.02));
#1932=CARTESIAN_POINT('',(-0.18,0.150428932188134,0.22));
#1933=CARTESIAN_POINT('',(-0.176464466094067,0.153964466094067,0.22));
#1934=CARTESIAN_POINT('',(-0.176464466094067,0.153964466094067,0.02));
#1935=CARTESIAN_POINT('',(-0.172928932188134,0.1575,0.02));
#1936=CARTESIAN_POINT('',(-0.172928932188134,0.1575,0.22));
#1937=CARTESIAN_POINT('',(-0.168964466094068,0.1575,0.22));
#1938=CARTESIAN_POINT('',(0.095,0.1575,0.22));
#1939=CARTESIAN_POINT('',(0.095,0.1575,0.22));
#1940=CARTESIAN_POINT('',(0.095,0.1575,0.02));
#1941=CARTESIAN_POINT('',(-0.168964466094068,0.1575,0.22));
#1942=CARTESIAN_POINT('',(-0.168964466094068,0.1575,0.02));
#1943=CARTESIAN_POINT('',(-0.175,-0.1625,0.02));
#1944=CARTESIAN_POINT('',(-0.175,-0.1625,0.));
#1945=CARTESIAN_POINT('',(-0.175,-0.1625,0.22));
#1946=CARTESIAN_POINT('',(-0.16875,-0.16875,0.22));
#1947=CARTESIAN_POINT('',(2.77555756156289E-17,2.77555756156289E-17,0.22));
#1948=CARTESIAN_POINT('',(-5.55111512312578E-17,-0.1625,0.22));
#1949=CARTESIAN_POINT('',(-0.165,-0.1625,0.22));
#1950=CARTESIAN_POINT('',(-0.165,-0.16,0.22));
#1951=CARTESIAN_POINT('',(-0.165,-0.16,0.22));
#1952=CARTESIAN_POINT('',(-0.165,-0.1625,0.22));
#1953=CARTESIAN_POINT('',(-0.165,-0.1625,0.02));
#1954=CARTESIAN_POINT('',(-0.165,-0.16,0.02));
#1955=CARTESIAN_POINT('',(2.77555756156289E-17,2.77555756156289E-17,0.22));
#1956=CARTESIAN_POINT('',(0.095,9.8375,0.22));
#1957=CARTESIAN_POINT('',(0.095,0.1625,0.22));
#1958=CARTESIAN_POINT('',(5.55111512312578E-17,0.1625,0.22));
#1959=CARTESIAN_POINT('',(-0.175,0.1625,0.22));
#1960=CARTESIAN_POINT('',(-0.16875,0.16875,0.22));
#1961=CARTESIAN_POINT('',(-0.185,0.1525,0.02));
#1962=CARTESIAN_POINT('',(-0.175,0.1625,0.02));
#1963=CARTESIAN_POINT('',(-0.175,0.1625,0.01));
#1964=CARTESIAN_POINT('',(-0.18,0.1575,0.01));
#1965=CARTESIAN_POINT('',(-0.175,0.1525,0.));
#1966=CARTESIAN_POINT('',(-0.175,0.1525,0.));
#1967=CARTESIAN_POINT('',(-0.145,0.,0.03));
#1968=CARTESIAN_POINT('',(-0.145,0.,0.02));
#1969=CARTESIAN_POINT('',(-0.145,0.1225,0.02));
#1970=CARTESIAN_POINT('',(-0.145,-0.1225,0.02));
#1971=CARTESIAN_POINT('',(-0.145,-0.1225,0.03));
#1972=CARTESIAN_POINT('',(-0.145,0.1225,0.03));
#1973=CARTESIAN_POINT('',(0.,0.1225,0.03));
#1974=CARTESIAN_POINT('',(0.095,0.1225,0.03));
#1975=CARTESIAN_POINT('',(0.095,0.1225,0.02));
#1976=CARTESIAN_POINT('',(0.095,0.1225,0.015));
#1977=CARTESIAN_POINT('',(0.,0.1225,0.02));
#1978=CARTESIAN_POINT('',(0.105,0.1225,0.03));
#1979=CARTESIAN_POINT('',(0.105,0.1225,0.01));
#1980=CARTESIAN_POINT('',(0.,0.1225,0.01));
#1981=CARTESIAN_POINT('',(0.095,0.1225,0.01));
#1982=CARTESIAN_POINT('',(0.095,0.1225,0.03));
#1983=CARTESIAN_POINT('',(0.,-0.1225,0.03));
#1984=CARTESIAN_POINT('',(0.,-0.1225,0.02));
#1985=CARTESIAN_POINT('',(0.095,-0.1225,0.02));
#1986=CARTESIAN_POINT('',(0.095,-0.1225,0.03));
#1987=CARTESIAN_POINT('',(0.095,-0.1225,0.015));
#1988=CARTESIAN_POINT('',(0.095,-0.1225,0.03));
#1989=CARTESIAN_POINT('',(0.095,-0.1225,0.01));
#1990=CARTESIAN_POINT('',(0.,-0.1225,0.01));
#1991=CARTESIAN_POINT('',(0.105,-0.1225,0.01));
#1992=CARTESIAN_POINT('',(0.105,-0.1225,0.03));
#1993=CARTESIAN_POINT('',(-5.55111512312578E-17,-0.1625,0.02));
#1994=CARTESIAN_POINT('',(0.095,-0.1625,0.0175));
#1995=CARTESIAN_POINT('',(0.095,-0.1625,0.02));
#1996=CARTESIAN_POINT('',(0.095,-0.1625,0.015));
#1997=CARTESIAN_POINT('',(-5.55111512312578E-17,-0.1625,0.02));
#1998=CARTESIAN_POINT('',(0.185,-0.1625,0.01));
#1999=CARTESIAN_POINT('',(0.095,-0.1625,0.01));
#2000=CARTESIAN_POINT('',(0.095,-0.1625,0.0125));
#2001=CARTESIAN_POINT('',(0.,0.,0.02));
#2002=CARTESIAN_POINT('',(0.095,9.8375,0.02));
#2003=CARTESIAN_POINT('',(0.095,9.8375,0.02));
#2004=CARTESIAN_POINT('',(0.105,9.8375,0.005));
#2005=CARTESIAN_POINT('',(0.105,-0.1525,0.));
#2006=CARTESIAN_POINT('',(0.105,-0.1625,0.01));
#2007=CARTESIAN_POINT('',(0.105,9.8375,0.01));
#2008=CARTESIAN_POINT('',(5.55111512312578E-17,0.1625,0.01));
#2009=CARTESIAN_POINT('',(0.105,0.1625,0.01));
#2010=CARTESIAN_POINT('',(0.105,0.1625,0.01));
#2011=CARTESIAN_POINT('',(5.55111512312578E-17,0.1625,0.01));
#2012=CARTESIAN_POINT('',(0.095,0.1625,0.01));
#2013=CARTESIAN_POINT('',(5.55111512312578E-17,0.1625,0.01));
#2014=CARTESIAN_POINT('',(5.55111512312578E-17,0.1625,0.02));
#2015=CARTESIAN_POINT('',(0.095,0.1625,0.02));
#2016=CARTESIAN_POINT('',(0.095,0.1625,0.015));
#2017=CARTESIAN_POINT('',(0.095,0.1625,0.02));
#2018=CARTESIAN_POINT('',(0.095,9.8375,0.12));
#2019=CARTESIAN_POINT('',(0.095,9.8375,0.015));
#2020=CARTESIAN_POINT('',(0.105,9.8375,0.005));
#2021=CARTESIAN_POINT('',(0.105,9.8375,0.01));
#2022=CARTESIAN_POINT('',(0.,-0.1525,0.));
#2023=CARTESIAN_POINT('',(0.185,-0.1625,0.01));
#2024=CARTESIAN_POINT('',(0.185,9.8375,0.01));
#2025=CARTESIAN_POINT('',(0.1,0.15,0.01));
#2026=CARTESIAN_POINT('',(0.0975,0.15,0.01));
#2027=CARTESIAN_POINT('',(0.1,0.13,0.01));
#2028=CARTESIAN_POINT('',(0.0975,0.13,0.01));
#2029=CARTESIAN_POINT('',(0.1,0.14,0.01));
#2030=CARTESIAN_POINT('',(0.0975,0.14,0.01));
#2031=CARTESIAN_POINT('',(0.095,9.8375,0.01));
#2032=CARTESIAN_POINT('',(0.095,9.8375,0.0125));
#2033=CARTESIAN_POINT('',(0.095,9.8375,0.0175));
#2034=CARTESIAN_POINT('',(0.095,9.8375,0.015));
#2035=CARTESIAN_POINT('',(0.095,9.8375,0.0125));
#2036=CARTESIAN_POINT('',(0.095,9.8375,0.01));
#2037=CARTESIAN_POINT('',(0.185,9.8375,0.01));
#2038=CARTESIAN_POINT('',(0.1,-0.13,0.01));
#2039=CARTESIAN_POINT('',(0.0975,-0.13,0.01));
#2040=CARTESIAN_POINT('',(0.1,-0.14,0.01));
#2041=CARTESIAN_POINT('',(0.0975,-0.14,0.01));
#2042=CARTESIAN_POINT('',(0.1,-0.15,0.01));
#2043=CARTESIAN_POINT('',(0.0975,-0.15,0.01));
#2044=CARTESIAN_POINT('',(0.1,-0.15,-0.005));
#2045=CARTESIAN_POINT('',(0.1,-0.14,-0.005));
#2046=CARTESIAN_POINT('',(0.1,-0.13,-0.005));
#2047=CARTESIAN_POINT('',(0.1,0.14,-0.005));
#2048=CARTESIAN_POINT('',(0.1,0.13,-0.005));
#2049=CARTESIAN_POINT('',(0.1,0.15,-0.005));
#2050=MECHANICAL_DESIGN_GEOMETRIC_PRESENTATION_REPRESENTATION('',(#1283),
#2051);
#2051=(
GEOMETRIC_REPRESENTATION_CONTEXT(3)
GLOBAL_UNCERTAINTY_ASSIGNED_CONTEXT((#2052))
GLOBAL_UNIT_ASSIGNED_CONTEXT((#2055,#2054,#2053))
REPRESENTATION_CONTEXT('Part 1','TOP_LEVEL_ASSEMBLY_PART')
);
#2052=UNCERTAINTY_MEASURE_WITH_UNIT(LENGTH_MEASURE(1.E-8),#2055,
'DISTANCE_ACCURACY_VALUE','Maximum Tolerance applied to model');
#2053=(
NAMED_UNIT(*)
SI_UNIT($,.STERADIAN.)
SOLID_ANGLE_UNIT()
);
#2054=(
NAMED_UNIT(*)
PLANE_ANGLE_UNIT()
SI_UNIT($,.RADIAN.)
);
#2055=(
LENGTH_UNIT()
NAMED_UNIT(*)
SI_UNIT($,.METRE.)
);
#2056=PRODUCT_DEFINITION_SHAPE('','',#2057);
#2057=PRODUCT_DEFINITION('','',#2059,#2058);
#2058=PRODUCT_DEFINITION_CONTEXT('',#2065,'design');
#2059=PRODUCT_DEFINITION_FORMATION_WITH_SPECIFIED_SOURCE('','',#2061,
 .NOT_KNOWN.);
#2060=PRODUCT_RELATED_PRODUCT_CATEGORY('','',(#2061));
#2061=PRODUCT('Part 1','Part 1','Part 1',(#2063));
#2062=PRODUCT_CATEGORY('','');
#2063=PRODUCT_CONTEXT('',#2065,'mechanical');
#2064=APPLICATION_PROTOCOL_DEFINITION('international standard',
'ap242_managed_model_based_3d_engineering',2020,#2065);
#2065=APPLICATION_CONTEXT('managed model based 3d engineering');
ENDSEC;
END-ISO-10303-21;
