ISO-10303-21;
HEADER;
/* Generated by software containing ST-Developer
 * from STEP Tools, Inc. (www.steptools.com) 
 */
/* OPTION: using custom renumber hook */

FILE_DESCRIPTION(
/* description */ ('STEP AP242 Edition 2',
'CAx-IF Rec.Pracs.---Representation and Presentation of Product Manufa
cturing Information (PMI)---4.0---2014-10-13',
'CAx-IF Rec.Pracs.---3D Tessellated Geometry---0.4---2014-09-14','2;1',
'CAx-IF Rec.Pracs.---User Defined Attributes---1.5---2016-08-15'),
/* implementation_level */ '2;1');

FILE_NAME(
/* name */ 'Cover top 2',
/* time_stamp */ '2026-06-25T14:46:04Z',
/* author */ (''),
/* organization */ (''),
/* preprocessor_version */ 'ST-DEVELOPER v20',
/* originating_system */ 'ONSHAPE BY PTC INC, 1.216',
/* authorisation */ '  ');

FILE_SCHEMA (('AP242_MANAGED_MODEL_BASED_3D_ENGINEERING_MIM_LF { 1 0 10303 442 3 1 4 }'));
ENDSEC;

DATA;
#10=SHAPE_REPRESENTATION_RELATIONSHIP('','',#1416,#11);
#11=ADVANCED_BREP_SHAPE_REPRESENTATION('',(#1414),#2243);
#12=CYLINDRICAL_SURFACE('',#1437,0.0025);
#13=CYLINDRICAL_SURFACE('',#1439,0.0025);
#14=CYLINDRICAL_SURFACE('',#1479,0.0025);
#15=CYLINDRICAL_SURFACE('',#1480,0.0025);
#16=CYLINDRICAL_SURFACE('',#1493,0.0025);
#17=CYLINDRICAL_SURFACE('',#1494,0.0025);
#18=CYLINDRICAL_SURFACE('',#1495,0.0025);
#19=CYLINDRICAL_SURFACE('',#1496,0.0025);
#20=CIRCLE('',#1433,0.0025);
#21=CIRCLE('',#1434,0.0025);
#22=CIRCLE('',#1435,0.0025);
#23=CIRCLE('',#1438,0.0025);
#24=CIRCLE('',#1440,0.0025);
#25=CIRCLE('',#1441,0.0025);
#26=CIRCLE('',#1443,0.0025);
#27=CIRCLE('',#1444,0.0025);
#28=CIRCLE('',#1445,0.0025);
#29=CIRCLE('',#1446,0.0025);
#30=CIRCLE('',#1452,0.0025);
#31=CIRCLE('',#1454,0.0025);
#32=CIRCLE('',#1457,0.0025);
#33=CIRCLE('',#1459,0.0025);
#34=CIRCLE('',#1490,0.0025);
#35=CIRCLE('',#1491,0.0025);
#36=ORIENTED_EDGE('',*,*,#416,.F.);
#37=ORIENTED_EDGE('',*,*,#417,.T.);
#38=ORIENTED_EDGE('',*,*,#418,.T.);
#39=ORIENTED_EDGE('',*,*,#419,.F.);
#40=ORIENTED_EDGE('',*,*,#420,.F.);
#41=ORIENTED_EDGE('',*,*,#421,.F.);
#42=ORIENTED_EDGE('',*,*,#422,.F.);
#43=ORIENTED_EDGE('',*,*,#423,.T.);
#44=ORIENTED_EDGE('',*,*,#424,.T.);
#45=ORIENTED_EDGE('',*,*,#425,.F.);
#46=ORIENTED_EDGE('',*,*,#426,.F.);
#47=ORIENTED_EDGE('',*,*,#427,.T.);
#48=ORIENTED_EDGE('',*,*,#428,.T.);
#49=ORIENTED_EDGE('',*,*,#429,.F.);
#50=ORIENTED_EDGE('',*,*,#430,.T.);
#51=ORIENTED_EDGE('',*,*,#431,.T.);
#52=ORIENTED_EDGE('',*,*,#432,.F.);
#53=ORIENTED_EDGE('',*,*,#417,.F.);
#54=ORIENTED_EDGE('',*,*,#433,.F.);
#55=ORIENTED_EDGE('',*,*,#427,.F.);
#56=ORIENTED_EDGE('',*,*,#434,.T.);
#57=ORIENTED_EDGE('',*,*,#435,.T.);
#58=ORIENTED_EDGE('',*,*,#436,.T.);
#59=ORIENTED_EDGE('',*,*,#437,.T.);
#60=ORIENTED_EDGE('',*,*,#438,.F.);
#61=ORIENTED_EDGE('',*,*,#421,.T.);
#62=ORIENTED_EDGE('',*,*,#439,.T.);
#63=ORIENTED_EDGE('',*,*,#440,.T.);
#64=ORIENTED_EDGE('',*,*,#441,.T.);
#65=ORIENTED_EDGE('',*,*,#442,.F.);
#66=ORIENTED_EDGE('',*,*,#419,.T.);
#67=ORIENTED_EDGE('',*,*,#443,.T.);
#68=ORIENTED_EDGE('',*,*,#444,.T.);
#69=ORIENTED_EDGE('',*,*,#445,.F.);
#70=ORIENTED_EDGE('',*,*,#446,.F.);
#71=ORIENTED_EDGE('',*,*,#447,.T.);
#72=ORIENTED_EDGE('',*,*,#448,.T.);
#73=ORIENTED_EDGE('',*,*,#449,.T.);
#74=ORIENTED_EDGE('',*,*,#450,.F.);
#75=ORIENTED_EDGE('',*,*,#451,.T.);
#76=ORIENTED_EDGE('',*,*,#452,.F.);
#77=ORIENTED_EDGE('',*,*,#453,.F.);
#78=ORIENTED_EDGE('',*,*,#452,.T.);
#79=ORIENTED_EDGE('',*,*,#454,.T.);
#80=ORIENTED_EDGE('',*,*,#439,.F.);
#81=ORIENTED_EDGE('',*,*,#455,.T.);
#82=ORIENTED_EDGE('',*,*,#444,.F.);
#83=ORIENTED_EDGE('',*,*,#456,.T.);
#84=ORIENTED_EDGE('',*,*,#446,.T.);
#85=ORIENTED_EDGE('',*,*,#457,.T.);
#86=ORIENTED_EDGE('',*,*,#438,.T.);
#87=ORIENTED_EDGE('',*,*,#458,.T.);
#88=ORIENTED_EDGE('',*,*,#434,.F.);
#89=ORIENTED_EDGE('',*,*,#426,.T.);
#90=ORIENTED_EDGE('',*,*,#459,.F.);
#91=ORIENTED_EDGE('',*,*,#460,.T.);
#92=ORIENTED_EDGE('',*,*,#461,.T.);
#93=ORIENTED_EDGE('',*,*,#422,.T.);
#94=ORIENTED_EDGE('',*,*,#462,.F.);
#95=ORIENTED_EDGE('',*,*,#463,.F.);
#96=ORIENTED_EDGE('',*,*,#464,.T.);
#97=ORIENTED_EDGE('',*,*,#465,.T.);
#98=ORIENTED_EDGE('',*,*,#448,.F.);
#99=ORIENTED_EDGE('',*,*,#466,.T.);
#100=ORIENTED_EDGE('',*,*,#465,.F.);
#101=ORIENTED_EDGE('',*,*,#467,.F.);
#102=ORIENTED_EDGE('',*,*,#468,.T.);
#103=ORIENTED_EDGE('',*,*,#469,.F.);
#104=ORIENTED_EDGE('',*,*,#450,.T.);
#105=ORIENTED_EDGE('',*,*,#470,.F.);
#106=ORIENTED_EDGE('',*,*,#471,.T.);
#107=ORIENTED_EDGE('',*,*,#463,.T.);
#108=ORIENTED_EDGE('',*,*,#436,.F.);
#109=ORIENTED_EDGE('',*,*,#472,.F.);
#110=ORIENTED_EDGE('',*,*,#441,.F.);
#111=ORIENTED_EDGE('',*,*,#473,.T.);
#112=ORIENTED_EDGE('',*,*,#474,.F.);
#113=ORIENTED_EDGE('',*,*,#475,.F.);
#114=ORIENTED_EDGE('',*,*,#476,.F.);
#115=ORIENTED_EDGE('',*,*,#416,.T.);
#116=ORIENTED_EDGE('',*,*,#477,.F.);
#117=ORIENTED_EDGE('',*,*,#478,.T.);
#118=ORIENTED_EDGE('',*,*,#479,.F.);
#119=ORIENTED_EDGE('',*,*,#480,.T.);
#120=ORIENTED_EDGE('',*,*,#481,.T.);
#121=ORIENTED_EDGE('',*,*,#474,.T.);
#122=ORIENTED_EDGE('',*,*,#482,.F.);
#123=ORIENTED_EDGE('',*,*,#483,.F.);
#124=ORIENTED_EDGE('',*,*,#484,.F.);
#125=ORIENTED_EDGE('',*,*,#479,.T.);
#126=ORIENTED_EDGE('',*,*,#485,.T.);
#127=ORIENTED_EDGE('',*,*,#486,.F.);
#128=ORIENTED_EDGE('',*,*,#485,.F.);
#129=ORIENTED_EDGE('',*,*,#484,.T.);
#130=ORIENTED_EDGE('',*,*,#487,.T.);
#131=ORIENTED_EDGE('',*,*,#488,.T.);
#132=ORIENTED_EDGE('',*,*,#489,.T.);
#133=ORIENTED_EDGE('',*,*,#490,.T.);
#134=ORIENTED_EDGE('',*,*,#491,.F.);
#135=ORIENTED_EDGE('',*,*,#483,.T.);
#136=ORIENTED_EDGE('',*,*,#492,.F.);
#137=ORIENTED_EDGE('',*,*,#493,.F.);
#138=ORIENTED_EDGE('',*,*,#494,.F.);
#139=ORIENTED_EDGE('',*,*,#495,.F.);
#140=ORIENTED_EDGE('',*,*,#496,.F.);
#141=ORIENTED_EDGE('',*,*,#497,.F.);
#142=ORIENTED_EDGE('',*,*,#498,.F.);
#143=ORIENTED_EDGE('',*,*,#499,.T.);
#144=ORIENTED_EDGE('',*,*,#500,.T.);
#145=ORIENTED_EDGE('',*,*,#501,.T.);
#146=ORIENTED_EDGE('',*,*,#502,.T.);
#147=ORIENTED_EDGE('',*,*,#503,.T.);
#148=ORIENTED_EDGE('',*,*,#471,.F.);
#149=ORIENTED_EDGE('',*,*,#504,.T.);
#150=ORIENTED_EDGE('',*,*,#467,.T.);
#151=ORIENTED_EDGE('',*,*,#464,.F.);
#152=ORIENTED_EDGE('',*,*,#505,.F.);
#153=ORIENTED_EDGE('',*,*,#506,.F.);
#154=ORIENTED_EDGE('',*,*,#507,.T.);
#155=ORIENTED_EDGE('',*,*,#508,.T.);
#156=ORIENTED_EDGE('',*,*,#492,.T.);
#157=ORIENTED_EDGE('',*,*,#482,.T.);
#158=ORIENTED_EDGE('',*,*,#477,.T.);
#159=ORIENTED_EDGE('',*,*,#445,.T.);
#160=ORIENTED_EDGE('',*,*,#509,.T.);
#161=ORIENTED_EDGE('',*,*,#510,.T.);
#162=ORIENTED_EDGE('',*,*,#511,.T.);
#163=ORIENTED_EDGE('',*,*,#512,.T.);
#164=ORIENTED_EDGE('',*,*,#513,.T.);
#165=ORIENTED_EDGE('',*,*,#514,.F.);
#166=ORIENTED_EDGE('',*,*,#515,.T.);
#167=ORIENTED_EDGE('',*,*,#442,.T.);
#168=ORIENTED_EDGE('',*,*,#481,.F.);
#169=ORIENTED_EDGE('',*,*,#491,.T.);
#170=ORIENTED_EDGE('',*,*,#516,.T.);
#171=ORIENTED_EDGE('',*,*,#429,.T.);
#172=ORIENTED_EDGE('',*,*,#517,.F.);
#173=ORIENTED_EDGE('',*,*,#475,.T.);
#174=ORIENTED_EDGE('',*,*,#489,.F.);
#175=ORIENTED_EDGE('',*,*,#518,.T.);
#176=ORIENTED_EDGE('',*,*,#519,.F.);
#177=ORIENTED_EDGE('',*,*,#520,.T.);
#178=ORIENTED_EDGE('',*,*,#431,.F.);
#179=ORIENTED_EDGE('',*,*,#521,.F.);
#180=ORIENTED_EDGE('',*,*,#522,.T.);
#181=ORIENTED_EDGE('',*,*,#514,.T.);
#182=ORIENTED_EDGE('',*,*,#523,.T.);
#183=ORIENTED_EDGE('',*,*,#524,.F.);
#184=ORIENTED_EDGE('',*,*,#525,.F.);
#185=ORIENTED_EDGE('',*,*,#526,.F.);
#186=ORIENTED_EDGE('',*,*,#527,.T.);
#187=ORIENTED_EDGE('',*,*,#528,.F.);
#188=ORIENTED_EDGE('',*,*,#529,.F.);
#189=ORIENTED_EDGE('',*,*,#530,.T.);
#190=ORIENTED_EDGE('',*,*,#531,.T.);
#191=ORIENTED_EDGE('',*,*,#532,.F.);
#192=ORIENTED_EDGE('',*,*,#533,.F.);
#193=ORIENTED_EDGE('',*,*,#534,.T.);
#194=ORIENTED_EDGE('',*,*,#535,.F.);
#195=ORIENTED_EDGE('',*,*,#536,.F.);
#196=ORIENTED_EDGE('',*,*,#537,.T.);
#197=ORIENTED_EDGE('',*,*,#538,.T.);
#198=ORIENTED_EDGE('',*,*,#539,.F.);
#199=ORIENTED_EDGE('',*,*,#540,.T.);
#200=ORIENTED_EDGE('',*,*,#541,.T.);
#201=ORIENTED_EDGE('',*,*,#542,.T.);
#202=ORIENTED_EDGE('',*,*,#510,.F.);
#203=ORIENTED_EDGE('',*,*,#543,.T.);
#204=ORIENTED_EDGE('',*,*,#544,.F.);
#205=ORIENTED_EDGE('',*,*,#545,.T.);
#206=ORIENTED_EDGE('',*,*,#546,.F.);
#207=ORIENTED_EDGE('',*,*,#536,.T.);
#208=ORIENTED_EDGE('',*,*,#547,.T.);
#209=ORIENTED_EDGE('',*,*,#548,.F.);
#210=ORIENTED_EDGE('',*,*,#549,.T.);
#211=ORIENTED_EDGE('',*,*,#550,.F.);
#212=ORIENTED_EDGE('',*,*,#548,.T.);
#213=ORIENTED_EDGE('',*,*,#551,.T.);
#214=ORIENTED_EDGE('',*,*,#552,.T.);
#215=ORIENTED_EDGE('',*,*,#553,.T.);
#216=ORIENTED_EDGE('',*,*,#554,.T.);
#217=ORIENTED_EDGE('',*,*,#555,.T.);
#218=ORIENTED_EDGE('',*,*,#556,.F.);
#219=ORIENTED_EDGE('',*,*,#557,.F.);
#220=ORIENTED_EDGE('',*,*,#558,.T.);
#221=ORIENTED_EDGE('',*,*,#559,.F.);
#222=ORIENTED_EDGE('',*,*,#560,.F.);
#223=ORIENTED_EDGE('',*,*,#561,.F.);
#224=ORIENTED_EDGE('',*,*,#562,.T.);
#225=ORIENTED_EDGE('',*,*,#563,.T.);
#226=ORIENTED_EDGE('',*,*,#564,.F.);
#227=ORIENTED_EDGE('',*,*,#565,.T.);
#228=ORIENTED_EDGE('',*,*,#566,.F.);
#229=ORIENTED_EDGE('',*,*,#567,.F.);
#230=ORIENTED_EDGE('',*,*,#568,.T.);
#231=ORIENTED_EDGE('',*,*,#569,.F.);
#232=ORIENTED_EDGE('',*,*,#570,.F.);
#233=ORIENTED_EDGE('',*,*,#531,.F.);
#234=ORIENTED_EDGE('',*,*,#571,.T.);
#235=ORIENTED_EDGE('',*,*,#570,.T.);
#236=ORIENTED_EDGE('',*,*,#572,.F.);
#237=ORIENTED_EDGE('',*,*,#566,.T.);
#238=ORIENTED_EDGE('',*,*,#573,.T.);
#239=ORIENTED_EDGE('',*,*,#525,.T.);
#240=ORIENTED_EDGE('',*,*,#574,.T.);
#241=ORIENTED_EDGE('',*,*,#503,.F.);
#242=ORIENTED_EDGE('',*,*,#575,.F.);
#243=ORIENTED_EDGE('',*,*,#576,.F.);
#244=ORIENTED_EDGE('',*,*,#567,.T.);
#245=ORIENTED_EDGE('',*,*,#575,.T.);
#246=ORIENTED_EDGE('',*,*,#502,.F.);
#247=ORIENTED_EDGE('',*,*,#577,.F.);
#248=ORIENTED_EDGE('',*,*,#569,.T.);
#249=ORIENTED_EDGE('',*,*,#578,.T.);
#250=ORIENTED_EDGE('',*,*,#500,.F.);
#251=ORIENTED_EDGE('',*,*,#553,.F.);
#252=ORIENTED_EDGE('',*,*,#579,.T.);
#253=ORIENTED_EDGE('',*,*,#495,.T.);
#254=ORIENTED_EDGE('',*,*,#580,.F.);
#255=ORIENTED_EDGE('',*,*,#547,.F.);
#256=ORIENTED_EDGE('',*,*,#545,.F.);
#257=ORIENTED_EDGE('',*,*,#581,.T.);
#258=ORIENTED_EDGE('',*,*,#497,.T.);
#259=ORIENTED_EDGE('',*,*,#582,.F.);
#260=ORIENTED_EDGE('',*,*,#551,.F.);
#261=ORIENTED_EDGE('',*,*,#552,.F.);
#262=ORIENTED_EDGE('',*,*,#582,.T.);
#263=ORIENTED_EDGE('',*,*,#496,.T.);
#264=ORIENTED_EDGE('',*,*,#579,.F.);
#265=ORIENTED_EDGE('',*,*,#554,.F.);
#266=ORIENTED_EDGE('',*,*,#580,.T.);
#267=ORIENTED_EDGE('',*,*,#494,.T.);
#268=ORIENTED_EDGE('',*,*,#583,.F.);
#269=ORIENTED_EDGE('',*,*,#555,.F.);
#270=ORIENTED_EDGE('',*,*,#583,.T.);
#271=ORIENTED_EDGE('',*,*,#493,.T.);
#272=ORIENTED_EDGE('',*,*,#511,.F.);
#273=ORIENTED_EDGE('',*,*,#542,.F.);
#274=ORIENTED_EDGE('',*,*,#584,.T.);
#275=ORIENTED_EDGE('',*,*,#585,.T.);
#276=ORIENTED_EDGE('',*,*,#533,.T.);
#277=ORIENTED_EDGE('',*,*,#586,.T.);
#278=ORIENTED_EDGE('',*,*,#498,.T.);
#279=ORIENTED_EDGE('',*,*,#581,.F.);
#280=ORIENTED_EDGE('',*,*,#544,.T.);
#281=ORIENTED_EDGE('',*,*,#587,.T.);
#282=ORIENTED_EDGE('',*,*,#453,.T.);
#283=ORIENTED_EDGE('',*,*,#515,.F.);
#284=ORIENTED_EDGE('',*,*,#534,.F.);
#285=ORIENTED_EDGE('',*,*,#585,.F.);
#286=ORIENTED_EDGE('',*,*,#455,.F.);
#287=ORIENTED_EDGE('',*,*,#587,.F.);
#288=ORIENTED_EDGE('',*,*,#543,.F.);
#289=ORIENTED_EDGE('',*,*,#509,.F.);
#290=ORIENTED_EDGE('',*,*,#457,.F.);
#291=ORIENTED_EDGE('',*,*,#588,.F.);
#292=ORIENTED_EDGE('',*,*,#487,.F.);
#293=ORIENTED_EDGE('',*,*,#574,.F.);
#294=ORIENTED_EDGE('',*,*,#524,.T.);
#295=ORIENTED_EDGE('',*,*,#568,.F.);
#296=ORIENTED_EDGE('',*,*,#576,.T.);
#297=ORIENTED_EDGE('',*,*,#501,.F.);
#298=ORIENTED_EDGE('',*,*,#578,.F.);
#299=ORIENTED_EDGE('',*,*,#499,.F.);
#300=ORIENTED_EDGE('',*,*,#586,.F.);
#301=ORIENTED_EDGE('',*,*,#532,.T.);
#302=ORIENTED_EDGE('',*,*,#572,.T.);
#303=ORIENTED_EDGE('',*,*,#577,.T.);
#304=ORIENTED_EDGE('',*,*,#584,.F.);
#305=ORIENTED_EDGE('',*,*,#541,.F.);
#306=ORIENTED_EDGE('',*,*,#589,.T.);
#307=ORIENTED_EDGE('',*,*,#556,.T.);
#308=ORIENTED_EDGE('',*,*,#590,.F.);
#309=ORIENTED_EDGE('',*,*,#557,.T.);
#310=ORIENTED_EDGE('',*,*,#589,.F.);
#311=ORIENTED_EDGE('',*,*,#540,.F.);
#312=ORIENTED_EDGE('',*,*,#573,.F.);
#313=ORIENTED_EDGE('',*,*,#565,.F.);
#314=ORIENTED_EDGE('',*,*,#591,.F.);
#315=ORIENTED_EDGE('',*,*,#526,.T.);
#316=ORIENTED_EDGE('',*,*,#592,.F.);
#317=ORIENTED_EDGE('',*,*,#527,.F.);
#318=ORIENTED_EDGE('',*,*,#591,.T.);
#319=ORIENTED_EDGE('',*,*,#564,.T.);
#320=ORIENTED_EDGE('',*,*,#522,.F.);
#321=ORIENTED_EDGE('',*,*,#560,.T.);
#322=ORIENTED_EDGE('',*,*,#535,.T.);
#323=ORIENTED_EDGE('',*,*,#549,.F.);
#324=ORIENTED_EDGE('',*,*,#521,.T.);
#325=ORIENTED_EDGE('',*,*,#430,.F.);
#326=ORIENTED_EDGE('',*,*,#516,.F.);
#327=ORIENTED_EDGE('',*,*,#490,.F.);
#328=ORIENTED_EDGE('',*,*,#528,.T.);
#329=ORIENTED_EDGE('',*,*,#592,.T.);
#330=ORIENTED_EDGE('',*,*,#563,.F.);
#331=ORIENTED_EDGE('',*,*,#593,.F.);
#332=ORIENTED_EDGE('',*,*,#594,.T.);
#333=ORIENTED_EDGE('',*,*,#561,.T.);
#334=ORIENTED_EDGE('',*,*,#571,.F.);
#335=ORIENTED_EDGE('',*,*,#530,.F.);
#336=ORIENTED_EDGE('',*,*,#529,.T.);
#337=ORIENTED_EDGE('',*,*,#593,.T.);
#338=ORIENTED_EDGE('',*,*,#562,.F.);
#339=ORIENTED_EDGE('',*,*,#594,.F.);
#340=ORIENTED_EDGE('',*,*,#539,.T.);
#341=ORIENTED_EDGE('',*,*,#595,.T.);
#342=ORIENTED_EDGE('',*,*,#558,.F.);
#343=ORIENTED_EDGE('',*,*,#590,.T.);
#344=ORIENTED_EDGE('',*,*,#596,.T.);
#345=ORIENTED_EDGE('',*,*,#559,.T.);
#346=ORIENTED_EDGE('',*,*,#595,.F.);
#347=ORIENTED_EDGE('',*,*,#538,.F.);
#348=ORIENTED_EDGE('',*,*,#546,.T.);
#349=ORIENTED_EDGE('',*,*,#550,.T.);
#350=ORIENTED_EDGE('',*,*,#596,.F.);
#351=ORIENTED_EDGE('',*,*,#537,.F.);
#352=ORIENTED_EDGE('',*,*,#470,.T.);
#353=ORIENTED_EDGE('',*,*,#449,.F.);
#354=ORIENTED_EDGE('',*,*,#468,.F.);
#355=ORIENTED_EDGE('',*,*,#504,.F.);
#356=ORIENTED_EDGE('',*,*,#472,.T.);
#357=ORIENTED_EDGE('',*,*,#597,.T.);
#358=ORIENTED_EDGE('',*,*,#519,.T.);
#359=ORIENTED_EDGE('',*,*,#598,.F.);
#360=ORIENTED_EDGE('',*,*,#512,.F.);
#361=ORIENTED_EDGE('',*,*,#599,.F.);
#362=ORIENTED_EDGE('',*,*,#486,.T.);
#363=ORIENTED_EDGE('',*,*,#600,.F.);
#364=ORIENTED_EDGE('',*,*,#598,.T.);
#365=ORIENTED_EDGE('',*,*,#518,.F.);
#366=ORIENTED_EDGE('',*,*,#488,.F.);
#367=ORIENTED_EDGE('',*,*,#588,.T.);
#368=ORIENTED_EDGE('',*,*,#523,.F.);
#369=ORIENTED_EDGE('',*,*,#513,.F.);
#370=ORIENTED_EDGE('',*,*,#505,.T.);
#371=ORIENTED_EDGE('',*,*,#599,.T.);
#372=ORIENTED_EDGE('',*,*,#506,.T.);
#373=ORIENTED_EDGE('',*,*,#600,.T.);
#374=ORIENTED_EDGE('',*,*,#507,.F.);
#375=ORIENTED_EDGE('',*,*,#478,.F.);
#376=ORIENTED_EDGE('',*,*,#508,.F.);
#377=ORIENTED_EDGE('',*,*,#480,.F.);
#378=ORIENTED_EDGE('',*,*,#423,.F.);
#379=ORIENTED_EDGE('',*,*,#461,.F.);
#380=ORIENTED_EDGE('',*,*,#601,.T.);
#381=ORIENTED_EDGE('',*,*,#602,.T.);
#382=ORIENTED_EDGE('',*,*,#425,.T.);
#383=ORIENTED_EDGE('',*,*,#603,.F.);
#384=ORIENTED_EDGE('',*,*,#604,.F.);
#385=ORIENTED_EDGE('',*,*,#459,.T.);
#386=ORIENTED_EDGE('',*,*,#424,.F.);
#387=ORIENTED_EDGE('',*,*,#602,.F.);
#388=ORIENTED_EDGE('',*,*,#605,.T.);
#389=ORIENTED_EDGE('',*,*,#603,.T.);
#390=ORIENTED_EDGE('',*,*,#601,.F.);
#391=ORIENTED_EDGE('',*,*,#460,.F.);
#392=ORIENTED_EDGE('',*,*,#604,.T.);
#393=ORIENTED_EDGE('',*,*,#605,.F.);
#394=ORIENTED_EDGE('',*,*,#469,.T.);
#395=ORIENTED_EDGE('',*,*,#462,.T.);
#396=ORIENTED_EDGE('',*,*,#466,.F.);
#397=ORIENTED_EDGE('',*,*,#447,.F.);
#398=ORIENTED_EDGE('',*,*,#456,.F.);
#399=ORIENTED_EDGE('',*,*,#443,.F.);
#400=ORIENTED_EDGE('',*,*,#418,.F.);
#401=ORIENTED_EDGE('',*,*,#432,.T.);
#402=ORIENTED_EDGE('',*,*,#458,.F.);
#403=ORIENTED_EDGE('',*,*,#437,.F.);
#404=ORIENTED_EDGE('',*,*,#473,.F.);
#405=ORIENTED_EDGE('',*,*,#440,.F.);
#406=ORIENTED_EDGE('',*,*,#454,.F.);
#407=ORIENTED_EDGE('',*,*,#451,.F.);
#408=ORIENTED_EDGE('',*,*,#428,.F.);
#409=ORIENTED_EDGE('',*,*,#433,.T.);
#410=ORIENTED_EDGE('',*,*,#476,.T.);
#411=ORIENTED_EDGE('',*,*,#517,.T.);
#412=ORIENTED_EDGE('',*,*,#435,.F.);
#413=ORIENTED_EDGE('',*,*,#420,.T.);
#414=ORIENTED_EDGE('',*,*,#520,.F.);
#415=ORIENTED_EDGE('',*,*,#597,.F.);
#416=EDGE_CURVE('',#606,#607,#735,.T.);
#417=EDGE_CURVE('',#606,#608,#736,.T.);
#418=EDGE_CURVE('',#608,#609,#737,.T.);
#419=EDGE_CURVE('',#607,#609,#738,.T.);
#420=EDGE_CURVE('',#610,#611,#739,.T.);
#421=EDGE_CURVE('',#612,#610,#740,.T.);
#422=EDGE_CURVE('',#613,#612,#741,.T.);
#423=EDGE_CURVE('',#613,#614,#742,.T.);
#424=EDGE_CURVE('',#614,#615,#743,.T.);
#425=EDGE_CURVE('',#616,#615,#744,.T.);
#426=EDGE_CURVE('',#617,#616,#745,.T.);
#427=EDGE_CURVE('',#617,#618,#746,.T.);
#428=EDGE_CURVE('',#618,#619,#747,.T.);
#429=EDGE_CURVE('',#620,#619,#748,.T.);
#430=EDGE_CURVE('',#620,#621,#749,.T.);
#431=EDGE_CURVE('',#621,#611,#750,.T.);
#432=EDGE_CURVE('',#608,#622,#751,.T.);
#433=EDGE_CURVE('',#618,#606,#752,.T.);
#434=EDGE_CURVE('',#617,#622,#753,.T.);
#435=EDGE_CURVE('',#610,#623,#754,.T.);
#436=EDGE_CURVE('',#623,#624,#755,.T.);
#437=EDGE_CURVE('',#624,#625,#756,.T.);
#438=EDGE_CURVE('',#612,#625,#757,.T.);
#439=EDGE_CURVE('',#626,#627,#758,.T.);
#440=EDGE_CURVE('',#627,#628,#759,.F.);
#441=EDGE_CURVE('',#628,#629,#760,.F.);
#442=EDGE_CURVE('',#626,#629,#761,.T.);
#443=EDGE_CURVE('',#609,#630,#762,.T.);
#444=EDGE_CURVE('',#630,#631,#763,.F.);
#445=EDGE_CURVE('',#607,#631,#764,.T.);
#446=EDGE_CURVE('',#632,#633,#765,.T.);
#447=EDGE_CURVE('',#632,#634,#766,.T.);
#448=EDGE_CURVE('',#634,#635,#767,.T.);
#449=EDGE_CURVE('',#635,#636,#768,.T.);
#450=EDGE_CURVE('',#637,#636,#769,.T.);
#451=EDGE_CURVE('',#637,#638,#770,.T.);
#452=EDGE_CURVE('',#639,#638,#771,.T.);
#453=EDGE_CURVE('',#633,#639,#772,.T.);
#454=EDGE_CURVE('',#638,#627,#773,.T.);
#455=EDGE_CURVE('',#626,#639,#774,.T.);
#456=EDGE_CURVE('',#630,#632,#775,.T.);
#457=EDGE_CURVE('',#633,#631,#776,.F.);
#458=EDGE_CURVE('',#625,#622,#777,.T.);
#459=EDGE_CURVE('',#640,#616,#778,.T.);
#460=EDGE_CURVE('',#640,#641,#779,.T.);
#461=EDGE_CURVE('',#641,#613,#780,.T.);
#462=EDGE_CURVE('',#642,#643,#781,.T.);
#463=EDGE_CURVE('',#644,#642,#782,.T.);
#464=EDGE_CURVE('',#644,#645,#783,.T.);
#465=EDGE_CURVE('',#645,#643,#784,.T.);
#466=EDGE_CURVE('',#634,#643,#785,.T.);
#467=EDGE_CURVE('',#646,#645,#786,.T.);
#468=EDGE_CURVE('',#646,#635,#787,.T.);
#469=EDGE_CURVE('',#637,#642,#788,.T.);
#470=EDGE_CURVE('',#647,#636,#789,.T.);
#471=EDGE_CURVE('',#647,#644,#790,.T.);
#472=EDGE_CURVE('',#629,#623,#791,.T.);
#473=EDGE_CURVE('',#628,#624,#792,.T.);
#474=EDGE_CURVE('',#648,#649,#793,.T.);
#475=EDGE_CURVE('',#650,#648,#794,.T.);
#476=EDGE_CURVE('',#606,#650,#795,.T.);
#477=EDGE_CURVE('',#649,#607,#796,.T.);
#478=EDGE_CURVE('',#651,#651,#20,.F.);
#479=EDGE_CURVE('',#652,#652,#21,.T.);
#480=EDGE_CURVE('',#653,#653,#22,.F.);
#481=EDGE_CURVE('',#654,#648,#797,.T.);
#482=EDGE_CURVE('',#655,#649,#798,.T.);
#483=EDGE_CURVE('',#654,#655,#799,.T.);
#484=EDGE_CURVE('',#656,#656,#23,.T.);
#485=EDGE_CURVE('',#657,#657,#24,.T.);
#486=EDGE_CURVE('',#658,#658,#25,.F.);
#487=EDGE_CURVE('',#659,#660,#800,.T.);
#488=EDGE_CURVE('',#660,#661,#801,.T.);
#489=EDGE_CURVE('',#661,#662,#802,.T.);
#490=EDGE_CURVE('',#662,#663,#803,.T.);
#491=EDGE_CURVE('',#654,#663,#804,.T.);
#492=EDGE_CURVE('',#664,#655,#805,.T.);
#493=EDGE_CURVE('',#665,#664,#806,.T.);
#494=EDGE_CURVE('',#666,#665,#807,.T.);
#495=EDGE_CURVE('',#667,#666,#808,.T.);
#496=EDGE_CURVE('',#668,#667,#809,.T.);
#497=EDGE_CURVE('',#669,#668,#810,.T.);
#498=EDGE_CURVE('',#670,#669,#811,.T.);
#499=EDGE_CURVE('',#670,#671,#812,.T.);
#500=EDGE_CURVE('',#671,#672,#813,.T.);
#501=EDGE_CURVE('',#672,#673,#814,.T.);
#502=EDGE_CURVE('',#673,#674,#815,.T.);
#503=EDGE_CURVE('',#674,#659,#816,.T.);
#504=EDGE_CURVE('',#647,#646,#817,.T.);
#505=EDGE_CURVE('',#675,#675,#26,.T.);
#506=EDGE_CURVE('',#676,#676,#27,.T.);
#507=EDGE_CURVE('',#677,#677,#28,.T.);
#508=EDGE_CURVE('',#678,#678,#29,.T.);
#509=EDGE_CURVE('',#631,#679,#818,.T.);
#510=EDGE_CURVE('',#679,#680,#819,.T.);
#511=EDGE_CURVE('',#680,#664,#820,.T.);
#512=EDGE_CURVE('',#629,#681,#821,.F.);
#513=EDGE_CURVE('',#681,#682,#822,.T.);
#514=EDGE_CURVE('',#683,#682,#823,.T.);
#515=EDGE_CURVE('',#683,#626,#824,.T.);
#516=EDGE_CURVE('',#663,#620,#825,.T.);
#517=EDGE_CURVE('',#650,#619,#826,.T.);
#518=EDGE_CURVE('',#661,#684,#827,.T.);
#519=EDGE_CURVE('',#685,#684,#828,.T.);
#520=EDGE_CURVE('',#685,#611,#829,.T.);
#521=EDGE_CURVE('',#662,#621,#830,.T.);
#522=EDGE_CURVE('',#686,#686,#30,.T.);
#523=EDGE_CURVE('',#682,#687,#831,.T.);
#524=EDGE_CURVE('',#688,#687,#832,.T.);
#525=EDGE_CURVE('',#689,#688,#833,.T.);
#526=EDGE_CURVE('',#690,#689,#834,.T.);
#527=EDGE_CURVE('',#690,#691,#835,.T.);
#528=EDGE_CURVE('',#692,#691,#836,.T.);
#529=EDGE_CURVE('',#693,#692,#837,.T.);
#530=EDGE_CURVE('',#693,#694,#838,.T.);
#531=EDGE_CURVE('',#694,#695,#839,.T.);
#532=EDGE_CURVE('',#696,#695,#840,.T.);
#533=EDGE_CURVE('',#697,#696,#841,.T.);
#534=EDGE_CURVE('',#697,#683,#842,.T.);
#535=EDGE_CURVE('',#698,#698,#31,.T.);
#536=EDGE_CURVE('',#699,#700,#843,.T.);
#537=EDGE_CURVE('',#699,#701,#844,.T.);
#538=EDGE_CURVE('',#701,#702,#845,.T.);
#539=EDGE_CURVE('',#703,#702,#846,.T.);
#540=EDGE_CURVE('',#703,#704,#847,.T.);
#541=EDGE_CURVE('',#704,#705,#848,.T.);
#542=EDGE_CURVE('',#705,#680,#849,.T.);
#543=EDGE_CURVE('',#679,#706,#850,.F.);
#544=EDGE_CURVE('',#707,#706,#851,.T.);
#545=EDGE_CURVE('',#707,#700,#852,.T.);
#546=EDGE_CURVE('',#699,#708,#853,.T.);
#547=EDGE_CURVE('',#700,#709,#854,.T.);
#548=EDGE_CURVE('',#708,#709,#855,.T.);
#549=EDGE_CURVE('',#710,#710,#32,.T.);
#550=EDGE_CURVE('',#708,#711,#856,.T.);
#551=EDGE_CURVE('',#709,#712,#857,.T.);
#552=EDGE_CURVE('',#712,#713,#858,.T.);
#553=EDGE_CURVE('',#713,#714,#859,.T.);
#554=EDGE_CURVE('',#714,#715,#860,.T.);
#555=EDGE_CURVE('',#715,#716,#861,.T.);
#556=EDGE_CURVE('',#717,#716,#862,.T.);
#557=EDGE_CURVE('',#718,#717,#863,.T.);
#558=EDGE_CURVE('',#718,#719,#864,.T.);
#559=EDGE_CURVE('',#711,#719,#865,.T.);
#560=EDGE_CURVE('',#720,#720,#33,.F.);
#561=EDGE_CURVE('',#721,#722,#866,.T.);
#562=EDGE_CURVE('',#721,#723,#867,.T.);
#563=EDGE_CURVE('',#723,#724,#868,.T.);
#564=EDGE_CURVE('',#725,#724,#869,.T.);
#565=EDGE_CURVE('',#725,#726,#870,.T.);
#566=EDGE_CURVE('',#727,#726,#871,.T.);
#567=EDGE_CURVE('',#728,#727,#872,.T.);
#568=EDGE_CURVE('',#728,#729,#873,.T.);
#569=EDGE_CURVE('',#730,#729,#874,.T.);
#570=EDGE_CURVE('',#722,#730,#875,.T.);
#571=EDGE_CURVE('',#694,#722,#876,.T.);
#572=EDGE_CURVE('',#695,#730,#877,.T.);
#573=EDGE_CURVE('',#726,#689,#878,.T.);
#574=EDGE_CURVE('',#688,#659,#879,.T.);
#575=EDGE_CURVE('',#727,#674,#880,.T.);
#576=EDGE_CURVE('',#728,#673,#881,.T.);
#577=EDGE_CURVE('',#730,#671,#882,.T.);
#578=EDGE_CURVE('',#729,#672,#883,.T.);
#579=EDGE_CURVE('',#713,#667,#884,.T.);
#580=EDGE_CURVE('',#714,#666,#885,.T.);
#581=EDGE_CURVE('',#707,#669,#886,.T.);
#582=EDGE_CURVE('',#712,#668,#887,.T.);
#583=EDGE_CURVE('',#715,#665,#888,.T.);
#584=EDGE_CURVE('',#705,#716,#889,.T.);
#585=EDGE_CURVE('',#639,#697,#890,.T.);
#586=EDGE_CURVE('',#696,#670,#891,.T.);
#587=EDGE_CURVE('',#706,#633,#892,.T.);
#588=EDGE_CURVE('',#660,#687,#893,.T.);
#589=EDGE_CURVE('',#704,#717,#894,.T.);
#590=EDGE_CURVE('',#718,#703,#895,.T.);
#591=EDGE_CURVE('',#690,#725,#896,.T.);
#592=EDGE_CURVE('',#691,#724,#897,.T.);
#593=EDGE_CURVE('',#692,#723,#898,.T.);
#594=EDGE_CURVE('',#693,#721,#899,.T.);
#595=EDGE_CURVE('',#702,#719,#900,.T.);
#596=EDGE_CURVE('',#701,#711,#901,.T.);
#597=EDGE_CURVE('',#623,#685,#902,.T.);
#598=EDGE_CURVE('',#681,#684,#903,.T.);
#599=EDGE_CURVE('',#731,#731,#34,.T.);
#600=EDGE_CURVE('',#732,#732,#35,.T.);
#601=EDGE_CURVE('',#641,#733,#904,.T.);
#602=EDGE_CURVE('',#733,#614,#905,.T.);
#603=EDGE_CURVE('',#734,#615,#906,.T.);
#604=EDGE_CURVE('',#640,#734,#907,.T.);
#605=EDGE_CURVE('',#733,#734,#908,.T.);
#606=VERTEX_POINT('',#1855);
#607=VERTEX_POINT('',#1856);
#608=VERTEX_POINT('',#1858);
#609=VERTEX_POINT('',#1860);
#610=VERTEX_POINT('',#1864);
#611=VERTEX_POINT('',#1865);
#612=VERTEX_POINT('',#1867);
#613=VERTEX_POINT('',#1869);
#614=VERTEX_POINT('',#1871);
#615=VERTEX_POINT('',#1873);
#616=VERTEX_POINT('',#1875);
#617=VERTEX_POINT('',#1877);
#618=VERTEX_POINT('',#1879);
#619=VERTEX_POINT('',#1881);
#620=VERTEX_POINT('',#1883);
#621=VERTEX_POINT('',#1885);
#622=VERTEX_POINT('',#1889);
#623=VERTEX_POINT('',#1894);
#624=VERTEX_POINT('',#1896);
#625=VERTEX_POINT('',#1898);
#626=VERTEX_POINT('',#1902);
#627=VERTEX_POINT('',#1903);
#628=VERTEX_POINT('',#1905);
#629=VERTEX_POINT('',#1907);
#630=VERTEX_POINT('',#1911);
#631=VERTEX_POINT('',#1913);
#632=VERTEX_POINT('',#1917);
#633=VERTEX_POINT('',#1918);
#634=VERTEX_POINT('',#1920);
#635=VERTEX_POINT('',#1922);
#636=VERTEX_POINT('',#1924);
#637=VERTEX_POINT('',#1926);
#638=VERTEX_POINT('',#1928);
#639=VERTEX_POINT('',#1930);
#640=VERTEX_POINT('',#1941);
#641=VERTEX_POINT('',#1943);
#642=VERTEX_POINT('',#1947);
#643=VERTEX_POINT('',#1948);
#644=VERTEX_POINT('',#1950);
#645=VERTEX_POINT('',#1952);
#646=VERTEX_POINT('',#1957);
#647=VERTEX_POINT('',#1962);
#648=VERTEX_POINT('',#1969);
#649=VERTEX_POINT('',#1970);
#650=VERTEX_POINT('',#1972);
#651=VERTEX_POINT('',#1976);
#652=VERTEX_POINT('',#1978);
#653=VERTEX_POINT('',#1980);
#654=VERTEX_POINT('',#1983);
#655=VERTEX_POINT('',#1985);
#656=VERTEX_POINT('',#1989);
#657=VERTEX_POINT('',#1992);
#658=VERTEX_POINT('',#1994);
#659=VERTEX_POINT('',#1997);
#660=VERTEX_POINT('',#1998);
#661=VERTEX_POINT('',#2000);
#662=VERTEX_POINT('',#2002);
#663=VERTEX_POINT('',#2004);
#664=VERTEX_POINT('',#2007);
#665=VERTEX_POINT('',#2009);
#666=VERTEX_POINT('',#2011);
#667=VERTEX_POINT('',#2013);
#668=VERTEX_POINT('',#2015);
#669=VERTEX_POINT('',#2017);
#670=VERTEX_POINT('',#2019);
#671=VERTEX_POINT('',#2021);
#672=VERTEX_POINT('',#2023);
#673=VERTEX_POINT('',#2025);
#674=VERTEX_POINT('',#2027);
#675=VERTEX_POINT('',#2031);
#676=VERTEX_POINT('',#2033);
#677=VERTEX_POINT('',#2035);
#678=VERTEX_POINT('',#2037);
#679=VERTEX_POINT('',#2040);
#680=VERTEX_POINT('',#2042);
#681=VERTEX_POINT('',#2046);
#682=VERTEX_POINT('',#2048);
#683=VERTEX_POINT('',#2050);
#684=VERTEX_POINT('',#2057);
#685=VERTEX_POINT('',#2059);
#686=VERTEX_POINT('',#2064);
#687=VERTEX_POINT('',#2066);
#688=VERTEX_POINT('',#2068);
#689=VERTEX_POINT('',#2070);
#690=VERTEX_POINT('',#2072);
#691=VERTEX_POINT('',#2074);
#692=VERTEX_POINT('',#2076);
#693=VERTEX_POINT('',#2078);
#694=VERTEX_POINT('',#2080);
#695=VERTEX_POINT('',#2082);
#696=VERTEX_POINT('',#2084);
#697=VERTEX_POINT('',#2086);
#698=VERTEX_POINT('',#2090);
#699=VERTEX_POINT('',#2092);
#700=VERTEX_POINT('',#2093);
#701=VERTEX_POINT('',#2095);
#702=VERTEX_POINT('',#2097);
#703=VERTEX_POINT('',#2099);
#704=VERTEX_POINT('',#2101);
#705=VERTEX_POINT('',#2103);
#706=VERTEX_POINT('',#2106);
#707=VERTEX_POINT('',#2108);
#708=VERTEX_POINT('',#2112);
#709=VERTEX_POINT('',#2114);
#710=VERTEX_POINT('',#2118);
#711=VERTEX_POINT('',#2120);
#712=VERTEX_POINT('',#2122);
#713=VERTEX_POINT('',#2124);
#714=VERTEX_POINT('',#2126);
#715=VERTEX_POINT('',#2128);
#716=VERTEX_POINT('',#2130);
#717=VERTEX_POINT('',#2132);
#718=VERTEX_POINT('',#2134);
#719=VERTEX_POINT('',#2136);
#720=VERTEX_POINT('',#2140);
#721=VERTEX_POINT('',#2142);
#722=VERTEX_POINT('',#2143);
#723=VERTEX_POINT('',#2145);
#724=VERTEX_POINT('',#2147);
#725=VERTEX_POINT('',#2149);
#726=VERTEX_POINT('',#2151);
#727=VERTEX_POINT('',#2153);
#728=VERTEX_POINT('',#2155);
#729=VERTEX_POINT('',#2157);
#730=VERTEX_POINT('',#2159);
#731=VERTEX_POINT('',#2220);
#732=VERTEX_POINT('',#2222);
#733=VERTEX_POINT('',#2230);
#734=VERTEX_POINT('',#2234);
#735=LINE('',#1854,#909);
#736=LINE('',#1857,#910);
#737=LINE('',#1859,#911);
#738=LINE('',#1861,#912);
#739=LINE('',#1863,#913);
#740=LINE('',#1866,#914);
#741=LINE('',#1868,#915);
#742=LINE('',#1870,#916);
#743=LINE('',#1872,#917);
#744=LINE('',#1874,#918);
#745=LINE('',#1876,#919);
#746=LINE('',#1878,#920);
#747=LINE('',#1880,#921);
#748=LINE('',#1882,#922);
#749=LINE('',#1884,#923);
#750=LINE('',#1886,#924);
#751=LINE('',#1888,#925);
#752=LINE('',#1890,#926);
#753=LINE('',#1891,#927);
#754=LINE('',#1893,#928);
#755=LINE('',#1895,#929);
#756=LINE('',#1897,#930);
#757=LINE('',#1899,#931);
#758=LINE('',#1901,#932);
#759=LINE('',#1904,#933);
#760=LINE('',#1906,#934);
#761=LINE('',#1908,#935);
#762=LINE('',#1910,#936);
#763=LINE('',#1912,#937);
#764=LINE('',#1914,#938);
#765=LINE('',#1916,#939);
#766=LINE('',#1919,#940);
#767=LINE('',#1921,#941);
#768=LINE('',#1923,#942);
#769=LINE('',#1925,#943);
#770=LINE('',#1927,#944);
#771=LINE('',#1929,#945);
#772=LINE('',#1931,#946);
#773=LINE('',#1933,#947);
#774=LINE('',#1934,#948);
#775=LINE('',#1936,#949);
#776=LINE('',#1937,#950);
#777=LINE('',#1939,#951);
#778=LINE('',#1940,#952);
#779=LINE('',#1942,#953);
#780=LINE('',#1944,#954);
#781=LINE('',#1946,#955);
#782=LINE('',#1949,#956);
#783=LINE('',#1951,#957);
#784=LINE('',#1953,#958);
#785=LINE('',#1955,#959);
#786=LINE('',#1956,#960);
#787=LINE('',#1958,#961);
#788=LINE('',#1960,#962);
#789=LINE('',#1961,#963);
#790=LINE('',#1963,#964);
#791=LINE('',#1965,#965);
#792=LINE('',#1966,#966);
#793=LINE('',#1968,#967);
#794=LINE('',#1971,#968);
#795=LINE('',#1973,#969);
#796=LINE('',#1974,#970);
#797=LINE('',#1982,#971);
#798=LINE('',#1984,#972);
#799=LINE('',#1986,#973);
#800=LINE('',#1996,#974);
#801=LINE('',#1999,#975);
#802=LINE('',#2001,#976);
#803=LINE('',#2003,#977);
#804=LINE('',#2005,#978);
#805=LINE('',#2006,#979);
#806=LINE('',#2008,#980);
#807=LINE('',#2010,#981);
#808=LINE('',#2012,#982);
#809=LINE('',#2014,#983);
#810=LINE('',#2016,#984);
#811=LINE('',#2018,#985);
#812=LINE('',#2020,#986);
#813=LINE('',#2022,#987);
#814=LINE('',#2024,#988);
#815=LINE('',#2026,#989);
#816=LINE('',#2028,#990);
#817=LINE('',#2029,#991);
#818=LINE('',#2039,#992);
#819=LINE('',#2041,#993);
#820=LINE('',#2043,#994);
#821=LINE('',#2045,#995);
#822=LINE('',#2047,#996);
#823=LINE('',#2049,#997);
#824=LINE('',#2051,#998);
#825=LINE('',#2053,#999);
#826=LINE('',#2054,#1000);
#827=LINE('',#2056,#1001);
#828=LINE('',#2058,#1002);
#829=LINE('',#2060,#1003);
#830=LINE('',#2061,#1004);
#831=LINE('',#2065,#1005);
#832=LINE('',#2067,#1006);
#833=LINE('',#2069,#1007);
#834=LINE('',#2071,#1008);
#835=LINE('',#2073,#1009);
#836=LINE('',#2075,#1010);
#837=LINE('',#2077,#1011);
#838=LINE('',#2079,#1012);
#839=LINE('',#2081,#1013);
#840=LINE('',#2083,#1014);
#841=LINE('',#2085,#1015);
#842=LINE('',#2087,#1016);
#843=LINE('',#2091,#1017);
#844=LINE('',#2094,#1018);
#845=LINE('',#2096,#1019);
#846=LINE('',#2098,#1020);
#847=LINE('',#2100,#1021);
#848=LINE('',#2102,#1022);
#849=LINE('',#2104,#1023);
#850=LINE('',#2105,#1024);
#851=LINE('',#2107,#1025);
#852=LINE('',#2109,#1026);
#853=LINE('',#2111,#1027);
#854=LINE('',#2113,#1028);
#855=LINE('',#2115,#1029);
#856=LINE('',#2119,#1030);
#857=LINE('',#2121,#1031);
#858=LINE('',#2123,#1032);
#859=LINE('',#2125,#1033);
#860=LINE('',#2127,#1034);
#861=LINE('',#2129,#1035);
#862=LINE('',#2131,#1036);
#863=LINE('',#2133,#1037);
#864=LINE('',#2135,#1038);
#865=LINE('',#2137,#1039);
#866=LINE('',#2141,#1040);
#867=LINE('',#2144,#1041);
#868=LINE('',#2146,#1042);
#869=LINE('',#2148,#1043);
#870=LINE('',#2150,#1044);
#871=LINE('',#2152,#1045);
#872=LINE('',#2154,#1046);
#873=LINE('',#2156,#1047);
#874=LINE('',#2158,#1048);
#875=LINE('',#2160,#1049);
#876=LINE('',#2162,#1050);
#877=LINE('',#2163,#1051);
#878=LINE('',#2165,#1052);
#879=LINE('',#2166,#1053);
#880=LINE('',#2167,#1054);
#881=LINE('',#2169,#1055);
#882=LINE('',#2171,#1056);
#883=LINE('',#2172,#1057);
#884=LINE('',#2174,#1058);
#885=LINE('',#2175,#1059);
#886=LINE('',#2177,#1060);
#887=LINE('',#2178,#1061);
#888=LINE('',#2181,#1062);
#889=LINE('',#2183,#1063);
#890=LINE('',#2185,#1064);
#891=LINE('',#2186,#1065);
#892=LINE('',#2187,#1066);
#893=LINE('',#2191,#1067);
#894=LINE('',#2195,#1068);
#895=LINE('',#2197,#1069);
#896=LINE('',#2199,#1070);
#897=LINE('',#2201,#1071);
#898=LINE('',#2206,#1072);
#899=LINE('',#2208,#1073);
#900=LINE('',#2211,#1074);
#901=LINE('',#2213,#1075);
#902=LINE('',#2217,#1076);
#903=LINE('',#2218,#1077);
#904=LINE('',#2229,#1078);
#905=LINE('',#2231,#1079);
#906=LINE('',#2233,#1080);
#907=LINE('',#2235,#1081);
#908=LINE('',#2237,#1082);
#909=VECTOR('',#1508,1.);
#910=VECTOR('',#1509,1.);
#911=VECTOR('',#1510,1.);
#912=VECTOR('',#1511,1.);
#913=VECTOR('',#1514,1.);
#914=VECTOR('',#1515,1.);
#915=VECTOR('',#1516,1.);
#916=VECTOR('',#1517,1.);
#917=VECTOR('',#1518,1.);
#918=VECTOR('',#1519,1.);
#919=VECTOR('',#1520,1.);
#920=VECTOR('',#1521,1.);
#921=VECTOR('',#1522,1.);
#922=VECTOR('',#1523,1.);
#923=VECTOR('',#1524,1.);
#924=VECTOR('',#1525,1.);
#925=VECTOR('',#1528,1.);
#926=VECTOR('',#1529,1.);
#927=VECTOR('',#1530,1.);
#928=VECTOR('',#1533,1.);
#929=VECTOR('',#1534,1.);
#930=VECTOR('',#1535,1.);
#931=VECTOR('',#1536,1.);
#932=VECTOR('',#1539,1.);
#933=VECTOR('',#1540,1.);
#934=VECTOR('',#1541,1.);
#935=VECTOR('',#1542,1.);
#936=VECTOR('',#1545,1.);
#937=VECTOR('',#1546,1.);
#938=VECTOR('',#1547,1.);
#939=VECTOR('',#1550,1.);
#940=VECTOR('',#1551,1.);
#941=VECTOR('',#1552,1.);
#942=VECTOR('',#1553,1.);
#943=VECTOR('',#1554,1.);
#944=VECTOR('',#1555,1.);
#945=VECTOR('',#1556,1.);
#946=VECTOR('',#1557,1.);
#947=VECTOR('',#1560,1.);
#948=VECTOR('',#1561,1.);
#949=VECTOR('',#1564,1.);
#950=VECTOR('',#1565,1.);
#951=VECTOR('',#1568,1.);
#952=VECTOR('',#1569,1.);
#953=VECTOR('',#1570,1.);
#954=VECTOR('',#1571,1.);
#955=VECTOR('',#1574,1.);
#956=VECTOR('',#1575,1.);
#957=VECTOR('',#1576,1.);
#958=VECTOR('',#1577,1.);
#959=VECTOR('',#1580,1.);
#960=VECTOR('',#1581,1.);
#961=VECTOR('',#1582,1.);
#962=VECTOR('',#1585,1.);
#963=VECTOR('',#1586,1.);
#964=VECTOR('',#1587,1.);
#965=VECTOR('',#1590,1.);
#966=VECTOR('',#1591,1.);
#967=VECTOR('',#1594,1.);
#968=VECTOR('',#1595,1.);
#969=VECTOR('',#1596,1.);
#970=VECTOR('',#1597,1.);
#971=VECTOR('',#1606,1.);
#972=VECTOR('',#1607,1.);
#973=VECTOR('',#1608,1.);
#974=VECTOR('',#1621,1.);
#975=VECTOR('',#1622,1.);
#976=VECTOR('',#1623,1.);
#977=VECTOR('',#1624,1.);
#978=VECTOR('',#1625,1.);
#979=VECTOR('',#1626,1.);
#980=VECTOR('',#1627,1.);
#981=VECTOR('',#1628,1.);
#982=VECTOR('',#1629,1.);
#983=VECTOR('',#1630,1.);
#984=VECTOR('',#1631,1.);
#985=VECTOR('',#1632,1.);
#986=VECTOR('',#1633,1.);
#987=VECTOR('',#1634,1.);
#988=VECTOR('',#1635,1.);
#989=VECTOR('',#1636,1.);
#990=VECTOR('',#1637,1.);
#991=VECTOR('',#1638,1.);
#992=VECTOR('',#1649,1.);
#993=VECTOR('',#1650,1.);
#994=VECTOR('',#1651,1.);
#995=VECTOR('',#1654,1.);
#996=VECTOR('',#1655,1.);
#997=VECTOR('',#1656,1.);
#998=VECTOR('',#1657,1.);
#999=VECTOR('',#1660,1.);
#1000=VECTOR('',#1661,1.);
#1001=VECTOR('',#1664,1.);
#1002=VECTOR('',#1665,1.);
#1003=VECTOR('',#1666,1.);
#1004=VECTOR('',#1667,1.);
#1005=VECTOR('',#1672,1.);
#1006=VECTOR('',#1673,1.);
#1007=VECTOR('',#1674,1.);
#1008=VECTOR('',#1675,1.);
#1009=VECTOR('',#1676,1.);
#1010=VECTOR('',#1677,1.);
#1011=VECTOR('',#1678,1.);
#1012=VECTOR('',#1679,1.);
#1013=VECTOR('',#1680,1.);
#1014=VECTOR('',#1681,1.);
#1015=VECTOR('',#1682,1.);
#1016=VECTOR('',#1683,1.);
#1017=VECTOR('',#1688,1.);
#1018=VECTOR('',#1689,1.);
#1019=VECTOR('',#1690,1.);
#1020=VECTOR('',#1691,1.);
#1021=VECTOR('',#1692,1.);
#1022=VECTOR('',#1693,1.);
#1023=VECTOR('',#1694,1.);
#1024=VECTOR('',#1695,1.);
#1025=VECTOR('',#1696,1.);
#1026=VECTOR('',#1697,1.);
#1027=VECTOR('',#1700,1.);
#1028=VECTOR('',#1701,1.);
#1029=VECTOR('',#1702,1.);
#1030=VECTOR('',#1707,1.);
#1031=VECTOR('',#1708,1.);
#1032=VECTOR('',#1709,1.);
#1033=VECTOR('',#1710,1.);
#1034=VECTOR('',#1711,1.);
#1035=VECTOR('',#1712,1.);
#1036=VECTOR('',#1713,1.);
#1037=VECTOR('',#1714,1.);
#1038=VECTOR('',#1715,1.);
#1039=VECTOR('',#1716,1.);
#1040=VECTOR('',#1721,1.);
#1041=VECTOR('',#1722,1.);
#1042=VECTOR('',#1723,1.);
#1043=VECTOR('',#1724,1.);
#1044=VECTOR('',#1725,1.);
#1045=VECTOR('',#1726,1.);
#1046=VECTOR('',#1727,1.);
#1047=VECTOR('',#1728,1.);
#1048=VECTOR('',#1729,1.);
#1049=VECTOR('',#1730,1.);
#1050=VECTOR('',#1733,1.);
#1051=VECTOR('',#1734,1.);
#1052=VECTOR('',#1737,1.);
#1053=VECTOR('',#1738,1.);
#1054=VECTOR('',#1739,1.);
#1055=VECTOR('',#1742,1.);
#1056=VECTOR('',#1745,1.);
#1057=VECTOR('',#1746,1.);
#1058=VECTOR('',#1749,1.);
#1059=VECTOR('',#1750,1.);
#1060=VECTOR('',#1753,1.);
#1061=VECTOR('',#1754,1.);
#1062=VECTOR('',#1759,1.);
#1063=VECTOR('',#1762,1.);
#1064=VECTOR('',#1765,1.);
#1065=VECTOR('',#1766,1.);
#1066=VECTOR('',#1767,1.);
#1067=VECTOR('',#1774,1.);
#1068=VECTOR('',#1781,1.);
#1069=VECTOR('',#1784,1.);
#1070=VECTOR('',#1787,1.);
#1071=VECTOR('',#1790,1.);
#1072=VECTOR('',#1799,1.);
#1073=VECTOR('',#1802,1.);
#1074=VECTOR('',#1807,1.);
#1075=VECTOR('',#1810,1.);
#1076=VECTOR('',#1817,1.);
#1077=VECTOR('',#1818,1.);
#1078=VECTOR('',#1835,1.);
#1079=VECTOR('',#1836,1.);
#1080=VECTOR('',#1839,1.);
#1081=VECTOR('',#1840,1.);
#1082=VECTOR('',#1843,1.);
#1083=EDGE_LOOP('',(#36,#37,#38,#39));
#1084=EDGE_LOOP('',(#40,#41,#42,#43,#44,#45,#46,#47,#48,#49,#50,#51));
#1085=EDGE_LOOP('',(#52,#53,#54,#55,#56));
#1086=EDGE_LOOP('',(#57,#58,#59,#60,#61));
#1087=EDGE_LOOP('',(#62,#63,#64,#65));
#1088=EDGE_LOOP('',(#66,#67,#68,#69));
#1089=EDGE_LOOP('',(#70,#71,#72,#73,#74,#75,#76,#77));
#1090=EDGE_LOOP('',(#78,#79,#80,#81));
#1091=EDGE_LOOP('',(#82,#83,#84,#85));
#1092=EDGE_LOOP('',(#86,#87,#88,#89,#90,#91,#92,#93));
#1093=EDGE_LOOP('',(#94,#95,#96,#97));
#1094=EDGE_LOOP('',(#98,#99,#100,#101,#102));
#1095=EDGE_LOOP('',(#103,#104,#105,#106,#107));
#1096=EDGE_LOOP('',(#108,#109,#110,#111));
#1097=EDGE_LOOP('',(#112,#113,#114,#115,#116));
#1098=EDGE_LOOP('',(#117));
#1099=EDGE_LOOP('',(#118));
#1100=EDGE_LOOP('',(#119));
#1101=EDGE_LOOP('',(#120,#121,#122,#123));
#1102=EDGE_LOOP('',(#124));
#1103=EDGE_LOOP('',(#125));
#1104=EDGE_LOOP('',(#126));
#1105=EDGE_LOOP('',(#127));
#1106=EDGE_LOOP('',(#128));
#1107=EDGE_LOOP('',(#129));
#1108=EDGE_LOOP('',(#130,#131,#132,#133,#134,#135,#136,#137,#138,#139,#140,
#141,#142,#143,#144,#145,#146,#147));
#1109=EDGE_LOOP('',(#148,#149,#150,#151));
#1110=EDGE_LOOP('',(#152));
#1111=EDGE_LOOP('',(#153));
#1112=EDGE_LOOP('',(#154));
#1113=EDGE_LOOP('',(#155));
#1114=EDGE_LOOP('',(#156,#157,#158,#159,#160,#161,#162));
#1115=EDGE_LOOP('',(#163,#164,#165,#166,#167));
#1116=EDGE_LOOP('',(#168,#169,#170,#171,#172,#173));
#1117=EDGE_LOOP('',(#174,#175,#176,#177,#178,#179));
#1118=EDGE_LOOP('',(#180));
#1119=EDGE_LOOP('',(#181,#182,#183,#184,#185,#186,#187,#188,#189,#190,#191,
#192,#193));
#1120=EDGE_LOOP('',(#194));
#1121=EDGE_LOOP('',(#195,#196,#197,#198,#199,#200,#201,#202,#203,#204,#205));
#1122=EDGE_LOOP('',(#206,#207,#208,#209));
#1123=EDGE_LOOP('',(#210));
#1124=EDGE_LOOP('',(#211,#212,#213,#214,#215,#216,#217,#218,#219,#220,#221));
#1125=EDGE_LOOP('',(#222));
#1126=EDGE_LOOP('',(#223,#224,#225,#226,#227,#228,#229,#230,#231,#232));
#1127=EDGE_LOOP('',(#233,#234,#235,#236));
#1128=EDGE_LOOP('',(#237,#238,#239,#240,#241,#242));
#1129=EDGE_LOOP('',(#243,#244,#245,#246));
#1130=EDGE_LOOP('',(#247,#248,#249,#250));
#1131=EDGE_LOOP('',(#251,#252,#253,#254));
#1132=EDGE_LOOP('',(#255,#256,#257,#258,#259,#260));
#1133=EDGE_LOOP('',(#261,#262,#263,#264));
#1134=EDGE_LOOP('',(#265,#266,#267,#268));
#1135=EDGE_LOOP('',(#269,#270,#271,#272,#273,#274));
#1136=EDGE_LOOP('',(#275,#276,#277,#278,#279,#280,#281,#282));
#1137=EDGE_LOOP('',(#283,#284,#285,#286));
#1138=EDGE_LOOP('',(#287,#288,#289,#290));
#1139=EDGE_LOOP('',(#291,#292,#293,#294));
#1140=EDGE_LOOP('',(#295,#296,#297,#298));
#1141=EDGE_LOOP('',(#299,#300,#301,#302,#303));
#1142=EDGE_LOOP('',(#304,#305,#306,#307));
#1143=EDGE_LOOP('',(#308,#309,#310,#311));
#1144=EDGE_LOOP('',(#312,#313,#314,#315));
#1145=EDGE_LOOP('',(#316,#317,#318,#319));
#1146=EDGE_LOOP('',(#320));
#1147=EDGE_LOOP('',(#321));
#1148=EDGE_LOOP('',(#322));
#1149=EDGE_LOOP('',(#323));
#1150=EDGE_LOOP('',(#324,#325,#326,#327));
#1151=EDGE_LOOP('',(#328,#329,#330,#331));
#1152=EDGE_LOOP('',(#332,#333,#334,#335));
#1153=EDGE_LOOP('',(#336,#337,#338,#339));
#1154=EDGE_LOOP('',(#340,#341,#342,#343));
#1155=EDGE_LOOP('',(#344,#345,#346,#347));
#1156=EDGE_LOOP('',(#348,#349,#350,#351));
#1157=EDGE_LOOP('',(#352,#353,#354,#355));
#1158=EDGE_LOOP('',(#356,#357,#358,#359,#360));
#1159=EDGE_LOOP('',(#361));
#1160=EDGE_LOOP('',(#362));
#1161=EDGE_LOOP('',(#363));
#1162=EDGE_LOOP('',(#364,#365,#366,#367,#368,#369));
#1163=EDGE_LOOP('',(#370));
#1164=EDGE_LOOP('',(#371));
#1165=EDGE_LOOP('',(#372));
#1166=EDGE_LOOP('',(#373));
#1167=EDGE_LOOP('',(#374));
#1168=EDGE_LOOP('',(#375));
#1169=EDGE_LOOP('',(#376));
#1170=EDGE_LOOP('',(#377));
#1171=EDGE_LOOP('',(#378,#379,#380,#381));
#1172=EDGE_LOOP('',(#382,#383,#384,#385));
#1173=EDGE_LOOP('',(#386,#387,#388,#389));
#1174=EDGE_LOOP('',(#390,#391,#392,#393));
#1175=EDGE_LOOP('',(#394,#395,#396,#397,#398,#399,#400,#401,#402,#403,#404,
#405,#406,#407));
#1176=EDGE_LOOP('',(#408,#409,#410,#411));
#1177=EDGE_LOOP('',(#412,#413,#414,#415));
#1178=FACE_BOUND('',#1083,.T.);
#1179=FACE_BOUND('',#1084,.T.);
#1180=FACE_BOUND('',#1085,.T.);
#1181=FACE_BOUND('',#1086,.T.);
#1182=FACE_BOUND('',#1087,.T.);
#1183=FACE_BOUND('',#1088,.T.);
#1184=FACE_BOUND('',#1089,.T.);
#1185=FACE_BOUND('',#1090,.T.);
#1186=FACE_BOUND('',#1091,.T.);
#1187=FACE_BOUND('',#1092,.T.);
#1188=FACE_BOUND('',#1093,.T.);
#1189=FACE_BOUND('',#1094,.T.);
#1190=FACE_BOUND('',#1095,.T.);
#1191=FACE_BOUND('',#1096,.T.);
#1192=FACE_BOUND('',#1097,.T.);
#1193=FACE_BOUND('',#1098,.T.);
#1194=FACE_BOUND('',#1099,.T.);
#1195=FACE_BOUND('',#1100,.T.);
#1196=FACE_BOUND('',#1101,.T.);
#1197=FACE_BOUND('',#1102,.T.);
#1198=FACE_BOUND('',#1103,.T.);
#1199=FACE_BOUND('',#1104,.T.);
#1200=FACE_BOUND('',#1105,.T.);
#1201=FACE_BOUND('',#1106,.T.);
#1202=FACE_BOUND('',#1107,.T.);
#1203=FACE_BOUND('',#1108,.T.);
#1204=FACE_BOUND('',#1109,.T.);
#1205=FACE_BOUND('',#1110,.T.);
#1206=FACE_BOUND('',#1111,.T.);
#1207=FACE_BOUND('',#1112,.T.);
#1208=FACE_BOUND('',#1113,.T.);
#1209=FACE_BOUND('',#1114,.T.);
#1210=FACE_BOUND('',#1115,.T.);
#1211=FACE_BOUND('',#1116,.T.);
#1212=FACE_BOUND('',#1117,.T.);
#1213=FACE_BOUND('',#1118,.T.);
#1214=FACE_BOUND('',#1119,.T.);
#1215=FACE_BOUND('',#1120,.T.);
#1216=FACE_BOUND('',#1121,.T.);
#1217=FACE_BOUND('',#1122,.T.);
#1218=FACE_BOUND('',#1123,.T.);
#1219=FACE_BOUND('',#1124,.T.);
#1220=FACE_BOUND('',#1125,.T.);
#1221=FACE_BOUND('',#1126,.T.);
#1222=FACE_BOUND('',#1127,.T.);
#1223=FACE_BOUND('',#1128,.T.);
#1224=FACE_BOUND('',#1129,.T.);
#1225=FACE_BOUND('',#1130,.T.);
#1226=FACE_BOUND('',#1131,.T.);
#1227=FACE_BOUND('',#1132,.T.);
#1228=FACE_BOUND('',#1133,.T.);
#1229=FACE_BOUND('',#1134,.T.);
#1230=FACE_BOUND('',#1135,.T.);
#1231=FACE_BOUND('',#1136,.T.);
#1232=FACE_BOUND('',#1137,.T.);
#1233=FACE_BOUND('',#1138,.T.);
#1234=FACE_BOUND('',#1139,.T.);
#1235=FACE_BOUND('',#1140,.T.);
#1236=FACE_BOUND('',#1141,.T.);
#1237=FACE_BOUND('',#1142,.T.);
#1238=FACE_BOUND('',#1143,.T.);
#1239=FACE_BOUND('',#1144,.T.);
#1240=FACE_BOUND('',#1145,.T.);
#1241=FACE_BOUND('',#1146,.T.);
#1242=FACE_BOUND('',#1147,.T.);
#1243=FACE_BOUND('',#1148,.T.);
#1244=FACE_BOUND('',#1149,.T.);
#1245=FACE_BOUND('',#1150,.T.);
#1246=FACE_BOUND('',#1151,.T.);
#1247=FACE_BOUND('',#1152,.T.);
#1248=FACE_BOUND('',#1153,.T.);
#1249=FACE_BOUND('',#1154,.T.);
#1250=FACE_BOUND('',#1155,.T.);
#1251=FACE_BOUND('',#1156,.T.);
#1252=FACE_BOUND('',#1157,.T.);
#1253=FACE_BOUND('',#1158,.T.);
#1254=FACE_BOUND('',#1159,.T.);
#1255=FACE_BOUND('',#1160,.T.);
#1256=FACE_BOUND('',#1161,.T.);
#1257=FACE_BOUND('',#1162,.T.);
#1258=FACE_BOUND('',#1163,.T.);
#1259=FACE_BOUND('',#1164,.T.);
#1260=FACE_BOUND('',#1165,.T.);
#1261=FACE_BOUND('',#1166,.T.);
#1262=FACE_BOUND('',#1167,.T.);
#1263=FACE_BOUND('',#1168,.T.);
#1264=FACE_BOUND('',#1169,.T.);
#1265=FACE_BOUND('',#1170,.T.);
#1266=FACE_BOUND('',#1171,.T.);
#1267=FACE_BOUND('',#1172,.T.);
#1268=FACE_BOUND('',#1173,.T.);
#1269=FACE_BOUND('',#1174,.T.);
#1270=FACE_BOUND('',#1175,.T.);
#1271=FACE_BOUND('',#1176,.T.);
#1272=FACE_BOUND('',#1177,.T.);
#1273=PLANE('',#1418);
#1274=PLANE('',#1419);
#1275=PLANE('',#1420);
#1276=PLANE('',#1421);
#1277=PLANE('',#1422);
#1278=PLANE('',#1423);
#1279=PLANE('',#1424);
#1280=PLANE('',#1425);
#1281=PLANE('',#1426);
#1282=PLANE('',#1427);
#1283=PLANE('',#1428);
#1284=PLANE('',#1429);
#1285=PLANE('',#1430);
#1286=PLANE('',#1431);
#1287=PLANE('',#1432);
#1288=PLANE('',#1436);
#1289=PLANE('',#1442);
#1290=PLANE('',#1447);
#1291=PLANE('',#1448);
#1292=PLANE('',#1449);
#1293=PLANE('',#1450);
#1294=PLANE('',#1451);
#1295=PLANE('',#1453);
#1296=PLANE('',#1455);
#1297=PLANE('',#1456);
#1298=PLANE('',#1458);
#1299=PLANE('',#1460);
#1300=PLANE('',#1461);
#1301=PLANE('',#1462);
#1302=PLANE('',#1463);
#1303=PLANE('',#1464);
#1304=PLANE('',#1465);
#1305=PLANE('',#1466);
#1306=PLANE('',#1467);
#1307=PLANE('',#1468);
#1308=PLANE('',#1469);
#1309=PLANE('',#1470);
#1310=PLANE('',#1471);
#1311=PLANE('',#1472);
#1312=PLANE('',#1473);
#1313=PLANE('',#1474);
#1314=PLANE('',#1475);
#1315=PLANE('',#1476);
#1316=PLANE('',#1477);
#1317=PLANE('',#1478);
#1318=PLANE('',#1481);
#1319=PLANE('',#1482);
#1320=PLANE('',#1483);
#1321=PLANE('',#1484);
#1322=PLANE('',#1485);
#1323=PLANE('',#1486);
#1324=PLANE('',#1487);
#1325=PLANE('',#1488);
#1326=PLANE('',#1489);
#1327=PLANE('',#1492);
#1328=PLANE('',#1497);
#1329=PLANE('',#1498);
#1330=PLANE('',#1499);
#1331=PLANE('',#1500);
#1332=PLANE('',#1501);
#1333=PLANE('',#1502);
#1334=PLANE('',#1503);
#1335=ADVANCED_FACE('',(#1178),#1273,.T.);
#1336=ADVANCED_FACE('',(#1179),#1274,.T.);
#1337=ADVANCED_FACE('',(#1180),#1275,.F.);
#1338=ADVANCED_FACE('',(#1181),#1276,.T.);
#1339=ADVANCED_FACE('',(#1182),#1277,.F.);
#1340=ADVANCED_FACE('',(#1183),#1278,.T.);
#1341=ADVANCED_FACE('',(#1184),#1279,.T.);
#1342=ADVANCED_FACE('',(#1185),#1280,.T.);
#1343=ADVANCED_FACE('',(#1186),#1281,.T.);
#1344=ADVANCED_FACE('',(#1187),#1282,.T.);
#1345=ADVANCED_FACE('',(#1188),#1283,.F.);
#1346=ADVANCED_FACE('',(#1189),#1284,.T.);
#1347=ADVANCED_FACE('',(#1190),#1285,.F.);
#1348=ADVANCED_FACE('',(#1191),#1286,.T.);
#1349=ADVANCED_FACE('',(#1192,#1193,#1194,#1195),#1287,.T.);
#1350=ADVANCED_FACE('',(#1196),#1288,.T.);
#1351=ADVANCED_FACE('',(#1197,#1198),#12,.F.);
#1352=ADVANCED_FACE('',(#1199,#1200),#13,.F.);
#1353=ADVANCED_FACE('',(#1201,#1202,#1203,#1204,#1205,#1206,#1207,#1208),
#1289,.T.);
#1354=ADVANCED_FACE('',(#1209),#1290,.T.);
#1355=ADVANCED_FACE('',(#1210),#1291,.F.);
#1356=ADVANCED_FACE('',(#1211),#1292,.F.);
#1357=ADVANCED_FACE('',(#1212),#1293,.T.);
#1358=ADVANCED_FACE('',(#1213,#1214),#1294,.T.);
#1359=ADVANCED_FACE('',(#1215,#1216),#1295,.T.);
#1360=ADVANCED_FACE('',(#1217),#1296,.F.);
#1361=ADVANCED_FACE('',(#1218,#1219),#1297,.F.);
#1362=ADVANCED_FACE('',(#1220,#1221),#1298,.F.);
#1363=ADVANCED_FACE('',(#1222),#1299,.T.);
#1364=ADVANCED_FACE('',(#1223),#1300,.T.);
#1365=ADVANCED_FACE('',(#1224),#1301,.T.);
#1366=ADVANCED_FACE('',(#1225),#1302,.T.);
#1367=ADVANCED_FACE('',(#1226),#1303,.F.);
#1368=ADVANCED_FACE('',(#1227),#1304,.F.);
#1369=ADVANCED_FACE('',(#1228),#1305,.F.);
#1370=ADVANCED_FACE('',(#1229),#1306,.F.);
#1371=ADVANCED_FACE('',(#1230),#1307,.F.);
#1372=ADVANCED_FACE('',(#1231),#1308,.T.);
#1373=ADVANCED_FACE('',(#1232),#1309,.T.);
#1374=ADVANCED_FACE('',(#1233),#1310,.F.);
#1375=ADVANCED_FACE('',(#1234),#1311,.T.);
#1376=ADVANCED_FACE('',(#1235),#1312,.T.);
#1377=ADVANCED_FACE('',(#1236),#1313,.T.);
#1378=ADVANCED_FACE('',(#1237),#1314,.T.);
#1379=ADVANCED_FACE('',(#1238),#1315,.T.);
#1380=ADVANCED_FACE('',(#1239),#1316,.F.);
#1381=ADVANCED_FACE('',(#1240),#1317,.T.);
#1382=ADVANCED_FACE('',(#1241,#1242),#14,.F.);
#1383=ADVANCED_FACE('',(#1243,#1244),#15,.F.);
#1384=ADVANCED_FACE('',(#1245),#1318,.T.);
#1385=ADVANCED_FACE('',(#1246),#1319,.F.);
#1386=ADVANCED_FACE('',(#1247),#1320,.T.);
#1387=ADVANCED_FACE('',(#1248),#1321,.F.);
#1388=ADVANCED_FACE('',(#1249),#1322,.F.);
#1389=ADVANCED_FACE('',(#1250),#1323,.T.);
#1390=ADVANCED_FACE('',(#1251),#1324,.T.);
#1391=ADVANCED_FACE('',(#1252),#1325,.T.);
#1392=ADVANCED_FACE('',(#1253,#1254,#1255,#1256),#1326,.T.);
#1393=ADVANCED_FACE('',(#1257),#1327,.F.);
#1394=ADVANCED_FACE('',(#1258,#1259),#16,.F.);
#1395=ADVANCED_FACE('',(#1260,#1261),#17,.F.);
#1396=ADVANCED_FACE('',(#1262,#1263),#18,.F.);
#1397=ADVANCED_FACE('',(#1264,#1265),#19,.F.);
#1398=ADVANCED_FACE('',(#1266),#1328,.T.);
#1399=ADVANCED_FACE('',(#1267),#1329,.F.);
#1400=ADVANCED_FACE('',(#1268),#1330,.T.);
#1401=ADVANCED_FACE('',(#1269),#1331,.T.);
#1402=ADVANCED_FACE('',(#1270),#1332,.T.);
#1403=ADVANCED_FACE('',(#1271),#1333,.T.);
#1404=ADVANCED_FACE('',(#1272),#1334,.F.);
#1405=CLOSED_SHELL('',(#1335,#1336,#1337,#1338,#1339,#1340,#1341,#1342,
#1343,#1344,#1345,#1346,#1347,#1348,#1349,#1350,#1351,#1352,#1353,#1354,
#1355,#1356,#1357,#1358,#1359,#1360,#1361,#1362,#1363,#1364,#1365,#1366,
#1367,#1368,#1369,#1370,#1371,#1372,#1373,#1374,#1375,#1376,#1377,#1378,
#1379,#1380,#1381,#1382,#1383,#1384,#1385,#1386,#1387,#1388,#1389,#1390,
#1391,#1392,#1393,#1394,#1395,#1396,#1397,#1398,#1399,#1400,#1401,#1402,
#1403,#1404));
#1406=STYLED_ITEM('',(#1407),#1414);
#1407=PRESENTATION_STYLE_ASSIGNMENT((#1408));
#1408=SURFACE_STYLE_USAGE(.BOTH.,#1409);
#1409=SURFACE_SIDE_STYLE('',(#1410));
#1410=SURFACE_STYLE_FILL_AREA(#1411);
#1411=FILL_AREA_STYLE('',(#1412));
#1412=FILL_AREA_STYLE_COLOUR('',#1413);
#1413=COLOUR_RGB('',0.262745098039216,0.282352941176471,0.301960784313725);
#1414=MANIFOLD_SOLID_BREP('Part 1',#1405);
#1415=SHAPE_DEFINITION_REPRESENTATION(#2248,#1416);
#1416=SHAPE_REPRESENTATION('Part 1',(#1417),#2243);
#1417=AXIS2_PLACEMENT_3D('',#1852,#1504,#1505);
#1418=AXIS2_PLACEMENT_3D('',#1853,#1506,#1507);
#1419=AXIS2_PLACEMENT_3D('',#1862,#1512,#1513);
#1420=AXIS2_PLACEMENT_3D('',#1887,#1526,#1527);
#1421=AXIS2_PLACEMENT_3D('',#1892,#1531,#1532);
#1422=AXIS2_PLACEMENT_3D('',#1900,#1537,#1538);
#1423=AXIS2_PLACEMENT_3D('',#1909,#1543,#1544);
#1424=AXIS2_PLACEMENT_3D('',#1915,#1548,#1549);
#1425=AXIS2_PLACEMENT_3D('',#1932,#1558,#1559);
#1426=AXIS2_PLACEMENT_3D('',#1935,#1562,#1563);
#1427=AXIS2_PLACEMENT_3D('',#1938,#1566,#1567);
#1428=AXIS2_PLACEMENT_3D('',#1945,#1572,#1573);
#1429=AXIS2_PLACEMENT_3D('',#1954,#1578,#1579);
#1430=AXIS2_PLACEMENT_3D('',#1959,#1583,#1584);
#1431=AXIS2_PLACEMENT_3D('',#1964,#1588,#1589);
#1432=AXIS2_PLACEMENT_3D('',#1967,#1592,#1593);
#1433=AXIS2_PLACEMENT_3D('',#1975,#1598,#1599);
#1434=AXIS2_PLACEMENT_3D('',#1977,#1600,#1601);
#1435=AXIS2_PLACEMENT_3D('',#1979,#1602,#1603);
#1436=AXIS2_PLACEMENT_3D('',#1981,#1604,#1605);
#1437=AXIS2_PLACEMENT_3D('',#1987,#1609,#1610);
#1438=AXIS2_PLACEMENT_3D('',#1988,#1611,#1612);
#1439=AXIS2_PLACEMENT_3D('',#1990,#1613,#1614);
#1440=AXIS2_PLACEMENT_3D('',#1991,#1615,#1616);
#1441=AXIS2_PLACEMENT_3D('',#1993,#1617,#1618);
#1442=AXIS2_PLACEMENT_3D('',#1995,#1619,#1620);
#1443=AXIS2_PLACEMENT_3D('',#2030,#1639,#1640);
#1444=AXIS2_PLACEMENT_3D('',#2032,#1641,#1642);
#1445=AXIS2_PLACEMENT_3D('',#2034,#1643,#1644);
#1446=AXIS2_PLACEMENT_3D('',#2036,#1645,#1646);
#1447=AXIS2_PLACEMENT_3D('',#2038,#1647,#1648);
#1448=AXIS2_PLACEMENT_3D('',#2044,#1652,#1653);
#1449=AXIS2_PLACEMENT_3D('',#2052,#1658,#1659);
#1450=AXIS2_PLACEMENT_3D('',#2055,#1662,#1663);
#1451=AXIS2_PLACEMENT_3D('',#2062,#1668,#1669);
#1452=AXIS2_PLACEMENT_3D('',#2063,#1670,#1671);
#1453=AXIS2_PLACEMENT_3D('',#2088,#1684,#1685);
#1454=AXIS2_PLACEMENT_3D('',#2089,#1686,#1687);
#1455=AXIS2_PLACEMENT_3D('',#2110,#1698,#1699);
#1456=AXIS2_PLACEMENT_3D('',#2116,#1703,#1704);
#1457=AXIS2_PLACEMENT_3D('',#2117,#1705,#1706);
#1458=AXIS2_PLACEMENT_3D('',#2138,#1717,#1718);
#1459=AXIS2_PLACEMENT_3D('',#2139,#1719,#1720);
#1460=AXIS2_PLACEMENT_3D('',#2161,#1731,#1732);
#1461=AXIS2_PLACEMENT_3D('',#2164,#1735,#1736);
#1462=AXIS2_PLACEMENT_3D('',#2168,#1740,#1741);
#1463=AXIS2_PLACEMENT_3D('',#2170,#1743,#1744);
#1464=AXIS2_PLACEMENT_3D('',#2173,#1747,#1748);
#1465=AXIS2_PLACEMENT_3D('',#2176,#1751,#1752);
#1466=AXIS2_PLACEMENT_3D('',#2179,#1755,#1756);
#1467=AXIS2_PLACEMENT_3D('',#2180,#1757,#1758);
#1468=AXIS2_PLACEMENT_3D('',#2182,#1760,#1761);
#1469=AXIS2_PLACEMENT_3D('',#2184,#1763,#1764);
#1470=AXIS2_PLACEMENT_3D('',#2188,#1768,#1769);
#1471=AXIS2_PLACEMENT_3D('',#2189,#1770,#1771);
#1472=AXIS2_PLACEMENT_3D('',#2190,#1772,#1773);
#1473=AXIS2_PLACEMENT_3D('',#2192,#1775,#1776);
#1474=AXIS2_PLACEMENT_3D('',#2193,#1777,#1778);
#1475=AXIS2_PLACEMENT_3D('',#2194,#1779,#1780);
#1476=AXIS2_PLACEMENT_3D('',#2196,#1782,#1783);
#1477=AXIS2_PLACEMENT_3D('',#2198,#1785,#1786);
#1478=AXIS2_PLACEMENT_3D('',#2200,#1788,#1789);
#1479=AXIS2_PLACEMENT_3D('',#2202,#1791,#1792);
#1480=AXIS2_PLACEMENT_3D('',#2203,#1793,#1794);
#1481=AXIS2_PLACEMENT_3D('',#2204,#1795,#1796);
#1482=AXIS2_PLACEMENT_3D('',#2205,#1797,#1798);
#1483=AXIS2_PLACEMENT_3D('',#2207,#1800,#1801);
#1484=AXIS2_PLACEMENT_3D('',#2209,#1803,#1804);
#1485=AXIS2_PLACEMENT_3D('',#2210,#1805,#1806);
#1486=AXIS2_PLACEMENT_3D('',#2212,#1808,#1809);
#1487=AXIS2_PLACEMENT_3D('',#2214,#1811,#1812);
#1488=AXIS2_PLACEMENT_3D('',#2215,#1813,#1814);
#1489=AXIS2_PLACEMENT_3D('',#2216,#1815,#1816);
#1490=AXIS2_PLACEMENT_3D('',#2219,#1819,#1820);
#1491=AXIS2_PLACEMENT_3D('',#2221,#1821,#1822);
#1492=AXIS2_PLACEMENT_3D('',#2223,#1823,#1824);
#1493=AXIS2_PLACEMENT_3D('',#2224,#1825,#1826);
#1494=AXIS2_PLACEMENT_3D('',#2225,#1827,#1828);
#1495=AXIS2_PLACEMENT_3D('',#2226,#1829,#1830);
#1496=AXIS2_PLACEMENT_3D('',#2227,#1831,#1832);
#1497=AXIS2_PLACEMENT_3D('',#2228,#1833,#1834);
#1498=AXIS2_PLACEMENT_3D('',#2232,#1837,#1838);
#1499=AXIS2_PLACEMENT_3D('',#2236,#1841,#1842);
#1500=AXIS2_PLACEMENT_3D('',#2238,#1844,#1845);
#1501=AXIS2_PLACEMENT_3D('',#2239,#1846,#1847);
#1502=AXIS2_PLACEMENT_3D('',#2240,#1848,#1849);
#1503=AXIS2_PLACEMENT_3D('',#2241,#1850,#1851);
#1504=DIRECTION('',(0.,0.,1.));
#1505=DIRECTION('',(1.,0.,0.));
#1506=DIRECTION('',(-1.,0.,0.));
#1507=DIRECTION('',(0.,0.,1.));
#1508=DIRECTION('',(0.,-1.,0.));
#1509=DIRECTION('',(0.,0.,-1.));
#1510=DIRECTION('',(0.,-1.,0.));
#1511=DIRECTION('',(0.,0.707106781186548,-0.707106781186547));
#1512=DIRECTION('',(0.,0.,-1.));
#1513=DIRECTION('',(1.,0.,0.));
#1514=DIRECTION('',(0.,-1.,0.));
#1515=DIRECTION('',(-1.,0.,0.));
#1516=DIRECTION('',(0.,1.,0.));
#1517=DIRECTION('',(-1.,0.,0.));
#1518=DIRECTION('',(0.,-1.,0.));
#1519=DIRECTION('',(-1.,0.,0.));
#1520=DIRECTION('',(0.,1.,0.));
#1521=DIRECTION('',(-1.,0.,0.));
#1522=DIRECTION('',(0.,1.,0.));
#1523=DIRECTION('',(-1.,0.,0.));
#1524=DIRECTION('',(0.,1.,0.));
#1525=DIRECTION('',(-1.,0.,0.));
#1526=DIRECTION('',(0.,-1.,0.));
#1527=DIRECTION('',(0.,0.,-1.));
#1528=DIRECTION('',(1.,0.,0.));
#1529=DIRECTION('',(0.,0.,-1.));
#1530=DIRECTION('',(0.,0.,-1.));
#1531=DIRECTION('',(0.,-1.,0.));
#1532=DIRECTION('',(0.,0.,-1.));
#1533=DIRECTION('',(0.,0.,-1.));
#1534=DIRECTION('',(0.,0.,-1.));
#1535=DIRECTION('',(1.,0.,0.));
#1536=DIRECTION('',(0.,0.,-1.));
#1537=DIRECTION('',(0.,-0.707106781186547,0.707106781186548));
#1538=DIRECTION('',(-1.,0.,0.));
#1539=DIRECTION('',(0.,-0.707106781186548,-0.707106781186547));
#1540=DIRECTION('',(1.,0.,0.));
#1541=DIRECTION('',(0.,-0.707106781186548,-0.707106781186547));
#1542=DIRECTION('',(-1.,0.,0.));
#1543=DIRECTION('',(0.,-0.707106781186547,-0.707106781186548));
#1544=DIRECTION('',(1.,0.,0.));
#1545=DIRECTION('',(1.,0.,0.));
#1546=DIRECTION('',(0.,0.707106781186548,-0.707106781186547));
#1547=DIRECTION('',(1.,0.,0.));
#1548=DIRECTION('',(0.707106781186547,-2.4155268595135E-16,-0.707106781186548));
#1549=DIRECTION('',(3.41607084500048E-16,1.,0.));
#1550=DIRECTION('',(0.707106781186548,0.,0.707106781186547));
#1551=DIRECTION('',(3.41607084500048E-16,1.,0.));
#1552=DIRECTION('',(0.707106781186548,0.,0.707106781186547));
#1553=DIRECTION('',(-1.91417762866406E-16,1.,-5.33024847366454E-16));
#1554=DIRECTION('',(0.707106781186548,0.,0.707106781186547));
#1555=DIRECTION('',(3.41607084500048E-16,1.,0.));
#1556=DIRECTION('',(-0.707106781186548,-2.32248400940087E-32,-0.707106781186547));
#1557=DIRECTION('',(3.41607084500048E-16,1.,0.));
#1558=DIRECTION('',(0.577350269189626,0.577350269189626,-0.577350269189626));
#1559=DIRECTION('',(-0.707106781186548,0.,-0.707106781186547));
#1560=DIRECTION('',(-0.707106781186548,0.707106781186548,0.));
#1561=DIRECTION('',(0.707106781186548,-0.707106781186548,0.));
#1562=DIRECTION('',(0.577350269189626,-0.577350269189626,-0.577350269189626));
#1563=DIRECTION('',(-0.707106781186548,0.,-0.707106781186547));
#1564=DIRECTION('',(0.707106781186548,0.707106781186548,0.));
#1565=DIRECTION('',(0.707106781186548,0.707106781186548,0.));
#1566=DIRECTION('',(-1.,0.,0.));
#1567=DIRECTION('',(0.,0.,1.));
#1568=DIRECTION('',(0.,-1.,0.));
#1569=DIRECTION('',(0.,0.,1.));
#1570=DIRECTION('',(0.,1.,0.));
#1571=DIRECTION('',(0.,0.,1.));
#1572=DIRECTION('',(-1.,-1.91417762866406E-16,0.));
#1573=DIRECTION('',(1.91417762866406E-16,-1.,0.));
#1574=DIRECTION('',(1.91417762866406E-16,-1.,0.));
#1575=DIRECTION('',(0.,0.,-1.));
#1576=DIRECTION('',(1.91417762866406E-16,-1.,0.));
#1577=DIRECTION('',(0.,0.,-1.));
#1578=DIRECTION('',(0.,1.,0.));
#1579=DIRECTION('',(0.,0.,1.));
#1580=DIRECTION('',(-1.,0.,0.));
#1581=DIRECTION('',(-1.,0.,0.));
#1582=DIRECTION('',(0.,0.,-1.));
#1583=DIRECTION('',(0.,1.,0.));
#1584=DIRECTION('',(0.,0.,1.));
#1585=DIRECTION('',(-1.,0.,0.));
#1586=DIRECTION('',(0.,0.,-1.));
#1587=DIRECTION('',(-1.,0.,0.));
#1588=DIRECTION('',(-1.,0.,0.));
#1589=DIRECTION('',(0.,0.,1.));
#1590=DIRECTION('',(0.,-1.,0.));
#1591=DIRECTION('',(0.,-1.,0.));
#1592=DIRECTION('',(0.,0.,-1.));
#1593=DIRECTION('',(-1.,0.,0.));
#1594=DIRECTION('',(0.,-1.,0.));
#1595=DIRECTION('',(-1.,0.,0.));
#1596=DIRECTION('',(0.,1.,0.));
#1597=DIRECTION('',(1.,0.,0.));
#1598=DIRECTION('',(0.,0.,-1.));
#1599=DIRECTION('',(-1.,0.,0.));
#1600=DIRECTION('',(0.,0.,-1.));
#1601=DIRECTION('',(-1.,0.,0.));
#1602=DIRECTION('',(0.,0.,-1.));
#1603=DIRECTION('',(-1.,0.,0.));
#1604=DIRECTION('',(-1.,0.,0.));
#1605=DIRECTION('',(0.,0.,1.));
#1606=DIRECTION('',(0.,0.,-1.));
#1607=DIRECTION('',(0.,0.,-1.));
#1608=DIRECTION('',(0.,-1.,0.));
#1609=DIRECTION('',(0.,0.,1.));
#1610=DIRECTION('',(1.,0.,0.));
#1611=DIRECTION('',(0.,0.,-1.));
#1612=DIRECTION('',(1.,0.,0.));
#1613=DIRECTION('',(0.,0.,1.));
#1614=DIRECTION('',(1.,0.,0.));
#1615=DIRECTION('',(0.,0.,1.));
#1616=DIRECTION('',(1.,0.,0.));
#1617=DIRECTION('',(0.,0.,-1.));
#1618=DIRECTION('',(-1.,0.,0.));
#1619=DIRECTION('',(0.,0.,1.));
#1620=DIRECTION('',(1.,0.,0.));
#1621=DIRECTION('',(-1.,0.,0.));
#1622=DIRECTION('',(0.,-1.,0.));
#1623=DIRECTION('',(1.,0.,0.));
#1624=DIRECTION('',(0.,-1.,0.));
#1625=DIRECTION('',(1.,0.,0.));
#1626=DIRECTION('',(-1.,0.,0.));
#1627=DIRECTION('',(0.,-1.,0.));
#1628=DIRECTION('',(-1.,0.,0.));
#1629=DIRECTION('',(-0.707106781186548,-0.707106781186548,0.));
#1630=DIRECTION('',(0.,-1.,0.));
#1631=DIRECTION('',(-1.,0.,0.));
#1632=DIRECTION('',(-3.41607084500048E-16,-1.,0.));
#1633=DIRECTION('',(-1.,0.,0.));
#1634=DIRECTION('',(0.,1.,0.));
#1635=DIRECTION('',(-0.707106781186548,0.707106781186548,0.));
#1636=DIRECTION('',(-1.,0.,0.));
#1637=DIRECTION('',(0.,1.,0.));
#1638=DIRECTION('',(1.91417762866406E-16,-1.,0.));
#1639=DIRECTION('',(0.,0.,1.));
#1640=DIRECTION('',(1.,0.,0.));
#1641=DIRECTION('',(0.,0.,1.));
#1642=DIRECTION('',(1.,0.,0.));
#1643=DIRECTION('',(0.,0.,-1.));
#1644=DIRECTION('',(1.,0.,0.));
#1645=DIRECTION('',(0.,0.,-1.));
#1646=DIRECTION('',(1.,0.,0.));
#1647=DIRECTION('',(0.,-1.,0.));
#1648=DIRECTION('',(0.,0.,-1.));
#1649=DIRECTION('',(0.,0.,1.));
#1650=DIRECTION('',(-1.,0.,0.));
#1651=DIRECTION('',(0.,0.,-1.));
#1652=DIRECTION('',(0.,-1.,0.));
#1653=DIRECTION('',(0.,0.,-1.));
#1654=DIRECTION('',(1.,0.,0.));
#1655=DIRECTION('',(-1.38777878078145E-16,0.,1.));
#1656=DIRECTION('',(-1.,0.,0.));
#1657=DIRECTION('',(0.,0.,-1.));
#1658=DIRECTION('',(0.,-1.,0.));
#1659=DIRECTION('',(0.,0.,-1.));
#1660=DIRECTION('',(0.,0.,-1.));
#1661=DIRECTION('',(0.,0.,1.));
#1662=DIRECTION('',(0.,-1.,0.));
#1663=DIRECTION('',(0.,0.,-1.));
#1664=DIRECTION('',(0.,0.,-1.));
#1665=DIRECTION('',(-1.,0.,0.));
#1666=DIRECTION('',(0.,0.,1.));
#1667=DIRECTION('',(0.,0.,-1.));
#1668=DIRECTION('',(0.,0.,1.));
#1669=DIRECTION('',(1.,0.,0.));
#1670=DIRECTION('',(0.,0.,-1.));
#1671=DIRECTION('',(1.,0.,0.));
#1672=DIRECTION('',(0.,-1.,0.));
#1673=DIRECTION('',(-1.,0.,0.));
#1674=DIRECTION('',(0.,1.,0.));
#1675=DIRECTION('',(0.707106781186548,0.707106781186548,0.));
#1676=DIRECTION('',(0.707106781186548,-0.707106781186548,0.));
#1677=DIRECTION('',(1.91417762866406E-16,-1.,0.));
#1678=DIRECTION('',(-1.,0.,0.));
#1679=DIRECTION('',(1.91417762866406E-16,-1.,0.));
#1680=DIRECTION('',(0.707106781186548,0.707106781186548,0.));
#1681=DIRECTION('',(-1.,0.,0.));
#1682=DIRECTION('',(-3.41607084500048E-16,-1.,0.));
#1683=DIRECTION('',(-0.707106781186548,0.707106781186548,0.));
#1684=DIRECTION('',(0.,0.,1.));
#1685=DIRECTION('',(1.,0.,0.));
#1686=DIRECTION('',(0.,0.,1.));
#1687=DIRECTION('',(1.,0.,0.));
#1688=DIRECTION('',(0.707106781186548,-0.707106781186548,0.));
#1689=DIRECTION('',(1.91417762866406E-16,-1.,0.));
#1690=DIRECTION('',(-1.,0.,0.));
#1691=DIRECTION('',(1.91417762866406E-16,-1.,0.));
#1692=DIRECTION('',(-0.707106781186548,-0.707106781186548,0.));
#1693=DIRECTION('',(0.707106781186548,-0.707106781186548,0.));
#1694=DIRECTION('',(0.,-1.,0.));
#1695=DIRECTION('',(-0.707106781186548,-0.707106781186548,0.));
#1696=DIRECTION('',(-3.41607084500048E-16,-1.,0.));
#1697=DIRECTION('',(-1.,0.,0.));
#1698=DIRECTION('',(-0.707106781186548,-0.707106781186548,0.));
#1699=DIRECTION('',(0.707106781186548,-0.707106781186548,0.));
#1700=DIRECTION('',(0.,0.,-1.));
#1701=DIRECTION('',(0.,0.,-1.));
#1702=DIRECTION('',(0.707106781186548,-0.707106781186548,0.));
#1703=DIRECTION('',(0.,0.,1.));
#1704=DIRECTION('',(1.,0.,0.));
#1705=DIRECTION('',(0.,0.,1.));
#1706=DIRECTION('',(1.,0.,0.));
#1707=DIRECTION('',(1.91417762866406E-16,-1.,0.));
#1708=DIRECTION('',(-1.,0.,0.));
#1709=DIRECTION('',(0.,-1.,0.));
#1710=DIRECTION('',(-0.707106781186548,-0.707106781186548,0.));
#1711=DIRECTION('',(-1.,0.,0.));
#1712=DIRECTION('',(0.,-1.,0.));
#1713=DIRECTION('',(0.707106781186548,-0.707106781186548,0.));
#1714=DIRECTION('',(-0.707106781186548,-0.707106781186548,0.));
#1715=DIRECTION('',(1.91417762866406E-16,-1.,0.));
#1716=DIRECTION('',(-1.,0.,0.));
#1717=DIRECTION('',(0.,0.,1.));
#1718=DIRECTION('',(1.,0.,0.));
#1719=DIRECTION('',(0.,0.,1.));
#1720=DIRECTION('',(1.,0.,0.));
#1721=DIRECTION('',(1.91417762866406E-16,-1.,0.));
#1722=DIRECTION('',(-1.,0.,0.));
#1723=DIRECTION('',(1.91417762866406E-16,-1.,0.));
#1724=DIRECTION('',(0.707106781186548,-0.707106781186548,0.));
#1725=DIRECTION('',(0.707106781186548,0.707106781186548,0.));
#1726=DIRECTION('',(0.,1.,0.));
#1727=DIRECTION('',(-1.,0.,0.));
#1728=DIRECTION('',(0.707106781186548,-0.707106781186548,0.));
#1729=DIRECTION('',(0.,1.,0.));
#1730=DIRECTION('',(0.707106781186548,0.707106781186548,0.));
#1731=DIRECTION('',(0.707106781186548,-0.707106781186548,0.));
#1732=DIRECTION('',(0.707106781186548,0.707106781186548,0.));
#1733=DIRECTION('',(0.,0.,-1.));
#1734=DIRECTION('',(0.,0.,-1.));
#1735=DIRECTION('',(-1.,0.,0.));
#1736=DIRECTION('',(0.,0.,1.));
#1737=DIRECTION('',(0.,0.,1.));
#1738=DIRECTION('',(0.,0.,-1.));
#1739=DIRECTION('',(0.,0.,-1.));
#1740=DIRECTION('',(0.,-1.,0.));
#1741=DIRECTION('',(0.,0.,-1.));
#1742=DIRECTION('',(0.,0.,-1.));
#1743=DIRECTION('',(-1.,0.,0.));
#1744=DIRECTION('',(0.,0.,1.));
#1745=DIRECTION('',(0.,0.,-1.));
#1746=DIRECTION('',(0.,0.,-1.));
#1747=DIRECTION('',(0.707106781186548,-0.707106781186548,0.));
#1748=DIRECTION('',(0.707106781186548,0.707106781186548,0.));
#1749=DIRECTION('',(0.,0.,-1.));
#1750=DIRECTION('',(0.,0.,-1.));
#1751=DIRECTION('',(0.,-1.,0.));
#1752=DIRECTION('',(0.,0.,-1.));
#1753=DIRECTION('',(0.,0.,-1.));
#1754=DIRECTION('',(0.,0.,-1.));
#1755=DIRECTION('',(1.,0.,0.));
#1756=DIRECTION('',(0.,0.,-1.));
#1757=DIRECTION('',(0.,-1.,0.));
#1758=DIRECTION('',(0.,0.,-1.));
#1759=DIRECTION('',(0.,0.,-1.));
#1760=DIRECTION('',(1.,0.,0.));
#1761=DIRECTION('',(0.,0.,-1.));
#1762=DIRECTION('',(0.,0.,-1.));
#1763=DIRECTION('',(1.,-3.41607084500048E-16,0.));
#1764=DIRECTION('',(3.41607084500048E-16,1.,0.));
#1765=DIRECTION('',(0.,0.,1.));
#1766=DIRECTION('',(0.,0.,-1.));
#1767=DIRECTION('',(0.,0.,-1.));
#1768=DIRECTION('',(0.707106781186548,0.707106781186548,0.));
#1769=DIRECTION('',(0.,0.,1.));
#1770=DIRECTION('',(-0.707106781186548,0.707106781186548,0.));
#1771=DIRECTION('',(0.,0.,-1.));
#1772=DIRECTION('',(0.,-1.,0.));
#1773=DIRECTION('',(0.,0.,-1.));
#1774=DIRECTION('',(-1.38777878078145E-16,0.,1.));
#1775=DIRECTION('',(-0.707106781186548,-0.707106781186548,0.));
#1776=DIRECTION('',(0.707106781186548,-0.707106781186548,0.));
#1777=DIRECTION('',(0.,-1.,0.));
#1778=DIRECTION('',(0.,0.,-1.));
#1779=DIRECTION('',(-0.707106781186548,-0.707106781186548,0.));
#1780=DIRECTION('',(0.707106781186548,-0.707106781186548,0.));
#1781=DIRECTION('',(0.,0.,-1.));
#1782=DIRECTION('',(-0.707106781186548,0.707106781186548,0.));
#1783=DIRECTION('',(-0.707106781186548,-0.707106781186548,0.));
#1784=DIRECTION('',(0.,0.,1.));
#1785=DIRECTION('',(0.707106781186548,-0.707106781186548,0.));
#1786=DIRECTION('',(0.707106781186548,0.707106781186548,0.));
#1787=DIRECTION('',(0.,0.,-1.));
#1788=DIRECTION('',(-0.707106781186548,-0.707106781186548,0.));
#1789=DIRECTION('',(0.707106781186548,-0.707106781186548,0.));
#1790=DIRECTION('',(0.,0.,-1.));
#1791=DIRECTION('',(0.,0.,1.));
#1792=DIRECTION('',(1.,0.,0.));
#1793=DIRECTION('',(0.,0.,1.));
#1794=DIRECTION('',(1.,0.,0.));
#1795=DIRECTION('',(-1.,0.,0.));
#1796=DIRECTION('',(0.,0.,1.));
#1797=DIRECTION('',(-1.,-1.91417762866406E-16,0.));
#1798=DIRECTION('',(1.91417762866406E-16,-1.,0.));
#1799=DIRECTION('',(0.,0.,-1.));
#1800=DIRECTION('',(-1.,-1.91417762866406E-16,0.));
#1801=DIRECTION('',(1.91417762866406E-16,-1.,0.));
#1802=DIRECTION('',(0.,0.,-1.));
#1803=DIRECTION('',(0.,1.,0.));
#1804=DIRECTION('',(0.,0.,1.));
#1805=DIRECTION('',(-1.,-1.91417762866406E-16,0.));
#1806=DIRECTION('',(1.91417762866406E-16,-1.,0.));
#1807=DIRECTION('',(0.,0.,-1.));
#1808=DIRECTION('',(0.,1.,0.));
#1809=DIRECTION('',(0.,0.,1.));
#1810=DIRECTION('',(0.,0.,-1.));
#1811=DIRECTION('',(-1.,-1.91417762866406E-16,0.));
#1812=DIRECTION('',(1.91417762866406E-16,-1.,0.));
#1813=DIRECTION('',(-1.,-1.91417762866406E-16,0.));
#1814=DIRECTION('',(1.91417762866406E-16,-1.,0.));
#1815=DIRECTION('',(0.,0.,-1.));
#1816=DIRECTION('',(-1.,0.,0.));
#1817=DIRECTION('',(0.,-1.,0.));
#1818=DIRECTION('',(0.,-1.,0.));
#1819=DIRECTION('',(0.,0.,-1.));
#1820=DIRECTION('',(-1.,0.,0.));
#1821=DIRECTION('',(0.,0.,-1.));
#1822=DIRECTION('',(-1.,0.,0.));
#1823=DIRECTION('',(1.,0.,1.38777878078145E-16));
#1824=DIRECTION('',(1.38777878078145E-16,0.,-1.));
#1825=DIRECTION('',(0.,0.,1.));
#1826=DIRECTION('',(1.,0.,0.));
#1827=DIRECTION('',(0.,0.,1.));
#1828=DIRECTION('',(1.,0.,0.));
#1829=DIRECTION('',(0.,0.,1.));
#1830=DIRECTION('',(1.,0.,0.));
#1831=DIRECTION('',(0.,0.,1.));
#1832=DIRECTION('',(1.,0.,0.));
#1833=DIRECTION('',(0.,1.,0.));
#1834=DIRECTION('',(0.,0.,1.));
#1835=DIRECTION('',(-1.,0.,0.));
#1836=DIRECTION('',(0.,0.,1.));
#1837=DIRECTION('',(0.,1.,0.));
#1838=DIRECTION('',(0.,0.,1.));
#1839=DIRECTION('',(0.,0.,1.));
#1840=DIRECTION('',(-1.,0.,0.));
#1841=DIRECTION('',(-1.,0.,0.));
#1842=DIRECTION('',(0.,0.,1.));
#1843=DIRECTION('',(0.,-1.,0.));
#1844=DIRECTION('',(0.,0.,-1.));
#1845=DIRECTION('',(1.,0.,0.));
#1846=DIRECTION('',(0.,0.,-1.));
#1847=DIRECTION('',(1.,0.,0.));
#1848=DIRECTION('',(1.,0.,0.));
#1849=DIRECTION('',(0.,0.,-1.));
#1850=DIRECTION('',(-1.,0.,0.));
#1851=DIRECTION('',(0.,0.,1.));
#1852=CARTESIAN_POINT('',(0.,0.,0.));
#1853=CARTESIAN_POINT('',(0.115,9.8375,0.005));
#1854=CARTESIAN_POINT('',(0.115,9.8375,0.01));
#1855=CARTESIAN_POINT('',(0.115,-0.145,0.01));
#1856=CARTESIAN_POINT('',(0.115,-0.1625,0.01));
#1857=CARTESIAN_POINT('',(0.115,-0.145,0.015));
#1858=CARTESIAN_POINT('',(0.115,-0.145,0.002));
#1859=CARTESIAN_POINT('',(0.115,9.8375,0.002));
#1860=CARTESIAN_POINT('',(0.115,-0.1545,0.00199999999999972));
#1861=CARTESIAN_POINT('',(0.115,-0.1525,0.));
#1862=CARTESIAN_POINT('',(0.,0.,0.015));
#1863=CARTESIAN_POINT('',(0.115,0.,0.015));
#1864=CARTESIAN_POINT('',(0.115,0.145,0.015));
#1865=CARTESIAN_POINT('',(0.115,0.125,0.015));
#1866=CARTESIAN_POINT('',(0.,0.145,0.015));
#1867=CARTESIAN_POINT('',(0.1675,0.145,0.015));
#1868=CARTESIAN_POINT('',(0.1675,0.,0.015));
#1869=CARTESIAN_POINT('',(0.1675,0.005,0.015));
#1870=CARTESIAN_POINT('',(0.166,0.005,0.015));
#1871=CARTESIAN_POINT('',(0.1645,0.005,0.015));
#1872=CARTESIAN_POINT('',(0.1645,-3.03576608295941E-17,0.015));
#1873=CARTESIAN_POINT('',(0.1645,-0.005,0.015));
#1874=CARTESIAN_POINT('',(0.166,-0.005,0.015));
#1875=CARTESIAN_POINT('',(0.1675,-0.005,0.015));
#1876=CARTESIAN_POINT('',(0.1675,0.,0.015));
#1877=CARTESIAN_POINT('',(0.1675,-0.145,0.015));
#1878=CARTESIAN_POINT('',(0.,-0.145,0.015));
#1879=CARTESIAN_POINT('',(0.115,-0.145,0.015));
#1880=CARTESIAN_POINT('',(0.115,-0.14125,0.015));
#1881=CARTESIAN_POINT('',(0.115,-0.125,0.015));
#1882=CARTESIAN_POINT('',(0.,-0.125,0.015));
#1883=CARTESIAN_POINT('',(0.1475,-0.125,0.015));
#1884=CARTESIAN_POINT('',(0.1475,0.,0.015));
#1885=CARTESIAN_POINT('',(0.1475,0.125,0.015));
#1886=CARTESIAN_POINT('',(0.,0.125,0.015));
#1887=CARTESIAN_POINT('',(0.,-0.145,0.015));
#1888=CARTESIAN_POINT('',(0.,-0.145,0.002));
#1889=CARTESIAN_POINT('',(0.1675,-0.145,0.002));
#1890=CARTESIAN_POINT('',(0.115,-0.145,0.015));
#1891=CARTESIAN_POINT('',(0.1675,-0.145,0.015));
#1892=CARTESIAN_POINT('',(0.,0.145,0.015));
#1893=CARTESIAN_POINT('',(0.115,0.145,0.015));
#1894=CARTESIAN_POINT('',(0.115,0.145,0.01));
#1895=CARTESIAN_POINT('',(0.115,0.145,0.015));
#1896=CARTESIAN_POINT('',(0.115,0.145,0.002));
#1897=CARTESIAN_POINT('',(0.,0.145,0.002));
#1898=CARTESIAN_POINT('',(0.1675,0.145,0.002));
#1899=CARTESIAN_POINT('',(0.1675,0.145,0.015));
#1900=CARTESIAN_POINT('',(5.55111512312578E-17,0.1625,0.01));
#1901=CARTESIAN_POINT('',(0.175,0.1575,0.005));
#1902=CARTESIAN_POINT('',(0.175,0.1625,0.01));
#1903=CARTESIAN_POINT('',(0.175,0.1545,0.002));
#1904=CARTESIAN_POINT('',(5.55111512312578E-17,0.1545,0.002));
#1905=CARTESIAN_POINT('',(0.115,0.1545,0.00199999999999986));
#1906=CARTESIAN_POINT('',(0.115,0.1625,0.01));
#1907=CARTESIAN_POINT('',(0.115,0.1625,0.01));
#1908=CARTESIAN_POINT('',(5.55111512312578E-17,0.1625,0.01));
#1909=CARTESIAN_POINT('',(0.,-0.1525,0.));
#1910=CARTESIAN_POINT('',(0.,-0.1545,0.002));
#1911=CARTESIAN_POINT('',(0.175,-0.1545,0.002));
#1912=CARTESIAN_POINT('',(0.175,-0.1525,0.));
#1913=CARTESIAN_POINT('',(0.175,-0.1625,0.01));
#1914=CARTESIAN_POINT('',(0.185,-0.1625,0.01));
#1915=CARTESIAN_POINT('',(0.175,-5.97812397875084E-17,0.));
#1916=CARTESIAN_POINT('',(0.175,-0.1525,-1.70803542250025E-18));
#1917=CARTESIAN_POINT('',(0.177,-0.1525,0.002));
#1918=CARTESIAN_POINT('',(0.185,-0.1525,0.01));
#1919=CARTESIAN_POINT('',(0.177,-6.04644539565085E-17,0.002));
#1920=CARTESIAN_POINT('',(0.177,-0.145,0.002));
#1921=CARTESIAN_POINT('',(0.175,-0.145,2.47665136262535E-17));
#1922=CARTESIAN_POINT('',(0.1775,-0.145,0.00250000000000015));
#1923=CARTESIAN_POINT('',(0.1775,-5.79701332619262E-17,0.00250000000000006));
#1924=CARTESIAN_POINT('',(0.1775,0.145,0.00250000000000009));
#1925=CARTESIAN_POINT('',(0.175,0.145,-2.47665136262535E-17));
#1926=CARTESIAN_POINT('',(0.177,0.145,0.002));
#1927=CARTESIAN_POINT('',(0.177,-6.04644539565085E-17,0.002));
#1928=CARTESIAN_POINT('',(0.177,0.1525,0.002));
#1929=CARTESIAN_POINT('',(0.185,0.1525,0.01));
#1930=CARTESIAN_POINT('',(0.185,0.1525,0.01));
#1931=CARTESIAN_POINT('',(0.185,0.1625,0.01));
#1932=CARTESIAN_POINT('',(0.185,0.1525,0.01));
#1933=CARTESIAN_POINT('',(0.181,0.1485,0.002));
#1934=CARTESIAN_POINT('',(0.185,0.1525,0.01));
#1935=CARTESIAN_POINT('',(0.175,-0.1525,0.));
#1936=CARTESIAN_POINT('',(0.176,-0.1535,0.002));
#1937=CARTESIAN_POINT('',(0.18,-0.1575,0.01));
#1938=CARTESIAN_POINT('',(0.1675,0.,0.015));
#1939=CARTESIAN_POINT('',(0.1675,0.,0.002));
#1940=CARTESIAN_POINT('',(0.1675,-0.005,0.005));
#1941=CARTESIAN_POINT('',(0.1675,-0.005,0.005));
#1942=CARTESIAN_POINT('',(0.1675,0.,0.005));
#1943=CARTESIAN_POINT('',(0.1675,0.005,0.005));
#1944=CARTESIAN_POINT('',(0.1675,0.005,0.005));
#1945=CARTESIAN_POINT('',(0.1755,-1.66533453693773E-16,0.317));
#1946=CARTESIAN_POINT('',(0.1755,-1.66533453693773E-16,0.002));
#1947=CARTESIAN_POINT('',(0.1755,0.145,0.002));
#1948=CARTESIAN_POINT('',(0.1755,-0.145,0.002));
#1949=CARTESIAN_POINT('',(0.1755,0.145,0.317));
#1950=CARTESIAN_POINT('',(0.1755,0.145,0.02));
#1951=CARTESIAN_POINT('',(0.1755,3.35938173830543E-17,0.02));
#1952=CARTESIAN_POINT('',(0.1755,-0.145,0.02));
#1953=CARTESIAN_POINT('',(0.1755,-0.145,0.317));
#1954=CARTESIAN_POINT('',(0.1765,-0.145,0.317));
#1955=CARTESIAN_POINT('',(0.1765,-0.145,0.002));
#1956=CARTESIAN_POINT('',(0.,-0.145,0.02));
#1957=CARTESIAN_POINT('',(0.1775,-0.145,0.02));
#1958=CARTESIAN_POINT('',(0.1775,-0.145,0.317));
#1959=CARTESIAN_POINT('',(0.1765,0.145,0.317));
#1960=CARTESIAN_POINT('',(0.1765,0.145,0.002));
#1961=CARTESIAN_POINT('',(0.1775,0.145,0.317));
#1962=CARTESIAN_POINT('',(0.1775,0.145,0.02));
#1963=CARTESIAN_POINT('',(0.,0.145,0.02));
#1964=CARTESIAN_POINT('',(0.115,9.8375,0.005));
#1965=CARTESIAN_POINT('',(0.115,9.8375,0.01));
#1966=CARTESIAN_POINT('',(0.115,9.8375,0.002));
#1967=CARTESIAN_POINT('',(0.185,9.8375,0.01));
#1968=CARTESIAN_POINT('',(0.105,9.8375,0.01));
#1969=CARTESIAN_POINT('',(0.105,-0.125,0.01));
#1970=CARTESIAN_POINT('',(0.105,-0.1625,0.01));
#1971=CARTESIAN_POINT('',(0.,-0.125,0.01));
#1972=CARTESIAN_POINT('',(0.115,-0.125,0.01));
#1973=CARTESIAN_POINT('',(0.115,-0.14125,0.01));
#1974=CARTESIAN_POINT('',(0.185,-0.1625,0.01));
#1975=CARTESIAN_POINT('',(0.11,-0.1325,0.01));
#1976=CARTESIAN_POINT('',(0.1075,-0.1325,0.01));
#1977=CARTESIAN_POINT('',(0.11,-0.1525,0.01));
#1978=CARTESIAN_POINT('',(0.1075,-0.1525,0.01));
#1979=CARTESIAN_POINT('',(0.11,-0.1425,0.01));
#1980=CARTESIAN_POINT('',(0.1075,-0.1425,0.01));
#1981=CARTESIAN_POINT('',(0.105,9.8375,0.015));
#1982=CARTESIAN_POINT('',(0.105,-0.125,0.04));
#1983=CARTESIAN_POINT('',(0.105,-0.125,0.02));
#1984=CARTESIAN_POINT('',(0.105,-0.1625,0.015));
#1985=CARTESIAN_POINT('',(0.105,-0.1625,0.02));
#1986=CARTESIAN_POINT('',(0.105,9.8375,0.02));
#1987=CARTESIAN_POINT('',(0.11,-0.1525,-0.005));
#1988=CARTESIAN_POINT('',(0.11,-0.1525,0.02));
#1989=CARTESIAN_POINT('',(0.1125,-0.1525,0.02));
#1990=CARTESIAN_POINT('',(0.11,0.1525,-0.005));
#1991=CARTESIAN_POINT('',(0.11,0.1525,0.02));
#1992=CARTESIAN_POINT('',(0.1125,0.1525,0.02));
#1993=CARTESIAN_POINT('',(0.11,0.1525,0.01));
#1994=CARTESIAN_POINT('',(0.1075,0.1525,0.01));
#1995=CARTESIAN_POINT('',(0.,0.,0.02));
#1996=CARTESIAN_POINT('',(-0.0825,0.16,0.02));
#1997=CARTESIAN_POINT('',(0.165,0.16,0.02));
#1998=CARTESIAN_POINT('',(0.105,0.16,0.02));
#1999=CARTESIAN_POINT('',(0.105,9.8375,0.02));
#2000=CARTESIAN_POINT('',(0.105,0.125,0.02));
#2001=CARTESIAN_POINT('',(0.,0.125,0.02));
#2002=CARTESIAN_POINT('',(0.1475,0.125,0.02));
#2003=CARTESIAN_POINT('',(0.1475,0.,0.02));
#2004=CARTESIAN_POINT('',(0.1475,-0.125,0.02));
#2005=CARTESIAN_POINT('',(0.,-0.125,0.02));
#2006=CARTESIAN_POINT('',(-5.55111512312578E-17,-0.1625,0.02));
#2007=CARTESIAN_POINT('',(0.165,-0.1625,0.02));
#2008=CARTESIAN_POINT('',(0.165,-0.16,0.02));
#2009=CARTESIAN_POINT('',(0.165,-0.1575,0.02));
#2010=CARTESIAN_POINT('',(0.168964466094068,-0.1575,0.02));
#2011=CARTESIAN_POINT('',(0.172928932188134,-0.1575,0.02));
#2012=CARTESIAN_POINT('',(0.176464466094067,-0.153964466094067,0.02));
#2013=CARTESIAN_POINT('',(0.18,-0.150428932188134,0.02));
#2014=CARTESIAN_POINT('',(0.18,-0.146464466094067,0.02));
#2015=CARTESIAN_POINT('',(0.18,-0.1425,0.02));
#2016=CARTESIAN_POINT('',(0.1825,-0.1425,0.02));
#2017=CARTESIAN_POINT('',(0.185,-0.1425,0.02));
#2018=CARTESIAN_POINT('',(0.185,0.,0.02));
#2019=CARTESIAN_POINT('',(0.185,0.1425,0.02));
#2020=CARTESIAN_POINT('',(0.1825,0.1425,0.02));
#2021=CARTESIAN_POINT('',(0.18,0.1425,0.02));
#2022=CARTESIAN_POINT('',(0.18,0.146464466094067,0.02));
#2023=CARTESIAN_POINT('',(0.18,0.150428932188134,0.02));
#2024=CARTESIAN_POINT('',(0.176464466094067,0.153964466094067,0.02));
#2025=CARTESIAN_POINT('',(0.172928932188134,0.1575,0.02));
#2026=CARTESIAN_POINT('',(0.168964466094067,0.1575,0.02));
#2027=CARTESIAN_POINT('',(0.165,0.1575,0.02));
#2028=CARTESIAN_POINT('',(0.165,0.15875,0.02));
#2029=CARTESIAN_POINT('',(0.1775,3.39766529087872E-17,0.02));
#2030=CARTESIAN_POINT('',(0.11,0.1425,0.02));
#2031=CARTESIAN_POINT('',(0.1125,0.1425,0.02));
#2032=CARTESIAN_POINT('',(0.11,0.1325,0.02));
#2033=CARTESIAN_POINT('',(0.1125,0.1325,0.02));
#2034=CARTESIAN_POINT('',(0.11,-0.1325,0.02));
#2035=CARTESIAN_POINT('',(0.1125,-0.1325,0.02));
#2036=CARTESIAN_POINT('',(0.11,-0.1425,0.02));
#2037=CARTESIAN_POINT('',(0.1125,-0.1425,0.02));
#2038=CARTESIAN_POINT('',(-5.55111512312578E-17,-0.1625,0.02));
#2039=CARTESIAN_POINT('',(0.175,-0.1625,0.02));
#2040=CARTESIAN_POINT('',(0.175,-0.1625,0.22));
#2041=CARTESIAN_POINT('',(-5.55111512312578E-17,-0.1625,0.22));
#2042=CARTESIAN_POINT('',(0.165,-0.1625,0.22));
#2043=CARTESIAN_POINT('',(0.165,-0.1625,0.22));
#2044=CARTESIAN_POINT('',(5.55111512312578E-17,0.1625,0.02));
#2045=CARTESIAN_POINT('',(5.55111512312578E-17,0.1625,0.01));
#2046=CARTESIAN_POINT('',(0.105,0.1625,0.01));
#2047=CARTESIAN_POINT('',(0.105,0.1625,0.02));
#2048=CARTESIAN_POINT('',(0.105,0.1625,0.22));
#2049=CARTESIAN_POINT('',(5.55111512312578E-17,0.1625,0.22));
#2050=CARTESIAN_POINT('',(0.175,0.1625,0.22));
#2051=CARTESIAN_POINT('',(0.175,0.1625,0.));
#2052=CARTESIAN_POINT('',(0.,-0.125,0.04));
#2053=CARTESIAN_POINT('',(0.1475,-0.125,0.04));
#2054=CARTESIAN_POINT('',(0.115,-0.125,0.01));
#2055=CARTESIAN_POINT('',(0.,0.125,0.04));
#2056=CARTESIAN_POINT('',(0.105,0.125,0.04));
#2057=CARTESIAN_POINT('',(0.105,0.125,0.01));
#2058=CARTESIAN_POINT('',(0.,0.125,0.01));
#2059=CARTESIAN_POINT('',(0.115,0.125,0.01));
#2060=CARTESIAN_POINT('',(0.115,0.125,0.01));
#2061=CARTESIAN_POINT('',(0.1475,0.125,0.04));
#2062=CARTESIAN_POINT('',(2.77555756156289E-17,2.77555756156289E-17,0.22));
#2063=CARTESIAN_POINT('',(0.172928932188134,0.150428932188134,0.22));
#2064=CARTESIAN_POINT('',(0.175428932188134,0.150428932188134,0.22));
#2065=CARTESIAN_POINT('',(0.105,9.8375,0.22));
#2066=CARTESIAN_POINT('',(0.105,0.16,0.22));
#2067=CARTESIAN_POINT('',(-0.0825,0.16,0.22));
#2068=CARTESIAN_POINT('',(0.165,0.16,0.22));
#2069=CARTESIAN_POINT('',(0.165,0.15875,0.22));
#2070=CARTESIAN_POINT('',(0.165,0.158056349186104,0.22));
#2071=CARTESIAN_POINT('',(0.16161522368915,0.154671572875254,0.22));
#2072=CARTESIAN_POINT('',(0.16161522368915,0.154671572875254,0.22));
#2073=CARTESIAN_POINT('',(0.169254310985676,0.147032485578728,0.22));
#2074=CARTESIAN_POINT('',(0.1755,0.140786796564404,0.22));
#2075=CARTESIAN_POINT('',(0.1755,6.13493929986832E-17,0.22));
#2076=CARTESIAN_POINT('',(0.1755,0.145,0.22));
#2077=CARTESIAN_POINT('',(2.77555756156289E-17,0.145,0.22));
#2078=CARTESIAN_POINT('',(0.1775,0.145,0.22));
#2079=CARTESIAN_POINT('',(0.1775,6.1732228524416E-17,0.22));
#2080=CARTESIAN_POINT('',(0.1775,0.14,0.22));
#2081=CARTESIAN_POINT('',(0.176893398282202,0.139393398282202,0.22));
#2082=CARTESIAN_POINT('',(0.18,0.1425,0.22));
#2083=CARTESIAN_POINT('',(0.1825,0.1425,0.22));
#2084=CARTESIAN_POINT('',(0.185,0.1425,0.22));
#2085=CARTESIAN_POINT('',(0.185,0.,0.22));
#2086=CARTESIAN_POINT('',(0.185,0.1525,0.22));
#2087=CARTESIAN_POINT('',(0.16875,0.16875,0.22));
#2088=CARTESIAN_POINT('',(2.77555756156289E-17,2.77555756156289E-17,0.22));
#2089=CARTESIAN_POINT('',(0.172928932188134,-0.150428932188134,0.22));
#2090=CARTESIAN_POINT('',(0.175428932188134,-0.150428932188134,0.22));
#2091=CARTESIAN_POINT('',(0.177171572875254,-0.13911522368915,0.22));
#2092=CARTESIAN_POINT('',(0.1775,-0.139443650813896,0.22));
#2093=CARTESIAN_POINT('',(0.180556349186104,-0.1425,0.22));
#2094=CARTESIAN_POINT('',(0.1775,6.1732228524416E-17,0.22));
#2095=CARTESIAN_POINT('',(0.1775,-0.145,0.22));
#2096=CARTESIAN_POINT('',(2.77555756156289E-17,-0.145,0.22));
#2097=CARTESIAN_POINT('',(0.1755,-0.145,0.22));
#2098=CARTESIAN_POINT('',(0.1755,6.13493929986832E-17,0.22));
#2099=CARTESIAN_POINT('',(0.1755,-0.140786796564404,0.22));
#2100=CARTESIAN_POINT('',(0.169393398282202,-0.146893398282202,0.22));
#2101=CARTESIAN_POINT('',(0.16161522368915,-0.154671572875254,0.22));
#2102=CARTESIAN_POINT('',(0.16161522368915,-0.154671572875254,0.22));
#2103=CARTESIAN_POINT('',(0.165,-0.158056349186104,0.22));
#2104=CARTESIAN_POINT('',(0.165,-0.16,0.22));
#2105=CARTESIAN_POINT('',(0.16875,-0.16875,0.22));
#2106=CARTESIAN_POINT('',(0.185,-0.1525,0.22));
#2107=CARTESIAN_POINT('',(0.185,0.,0.22));
#2108=CARTESIAN_POINT('',(0.185,-0.1425,0.22));
#2109=CARTESIAN_POINT('',(0.1825,-0.1425,0.22));
#2110=CARTESIAN_POINT('',(0.177171572875254,-0.13911522368915,0.219));
#2111=CARTESIAN_POINT('',(0.1775,-0.139443650813896,0.219));
#2112=CARTESIAN_POINT('',(0.1775,-0.139443650813896,0.218));
#2113=CARTESIAN_POINT('',(0.180556349186104,-0.1425,0.22));
#2114=CARTESIAN_POINT('',(0.180556349186104,-0.1425,0.218));
#2115=CARTESIAN_POINT('',(0.177171572875254,-0.13911522368915,0.218));
#2116=CARTESIAN_POINT('',(0.169393398282202,-0.146893398282202,0.218));
#2117=CARTESIAN_POINT('',(0.172928932188134,-0.150428932188134,0.218));
#2118=CARTESIAN_POINT('',(0.175428932188134,-0.150428932188134,0.218));
#2119=CARTESIAN_POINT('',(0.1775,-0.146893398282202,0.218));
#2120=CARTESIAN_POINT('',(0.1775,-0.145,0.218));
#2121=CARTESIAN_POINT('',(0.1825,-0.1425,0.218));
#2122=CARTESIAN_POINT('',(0.18,-0.1425,0.218));
#2123=CARTESIAN_POINT('',(0.18,-0.146464466094067,0.218));
#2124=CARTESIAN_POINT('',(0.18,-0.150428932188134,0.218));
#2125=CARTESIAN_POINT('',(0.176464466094067,-0.153964466094067,0.218));
#2126=CARTESIAN_POINT('',(0.172928932188134,-0.1575,0.218));
#2127=CARTESIAN_POINT('',(0.168964466094068,-0.1575,0.218));
#2128=CARTESIAN_POINT('',(0.165,-0.1575,0.218));
#2129=CARTESIAN_POINT('',(0.165,-0.16,0.218));
#2130=CARTESIAN_POINT('',(0.165,-0.158056349186104,0.218));
#2131=CARTESIAN_POINT('',(0.16161522368915,-0.154671572875254,0.218));
#2132=CARTESIAN_POINT('',(0.16161522368915,-0.154671572875254,0.218));
#2133=CARTESIAN_POINT('',(0.169393398282202,-0.146893398282202,0.218));
#2134=CARTESIAN_POINT('',(0.1755,-0.140786796564404,0.218));
#2135=CARTESIAN_POINT('',(0.1755,-0.146893398282202,0.218));
#2136=CARTESIAN_POINT('',(0.1755,-0.145,0.218));
#2137=CARTESIAN_POINT('',(0.169393398282202,-0.145,0.218));
#2138=CARTESIAN_POINT('',(0.169254310985676,0.147032485578728,0.218));
#2139=CARTESIAN_POINT('',(0.172928932188134,0.150428932188134,0.218));
#2140=CARTESIAN_POINT('',(0.175428932188134,0.150428932188134,0.218));
#2141=CARTESIAN_POINT('',(0.1775,0.147032485578728,0.218));
#2142=CARTESIAN_POINT('',(0.1775,0.145,0.218));
#2143=CARTESIAN_POINT('',(0.1775,0.14,0.218));
#2144=CARTESIAN_POINT('',(0.169254310985676,0.145,0.218));
#2145=CARTESIAN_POINT('',(0.1755,0.145,0.218));
#2146=CARTESIAN_POINT('',(0.1755,0.147032485578728,0.218));
#2147=CARTESIAN_POINT('',(0.1755,0.140786796564404,0.218));
#2148=CARTESIAN_POINT('',(0.169254310985676,0.147032485578728,0.218));
#2149=CARTESIAN_POINT('',(0.16161522368915,0.154671572875254,0.218));
#2150=CARTESIAN_POINT('',(0.16161522368915,0.154671572875254,0.218));
#2151=CARTESIAN_POINT('',(0.165,0.158056349186104,0.218));
#2152=CARTESIAN_POINT('',(0.165,0.15875,0.218));
#2153=CARTESIAN_POINT('',(0.165,0.1575,0.218));
#2154=CARTESIAN_POINT('',(0.168964466094067,0.1575,0.218));
#2155=CARTESIAN_POINT('',(0.172928932188134,0.1575,0.218));
#2156=CARTESIAN_POINT('',(0.176325378797542,0.154103553390594,0.218));
#2157=CARTESIAN_POINT('',(0.18,0.150428932188135,0.218));
#2158=CARTESIAN_POINT('',(0.18,0.146464466094067,0.218));
#2159=CARTESIAN_POINT('',(0.18,0.1425,0.218));
#2160=CARTESIAN_POINT('',(0.176893398282202,0.139393398282202,0.218));
#2161=CARTESIAN_POINT('',(0.176893398282202,0.139393398282202,0.219));
#2162=CARTESIAN_POINT('',(0.1775,0.14,0.219));
#2163=CARTESIAN_POINT('',(0.18,0.1425,0.22));
#2164=CARTESIAN_POINT('',(0.165,0.15875,0.22));
#2165=CARTESIAN_POINT('',(0.165,0.158056349186104,0.22));
#2166=CARTESIAN_POINT('',(0.165,0.16,0.22));
#2167=CARTESIAN_POINT('',(0.165,0.1575,0.22));
#2168=CARTESIAN_POINT('',(0.168964466094067,0.1575,0.22));
#2169=CARTESIAN_POINT('',(0.172928932188134,0.1575,0.22));
#2170=CARTESIAN_POINT('',(0.18,0.146464466094067,0.22));
#2171=CARTESIAN_POINT('',(0.18,0.1425,0.22));
#2172=CARTESIAN_POINT('',(0.18,0.150428932188134,0.22));
#2173=CARTESIAN_POINT('',(0.176464466094067,-0.153964466094067,0.22));
#2174=CARTESIAN_POINT('',(0.18,-0.150428932188134,0.22));
#2175=CARTESIAN_POINT('',(0.172928932188134,-0.1575,0.22));
#2176=CARTESIAN_POINT('',(0.1825,-0.1425,0.22));
#2177=CARTESIAN_POINT('',(0.185,-0.1425,0.22));
#2178=CARTESIAN_POINT('',(0.18,-0.1425,0.22));
#2179=CARTESIAN_POINT('',(0.18,-0.146464466094067,0.22));
#2180=CARTESIAN_POINT('',(0.168964466094068,-0.1575,0.22));
#2181=CARTESIAN_POINT('',(0.165,-0.1575,0.22));
#2182=CARTESIAN_POINT('',(0.165,-0.16,0.22));
#2183=CARTESIAN_POINT('',(0.165,-0.158056349186104,0.22));
#2184=CARTESIAN_POINT('',(0.185,0.,0.02));
#2185=CARTESIAN_POINT('',(0.185,0.1525,0.02));
#2186=CARTESIAN_POINT('',(0.185,0.1425,0.22));
#2187=CARTESIAN_POINT('',(0.185,-0.1525,0.02));
#2188=CARTESIAN_POINT('',(0.175,0.1625,0.02));
#2189=CARTESIAN_POINT('',(0.185,-0.1525,0.02));
#2190=CARTESIAN_POINT('',(-0.0825,0.16,0.22));
#2191=CARTESIAN_POINT('',(0.105,0.16,0.22));
#2192=CARTESIAN_POINT('',(0.176464466094067,0.153964466094067,0.22));
#2193=CARTESIAN_POINT('',(0.1825,0.1425,0.22));
#2194=CARTESIAN_POINT('',(0.16161522368915,-0.154671572875254,0.219));
#2195=CARTESIAN_POINT('',(0.16161522368915,-0.154671572875254,0.219));
#2196=CARTESIAN_POINT('',(0.169393398282202,-0.146893398282202,0.12));
#2197=CARTESIAN_POINT('',(0.1755,-0.140786796564404,0.12));
#2198=CARTESIAN_POINT('',(0.16161522368915,0.154671572875254,0.219));
#2199=CARTESIAN_POINT('',(0.16161522368915,0.154671572875254,0.219));
#2200=CARTESIAN_POINT('',(0.169254310985676,0.147032485578728,0.12));
#2201=CARTESIAN_POINT('',(0.1755,0.140786796564404,0.12));
#2202=CARTESIAN_POINT('',(0.172928932188134,0.150428932188134,0.195));
#2203=CARTESIAN_POINT('',(0.172928932188134,-0.150428932188134,0.195));
#2204=CARTESIAN_POINT('',(0.1475,0.,0.04));
#2205=CARTESIAN_POINT('',(0.1755,-1.66533453693773E-16,0.317));
#2206=CARTESIAN_POINT('',(0.1755,0.145,0.317));
#2207=CARTESIAN_POINT('',(0.1775,5.55111512312578E-17,0.317));
#2208=CARTESIAN_POINT('',(0.1775,0.145,0.317));
#2209=CARTESIAN_POINT('',(0.1765,0.145,0.317));
#2210=CARTESIAN_POINT('',(0.1755,-1.66533453693773E-16,0.317));
#2211=CARTESIAN_POINT('',(0.1755,-0.145,0.317));
#2212=CARTESIAN_POINT('',(0.1765,-0.145,0.317));
#2213=CARTESIAN_POINT('',(0.1775,-0.145,0.317));
#2214=CARTESIAN_POINT('',(0.1775,5.55111512312578E-17,0.317));
#2215=CARTESIAN_POINT('',(0.1775,5.55111512312578E-17,0.317));
#2216=CARTESIAN_POINT('',(0.185,9.8375,0.01));
#2217=CARTESIAN_POINT('',(0.115,0.,0.01));
#2218=CARTESIAN_POINT('',(0.105,9.8375,0.01));
#2219=CARTESIAN_POINT('',(0.11,0.1425,0.01));
#2220=CARTESIAN_POINT('',(0.1075,0.1425,0.01));
#2221=CARTESIAN_POINT('',(0.11,0.1325,0.01));
#2222=CARTESIAN_POINT('',(0.1075,0.1325,0.01));
#2223=CARTESIAN_POINT('',(0.105,9.8375,0.12));
#2224=CARTESIAN_POINT('',(0.11,0.1425,-0.005));
#2225=CARTESIAN_POINT('',(0.11,0.1325,-0.005));
#2226=CARTESIAN_POINT('',(0.11,-0.1325,-0.005));
#2227=CARTESIAN_POINT('',(0.11,-0.1425,-0.005));
#2228=CARTESIAN_POINT('',(0.166,0.005,0.005));
#2229=CARTESIAN_POINT('',(0.166,0.005,0.005));
#2230=CARTESIAN_POINT('',(0.1645,0.005,0.005));
#2231=CARTESIAN_POINT('',(0.1645,0.005,0.005));
#2232=CARTESIAN_POINT('',(0.166,-0.005,0.005));
#2233=CARTESIAN_POINT('',(0.1645,-0.005,0.005));
#2234=CARTESIAN_POINT('',(0.1645,-0.005,0.005));
#2235=CARTESIAN_POINT('',(0.166,-0.005,0.005));
#2236=CARTESIAN_POINT('',(0.1645,-3.03576608295941E-17,0.005));
#2237=CARTESIAN_POINT('',(0.1645,-3.03576608295941E-17,0.005));
#2238=CARTESIAN_POINT('',(0.13625,3.05311331771918E-16,0.005));
#2239=CARTESIAN_POINT('',(0.186706332489848,0.0374429002404213,0.002));
#2240=CARTESIAN_POINT('',(0.115,-0.14125,0.01));
#2241=CARTESIAN_POINT('',(0.115,0.,0.01));
#2242=MECHANICAL_DESIGN_GEOMETRIC_PRESENTATION_REPRESENTATION('',(#1406),
#2243);
#2243=(
GEOMETRIC_REPRESENTATION_CONTEXT(3)
GLOBAL_UNCERTAINTY_ASSIGNED_CONTEXT((#2244))
GLOBAL_UNIT_ASSIGNED_CONTEXT((#2247,#2246,#2245))
REPRESENTATION_CONTEXT('Part 1','TOP_LEVEL_ASSEMBLY_PART')
);
#2244=UNCERTAINTY_MEASURE_WITH_UNIT(LENGTH_MEASURE(1.E-8),#2247,
'DISTANCE_ACCURACY_VALUE','Maximum Tolerance applied to model');
#2245=(
NAMED_UNIT(*)
SI_UNIT($,.STERADIAN.)
SOLID_ANGLE_UNIT()
);
#2246=(
NAMED_UNIT(*)
PLANE_ANGLE_UNIT()
SI_UNIT($,.RADIAN.)
);
#2247=(
LENGTH_UNIT()
NAMED_UNIT(*)
SI_UNIT($,.METRE.)
);
#2248=PRODUCT_DEFINITION_SHAPE('','',#2249);
#2249=PRODUCT_DEFINITION('','',#2251,#2250);
#2250=PRODUCT_DEFINITION_CONTEXT('',#2257,'design');
#2251=PRODUCT_DEFINITION_FORMATION_WITH_SPECIFIED_SOURCE('','',#2253,
 .NOT_KNOWN.);
#2252=PRODUCT_RELATED_PRODUCT_CATEGORY('','',(#2253));
#2253=PRODUCT('Part 1','Part 1','Part 1',(#2255));
#2254=PRODUCT_CATEGORY('','');
#2255=PRODUCT_CONTEXT('',#2257,'mechanical');
#2256=APPLICATION_PROTOCOL_DEFINITION('international standard',
'ap242_managed_model_based_3d_engineering',2020,#2257);
#2257=APPLICATION_CONTEXT('managed model based 3d engineering');
ENDSEC;
END-ISO-10303-21;
