ISO-10303-21;
HEADER;
/* Generated by software containing ST-Developer
 * from STEP Tools, Inc. (www.steptools.com) 
 */
/* OPTION: using custom renumber hook */

FILE_DESCRIPTION(
/* description */ ('STEP AP242 Edition 2',
'CAx-IF Rec.Pracs.---Representation and Presentation of Product Manufa
cturing Information (PMI)---4.0---2014-10-13',
'CAx-IF Rec.Pracs.---3D Tessellated Geometry---0.4---2014-09-14','2;1',
'CAx-IF Rec.Pracs.---User Defined Attributes---1.5---2016-08-15'),
/* implementation_level */ '2;1');

FILE_NAME(
/* name */ 'E3D hotend connector',
/* time_stamp */ '2026-06-27T07:27:55Z',
/* author */ (''),
/* organization */ (''),
/* preprocessor_version */ 'ST-DEVELOPER v20',
/* originating_system */ 'ONSHAPE BY PTC INC, 1.217',
/* authorisation */ '  ');

FILE_SCHEMA (('AP242_MANAGED_MODEL_BASED_3D_ENGINEERING_MIM_LF { 1 0 10303 442 3 1 4 }'));
ENDSEC;

DATA;
#10=SHAPE_REPRESENTATION_RELATIONSHIP('','',#527,#11);
#11=ADVANCED_BREP_SHAPE_REPRESENTATION('',(#525),#861);
#12=CYLINDRICAL_SURFACE('',#548,0.0075);
#13=CYLINDRICAL_SURFACE('',#550,0.0075);
#14=CYLINDRICAL_SURFACE('',#552,0.01);
#15=CYLINDRICAL_SURFACE('',#553,0.01);
#16=CYLINDRICAL_SURFACE('',#554,0.01);
#17=CYLINDRICAL_SURFACE('',#571,0.0015);
#18=CYLINDRICAL_SURFACE('',#572,0.0015);
#19=CYLINDRICAL_SURFACE('',#573,0.0015);
#20=CYLINDRICAL_SURFACE('',#574,0.0015);
#21=CYLINDRICAL_SURFACE('',#575,0.0015);
#22=CYLINDRICAL_SURFACE('',#576,0.0015);
#23=CIRCLE('',#530,0.0075);
#24=CIRCLE('',#531,0.0075);
#25=CIRCLE('',#532,0.01);
#26=CIRCLE('',#533,0.01);
#27=CIRCLE('',#534,0.01);
#28=CIRCLE('',#536,0.01);
#29=CIRCLE('',#537,0.01);
#30=CIRCLE('',#538,0.01);
#31=CIRCLE('',#539,0.0075);
#32=CIRCLE('',#540,0.0075);
#33=CIRCLE('',#543,0.0015);
#34=CIRCLE('',#544,0.0015);
#35=CIRCLE('',#557,0.0015);
#36=CIRCLE('',#558,0.0015);
#37=CIRCLE('',#559,0.0015);
#38=CIRCLE('',#560,0.0015);
#39=CIRCLE('',#563,0.0015);
#40=CIRCLE('',#564,0.0015);
#41=CIRCLE('',#565,0.0015);
#42=CIRCLE('',#566,0.0015);
#43=CIRCLE('',#569,0.0015);
#44=CIRCLE('',#570,0.0015);
#45=ORIENTED_EDGE('',*,*,#177,.T.);
#46=ORIENTED_EDGE('',*,*,#178,.F.);
#47=ORIENTED_EDGE('',*,*,#179,.F.);
#48=ORIENTED_EDGE('',*,*,#180,.F.);
#49=ORIENTED_EDGE('',*,*,#181,.F.);
#50=ORIENTED_EDGE('',*,*,#182,.F.);
#51=ORIENTED_EDGE('',*,*,#183,.F.);
#52=ORIENTED_EDGE('',*,*,#184,.F.);
#53=ORIENTED_EDGE('',*,*,#185,.T.);
#54=ORIENTED_EDGE('',*,*,#186,.T.);
#55=ORIENTED_EDGE('',*,*,#187,.T.);
#56=ORIENTED_EDGE('',*,*,#188,.F.);
#57=ORIENTED_EDGE('',*,*,#189,.T.);
#58=ORIENTED_EDGE('',*,*,#190,.T.);
#59=ORIENTED_EDGE('',*,*,#191,.T.);
#60=ORIENTED_EDGE('',*,*,#192,.T.);
#61=ORIENTED_EDGE('',*,*,#193,.F.);
#62=ORIENTED_EDGE('',*,*,#194,.F.);
#63=ORIENTED_EDGE('',*,*,#195,.T.);
#64=ORIENTED_EDGE('',*,*,#196,.T.);
#65=ORIENTED_EDGE('',*,*,#197,.F.);
#66=ORIENTED_EDGE('',*,*,#198,.F.);
#67=ORIENTED_EDGE('',*,*,#199,.T.);
#68=ORIENTED_EDGE('',*,*,#200,.F.);
#69=ORIENTED_EDGE('',*,*,#201,.F.);
#70=ORIENTED_EDGE('',*,*,#202,.F.);
#71=ORIENTED_EDGE('',*,*,#203,.T.);
#72=ORIENTED_EDGE('',*,*,#204,.T.);
#73=ORIENTED_EDGE('',*,*,#205,.T.);
#74=ORIENTED_EDGE('',*,*,#206,.F.);
#75=ORIENTED_EDGE('',*,*,#207,.T.);
#76=ORIENTED_EDGE('',*,*,#208,.T.);
#77=ORIENTED_EDGE('',*,*,#209,.F.);
#78=ORIENTED_EDGE('',*,*,#210,.F.);
#79=ORIENTED_EDGE('',*,*,#211,.T.);
#80=ORIENTED_EDGE('',*,*,#212,.T.);
#81=ORIENTED_EDGE('',*,*,#196,.F.);
#82=ORIENTED_EDGE('',*,*,#213,.T.);
#83=ORIENTED_EDGE('',*,*,#181,.T.);
#84=ORIENTED_EDGE('',*,*,#214,.T.);
#85=ORIENTED_EDGE('',*,*,#215,.F.);
#86=ORIENTED_EDGE('',*,*,#216,.F.);
#87=ORIENTED_EDGE('',*,*,#217,.F.);
#88=ORIENTED_EDGE('',*,*,#189,.F.);
#89=ORIENTED_EDGE('',*,*,#218,.T.);
#90=ORIENTED_EDGE('',*,*,#198,.T.);
#91=ORIENTED_EDGE('',*,*,#219,.F.);
#92=ORIENTED_EDGE('',*,*,#199,.F.);
#93=ORIENTED_EDGE('',*,*,#218,.F.);
#94=ORIENTED_EDGE('',*,*,#188,.T.);
#95=ORIENTED_EDGE('',*,*,#217,.T.);
#96=ORIENTED_EDGE('',*,*,#197,.T.);
#97=ORIENTED_EDGE('',*,*,#214,.F.);
#98=ORIENTED_EDGE('',*,*,#190,.F.);
#99=ORIENTED_EDGE('',*,*,#184,.T.);
#100=ORIENTED_EDGE('',*,*,#220,.T.);
#101=ORIENTED_EDGE('',*,*,#203,.F.);
#102=ORIENTED_EDGE('',*,*,#221,.T.);
#103=ORIENTED_EDGE('',*,*,#178,.T.);
#104=ORIENTED_EDGE('',*,*,#222,.F.);
#105=ORIENTED_EDGE('',*,*,#205,.F.);
#106=ORIENTED_EDGE('',*,*,#223,.T.);
#107=ORIENTED_EDGE('',*,*,#177,.F.);
#108=ORIENTED_EDGE('',*,*,#224,.F.);
#109=ORIENTED_EDGE('',*,*,#206,.T.);
#110=ORIENTED_EDGE('',*,*,#222,.T.);
#111=ORIENTED_EDGE('',*,*,#180,.T.);
#112=ORIENTED_EDGE('',*,*,#225,.F.);
#113=ORIENTED_EDGE('',*,*,#207,.F.);
#114=ORIENTED_EDGE('',*,*,#224,.T.);
#115=ORIENTED_EDGE('',*,*,#179,.T.);
#116=ORIENTED_EDGE('',*,*,#223,.F.);
#117=ORIENTED_EDGE('',*,*,#208,.F.);
#118=ORIENTED_EDGE('',*,*,#225,.T.);
#119=ORIENTED_EDGE('',*,*,#186,.F.);
#120=ORIENTED_EDGE('',*,*,#226,.F.);
#121=ORIENTED_EDGE('',*,*,#201,.T.);
#122=ORIENTED_EDGE('',*,*,#227,.T.);
#123=ORIENTED_EDGE('',*,*,#187,.F.);
#124=ORIENTED_EDGE('',*,*,#227,.F.);
#125=ORIENTED_EDGE('',*,*,#200,.T.);
#126=ORIENTED_EDGE('',*,*,#219,.T.);
#127=ORIENTED_EDGE('',*,*,#185,.F.);
#128=ORIENTED_EDGE('',*,*,#221,.F.);
#129=ORIENTED_EDGE('',*,*,#202,.T.);
#130=ORIENTED_EDGE('',*,*,#226,.T.);
#131=ORIENTED_EDGE('',*,*,#213,.F.);
#132=ORIENTED_EDGE('',*,*,#195,.F.);
#133=ORIENTED_EDGE('',*,*,#228,.T.);
#134=ORIENTED_EDGE('',*,*,#182,.T.);
#135=ORIENTED_EDGE('',*,*,#229,.F.);
#136=ORIENTED_EDGE('',*,*,#230,.F.);
#137=ORIENTED_EDGE('',*,*,#231,.F.);
#138=ORIENTED_EDGE('',*,*,#232,.F.);
#139=ORIENTED_EDGE('',*,*,#228,.F.);
#140=ORIENTED_EDGE('',*,*,#204,.F.);
#141=ORIENTED_EDGE('',*,*,#220,.F.);
#142=ORIENTED_EDGE('',*,*,#183,.T.);
#143=ORIENTED_EDGE('',*,*,#191,.F.);
#144=ORIENTED_EDGE('',*,*,#233,.F.);
#145=ORIENTED_EDGE('',*,*,#210,.T.);
#146=ORIENTED_EDGE('',*,*,#234,.T.);
#147=ORIENTED_EDGE('',*,*,#235,.T.);
#148=ORIENTED_EDGE('',*,*,#236,.T.);
#149=ORIENTED_EDGE('',*,*,#237,.T.);
#150=ORIENTED_EDGE('',*,*,#238,.T.);
#151=ORIENTED_EDGE('',*,*,#194,.T.);
#152=ORIENTED_EDGE('',*,*,#239,.F.);
#153=ORIENTED_EDGE('',*,*,#211,.F.);
#154=ORIENTED_EDGE('',*,*,#233,.T.);
#155=ORIENTED_EDGE('',*,*,#193,.T.);
#156=ORIENTED_EDGE('',*,*,#240,.F.);
#157=ORIENTED_EDGE('',*,*,#212,.F.);
#158=ORIENTED_EDGE('',*,*,#239,.T.);
#159=ORIENTED_EDGE('',*,*,#241,.T.);
#160=ORIENTED_EDGE('',*,*,#242,.T.);
#161=ORIENTED_EDGE('',*,*,#192,.F.);
#162=ORIENTED_EDGE('',*,*,#234,.F.);
#163=ORIENTED_EDGE('',*,*,#209,.T.);
#164=ORIENTED_EDGE('',*,*,#240,.T.);
#165=ORIENTED_EDGE('',*,*,#232,.T.);
#166=ORIENTED_EDGE('',*,*,#238,.F.);
#167=ORIENTED_EDGE('',*,*,#231,.T.);
#168=ORIENTED_EDGE('',*,*,#237,.F.);
#169=ORIENTED_EDGE('',*,*,#230,.T.);
#170=ORIENTED_EDGE('',*,*,#236,.F.);
#171=ORIENTED_EDGE('',*,*,#229,.T.);
#172=ORIENTED_EDGE('',*,*,#235,.F.);
#173=ORIENTED_EDGE('',*,*,#242,.F.);
#174=ORIENTED_EDGE('',*,*,#216,.T.);
#175=ORIENTED_EDGE('',*,*,#241,.F.);
#176=ORIENTED_EDGE('',*,*,#215,.T.);
#177=EDGE_CURVE('',#243,#244,#291,.T.);
#178=EDGE_CURVE('',#245,#244,#23,.T.);
#179=EDGE_CURVE('',#246,#245,#292,.T.);
#180=EDGE_CURVE('',#243,#246,#24,.T.);
#181=EDGE_CURVE('',#247,#248,#293,.T.);
#182=EDGE_CURVE('',#249,#247,#294,.T.);
#183=EDGE_CURVE('',#250,#249,#295,.T.);
#184=EDGE_CURVE('',#251,#250,#296,.T.);
#185=EDGE_CURVE('',#251,#252,#25,.T.);
#186=EDGE_CURVE('',#252,#253,#26,.T.);
#187=EDGE_CURVE('',#253,#254,#27,.T.);
#188=EDGE_CURVE('',#255,#254,#297,.T.);
#189=EDGE_CURVE('',#255,#256,#298,.T.);
#190=EDGE_CURVE('',#256,#248,#299,.T.);
#191=EDGE_CURVE('',#257,#258,#300,.T.);
#192=EDGE_CURVE('',#258,#259,#301,.T.);
#193=EDGE_CURVE('',#260,#259,#302,.T.);
#194=EDGE_CURVE('',#257,#260,#303,.T.);
#195=EDGE_CURVE('',#261,#262,#304,.T.);
#196=EDGE_CURVE('',#262,#263,#305,.T.);
#197=EDGE_CURVE('',#264,#263,#306,.T.);
#198=EDGE_CURVE('',#265,#264,#307,.T.);
#199=EDGE_CURVE('',#265,#266,#308,.T.);
#200=EDGE_CURVE('',#267,#266,#28,.T.);
#201=EDGE_CURVE('',#268,#267,#29,.T.);
#202=EDGE_CURVE('',#269,#268,#30,.T.);
#203=EDGE_CURVE('',#269,#270,#309,.T.);
#204=EDGE_CURVE('',#270,#261,#310,.T.);
#205=EDGE_CURVE('',#271,#272,#31,.T.);
#206=EDGE_CURVE('',#273,#272,#311,.T.);
#207=EDGE_CURVE('',#273,#274,#32,.T.);
#208=EDGE_CURVE('',#274,#271,#312,.T.);
#209=EDGE_CURVE('',#275,#276,#313,.T.);
#210=EDGE_CURVE('',#277,#275,#314,.T.);
#211=EDGE_CURVE('',#277,#278,#315,.T.);
#212=EDGE_CURVE('',#278,#276,#316,.T.);
#213=EDGE_CURVE('',#262,#247,#317,.T.);
#214=EDGE_CURVE('',#248,#263,#318,.T.);
#215=EDGE_CURVE('',#279,#279,#33,.T.);
#216=EDGE_CURVE('',#280,#280,#34,.T.);
#217=EDGE_CURVE('',#256,#264,#319,.T.);
#218=EDGE_CURVE('',#255,#265,#320,.T.);
#219=EDGE_CURVE('',#266,#254,#321,.T.);
#220=EDGE_CURVE('',#250,#270,#322,.T.);
#221=EDGE_CURVE('',#269,#251,#323,.T.);
#222=EDGE_CURVE('',#272,#244,#324,.T.);
#223=EDGE_CURVE('',#271,#245,#325,.T.);
#224=EDGE_CURVE('',#273,#243,#326,.T.);
#225=EDGE_CURVE('',#274,#246,#327,.T.);
#226=EDGE_CURVE('',#268,#252,#328,.T.);
#227=EDGE_CURVE('',#267,#253,#329,.T.);
#228=EDGE_CURVE('',#261,#249,#330,.T.);
#229=EDGE_CURVE('',#281,#281,#35,.T.);
#230=EDGE_CURVE('',#282,#282,#36,.T.);
#231=EDGE_CURVE('',#283,#283,#37,.T.);
#232=EDGE_CURVE('',#284,#284,#38,.T.);
#233=EDGE_CURVE('',#277,#257,#331,.T.);
#234=EDGE_CURVE('',#275,#258,#332,.T.);
#235=EDGE_CURVE('',#285,#285,#39,.T.);
#236=EDGE_CURVE('',#286,#286,#40,.T.);
#237=EDGE_CURVE('',#287,#287,#41,.T.);
#238=EDGE_CURVE('',#288,#288,#42,.T.);
#239=EDGE_CURVE('',#278,#260,#333,.T.);
#240=EDGE_CURVE('',#276,#259,#334,.T.);
#241=EDGE_CURVE('',#289,#289,#43,.T.);
#242=EDGE_CURVE('',#290,#290,#44,.T.);
#243=VERTEX_POINT('',#722);
#244=VERTEX_POINT('',#723);
#245=VERTEX_POINT('',#725);
#246=VERTEX_POINT('',#727);
#247=VERTEX_POINT('',#730);
#248=VERTEX_POINT('',#731);
#249=VERTEX_POINT('',#733);
#250=VERTEX_POINT('',#735);
#251=VERTEX_POINT('',#737);
#252=VERTEX_POINT('',#739);
#253=VERTEX_POINT('',#741);
#254=VERTEX_POINT('',#743);
#255=VERTEX_POINT('',#745);
#256=VERTEX_POINT('',#747);
#257=VERTEX_POINT('',#750);
#258=VERTEX_POINT('',#751);
#259=VERTEX_POINT('',#753);
#260=VERTEX_POINT('',#755);
#261=VERTEX_POINT('',#759);
#262=VERTEX_POINT('',#760);
#263=VERTEX_POINT('',#762);
#264=VERTEX_POINT('',#764);
#265=VERTEX_POINT('',#766);
#266=VERTEX_POINT('',#768);
#267=VERTEX_POINT('',#770);
#268=VERTEX_POINT('',#772);
#269=VERTEX_POINT('',#774);
#270=VERTEX_POINT('',#776);
#271=VERTEX_POINT('',#779);
#272=VERTEX_POINT('',#780);
#273=VERTEX_POINT('',#782);
#274=VERTEX_POINT('',#784);
#275=VERTEX_POINT('',#787);
#276=VERTEX_POINT('',#788);
#277=VERTEX_POINT('',#790);
#278=VERTEX_POINT('',#792);
#279=VERTEX_POINT('',#799);
#280=VERTEX_POINT('',#801);
#281=VERTEX_POINT('',#827);
#282=VERTEX_POINT('',#829);
#283=VERTEX_POINT('',#831);
#284=VERTEX_POINT('',#833);
#285=VERTEX_POINT('',#839);
#286=VERTEX_POINT('',#841);
#287=VERTEX_POINT('',#843);
#288=VERTEX_POINT('',#845);
#289=VERTEX_POINT('',#851);
#290=VERTEX_POINT('',#853);
#291=LINE('',#721,#335);
#292=LINE('',#726,#336);
#293=LINE('',#729,#337);
#294=LINE('',#732,#338);
#295=LINE('',#734,#339);
#296=LINE('',#736,#340);
#297=LINE('',#744,#341);
#298=LINE('',#746,#342);
#299=LINE('',#748,#343);
#300=LINE('',#749,#344);
#301=LINE('',#752,#345);
#302=LINE('',#754,#346);
#303=LINE('',#756,#347);
#304=LINE('',#758,#348);
#305=LINE('',#761,#349);
#306=LINE('',#763,#350);
#307=LINE('',#765,#351);
#308=LINE('',#767,#352);
#309=LINE('',#775,#353);
#310=LINE('',#777,#354);
#311=LINE('',#781,#355);
#312=LINE('',#785,#356);
#313=LINE('',#786,#357);
#314=LINE('',#789,#358);
#315=LINE('',#791,#359);
#316=LINE('',#793,#360);
#317=LINE('',#795,#361);
#318=LINE('',#796,#362);
#319=LINE('',#802,#363);
#320=LINE('',#803,#364);
#321=LINE('',#805,#365);
#322=LINE('',#808,#366);
#323=LINE('',#809,#367);
#324=LINE('',#811,#368);
#325=LINE('',#812,#369);
#326=LINE('',#814,#370);
#327=LINE('',#816,#371);
#328=LINE('',#819,#372);
#329=LINE('',#820,#373);
#330=LINE('',#824,#374);
#331=LINE('',#835,#375);
#332=LINE('',#836,#376);
#333=LINE('',#846,#377);
#334=LINE('',#848,#378);
#335=VECTOR('',#581,1.);
#336=VECTOR('',#584,1.);
#337=VECTOR('',#587,1.);
#338=VECTOR('',#588,1.);
#339=VECTOR('',#589,1.);
#340=VECTOR('',#590,1.);
#341=VECTOR('',#597,1.);
#342=VECTOR('',#598,1.);
#343=VECTOR('',#599,1.);
#344=VECTOR('',#600,1.);
#345=VECTOR('',#601,1.);
#346=VECTOR('',#602,1.);
#347=VECTOR('',#603,1.);
#348=VECTOR('',#606,1.);
#349=VECTOR('',#607,1.);
#350=VECTOR('',#608,1.);
#351=VECTOR('',#609,1.);
#352=VECTOR('',#610,1.);
#353=VECTOR('',#617,1.);
#354=VECTOR('',#618,1.);
#355=VECTOR('',#621,1.);
#356=VECTOR('',#624,1.);
#357=VECTOR('',#625,1.);
#358=VECTOR('',#626,1.);
#359=VECTOR('',#627,1.);
#360=VECTOR('',#628,1.);
#361=VECTOR('',#631,1.);
#362=VECTOR('',#632,1.);
#363=VECTOR('',#639,1.);
#364=VECTOR('',#640,1.);
#365=VECTOR('',#643,1.);
#366=VECTOR('',#648,1.);
#367=VECTOR('',#649,1.);
#368=VECTOR('',#652,1.);
#369=VECTOR('',#653,1.);
#370=VECTOR('',#656,1.);
#371=VECTOR('',#659,1.);
#372=VECTOR('',#664,1.);
#373=VECTOR('',#665,1.);
#374=VECTOR('',#672,1.);
#375=VECTOR('',#685,1.);
#376=VECTOR('',#686,1.);
#377=VECTOR('',#697,1.);
#378=VECTOR('',#700,1.);
#379=EDGE_LOOP('',(#45,#46,#47,#48));
#380=EDGE_LOOP('',(#49,#50,#51,#52,#53,#54,#55,#56,#57,#58));
#381=EDGE_LOOP('',(#59,#60,#61,#62));
#382=EDGE_LOOP('',(#63,#64,#65,#66,#67,#68,#69,#70,#71,#72));
#383=EDGE_LOOP('',(#73,#74,#75,#76));
#384=EDGE_LOOP('',(#77,#78,#79,#80));
#385=EDGE_LOOP('',(#81,#82,#83,#84));
#386=EDGE_LOOP('',(#85));
#387=EDGE_LOOP('',(#86));
#388=EDGE_LOOP('',(#87,#88,#89,#90));
#389=EDGE_LOOP('',(#91,#92,#93,#94));
#390=EDGE_LOOP('',(#95,#96,#97,#98));
#391=EDGE_LOOP('',(#99,#100,#101,#102));
#392=EDGE_LOOP('',(#103,#104,#105,#106));
#393=EDGE_LOOP('',(#107,#108,#109,#110));
#394=EDGE_LOOP('',(#111,#112,#113,#114));
#395=EDGE_LOOP('',(#115,#116,#117,#118));
#396=EDGE_LOOP('',(#119,#120,#121,#122));
#397=EDGE_LOOP('',(#123,#124,#125,#126));
#398=EDGE_LOOP('',(#127,#128,#129,#130));
#399=EDGE_LOOP('',(#131,#132,#133,#134));
#400=EDGE_LOOP('',(#135));
#401=EDGE_LOOP('',(#136));
#402=EDGE_LOOP('',(#137));
#403=EDGE_LOOP('',(#138));
#404=EDGE_LOOP('',(#139,#140,#141,#142));
#405=EDGE_LOOP('',(#143,#144,#145,#146));
#406=EDGE_LOOP('',(#147));
#407=EDGE_LOOP('',(#148));
#408=EDGE_LOOP('',(#149));
#409=EDGE_LOOP('',(#150));
#410=EDGE_LOOP('',(#151,#152,#153,#154));
#411=EDGE_LOOP('',(#155,#156,#157,#158));
#412=EDGE_LOOP('',(#159));
#413=EDGE_LOOP('',(#160));
#414=EDGE_LOOP('',(#161,#162,#163,#164));
#415=EDGE_LOOP('',(#165));
#416=EDGE_LOOP('',(#166));
#417=EDGE_LOOP('',(#167));
#418=EDGE_LOOP('',(#168));
#419=EDGE_LOOP('',(#169));
#420=EDGE_LOOP('',(#170));
#421=EDGE_LOOP('',(#171));
#422=EDGE_LOOP('',(#172));
#423=EDGE_LOOP('',(#173));
#424=EDGE_LOOP('',(#174));
#425=EDGE_LOOP('',(#175));
#426=EDGE_LOOP('',(#176));
#427=FACE_BOUND('',#379,.T.);
#428=FACE_BOUND('',#380,.T.);
#429=FACE_BOUND('',#381,.T.);
#430=FACE_BOUND('',#382,.T.);
#431=FACE_BOUND('',#383,.T.);
#432=FACE_BOUND('',#384,.T.);
#433=FACE_BOUND('',#385,.T.);
#434=FACE_BOUND('',#386,.T.);
#435=FACE_BOUND('',#387,.T.);
#436=FACE_BOUND('',#388,.T.);
#437=FACE_BOUND('',#389,.T.);
#438=FACE_BOUND('',#390,.T.);
#439=FACE_BOUND('',#391,.T.);
#440=FACE_BOUND('',#392,.T.);
#441=FACE_BOUND('',#393,.T.);
#442=FACE_BOUND('',#394,.T.);
#443=FACE_BOUND('',#395,.T.);
#444=FACE_BOUND('',#396,.T.);
#445=FACE_BOUND('',#397,.T.);
#446=FACE_BOUND('',#398,.T.);
#447=FACE_BOUND('',#399,.T.);
#448=FACE_BOUND('',#400,.T.);
#449=FACE_BOUND('',#401,.T.);
#450=FACE_BOUND('',#402,.T.);
#451=FACE_BOUND('',#403,.T.);
#452=FACE_BOUND('',#404,.T.);
#453=FACE_BOUND('',#405,.T.);
#454=FACE_BOUND('',#406,.T.);
#455=FACE_BOUND('',#407,.T.);
#456=FACE_BOUND('',#408,.T.);
#457=FACE_BOUND('',#409,.T.);
#458=FACE_BOUND('',#410,.T.);
#459=FACE_BOUND('',#411,.T.);
#460=FACE_BOUND('',#412,.T.);
#461=FACE_BOUND('',#413,.T.);
#462=FACE_BOUND('',#414,.T.);
#463=FACE_BOUND('',#415,.T.);
#464=FACE_BOUND('',#416,.T.);
#465=FACE_BOUND('',#417,.T.);
#466=FACE_BOUND('',#418,.T.);
#467=FACE_BOUND('',#419,.T.);
#468=FACE_BOUND('',#420,.T.);
#469=FACE_BOUND('',#421,.T.);
#470=FACE_BOUND('',#422,.T.);
#471=FACE_BOUND('',#423,.T.);
#472=FACE_BOUND('',#424,.T.);
#473=FACE_BOUND('',#425,.T.);
#474=FACE_BOUND('',#426,.T.);
#475=PLANE('',#529);
#476=PLANE('',#535);
#477=PLANE('',#541);
#478=PLANE('',#542);
#479=PLANE('',#545);
#480=PLANE('',#546);
#481=PLANE('',#547);
#482=PLANE('',#549);
#483=PLANE('',#551);
#484=PLANE('',#555);
#485=PLANE('',#556);
#486=PLANE('',#561);
#487=PLANE('',#562);
#488=PLANE('',#567);
#489=PLANE('',#568);
#490=ADVANCED_FACE('',(#427,#428,#429),#475,.F.);
#491=ADVANCED_FACE('',(#430,#431,#432),#476,.T.);
#492=ADVANCED_FACE('',(#433),#477,.F.);
#493=ADVANCED_FACE('',(#434,#435,#436),#478,.T.);
#494=ADVANCED_FACE('',(#437),#479,.T.);
#495=ADVANCED_FACE('',(#438),#480,.F.);
#496=ADVANCED_FACE('',(#439),#481,.F.);
#497=ADVANCED_FACE('',(#440),#12,.F.);
#498=ADVANCED_FACE('',(#441),#482,.T.);
#499=ADVANCED_FACE('',(#442),#13,.F.);
#500=ADVANCED_FACE('',(#443),#483,.F.);
#501=ADVANCED_FACE('',(#444),#14,.T.);
#502=ADVANCED_FACE('',(#445),#15,.T.);
#503=ADVANCED_FACE('',(#446),#16,.T.);
#504=ADVANCED_FACE('',(#447),#484,.T.);
#505=ADVANCED_FACE('',(#448,#449,#450,#451,#452),#485,.T.);
#506=ADVANCED_FACE('',(#453),#486,.T.);
#507=ADVANCED_FACE('',(#454,#455,#456,#457,#458),#487,.F.);
#508=ADVANCED_FACE('',(#459),#488,.F.);
#509=ADVANCED_FACE('',(#460,#461,#462),#489,.T.);
#510=ADVANCED_FACE('',(#463,#464),#17,.F.);
#511=ADVANCED_FACE('',(#465,#466),#18,.F.);
#512=ADVANCED_FACE('',(#467,#468),#19,.F.);
#513=ADVANCED_FACE('',(#469,#470),#20,.F.);
#514=ADVANCED_FACE('',(#471,#472),#21,.F.);
#515=ADVANCED_FACE('',(#473,#474),#22,.F.);
#516=CLOSED_SHELL('',(#490,#491,#492,#493,#494,#495,#496,#497,#498,#499,
#500,#501,#502,#503,#504,#505,#506,#507,#508,#509,#510,#511,#512,#513,#514,
#515));
#517=STYLED_ITEM('',(#518),#525);
#518=PRESENTATION_STYLE_ASSIGNMENT((#519));
#519=SURFACE_STYLE_USAGE(.BOTH.,#520);
#520=SURFACE_SIDE_STYLE('',(#521));
#521=SURFACE_STYLE_FILL_AREA(#522);
#522=FILL_AREA_STYLE('',(#523));
#523=FILL_AREA_STYLE_COLOUR('',#524);
#524=COLOUR_RGB('',0.43921568627451,0.474509803921569,0.501960784313726);
#525=MANIFOLD_SOLID_BREP('Part 1',#516);
#526=SHAPE_DEFINITION_REPRESENTATION(#866,#527);
#527=SHAPE_REPRESENTATION('Part 1',(#528),#861);
#528=AXIS2_PLACEMENT_3D('',#719,#577,#578);
#529=AXIS2_PLACEMENT_3D('',#720,#579,#580);
#530=AXIS2_PLACEMENT_3D('',#724,#582,#583);
#531=AXIS2_PLACEMENT_3D('',#728,#585,#586);
#532=AXIS2_PLACEMENT_3D('',#738,#591,#592);
#533=AXIS2_PLACEMENT_3D('',#740,#593,#594);
#534=AXIS2_PLACEMENT_3D('',#742,#595,#596);
#535=AXIS2_PLACEMENT_3D('',#757,#604,#605);
#536=AXIS2_PLACEMENT_3D('',#769,#611,#612);
#537=AXIS2_PLACEMENT_3D('',#771,#613,#614);
#538=AXIS2_PLACEMENT_3D('',#773,#615,#616);
#539=AXIS2_PLACEMENT_3D('',#778,#619,#620);
#540=AXIS2_PLACEMENT_3D('',#783,#622,#623);
#541=AXIS2_PLACEMENT_3D('',#794,#629,#630);
#542=AXIS2_PLACEMENT_3D('',#797,#633,#634);
#543=AXIS2_PLACEMENT_3D('',#798,#635,#636);
#544=AXIS2_PLACEMENT_3D('',#800,#637,#638);
#545=AXIS2_PLACEMENT_3D('',#804,#641,#642);
#546=AXIS2_PLACEMENT_3D('',#806,#644,#645);
#547=AXIS2_PLACEMENT_3D('',#807,#646,#647);
#548=AXIS2_PLACEMENT_3D('',#810,#650,#651);
#549=AXIS2_PLACEMENT_3D('',#813,#654,#655);
#550=AXIS2_PLACEMENT_3D('',#815,#657,#658);
#551=AXIS2_PLACEMENT_3D('',#817,#660,#661);
#552=AXIS2_PLACEMENT_3D('',#818,#662,#663);
#553=AXIS2_PLACEMENT_3D('',#821,#666,#667);
#554=AXIS2_PLACEMENT_3D('',#822,#668,#669);
#555=AXIS2_PLACEMENT_3D('',#823,#670,#671);
#556=AXIS2_PLACEMENT_3D('',#825,#673,#674);
#557=AXIS2_PLACEMENT_3D('',#826,#675,#676);
#558=AXIS2_PLACEMENT_3D('',#828,#677,#678);
#559=AXIS2_PLACEMENT_3D('',#830,#679,#680);
#560=AXIS2_PLACEMENT_3D('',#832,#681,#682);
#561=AXIS2_PLACEMENT_3D('',#834,#683,#684);
#562=AXIS2_PLACEMENT_3D('',#837,#687,#688);
#563=AXIS2_PLACEMENT_3D('',#838,#689,#690);
#564=AXIS2_PLACEMENT_3D('',#840,#691,#692);
#565=AXIS2_PLACEMENT_3D('',#842,#693,#694);
#566=AXIS2_PLACEMENT_3D('',#844,#695,#696);
#567=AXIS2_PLACEMENT_3D('',#847,#698,#699);
#568=AXIS2_PLACEMENT_3D('',#849,#701,#702);
#569=AXIS2_PLACEMENT_3D('',#850,#703,#704);
#570=AXIS2_PLACEMENT_3D('',#852,#705,#706);
#571=AXIS2_PLACEMENT_3D('',#854,#707,#708);
#572=AXIS2_PLACEMENT_3D('',#855,#709,#710);
#573=AXIS2_PLACEMENT_3D('',#856,#711,#712);
#574=AXIS2_PLACEMENT_3D('',#857,#713,#714);
#575=AXIS2_PLACEMENT_3D('',#858,#715,#716);
#576=AXIS2_PLACEMENT_3D('',#859,#717,#718);
#577=DIRECTION('',(0.,0.,1.));
#578=DIRECTION('',(1.,0.,0.));
#579=DIRECTION('',(0.,-1.,0.));
#580=DIRECTION('',(0.,0.,-1.));
#581=DIRECTION('',(-1.,0.,0.));
#582=DIRECTION('',(0.,1.,0.));
#583=DIRECTION('',(0.,0.,1.));
#584=DIRECTION('',(-1.,0.,0.));
#585=DIRECTION('',(0.,1.,0.));
#586=DIRECTION('',(0.,0.,1.));
#587=DIRECTION('',(0.,0.,-1.));
#588=DIRECTION('',(1.,-5.78241158658936E-17,0.));
#589=DIRECTION('',(0.,0.,-1.));
#590=DIRECTION('',(1.,-5.78241158658936E-17,0.));
#591=DIRECTION('',(0.,1.,0.));
#592=DIRECTION('',(0.,0.,1.));
#593=DIRECTION('',(0.,1.,0.));
#594=DIRECTION('',(0.,0.,1.));
#595=DIRECTION('',(0.,1.,0.));
#596=DIRECTION('',(0.,0.,1.));
#597=DIRECTION('',(-1.,0.,0.));
#598=DIRECTION('',(0.,0.,-1.));
#599=DIRECTION('',(-1.,0.,0.));
#600=DIRECTION('',(1.,0.,0.));
#601=DIRECTION('',(1.68653671275523E-16,0.,1.));
#602=DIRECTION('',(1.,0.,-5.33761069531325E-16));
#603=DIRECTION('',(0.,0.,1.));
#604=DIRECTION('',(0.,-1.,0.));
#605=DIRECTION('',(0.,0.,-1.));
#606=DIRECTION('',(1.,-5.78241158658936E-17,0.));
#607=DIRECTION('',(0.,0.,-1.));
#608=DIRECTION('',(-1.,0.,0.));
#609=DIRECTION('',(0.,0.,-1.));
#610=DIRECTION('',(-1.,0.,0.));
#611=DIRECTION('',(0.,1.,0.));
#612=DIRECTION('',(0.,0.,1.));
#613=DIRECTION('',(0.,1.,0.));
#614=DIRECTION('',(0.,0.,1.));
#615=DIRECTION('',(0.,1.,0.));
#616=DIRECTION('',(0.,0.,1.));
#617=DIRECTION('',(1.,-5.78241158658936E-17,0.));
#618=DIRECTION('',(0.,0.,-1.));
#619=DIRECTION('',(0.,1.,0.));
#620=DIRECTION('',(0.,0.,1.));
#621=DIRECTION('',(-1.,0.,0.));
#622=DIRECTION('',(0.,1.,0.));
#623=DIRECTION('',(0.,0.,1.));
#624=DIRECTION('',(-1.,0.,0.));
#625=DIRECTION('',(1.68653671275523E-16,0.,1.));
#626=DIRECTION('',(1.,0.,0.));
#627=DIRECTION('',(0.,0.,1.));
#628=DIRECTION('',(1.,0.,-5.33761069531325E-16));
#629=DIRECTION('',(1.,-5.78241158658936E-17,0.));
#630=DIRECTION('',(5.78241158658936E-17,1.,0.));
#631=DIRECTION('',(5.78241158658936E-17,1.,-1.15648231731787E-16));
#632=DIRECTION('',(-5.78241158658936E-17,-1.,0.));
#633=DIRECTION('',(1.,-5.78241158658936E-17,0.));
#634=DIRECTION('',(5.78241158658936E-17,1.,0.));
#635=DIRECTION('',(1.,-5.78241158658936E-17,0.));
#636=DIRECTION('',(5.78241158658936E-17,1.,0.));
#637=DIRECTION('',(1.,-5.78241158658936E-17,0.));
#638=DIRECTION('',(5.78241158658936E-17,1.,0.));
#639=DIRECTION('',(-5.78241158658936E-17,-1.,0.));
#640=DIRECTION('',(-5.78241158658936E-17,-1.,0.));
#641=DIRECTION('',(0.,0.,1.));
#642=DIRECTION('',(1.,0.,0.));
#643=DIRECTION('',(0.,1.,0.));
#644=DIRECTION('',(0.,0.,1.));
#645=DIRECTION('',(1.,0.,0.));
#646=DIRECTION('',(0.,0.,1.));
#647=DIRECTION('',(1.,0.,0.));
#648=DIRECTION('',(-5.78241158658936E-17,-1.,0.));
#649=DIRECTION('',(0.,1.,0.));
#650=DIRECTION('',(0.,1.,0.));
#651=DIRECTION('',(0.,0.,1.));
#652=DIRECTION('',(0.,1.,0.));
#653=DIRECTION('',(0.,1.,0.));
#654=DIRECTION('',(0.,0.,-1.));
#655=DIRECTION('',(-1.,0.,0.));
#656=DIRECTION('',(0.,1.,0.));
#657=DIRECTION('',(0.,1.,0.));
#658=DIRECTION('',(0.,0.,1.));
#659=DIRECTION('',(0.,1.,0.));
#660=DIRECTION('',(0.,0.,-1.));
#661=DIRECTION('',(-1.,0.,0.));
#662=DIRECTION('',(0.,1.,0.));
#663=DIRECTION('',(0.,0.,1.));
#664=DIRECTION('',(0.,1.,0.));
#665=DIRECTION('',(0.,1.,0.));
#666=DIRECTION('',(0.,1.,0.));
#667=DIRECTION('',(0.,0.,1.));
#668=DIRECTION('',(0.,1.,0.));
#669=DIRECTION('',(0.,0.,1.));
#670=DIRECTION('',(-6.68725675134457E-33,-1.15648231731787E-16,-1.));
#671=DIRECTION('',(0.,1.,-1.15648231731787E-16));
#672=DIRECTION('',(5.78241158658936E-17,1.,-1.15648231731787E-16));
#673=DIRECTION('',(-1.,5.78241158658936E-17,0.));
#674=DIRECTION('',(-5.78241158658936E-17,-1.,0.));
#675=DIRECTION('',(-1.,5.78241158658936E-17,0.));
#676=DIRECTION('',(-5.78241158658936E-17,-1.,0.));
#677=DIRECTION('',(-1.,5.78241158658936E-17,0.));
#678=DIRECTION('',(-5.78241158658936E-17,-1.,0.));
#679=DIRECTION('',(-1.,5.78241158658936E-17,0.));
#680=DIRECTION('',(-5.78241158658936E-17,-1.,0.));
#681=DIRECTION('',(-1.,5.78241158658936E-17,0.));
#682=DIRECTION('',(-5.78241158658936E-17,-1.,0.));
#683=DIRECTION('',(0.,0.,1.));
#684=DIRECTION('',(1.,0.,0.));
#685=DIRECTION('',(0.,1.,0.));
#686=DIRECTION('',(0.,1.,0.));
#687=DIRECTION('',(-1.,0.,0.));
#688=DIRECTION('',(0.,0.,1.));
#689=DIRECTION('',(-1.,0.,0.));
#690=DIRECTION('',(0.,0.,1.));
#691=DIRECTION('',(-1.,0.,0.));
#692=DIRECTION('',(0.,0.,1.));
#693=DIRECTION('',(-1.,0.,0.));
#694=DIRECTION('',(0.,0.,1.));
#695=DIRECTION('',(-1.,0.,0.));
#696=DIRECTION('',(0.,0.,1.));
#697=DIRECTION('',(0.,1.,0.));
#698=DIRECTION('',(5.33761069531325E-16,0.,1.));
#699=DIRECTION('',(1.,0.,-5.33761069531325E-16));
#700=DIRECTION('',(0.,1.,0.));
#701=DIRECTION('',(-1.,0.,1.68653671275523E-16));
#702=DIRECTION('',(1.68653671275523E-16,0.,1.));
#703=DIRECTION('',(1.,-5.78241158658936E-17,0.));
#704=DIRECTION('',(5.78241158658936E-17,1.,0.));
#705=DIRECTION('',(1.,-5.78241158658936E-17,0.));
#706=DIRECTION('',(5.78241158658936E-17,1.,0.));
#707=DIRECTION('',(-1.,5.78241158658936E-17,0.));
#708=DIRECTION('',(-5.78241158658936E-17,-1.,0.));
#709=DIRECTION('',(-1.,5.78241158658936E-17,0.));
#710=DIRECTION('',(-5.78241158658936E-17,-1.,0.));
#711=DIRECTION('',(-1.,5.78241158658936E-17,0.));
#712=DIRECTION('',(-5.78241158658936E-17,-1.,0.));
#713=DIRECTION('',(-1.,5.78241158658936E-17,0.));
#714=DIRECTION('',(-5.78241158658936E-17,-1.,0.));
#715=DIRECTION('',(1.,-5.78241158658936E-17,0.));
#716=DIRECTION('',(5.78241158658936E-17,1.,0.));
#717=DIRECTION('',(1.,-5.78241158658936E-17,0.));
#718=DIRECTION('',(5.78241158658936E-17,1.,0.));
#719=CARTESIAN_POINT('',(0.,0.,0.));
#720=CARTESIAN_POINT('',(4.33680868994202E-19,0.015,0.045));
#721=CARTESIAN_POINT('',(-0.02125,0.015,0.04));
#722=CARTESIAN_POINT('',(-0.0193401699437495,0.015,0.04));
#723=CARTESIAN_POINT('',(-0.0231598300562505,0.015,0.04));
#724=CARTESIAN_POINT('',(-0.02875,0.015,0.035));
#725=CARTESIAN_POINT('',(-0.0231598300562505,0.015,0.03));
#726=CARTESIAN_POINT('',(-0.0197149579529526,0.015,0.03));
#727=CARTESIAN_POINT('',(-0.0193401699437494,0.015,0.03));
#728=CARTESIAN_POINT('',(-0.01375,0.015,0.035));
#729=CARTESIAN_POINT('',(-0.00375,0.015,0.045));
#730=CARTESIAN_POINT('',(-0.00375,0.015,0.014));
#731=CARTESIAN_POINT('',(-0.00375,0.015,0.));
#732=CARTESIAN_POINT('',(-0.01275,0.015,0.014));
#733=CARTESIAN_POINT('',(-0.01275,0.015,0.014));
#734=CARTESIAN_POINT('',(-0.01275,0.015,0.045));
#735=CARTESIAN_POINT('',(-0.01275,0.015,0.025));
#736=CARTESIAN_POINT('',(-0.03875,0.015,0.025));
#737=CARTESIAN_POINT('',(-0.01375,0.015,0.025));
#738=CARTESIAN_POINT('',(-0.01375,0.015,0.035));
#739=CARTESIAN_POINT('',(-0.02125,0.015,0.0283856217223385));
#740=CARTESIAN_POINT('',(-0.02875,0.015,0.035));
#741=CARTESIAN_POINT('',(-0.02125,0.015,0.0416143782776615));
#742=CARTESIAN_POINT('',(-0.01375,0.015,0.035));
#743=CARTESIAN_POINT('',(-0.01375,0.015,0.045));
#744=CARTESIAN_POINT('',(4.33680868994202E-19,0.015,0.045));
#745=CARTESIAN_POINT('',(0.00375,0.015,0.045));
#746=CARTESIAN_POINT('',(0.00375,0.015,0.045));
#747=CARTESIAN_POINT('',(0.00375,0.015,0.));
#748=CARTESIAN_POINT('',(4.33680868994202E-19,0.015,0.));
#749=CARTESIAN_POINT('',(-0.0075,0.015,0.016));
#750=CARTESIAN_POINT('',(-0.01075,0.015,0.016));
#751=CARTESIAN_POINT('',(0.00175,0.015,0.016));
#752=CARTESIAN_POINT('',(0.00175,0.015,0.0205));
#753=CARTESIAN_POINT('',(0.00175,0.015,0.025));
#754=CARTESIAN_POINT('',(-0.0075,0.015,0.025));
#755=CARTESIAN_POINT('',(-0.01075,0.015,0.025));
#756=CARTESIAN_POINT('',(-0.01075,0.015,0.0205));
#757=CARTESIAN_POINT('',(-1.3010426069826E-18,-0.015,0.045));
#758=CARTESIAN_POINT('',(-0.01275,-0.015,0.014));
#759=CARTESIAN_POINT('',(-0.01275,-0.015,0.014));
#760=CARTESIAN_POINT('',(-0.00375,-0.015,0.014));
#761=CARTESIAN_POINT('',(-0.00375,-0.015,0.045));
#762=CARTESIAN_POINT('',(-0.00375,-0.015,0.));
#763=CARTESIAN_POINT('',(-1.3010426069826E-18,-0.015,0.));
#764=CARTESIAN_POINT('',(0.00375,-0.015,0.));
#765=CARTESIAN_POINT('',(0.00375,-0.015,0.045));
#766=CARTESIAN_POINT('',(0.00375,-0.015,0.045));
#767=CARTESIAN_POINT('',(-1.3010426069826E-18,-0.015,0.045));
#768=CARTESIAN_POINT('',(-0.01375,-0.015,0.045));
#769=CARTESIAN_POINT('',(-0.01375,-0.015,0.035));
#770=CARTESIAN_POINT('',(-0.02125,-0.015,0.0416143782776615));
#771=CARTESIAN_POINT('',(-0.02875,-0.015,0.035));
#772=CARTESIAN_POINT('',(-0.02125,-0.015,0.0283856217223385));
#773=CARTESIAN_POINT('',(-0.01375,-0.015,0.035));
#774=CARTESIAN_POINT('',(-0.01375,-0.015,0.025));
#775=CARTESIAN_POINT('',(-0.03875,-0.015,0.025));
#776=CARTESIAN_POINT('',(-0.01275,-0.015,0.025));
#777=CARTESIAN_POINT('',(-0.01275,-0.015,0.045));
#778=CARTESIAN_POINT('',(-0.02875,-0.015,0.035));
#779=CARTESIAN_POINT('',(-0.0231598300562505,-0.015,0.03));
#780=CARTESIAN_POINT('',(-0.0231598300562505,-0.015,0.04));
#781=CARTESIAN_POINT('',(-0.02125,-0.015,0.04));
#782=CARTESIAN_POINT('',(-0.0193401699437495,-0.015,0.04));
#783=CARTESIAN_POINT('',(-0.01375,-0.015,0.035));
#784=CARTESIAN_POINT('',(-0.0193401699437494,-0.015,0.03));
#785=CARTESIAN_POINT('',(-0.0197149579529526,-0.015,0.03));
#786=CARTESIAN_POINT('',(0.00175,-0.015,0.0205));
#787=CARTESIAN_POINT('',(0.00175,-0.015,0.016));
#788=CARTESIAN_POINT('',(0.00175,-0.015,0.025));
#789=CARTESIAN_POINT('',(-0.0075,-0.015,0.016));
#790=CARTESIAN_POINT('',(-0.01075,-0.015,0.016));
#791=CARTESIAN_POINT('',(-0.01075,-0.015,0.0205));
#792=CARTESIAN_POINT('',(-0.01075,-0.015,0.025));
#793=CARTESIAN_POINT('',(-0.0075,-0.015,0.025));
#794=CARTESIAN_POINT('',(-0.00375,1.7347234759768E-18,0.045));
#795=CARTESIAN_POINT('',(-0.00375,7.25033829777614E-52,0.014));
#796=CARTESIAN_POINT('',(-0.00375,1.7347234759768E-18,0.));
#797=CARTESIAN_POINT('',(0.00375,1.7347234759768E-18,0.045));
#798=CARTESIAN_POINT('',(0.00375,-0.01125,0.02));
#799=CARTESIAN_POINT('',(0.00375,-0.00975,0.02));
#800=CARTESIAN_POINT('',(0.00375,0.01125,0.02));
#801=CARTESIAN_POINT('',(0.00375,0.01275,0.02));
#802=CARTESIAN_POINT('',(0.00375,1.7347234759768E-18,0.));
#803=CARTESIAN_POINT('',(0.00375,1.7347234759768E-18,0.045));
#804=CARTESIAN_POINT('',(0.,0.,0.045));
#805=CARTESIAN_POINT('',(-0.01375,-0.015,0.045));
#806=CARTESIAN_POINT('',(0.,0.,0.));
#807=CARTESIAN_POINT('',(-0.03875,2.02384405530627E-18,0.025));
#808=CARTESIAN_POINT('',(-0.01275,5.20417042793042E-19,0.025));
#809=CARTESIAN_POINT('',(-0.01375,-0.015,0.025));
#810=CARTESIAN_POINT('',(-0.02875,-0.015,0.035));
#811=CARTESIAN_POINT('',(-0.0231598300562505,-0.015,0.04));
#812=CARTESIAN_POINT('',(-0.0231598300562505,-0.015,0.03));
#813=CARTESIAN_POINT('',(-0.02125,-0.015,0.04));
#814=CARTESIAN_POINT('',(-0.0193401699437495,-0.015,0.04));
#815=CARTESIAN_POINT('',(-0.01375,-0.015,0.035));
#816=CARTESIAN_POINT('',(-0.0193401699437494,-0.015,0.03));
#817=CARTESIAN_POINT('',(-0.0197149579529526,-0.015,0.03));
#818=CARTESIAN_POINT('',(-0.02875,-0.015,0.035));
#819=CARTESIAN_POINT('',(-0.02125,-0.015,0.0283856217223385));
#820=CARTESIAN_POINT('',(-0.02125,-0.015,0.0416143782776615));
#821=CARTESIAN_POINT('',(-0.01375,-0.015,0.035));
#822=CARTESIAN_POINT('',(-0.01375,-0.015,0.035));
#823=CARTESIAN_POINT('',(-0.01275,5.20417042793042E-19,0.014));
#824=CARTESIAN_POINT('',(-0.01275,5.20417042793042E-19,0.014));
#825=CARTESIAN_POINT('',(-0.01275,7.37257477290143E-19,0.0125));
#826=CARTESIAN_POINT('',(-0.01275,0.009,0.0195));
#827=CARTESIAN_POINT('',(-0.01275,0.0075,0.0195));
#828=CARTESIAN_POINT('',(-0.01275,0.003,0.0195));
#829=CARTESIAN_POINT('',(-0.01275,0.0015,0.0195));
#830=CARTESIAN_POINT('',(-0.01275,-0.003,0.0195));
#831=CARTESIAN_POINT('',(-0.01275,-0.0045,0.0195));
#832=CARTESIAN_POINT('',(-0.01275,-0.009,0.0195));
#833=CARTESIAN_POINT('',(-0.01275,-0.0105,0.0195));
#834=CARTESIAN_POINT('',(-0.0075,-0.015,0.016));
#835=CARTESIAN_POINT('',(-0.01075,-0.015,0.016));
#836=CARTESIAN_POINT('',(0.00175,-0.015,0.016));
#837=CARTESIAN_POINT('',(-0.01075,-0.015,0.0205));
#838=CARTESIAN_POINT('',(-0.01075,0.009,0.0195));
#839=CARTESIAN_POINT('',(-0.01075,0.009,0.021));
#840=CARTESIAN_POINT('',(-0.01075,0.003,0.0195));
#841=CARTESIAN_POINT('',(-0.01075,0.003,0.021));
#842=CARTESIAN_POINT('',(-0.01075,-0.003,0.0195));
#843=CARTESIAN_POINT('',(-0.01075,-0.003,0.021));
#844=CARTESIAN_POINT('',(-0.01075,-0.009,0.0195));
#845=CARTESIAN_POINT('',(-0.01075,-0.009,0.021));
#846=CARTESIAN_POINT('',(-0.01075,-0.015,0.025));
#847=CARTESIAN_POINT('',(-0.0075,-0.015,0.025));
#848=CARTESIAN_POINT('',(0.00175,-0.015,0.025));
#849=CARTESIAN_POINT('',(0.00175,-0.015,0.0205));
#850=CARTESIAN_POINT('',(0.00175,-0.01125,0.02));
#851=CARTESIAN_POINT('',(0.00175,-0.00975,0.02));
#852=CARTESIAN_POINT('',(0.00175,0.01125,0.02));
#853=CARTESIAN_POINT('',(0.00175,0.01275,0.02));
#854=CARTESIAN_POINT('',(-0.00275,-0.009,0.0195));
#855=CARTESIAN_POINT('',(-0.00275,-0.003,0.0195));
#856=CARTESIAN_POINT('',(-0.00275,0.003,0.0195));
#857=CARTESIAN_POINT('',(-0.00275,0.009,0.0195));
#858=CARTESIAN_POINT('',(0.00175,0.01125,0.02));
#859=CARTESIAN_POINT('',(0.00175,-0.01125,0.02));
#860=MECHANICAL_DESIGN_GEOMETRIC_PRESENTATION_REPRESENTATION('',(#517),
#861);
#861=(
GEOMETRIC_REPRESENTATION_CONTEXT(3)
GLOBAL_UNCERTAINTY_ASSIGNED_CONTEXT((#862))
GLOBAL_UNIT_ASSIGNED_CONTEXT((#865,#864,#863))
REPRESENTATION_CONTEXT('Part 1','TOP_LEVEL_ASSEMBLY_PART')
);
#862=UNCERTAINTY_MEASURE_WITH_UNIT(LENGTH_MEASURE(1.E-8),#865,
'DISTANCE_ACCURACY_VALUE','Maximum Tolerance applied to model');
#863=(
NAMED_UNIT(*)
SI_UNIT($,.STERADIAN.)
SOLID_ANGLE_UNIT()
);
#864=(
NAMED_UNIT(*)
PLANE_ANGLE_UNIT()
SI_UNIT($,.RADIAN.)
);
#865=(
LENGTH_UNIT()
NAMED_UNIT(*)
SI_UNIT($,.METRE.)
);
#866=PRODUCT_DEFINITION_SHAPE('','',#867);
#867=PRODUCT_DEFINITION('','',#869,#868);
#868=PRODUCT_DEFINITION_CONTEXT('',#875,'design');
#869=PRODUCT_DEFINITION_FORMATION_WITH_SPECIFIED_SOURCE('','',#871,
 .NOT_KNOWN.);
#870=PRODUCT_RELATED_PRODUCT_CATEGORY('','',(#871));
#871=PRODUCT('Part 1','Part 1','Part 1',(#873));
#872=PRODUCT_CATEGORY('','');
#873=PRODUCT_CONTEXT('',#875,'mechanical');
#874=APPLICATION_PROTOCOL_DEFINITION('international standard',
'ap242_managed_model_based_3d_engineering',2020,#875);
#875=APPLICATION_CONTEXT('managed model based 3d engineering');
ENDSEC;
END-ISO-10303-21;
