ISO-10303-21;
HEADER;
/* Generated by software containing ST-Developer
 * from STEP Tools, Inc. (www.steptools.com) 
 */
/* OPTION: using custom renumber hook */

FILE_DESCRIPTION(
/* description */ ('STEP AP242 Edition 2',
'CAx-IF Rec.Pracs.---Representation and Presentation of Product Manufa
cturing Information (PMI)---4.0---2014-10-13',
'CAx-IF Rec.Pracs.---3D Tessellated Geometry---0.4---2014-09-14','2;1',
'CAx-IF Rec.Pracs.---User Defined Attributes---1.5---2016-08-15'),
/* implementation_level */ '2;1');

FILE_NAME(
/* name */ 'E3D hotend holder',
/* time_stamp */ '2026-06-27T07:37:10Z',
/* author */ (''),
/* organization */ (''),
/* preprocessor_version */ 'ST-DEVELOPER v20',
/* originating_system */ 'ONSHAPE BY PTC INC, 1.217',
/* authorisation */ '  ');

FILE_SCHEMA (('AP242_MANAGED_MODEL_BASED_3D_ENGINEERING_MIM_LF { 1 0 10303 442 3 1 4 }'));
ENDSEC;

DATA;
#10=SHAPE_REPRESENTATION_RELATIONSHIP('','',#319,#11);
#11=ADVANCED_BREP_SHAPE_REPRESENTATION('',(#317),#513);
#12=CYLINDRICAL_SURFACE('',#328,0.0075);
#13=CYLINDRICAL_SURFACE('',#338,0.006);
#14=CYLINDRICAL_SURFACE('',#343,0.0015);
#15=CYLINDRICAL_SURFACE('',#344,0.0015);
#16=CIRCLE('',#323,0.0015);
#17=CIRCLE('',#326,0.0015);
#18=CIRCLE('',#329,0.0075);
#19=CIRCLE('',#330,0.0075);
#20=CIRCLE('',#333,0.0015);
#21=CIRCLE('',#336,0.0015);
#22=CIRCLE('',#339,0.006);
#23=CIRCLE('',#340,0.006);
#24=ORIENTED_EDGE('',*,*,#104,.F.);
#25=ORIENTED_EDGE('',*,*,#105,.F.);
#26=ORIENTED_EDGE('',*,*,#106,.T.);
#27=ORIENTED_EDGE('',*,*,#107,.T.);
#28=ORIENTED_EDGE('',*,*,#108,.F.);
#29=ORIENTED_EDGE('',*,*,#109,.F.);
#30=ORIENTED_EDGE('',*,*,#110,.F.);
#31=ORIENTED_EDGE('',*,*,#111,.T.);
#32=ORIENTED_EDGE('',*,*,#105,.T.);
#33=ORIENTED_EDGE('',*,*,#112,.T.);
#34=ORIENTED_EDGE('',*,*,#113,.F.);
#35=ORIENTED_EDGE('',*,*,#114,.F.);
#36=ORIENTED_EDGE('',*,*,#110,.T.);
#37=ORIENTED_EDGE('',*,*,#115,.F.);
#38=ORIENTED_EDGE('',*,*,#116,.T.);
#39=ORIENTED_EDGE('',*,*,#117,.F.);
#40=ORIENTED_EDGE('',*,*,#118,.F.);
#41=ORIENTED_EDGE('',*,*,#113,.T.);
#42=ORIENTED_EDGE('',*,*,#119,.F.);
#43=ORIENTED_EDGE('',*,*,#120,.F.);
#44=ORIENTED_EDGE('',*,*,#121,.T.);
#45=ORIENTED_EDGE('',*,*,#117,.T.);
#46=ORIENTED_EDGE('',*,*,#122,.T.);
#47=ORIENTED_EDGE('',*,*,#123,.F.);
#48=ORIENTED_EDGE('',*,*,#124,.F.);
#49=ORIENTED_EDGE('',*,*,#120,.T.);
#50=ORIENTED_EDGE('',*,*,#125,.T.);
#51=ORIENTED_EDGE('',*,*,#126,.F.);
#52=ORIENTED_EDGE('',*,*,#127,.F.);
#53=ORIENTED_EDGE('',*,*,#123,.T.);
#54=ORIENTED_EDGE('',*,*,#128,.F.);
#55=ORIENTED_EDGE('',*,*,#129,.T.);
#56=ORIENTED_EDGE('',*,*,#130,.F.);
#57=ORIENTED_EDGE('',*,*,#131,.F.);
#58=ORIENTED_EDGE('',*,*,#126,.T.);
#59=ORIENTED_EDGE('',*,*,#132,.F.);
#60=ORIENTED_EDGE('',*,*,#133,.F.);
#61=ORIENTED_EDGE('',*,*,#134,.T.);
#62=ORIENTED_EDGE('',*,*,#130,.T.);
#63=ORIENTED_EDGE('',*,*,#135,.F.);
#64=ORIENTED_EDGE('',*,*,#136,.F.);
#65=ORIENTED_EDGE('',*,*,#137,.F.);
#66=ORIENTED_EDGE('',*,*,#138,.T.);
#67=ORIENTED_EDGE('',*,*,#133,.T.);
#68=ORIENTED_EDGE('',*,*,#139,.T.);
#69=ORIENTED_EDGE('',*,*,#140,.F.);
#70=ORIENTED_EDGE('',*,*,#141,.F.);
#71=ORIENTED_EDGE('',*,*,#137,.T.);
#72=ORIENTED_EDGE('',*,*,#142,.F.);
#73=ORIENTED_EDGE('',*,*,#107,.F.);
#74=ORIENTED_EDGE('',*,*,#143,.T.);
#75=ORIENTED_EDGE('',*,*,#140,.T.);
#76=ORIENTED_EDGE('',*,*,#106,.F.);
#77=ORIENTED_EDGE('',*,*,#111,.F.);
#78=ORIENTED_EDGE('',*,*,#114,.T.);
#79=ORIENTED_EDGE('',*,*,#118,.T.);
#80=ORIENTED_EDGE('',*,*,#121,.F.);
#81=ORIENTED_EDGE('',*,*,#124,.T.);
#82=ORIENTED_EDGE('',*,*,#127,.T.);
#83=ORIENTED_EDGE('',*,*,#131,.T.);
#84=ORIENTED_EDGE('',*,*,#134,.F.);
#85=ORIENTED_EDGE('',*,*,#138,.F.);
#86=ORIENTED_EDGE('',*,*,#141,.T.);
#87=ORIENTED_EDGE('',*,*,#143,.F.);
#88=ORIENTED_EDGE('',*,*,#104,.T.);
#89=ORIENTED_EDGE('',*,*,#142,.T.);
#90=ORIENTED_EDGE('',*,*,#139,.F.);
#91=ORIENTED_EDGE('',*,*,#136,.T.);
#92=ORIENTED_EDGE('',*,*,#132,.T.);
#93=ORIENTED_EDGE('',*,*,#129,.F.);
#94=ORIENTED_EDGE('',*,*,#125,.F.);
#95=ORIENTED_EDGE('',*,*,#122,.F.);
#96=ORIENTED_EDGE('',*,*,#119,.T.);
#97=ORIENTED_EDGE('',*,*,#116,.F.);
#98=ORIENTED_EDGE('',*,*,#112,.F.);
#99=ORIENTED_EDGE('',*,*,#109,.T.);
#100=ORIENTED_EDGE('',*,*,#135,.T.);
#101=ORIENTED_EDGE('',*,*,#128,.T.);
#102=ORIENTED_EDGE('',*,*,#108,.T.);
#103=ORIENTED_EDGE('',*,*,#115,.T.);
#104=EDGE_CURVE('',#144,#145,#172,.T.);
#105=EDGE_CURVE('',#146,#144,#173,.T.);
#106=EDGE_CURVE('',#146,#147,#174,.T.);
#107=EDGE_CURVE('',#147,#145,#175,.T.);
#108=EDGE_CURVE('',#148,#148,#16,.T.);
#109=EDGE_CURVE('',#149,#144,#176,.T.);
#110=EDGE_CURVE('',#150,#149,#177,.T.);
#111=EDGE_CURVE('',#150,#146,#178,.T.);
#112=EDGE_CURVE('',#149,#151,#179,.T.);
#113=EDGE_CURVE('',#152,#151,#180,.T.);
#114=EDGE_CURVE('',#150,#152,#181,.T.);
#115=EDGE_CURVE('',#153,#153,#17,.T.);
#116=EDGE_CURVE('',#151,#154,#182,.T.);
#117=EDGE_CURVE('',#155,#154,#183,.T.);
#118=EDGE_CURVE('',#152,#155,#184,.T.);
#119=EDGE_CURVE('',#156,#154,#185,.T.);
#120=EDGE_CURVE('',#157,#156,#186,.T.);
#121=EDGE_CURVE('',#157,#155,#187,.T.);
#122=EDGE_CURVE('',#156,#158,#18,.T.);
#123=EDGE_CURVE('',#159,#158,#188,.T.);
#124=EDGE_CURVE('',#157,#159,#19,.T.);
#125=EDGE_CURVE('',#158,#160,#189,.T.);
#126=EDGE_CURVE('',#161,#160,#190,.T.);
#127=EDGE_CURVE('',#159,#161,#191,.T.);
#128=EDGE_CURVE('',#162,#162,#20,.T.);
#129=EDGE_CURVE('',#160,#163,#192,.T.);
#130=EDGE_CURVE('',#164,#163,#193,.T.);
#131=EDGE_CURVE('',#161,#164,#194,.T.);
#132=EDGE_CURVE('',#165,#163,#195,.T.);
#133=EDGE_CURVE('',#166,#165,#196,.T.);
#134=EDGE_CURVE('',#166,#164,#197,.T.);
#135=EDGE_CURVE('',#167,#167,#21,.T.);
#136=EDGE_CURVE('',#168,#165,#198,.T.);
#137=EDGE_CURVE('',#169,#168,#199,.T.);
#138=EDGE_CURVE('',#169,#166,#200,.T.);
#139=EDGE_CURVE('',#168,#170,#201,.T.);
#140=EDGE_CURVE('',#171,#170,#202,.T.);
#141=EDGE_CURVE('',#169,#171,#203,.T.);
#142=EDGE_CURVE('',#145,#170,#22,.T.);
#143=EDGE_CURVE('',#147,#171,#23,.T.);
#144=VERTEX_POINT('',#430);
#145=VERTEX_POINT('',#431);
#146=VERTEX_POINT('',#433);
#147=VERTEX_POINT('',#435);
#148=VERTEX_POINT('',#439);
#149=VERTEX_POINT('',#441);
#150=VERTEX_POINT('',#443);
#151=VERTEX_POINT('',#447);
#152=VERTEX_POINT('',#449);
#153=VERTEX_POINT('',#453);
#154=VERTEX_POINT('',#455);
#155=VERTEX_POINT('',#457);
#156=VERTEX_POINT('',#461);
#157=VERTEX_POINT('',#463);
#158=VERTEX_POINT('',#467);
#159=VERTEX_POINT('',#469);
#160=VERTEX_POINT('',#473);
#161=VERTEX_POINT('',#475);
#162=VERTEX_POINT('',#479);
#163=VERTEX_POINT('',#481);
#164=VERTEX_POINT('',#483);
#165=VERTEX_POINT('',#487);
#166=VERTEX_POINT('',#489);
#167=VERTEX_POINT('',#493);
#168=VERTEX_POINT('',#495);
#169=VERTEX_POINT('',#497);
#170=VERTEX_POINT('',#501);
#171=VERTEX_POINT('',#503);
#172=LINE('',#429,#204);
#173=LINE('',#432,#205);
#174=LINE('',#434,#206);
#175=LINE('',#436,#207);
#176=LINE('',#440,#208);
#177=LINE('',#442,#209);
#178=LINE('',#444,#210);
#179=LINE('',#446,#211);
#180=LINE('',#448,#212);
#181=LINE('',#450,#213);
#182=LINE('',#454,#214);
#183=LINE('',#456,#215);
#184=LINE('',#458,#216);
#185=LINE('',#460,#217);
#186=LINE('',#462,#218);
#187=LINE('',#464,#219);
#188=LINE('',#468,#220);
#189=LINE('',#472,#221);
#190=LINE('',#474,#222);
#191=LINE('',#476,#223);
#192=LINE('',#480,#224);
#193=LINE('',#482,#225);
#194=LINE('',#484,#226);
#195=LINE('',#486,#227);
#196=LINE('',#488,#228);
#197=LINE('',#490,#229);
#198=LINE('',#494,#230);
#199=LINE('',#496,#231);
#200=LINE('',#498,#232);
#201=LINE('',#500,#233);
#202=LINE('',#502,#234);
#203=LINE('',#504,#235);
#204=VECTOR('',#349,1.);
#205=VECTOR('',#350,1.);
#206=VECTOR('',#351,1.);
#207=VECTOR('',#352,1.);
#208=VECTOR('',#357,1.);
#209=VECTOR('',#358,1.);
#210=VECTOR('',#359,1.);
#211=VECTOR('',#362,1.);
#212=VECTOR('',#363,1.);
#213=VECTOR('',#364,1.);
#214=VECTOR('',#369,1.);
#215=VECTOR('',#370,1.);
#216=VECTOR('',#371,1.);
#217=VECTOR('',#374,1.);
#218=VECTOR('',#375,1.);
#219=VECTOR('',#376,1.);
#220=VECTOR('',#381,1.);
#221=VECTOR('',#386,1.);
#222=VECTOR('',#387,1.);
#223=VECTOR('',#388,1.);
#224=VECTOR('',#393,1.);
#225=VECTOR('',#394,1.);
#226=VECTOR('',#395,1.);
#227=VECTOR('',#398,1.);
#228=VECTOR('',#399,1.);
#229=VECTOR('',#400,1.);
#230=VECTOR('',#405,1.);
#231=VECTOR('',#406,1.);
#232=VECTOR('',#407,1.);
#233=VECTOR('',#410,1.);
#234=VECTOR('',#411,1.);
#235=VECTOR('',#412,1.);
#236=EDGE_LOOP('',(#24,#25,#26,#27));
#237=EDGE_LOOP('',(#28));
#238=EDGE_LOOP('',(#29,#30,#31,#32));
#239=EDGE_LOOP('',(#33,#34,#35,#36));
#240=EDGE_LOOP('',(#37));
#241=EDGE_LOOP('',(#38,#39,#40,#41));
#242=EDGE_LOOP('',(#42,#43,#44,#45));
#243=EDGE_LOOP('',(#46,#47,#48,#49));
#244=EDGE_LOOP('',(#50,#51,#52,#53));
#245=EDGE_LOOP('',(#54));
#246=EDGE_LOOP('',(#55,#56,#57,#58));
#247=EDGE_LOOP('',(#59,#60,#61,#62));
#248=EDGE_LOOP('',(#63));
#249=EDGE_LOOP('',(#64,#65,#66,#67));
#250=EDGE_LOOP('',(#68,#69,#70,#71));
#251=EDGE_LOOP('',(#72,#73,#74,#75));
#252=EDGE_LOOP('',(#76,#77,#78,#79,#80,#81,#82,#83,#84,#85,#86,#87));
#253=EDGE_LOOP('',(#88,#89,#90,#91,#92,#93,#94,#95,#96,#97,#98,#99));
#254=EDGE_LOOP('',(#100));
#255=EDGE_LOOP('',(#101));
#256=EDGE_LOOP('',(#102));
#257=EDGE_LOOP('',(#103));
#258=FACE_BOUND('',#236,.T.);
#259=FACE_BOUND('',#237,.T.);
#260=FACE_BOUND('',#238,.T.);
#261=FACE_BOUND('',#239,.T.);
#262=FACE_BOUND('',#240,.T.);
#263=FACE_BOUND('',#241,.T.);
#264=FACE_BOUND('',#242,.T.);
#265=FACE_BOUND('',#243,.T.);
#266=FACE_BOUND('',#244,.T.);
#267=FACE_BOUND('',#245,.T.);
#268=FACE_BOUND('',#246,.T.);
#269=FACE_BOUND('',#247,.T.);
#270=FACE_BOUND('',#248,.T.);
#271=FACE_BOUND('',#249,.T.);
#272=FACE_BOUND('',#250,.T.);
#273=FACE_BOUND('',#251,.T.);
#274=FACE_BOUND('',#252,.T.);
#275=FACE_BOUND('',#253,.T.);
#276=FACE_BOUND('',#254,.T.);
#277=FACE_BOUND('',#255,.T.);
#278=FACE_BOUND('',#256,.T.);
#279=FACE_BOUND('',#257,.T.);
#280=PLANE('',#321);
#281=PLANE('',#322);
#282=PLANE('',#324);
#283=PLANE('',#325);
#284=PLANE('',#327);
#285=PLANE('',#331);
#286=PLANE('',#332);
#287=PLANE('',#334);
#288=PLANE('',#335);
#289=PLANE('',#337);
#290=PLANE('',#341);
#291=PLANE('',#342);
#292=ADVANCED_FACE('',(#258),#280,.T.);
#293=ADVANCED_FACE('',(#259,#260),#281,.T.);
#294=ADVANCED_FACE('',(#261),#282,.F.);
#295=ADVANCED_FACE('',(#262,#263),#283,.F.);
#296=ADVANCED_FACE('',(#264),#284,.T.);
#297=ADVANCED_FACE('',(#265),#12,.T.);
#298=ADVANCED_FACE('',(#266),#285,.F.);
#299=ADVANCED_FACE('',(#267,#268),#286,.F.);
#300=ADVANCED_FACE('',(#269),#287,.T.);
#301=ADVANCED_FACE('',(#270,#271),#288,.T.);
#302=ADVANCED_FACE('',(#272),#289,.F.);
#303=ADVANCED_FACE('',(#273),#13,.F.);
#304=ADVANCED_FACE('',(#274),#290,.T.);
#305=ADVANCED_FACE('',(#275),#291,.F.);
#306=ADVANCED_FACE('',(#276,#277),#14,.F.);
#307=ADVANCED_FACE('',(#278,#279),#15,.F.);
#308=CLOSED_SHELL('',(#292,#293,#294,#295,#296,#297,#298,#299,#300,#301,
#302,#303,#304,#305,#306,#307));
#309=STYLED_ITEM('',(#310),#317);
#310=PRESENTATION_STYLE_ASSIGNMENT((#311));
#311=SURFACE_STYLE_USAGE(.BOTH.,#312);
#312=SURFACE_SIDE_STYLE('',(#313));
#313=SURFACE_STYLE_FILL_AREA(#314);
#314=FILL_AREA_STYLE('',(#315));
#315=FILL_AREA_STYLE_COLOUR('',#316);
#316=COLOUR_RGB('',0.43921568627451,0.474509803921569,0.501960784313726);
#317=MANIFOLD_SOLID_BREP('Part 1',#308);
#318=SHAPE_DEFINITION_REPRESENTATION(#518,#319);
#319=SHAPE_REPRESENTATION('Part 1',(#320),#513);
#320=AXIS2_PLACEMENT_3D('',#427,#345,#346);
#321=AXIS2_PLACEMENT_3D('',#428,#347,#348);
#322=AXIS2_PLACEMENT_3D('',#437,#353,#354);
#323=AXIS2_PLACEMENT_3D('',#438,#355,#356);
#324=AXIS2_PLACEMENT_3D('',#445,#360,#361);
#325=AXIS2_PLACEMENT_3D('',#451,#365,#366);
#326=AXIS2_PLACEMENT_3D('',#452,#367,#368);
#327=AXIS2_PLACEMENT_3D('',#459,#372,#373);
#328=AXIS2_PLACEMENT_3D('',#465,#377,#378);
#329=AXIS2_PLACEMENT_3D('',#466,#379,#380);
#330=AXIS2_PLACEMENT_3D('',#470,#382,#383);
#331=AXIS2_PLACEMENT_3D('',#471,#384,#385);
#332=AXIS2_PLACEMENT_3D('',#477,#389,#390);
#333=AXIS2_PLACEMENT_3D('',#478,#391,#392);
#334=AXIS2_PLACEMENT_3D('',#485,#396,#397);
#335=AXIS2_PLACEMENT_3D('',#491,#401,#402);
#336=AXIS2_PLACEMENT_3D('',#492,#403,#404);
#337=AXIS2_PLACEMENT_3D('',#499,#408,#409);
#338=AXIS2_PLACEMENT_3D('',#505,#413,#414);
#339=AXIS2_PLACEMENT_3D('',#506,#415,#416);
#340=AXIS2_PLACEMENT_3D('',#507,#417,#418);
#341=AXIS2_PLACEMENT_3D('',#508,#419,#420);
#342=AXIS2_PLACEMENT_3D('',#509,#421,#422);
#343=AXIS2_PLACEMENT_3D('',#510,#423,#424);
#344=AXIS2_PLACEMENT_3D('',#511,#425,#426);
#345=DIRECTION('',(0.,0.,1.));
#346=DIRECTION('',(1.,0.,0.));
#347=DIRECTION('',(1.,0.,0.));
#348=DIRECTION('',(0.,0.,-1.));
#349=DIRECTION('',(0.,-1.,0.));
#350=DIRECTION('',(0.,0.,-1.));
#351=DIRECTION('',(0.,-1.,0.));
#352=DIRECTION('',(0.,0.,-1.));
#353=DIRECTION('',(0.,1.,0.));
#354=DIRECTION('',(0.,0.,1.));
#355=DIRECTION('',(0.,1.,0.));
#356=DIRECTION('',(0.,0.,1.));
#357=DIRECTION('',(1.,0.,0.));
#358=DIRECTION('',(0.,0.,-1.));
#359=DIRECTION('',(1.,0.,0.));
#360=DIRECTION('',(1.,0.,0.));
#361=DIRECTION('',(0.,0.,-1.));
#362=DIRECTION('',(0.,-1.,0.));
#363=DIRECTION('',(0.,0.,-1.));
#364=DIRECTION('',(0.,-1.,0.));
#365=DIRECTION('',(0.,1.,0.));
#366=DIRECTION('',(0.,0.,1.));
#367=DIRECTION('',(0.,-1.,0.));
#368=DIRECTION('',(0.,0.,-1.));
#369=DIRECTION('',(1.,0.,0.));
#370=DIRECTION('',(0.,0.,-1.));
#371=DIRECTION('',(1.,0.,0.));
#372=DIRECTION('',(-1.,0.,0.));
#373=DIRECTION('',(0.,0.,1.));
#374=DIRECTION('',(0.,1.,0.));
#375=DIRECTION('',(0.,0.,-1.));
#376=DIRECTION('',(0.,1.,0.));
#377=DIRECTION('',(0.,0.,-1.));
#378=DIRECTION('',(-1.,0.,0.));
#379=DIRECTION('',(0.,0.,1.));
#380=DIRECTION('',(1.,0.,0.));
#381=DIRECTION('',(0.,0.,-1.));
#382=DIRECTION('',(0.,0.,1.));
#383=DIRECTION('',(1.,0.,0.));
#384=DIRECTION('',(-1.,0.,0.));
#385=DIRECTION('',(0.,0.,1.));
#386=DIRECTION('',(0.,1.,0.));
#387=DIRECTION('',(0.,0.,-1.));
#388=DIRECTION('',(0.,1.,0.));
#389=DIRECTION('',(0.,1.,0.));
#390=DIRECTION('',(0.,0.,1.));
#391=DIRECTION('',(0.,-1.,0.));
#392=DIRECTION('',(0.,0.,-1.));
#393=DIRECTION('',(1.,0.,0.));
#394=DIRECTION('',(0.,0.,-1.));
#395=DIRECTION('',(1.,0.,0.));
#396=DIRECTION('',(1.,0.,0.));
#397=DIRECTION('',(0.,0.,-1.));
#398=DIRECTION('',(0.,-1.,0.));
#399=DIRECTION('',(0.,0.,-1.));
#400=DIRECTION('',(0.,-1.,0.));
#401=DIRECTION('',(0.,1.,0.));
#402=DIRECTION('',(0.,0.,1.));
#403=DIRECTION('',(0.,1.,0.));
#404=DIRECTION('',(0.,0.,1.));
#405=DIRECTION('',(1.,0.,0.));
#406=DIRECTION('',(0.,0.,-1.));
#407=DIRECTION('',(1.,0.,0.));
#408=DIRECTION('',(1.,0.,0.));
#409=DIRECTION('',(0.,0.,-1.));
#410=DIRECTION('',(0.,-1.,0.));
#411=DIRECTION('',(0.,0.,-1.));
#412=DIRECTION('',(0.,-1.,0.));
#413=DIRECTION('',(0.,0.,-1.));
#414=DIRECTION('',(-1.,0.,0.));
#415=DIRECTION('',(0.,0.,1.));
#416=DIRECTION('',(1.,0.,0.));
#417=DIRECTION('',(0.,0.,1.));
#418=DIRECTION('',(1.,0.,0.));
#419=DIRECTION('',(0.,0.,1.));
#420=DIRECTION('',(1.,0.,0.));
#421=DIRECTION('',(0.,0.,1.));
#422=DIRECTION('',(1.,0.,0.));
#423=DIRECTION('',(0.,-1.,0.));
#424=DIRECTION('',(0.,0.,-1.));
#425=DIRECTION('',(0.,-1.,0.));
#426=DIRECTION('',(0.,0.,-1.));
#427=CARTESIAN_POINT('',(0.,0.,0.));
#428=CARTESIAN_POINT('',(-0.004,0.00592214438511238,0.01));
#429=CARTESIAN_POINT('',(-0.004,0.00592214438511238,0.));
#430=CARTESIAN_POINT('',(-0.004,0.0075,0.));
#431=CARTESIAN_POINT('',(-0.004,0.00447213595499958,0.));
#432=CARTESIAN_POINT('',(-0.004,0.0075,0.01));
#433=CARTESIAN_POINT('',(-0.004,0.0075,0.01));
#434=CARTESIAN_POINT('',(-0.004,0.00592214438511238,0.01));
#435=CARTESIAN_POINT('',(-0.004,0.00447213595499958,0.01));
#436=CARTESIAN_POINT('',(-0.004,0.00447213595499958,0.01));
#437=CARTESIAN_POINT('',(-0.0095,0.0075,0.01));
#438=CARTESIAN_POINT('',(-0.01125,0.0075,0.005));
#439=CARTESIAN_POINT('',(-0.01125,0.0075,0.0065));
#440=CARTESIAN_POINT('',(-0.0095,0.0075,0.));
#441=CARTESIAN_POINT('',(-0.015,0.0075,0.));
#442=CARTESIAN_POINT('',(-0.015,0.0075,0.01));
#443=CARTESIAN_POINT('',(-0.015,0.0075,0.01));
#444=CARTESIAN_POINT('',(-0.0095,0.0075,0.01));
#445=CARTESIAN_POINT('',(-0.015,0.0065,0.01));
#446=CARTESIAN_POINT('',(-0.015,0.0065,0.));
#447=CARTESIAN_POINT('',(-0.015,0.0055,0.));
#448=CARTESIAN_POINT('',(-0.015,0.0055,0.01));
#449=CARTESIAN_POINT('',(-0.015,0.0055,0.01));
#450=CARTESIAN_POINT('',(-0.015,0.0065,0.01));
#451=CARTESIAN_POINT('',(-0.01125,0.0055,0.01));
#452=CARTESIAN_POINT('',(-0.01125,0.0055,0.005));
#453=CARTESIAN_POINT('',(-0.01125,0.0055,0.0035));
#454=CARTESIAN_POINT('',(-0.01125,0.0055,0.));
#455=CARTESIAN_POINT('',(-0.0075,0.0055,0.));
#456=CARTESIAN_POINT('',(-0.0075,0.0055,0.01));
#457=CARTESIAN_POINT('',(-0.0075,0.0055,0.01));
#458=CARTESIAN_POINT('',(-0.01125,0.0055,0.01));
#459=CARTESIAN_POINT('',(-0.0075,0.00275,0.01));
#460=CARTESIAN_POINT('',(-0.0075,0.00275,0.));
#461=CARTESIAN_POINT('',(-0.0075,9.18485099360515E-19,0.));
#462=CARTESIAN_POINT('',(-0.0075,9.18485099360515E-19,0.01));
#463=CARTESIAN_POINT('',(-0.0075,9.18485099360515E-19,0.01));
#464=CARTESIAN_POINT('',(-0.0075,0.00275,0.01));
#465=CARTESIAN_POINT('',(0.,4.59242549680257E-19,0.01));
#466=CARTESIAN_POINT('',(0.,4.59242549680257E-19,0.));
#467=CARTESIAN_POINT('',(0.0075,0.,0.));
#468=CARTESIAN_POINT('',(0.0075,0.,0.01));
#469=CARTESIAN_POINT('',(0.0075,0.,0.01));
#470=CARTESIAN_POINT('',(0.,4.59242549680257E-19,0.01));
#471=CARTESIAN_POINT('',(0.0075,0.00275,0.01));
#472=CARTESIAN_POINT('',(0.0075,0.00275,0.));
#473=CARTESIAN_POINT('',(0.0075,0.0055,0.));
#474=CARTESIAN_POINT('',(0.0075,0.0055,0.01));
#475=CARTESIAN_POINT('',(0.0075,0.0055,0.01));
#476=CARTESIAN_POINT('',(0.0075,0.00275,0.01));
#477=CARTESIAN_POINT('',(0.01125,0.0055,0.01));
#478=CARTESIAN_POINT('',(0.01125,0.0055,0.005));
#479=CARTESIAN_POINT('',(0.01125,0.0055,0.0035));
#480=CARTESIAN_POINT('',(0.01125,0.0055,0.));
#481=CARTESIAN_POINT('',(0.015,0.0055,0.));
#482=CARTESIAN_POINT('',(0.015,0.0055,0.01));
#483=CARTESIAN_POINT('',(0.015,0.0055,0.01));
#484=CARTESIAN_POINT('',(0.01125,0.0055,0.01));
#485=CARTESIAN_POINT('',(0.015,0.0065,0.01));
#486=CARTESIAN_POINT('',(0.015,0.0065,0.));
#487=CARTESIAN_POINT('',(0.015,0.0075,0.));
#488=CARTESIAN_POINT('',(0.015,0.0075,0.01));
#489=CARTESIAN_POINT('',(0.015,0.0075,0.01));
#490=CARTESIAN_POINT('',(0.015,0.0065,0.01));
#491=CARTESIAN_POINT('',(0.0095,0.0075,0.01));
#492=CARTESIAN_POINT('',(0.01125,0.0075,0.005));
#493=CARTESIAN_POINT('',(0.01125,0.0075,0.0065));
#494=CARTESIAN_POINT('',(0.0095,0.0075,0.));
#495=CARTESIAN_POINT('',(0.004,0.0075,0.));
#496=CARTESIAN_POINT('',(0.004,0.0075,0.01));
#497=CARTESIAN_POINT('',(0.004,0.0075,0.01));
#498=CARTESIAN_POINT('',(0.0095,0.0075,0.01));
#499=CARTESIAN_POINT('',(0.004,0.00592214438511238,0.01));
#500=CARTESIAN_POINT('',(0.004,0.00592214438511238,0.));
#501=CARTESIAN_POINT('',(0.004,0.00447213595499958,0.));
#502=CARTESIAN_POINT('',(0.004,0.00447213595499958,0.01));
#503=CARTESIAN_POINT('',(0.004,0.00447213595499958,0.01));
#504=CARTESIAN_POINT('',(0.004,0.00592214438511238,0.01));
#505=CARTESIAN_POINT('',(-5.87000205971635E-19,8.67361737988404E-19,0.01));
#506=CARTESIAN_POINT('',(-5.87000205971635E-19,8.67361737988404E-19,0.));
#507=CARTESIAN_POINT('',(-5.87000205971635E-19,8.67361737988404E-19,0.01));
#508=CARTESIAN_POINT('',(0.,0.,0.01));
#509=CARTESIAN_POINT('',(0.,0.,0.));
#510=CARTESIAN_POINT('',(0.01125,0.0305,0.005));
#511=CARTESIAN_POINT('',(-0.01125,0.0305,0.005));
#512=MECHANICAL_DESIGN_GEOMETRIC_PRESENTATION_REPRESENTATION('',(#309),
#513);
#513=(
GEOMETRIC_REPRESENTATION_CONTEXT(3)
GLOBAL_UNCERTAINTY_ASSIGNED_CONTEXT((#514))
GLOBAL_UNIT_ASSIGNED_CONTEXT((#517,#516,#515))
REPRESENTATION_CONTEXT('Part 1','TOP_LEVEL_ASSEMBLY_PART')
);
#514=UNCERTAINTY_MEASURE_WITH_UNIT(LENGTH_MEASURE(1.E-8),#517,
'DISTANCE_ACCURACY_VALUE','Maximum Tolerance applied to model');
#515=(
NAMED_UNIT(*)
SI_UNIT($,.STERADIAN.)
SOLID_ANGLE_UNIT()
);
#516=(
NAMED_UNIT(*)
PLANE_ANGLE_UNIT()
SI_UNIT($,.RADIAN.)
);
#517=(
LENGTH_UNIT()
NAMED_UNIT(*)
SI_UNIT($,.METRE.)
);
#518=PRODUCT_DEFINITION_SHAPE('','',#519);
#519=PRODUCT_DEFINITION('','',#521,#520);
#520=PRODUCT_DEFINITION_CONTEXT('',#527,'design');
#521=PRODUCT_DEFINITION_FORMATION_WITH_SPECIFIED_SOURCE('','',#523,
 .NOT_KNOWN.);
#522=PRODUCT_RELATED_PRODUCT_CATEGORY('','',(#523));
#523=PRODUCT('Part 1','Part 1','Part 1',(#525));
#524=PRODUCT_CATEGORY('','');
#525=PRODUCT_CONTEXT('',#527,'mechanical');
#526=APPLICATION_PROTOCOL_DEFINITION('international standard',
'ap242_managed_model_based_3d_engineering',2020,#527);
#527=APPLICATION_CONTEXT('managed model based 3d engineering');
ENDSEC;
END-ISO-10303-21;
