ISO-10303-21;
HEADER;
/* Generated by software containing ST-Developer
 * from STEP Tools, Inc. (www.steptools.com) 
 */
/* OPTION: using custom renumber hook */

FILE_DESCRIPTION(
/* description */ ('STEP AP242 Edition 2',
'CAx-IF Rec.Pracs.---Representation and Presentation of Product Manufa
cturing Information (PMI)---4.0---2014-10-13',
'CAx-IF Rec.Pracs.---3D Tessellated Geometry---0.4---2014-09-14','2;1',
'CAx-IF Rec.Pracs.---User Defined Attributes---1.5---2016-08-15'),
/* implementation_level */ '2;1');

FILE_NAME(
/* name */ 'Filament holder',
/* time_stamp */ '2026-06-26T09:08:54Z',
/* author */ (''),
/* organization */ (''),
/* preprocessor_version */ 'ST-DEVELOPER v20',
/* originating_system */ 'ONSHAPE BY PTC INC, 1.216',
/* authorisation */ '  ');

FILE_SCHEMA (('AP242_MANAGED_MODEL_BASED_3D_ENGINEERING_MIM_LF { 1 0 10303 442 3 1 4 }'));
ENDSEC;

DATA;
#10=SHAPE_REPRESENTATION_RELATIONSHIP('','',#709,#11);
#11=ADVANCED_BREP_SHAPE_REPRESENTATION('',(#707),#1119);
#12=CYLINDRICAL_SURFACE('',#737,0.0075);
#13=CYLINDRICAL_SURFACE('',#740,0.0075);
#14=CIRCLE('',#716,0.0075);
#15=CIRCLE('',#718,0.0075);
#16=CIRCLE('',#721,0.0075);
#17=CIRCLE('',#723,0.0075);
#18=ORIENTED_EDGE('',*,*,#210,.F.);
#19=ORIENTED_EDGE('',*,*,#211,.T.);
#20=ORIENTED_EDGE('',*,*,#212,.T.);
#21=ORIENTED_EDGE('',*,*,#213,.F.);
#22=ORIENTED_EDGE('',*,*,#214,.F.);
#23=ORIENTED_EDGE('',*,*,#215,.T.);
#24=ORIENTED_EDGE('',*,*,#216,.T.);
#25=ORIENTED_EDGE('',*,*,#217,.F.);
#26=ORIENTED_EDGE('',*,*,#218,.F.);
#27=ORIENTED_EDGE('',*,*,#219,.F.);
#28=ORIENTED_EDGE('',*,*,#220,.T.);
#29=ORIENTED_EDGE('',*,*,#221,.F.);
#30=ORIENTED_EDGE('',*,*,#222,.F.);
#31=ORIENTED_EDGE('',*,*,#223,.T.);
#32=ORIENTED_EDGE('',*,*,#224,.T.);
#33=ORIENTED_EDGE('',*,*,#225,.F.);
#34=ORIENTED_EDGE('',*,*,#226,.F.);
#35=ORIENTED_EDGE('',*,*,#227,.T.);
#36=ORIENTED_EDGE('',*,*,#228,.T.);
#37=ORIENTED_EDGE('',*,*,#229,.F.);
#38=ORIENTED_EDGE('',*,*,#230,.F.);
#39=ORIENTED_EDGE('',*,*,#231,.T.);
#40=ORIENTED_EDGE('',*,*,#232,.T.);
#41=ORIENTED_EDGE('',*,*,#223,.F.);
#42=ORIENTED_EDGE('',*,*,#233,.F.);
#43=ORIENTED_EDGE('',*,*,#234,.T.);
#44=ORIENTED_EDGE('',*,*,#235,.T.);
#45=ORIENTED_EDGE('',*,*,#236,.F.);
#46=ORIENTED_EDGE('',*,*,#237,.F.);
#47=ORIENTED_EDGE('',*,*,#238,.T.);
#48=ORIENTED_EDGE('',*,*,#239,.T.);
#49=ORIENTED_EDGE('',*,*,#220,.F.);
#50=ORIENTED_EDGE('',*,*,#240,.F.);
#51=ORIENTED_EDGE('',*,*,#241,.F.);
#52=ORIENTED_EDGE('',*,*,#242,.F.);
#53=ORIENTED_EDGE('',*,*,#243,.T.);
#54=ORIENTED_EDGE('',*,*,#244,.F.);
#55=ORIENTED_EDGE('',*,*,#245,.T.);
#56=ORIENTED_EDGE('',*,*,#246,.F.);
#57=ORIENTED_EDGE('',*,*,#247,.T.);
#58=ORIENTED_EDGE('',*,*,#248,.T.);
#59=ORIENTED_EDGE('',*,*,#249,.T.);
#60=ORIENTED_EDGE('',*,*,#218,.T.);
#61=ORIENTED_EDGE('',*,*,#250,.F.);
#62=ORIENTED_EDGE('',*,*,#251,.F.);
#63=ORIENTED_EDGE('',*,*,#252,.T.);
#64=ORIENTED_EDGE('',*,*,#253,.T.);
#65=ORIENTED_EDGE('',*,*,#254,.F.);
#66=ORIENTED_EDGE('',*,*,#245,.F.);
#67=ORIENTED_EDGE('',*,*,#255,.T.);
#68=ORIENTED_EDGE('',*,*,#233,.T.);
#69=ORIENTED_EDGE('',*,*,#256,.F.);
#70=ORIENTED_EDGE('',*,*,#257,.F.);
#71=ORIENTED_EDGE('',*,*,#258,.T.);
#72=ORIENTED_EDGE('',*,*,#259,.F.);
#73=ORIENTED_EDGE('',*,*,#260,.T.);
#74=ORIENTED_EDGE('',*,*,#261,.T.);
#75=ORIENTED_EDGE('',*,*,#230,.T.);
#76=ORIENTED_EDGE('',*,*,#222,.T.);
#77=ORIENTED_EDGE('',*,*,#262,.F.);
#78=ORIENTED_EDGE('',*,*,#263,.F.);
#79=ORIENTED_EDGE('',*,*,#264,.T.);
#80=ORIENTED_EDGE('',*,*,#265,.T.);
#81=ORIENTED_EDGE('',*,*,#227,.F.);
#82=ORIENTED_EDGE('',*,*,#266,.F.);
#83=ORIENTED_EDGE('',*,*,#229,.T.);
#84=ORIENTED_EDGE('',*,*,#267,.F.);
#85=ORIENTED_EDGE('',*,*,#268,.F.);
#86=ORIENTED_EDGE('',*,*,#269,.T.);
#87=ORIENTED_EDGE('',*,*,#270,.T.);
#88=ORIENTED_EDGE('',*,*,#224,.F.);
#89=ORIENTED_EDGE('',*,*,#232,.F.);
#90=ORIENTED_EDGE('',*,*,#271,.T.);
#91=ORIENTED_EDGE('',*,*,#272,.F.);
#92=ORIENTED_EDGE('',*,*,#273,.F.);
#93=ORIENTED_EDGE('',*,*,#274,.F.);
#94=ORIENTED_EDGE('',*,*,#258,.F.);
#95=ORIENTED_EDGE('',*,*,#275,.T.);
#96=ORIENTED_EDGE('',*,*,#274,.T.);
#97=ORIENTED_EDGE('',*,*,#276,.F.);
#98=ORIENTED_EDGE('',*,*,#253,.F.);
#99=ORIENTED_EDGE('',*,*,#277,.T.);
#100=ORIENTED_EDGE('',*,*,#267,.T.);
#101=ORIENTED_EDGE('',*,*,#228,.F.);
#102=ORIENTED_EDGE('',*,*,#265,.F.);
#103=ORIENTED_EDGE('',*,*,#278,.T.);
#104=ORIENTED_EDGE('',*,*,#236,.T.);
#105=ORIENTED_EDGE('',*,*,#279,.T.);
#106=ORIENTED_EDGE('',*,*,#280,.F.);
#107=ORIENTED_EDGE('',*,*,#281,.F.);
#108=ORIENTED_EDGE('',*,*,#210,.T.);
#109=ORIENTED_EDGE('',*,*,#282,.T.);
#110=ORIENTED_EDGE('',*,*,#283,.T.);
#111=ORIENTED_EDGE('',*,*,#284,.F.);
#112=ORIENTED_EDGE('',*,*,#211,.F.);
#113=ORIENTED_EDGE('',*,*,#281,.T.);
#114=ORIENTED_EDGE('',*,*,#285,.T.);
#115=ORIENTED_EDGE('',*,*,#286,.F.);
#116=ORIENTED_EDGE('',*,*,#212,.F.);
#117=ORIENTED_EDGE('',*,*,#284,.T.);
#118=ORIENTED_EDGE('',*,*,#287,.F.);
#119=ORIENTED_EDGE('',*,*,#282,.F.);
#120=ORIENTED_EDGE('',*,*,#213,.T.);
#121=ORIENTED_EDGE('',*,*,#286,.T.);
#122=ORIENTED_EDGE('',*,*,#288,.F.);
#123=ORIENTED_EDGE('',*,*,#263,.T.);
#124=ORIENTED_EDGE('',*,*,#289,.T.);
#125=ORIENTED_EDGE('',*,*,#238,.F.);
#126=ORIENTED_EDGE('',*,*,#280,.T.);
#127=ORIENTED_EDGE('',*,*,#287,.T.);
#128=ORIENTED_EDGE('',*,*,#285,.F.);
#129=ORIENTED_EDGE('',*,*,#283,.F.);
#130=ORIENTED_EDGE('',*,*,#290,.F.);
#131=ORIENTED_EDGE('',*,*,#254,.T.);
#132=ORIENTED_EDGE('',*,*,#279,.F.);
#133=ORIENTED_EDGE('',*,*,#235,.F.);
#134=ORIENTED_EDGE('',*,*,#249,.F.);
#135=ORIENTED_EDGE('',*,*,#291,.T.);
#136=ORIENTED_EDGE('',*,*,#240,.T.);
#137=ORIENTED_EDGE('',*,*,#219,.T.);
#138=ORIENTED_EDGE('',*,*,#292,.F.);
#139=ORIENTED_EDGE('',*,*,#247,.F.);
#140=ORIENTED_EDGE('',*,*,#293,.F.);
#141=ORIENTED_EDGE('',*,*,#242,.T.);
#142=ORIENTED_EDGE('',*,*,#294,.F.);
#143=ORIENTED_EDGE('',*,*,#260,.F.);
#144=ORIENTED_EDGE('',*,*,#295,.F.);
#145=ORIENTED_EDGE('',*,*,#272,.T.);
#146=ORIENTED_EDGE('',*,*,#262,.T.);
#147=ORIENTED_EDGE('',*,*,#221,.T.);
#148=ORIENTED_EDGE('',*,*,#239,.F.);
#149=ORIENTED_EDGE('',*,*,#289,.F.);
#150=ORIENTED_EDGE('',*,*,#288,.T.);
#151=ORIENTED_EDGE('',*,*,#237,.T.);
#152=ORIENTED_EDGE('',*,*,#278,.F.);
#153=ORIENTED_EDGE('',*,*,#264,.F.);
#154=ORIENTED_EDGE('',*,*,#276,.T.);
#155=ORIENTED_EDGE('',*,*,#273,.T.);
#156=ORIENTED_EDGE('',*,*,#295,.T.);
#157=ORIENTED_EDGE('',*,*,#259,.T.);
#158=ORIENTED_EDGE('',*,*,#294,.T.);
#159=ORIENTED_EDGE('',*,*,#271,.F.);
#160=ORIENTED_EDGE('',*,*,#231,.F.);
#161=ORIENTED_EDGE('',*,*,#261,.F.);
#162=ORIENTED_EDGE('',*,*,#257,.T.);
#163=ORIENTED_EDGE('',*,*,#226,.T.);
#164=ORIENTED_EDGE('',*,*,#266,.T.);
#165=ORIENTED_EDGE('',*,*,#275,.F.);
#166=ORIENTED_EDGE('',*,*,#256,.T.);
#167=ORIENTED_EDGE('',*,*,#243,.F.);
#168=ORIENTED_EDGE('',*,*,#293,.T.);
#169=ORIENTED_EDGE('',*,*,#246,.T.);
#170=ORIENTED_EDGE('',*,*,#241,.T.);
#171=ORIENTED_EDGE('',*,*,#291,.F.);
#172=ORIENTED_EDGE('',*,*,#248,.F.);
#173=ORIENTED_EDGE('',*,*,#292,.T.);
#174=ORIENTED_EDGE('',*,*,#255,.F.);
#175=ORIENTED_EDGE('',*,*,#244,.T.);
#176=ORIENTED_EDGE('',*,*,#290,.T.);
#177=ORIENTED_EDGE('',*,*,#234,.F.);
#178=ORIENTED_EDGE('',*,*,#225,.T.);
#179=ORIENTED_EDGE('',*,*,#270,.F.);
#180=ORIENTED_EDGE('',*,*,#296,.F.);
#181=ORIENTED_EDGE('',*,*,#250,.T.);
#182=ORIENTED_EDGE('',*,*,#215,.F.);
#183=ORIENTED_EDGE('',*,*,#297,.F.);
#184=ORIENTED_EDGE('',*,*,#298,.T.);
#185=ORIENTED_EDGE('',*,*,#299,.T.);
#186=ORIENTED_EDGE('',*,*,#214,.T.);
#187=ORIENTED_EDGE('',*,*,#300,.F.);
#188=ORIENTED_EDGE('',*,*,#301,.F.);
#189=ORIENTED_EDGE('',*,*,#297,.T.);
#190=ORIENTED_EDGE('',*,*,#217,.T.);
#191=ORIENTED_EDGE('',*,*,#302,.F.);
#192=ORIENTED_EDGE('',*,*,#303,.F.);
#193=ORIENTED_EDGE('',*,*,#300,.T.);
#194=ORIENTED_EDGE('',*,*,#216,.F.);
#195=ORIENTED_EDGE('',*,*,#299,.F.);
#196=ORIENTED_EDGE('',*,*,#304,.T.);
#197=ORIENTED_EDGE('',*,*,#302,.T.);
#198=ORIENTED_EDGE('',*,*,#277,.F.);
#199=ORIENTED_EDGE('',*,*,#252,.F.);
#200=ORIENTED_EDGE('',*,*,#305,.T.);
#201=ORIENTED_EDGE('',*,*,#268,.T.);
#202=ORIENTED_EDGE('',*,*,#298,.F.);
#203=ORIENTED_EDGE('',*,*,#301,.T.);
#204=ORIENTED_EDGE('',*,*,#303,.T.);
#205=ORIENTED_EDGE('',*,*,#304,.F.);
#206=ORIENTED_EDGE('',*,*,#251,.T.);
#207=ORIENTED_EDGE('',*,*,#296,.T.);
#208=ORIENTED_EDGE('',*,*,#269,.F.);
#209=ORIENTED_EDGE('',*,*,#305,.F.);
#210=EDGE_CURVE('',#306,#307,#370,.T.);
#211=EDGE_CURVE('',#306,#308,#371,.T.);
#212=EDGE_CURVE('',#308,#309,#372,.T.);
#213=EDGE_CURVE('',#307,#309,#373,.T.);
#214=EDGE_CURVE('',#310,#311,#374,.T.);
#215=EDGE_CURVE('',#310,#312,#375,.T.);
#216=EDGE_CURVE('',#312,#313,#376,.T.);
#217=EDGE_CURVE('',#311,#313,#377,.T.);
#218=EDGE_CURVE('',#314,#315,#378,.T.);
#219=EDGE_CURVE('',#316,#314,#379,.T.);
#220=EDGE_CURVE('',#316,#317,#380,.T.);
#221=EDGE_CURVE('',#318,#317,#381,.T.);
#222=EDGE_CURVE('',#319,#318,#382,.T.);
#223=EDGE_CURVE('',#319,#320,#383,.T.);
#224=EDGE_CURVE('',#320,#321,#384,.T.);
#225=EDGE_CURVE('',#315,#321,#385,.T.);
#226=EDGE_CURVE('',#322,#323,#386,.T.);
#227=EDGE_CURVE('',#322,#324,#387,.T.);
#228=EDGE_CURVE('',#324,#325,#388,.T.);
#229=EDGE_CURVE('',#323,#325,#389,.T.);
#230=EDGE_CURVE('',#326,#319,#390,.T.);
#231=EDGE_CURVE('',#326,#327,#391,.T.);
#232=EDGE_CURVE('',#327,#320,#392,.T.);
#233=EDGE_CURVE('',#328,#329,#393,.T.);
#234=EDGE_CURVE('',#328,#330,#394,.T.);
#235=EDGE_CURVE('',#330,#331,#395,.T.);
#236=EDGE_CURVE('',#332,#331,#396,.T.);
#237=EDGE_CURVE('',#333,#332,#397,.T.);
#238=EDGE_CURVE('',#333,#334,#398,.T.);
#239=EDGE_CURVE('',#334,#317,#399,.T.);
#240=EDGE_CURVE('',#335,#316,#400,.T.);
#241=EDGE_CURVE('',#336,#335,#401,.T.);
#242=EDGE_CURVE('',#337,#336,#402,.T.);
#243=EDGE_CURVE('',#337,#329,#14,.T.);
#244=EDGE_CURVE('',#338,#339,#403,.T.);
#245=EDGE_CURVE('',#338,#340,#404,.T.);
#246=EDGE_CURVE('',#341,#340,#15,.T.);
#247=EDGE_CURVE('',#341,#342,#405,.T.);
#248=EDGE_CURVE('',#342,#343,#406,.T.);
#249=EDGE_CURVE('',#343,#314,#407,.T.);
#250=EDGE_CURVE('',#344,#315,#408,.T.);
#251=EDGE_CURVE('',#345,#344,#409,.T.);
#252=EDGE_CURVE('',#345,#346,#410,.T.);
#253=EDGE_CURVE('',#346,#347,#411,.T.);
#254=EDGE_CURVE('',#339,#347,#412,.T.);
#255=EDGE_CURVE('',#338,#328,#413,.T.);
#256=EDGE_CURVE('',#340,#329,#414,.T.);
#257=EDGE_CURVE('',#348,#322,#415,.T.);
#258=EDGE_CURVE('',#348,#349,#416,.T.);
#259=EDGE_CURVE('',#350,#349,#16,.T.);
#260=EDGE_CURVE('',#350,#351,#417,.T.);
#261=EDGE_CURVE('',#351,#326,#418,.T.);
#262=EDGE_CURVE('',#352,#318,#419,.T.);
#263=EDGE_CURVE('',#353,#352,#420,.T.);
#264=EDGE_CURVE('',#353,#354,#421,.T.);
#265=EDGE_CURVE('',#354,#324,#422,.T.);
#266=EDGE_CURVE('',#323,#355,#423,.T.);
#267=EDGE_CURVE('',#356,#325,#424,.T.);
#268=EDGE_CURVE('',#357,#356,#425,.T.);
#269=EDGE_CURVE('',#357,#358,#426,.T.);
#270=EDGE_CURVE('',#358,#321,#427,.T.);
#271=EDGE_CURVE('',#327,#359,#428,.T.);
#272=EDGE_CURVE('',#360,#359,#429,.T.);
#273=EDGE_CURVE('',#361,#360,#17,.T.);
#274=EDGE_CURVE('',#355,#361,#430,.T.);
#275=EDGE_CURVE('',#348,#355,#431,.T.);
#276=EDGE_CURVE('',#349,#361,#432,.T.);
#277=EDGE_CURVE('',#346,#356,#433,.T.);
#278=EDGE_CURVE('',#354,#332,#434,.T.);
#279=EDGE_CURVE('',#331,#347,#435,.T.);
#280=EDGE_CURVE('',#362,#363,#436,.T.);
#281=EDGE_CURVE('',#306,#362,#437,.T.);
#282=EDGE_CURVE('',#307,#363,#438,.T.);
#283=EDGE_CURVE('',#362,#364,#439,.T.);
#284=EDGE_CURVE('',#308,#364,#440,.T.);
#285=EDGE_CURVE('',#364,#365,#441,.T.);
#286=EDGE_CURVE('',#309,#365,#442,.T.);
#287=EDGE_CURVE('',#363,#365,#443,.T.);
#288=EDGE_CURVE('',#353,#333,#444,.T.);
#289=EDGE_CURVE('',#352,#334,#445,.T.);
#290=EDGE_CURVE('',#339,#330,#446,.T.);
#291=EDGE_CURVE('',#343,#335,#447,.T.);
#292=EDGE_CURVE('',#342,#336,#448,.T.);
#293=EDGE_CURVE('',#337,#341,#449,.F.);
#294=EDGE_CURVE('',#351,#359,#450,.T.);
#295=EDGE_CURVE('',#360,#350,#451,.F.);
#296=EDGE_CURVE('',#344,#358,#452,.T.);
#297=EDGE_CURVE('',#366,#310,#453,.T.);
#298=EDGE_CURVE('',#366,#367,#454,.T.);
#299=EDGE_CURVE('',#367,#312,#455,.T.);
#300=EDGE_CURVE('',#368,#311,#456,.T.);
#301=EDGE_CURVE('',#366,#368,#457,.T.);
#302=EDGE_CURVE('',#369,#313,#458,.T.);
#303=EDGE_CURVE('',#368,#369,#459,.T.);
#304=EDGE_CURVE('',#367,#369,#460,.T.);
#305=EDGE_CURVE('',#345,#357,#461,.T.);
#306=VERTEX_POINT('',#925);
#307=VERTEX_POINT('',#926);
#308=VERTEX_POINT('',#928);
#309=VERTEX_POINT('',#930);
#310=VERTEX_POINT('',#933);
#311=VERTEX_POINT('',#934);
#312=VERTEX_POINT('',#936);
#313=VERTEX_POINT('',#938);
#314=VERTEX_POINT('',#942);
#315=VERTEX_POINT('',#943);
#316=VERTEX_POINT('',#945);
#317=VERTEX_POINT('',#947);
#318=VERTEX_POINT('',#949);
#319=VERTEX_POINT('',#951);
#320=VERTEX_POINT('',#953);
#321=VERTEX_POINT('',#955);
#322=VERTEX_POINT('',#959);
#323=VERTEX_POINT('',#960);
#324=VERTEX_POINT('',#962);
#325=VERTEX_POINT('',#964);
#326=VERTEX_POINT('',#968);
#327=VERTEX_POINT('',#970);
#328=VERTEX_POINT('',#974);
#329=VERTEX_POINT('',#975);
#330=VERTEX_POINT('',#977);
#331=VERTEX_POINT('',#979);
#332=VERTEX_POINT('',#981);
#333=VERTEX_POINT('',#983);
#334=VERTEX_POINT('',#985);
#335=VERTEX_POINT('',#988);
#336=VERTEX_POINT('',#990);
#337=VERTEX_POINT('',#992);
#338=VERTEX_POINT('',#996);
#339=VERTEX_POINT('',#997);
#340=VERTEX_POINT('',#999);
#341=VERTEX_POINT('',#1001);
#342=VERTEX_POINT('',#1003);
#343=VERTEX_POINT('',#1005);
#344=VERTEX_POINT('',#1008);
#345=VERTEX_POINT('',#1010);
#346=VERTEX_POINT('',#1012);
#347=VERTEX_POINT('',#1014);
#348=VERTEX_POINT('',#1021);
#349=VERTEX_POINT('',#1023);
#350=VERTEX_POINT('',#1025);
#351=VERTEX_POINT('',#1027);
#352=VERTEX_POINT('',#1030);
#353=VERTEX_POINT('',#1032);
#354=VERTEX_POINT('',#1034);
#355=VERTEX_POINT('',#1038);
#356=VERTEX_POINT('',#1040);
#357=VERTEX_POINT('',#1042);
#358=VERTEX_POINT('',#1044);
#359=VERTEX_POINT('',#1047);
#360=VERTEX_POINT('',#1049);
#361=VERTEX_POINT('',#1051);
#362=VERTEX_POINT('',#1062);
#363=VERTEX_POINT('',#1063);
#364=VERTEX_POINT('',#1068);
#365=VERTEX_POINT('',#1072);
#366=VERTEX_POINT('',#1101);
#367=VERTEX_POINT('',#1103);
#368=VERTEX_POINT('',#1107);
#369=VERTEX_POINT('',#1111);
#370=LINE('',#924,#462);
#371=LINE('',#927,#463);
#372=LINE('',#929,#464);
#373=LINE('',#931,#465);
#374=LINE('',#932,#466);
#375=LINE('',#935,#467);
#376=LINE('',#937,#468);
#377=LINE('',#939,#469);
#378=LINE('',#941,#470);
#379=LINE('',#944,#471);
#380=LINE('',#946,#472);
#381=LINE('',#948,#473);
#382=LINE('',#950,#474);
#383=LINE('',#952,#475);
#384=LINE('',#954,#476);
#385=LINE('',#956,#477);
#386=LINE('',#958,#478);
#387=LINE('',#961,#479);
#388=LINE('',#963,#480);
#389=LINE('',#965,#481);
#390=LINE('',#967,#482);
#391=LINE('',#969,#483);
#392=LINE('',#971,#484);
#393=LINE('',#973,#485);
#394=LINE('',#976,#486);
#395=LINE('',#978,#487);
#396=LINE('',#980,#488);
#397=LINE('',#982,#489);
#398=LINE('',#984,#490);
#399=LINE('',#986,#491);
#400=LINE('',#987,#492);
#401=LINE('',#989,#493);
#402=LINE('',#991,#494);
#403=LINE('',#995,#495);
#404=LINE('',#998,#496);
#405=LINE('',#1002,#497);
#406=LINE('',#1004,#498);
#407=LINE('',#1006,#499);
#408=LINE('',#1007,#500);
#409=LINE('',#1009,#501);
#410=LINE('',#1011,#502);
#411=LINE('',#1013,#503);
#412=LINE('',#1015,#504);
#413=LINE('',#1017,#505);
#414=LINE('',#1018,#506);
#415=LINE('',#1020,#507);
#416=LINE('',#1022,#508);
#417=LINE('',#1026,#509);
#418=LINE('',#1028,#510);
#419=LINE('',#1029,#511);
#420=LINE('',#1031,#512);
#421=LINE('',#1033,#513);
#422=LINE('',#1035,#514);
#423=LINE('',#1037,#515);
#424=LINE('',#1039,#516);
#425=LINE('',#1041,#517);
#426=LINE('',#1043,#518);
#427=LINE('',#1045,#519);
#428=LINE('',#1046,#520);
#429=LINE('',#1048,#521);
#430=LINE('',#1052,#522);
#431=LINE('',#1054,#523);
#432=LINE('',#1055,#524);
#433=LINE('',#1057,#525);
#434=LINE('',#1058,#526);
#435=LINE('',#1059,#527);
#436=LINE('',#1061,#528);
#437=LINE('',#1064,#529);
#438=LINE('',#1065,#530);
#439=LINE('',#1067,#531);
#440=LINE('',#1069,#532);
#441=LINE('',#1071,#533);
#442=LINE('',#1073,#534);
#443=LINE('',#1075,#535);
#444=LINE('',#1077,#536);
#445=LINE('',#1078,#537);
#446=LINE('',#1080,#538);
#447=LINE('',#1082,#539);
#448=LINE('',#1084,#540);
#449=LINE('',#1085,#541);
#450=LINE('',#1087,#542);
#451=LINE('',#1088,#543);
#452=LINE('',#1098,#544);
#453=LINE('',#1100,#545);
#454=LINE('',#1102,#546);
#455=LINE('',#1104,#547);
#456=LINE('',#1106,#548);
#457=LINE('',#1108,#549);
#458=LINE('',#1110,#550);
#459=LINE('',#1112,#551);
#460=LINE('',#1114,#552);
#461=LINE('',#1116,#553);
#462=VECTOR('',#754,1.);
#463=VECTOR('',#755,1.);
#464=VECTOR('',#756,1.);
#465=VECTOR('',#757,1.);
#466=VECTOR('',#758,1.);
#467=VECTOR('',#759,1.);
#468=VECTOR('',#760,1.);
#469=VECTOR('',#761,1.);
#470=VECTOR('',#764,1.);
#471=VECTOR('',#765,1.);
#472=VECTOR('',#766,1.);
#473=VECTOR('',#767,1.);
#474=VECTOR('',#768,1.);
#475=VECTOR('',#769,1.);
#476=VECTOR('',#770,1.);
#477=VECTOR('',#771,1.);
#478=VECTOR('',#774,1.);
#479=VECTOR('',#775,1.);
#480=VECTOR('',#776,1.);
#481=VECTOR('',#777,1.);
#482=VECTOR('',#780,1.);
#483=VECTOR('',#781,1.);
#484=VECTOR('',#782,1.);
#485=VECTOR('',#785,1.);
#486=VECTOR('',#786,1.);
#487=VECTOR('',#787,1.);
#488=VECTOR('',#788,1.);
#489=VECTOR('',#789,1.);
#490=VECTOR('',#790,1.);
#491=VECTOR('',#791,1.);
#492=VECTOR('',#792,1.);
#493=VECTOR('',#793,1.);
#494=VECTOR('',#794,1.);
#495=VECTOR('',#799,1.);
#496=VECTOR('',#800,1.);
#497=VECTOR('',#803,1.);
#498=VECTOR('',#804,1.);
#499=VECTOR('',#805,1.);
#500=VECTOR('',#806,1.);
#501=VECTOR('',#807,1.);
#502=VECTOR('',#808,1.);
#503=VECTOR('',#809,1.);
#504=VECTOR('',#810,1.);
#505=VECTOR('',#813,1.);
#506=VECTOR('',#814,1.);
#507=VECTOR('',#817,1.);
#508=VECTOR('',#818,1.);
#509=VECTOR('',#821,1.);
#510=VECTOR('',#822,1.);
#511=VECTOR('',#823,1.);
#512=VECTOR('',#824,1.);
#513=VECTOR('',#825,1.);
#514=VECTOR('',#826,1.);
#515=VECTOR('',#829,1.);
#516=VECTOR('',#830,1.);
#517=VECTOR('',#831,1.);
#518=VECTOR('',#832,1.);
#519=VECTOR('',#833,1.);
#520=VECTOR('',#834,1.);
#521=VECTOR('',#835,1.);
#522=VECTOR('',#838,1.);
#523=VECTOR('',#841,1.);
#524=VECTOR('',#842,1.);
#525=VECTOR('',#845,1.);
#526=VECTOR('',#846,1.);
#527=VECTOR('',#847,1.);
#528=VECTOR('',#850,1.);
#529=VECTOR('',#851,1.);
#530=VECTOR('',#852,1.);
#531=VECTOR('',#855,1.);
#532=VECTOR('',#856,1.);
#533=VECTOR('',#859,1.);
#534=VECTOR('',#860,1.);
#535=VECTOR('',#863,1.);
#536=VECTOR('',#866,1.);
#537=VECTOR('',#867,1.);
#538=VECTOR('',#870,1.);
#539=VECTOR('',#873,1.);
#540=VECTOR('',#876,1.);
#541=VECTOR('',#877,1.);
#542=VECTOR('',#880,1.);
#543=VECTOR('',#881,1.);
#544=VECTOR('',#900,1.);
#545=VECTOR('',#903,1.);
#546=VECTOR('',#904,1.);
#547=VECTOR('',#905,1.);
#548=VECTOR('',#908,1.);
#549=VECTOR('',#909,1.);
#550=VECTOR('',#912,1.);
#551=VECTOR('',#913,1.);
#552=VECTOR('',#916,1.);
#553=VECTOR('',#919,1.);
#554=EDGE_LOOP('',(#18,#19,#20,#21));
#555=EDGE_LOOP('',(#22,#23,#24,#25));
#556=EDGE_LOOP('',(#26,#27,#28,#29,#30,#31,#32,#33));
#557=EDGE_LOOP('',(#34,#35,#36,#37));
#558=EDGE_LOOP('',(#38,#39,#40,#41));
#559=EDGE_LOOP('',(#42,#43,#44,#45,#46,#47,#48,#49,#50,#51,#52,#53));
#560=EDGE_LOOP('',(#54,#55,#56,#57,#58,#59,#60,#61,#62,#63,#64,#65));
#561=EDGE_LOOP('',(#66,#67,#68,#69));
#562=EDGE_LOOP('',(#70,#71,#72,#73,#74,#75,#76,#77,#78,#79,#80,#81));
#563=EDGE_LOOP('',(#82,#83,#84,#85,#86,#87,#88,#89,#90,#91,#92,#93));
#564=EDGE_LOOP('',(#94,#95,#96,#97));
#565=EDGE_LOOP('',(#98,#99,#100,#101,#102,#103,#104,#105));
#566=EDGE_LOOP('',(#106,#107,#108,#109));
#567=EDGE_LOOP('',(#110,#111,#112,#113));
#568=EDGE_LOOP('',(#114,#115,#116,#117));
#569=EDGE_LOOP('',(#118,#119,#120,#121));
#570=EDGE_LOOP('',(#122,#123,#124,#125));
#571=EDGE_LOOP('',(#126,#127,#128,#129));
#572=EDGE_LOOP('',(#130,#131,#132,#133));
#573=EDGE_LOOP('',(#134,#135,#136,#137));
#574=EDGE_LOOP('',(#138,#139,#140,#141));
#575=EDGE_LOOP('',(#142,#143,#144,#145));
#576=EDGE_LOOP('',(#146,#147,#148,#149));
#577=EDGE_LOOP('',(#150,#151,#152,#153));
#578=EDGE_LOOP('',(#154,#155,#156,#157));
#579=EDGE_LOOP('',(#158,#159,#160,#161));
#580=EDGE_LOOP('',(#162,#163,#164,#165));
#581=EDGE_LOOP('',(#166,#167,#168,#169));
#582=EDGE_LOOP('',(#170,#171,#172,#173));
#583=EDGE_LOOP('',(#174,#175,#176,#177));
#584=EDGE_LOOP('',(#178,#179,#180,#181));
#585=EDGE_LOOP('',(#182,#183,#184,#185));
#586=EDGE_LOOP('',(#186,#187,#188,#189));
#587=EDGE_LOOP('',(#190,#191,#192,#193));
#588=EDGE_LOOP('',(#194,#195,#196,#197));
#589=EDGE_LOOP('',(#198,#199,#200,#201));
#590=EDGE_LOOP('',(#202,#203,#204,#205));
#591=EDGE_LOOP('',(#206,#207,#208,#209));
#592=FACE_BOUND('',#554,.T.);
#593=FACE_BOUND('',#555,.T.);
#594=FACE_BOUND('',#556,.T.);
#595=FACE_BOUND('',#557,.T.);
#596=FACE_BOUND('',#558,.T.);
#597=FACE_BOUND('',#559,.T.);
#598=FACE_BOUND('',#560,.T.);
#599=FACE_BOUND('',#561,.T.);
#600=FACE_BOUND('',#562,.T.);
#601=FACE_BOUND('',#563,.T.);
#602=FACE_BOUND('',#564,.T.);
#603=FACE_BOUND('',#565,.T.);
#604=FACE_BOUND('',#566,.T.);
#605=FACE_BOUND('',#567,.T.);
#606=FACE_BOUND('',#568,.T.);
#607=FACE_BOUND('',#569,.T.);
#608=FACE_BOUND('',#570,.T.);
#609=FACE_BOUND('',#571,.T.);
#610=FACE_BOUND('',#572,.T.);
#611=FACE_BOUND('',#573,.T.);
#612=FACE_BOUND('',#574,.T.);
#613=FACE_BOUND('',#575,.T.);
#614=FACE_BOUND('',#576,.T.);
#615=FACE_BOUND('',#577,.T.);
#616=FACE_BOUND('',#578,.T.);
#617=FACE_BOUND('',#579,.T.);
#618=FACE_BOUND('',#580,.T.);
#619=FACE_BOUND('',#581,.T.);
#620=FACE_BOUND('',#582,.T.);
#621=FACE_BOUND('',#583,.T.);
#622=FACE_BOUND('',#584,.T.);
#623=FACE_BOUND('',#585,.T.);
#624=FACE_BOUND('',#586,.T.);
#625=FACE_BOUND('',#587,.T.);
#626=FACE_BOUND('',#588,.T.);
#627=FACE_BOUND('',#589,.T.);
#628=FACE_BOUND('',#590,.T.);
#629=FACE_BOUND('',#591,.T.);
#630=PLANE('',#711);
#631=PLANE('',#712);
#632=PLANE('',#713);
#633=PLANE('',#714);
#634=PLANE('',#715);
#635=PLANE('',#717);
#636=PLANE('',#719);
#637=PLANE('',#720);
#638=PLANE('',#722);
#639=PLANE('',#724);
#640=PLANE('',#725);
#641=PLANE('',#726);
#642=PLANE('',#727);
#643=PLANE('',#728);
#644=PLANE('',#729);
#645=PLANE('',#730);
#646=PLANE('',#731);
#647=PLANE('',#732);
#648=PLANE('',#733);
#649=PLANE('',#734);
#650=PLANE('',#735);
#651=PLANE('',#736);
#652=PLANE('',#738);
#653=PLANE('',#739);
#654=PLANE('',#741);
#655=PLANE('',#742);
#656=PLANE('',#743);
#657=PLANE('',#744);
#658=PLANE('',#745);
#659=PLANE('',#746);
#660=PLANE('',#747);
#661=PLANE('',#748);
#662=PLANE('',#749);
#663=ADVANCED_FACE('',(#592,#593),#630,.T.);
#664=ADVANCED_FACE('',(#594),#631,.T.);
#665=ADVANCED_FACE('',(#595),#632,.F.);
#666=ADVANCED_FACE('',(#596),#633,.T.);
#667=ADVANCED_FACE('',(#597),#634,.F.);
#668=ADVANCED_FACE('',(#598),#635,.T.);
#669=ADVANCED_FACE('',(#599),#636,.T.);
#670=ADVANCED_FACE('',(#600),#637,.T.);
#671=ADVANCED_FACE('',(#601),#638,.F.);
#672=ADVANCED_FACE('',(#602),#639,.T.);
#673=ADVANCED_FACE('',(#603),#640,.T.);
#674=ADVANCED_FACE('',(#604),#641,.T.);
#675=ADVANCED_FACE('',(#605),#642,.F.);
#676=ADVANCED_FACE('',(#606),#643,.F.);
#677=ADVANCED_FACE('',(#607),#644,.T.);
#678=ADVANCED_FACE('',(#608,#609),#645,.F.);
#679=ADVANCED_FACE('',(#610),#646,.T.);
#680=ADVANCED_FACE('',(#611),#647,.F.);
#681=ADVANCED_FACE('',(#612),#648,.T.);
#682=ADVANCED_FACE('',(#613),#649,.T.);
#683=ADVANCED_FACE('',(#614),#650,.F.);
#684=ADVANCED_FACE('',(#615),#651,.T.);
#685=ADVANCED_FACE('',(#616),#12,.F.);
#686=ADVANCED_FACE('',(#617),#652,.T.);
#687=ADVANCED_FACE('',(#618),#653,.F.);
#688=ADVANCED_FACE('',(#619),#13,.F.);
#689=ADVANCED_FACE('',(#620),#654,.T.);
#690=ADVANCED_FACE('',(#621),#655,.F.);
#691=ADVANCED_FACE('',(#622),#656,.F.);
#692=ADVANCED_FACE('',(#623),#657,.T.);
#693=ADVANCED_FACE('',(#624),#658,.F.);
#694=ADVANCED_FACE('',(#625),#659,.F.);
#695=ADVANCED_FACE('',(#626),#660,.T.);
#696=ADVANCED_FACE('',(#627),#661,.T.);
#697=ADVANCED_FACE('',(#628,#629),#662,.T.);
#698=CLOSED_SHELL('',(#663,#664,#665,#666,#667,#668,#669,#670,#671,#672,
#673,#674,#675,#676,#677,#678,#679,#680,#681,#682,#683,#684,#685,#686,#687,
#688,#689,#690,#691,#692,#693,#694,#695,#696,#697));
#699=STYLED_ITEM('',(#700),#707);
#700=PRESENTATION_STYLE_ASSIGNMENT((#701));
#701=SURFACE_STYLE_USAGE(.BOTH.,#702);
#702=SURFACE_SIDE_STYLE('',(#703));
#703=SURFACE_STYLE_FILL_AREA(#704);
#704=FILL_AREA_STYLE('',(#705));
#705=FILL_AREA_STYLE_COLOUR('',#706);
#706=COLOUR_RGB('',0.262745098039216,0.282352941176471,0.301960784313725);
#707=MANIFOLD_SOLID_BREP('Part 1',#698);
#708=SHAPE_DEFINITION_REPRESENTATION(#1124,#709);
#709=SHAPE_REPRESENTATION('Part 1',(#710),#1119);
#710=AXIS2_PLACEMENT_3D('',#922,#750,#751);
#711=AXIS2_PLACEMENT_3D('',#923,#752,#753);
#712=AXIS2_PLACEMENT_3D('',#940,#762,#763);
#713=AXIS2_PLACEMENT_3D('',#957,#772,#773);
#714=AXIS2_PLACEMENT_3D('',#966,#778,#779);
#715=AXIS2_PLACEMENT_3D('',#972,#783,#784);
#716=AXIS2_PLACEMENT_3D('',#993,#795,#796);
#717=AXIS2_PLACEMENT_3D('',#994,#797,#798);
#718=AXIS2_PLACEMENT_3D('',#1000,#801,#802);
#719=AXIS2_PLACEMENT_3D('',#1016,#811,#812);
#720=AXIS2_PLACEMENT_3D('',#1019,#815,#816);
#721=AXIS2_PLACEMENT_3D('',#1024,#819,#820);
#722=AXIS2_PLACEMENT_3D('',#1036,#827,#828);
#723=AXIS2_PLACEMENT_3D('',#1050,#836,#837);
#724=AXIS2_PLACEMENT_3D('',#1053,#839,#840);
#725=AXIS2_PLACEMENT_3D('',#1056,#843,#844);
#726=AXIS2_PLACEMENT_3D('',#1060,#848,#849);
#727=AXIS2_PLACEMENT_3D('',#1066,#853,#854);
#728=AXIS2_PLACEMENT_3D('',#1070,#857,#858);
#729=AXIS2_PLACEMENT_3D('',#1074,#861,#862);
#730=AXIS2_PLACEMENT_3D('',#1076,#864,#865);
#731=AXIS2_PLACEMENT_3D('',#1079,#868,#869);
#732=AXIS2_PLACEMENT_3D('',#1081,#871,#872);
#733=AXIS2_PLACEMENT_3D('',#1083,#874,#875);
#734=AXIS2_PLACEMENT_3D('',#1086,#878,#879);
#735=AXIS2_PLACEMENT_3D('',#1089,#882,#883);
#736=AXIS2_PLACEMENT_3D('',#1090,#884,#885);
#737=AXIS2_PLACEMENT_3D('',#1091,#886,#887);
#738=AXIS2_PLACEMENT_3D('',#1092,#888,#889);
#739=AXIS2_PLACEMENT_3D('',#1093,#890,#891);
#740=AXIS2_PLACEMENT_3D('',#1094,#892,#893);
#741=AXIS2_PLACEMENT_3D('',#1095,#894,#895);
#742=AXIS2_PLACEMENT_3D('',#1096,#896,#897);
#743=AXIS2_PLACEMENT_3D('',#1097,#898,#899);
#744=AXIS2_PLACEMENT_3D('',#1099,#901,#902);
#745=AXIS2_PLACEMENT_3D('',#1105,#906,#907);
#746=AXIS2_PLACEMENT_3D('',#1109,#910,#911);
#747=AXIS2_PLACEMENT_3D('',#1113,#914,#915);
#748=AXIS2_PLACEMENT_3D('',#1115,#917,#918);
#749=AXIS2_PLACEMENT_3D('',#1117,#920,#921);
#750=DIRECTION('',(0.,0.,1.));
#751=DIRECTION('',(1.,0.,0.));
#752=DIRECTION('',(0.,0.,1.));
#753=DIRECTION('',(1.,0.,0.));
#754=DIRECTION('',(-9.57088814332032E-17,-1.,0.));
#755=DIRECTION('',(-1.,0.,0.));
#756=DIRECTION('',(-9.57088814332032E-17,-1.,0.));
#757=DIRECTION('',(-1.,0.,0.));
#758=DIRECTION('',(-1.,0.,0.));
#759=DIRECTION('',(0.,-1.,0.));
#760=DIRECTION('',(-1.,0.,0.));
#761=DIRECTION('',(0.,-1.,0.));
#762=DIRECTION('',(0.,0.,1.));
#763=DIRECTION('',(1.,0.,0.));
#764=DIRECTION('',(2.77555756156289E-16,-1.,0.));
#765=DIRECTION('',(1.,0.,0.));
#766=DIRECTION('',(0.,-1.,0.));
#767=DIRECTION('',(1.,0.,0.));
#768=DIRECTION('',(0.,-1.,0.));
#769=DIRECTION('',(-1.,0.,0.));
#770=DIRECTION('',(0.,-1.,0.));
#771=DIRECTION('',(-1.,0.,0.));
#772=DIRECTION('',(0.,-1.,0.));
#773=DIRECTION('',(0.,0.,-1.));
#774=DIRECTION('',(-1.,1.38777878078145E-16,0.));
#775=DIRECTION('',(0.,0.,-1.));
#776=DIRECTION('',(-1.,0.,0.));
#777=DIRECTION('',(0.,0.,-1.));
#778=DIRECTION('',(0.,-1.,0.));
#779=DIRECTION('',(0.,0.,-1.));
#780=DIRECTION('',(0.,0.,-1.));
#781=DIRECTION('',(-1.,1.38777878078145E-16,0.));
#782=DIRECTION('',(0.,0.,-1.));
#783=DIRECTION('',(1.,-2.77555756156289E-16,0.));
#784=DIRECTION('',(2.77555756156289E-16,1.,0.));
#785=DIRECTION('',(-2.77555756156289E-16,-1.,0.));
#786=DIRECTION('',(9.17933328987535E-17,0.330720335870338,-0.94372880608881));
#787=DIRECTION('',(0.,0.,-1.));
#788=DIRECTION('',(0.,-1.,0.));
#789=DIRECTION('',(0.,0.,1.));
#790=DIRECTION('',(0.,-1.,0.));
#791=DIRECTION('',(0.,0.,1.));
#792=DIRECTION('',(0.,0.,-1.));
#793=DIRECTION('',(-9.17933328987535E-17,-0.330720335870338,-0.94372880608881));
#794=DIRECTION('',(-2.77555756156289E-16,-1.,0.));
#795=DIRECTION('',(1.,-2.77555756156289E-16,0.));
#796=DIRECTION('',(2.77555756156289E-16,1.,0.));
#797=DIRECTION('',(1.,2.77555756156289E-16,0.));
#798=DIRECTION('',(-2.77555756156289E-16,1.,0.));
#799=DIRECTION('',(-9.17933328987535E-17,0.330720335870338,-0.94372880608881));
#800=DIRECTION('',(2.77555756156289E-16,-1.,0.));
#801=DIRECTION('',(1.,2.77555756156289E-16,0.));
#802=DIRECTION('',(-2.77555756156289E-16,1.,0.));
#803=DIRECTION('',(2.77555756156289E-16,-1.,0.));
#804=DIRECTION('',(9.17933328987535E-17,-0.330720335870338,-0.94372880608881));
#805=DIRECTION('',(0.,0.,-1.));
#806=DIRECTION('',(0.,0.,1.));
#807=DIRECTION('',(2.77555756156289E-16,-1.,0.));
#808=DIRECTION('',(0.,0.,1.));
#809=DIRECTION('',(2.77555756156289E-16,-1.,0.));
#810=DIRECTION('',(0.,0.,-1.));
#811=DIRECTION('',(0.,0.,1.));
#812=DIRECTION('',(1.,0.,0.));
#813=DIRECTION('',(-1.,1.38777878078145E-16,0.));
#814=DIRECTION('',(-1.,1.38777878078145E-16,0.));
#815=DIRECTION('',(1.,0.,0.));
#816=DIRECTION('',(0.,0.,-1.));
#817=DIRECTION('',(0.,0.330720335870338,-0.94372880608881));
#818=DIRECTION('',(0.,-1.,0.));
#819=DIRECTION('',(1.,0.,0.));
#820=DIRECTION('',(0.,0.,-1.));
#821=DIRECTION('',(0.,-1.,0.));
#822=DIRECTION('',(0.,-0.330720335870338,-0.94372880608881));
#823=DIRECTION('',(0.,0.,1.));
#824=DIRECTION('',(0.,-1.,0.));
#825=DIRECTION('',(0.,0.,1.));
#826=DIRECTION('',(0.,-1.,0.));
#827=DIRECTION('',(1.,-1.38777878078145E-16,0.));
#828=DIRECTION('',(1.38777878078145E-16,1.,0.));
#829=DIRECTION('',(-4.58966664493767E-17,-0.330720335870338,0.94372880608881));
#830=DIRECTION('',(0.,-1.,0.));
#831=DIRECTION('',(0.,0.,1.));
#832=DIRECTION('',(0.,-1.,0.));
#833=DIRECTION('',(0.,0.,1.));
#834=DIRECTION('',(4.58966664493767E-17,0.330720335870338,0.94372880608881));
#835=DIRECTION('',(-1.38777878078145E-16,-1.,0.));
#836=DIRECTION('',(-1.,1.38777878078145E-16,0.));
#837=DIRECTION('',(-1.38777878078145E-16,-1.,0.));
#838=DIRECTION('',(-1.38777878078145E-16,-1.,0.));
#839=DIRECTION('',(0.,0.,1.));
#840=DIRECTION('',(1.,0.,0.));
#841=DIRECTION('',(-1.,1.38777878078145E-16,0.));
#842=DIRECTION('',(-1.,1.38777878078145E-16,0.));
#843=DIRECTION('',(0.,0.,1.));
#844=DIRECTION('',(1.,0.,0.));
#845=DIRECTION('',(-1.,0.,0.));
#846=DIRECTION('',(1.,0.,0.));
#847=DIRECTION('',(1.,0.,0.));
#848=DIRECTION('',(1.,-9.57088814332032E-17,0.));
#849=DIRECTION('',(9.57088814332032E-17,1.,0.));
#850=DIRECTION('',(-9.57088814332032E-17,-1.,0.));
#851=DIRECTION('',(0.,0.,-1.));
#852=DIRECTION('',(0.,0.,-1.));
#853=DIRECTION('',(0.,-1.,0.));
#854=DIRECTION('',(0.,0.,-1.));
#855=DIRECTION('',(-1.,0.,0.));
#856=DIRECTION('',(0.,0.,-1.));
#857=DIRECTION('',(1.,-9.57088814332032E-17,0.));
#858=DIRECTION('',(9.57088814332032E-17,1.,0.));
#859=DIRECTION('',(-9.57088814332032E-17,-1.,0.));
#860=DIRECTION('',(0.,0.,-1.));
#861=DIRECTION('',(0.,-1.,0.));
#862=DIRECTION('',(0.,0.,-1.));
#863=DIRECTION('',(-1.,0.,0.));
#864=DIRECTION('',(0.,0.,1.));
#865=DIRECTION('',(1.,0.,0.));
#866=DIRECTION('',(1.,0.,0.));
#867=DIRECTION('',(1.,0.,0.));
#868=DIRECTION('',(0.,1.,0.));
#869=DIRECTION('',(0.,0.,1.));
#870=DIRECTION('',(-1.,1.38777878078145E-16,0.));
#871=DIRECTION('',(0.,1.,0.));
#872=DIRECTION('',(0.,0.,1.));
#873=DIRECTION('',(-1.,1.38777878078145E-16,0.));
#874=DIRECTION('',(0.,0.,1.));
#875=DIRECTION('',(1.,0.,0.));
#876=DIRECTION('',(-1.,1.38777878078145E-16,0.));
#877=DIRECTION('',(-1.,1.38777878078145E-16,0.));
#878=DIRECTION('',(0.,0.,1.));
#879=DIRECTION('',(1.,0.,0.));
#880=DIRECTION('',(-1.,1.38777878078145E-16,0.));
#881=DIRECTION('',(-1.,1.38777878078145E-16,0.));
#882=DIRECTION('',(0.,-1.,0.));
#883=DIRECTION('',(0.,0.,-1.));
#884=DIRECTION('',(0.,-1.,0.));
#885=DIRECTION('',(0.,0.,-1.));
#886=DIRECTION('',(-1.,1.38777878078145E-16,0.));
#887=DIRECTION('',(-1.38777878078145E-16,-1.,0.));
#888=DIRECTION('',(-1.30968681190226E-16,-0.94372880608881,0.330720335870338));
#889=DIRECTION('',(0.,-0.330720335870338,-0.94372880608881));
#890=DIRECTION('',(-1.30968681190226E-16,-0.94372880608881,-0.330720335870338));
#891=DIRECTION('',(0.,0.330720335870338,-0.94372880608881));
#892=DIRECTION('',(-1.,1.38777878078145E-16,0.));
#893=DIRECTION('',(-1.38777878078145E-16,-1.,0.));
#894=DIRECTION('',(-1.30968681190226E-16,-0.94372880608881,0.330720335870338));
#895=DIRECTION('',(0.,-0.330720335870338,-0.94372880608881));
#896=DIRECTION('',(-1.30968681190226E-16,-0.94372880608881,-0.330720335870338));
#897=DIRECTION('',(0.,0.330720335870338,-0.94372880608881));
#898=DIRECTION('',(0.,1.,0.));
#899=DIRECTION('',(0.,0.,1.));
#900=DIRECTION('',(-1.,0.,0.));
#901=DIRECTION('',(-1.,0.,0.));
#902=DIRECTION('',(0.,0.,1.));
#903=DIRECTION('',(0.,0.,1.));
#904=DIRECTION('',(0.,-1.,0.));
#905=DIRECTION('',(0.,0.,1.));
#906=DIRECTION('',(0.,1.,0.));
#907=DIRECTION('',(0.,0.,1.));
#908=DIRECTION('',(0.,0.,1.));
#909=DIRECTION('',(-1.,0.,0.));
#910=DIRECTION('',(-1.,0.,0.));
#911=DIRECTION('',(0.,0.,1.));
#912=DIRECTION('',(0.,0.,1.));
#913=DIRECTION('',(0.,-1.,0.));
#914=DIRECTION('',(0.,1.,0.));
#915=DIRECTION('',(0.,0.,1.));
#916=DIRECTION('',(-1.,0.,0.));
#917=DIRECTION('',(0.,1.,0.));
#918=DIRECTION('',(0.,0.,1.));
#919=DIRECTION('',(-1.,0.,0.));
#920=DIRECTION('',(0.,0.,1.));
#921=DIRECTION('',(1.,0.,0.));
#922=CARTESIAN_POINT('',(0.,0.,0.));
#923=CARTESIAN_POINT('',(0.,-2.77555756156289E-17,0.003));
#924=CARTESIAN_POINT('',(0.1625,-1.38777878078145E-17,0.003));
#925=CARTESIAN_POINT('',(0.1625,0.145,0.003));
#926=CARTESIAN_POINT('',(0.1625,-0.145,0.003));
#927=CARTESIAN_POINT('',(0.,0.145,0.003));
#928=CARTESIAN_POINT('',(-0.1625,0.145,0.003));
#929=CARTESIAN_POINT('',(-0.1625,-2.77555756156289E-17,0.003));
#930=CARTESIAN_POINT('',(-0.1625,-0.145,0.003));
#931=CARTESIAN_POINT('',(-2.77555756156289E-17,-0.145,0.003));
#932=CARTESIAN_POINT('',(0.,0.135,0.003));
#933=CARTESIAN_POINT('',(0.1525,0.135,0.003));
#934=CARTESIAN_POINT('',(-0.1525,0.135,0.003));
#935=CARTESIAN_POINT('',(0.1525,0.,0.003));
#936=CARTESIAN_POINT('',(0.1525,-0.135,0.003));
#937=CARTESIAN_POINT('',(0.,-0.135,0.003));
#938=CARTESIAN_POINT('',(-0.1525,-0.135,0.003));
#939=CARTESIAN_POINT('',(-0.1525,0.,0.003));
#940=CARTESIAN_POINT('',(0.,-2.77555756156289E-17,0.003));
#941=CARTESIAN_POINT('',(0.068,6.93889390390723E-18,0.003));
#942=CARTESIAN_POINT('',(0.068,-0.05,0.003));
#943=CARTESIAN_POINT('',(0.068,-0.105,0.003));
#944=CARTESIAN_POINT('',(0.0665,-0.05,0.003));
#945=CARTESIAN_POINT('',(0.065,-0.05,0.003));
#946=CARTESIAN_POINT('',(0.065,0.,0.003));
#947=CARTESIAN_POINT('',(0.065,-0.1,0.003));
#948=CARTESIAN_POINT('',(0.,-0.1,0.003));
#949=CARTESIAN_POINT('',(-0.065,-0.1,0.003));
#950=CARTESIAN_POINT('',(-0.065,0.,0.003));
#951=CARTESIAN_POINT('',(-0.065,-0.05,0.003));
#952=CARTESIAN_POINT('',(-0.0665,-0.05,0.003));
#953=CARTESIAN_POINT('',(-0.068,-0.05,0.003));
#954=CARTESIAN_POINT('',(-0.068,0.,0.003));
#955=CARTESIAN_POINT('',(-0.068,-0.105,0.003));
#956=CARTESIAN_POINT('',(0.,-0.105,0.003));
#957=CARTESIAN_POINT('',(-0.0665,0.05,0.153));
#958=CARTESIAN_POINT('',(0.132,0.05,0.033));
#959=CARTESIAN_POINT('',(-0.065,0.05,0.033));
#960=CARTESIAN_POINT('',(-0.068,0.05,0.033));
#961=CARTESIAN_POINT('',(-0.065,0.05,0.153));
#962=CARTESIAN_POINT('',(-0.065,0.05,0.003));
#963=CARTESIAN_POINT('',(-0.0665,0.05,0.003));
#964=CARTESIAN_POINT('',(-0.068,0.05,0.003));
#965=CARTESIAN_POINT('',(-0.068,0.05,0.153));
#966=CARTESIAN_POINT('',(-0.0665,-0.05,0.153));
#967=CARTESIAN_POINT('',(-0.065,-0.05,0.153));
#968=CARTESIAN_POINT('',(-0.065,-0.05,0.033));
#969=CARTESIAN_POINT('',(0.132,-0.05,0.033));
#970=CARTESIAN_POINT('',(-0.068,-0.05,0.033));
#971=CARTESIAN_POINT('',(-0.068,-0.05,0.153));
#972=CARTESIAN_POINT('',(0.065,-6.93889390390723E-18,0.153));
#973=CARTESIAN_POINT('',(0.065,-6.93889390390723E-18,0.153));
#974=CARTESIAN_POINT('',(0.065,0.00794719833877172,0.153));
#975=CARTESIAN_POINT('',(0.065,0.0075,0.153));
#976=CARTESIAN_POINT('',(0.065,0.00707796604566609,0.155480402519028));
#977=CARTESIAN_POINT('',(0.065,0.05,0.033));
#978=CARTESIAN_POINT('',(0.065,0.05,0.153));
#979=CARTESIAN_POINT('',(0.065,0.05,0.003));
#980=CARTESIAN_POINT('',(0.065,0.,0.003));
#981=CARTESIAN_POINT('',(0.065,0.1,0.003));
#982=CARTESIAN_POINT('',(0.065,0.1,-0.022));
#983=CARTESIAN_POINT('',(0.065,0.1,0.));
#984=CARTESIAN_POINT('',(0.065,-2.77555756156289E-17,0.));
#985=CARTESIAN_POINT('',(0.065,-0.1,0.));
#986=CARTESIAN_POINT('',(0.065,-0.1,-0.022));
#987=CARTESIAN_POINT('',(0.065,-0.05,0.153));
#988=CARTESIAN_POINT('',(0.065,-0.05,0.033));
#989=CARTESIAN_POINT('',(0.065,-0.0070779660456661,0.155480402519028));
#990=CARTESIAN_POINT('',(0.065,-0.00794719833877172,0.153));
#991=CARTESIAN_POINT('',(0.065,-6.93889390390723E-18,0.153));
#992=CARTESIAN_POINT('',(0.065,-0.0075,0.153));
#993=CARTESIAN_POINT('',(0.065,-8.91647866652078E-18,0.153));
#994=CARTESIAN_POINT('',(0.068,6.93889390390723E-18,0.153));
#995=CARTESIAN_POINT('',(0.068,0.00707796604566609,0.155480402519028));
#996=CARTESIAN_POINT('',(0.068,0.00794719833877172,0.153));
#997=CARTESIAN_POINT('',(0.068,0.05,0.033));
#998=CARTESIAN_POINT('',(0.068,6.93889390390723E-18,0.153));
#999=CARTESIAN_POINT('',(0.068,0.0075,0.153));
#1000=CARTESIAN_POINT('',(0.068,-9.33281230075522E-18,0.153));
#1001=CARTESIAN_POINT('',(0.068,-0.0075,0.153));
#1002=CARTESIAN_POINT('',(0.068,6.93889390390723E-18,0.153));
#1003=CARTESIAN_POINT('',(0.068,-0.00794719833877172,0.153));
#1004=CARTESIAN_POINT('',(0.068,-0.0070779660456661,0.155480402519028));
#1005=CARTESIAN_POINT('',(0.068,-0.05,0.033));
#1006=CARTESIAN_POINT('',(0.068,-0.05,0.153));
#1007=CARTESIAN_POINT('',(0.068,-0.105,0.0015));
#1008=CARTESIAN_POINT('',(0.068,-0.105,0.0015));
#1009=CARTESIAN_POINT('',(0.068,6.93889390390723E-18,0.0015));
#1010=CARTESIAN_POINT('',(0.068,0.105,0.0015));
#1011=CARTESIAN_POINT('',(0.068,0.105,0.0015));
#1012=CARTESIAN_POINT('',(0.068,0.105,0.003));
#1013=CARTESIAN_POINT('',(0.068,6.93889390390723E-18,0.003));
#1014=CARTESIAN_POINT('',(0.068,0.05,0.003));
#1015=CARTESIAN_POINT('',(0.068,0.05,0.153));
#1016=CARTESIAN_POINT('',(0.,-2.77555756156289E-17,0.153));
#1017=CARTESIAN_POINT('',(0.132,0.00794719833877171,0.153));
#1018=CARTESIAN_POINT('',(0.132,0.0075,0.153));
#1019=CARTESIAN_POINT('',(-0.065,0.,0.153));
#1020=CARTESIAN_POINT('',(-0.065,0.0070779660456661,0.155480402519028));
#1021=CARTESIAN_POINT('',(-0.065,0.00794719833877174,0.153));
#1022=CARTESIAN_POINT('',(-0.065,0.,0.153));
#1023=CARTESIAN_POINT('',(-0.065,0.0075,0.153));
#1024=CARTESIAN_POINT('',(-0.065,9.124645483638E-18,0.153));
#1025=CARTESIAN_POINT('',(-0.065,-0.0075,0.153));
#1026=CARTESIAN_POINT('',(-0.065,0.,0.153));
#1027=CARTESIAN_POINT('',(-0.065,-0.0079471983387717,0.153));
#1028=CARTESIAN_POINT('',(-0.065,-0.00707796604566608,0.155480402519028));
#1029=CARTESIAN_POINT('',(-0.065,-0.1,-0.022));
#1030=CARTESIAN_POINT('',(-0.065,-0.1,0.));
#1031=CARTESIAN_POINT('',(-0.065,-2.77555756156289E-17,0.));
#1032=CARTESIAN_POINT('',(-0.065,0.1,0.));
#1033=CARTESIAN_POINT('',(-0.065,0.1,-0.022));
#1034=CARTESIAN_POINT('',(-0.065,0.1,0.003));
#1035=CARTESIAN_POINT('',(-0.065,0.,0.003));
#1036=CARTESIAN_POINT('',(-0.068,6.93889390390723E-18,0.153));
#1037=CARTESIAN_POINT('',(-0.068,0.0289735991693859,0.093));
#1038=CARTESIAN_POINT('',(-0.068,0.00794719833877174,0.153));
#1039=CARTESIAN_POINT('',(-0.068,0.,0.003));
#1040=CARTESIAN_POINT('',(-0.068,0.105,0.003));
#1041=CARTESIAN_POINT('',(-0.068,0.105,0.0015));
#1042=CARTESIAN_POINT('',(-0.068,0.105,0.0015));
#1043=CARTESIAN_POINT('',(-0.068,0.,0.0015));
#1044=CARTESIAN_POINT('',(-0.068,-0.105,0.0015));
#1045=CARTESIAN_POINT('',(-0.068,-0.105,0.0015));
#1046=CARTESIAN_POINT('',(-0.068,-0.0289735991693859,0.093));
#1047=CARTESIAN_POINT('',(-0.068,-0.0079471983387717,0.153));
#1048=CARTESIAN_POINT('',(-0.068,6.93889390390723E-18,0.153));
#1049=CARTESIAN_POINT('',(-0.068,-0.0075,0.153));
#1050=CARTESIAN_POINT('',(-0.068,9.54097911787244E-18,0.153));
#1051=CARTESIAN_POINT('',(-0.068,0.0075,0.153));
#1052=CARTESIAN_POINT('',(-0.068,6.93889390390723E-18,0.153));
#1053=CARTESIAN_POINT('',(0.,-2.77555756156289E-17,0.153));
#1054=CARTESIAN_POINT('',(0.132,0.00794719833877171,0.153));
#1055=CARTESIAN_POINT('',(0.132,0.0075,0.153));
#1056=CARTESIAN_POINT('',(0.,-2.77555756156289E-17,0.003));
#1057=CARTESIAN_POINT('',(0.,0.105,0.003));
#1058=CARTESIAN_POINT('',(0.,0.1,0.003));
#1059=CARTESIAN_POINT('',(0.0665,0.05,0.003));
#1060=CARTESIAN_POINT('',(0.1625,-1.38777878078145E-17,0.003));
#1061=CARTESIAN_POINT('',(0.1625,-1.38777878078145E-17,0.));
#1062=CARTESIAN_POINT('',(0.1625,0.145,0.));
#1063=CARTESIAN_POINT('',(0.1625,-0.145,0.));
#1064=CARTESIAN_POINT('',(0.1625,0.145,0.003));
#1065=CARTESIAN_POINT('',(0.1625,-0.145,0.003));
#1066=CARTESIAN_POINT('',(0.,0.145,0.003));
#1067=CARTESIAN_POINT('',(0.,0.145,0.));
#1068=CARTESIAN_POINT('',(-0.1625,0.145,0.));
#1069=CARTESIAN_POINT('',(-0.1625,0.145,0.003));
#1070=CARTESIAN_POINT('',(-0.1625,-2.77555756156289E-17,0.003));
#1071=CARTESIAN_POINT('',(-0.1625,-2.77555756156289E-17,0.));
#1072=CARTESIAN_POINT('',(-0.1625,-0.145,0.));
#1073=CARTESIAN_POINT('',(-0.1625,-0.145,0.003));
#1074=CARTESIAN_POINT('',(-2.77555756156289E-17,-0.145,0.003));
#1075=CARTESIAN_POINT('',(-2.77555756156289E-17,-0.145,0.));
#1076=CARTESIAN_POINT('',(0.,-2.77555756156289E-17,0.));
#1077=CARTESIAN_POINT('',(0.,0.1,0.));
#1078=CARTESIAN_POINT('',(0.,-0.1,0.));
#1079=CARTESIAN_POINT('',(0.0665,0.05,0.153));
#1080=CARTESIAN_POINT('',(0.132,0.05,0.033));
#1081=CARTESIAN_POINT('',(0.0665,-0.05,0.153));
#1082=CARTESIAN_POINT('',(0.132,-0.05,0.033));
#1083=CARTESIAN_POINT('',(0.,-2.77555756156289E-17,0.153));
#1084=CARTESIAN_POINT('',(0.132,-0.00794719833877173,0.153));
#1085=CARTESIAN_POINT('',(0.132,-0.0075,0.153));
#1086=CARTESIAN_POINT('',(0.,-2.77555756156289E-17,0.153));
#1087=CARTESIAN_POINT('',(0.132,-0.00794719833877173,0.153));
#1088=CARTESIAN_POINT('',(0.132,-0.0075,0.153));
#1089=CARTESIAN_POINT('',(0.,-0.1,-0.022));
#1090=CARTESIAN_POINT('',(0.,0.1,-0.022));
#1091=CARTESIAN_POINT('',(0.132,-1.82145964977564E-17,0.153));
#1092=CARTESIAN_POINT('',(0.132,-0.0289735991693859,0.093));
#1093=CARTESIAN_POINT('',(0.132,0.0289735991693859,0.093));
#1094=CARTESIAN_POINT('',(0.132,-1.82145964977564E-17,0.153));
#1095=CARTESIAN_POINT('',(0.132,-0.0289735991693859,0.093));
#1096=CARTESIAN_POINT('',(0.132,0.0289735991693859,0.093));
#1097=CARTESIAN_POINT('',(0.,-0.105,0.0015));
#1098=CARTESIAN_POINT('',(0.,-0.105,0.0015));
#1099=CARTESIAN_POINT('',(0.1525,0.,0.0015));
#1100=CARTESIAN_POINT('',(0.1525,0.135,0.0015));
#1101=CARTESIAN_POINT('',(0.1525,0.135,0.0015));
#1102=CARTESIAN_POINT('',(0.1525,0.,0.0015));
#1103=CARTESIAN_POINT('',(0.1525,-0.135,0.0015));
#1104=CARTESIAN_POINT('',(0.1525,-0.135,0.0015));
#1105=CARTESIAN_POINT('',(0.,0.135,0.0015));
#1106=CARTESIAN_POINT('',(-0.1525,0.135,0.0015));
#1107=CARTESIAN_POINT('',(-0.1525,0.135,0.0015));
#1108=CARTESIAN_POINT('',(0.,0.135,0.0015));
#1109=CARTESIAN_POINT('',(-0.1525,0.,0.0015));
#1110=CARTESIAN_POINT('',(-0.1525,-0.135,0.0015));
#1111=CARTESIAN_POINT('',(-0.1525,-0.135,0.0015));
#1112=CARTESIAN_POINT('',(-0.1525,0.,0.0015));
#1113=CARTESIAN_POINT('',(0.,-0.135,0.0015));
#1114=CARTESIAN_POINT('',(0.,-0.135,0.0015));
#1115=CARTESIAN_POINT('',(0.,0.105,0.0015));
#1116=CARTESIAN_POINT('',(0.,0.105,0.0015));
#1117=CARTESIAN_POINT('',(0.,-2.77555756156289E-17,0.0015));
#1118=MECHANICAL_DESIGN_GEOMETRIC_PRESENTATION_REPRESENTATION('',(#699),
#1119);
#1119=(
GEOMETRIC_REPRESENTATION_CONTEXT(3)
GLOBAL_UNCERTAINTY_ASSIGNED_CONTEXT((#1120))
GLOBAL_UNIT_ASSIGNED_CONTEXT((#1123,#1122,#1121))
REPRESENTATION_CONTEXT('Part 1','TOP_LEVEL_ASSEMBLY_PART')
);
#1120=UNCERTAINTY_MEASURE_WITH_UNIT(LENGTH_MEASURE(1.E-8),#1123,
'DISTANCE_ACCURACY_VALUE','Maximum Tolerance applied to model');
#1121=(
NAMED_UNIT(*)
SI_UNIT($,.STERADIAN.)
SOLID_ANGLE_UNIT()
);
#1122=(
NAMED_UNIT(*)
PLANE_ANGLE_UNIT()
SI_UNIT($,.RADIAN.)
);
#1123=(
LENGTH_UNIT()
NAMED_UNIT(*)
SI_UNIT($,.METRE.)
);
#1124=PRODUCT_DEFINITION_SHAPE('','',#1125);
#1125=PRODUCT_DEFINITION('','',#1127,#1126);
#1126=PRODUCT_DEFINITION_CONTEXT('',#1133,'design');
#1127=PRODUCT_DEFINITION_FORMATION_WITH_SPECIFIED_SOURCE('','',#1129,
 .NOT_KNOWN.);
#1128=PRODUCT_RELATED_PRODUCT_CATEGORY('','',(#1129));
#1129=PRODUCT('Part 1','Part 1','Part 1',(#1131));
#1130=PRODUCT_CATEGORY('','');
#1131=PRODUCT_CONTEXT('',#1133,'mechanical');
#1132=APPLICATION_PROTOCOL_DEFINITION('international standard',
'ap242_managed_model_based_3d_engineering',2020,#1133);
#1133=APPLICATION_CONTEXT('managed model based 3d engineering');
ENDSEC;
END-ISO-10303-21;
