ISO-10303-21;
HEADER;
/* Generated by software containing ST-Developer
 * from STEP Tools, Inc. (www.steptools.com) 
 */
/* OPTION: using custom renumber hook */

FILE_DESCRIPTION(
/* description */ ('STEP AP242 Edition 2',
'CAx-IF Rec.Pracs.---Representation and Presentation of Product Manufa
cturing Information (PMI)---4.0---2014-10-13',
'CAx-IF Rec.Pracs.---3D Tessellated Geometry---0.4---2014-09-14','2;1',
'CAx-IF Rec.Pracs.---User Defined Attributes---1.5---2016-08-15'),
/* implementation_level */ '2;1');

FILE_NAME(
/* name */ 'Stepper holder',
/* time_stamp */ '2026-06-27T06:46:15Z',
/* author */ (''),
/* organization */ (''),
/* preprocessor_version */ 'ST-DEVELOPER v20',
/* originating_system */ 'ONSHAPE BY PTC INC, 1.217',
/* authorisation */ '  ');

FILE_SCHEMA (('AP242_MANAGED_MODEL_BASED_3D_ENGINEERING_MIM_LF { 1 0 10303 442 3 1 4 }'));
ENDSEC;

DATA;
#10=SHAPE_REPRESENTATION_RELATIONSHIP('','',#337,#11);
#11=ADVANCED_BREP_SHAPE_REPRESENTATION('',(#335),#549);
#12=CYLINDRICAL_SURFACE('',#346,0.0015);
#13=CYLINDRICAL_SURFACE('',#349,0.0015);
#14=CYLINDRICAL_SURFACE('',#352,0.011);
#15=CYLINDRICAL_SURFACE('',#355,0.0015);
#16=CYLINDRICAL_SURFACE('',#359,0.0015);
#17=CYLINDRICAL_SURFACE('',#370,0.0015);
#18=CYLINDRICAL_SURFACE('',#371,0.0015);
#19=CYLINDRICAL_SURFACE('',#372,0.0015);
#20=CYLINDRICAL_SURFACE('',#373,0.0015);
#21=LINE('',#474,#39);
#22=LINE('',#477,#40);
#23=LINE('',#479,#41);
#24=LINE('',#481,#42);
#25=LINE('',#483,#43);
#26=LINE('',#485,#44);
#27=LINE('',#487,#45);
#28=LINE('',#489,#46);
#29=LINE('',#491,#47);
#30=LINE('',#493,#48);
#31=LINE('',#495,#49);
#32=LINE('',#497,#50);
#33=LINE('',#519,#51);
#34=LINE('',#520,#52);
#35=LINE('',#522,#53);
#36=LINE('',#524,#54);
#37=LINE('',#531,#55);
#38=LINE('',#542,#56);
#39=VECTOR('',#386,1.);
#40=VECTOR('',#387,1.);
#41=VECTOR('',#388,1.);
#42=VECTOR('',#389,1.);
#43=VECTOR('',#392,1.);
#44=VECTOR('',#393,1.);
#45=VECTOR('',#394,1.);
#46=VECTOR('',#395,1.);
#47=VECTOR('',#396,1.);
#48=VECTOR('',#399,1.);
#49=VECTOR('',#400,1.);
#50=VECTOR('',#401,1.);
#51=VECTOR('',#428,1.);
#52=VECTOR('',#429,1.);
#53=VECTOR('',#430,1.);
#54=VECTOR('',#431,1.);
#55=VECTOR('',#440,1.);
#56=VECTOR('',#453,1.);
#57=ORIENTED_EDGE('',*,*,#129,.F.);
#58=ORIENTED_EDGE('',*,*,#130,.F.);
#59=ORIENTED_EDGE('',*,*,#131,.F.);
#60=ORIENTED_EDGE('',*,*,#132,.F.);
#61=ORIENTED_EDGE('',*,*,#133,.F.);
#62=ORIENTED_EDGE('',*,*,#134,.F.);
#63=ORIENTED_EDGE('',*,*,#135,.T.);
#64=ORIENTED_EDGE('',*,*,#136,.T.);
#65=ORIENTED_EDGE('',*,*,#137,.T.);
#66=ORIENTED_EDGE('',*,*,#138,.F.);
#67=ORIENTED_EDGE('',*,*,#139,.F.);
#68=ORIENTED_EDGE('',*,*,#140,.F.);
#69=ORIENTED_EDGE('',*,*,#141,.F.);
#70=ORIENTED_EDGE('',*,*,#134,.T.);
#71=ORIENTED_EDGE('',*,*,#142,.T.);
#72=ORIENTED_EDGE('',*,*,#143,.F.);
#73=ORIENTED_EDGE('',*,*,#144,.F.);
#74=ORIENTED_EDGE('',*,*,#138,.T.);
#75=ORIENTED_EDGE('',*,*,#145,.F.);
#76=ORIENTED_EDGE('',*,*,#146,.T.);
#77=ORIENTED_EDGE('',*,*,#147,.F.);
#78=ORIENTED_EDGE('',*,*,#148,.T.);
#79=ORIENTED_EDGE('',*,*,#149,.T.);
#80=ORIENTED_EDGE('',*,*,#150,.F.);
#81=ORIENTED_EDGE('',*,*,#151,.T.);
#82=ORIENTED_EDGE('',*,*,#152,.F.);
#83=ORIENTED_EDGE('',*,*,#153,.F.);
#84=ORIENTED_EDGE('',*,*,#136,.F.);
#85=ORIENTED_EDGE('',*,*,#154,.T.);
#86=ORIENTED_EDGE('',*,*,#155,.T.);
#87=ORIENTED_EDGE('',*,*,#156,.T.);
#88=ORIENTED_EDGE('',*,*,#143,.T.);
#89=ORIENTED_EDGE('',*,*,#157,.T.);
#90=ORIENTED_EDGE('',*,*,#158,.F.);
#91=ORIENTED_EDGE('',*,*,#159,.F.);
#92=ORIENTED_EDGE('',*,*,#139,.T.);
#93=ORIENTED_EDGE('',*,*,#144,.T.);
#94=ORIENTED_EDGE('',*,*,#156,.F.);
#95=ORIENTED_EDGE('',*,*,#151,.F.);
#96=ORIENTED_EDGE('',*,*,#149,.F.);
#97=ORIENTED_EDGE('',*,*,#147,.T.);
#98=ORIENTED_EDGE('',*,*,#145,.T.);
#99=ORIENTED_EDGE('',*,*,#157,.F.);
#100=ORIENTED_EDGE('',*,*,#133,.T.);
#101=ORIENTED_EDGE('',*,*,#153,.T.);
#102=ORIENTED_EDGE('',*,*,#142,.F.);
#103=ORIENTED_EDGE('',*,*,#137,.F.);
#104=ORIENTED_EDGE('',*,*,#152,.T.);
#105=ORIENTED_EDGE('',*,*,#150,.T.);
#106=ORIENTED_EDGE('',*,*,#148,.F.);
#107=ORIENTED_EDGE('',*,*,#146,.F.);
#108=ORIENTED_EDGE('',*,*,#158,.T.);
#109=ORIENTED_EDGE('',*,*,#160,.F.);
#110=ORIENTED_EDGE('',*,*,#161,.F.);
#111=ORIENTED_EDGE('',*,*,#162,.F.);
#112=ORIENTED_EDGE('',*,*,#163,.F.);
#113=ORIENTED_EDGE('',*,*,#159,.T.);
#114=ORIENTED_EDGE('',*,*,#155,.F.);
#115=ORIENTED_EDGE('',*,*,#164,.F.);
#116=ORIENTED_EDGE('',*,*,#140,.T.);
#117=ORIENTED_EDGE('',*,*,#141,.T.);
#118=ORIENTED_EDGE('',*,*,#164,.T.);
#119=ORIENTED_EDGE('',*,*,#154,.F.);
#120=ORIENTED_EDGE('',*,*,#135,.F.);
#121=ORIENTED_EDGE('',*,*,#132,.T.);
#122=ORIENTED_EDGE('',*,*,#163,.T.);
#123=ORIENTED_EDGE('',*,*,#131,.T.);
#124=ORIENTED_EDGE('',*,*,#162,.T.);
#125=ORIENTED_EDGE('',*,*,#130,.T.);
#126=ORIENTED_EDGE('',*,*,#161,.T.);
#127=ORIENTED_EDGE('',*,*,#129,.T.);
#128=ORIENTED_EDGE('',*,*,#160,.T.);
#129=EDGE_CURVE('',#165,#165,#195,.T.);
#130=EDGE_CURVE('',#166,#166,#196,.T.);
#131=EDGE_CURVE('',#167,#167,#197,.T.);
#132=EDGE_CURVE('',#168,#168,#198,.T.);
#133=EDGE_CURVE('',#169,#170,#21,.T.);
#134=EDGE_CURVE('',#171,#169,#22,.T.);
#135=EDGE_CURVE('',#171,#172,#23,.T.);
#136=EDGE_CURVE('',#172,#170,#24,.T.);
#137=EDGE_CURVE('',#169,#173,#25,.T.);
#138=EDGE_CURVE('',#174,#173,#26,.T.);
#139=EDGE_CURVE('',#175,#174,#27,.T.);
#140=EDGE_CURVE('',#176,#175,#28,.T.);
#141=EDGE_CURVE('',#171,#176,#29,.T.);
#142=EDGE_CURVE('',#173,#177,#30,.T.);
#143=EDGE_CURVE('',#178,#177,#31,.T.);
#144=EDGE_CURVE('',#174,#178,#32,.T.);
#145=EDGE_CURVE('',#179,#179,#199,.T.);
#146=EDGE_CURVE('',#180,#180,#200,.T.);
#147=EDGE_CURVE('',#181,#181,#201,.T.);
#148=EDGE_CURVE('',#182,#182,#202,.T.);
#149=EDGE_CURVE('',#183,#183,#203,.T.);
#150=EDGE_CURVE('',#184,#184,#204,.T.);
#151=EDGE_CURVE('',#185,#185,#205,.T.);
#152=EDGE_CURVE('',#186,#186,#206,.T.);
#153=EDGE_CURVE('',#170,#177,#33,.T.);
#154=EDGE_CURVE('',#172,#187,#34,.T.);
#155=EDGE_CURVE('',#187,#188,#35,.T.);
#156=EDGE_CURVE('',#188,#178,#36,.T.);
#157=EDGE_CURVE('',#189,#189,#207,.T.);
#158=EDGE_CURVE('',#190,#190,#208,.T.);
#159=EDGE_CURVE('',#175,#188,#37,.T.);
#160=EDGE_CURVE('',#191,#191,#209,.T.);
#161=EDGE_CURVE('',#192,#192,#210,.T.);
#162=EDGE_CURVE('',#193,#193,#211,.T.);
#163=EDGE_CURVE('',#194,#194,#212,.T.);
#164=EDGE_CURVE('',#176,#187,#38,.T.);
#165=VERTEX_POINT('',#467);
#166=VERTEX_POINT('',#469);
#167=VERTEX_POINT('',#471);
#168=VERTEX_POINT('',#473);
#169=VERTEX_POINT('',#475);
#170=VERTEX_POINT('',#476);
#171=VERTEX_POINT('',#478);
#172=VERTEX_POINT('',#480);
#173=VERTEX_POINT('',#484);
#174=VERTEX_POINT('',#486);
#175=VERTEX_POINT('',#488);
#176=VERTEX_POINT('',#490);
#177=VERTEX_POINT('',#494);
#178=VERTEX_POINT('',#496);
#179=VERTEX_POINT('',#500);
#180=VERTEX_POINT('',#502);
#181=VERTEX_POINT('',#505);
#182=VERTEX_POINT('',#507);
#183=VERTEX_POINT('',#510);
#184=VERTEX_POINT('',#512);
#185=VERTEX_POINT('',#515);
#186=VERTEX_POINT('',#517);
#187=VERTEX_POINT('',#521);
#188=VERTEX_POINT('',#523);
#189=VERTEX_POINT('',#527);
#190=VERTEX_POINT('',#529);
#191=VERTEX_POINT('',#535);
#192=VERTEX_POINT('',#537);
#193=VERTEX_POINT('',#539);
#194=VERTEX_POINT('',#541);
#195=CIRCLE('',#340,0.0015);
#196=CIRCLE('',#341,0.0015);
#197=CIRCLE('',#342,0.0015);
#198=CIRCLE('',#343,0.0015);
#199=CIRCLE('',#347,0.0015);
#200=CIRCLE('',#348,0.0015);
#201=CIRCLE('',#350,0.0015);
#202=CIRCLE('',#351,0.0015);
#203=CIRCLE('',#353,0.011);
#204=CIRCLE('',#354,0.011);
#205=CIRCLE('',#356,0.0015);
#206=CIRCLE('',#357,0.0015);
#207=CIRCLE('',#360,0.0015);
#208=CIRCLE('',#361,0.0015);
#209=CIRCLE('',#365,0.0015);
#210=CIRCLE('',#366,0.0015);
#211=CIRCLE('',#367,0.0015);
#212=CIRCLE('',#368,0.0015);
#213=EDGE_LOOP('',(#57));
#214=EDGE_LOOP('',(#58));
#215=EDGE_LOOP('',(#59));
#216=EDGE_LOOP('',(#60));
#217=EDGE_LOOP('',(#61,#62,#63,#64));
#218=EDGE_LOOP('',(#65,#66,#67,#68,#69,#70));
#219=EDGE_LOOP('',(#71,#72,#73,#74));
#220=EDGE_LOOP('',(#75));
#221=EDGE_LOOP('',(#76));
#222=EDGE_LOOP('',(#77));
#223=EDGE_LOOP('',(#78));
#224=EDGE_LOOP('',(#79));
#225=EDGE_LOOP('',(#80));
#226=EDGE_LOOP('',(#81));
#227=EDGE_LOOP('',(#82));
#228=EDGE_LOOP('',(#83,#84,#85,#86,#87,#88));
#229=EDGE_LOOP('',(#89));
#230=EDGE_LOOP('',(#90));
#231=EDGE_LOOP('',(#91,#92,#93,#94));
#232=EDGE_LOOP('',(#95));
#233=EDGE_LOOP('',(#96));
#234=EDGE_LOOP('',(#97));
#235=EDGE_LOOP('',(#98));
#236=EDGE_LOOP('',(#99));
#237=EDGE_LOOP('',(#100,#101,#102,#103));
#238=EDGE_LOOP('',(#104));
#239=EDGE_LOOP('',(#105));
#240=EDGE_LOOP('',(#106));
#241=EDGE_LOOP('',(#107));
#242=EDGE_LOOP('',(#108));
#243=EDGE_LOOP('',(#109));
#244=EDGE_LOOP('',(#110));
#245=EDGE_LOOP('',(#111));
#246=EDGE_LOOP('',(#112));
#247=EDGE_LOOP('',(#113,#114,#115,#116));
#248=EDGE_LOOP('',(#117,#118,#119,#120));
#249=EDGE_LOOP('',(#121));
#250=EDGE_LOOP('',(#122));
#251=EDGE_LOOP('',(#123));
#252=EDGE_LOOP('',(#124));
#253=EDGE_LOOP('',(#125));
#254=EDGE_LOOP('',(#126));
#255=EDGE_LOOP('',(#127));
#256=EDGE_LOOP('',(#128));
#257=FACE_BOUND('',#213,.T.);
#258=FACE_BOUND('',#214,.T.);
#259=FACE_BOUND('',#215,.T.);
#260=FACE_BOUND('',#216,.T.);
#261=FACE_BOUND('',#217,.T.);
#262=FACE_BOUND('',#218,.T.);
#263=FACE_BOUND('',#219,.T.);
#264=FACE_BOUND('',#220,.T.);
#265=FACE_BOUND('',#221,.T.);
#266=FACE_BOUND('',#222,.T.);
#267=FACE_BOUND('',#223,.T.);
#268=FACE_BOUND('',#224,.T.);
#269=FACE_BOUND('',#225,.T.);
#270=FACE_BOUND('',#226,.T.);
#271=FACE_BOUND('',#227,.T.);
#272=FACE_BOUND('',#228,.T.);
#273=FACE_BOUND('',#229,.T.);
#274=FACE_BOUND('',#230,.T.);
#275=FACE_BOUND('',#231,.T.);
#276=FACE_BOUND('',#232,.T.);
#277=FACE_BOUND('',#233,.T.);
#278=FACE_BOUND('',#234,.T.);
#279=FACE_BOUND('',#235,.T.);
#280=FACE_BOUND('',#236,.T.);
#281=FACE_BOUND('',#237,.T.);
#282=FACE_BOUND('',#238,.T.);
#283=FACE_BOUND('',#239,.T.);
#284=FACE_BOUND('',#240,.T.);
#285=FACE_BOUND('',#241,.T.);
#286=FACE_BOUND('',#242,.T.);
#287=FACE_BOUND('',#243,.T.);
#288=FACE_BOUND('',#244,.T.);
#289=FACE_BOUND('',#245,.T.);
#290=FACE_BOUND('',#246,.T.);
#291=FACE_BOUND('',#247,.T.);
#292=FACE_BOUND('',#248,.T.);
#293=FACE_BOUND('',#249,.T.);
#294=FACE_BOUND('',#250,.T.);
#295=FACE_BOUND('',#251,.T.);
#296=FACE_BOUND('',#252,.T.);
#297=FACE_BOUND('',#253,.T.);
#298=FACE_BOUND('',#254,.T.);
#299=FACE_BOUND('',#255,.T.);
#300=FACE_BOUND('',#256,.T.);
#301=PLANE('',#339);
#302=PLANE('',#344);
#303=PLANE('',#345);
#304=PLANE('',#358);
#305=PLANE('',#362);
#306=PLANE('',#363);
#307=PLANE('',#364);
#308=PLANE('',#369);
#309=ADVANCED_FACE('',(#257,#258,#259,#260,#261),#301,.T.);
#310=ADVANCED_FACE('',(#262),#302,.F.);
#311=ADVANCED_FACE('',(#263),#303,.F.);
#312=ADVANCED_FACE('',(#264,#265),#12,.F.);
#313=ADVANCED_FACE('',(#266,#267),#13,.F.);
#314=ADVANCED_FACE('',(#268,#269),#14,.F.);
#315=ADVANCED_FACE('',(#270,#271),#15,.F.);
#316=ADVANCED_FACE('',(#272),#304,.T.);
#317=ADVANCED_FACE('',(#273,#274),#16,.F.);
#318=ADVANCED_FACE('',(#275,#276,#277,#278,#279,#280),#305,.T.);
#319=ADVANCED_FACE('',(#281,#282,#283,#284,#285,#286),#306,.F.);
#320=ADVANCED_FACE('',(#287,#288,#289,#290,#291),#307,.F.);
#321=ADVANCED_FACE('',(#292),#308,.T.);
#322=ADVANCED_FACE('',(#293,#294),#17,.F.);
#323=ADVANCED_FACE('',(#295,#296),#18,.F.);
#324=ADVANCED_FACE('',(#297,#298),#19,.F.);
#325=ADVANCED_FACE('',(#299,#300),#20,.F.);
#326=CLOSED_SHELL('',(#309,#310,#311,#312,#313,#314,#315,#316,#317,#318,
#319,#320,#321,#322,#323,#324,#325));
#327=STYLED_ITEM('',(#328),#335);
#328=PRESENTATION_STYLE_ASSIGNMENT((#329));
#329=SURFACE_STYLE_USAGE(.BOTH.,#330);
#330=SURFACE_SIDE_STYLE('',(#331));
#331=SURFACE_STYLE_FILL_AREA(#332);
#332=FILL_AREA_STYLE('',(#333));
#333=FILL_AREA_STYLE_COLOUR('',#334);
#334=COLOUR_RGB('',0.43921568627451,0.474509803921569,0.501960784313726);
#335=MANIFOLD_SOLID_BREP('Part 1',#326);
#336=SHAPE_DEFINITION_REPRESENTATION(#554,#337);
#337=SHAPE_REPRESENTATION('Part 1',(#338),#549);
#338=AXIS2_PLACEMENT_3D('',#464,#374,#375);
#339=AXIS2_PLACEMENT_3D('',#465,#376,#377);
#340=AXIS2_PLACEMENT_3D('',#466,#378,#379);
#341=AXIS2_PLACEMENT_3D('',#468,#380,#381);
#342=AXIS2_PLACEMENT_3D('',#470,#382,#383);
#343=AXIS2_PLACEMENT_3D('',#472,#384,#385);
#344=AXIS2_PLACEMENT_3D('',#482,#390,#391);
#345=AXIS2_PLACEMENT_3D('',#492,#397,#398);
#346=AXIS2_PLACEMENT_3D('',#498,#402,#403);
#347=AXIS2_PLACEMENT_3D('',#499,#404,#405);
#348=AXIS2_PLACEMENT_3D('',#501,#406,#407);
#349=AXIS2_PLACEMENT_3D('',#503,#408,#409);
#350=AXIS2_PLACEMENT_3D('',#504,#410,#411);
#351=AXIS2_PLACEMENT_3D('',#506,#412,#413);
#352=AXIS2_PLACEMENT_3D('',#508,#414,#415);
#353=AXIS2_PLACEMENT_3D('',#509,#416,#417);
#354=AXIS2_PLACEMENT_3D('',#511,#418,#419);
#355=AXIS2_PLACEMENT_3D('',#513,#420,#421);
#356=AXIS2_PLACEMENT_3D('',#514,#422,#423);
#357=AXIS2_PLACEMENT_3D('',#516,#424,#425);
#358=AXIS2_PLACEMENT_3D('',#518,#426,#427);
#359=AXIS2_PLACEMENT_3D('',#525,#432,#433);
#360=AXIS2_PLACEMENT_3D('',#526,#434,#435);
#361=AXIS2_PLACEMENT_3D('',#528,#436,#437);
#362=AXIS2_PLACEMENT_3D('',#530,#438,#439);
#363=AXIS2_PLACEMENT_3D('',#532,#441,#442);
#364=AXIS2_PLACEMENT_3D('',#533,#443,#444);
#365=AXIS2_PLACEMENT_3D('',#534,#445,#446);
#366=AXIS2_PLACEMENT_3D('',#536,#447,#448);
#367=AXIS2_PLACEMENT_3D('',#538,#449,#450);
#368=AXIS2_PLACEMENT_3D('',#540,#451,#452);
#369=AXIS2_PLACEMENT_3D('',#543,#454,#455);
#370=AXIS2_PLACEMENT_3D('',#544,#456,#457);
#371=AXIS2_PLACEMENT_3D('',#545,#458,#459);
#372=AXIS2_PLACEMENT_3D('',#546,#460,#461);
#373=AXIS2_PLACEMENT_3D('',#547,#462,#463);
#374=DIRECTION('',(0.,0.,1.));
#375=DIRECTION('',(1.,0.,0.));
#376=DIRECTION('',(1.,1.65211759616839E-16,0.));
#377=DIRECTION('',(-1.65211759616839E-16,1.,0.));
#378=DIRECTION('',(1.,1.65211759616839E-16,0.));
#379=DIRECTION('',(-1.65211759616839E-16,1.,0.));
#380=DIRECTION('',(1.,1.65211759616839E-16,0.));
#381=DIRECTION('',(-1.65211759616839E-16,1.,0.));
#382=DIRECTION('',(1.,1.65211759616839E-16,0.));
#383=DIRECTION('',(-1.65211759616839E-16,1.,0.));
#384=DIRECTION('',(1.,1.65211759616839E-16,0.));
#385=DIRECTION('',(-1.65211759616839E-16,1.,0.));
#386=DIRECTION('',(1.65211759616839E-16,-1.,0.));
#387=DIRECTION('',(0.,0.,-1.));
#388=DIRECTION('',(1.65211759616839E-16,-1.,0.));
#389=DIRECTION('',(0.,0.,-1.));
#390=DIRECTION('',(0.,-1.,0.));
#391=DIRECTION('',(0.,0.,-1.));
#392=DIRECTION('',(-1.,0.,0.));
#393=DIRECTION('',(0.,0.,-1.));
#394=DIRECTION('',(-1.,0.,0.));
#395=DIRECTION('',(0.,0.,-1.));
#396=DIRECTION('',(-1.,0.,0.));
#397=DIRECTION('',(1.,1.65211759616839E-16,0.));
#398=DIRECTION('',(-1.65211759616839E-16,1.,0.));
#399=DIRECTION('',(1.65211759616839E-16,-1.,0.));
#400=DIRECTION('',(0.,0.,-1.));
#401=DIRECTION('',(1.65211759616839E-16,-1.,0.));
#402=DIRECTION('',(0.,0.,-1.));
#403=DIRECTION('',(-1.,0.,0.));
#404=DIRECTION('',(0.,0.,-1.));
#405=DIRECTION('',(1.,0.,0.));
#406=DIRECTION('',(0.,0.,-1.));
#407=DIRECTION('',(1.,0.,0.));
#408=DIRECTION('',(0.,0.,-1.));
#409=DIRECTION('',(-1.,0.,0.));
#410=DIRECTION('',(0.,0.,-1.));
#411=DIRECTION('',(1.,0.,0.));
#412=DIRECTION('',(0.,0.,-1.));
#413=DIRECTION('',(1.,0.,0.));
#414=DIRECTION('',(0.,0.,-1.));
#415=DIRECTION('',(-1.,0.,0.));
#416=DIRECTION('',(0.,0.,1.));
#417=DIRECTION('',(1.,0.,0.));
#418=DIRECTION('',(0.,0.,1.));
#419=DIRECTION('',(1.,0.,0.));
#420=DIRECTION('',(0.,0.,-1.));
#421=DIRECTION('',(-1.,0.,0.));
#422=DIRECTION('',(0.,0.,1.));
#423=DIRECTION('',(1.,0.,0.));
#424=DIRECTION('',(0.,0.,1.));
#425=DIRECTION('',(1.,0.,0.));
#426=DIRECTION('',(0.,-1.,0.));
#427=DIRECTION('',(0.,0.,-1.));
#428=DIRECTION('',(-1.,0.,0.));
#429=DIRECTION('',(-1.,0.,0.));
#430=DIRECTION('',(0.,0.,-1.));
#431=DIRECTION('',(-1.,0.,0.));
#432=DIRECTION('',(0.,0.,-1.));
#433=DIRECTION('',(-1.,0.,0.));
#434=DIRECTION('',(0.,0.,1.));
#435=DIRECTION('',(1.,0.,0.));
#436=DIRECTION('',(0.,0.,1.));
#437=DIRECTION('',(1.,0.,0.));
#438=DIRECTION('',(0.,0.,1.));
#439=DIRECTION('',(1.,0.,0.));
#440=DIRECTION('',(3.30423519233678E-16,-1.,0.));
#441=DIRECTION('',(0.,0.,1.));
#442=DIRECTION('',(1.,0.,0.));
#443=DIRECTION('',(1.,3.30423519233678E-16,0.));
#444=DIRECTION('',(-3.30423519233678E-16,1.,0.));
#445=DIRECTION('',(-1.,-3.30423519233678E-16,0.));
#446=DIRECTION('',(3.30423519233678E-16,-1.,0.));
#447=DIRECTION('',(-1.,-3.30423519233678E-16,0.));
#448=DIRECTION('',(3.30423519233678E-16,-1.,0.));
#449=DIRECTION('',(-1.,-3.30423519233678E-16,0.));
#450=DIRECTION('',(3.30423519233678E-16,-1.,0.));
#451=DIRECTION('',(-1.,-3.30423519233678E-16,0.));
#452=DIRECTION('',(3.30423519233678E-16,-1.,0.));
#453=DIRECTION('',(3.30423519233678E-16,-1.,0.));
#454=DIRECTION('',(0.,0.,1.));
#455=DIRECTION('',(1.,0.,0.));
#456=DIRECTION('',(-1.,-3.30423519233678E-16,0.));
#457=DIRECTION('',(3.30423519233678E-16,-1.,0.));
#458=DIRECTION('',(-1.,-3.30423519233678E-16,0.));
#459=DIRECTION('',(3.30423519233678E-16,-1.,0.));
#460=DIRECTION('',(-1.,-3.30423519233678E-16,0.));
#461=DIRECTION('',(3.30423519233678E-16,-1.,0.));
#462=DIRECTION('',(-1.,-3.30423519233678E-16,0.));
#463=DIRECTION('',(3.30423519233678E-16,-1.,0.));
#464=CARTESIAN_POINT('',(0.,0.,0.));
#465=CARTESIAN_POINT('',(0.024,0.,0.002));
#466=CARTESIAN_POINT('',(0.024,0.011,0.017));
#467=CARTESIAN_POINT('',(0.024,0.0125,0.017));
#468=CARTESIAN_POINT('',(0.024,-0.011,0.017));
#469=CARTESIAN_POINT('',(0.024,-0.0095,0.017));
#470=CARTESIAN_POINT('',(0.024,-0.011,0.035));
#471=CARTESIAN_POINT('',(0.024,-0.0095,0.035));
#472=CARTESIAN_POINT('',(0.024,0.011,0.035));
#473=CARTESIAN_POINT('',(0.024,0.0125,0.035));
#474=CARTESIAN_POINT('',(0.024,0.,0.));
#475=CARTESIAN_POINT('',(0.024,0.021,0.));
#476=CARTESIAN_POINT('',(0.024,-0.021,0.));
#477=CARTESIAN_POINT('',(0.024,0.021,0.002));
#478=CARTESIAN_POINT('',(0.024,0.021,0.04));
#479=CARTESIAN_POINT('',(0.024,0.,0.04));
#480=CARTESIAN_POINT('',(0.024,-0.021,0.04));
#481=CARTESIAN_POINT('',(0.024,-0.021,0.002));
#482=CARTESIAN_POINT('',(0.021,0.021,0.002));
#483=CARTESIAN_POINT('',(0.021,0.021,0.));
#484=CARTESIAN_POINT('',(-0.024,0.021,0.));
#485=CARTESIAN_POINT('',(-0.024,0.021,0.002));
#486=CARTESIAN_POINT('',(-0.024,0.021,0.002));
#487=CARTESIAN_POINT('',(0.021,0.021,0.002));
#488=CARTESIAN_POINT('',(0.021,0.021,0.002));
#489=CARTESIAN_POINT('',(0.021,0.021,0.04));
#490=CARTESIAN_POINT('',(0.021,0.021,0.04));
#491=CARTESIAN_POINT('',(0.021,0.021,0.04));
#492=CARTESIAN_POINT('',(-0.024,0.0105,0.002));
#493=CARTESIAN_POINT('',(-0.024,0.0105,0.));
#494=CARTESIAN_POINT('',(-0.024,-0.021,0.));
#495=CARTESIAN_POINT('',(-0.024,-0.021,0.002));
#496=CARTESIAN_POINT('',(-0.024,-0.021,0.002));
#497=CARTESIAN_POINT('',(-0.024,0.0105,0.002));
#498=CARTESIAN_POINT('',(0.0125,0.0155,0.002));
#499=CARTESIAN_POINT('',(0.0125,0.0155,0.002));
#500=CARTESIAN_POINT('',(0.014,0.0155,0.002));
#501=CARTESIAN_POINT('',(0.0125,0.0155,0.));
#502=CARTESIAN_POINT('',(0.014,0.0155,0.));
#503=CARTESIAN_POINT('',(-0.0185,-0.0155,0.002));
#504=CARTESIAN_POINT('',(-0.0185,-0.0155,0.002));
#505=CARTESIAN_POINT('',(-0.017,-0.0155,0.002));
#506=CARTESIAN_POINT('',(-0.0185,-0.0155,0.));
#507=CARTESIAN_POINT('',(-0.017,-0.0155,0.));
#508=CARTESIAN_POINT('',(-0.003,-1.67448510311911E-18,0.002));
#509=CARTESIAN_POINT('',(-0.003,-1.67448510311911E-18,0.002));
#510=CARTESIAN_POINT('',(0.008,-1.67448510311911E-18,0.002));
#511=CARTESIAN_POINT('',(-0.003,-1.67448510311911E-18,0.));
#512=CARTESIAN_POINT('',(0.008,-1.67448510311911E-18,0.));
#513=CARTESIAN_POINT('',(-0.0185,0.0155,0.002));
#514=CARTESIAN_POINT('',(-0.0185,0.0155,0.002));
#515=CARTESIAN_POINT('',(-0.017,0.0155,0.002));
#516=CARTESIAN_POINT('',(-0.0185,0.0155,0.));
#517=CARTESIAN_POINT('',(-0.017,0.0155,0.));
#518=CARTESIAN_POINT('',(0.021,-0.021,0.002));
#519=CARTESIAN_POINT('',(0.021,-0.021,0.));
#520=CARTESIAN_POINT('',(0.021,-0.021,0.04));
#521=CARTESIAN_POINT('',(0.021,-0.021,0.04));
#522=CARTESIAN_POINT('',(0.021,-0.021,0.04));
#523=CARTESIAN_POINT('',(0.021,-0.021,0.002));
#524=CARTESIAN_POINT('',(0.021,-0.021,0.002));
#525=CARTESIAN_POINT('',(0.0125,-0.0155,0.002));
#526=CARTESIAN_POINT('',(0.0125,-0.0155,0.002));
#527=CARTESIAN_POINT('',(0.014,-0.0155,0.002));
#528=CARTESIAN_POINT('',(0.0125,-0.0155,0.));
#529=CARTESIAN_POINT('',(0.014,-0.0155,0.));
#530=CARTESIAN_POINT('',(0.,0.,0.002));
#531=CARTESIAN_POINT('',(0.021,-3.46944695195361E-18,0.002));
#532=CARTESIAN_POINT('',(0.,0.,0.));
#533=CARTESIAN_POINT('',(0.021,-3.46944695195361E-18,0.04));
#534=CARTESIAN_POINT('',(0.021,0.011,0.017));
#535=CARTESIAN_POINT('',(0.021,0.0095,0.017));
#536=CARTESIAN_POINT('',(0.021,-0.011,0.017));
#537=CARTESIAN_POINT('',(0.021,-0.0125,0.017));
#538=CARTESIAN_POINT('',(0.021,-0.011,0.035));
#539=CARTESIAN_POINT('',(0.021,-0.0125,0.035));
#540=CARTESIAN_POINT('',(0.021,0.011,0.035));
#541=CARTESIAN_POINT('',(0.021,0.0095,0.035));
#542=CARTESIAN_POINT('',(0.021,-3.46944695195361E-18,0.04));
#543=CARTESIAN_POINT('',(1.04083408558608E-17,-6.93889390390723E-18,0.04));
#544=CARTESIAN_POINT('',(0.046,0.011,0.035));
#545=CARTESIAN_POINT('',(0.046,-0.011,0.035));
#546=CARTESIAN_POINT('',(0.046,-0.011,0.017));
#547=CARTESIAN_POINT('',(0.046,0.011,0.017));
#548=MECHANICAL_DESIGN_GEOMETRIC_PRESENTATION_REPRESENTATION('',(#327),
#549);
#549=(
GEOMETRIC_REPRESENTATION_CONTEXT(3)
GLOBAL_UNCERTAINTY_ASSIGNED_CONTEXT((#550))
GLOBAL_UNIT_ASSIGNED_CONTEXT((#553,#552,#551))
REPRESENTATION_CONTEXT('Part 1','TOP_LEVEL_ASSEMBLY_PART')
);
#550=UNCERTAINTY_MEASURE_WITH_UNIT(LENGTH_MEASURE(1.E-8),#553,
'DISTANCE_ACCURACY_VALUE','Maximum Tolerance applied to model');
#551=(
NAMED_UNIT(*)
SI_UNIT($,.STERADIAN.)
SOLID_ANGLE_UNIT()
);
#552=(
NAMED_UNIT(*)
PLANE_ANGLE_UNIT()
SI_UNIT($,.RADIAN.)
);
#553=(
LENGTH_UNIT()
NAMED_UNIT(*)
SI_UNIT($,.METRE.)
);
#554=PRODUCT_DEFINITION_SHAPE('','',#555);
#555=PRODUCT_DEFINITION('','',#557,#556);
#556=PRODUCT_DEFINITION_CONTEXT('',#563,'design');
#557=PRODUCT_DEFINITION_FORMATION_WITH_SPECIFIED_SOURCE('','',#559,
 .NOT_KNOWN.);
#558=PRODUCT_RELATED_PRODUCT_CATEGORY('','',(#559));
#559=PRODUCT('Part 1','Part 1','Part 1',(#561));
#560=PRODUCT_CATEGORY('','');
#561=PRODUCT_CONTEXT('',#563,'mechanical');
#562=APPLICATION_PROTOCOL_DEFINITION('international standard',
'ap242_managed_model_based_3d_engineering',2020,#563);
#563=APPLICATION_CONTEXT('managed model based 3d engineering');
ENDSEC;
END-ISO-10303-21;
