ISO-10303-21;
HEADER;
/* Generated by software containing ST-Developer
 * from STEP Tools, Inc. (www.steptools.com) 
 */
/* OPTION: using custom renumber hook */

FILE_DESCRIPTION(
/* description */ ('STEP AP242 Edition 2',
'CAx-IF Rec.Pracs.---Representation and Presentation of Product Manufa
cturing Information (PMI)---4.0---2014-10-13',
'CAx-IF Rec.Pracs.---3D Tessellated Geometry---0.4---2014-09-14','2;1',
'CAx-IF Rec.Pracs.---User Defined Attributes---1.5---2016-08-15'),
/* implementation_level */ '2;1');

FILE_NAME(
/* name */ 'Cover top 2',
/* time_stamp */ '2026-06-21T04:10:34Z',
/* author */ (''),
/* organization */ (''),
/* preprocessor_version */ 'ST-DEVELOPER v20',
/* originating_system */ 'ONSHAPE BY PTC INC, 1.216',
/* authorisation */ '  ');

FILE_SCHEMA (('AP242_MANAGED_MODEL_BASED_3D_ENGINEERING_MIM_LF { 1 0 10303 442 3 1 4 }'));
ENDSEC;

DATA;
#10=SHAPE_REPRESENTATION_RELATIONSHIP('','',#1233,#11);
#11=ADVANCED_BREP_SHAPE_REPRESENTATION('',(#1231),#1956);
#12=CYLINDRICAL_SURFACE('',#1281,0.0025);
#13=CYLINDRICAL_SURFACE('',#1282,0.0025);
#14=CYLINDRICAL_SURFACE('',#1307,0.0025);
#15=CYLINDRICAL_SURFACE('',#1308,0.0025);
#16=CYLINDRICAL_SURFACE('',#1309,0.0025);
#17=CYLINDRICAL_SURFACE('',#1310,0.0025);
#18=CYLINDRICAL_SURFACE('',#1311,0.0025);
#19=CYLINDRICAL_SURFACE('',#1312,0.0025);
#20=LINE('',#1624,#167);
#21=LINE('',#1627,#168);
#22=LINE('',#1629,#169);
#23=LINE('',#1631,#170);
#24=LINE('',#1633,#171);
#25=LINE('',#1635,#172);
#26=LINE('',#1637,#173);
#27=LINE('',#1639,#174);
#28=LINE('',#1641,#175);
#29=LINE('',#1643,#176);
#30=LINE('',#1645,#177);
#31=LINE('',#1647,#178);
#32=LINE('',#1649,#179);
#33=LINE('',#1651,#180);
#34=LINE('',#1653,#181);
#35=LINE('',#1655,#182);
#36=LINE('',#1656,#183);
#37=LINE('',#1659,#184);
#38=LINE('',#1661,#185);
#39=LINE('',#1663,#186);
#40=LINE('',#1673,#187);
#41=LINE('',#1675,#188);
#42=LINE('',#1677,#189);
#43=LINE('',#1679,#190);
#44=LINE('',#1681,#191);
#45=LINE('',#1683,#192);
#46=LINE('',#1685,#193);
#47=LINE('',#1688,#194);
#48=LINE('',#1690,#195);
#49=LINE('',#1692,#196);
#50=LINE('',#1694,#197);
#51=LINE('',#1696,#198);
#52=LINE('',#1698,#199);
#53=LINE('',#1700,#200);
#54=LINE('',#1702,#201);
#55=LINE('',#1704,#202);
#56=LINE('',#1706,#203);
#57=LINE('',#1708,#204);
#58=LINE('',#1710,#205);
#59=LINE('',#1712,#206);
#60=LINE('',#1714,#207);
#61=LINE('',#1718,#208);
#62=LINE('',#1720,#209);
#63=LINE('',#1722,#210);
#64=LINE('',#1724,#211);
#65=LINE('',#1726,#212);
#66=LINE('',#1728,#213);
#67=LINE('',#1730,#214);
#68=LINE('',#1732,#215);
#69=LINE('',#1734,#216);
#70=LINE('',#1736,#217);
#71=LINE('',#1738,#218);
#72=LINE('',#1740,#219);
#73=LINE('',#1743,#220);
#74=LINE('',#1744,#221);
#75=LINE('',#1745,#222);
#76=LINE('',#1747,#223);
#77=LINE('',#1749,#224);
#78=LINE('',#1751,#225);
#79=LINE('',#1754,#226);
#80=LINE('',#1756,#227);
#81=LINE('',#1758,#228);
#82=LINE('',#1760,#229);
#83=LINE('',#1762,#230);
#84=LINE('',#1764,#231);
#85=LINE('',#1766,#232);
#86=LINE('',#1768,#233);
#87=LINE('',#1769,#234);
#88=LINE('',#1771,#235);
#89=LINE('',#1772,#236);
#90=LINE('',#1774,#237);
#91=LINE('',#1775,#238);
#92=LINE('',#1777,#239);
#93=LINE('',#1778,#240);
#94=LINE('',#1780,#241);
#95=LINE('',#1782,#242);
#96=LINE('',#1784,#243);
#97=LINE('',#1785,#244);
#98=LINE('',#1788,#245);
#99=LINE('',#1790,#246);
#100=LINE('',#1792,#247);
#101=LINE('',#1796,#248);
#102=LINE('',#1799,#249);
#103=LINE('',#1801,#250);
#104=LINE('',#1803,#251);
#105=LINE('',#1805,#252);
#106=LINE('',#1807,#253);
#107=LINE('',#1809,#254);
#108=LINE('',#1810,#255);
#109=LINE('',#1812,#256);
#110=LINE('',#1814,#257);
#111=LINE('',#1816,#258);
#112=LINE('',#1818,#259);
#113=LINE('',#1820,#260);
#114=LINE('',#1824,#261);
#115=LINE('',#1826,#262);
#116=LINE('',#1828,#263);
#117=LINE('',#1830,#264);
#118=LINE('',#1832,#265);
#119=LINE('',#1834,#266);
#120=LINE('',#1836,#267);
#121=LINE('',#1838,#268);
#122=LINE('',#1840,#269);
#123=LINE('',#1842,#270);
#124=LINE('',#1846,#271);
#125=LINE('',#1849,#272);
#126=LINE('',#1851,#273);
#127=LINE('',#1853,#274);
#128=LINE('',#1855,#275);
#129=LINE('',#1857,#276);
#130=LINE('',#1859,#277);
#131=LINE('',#1861,#278);
#132=LINE('',#1863,#279);
#133=LINE('',#1865,#280);
#134=LINE('',#1866,#281);
#135=LINE('',#1868,#282);
#136=LINE('',#1869,#283);
#137=LINE('',#1870,#284);
#138=LINE('',#1872,#285);
#139=LINE('',#1873,#286);
#140=LINE('',#1875,#287);
#141=LINE('',#1876,#288);
#142=LINE('',#1878,#289);
#143=LINE('',#1879,#290);
#144=LINE('',#1882,#291);
#145=LINE('',#1884,#292);
#146=LINE('',#1886,#293);
#147=LINE('',#1887,#294);
#148=LINE('',#1888,#295);
#149=LINE('',#1890,#296);
#150=LINE('',#1892,#297);
#151=LINE('',#1898,#298);
#152=LINE('',#1900,#299);
#153=LINE('',#1902,#300);
#154=LINE('',#1904,#301);
#155=LINE('',#1910,#302);
#156=LINE('',#1912,#303);
#157=LINE('',#1915,#304);
#158=LINE('',#1917,#305);
#159=LINE('',#1920,#306);
#160=LINE('',#1921,#307);
#161=LINE('',#1923,#308);
#162=LINE('',#1924,#309);
#163=LINE('',#1934,#310);
#164=LINE('',#1935,#311);
#165=LINE('',#1938,#312);
#166=LINE('',#1946,#313);
#167=VECTOR('',#1321,1.);
#168=VECTOR('',#1322,1.);
#169=VECTOR('',#1323,1.);
#170=VECTOR('',#1324,1.);
#171=VECTOR('',#1325,1.);
#172=VECTOR('',#1326,1.);
#173=VECTOR('',#1327,1.);
#174=VECTOR('',#1328,1.);
#175=VECTOR('',#1329,1.);
#176=VECTOR('',#1330,1.);
#177=VECTOR('',#1331,1.);
#178=VECTOR('',#1332,1.);
#179=VECTOR('',#1333,1.);
#180=VECTOR('',#1334,1.);
#181=VECTOR('',#1335,1.);
#182=VECTOR('',#1336,1.);
#183=VECTOR('',#1337,1.);
#184=VECTOR('',#1338,1.);
#185=VECTOR('',#1339,1.);
#186=VECTOR('',#1340,1.);
#187=VECTOR('',#1351,1.);
#188=VECTOR('',#1352,1.);
#189=VECTOR('',#1353,1.);
#190=VECTOR('',#1354,1.);
#191=VECTOR('',#1355,1.);
#192=VECTOR('',#1356,1.);
#193=VECTOR('',#1359,1.);
#194=VECTOR('',#1360,1.);
#195=VECTOR('',#1361,1.);
#196=VECTOR('',#1362,1.);
#197=VECTOR('',#1363,1.);
#198=VECTOR('',#1366,1.);
#199=VECTOR('',#1367,1.);
#200=VECTOR('',#1368,1.);
#201=VECTOR('',#1369,1.);
#202=VECTOR('',#1370,1.);
#203=VECTOR('',#1373,1.);
#204=VECTOR('',#1374,1.);
#205=VECTOR('',#1375,1.);
#206=VECTOR('',#1376,1.);
#207=VECTOR('',#1377,1.);
#208=VECTOR('',#1382,1.);
#209=VECTOR('',#1383,1.);
#210=VECTOR('',#1384,1.);
#211=VECTOR('',#1385,1.);
#212=VECTOR('',#1386,1.);
#213=VECTOR('',#1387,1.);
#214=VECTOR('',#1388,1.);
#215=VECTOR('',#1389,1.);
#216=VECTOR('',#1390,1.);
#217=VECTOR('',#1391,1.);
#218=VECTOR('',#1392,1.);
#219=VECTOR('',#1395,1.);
#220=VECTOR('',#1396,1.);
#221=VECTOR('',#1397,1.);
#222=VECTOR('',#1398,1.);
#223=VECTOR('',#1399,1.);
#224=VECTOR('',#1400,1.);
#225=VECTOR('',#1403,1.);
#226=VECTOR('',#1404,1.);
#227=VECTOR('',#1405,1.);
#228=VECTOR('',#1406,1.);
#229=VECTOR('',#1407,1.);
#230=VECTOR('',#1408,1.);
#231=VECTOR('',#1409,1.);
#232=VECTOR('',#1410,1.);
#233=VECTOR('',#1413,1.);
#234=VECTOR('',#1414,1.);
#235=VECTOR('',#1417,1.);
#236=VECTOR('',#1418,1.);
#237=VECTOR('',#1421,1.);
#238=VECTOR('',#1422,1.);
#239=VECTOR('',#1425,1.);
#240=VECTOR('',#1426,1.);
#241=VECTOR('',#1429,1.);
#242=VECTOR('',#1430,1.);
#243=VECTOR('',#1431,1.);
#244=VECTOR('',#1432,1.);
#245=VECTOR('',#1433,1.);
#246=VECTOR('',#1434,1.);
#247=VECTOR('',#1435,1.);
#248=VECTOR('',#1440,1.);
#249=VECTOR('',#1441,1.);
#250=VECTOR('',#1442,1.);
#251=VECTOR('',#1443,1.);
#252=VECTOR('',#1444,1.);
#253=VECTOR('',#1445,1.);
#254=VECTOR('',#1446,1.);
#255=VECTOR('',#1447,1.);
#256=VECTOR('',#1448,1.);
#257=VECTOR('',#1449,1.);
#258=VECTOR('',#1452,1.);
#259=VECTOR('',#1453,1.);
#260=VECTOR('',#1454,1.);
#261=VECTOR('',#1459,1.);
#262=VECTOR('',#1460,1.);
#263=VECTOR('',#1461,1.);
#264=VECTOR('',#1462,1.);
#265=VECTOR('',#1463,1.);
#266=VECTOR('',#1464,1.);
#267=VECTOR('',#1465,1.);
#268=VECTOR('',#1466,1.);
#269=VECTOR('',#1467,1.);
#270=VECTOR('',#1468,1.);
#271=VECTOR('',#1473,1.);
#272=VECTOR('',#1474,1.);
#273=VECTOR('',#1475,1.);
#274=VECTOR('',#1476,1.);
#275=VECTOR('',#1477,1.);
#276=VECTOR('',#1478,1.);
#277=VECTOR('',#1479,1.);
#278=VECTOR('',#1480,1.);
#279=VECTOR('',#1481,1.);
#280=VECTOR('',#1484,1.);
#281=VECTOR('',#1485,1.);
#282=VECTOR('',#1488,1.);
#283=VECTOR('',#1489,1.);
#284=VECTOR('',#1490,1.);
#285=VECTOR('',#1493,1.);
#286=VECTOR('',#1494,1.);
#287=VECTOR('',#1497,1.);
#288=VECTOR('',#1498,1.);
#289=VECTOR('',#1501,1.);
#290=VECTOR('',#1502,1.);
#291=VECTOR('',#1507,1.);
#292=VECTOR('',#1510,1.);
#293=VECTOR('',#1513,1.);
#294=VECTOR('',#1514,1.);
#295=VECTOR('',#1515,1.);
#296=VECTOR('',#1518,1.);
#297=VECTOR('',#1521,1.);
#298=VECTOR('',#1532,1.);
#299=VECTOR('',#1535,1.);
#300=VECTOR('',#1538,1.);
#301=VECTOR('',#1541,1.);
#302=VECTOR('',#1552,1.);
#303=VECTOR('',#1555,1.);
#304=VECTOR('',#1560,1.);
#305=VECTOR('',#1563,1.);
#306=VECTOR('',#1568,1.);
#307=VECTOR('',#1569,1.);
#308=VECTOR('',#1572,1.);
#309=VECTOR('',#1573,1.);
#310=VECTOR('',#1586,1.);
#311=VECTOR('',#1587,1.);
#312=VECTOR('',#1592,1.);
#313=VECTOR('',#1601,1.);
#314=ORIENTED_EDGE('',*,*,#640,.F.);
#315=ORIENTED_EDGE('',*,*,#641,.T.);
#316=ORIENTED_EDGE('',*,*,#642,.F.);
#317=ORIENTED_EDGE('',*,*,#643,.T.);
#318=ORIENTED_EDGE('',*,*,#644,.T.);
#319=ORIENTED_EDGE('',*,*,#645,.T.);
#320=ORIENTED_EDGE('',*,*,#646,.F.);
#321=ORIENTED_EDGE('',*,*,#647,.T.);
#322=ORIENTED_EDGE('',*,*,#648,.F.);
#323=ORIENTED_EDGE('',*,*,#649,.F.);
#324=ORIENTED_EDGE('',*,*,#650,.F.);
#325=ORIENTED_EDGE('',*,*,#651,.F.);
#326=ORIENTED_EDGE('',*,*,#652,.F.);
#327=ORIENTED_EDGE('',*,*,#653,.F.);
#328=ORIENTED_EDGE('',*,*,#654,.F.);
#329=ORIENTED_EDGE('',*,*,#655,.T.);
#330=ORIENTED_EDGE('',*,*,#656,.T.);
#331=ORIENTED_EDGE('',*,*,#657,.T.);
#332=ORIENTED_EDGE('',*,*,#658,.F.);
#333=ORIENTED_EDGE('',*,*,#659,.T.);
#334=ORIENTED_EDGE('',*,*,#660,.T.);
#335=ORIENTED_EDGE('',*,*,#661,.F.);
#336=ORIENTED_EDGE('',*,*,#662,.F.);
#337=ORIENTED_EDGE('',*,*,#663,.F.);
#338=ORIENTED_EDGE('',*,*,#664,.T.);
#339=ORIENTED_EDGE('',*,*,#665,.T.);
#340=ORIENTED_EDGE('',*,*,#648,.T.);
#341=ORIENTED_EDGE('',*,*,#666,.T.);
#342=ORIENTED_EDGE('',*,*,#667,.T.);
#343=ORIENTED_EDGE('',*,*,#668,.T.);
#344=ORIENTED_EDGE('',*,*,#669,.T.);
#345=ORIENTED_EDGE('',*,*,#670,.T.);
#346=ORIENTED_EDGE('',*,*,#671,.T.);
#347=ORIENTED_EDGE('',*,*,#672,.T.);
#348=ORIENTED_EDGE('',*,*,#673,.T.);
#349=ORIENTED_EDGE('',*,*,#674,.F.);
#350=ORIENTED_EDGE('',*,*,#675,.T.);
#351=ORIENTED_EDGE('',*,*,#676,.T.);
#352=ORIENTED_EDGE('',*,*,#677,.F.);
#353=ORIENTED_EDGE('',*,*,#646,.T.);
#354=ORIENTED_EDGE('',*,*,#678,.T.);
#355=ORIENTED_EDGE('',*,*,#679,.T.);
#356=ORIENTED_EDGE('',*,*,#680,.F.);
#357=ORIENTED_EDGE('',*,*,#681,.F.);
#358=ORIENTED_EDGE('',*,*,#644,.F.);
#359=ORIENTED_EDGE('',*,*,#682,.T.);
#360=ORIENTED_EDGE('',*,*,#683,.T.);
#361=ORIENTED_EDGE('',*,*,#684,.T.);
#362=ORIENTED_EDGE('',*,*,#685,.F.);
#363=ORIENTED_EDGE('',*,*,#686,.F.);
#364=ORIENTED_EDGE('',*,*,#687,.T.);
#365=ORIENTED_EDGE('',*,*,#674,.T.);
#366=ORIENTED_EDGE('',*,*,#688,.T.);
#367=ORIENTED_EDGE('',*,*,#689,.T.);
#368=ORIENTED_EDGE('',*,*,#690,.F.);
#369=ORIENTED_EDGE('',*,*,#691,.T.);
#370=ORIENTED_EDGE('',*,*,#692,.F.);
#371=ORIENTED_EDGE('',*,*,#693,.F.);
#372=ORIENTED_EDGE('',*,*,#694,.T.);
#373=ORIENTED_EDGE('',*,*,#695,.T.);
#374=ORIENTED_EDGE('',*,*,#696,.F.);
#375=ORIENTED_EDGE('',*,*,#697,.F.);
#376=ORIENTED_EDGE('',*,*,#698,.T.);
#377=ORIENTED_EDGE('',*,*,#699,.T.);
#378=ORIENTED_EDGE('',*,*,#700,.T.);
#379=ORIENTED_EDGE('',*,*,#679,.F.);
#380=ORIENTED_EDGE('',*,*,#701,.T.);
#381=ORIENTED_EDGE('',*,*,#685,.T.);
#382=ORIENTED_EDGE('',*,*,#702,.T.);
#383=ORIENTED_EDGE('',*,*,#703,.F.);
#384=ORIENTED_EDGE('',*,*,#704,.F.);
#385=ORIENTED_EDGE('',*,*,#705,.F.);
#386=ORIENTED_EDGE('',*,*,#706,.T.);
#387=ORIENTED_EDGE('',*,*,#707,.T.);
#388=ORIENTED_EDGE('',*,*,#708,.T.);
#389=ORIENTED_EDGE('',*,*,#709,.F.);
#390=ORIENTED_EDGE('',*,*,#710,.F.);
#391=ORIENTED_EDGE('',*,*,#711,.T.);
#392=ORIENTED_EDGE('',*,*,#712,.T.);
#393=ORIENTED_EDGE('',*,*,#706,.F.);
#394=ORIENTED_EDGE('',*,*,#713,.T.);
#395=ORIENTED_EDGE('',*,*,#676,.F.);
#396=ORIENTED_EDGE('',*,*,#714,.T.);
#397=ORIENTED_EDGE('',*,*,#668,.F.);
#398=ORIENTED_EDGE('',*,*,#715,.T.);
#399=ORIENTED_EDGE('',*,*,#708,.F.);
#400=ORIENTED_EDGE('',*,*,#716,.T.);
#401=ORIENTED_EDGE('',*,*,#717,.F.);
#402=ORIENTED_EDGE('',*,*,#699,.F.);
#403=ORIENTED_EDGE('',*,*,#718,.T.);
#404=ORIENTED_EDGE('',*,*,#710,.T.);
#405=ORIENTED_EDGE('',*,*,#703,.T.);
#406=ORIENTED_EDGE('',*,*,#719,.T.);
#407=ORIENTED_EDGE('',*,*,#712,.F.);
#408=ORIENTED_EDGE('',*,*,#720,.F.);
#409=ORIENTED_EDGE('',*,*,#721,.F.);
#410=ORIENTED_EDGE('',*,*,#722,.F.);
#411=ORIENTED_EDGE('',*,*,#723,.F.);
#412=ORIENTED_EDGE('',*,*,#707,.F.);
#413=ORIENTED_EDGE('',*,*,#724,.T.);
#414=ORIENTED_EDGE('',*,*,#725,.T.);
#415=ORIENTED_EDGE('',*,*,#726,.F.);
#416=ORIENTED_EDGE('',*,*,#727,.F.);
#417=ORIENTED_EDGE('',*,*,#728,.F.);
#418=ORIENTED_EDGE('',*,*,#729,.F.);
#419=ORIENTED_EDGE('',*,*,#730,.T.);
#420=ORIENTED_EDGE('',*,*,#731,.T.);
#421=ORIENTED_EDGE('',*,*,#732,.F.);
#422=ORIENTED_EDGE('',*,*,#733,.T.);
#423=ORIENTED_EDGE('',*,*,#734,.T.);
#424=ORIENTED_EDGE('',*,*,#735,.T.);
#425=ORIENTED_EDGE('',*,*,#670,.F.);
#426=ORIENTED_EDGE('',*,*,#736,.T.);
#427=ORIENTED_EDGE('',*,*,#737,.F.);
#428=ORIENTED_EDGE('',*,*,#738,.T.);
#429=ORIENTED_EDGE('',*,*,#739,.F.);
#430=ORIENTED_EDGE('',*,*,#729,.T.);
#431=ORIENTED_EDGE('',*,*,#740,.T.);
#432=ORIENTED_EDGE('',*,*,#741,.F.);
#433=ORIENTED_EDGE('',*,*,#742,.T.);
#434=ORIENTED_EDGE('',*,*,#743,.F.);
#435=ORIENTED_EDGE('',*,*,#741,.T.);
#436=ORIENTED_EDGE('',*,*,#744,.T.);
#437=ORIENTED_EDGE('',*,*,#745,.T.);
#438=ORIENTED_EDGE('',*,*,#746,.T.);
#439=ORIENTED_EDGE('',*,*,#747,.T.);
#440=ORIENTED_EDGE('',*,*,#748,.T.);
#441=ORIENTED_EDGE('',*,*,#749,.F.);
#442=ORIENTED_EDGE('',*,*,#750,.F.);
#443=ORIENTED_EDGE('',*,*,#751,.T.);
#444=ORIENTED_EDGE('',*,*,#752,.F.);
#445=ORIENTED_EDGE('',*,*,#753,.F.);
#446=ORIENTED_EDGE('',*,*,#754,.F.);
#447=ORIENTED_EDGE('',*,*,#755,.T.);
#448=ORIENTED_EDGE('',*,*,#756,.T.);
#449=ORIENTED_EDGE('',*,*,#757,.F.);
#450=ORIENTED_EDGE('',*,*,#758,.T.);
#451=ORIENTED_EDGE('',*,*,#759,.T.);
#452=ORIENTED_EDGE('',*,*,#760,.T.);
#453=ORIENTED_EDGE('',*,*,#761,.F.);
#454=ORIENTED_EDGE('',*,*,#762,.F.);
#455=ORIENTED_EDGE('',*,*,#695,.F.);
#456=ORIENTED_EDGE('',*,*,#763,.T.);
#457=ORIENTED_EDGE('',*,*,#762,.T.);
#458=ORIENTED_EDGE('',*,*,#764,.F.);
#459=ORIENTED_EDGE('',*,*,#689,.F.);
#460=ORIENTED_EDGE('',*,*,#765,.T.);
#461=ORIENTED_EDGE('',*,*,#642,.T.);
#462=ORIENTED_EDGE('',*,*,#766,.F.);
#463=ORIENTED_EDGE('',*,*,#759,.F.);
#464=ORIENTED_EDGE('',*,*,#767,.F.);
#465=ORIENTED_EDGE('',*,*,#768,.F.);
#466=ORIENTED_EDGE('',*,*,#761,.T.);
#467=ORIENTED_EDGE('',*,*,#769,.T.);
#468=ORIENTED_EDGE('',*,*,#656,.F.);
#469=ORIENTED_EDGE('',*,*,#746,.F.);
#470=ORIENTED_EDGE('',*,*,#770,.T.);
#471=ORIENTED_EDGE('',*,*,#651,.T.);
#472=ORIENTED_EDGE('',*,*,#771,.F.);
#473=ORIENTED_EDGE('',*,*,#740,.F.);
#474=ORIENTED_EDGE('',*,*,#738,.F.);
#475=ORIENTED_EDGE('',*,*,#772,.T.);
#476=ORIENTED_EDGE('',*,*,#653,.T.);
#477=ORIENTED_EDGE('',*,*,#773,.F.);
#478=ORIENTED_EDGE('',*,*,#744,.F.);
#479=ORIENTED_EDGE('',*,*,#745,.F.);
#480=ORIENTED_EDGE('',*,*,#773,.T.);
#481=ORIENTED_EDGE('',*,*,#652,.T.);
#482=ORIENTED_EDGE('',*,*,#770,.F.);
#483=ORIENTED_EDGE('',*,*,#747,.F.);
#484=ORIENTED_EDGE('',*,*,#771,.T.);
#485=ORIENTED_EDGE('',*,*,#650,.T.);
#486=ORIENTED_EDGE('',*,*,#774,.F.);
#487=ORIENTED_EDGE('',*,*,#748,.F.);
#488=ORIENTED_EDGE('',*,*,#774,.T.);
#489=ORIENTED_EDGE('',*,*,#649,.T.);
#490=ORIENTED_EDGE('',*,*,#671,.F.);
#491=ORIENTED_EDGE('',*,*,#735,.F.);
#492=ORIENTED_EDGE('',*,*,#775,.T.);
#493=ORIENTED_EDGE('',*,*,#776,.T.);
#494=ORIENTED_EDGE('',*,*,#697,.T.);
#495=ORIENTED_EDGE('',*,*,#777,.T.);
#496=ORIENTED_EDGE('',*,*,#654,.T.);
#497=ORIENTED_EDGE('',*,*,#772,.F.);
#498=ORIENTED_EDGE('',*,*,#737,.T.);
#499=ORIENTED_EDGE('',*,*,#778,.T.);
#500=ORIENTED_EDGE('',*,*,#722,.T.);
#501=ORIENTED_EDGE('',*,*,#675,.F.);
#502=ORIENTED_EDGE('',*,*,#698,.F.);
#503=ORIENTED_EDGE('',*,*,#776,.F.);
#504=ORIENTED_EDGE('',*,*,#779,.F.);
#505=ORIENTED_EDGE('',*,*,#778,.F.);
#506=ORIENTED_EDGE('',*,*,#736,.F.);
#507=ORIENTED_EDGE('',*,*,#669,.F.);
#508=ORIENTED_EDGE('',*,*,#780,.F.);
#509=ORIENTED_EDGE('',*,*,#779,.T.);
#510=ORIENTED_EDGE('',*,*,#721,.T.);
#511=ORIENTED_EDGE('',*,*,#714,.F.);
#512=ORIENTED_EDGE('',*,*,#723,.T.);
#513=ORIENTED_EDGE('',*,*,#780,.T.);
#514=ORIENTED_EDGE('',*,*,#716,.F.);
#515=ORIENTED_EDGE('',*,*,#760,.F.);
#516=ORIENTED_EDGE('',*,*,#766,.T.);
#517=ORIENTED_EDGE('',*,*,#657,.F.);
#518=ORIENTED_EDGE('',*,*,#769,.F.);
#519=ORIENTED_EDGE('',*,*,#655,.F.);
#520=ORIENTED_EDGE('',*,*,#777,.F.);
#521=ORIENTED_EDGE('',*,*,#696,.T.);
#522=ORIENTED_EDGE('',*,*,#764,.T.);
#523=ORIENTED_EDGE('',*,*,#768,.T.);
#524=ORIENTED_EDGE('',*,*,#775,.F.);
#525=ORIENTED_EDGE('',*,*,#734,.F.);
#526=ORIENTED_EDGE('',*,*,#781,.T.);
#527=ORIENTED_EDGE('',*,*,#749,.T.);
#528=ORIENTED_EDGE('',*,*,#782,.F.);
#529=ORIENTED_EDGE('',*,*,#750,.T.);
#530=ORIENTED_EDGE('',*,*,#781,.F.);
#531=ORIENTED_EDGE('',*,*,#733,.F.);
#532=ORIENTED_EDGE('',*,*,#690,.T.);
#533=ORIENTED_EDGE('',*,*,#767,.T.);
#534=ORIENTED_EDGE('',*,*,#758,.F.);
#535=ORIENTED_EDGE('',*,*,#783,.F.);
#536=ORIENTED_EDGE('',*,*,#784,.F.);
#537=ORIENTED_EDGE('',*,*,#691,.F.);
#538=ORIENTED_EDGE('',*,*,#783,.T.);
#539=ORIENTED_EDGE('',*,*,#757,.T.);
#540=ORIENTED_EDGE('',*,*,#687,.F.);
#541=ORIENTED_EDGE('',*,*,#753,.T.);
#542=ORIENTED_EDGE('',*,*,#728,.T.);
#543=ORIENTED_EDGE('',*,*,#742,.F.);
#544=ORIENTED_EDGE('',*,*,#711,.F.);
#545=ORIENTED_EDGE('',*,*,#718,.F.);
#546=ORIENTED_EDGE('',*,*,#704,.T.);
#547=ORIENTED_EDGE('',*,*,#720,.T.);
#548=ORIENTED_EDGE('',*,*,#686,.T.);
#549=ORIENTED_EDGE('',*,*,#701,.F.);
#550=ORIENTED_EDGE('',*,*,#678,.F.);
#551=ORIENTED_EDGE('',*,*,#645,.F.);
#552=ORIENTED_EDGE('',*,*,#692,.T.);
#553=ORIENTED_EDGE('',*,*,#784,.T.);
#554=ORIENTED_EDGE('',*,*,#756,.F.);
#555=ORIENTED_EDGE('',*,*,#785,.F.);
#556=ORIENTED_EDGE('',*,*,#786,.T.);
#557=ORIENTED_EDGE('',*,*,#754,.T.);
#558=ORIENTED_EDGE('',*,*,#763,.F.);
#559=ORIENTED_EDGE('',*,*,#694,.F.);
#560=ORIENTED_EDGE('',*,*,#693,.T.);
#561=ORIENTED_EDGE('',*,*,#785,.T.);
#562=ORIENTED_EDGE('',*,*,#755,.F.);
#563=ORIENTED_EDGE('',*,*,#786,.F.);
#564=ORIENTED_EDGE('',*,*,#732,.T.);
#565=ORIENTED_EDGE('',*,*,#787,.T.);
#566=ORIENTED_EDGE('',*,*,#751,.F.);
#567=ORIENTED_EDGE('',*,*,#782,.T.);
#568=ORIENTED_EDGE('',*,*,#788,.T.);
#569=ORIENTED_EDGE('',*,*,#752,.T.);
#570=ORIENTED_EDGE('',*,*,#787,.F.);
#571=ORIENTED_EDGE('',*,*,#731,.F.);
#572=ORIENTED_EDGE('',*,*,#739,.T.);
#573=ORIENTED_EDGE('',*,*,#743,.T.);
#574=ORIENTED_EDGE('',*,*,#788,.F.);
#575=ORIENTED_EDGE('',*,*,#730,.F.);
#576=ORIENTED_EDGE('',*,*,#789,.T.);
#577=ORIENTED_EDGE('',*,*,#725,.F.);
#578=ORIENTED_EDGE('',*,*,#790,.F.);
#579=ORIENTED_EDGE('',*,*,#659,.F.);
#580=ORIENTED_EDGE('',*,*,#661,.T.);
#581=ORIENTED_EDGE('',*,*,#791,.T.);
#582=ORIENTED_EDGE('',*,*,#727,.T.);
#583=ORIENTED_EDGE('',*,*,#792,.F.);
#584=ORIENTED_EDGE('',*,*,#790,.T.);
#585=ORIENTED_EDGE('',*,*,#724,.F.);
#586=ORIENTED_EDGE('',*,*,#791,.F.);
#587=ORIENTED_EDGE('',*,*,#660,.F.);
#588=ORIENTED_EDGE('',*,*,#658,.T.);
#589=ORIENTED_EDGE('',*,*,#792,.T.);
#590=ORIENTED_EDGE('',*,*,#726,.T.);
#591=ORIENTED_EDGE('',*,*,#789,.F.);
#592=ORIENTED_EDGE('',*,*,#793,.F.);
#593=ORIENTED_EDGE('',*,*,#794,.F.);
#594=ORIENTED_EDGE('',*,*,#795,.F.);
#595=ORIENTED_EDGE('',*,*,#796,.T.);
#596=ORIENTED_EDGE('',*,*,#683,.F.);
#597=ORIENTED_EDGE('',*,*,#797,.F.);
#598=ORIENTED_EDGE('',*,*,#672,.F.);
#599=ORIENTED_EDGE('',*,*,#705,.T.);
#600=ORIENTED_EDGE('',*,*,#719,.F.);
#601=ORIENTED_EDGE('',*,*,#702,.F.);
#602=ORIENTED_EDGE('',*,*,#684,.F.);
#603=ORIENTED_EDGE('',*,*,#796,.F.);
#604=ORIENTED_EDGE('',*,*,#713,.F.);
#605=ORIENTED_EDGE('',*,*,#798,.F.);
#606=ORIENTED_EDGE('',*,*,#680,.T.);
#607=ORIENTED_EDGE('',*,*,#700,.F.);
#608=ORIENTED_EDGE('',*,*,#717,.T.);
#609=ORIENTED_EDGE('',*,*,#709,.T.);
#610=ORIENTED_EDGE('',*,*,#715,.F.);
#611=ORIENTED_EDGE('',*,*,#799,.T.);
#612=ORIENTED_EDGE('',*,*,#800,.T.);
#613=ORIENTED_EDGE('',*,*,#801,.T.);
#614=ORIENTED_EDGE('',*,*,#681,.T.);
#615=ORIENTED_EDGE('',*,*,#798,.T.);
#616=ORIENTED_EDGE('',*,*,#667,.F.);
#617=ORIENTED_EDGE('',*,*,#802,.F.);
#618=ORIENTED_EDGE('',*,*,#688,.F.);
#619=ORIENTED_EDGE('',*,*,#673,.F.);
#620=ORIENTED_EDGE('',*,*,#797,.T.);
#621=ORIENTED_EDGE('',*,*,#682,.F.);
#622=ORIENTED_EDGE('',*,*,#643,.F.);
#623=ORIENTED_EDGE('',*,*,#765,.F.);
#624=ORIENTED_EDGE('',*,*,#677,.T.);
#625=ORIENTED_EDGE('',*,*,#802,.T.);
#626=ORIENTED_EDGE('',*,*,#666,.F.);
#627=ORIENTED_EDGE('',*,*,#647,.F.);
#628=ORIENTED_EDGE('',*,*,#801,.F.);
#629=ORIENTED_EDGE('',*,*,#664,.F.);
#630=ORIENTED_EDGE('',*,*,#800,.F.);
#631=ORIENTED_EDGE('',*,*,#641,.F.);
#632=ORIENTED_EDGE('',*,*,#799,.F.);
#633=ORIENTED_EDGE('',*,*,#665,.F.);
#634=ORIENTED_EDGE('',*,*,#795,.T.);
#635=ORIENTED_EDGE('',*,*,#662,.T.);
#636=ORIENTED_EDGE('',*,*,#794,.T.);
#637=ORIENTED_EDGE('',*,*,#663,.T.);
#638=ORIENTED_EDGE('',*,*,#793,.T.);
#639=ORIENTED_EDGE('',*,*,#640,.T.);
#640=EDGE_CURVE('',#803,#803,#914,.T.);
#641=EDGE_CURVE('',#804,#804,#915,.T.);
#642=EDGE_CURVE('',#805,#806,#20,.T.);
#643=EDGE_CURVE('',#805,#807,#21,.T.);
#644=EDGE_CURVE('',#807,#808,#22,.T.);
#645=EDGE_CURVE('',#808,#809,#23,.T.);
#646=EDGE_CURVE('',#810,#809,#24,.T.);
#647=EDGE_CURVE('',#810,#811,#25,.T.);
#648=EDGE_CURVE('',#812,#811,#26,.T.);
#649=EDGE_CURVE('',#813,#812,#27,.T.);
#650=EDGE_CURVE('',#814,#813,#28,.T.);
#651=EDGE_CURVE('',#815,#814,#29,.T.);
#652=EDGE_CURVE('',#816,#815,#30,.T.);
#653=EDGE_CURVE('',#817,#816,#31,.T.);
#654=EDGE_CURVE('',#818,#817,#32,.T.);
#655=EDGE_CURVE('',#818,#819,#33,.T.);
#656=EDGE_CURVE('',#819,#820,#34,.T.);
#657=EDGE_CURVE('',#820,#806,#35,.T.);
#658=EDGE_CURVE('',#821,#822,#36,.T.);
#659=EDGE_CURVE('',#821,#823,#37,.T.);
#660=EDGE_CURVE('',#823,#824,#38,.T.);
#661=EDGE_CURVE('',#822,#824,#39,.T.);
#662=EDGE_CURVE('',#825,#825,#916,.T.);
#663=EDGE_CURVE('',#826,#826,#917,.T.);
#664=EDGE_CURVE('',#827,#827,#918,.T.);
#665=EDGE_CURVE('',#828,#828,#919,.T.);
#666=EDGE_CURVE('',#811,#829,#40,.T.);
#667=EDGE_CURVE('',#829,#830,#41,.T.);
#668=EDGE_CURVE('',#830,#831,#42,.T.);
#669=EDGE_CURVE('',#831,#832,#43,.T.);
#670=EDGE_CURVE('',#832,#833,#44,.T.);
#671=EDGE_CURVE('',#833,#812,#45,.T.);
#672=EDGE_CURVE('',#834,#835,#46,.F.);
#673=EDGE_CURVE('',#835,#836,#47,.T.);
#674=EDGE_CURVE('',#837,#836,#48,.T.);
#675=EDGE_CURVE('',#837,#838,#49,.T.);
#676=EDGE_CURVE('',#838,#834,#50,.T.);
#677=EDGE_CURVE('',#810,#839,#51,.T.);
#678=EDGE_CURVE('',#809,#840,#52,.T.);
#679=EDGE_CURVE('',#840,#841,#53,.T.);
#680=EDGE_CURVE('',#842,#841,#54,.T.);
#681=EDGE_CURVE('',#839,#842,#55,.T.);
#682=EDGE_CURVE('',#807,#843,#56,.T.);
#683=EDGE_CURVE('',#843,#844,#57,.T.);
#684=EDGE_CURVE('',#844,#845,#58,.T.);
#685=EDGE_CURVE('',#846,#845,#59,.T.);
#686=EDGE_CURVE('',#808,#846,#60,.T.);
#687=EDGE_CURVE('',#847,#847,#920,.T.);
#688=EDGE_CURVE('',#836,#848,#61,.T.);
#689=EDGE_CURVE('',#848,#849,#62,.T.);
#690=EDGE_CURVE('',#850,#849,#63,.T.);
#691=EDGE_CURVE('',#850,#851,#64,.T.);
#692=EDGE_CURVE('',#852,#851,#65,.T.);
#693=EDGE_CURVE('',#853,#852,#66,.T.);
#694=EDGE_CURVE('',#853,#854,#67,.T.);
#695=EDGE_CURVE('',#854,#855,#68,.T.);
#696=EDGE_CURVE('',#856,#855,#69,.T.);
#697=EDGE_CURVE('',#857,#856,#70,.T.);
#698=EDGE_CURVE('',#857,#837,#71,.T.);
#699=EDGE_CURVE('',#858,#859,#72,.T.);
#700=EDGE_CURVE('',#859,#841,#73,.T.);
#701=EDGE_CURVE('',#840,#846,#74,.T.);
#702=EDGE_CURVE('',#845,#860,#75,.T.);
#703=EDGE_CURVE('',#861,#860,#76,.T.);
#704=EDGE_CURVE('',#858,#861,#77,.T.);
#705=EDGE_CURVE('',#862,#863,#78,.T.);
#706=EDGE_CURVE('',#862,#864,#79,.T.);
#707=EDGE_CURVE('',#864,#865,#80,.T.);
#708=EDGE_CURVE('',#865,#866,#81,.T.);
#709=EDGE_CURVE('',#867,#866,#82,.T.);
#710=EDGE_CURVE('',#868,#867,#83,.T.);
#711=EDGE_CURVE('',#868,#869,#84,.T.);
#712=EDGE_CURVE('',#869,#863,#85,.T.);
#713=EDGE_CURVE('',#862,#834,#86,.F.);
#714=EDGE_CURVE('',#838,#864,#87,.T.);
#715=EDGE_CURVE('',#830,#866,#88,.T.);
#716=EDGE_CURVE('',#865,#831,#89,.F.);
#717=EDGE_CURVE('',#859,#867,#90,.T.);
#718=EDGE_CURVE('',#858,#868,#91,.T.);
#719=EDGE_CURVE('',#860,#863,#92,.T.);
#720=EDGE_CURVE('',#861,#869,#93,.T.);
#721=EDGE_CURVE('',#870,#864,#94,.T.);
#722=EDGE_CURVE('',#871,#870,#95,.T.);
#723=EDGE_CURVE('',#865,#871,#96,.T.);
#724=EDGE_CURVE('',#872,#873,#97,.T.);
#725=EDGE_CURVE('',#873,#874,#98,.T.);
#726=EDGE_CURVE('',#875,#874,#99,.T.);
#727=EDGE_CURVE('',#872,#875,#100,.T.);
#728=EDGE_CURVE('',#876,#876,#921,.T.);
#729=EDGE_CURVE('',#877,#878,#101,.T.);
#730=EDGE_CURVE('',#877,#879,#102,.T.);
#731=EDGE_CURVE('',#879,#880,#103,.T.);
#732=EDGE_CURVE('',#881,#880,#104,.T.);
#733=EDGE_CURVE('',#881,#882,#105,.T.);
#734=EDGE_CURVE('',#882,#883,#106,.T.);
#735=EDGE_CURVE('',#883,#833,#107,.T.);
#736=EDGE_CURVE('',#832,#884,#108,.F.);
#737=EDGE_CURVE('',#885,#884,#109,.T.);
#738=EDGE_CURVE('',#885,#878,#110,.T.);
#739=EDGE_CURVE('',#877,#886,#111,.T.);
#740=EDGE_CURVE('',#878,#887,#112,.T.);
#741=EDGE_CURVE('',#886,#887,#113,.T.);
#742=EDGE_CURVE('',#888,#888,#922,.T.);
#743=EDGE_CURVE('',#886,#889,#114,.T.);
#744=EDGE_CURVE('',#887,#890,#115,.T.);
#745=EDGE_CURVE('',#890,#891,#116,.T.);
#746=EDGE_CURVE('',#891,#892,#117,.T.);
#747=EDGE_CURVE('',#892,#893,#118,.T.);
#748=EDGE_CURVE('',#893,#894,#119,.T.);
#749=EDGE_CURVE('',#895,#894,#120,.T.);
#750=EDGE_CURVE('',#896,#895,#121,.T.);
#751=EDGE_CURVE('',#896,#897,#122,.T.);
#752=EDGE_CURVE('',#889,#897,#123,.T.);
#753=EDGE_CURVE('',#898,#898,#923,.F.);
#754=EDGE_CURVE('',#899,#900,#124,.T.);
#755=EDGE_CURVE('',#899,#901,#125,.T.);
#756=EDGE_CURVE('',#901,#902,#126,.T.);
#757=EDGE_CURVE('',#903,#902,#127,.T.);
#758=EDGE_CURVE('',#903,#904,#128,.T.);
#759=EDGE_CURVE('',#904,#905,#129,.T.);
#760=EDGE_CURVE('',#905,#906,#130,.T.);
#761=EDGE_CURVE('',#907,#906,#131,.T.);
#762=EDGE_CURVE('',#900,#907,#132,.T.);
#763=EDGE_CURVE('',#854,#900,#133,.T.);
#764=EDGE_CURVE('',#855,#907,#134,.T.);
#765=EDGE_CURVE('',#848,#805,#135,.T.);
#766=EDGE_CURVE('',#905,#806,#136,.T.);
#767=EDGE_CURVE('',#849,#904,#137,.T.);
#768=EDGE_CURVE('',#907,#819,#138,.T.);
#769=EDGE_CURVE('',#906,#820,#139,.T.);
#770=EDGE_CURVE('',#891,#815,#140,.T.);
#771=EDGE_CURVE('',#892,#814,#141,.T.);
#772=EDGE_CURVE('',#885,#817,#142,.T.);
#773=EDGE_CURVE('',#890,#816,#143,.T.);
#774=EDGE_CURVE('',#893,#813,#144,.T.);
#775=EDGE_CURVE('',#883,#894,#145,.T.);
#776=EDGE_CURVE('',#870,#857,#146,.T.);
#777=EDGE_CURVE('',#856,#818,#147,.T.);
#778=EDGE_CURVE('',#884,#871,#148,.T.);
#779=EDGE_CURVE('',#838,#870,#149,.T.);
#780=EDGE_CURVE('',#871,#831,#150,.F.);
#781=EDGE_CURVE('',#882,#895,#151,.T.);
#782=EDGE_CURVE('',#896,#881,#152,.T.);
#783=EDGE_CURVE('',#850,#903,#153,.T.);
#784=EDGE_CURVE('',#851,#902,#154,.T.);
#785=EDGE_CURVE('',#852,#901,#155,.T.);
#786=EDGE_CURVE('',#853,#899,#156,.T.);
#787=EDGE_CURVE('',#880,#897,#157,.T.);
#788=EDGE_CURVE('',#879,#889,#158,.T.);
#789=EDGE_CURVE('',#821,#874,#159,.T.);
#790=EDGE_CURVE('',#823,#873,#160,.T.);
#791=EDGE_CURVE('',#824,#872,#161,.T.);
#792=EDGE_CURVE('',#822,#875,#162,.T.);
#793=EDGE_CURVE('',#908,#908,#924,.T.);
#794=EDGE_CURVE('',#909,#909,#925,.T.);
#795=EDGE_CURVE('',#910,#910,#926,.T.);
#796=EDGE_CURVE('',#834,#844,#163,.T.);
#797=EDGE_CURVE('',#835,#843,#164,.T.);
#798=EDGE_CURVE('',#842,#830,#165,.T.);
#799=EDGE_CURVE('',#911,#911,#927,.F.);
#800=EDGE_CURVE('',#912,#912,#928,.F.);
#801=EDGE_CURVE('',#913,#913,#929,.F.);
#802=EDGE_CURVE('',#839,#829,#166,.T.);
#803=VERTEX_POINT('',#1621);
#804=VERTEX_POINT('',#1623);
#805=VERTEX_POINT('',#1625);
#806=VERTEX_POINT('',#1626);
#807=VERTEX_POINT('',#1628);
#808=VERTEX_POINT('',#1630);
#809=VERTEX_POINT('',#1632);
#810=VERTEX_POINT('',#1634);
#811=VERTEX_POINT('',#1636);
#812=VERTEX_POINT('',#1638);
#813=VERTEX_POINT('',#1640);
#814=VERTEX_POINT('',#1642);
#815=VERTEX_POINT('',#1644);
#816=VERTEX_POINT('',#1646);
#817=VERTEX_POINT('',#1648);
#818=VERTEX_POINT('',#1650);
#819=VERTEX_POINT('',#1652);
#820=VERTEX_POINT('',#1654);
#821=VERTEX_POINT('',#1657);
#822=VERTEX_POINT('',#1658);
#823=VERTEX_POINT('',#1660);
#824=VERTEX_POINT('',#1662);
#825=VERTEX_POINT('',#1665);
#826=VERTEX_POINT('',#1667);
#827=VERTEX_POINT('',#1669);
#828=VERTEX_POINT('',#1671);
#829=VERTEX_POINT('',#1674);
#830=VERTEX_POINT('',#1676);
#831=VERTEX_POINT('',#1678);
#832=VERTEX_POINT('',#1680);
#833=VERTEX_POINT('',#1682);
#834=VERTEX_POINT('',#1686);
#835=VERTEX_POINT('',#1687);
#836=VERTEX_POINT('',#1689);
#837=VERTEX_POINT('',#1691);
#838=VERTEX_POINT('',#1693);
#839=VERTEX_POINT('',#1697);
#840=VERTEX_POINT('',#1699);
#841=VERTEX_POINT('',#1701);
#842=VERTEX_POINT('',#1703);
#843=VERTEX_POINT('',#1707);
#844=VERTEX_POINT('',#1709);
#845=VERTEX_POINT('',#1711);
#846=VERTEX_POINT('',#1713);
#847=VERTEX_POINT('',#1717);
#848=VERTEX_POINT('',#1719);
#849=VERTEX_POINT('',#1721);
#850=VERTEX_POINT('',#1723);
#851=VERTEX_POINT('',#1725);
#852=VERTEX_POINT('',#1727);
#853=VERTEX_POINT('',#1729);
#854=VERTEX_POINT('',#1731);
#855=VERTEX_POINT('',#1733);
#856=VERTEX_POINT('',#1735);
#857=VERTEX_POINT('',#1737);
#858=VERTEX_POINT('',#1741);
#859=VERTEX_POINT('',#1742);
#860=VERTEX_POINT('',#1746);
#861=VERTEX_POINT('',#1748);
#862=VERTEX_POINT('',#1752);
#863=VERTEX_POINT('',#1753);
#864=VERTEX_POINT('',#1755);
#865=VERTEX_POINT('',#1757);
#866=VERTEX_POINT('',#1759);
#867=VERTEX_POINT('',#1761);
#868=VERTEX_POINT('',#1763);
#869=VERTEX_POINT('',#1765);
#870=VERTEX_POINT('',#1781);
#871=VERTEX_POINT('',#1783);
#872=VERTEX_POINT('',#1786);
#873=VERTEX_POINT('',#1787);
#874=VERTEX_POINT('',#1789);
#875=VERTEX_POINT('',#1791);
#876=VERTEX_POINT('',#1795);
#877=VERTEX_POINT('',#1797);
#878=VERTEX_POINT('',#1798);
#879=VERTEX_POINT('',#1800);
#880=VERTEX_POINT('',#1802);
#881=VERTEX_POINT('',#1804);
#882=VERTEX_POINT('',#1806);
#883=VERTEX_POINT('',#1808);
#884=VERTEX_POINT('',#1811);
#885=VERTEX_POINT('',#1813);
#886=VERTEX_POINT('',#1817);
#887=VERTEX_POINT('',#1819);
#888=VERTEX_POINT('',#1823);
#889=VERTEX_POINT('',#1825);
#890=VERTEX_POINT('',#1827);
#891=VERTEX_POINT('',#1829);
#892=VERTEX_POINT('',#1831);
#893=VERTEX_POINT('',#1833);
#894=VERTEX_POINT('',#1835);
#895=VERTEX_POINT('',#1837);
#896=VERTEX_POINT('',#1839);
#897=VERTEX_POINT('',#1841);
#898=VERTEX_POINT('',#1845);
#899=VERTEX_POINT('',#1847);
#900=VERTEX_POINT('',#1848);
#901=VERTEX_POINT('',#1850);
#902=VERTEX_POINT('',#1852);
#903=VERTEX_POINT('',#1854);
#904=VERTEX_POINT('',#1856);
#905=VERTEX_POINT('',#1858);
#906=VERTEX_POINT('',#1860);
#907=VERTEX_POINT('',#1862);
#908=VERTEX_POINT('',#1929);
#909=VERTEX_POINT('',#1931);
#910=VERTEX_POINT('',#1933);
#911=VERTEX_POINT('',#1941);
#912=VERTEX_POINT('',#1943);
#913=VERTEX_POINT('',#1945);
#914=CIRCLE('',#1236,0.0025);
#915=CIRCLE('',#1237,0.0025);
#916=CIRCLE('',#1238,0.0025);
#917=CIRCLE('',#1239,0.0025);
#918=CIRCLE('',#1240,0.0025);
#919=CIRCLE('',#1241,0.0025);
#920=CIRCLE('',#1247,0.0025);
#921=CIRCLE('',#1256,0.0025);
#922=CIRCLE('',#1259,0.0025);
#923=CIRCLE('',#1261,0.0025);
#924=CIRCLE('',#1296,0.0025);
#925=CIRCLE('',#1297,0.0025);
#926=CIRCLE('',#1298,0.0025);
#927=CIRCLE('',#1302,0.0025);
#928=CIRCLE('',#1303,0.0025);
#929=CIRCLE('',#1304,0.0025);
#930=EDGE_LOOP('',(#314));
#931=EDGE_LOOP('',(#315));
#932=EDGE_LOOP('',(#316,#317,#318,#319,#320,#321,#322,#323,#324,#325,#326,
#327,#328,#329,#330,#331));
#933=EDGE_LOOP('',(#332,#333,#334,#335));
#934=EDGE_LOOP('',(#336));
#935=EDGE_LOOP('',(#337));
#936=EDGE_LOOP('',(#338));
#937=EDGE_LOOP('',(#339));
#938=EDGE_LOOP('',(#340,#341,#342,#343,#344,#345,#346));
#939=EDGE_LOOP('',(#347,#348,#349,#350,#351));
#940=EDGE_LOOP('',(#352,#353,#354,#355,#356,#357));
#941=EDGE_LOOP('',(#358,#359,#360,#361,#362,#363));
#942=EDGE_LOOP('',(#364));
#943=EDGE_LOOP('',(#365,#366,#367,#368,#369,#370,#371,#372,#373,#374,#375,
#376));
#944=EDGE_LOOP('',(#377,#378,#379,#380,#381,#382,#383,#384));
#945=EDGE_LOOP('',(#385,#386,#387,#388,#389,#390,#391,#392));
#946=EDGE_LOOP('',(#393,#394,#395,#396));
#947=EDGE_LOOP('',(#397,#398,#399,#400));
#948=EDGE_LOOP('',(#401,#402,#403,#404));
#949=EDGE_LOOP('',(#405,#406,#407,#408));
#950=EDGE_LOOP('',(#409,#410,#411,#412));
#951=EDGE_LOOP('',(#413,#414,#415,#416));
#952=EDGE_LOOP('',(#417));
#953=EDGE_LOOP('',(#418,#419,#420,#421,#422,#423,#424,#425,#426,#427,#428));
#954=EDGE_LOOP('',(#429,#430,#431,#432));
#955=EDGE_LOOP('',(#433));
#956=EDGE_LOOP('',(#434,#435,#436,#437,#438,#439,#440,#441,#442,#443,#444));
#957=EDGE_LOOP('',(#445));
#958=EDGE_LOOP('',(#446,#447,#448,#449,#450,#451,#452,#453,#454));
#959=EDGE_LOOP('',(#455,#456,#457,#458));
#960=EDGE_LOOP('',(#459,#460,#461,#462,#463,#464));
#961=EDGE_LOOP('',(#465,#466,#467,#468));
#962=EDGE_LOOP('',(#469,#470,#471,#472));
#963=EDGE_LOOP('',(#473,#474,#475,#476,#477,#478));
#964=EDGE_LOOP('',(#479,#480,#481,#482));
#965=EDGE_LOOP('',(#483,#484,#485,#486));
#966=EDGE_LOOP('',(#487,#488,#489,#490,#491,#492));
#967=EDGE_LOOP('',(#493,#494,#495,#496,#497,#498,#499,#500));
#968=EDGE_LOOP('',(#501,#502,#503,#504));
#969=EDGE_LOOP('',(#505,#506,#507,#508));
#970=EDGE_LOOP('',(#509,#510,#511));
#971=EDGE_LOOP('',(#512,#513,#514));
#972=EDGE_LOOP('',(#515,#516,#517,#518));
#973=EDGE_LOOP('',(#519,#520,#521,#522,#523));
#974=EDGE_LOOP('',(#524,#525,#526,#527));
#975=EDGE_LOOP('',(#528,#529,#530,#531));
#976=EDGE_LOOP('',(#532,#533,#534,#535));
#977=EDGE_LOOP('',(#536,#537,#538,#539));
#978=EDGE_LOOP('',(#540));
#979=EDGE_LOOP('',(#541));
#980=EDGE_LOOP('',(#542));
#981=EDGE_LOOP('',(#543));
#982=EDGE_LOOP('',(#544,#545,#546,#547));
#983=EDGE_LOOP('',(#548,#549,#550,#551));
#984=EDGE_LOOP('',(#552,#553,#554,#555));
#985=EDGE_LOOP('',(#556,#557,#558,#559));
#986=EDGE_LOOP('',(#560,#561,#562,#563));
#987=EDGE_LOOP('',(#564,#565,#566,#567));
#988=EDGE_LOOP('',(#568,#569,#570,#571));
#989=EDGE_LOOP('',(#572,#573,#574,#575));
#990=EDGE_LOOP('',(#576,#577,#578,#579));
#991=EDGE_LOOP('',(#580,#581,#582,#583));
#992=EDGE_LOOP('',(#584,#585,#586,#587));
#993=EDGE_LOOP('',(#588,#589,#590,#591));
#994=EDGE_LOOP('',(#592));
#995=EDGE_LOOP('',(#593));
#996=EDGE_LOOP('',(#594));
#997=EDGE_LOOP('',(#595,#596,#597,#598));
#998=EDGE_LOOP('',(#599,#600,#601,#602,#603,#604));
#999=EDGE_LOOP('',(#605,#606,#607,#608,#609,#610));
#1000=EDGE_LOOP('',(#611));
#1001=EDGE_LOOP('',(#612));
#1002=EDGE_LOOP('',(#613));
#1003=EDGE_LOOP('',(#614,#615,#616,#617));
#1004=EDGE_LOOP('',(#618,#619,#620,#621,#622,#623));
#1005=EDGE_LOOP('',(#624,#625,#626,#627));
#1006=EDGE_LOOP('',(#628));
#1007=EDGE_LOOP('',(#629));
#1008=EDGE_LOOP('',(#630));
#1009=EDGE_LOOP('',(#631));
#1010=EDGE_LOOP('',(#632));
#1011=EDGE_LOOP('',(#633));
#1012=EDGE_LOOP('',(#634));
#1013=EDGE_LOOP('',(#635));
#1014=EDGE_LOOP('',(#636));
#1015=EDGE_LOOP('',(#637));
#1016=EDGE_LOOP('',(#638));
#1017=EDGE_LOOP('',(#639));
#1018=FACE_BOUND('',#930,.T.);
#1019=FACE_BOUND('',#931,.T.);
#1020=FACE_BOUND('',#932,.T.);
#1021=FACE_BOUND('',#933,.T.);
#1022=FACE_BOUND('',#934,.T.);
#1023=FACE_BOUND('',#935,.T.);
#1024=FACE_BOUND('',#936,.T.);
#1025=FACE_BOUND('',#937,.T.);
#1026=FACE_BOUND('',#938,.T.);
#1027=FACE_BOUND('',#939,.T.);
#1028=FACE_BOUND('',#940,.T.);
#1029=FACE_BOUND('',#941,.T.);
#1030=FACE_BOUND('',#942,.T.);
#1031=FACE_BOUND('',#943,.T.);
#1032=FACE_BOUND('',#944,.T.);
#1033=FACE_BOUND('',#945,.T.);
#1034=FACE_BOUND('',#946,.T.);
#1035=FACE_BOUND('',#947,.T.);
#1036=FACE_BOUND('',#948,.T.);
#1037=FACE_BOUND('',#949,.T.);
#1038=FACE_BOUND('',#950,.T.);
#1039=FACE_BOUND('',#951,.T.);
#1040=FACE_BOUND('',#952,.T.);
#1041=FACE_BOUND('',#953,.T.);
#1042=FACE_BOUND('',#954,.T.);
#1043=FACE_BOUND('',#955,.T.);
#1044=FACE_BOUND('',#956,.T.);
#1045=FACE_BOUND('',#957,.T.);
#1046=FACE_BOUND('',#958,.T.);
#1047=FACE_BOUND('',#959,.T.);
#1048=FACE_BOUND('',#960,.T.);
#1049=FACE_BOUND('',#961,.T.);
#1050=FACE_BOUND('',#962,.T.);
#1051=FACE_BOUND('',#963,.T.);
#1052=FACE_BOUND('',#964,.T.);
#1053=FACE_BOUND('',#965,.T.);
#1054=FACE_BOUND('',#966,.T.);
#1055=FACE_BOUND('',#967,.T.);
#1056=FACE_BOUND('',#968,.T.);
#1057=FACE_BOUND('',#969,.T.);
#1058=FACE_BOUND('',#970,.T.);
#1059=FACE_BOUND('',#971,.T.);
#1060=FACE_BOUND('',#972,.T.);
#1061=FACE_BOUND('',#973,.T.);
#1062=FACE_BOUND('',#974,.T.);
#1063=FACE_BOUND('',#975,.T.);
#1064=FACE_BOUND('',#976,.T.);
#1065=FACE_BOUND('',#977,.T.);
#1066=FACE_BOUND('',#978,.T.);
#1067=FACE_BOUND('',#979,.T.);
#1068=FACE_BOUND('',#980,.T.);
#1069=FACE_BOUND('',#981,.T.);
#1070=FACE_BOUND('',#982,.T.);
#1071=FACE_BOUND('',#983,.T.);
#1072=FACE_BOUND('',#984,.T.);
#1073=FACE_BOUND('',#985,.T.);
#1074=FACE_BOUND('',#986,.T.);
#1075=FACE_BOUND('',#987,.T.);
#1076=FACE_BOUND('',#988,.T.);
#1077=FACE_BOUND('',#989,.T.);
#1078=FACE_BOUND('',#990,.T.);
#1079=FACE_BOUND('',#991,.T.);
#1080=FACE_BOUND('',#992,.T.);
#1081=FACE_BOUND('',#993,.T.);
#1082=FACE_BOUND('',#994,.T.);
#1083=FACE_BOUND('',#995,.T.);
#1084=FACE_BOUND('',#996,.T.);
#1085=FACE_BOUND('',#997,.T.);
#1086=FACE_BOUND('',#998,.T.);
#1087=FACE_BOUND('',#999,.T.);
#1088=FACE_BOUND('',#1000,.T.);
#1089=FACE_BOUND('',#1001,.T.);
#1090=FACE_BOUND('',#1002,.T.);
#1091=FACE_BOUND('',#1003,.T.);
#1092=FACE_BOUND('',#1004,.T.);
#1093=FACE_BOUND('',#1005,.T.);
#1094=FACE_BOUND('',#1006,.T.);
#1095=FACE_BOUND('',#1007,.T.);
#1096=FACE_BOUND('',#1008,.T.);
#1097=FACE_BOUND('',#1009,.T.);
#1098=FACE_BOUND('',#1010,.T.);
#1099=FACE_BOUND('',#1011,.T.);
#1100=FACE_BOUND('',#1012,.T.);
#1101=FACE_BOUND('',#1013,.T.);
#1102=FACE_BOUND('',#1014,.T.);
#1103=FACE_BOUND('',#1015,.T.);
#1104=FACE_BOUND('',#1016,.T.);
#1105=FACE_BOUND('',#1017,.T.);
#1106=PLANE('',#1235);
#1107=PLANE('',#1242);
#1108=PLANE('',#1243);
#1109=PLANE('',#1244);
#1110=PLANE('',#1245);
#1111=PLANE('',#1246);
#1112=PLANE('',#1248);
#1113=PLANE('',#1249);
#1114=PLANE('',#1250);
#1115=PLANE('',#1251);
#1116=PLANE('',#1252);
#1117=PLANE('',#1253);
#1118=PLANE('',#1254);
#1119=PLANE('',#1255);
#1120=PLANE('',#1257);
#1121=PLANE('',#1258);
#1122=PLANE('',#1260);
#1123=PLANE('',#1262);
#1124=PLANE('',#1263);
#1125=PLANE('',#1264);
#1126=PLANE('',#1265);
#1127=PLANE('',#1266);
#1128=PLANE('',#1267);
#1129=PLANE('',#1268);
#1130=PLANE('',#1269);
#1131=PLANE('',#1270);
#1132=PLANE('',#1271);
#1133=PLANE('',#1272);
#1134=PLANE('',#1273);
#1135=PLANE('',#1274);
#1136=PLANE('',#1275);
#1137=PLANE('',#1276);
#1138=PLANE('',#1277);
#1139=PLANE('',#1278);
#1140=PLANE('',#1279);
#1141=PLANE('',#1280);
#1142=PLANE('',#1283);
#1143=PLANE('',#1284);
#1144=PLANE('',#1285);
#1145=PLANE('',#1286);
#1146=PLANE('',#1287);
#1147=PLANE('',#1288);
#1148=PLANE('',#1289);
#1149=PLANE('',#1290);
#1150=PLANE('',#1291);
#1151=PLANE('',#1292);
#1152=PLANE('',#1293);
#1153=PLANE('',#1294);
#1154=PLANE('',#1295);
#1155=PLANE('',#1299);
#1156=PLANE('',#1300);
#1157=PLANE('',#1301);
#1158=PLANE('',#1305);
#1159=PLANE('',#1306);
#1160=ADVANCED_FACE('',(#1018,#1019,#1020,#1021,#1022,#1023,#1024,#1025),
#1106,.T.);
#1161=ADVANCED_FACE('',(#1026),#1107,.T.);
#1162=ADVANCED_FACE('',(#1027),#1108,.F.);
#1163=ADVANCED_FACE('',(#1028),#1109,.F.);
#1164=ADVANCED_FACE('',(#1029),#1110,.T.);
#1165=ADVANCED_FACE('',(#1030,#1031),#1111,.T.);
#1166=ADVANCED_FACE('',(#1032),#1112,.T.);
#1167=ADVANCED_FACE('',(#1033),#1113,.F.);
#1168=ADVANCED_FACE('',(#1034),#1114,.F.);
#1169=ADVANCED_FACE('',(#1035),#1115,.T.);
#1170=ADVANCED_FACE('',(#1036),#1116,.F.);
#1171=ADVANCED_FACE('',(#1037),#1117,.T.);
#1172=ADVANCED_FACE('',(#1038,#1039),#1118,.T.);
#1173=ADVANCED_FACE('',(#1040,#1041),#1119,.T.);
#1174=ADVANCED_FACE('',(#1042),#1120,.F.);
#1175=ADVANCED_FACE('',(#1043,#1044),#1121,.F.);
#1176=ADVANCED_FACE('',(#1045,#1046),#1122,.F.);
#1177=ADVANCED_FACE('',(#1047),#1123,.T.);
#1178=ADVANCED_FACE('',(#1048),#1124,.F.);
#1179=ADVANCED_FACE('',(#1049),#1125,.T.);
#1180=ADVANCED_FACE('',(#1050),#1126,.F.);
#1181=ADVANCED_FACE('',(#1051),#1127,.F.);
#1182=ADVANCED_FACE('',(#1052),#1128,.F.);
#1183=ADVANCED_FACE('',(#1053),#1129,.F.);
#1184=ADVANCED_FACE('',(#1054),#1130,.F.);
#1185=ADVANCED_FACE('',(#1055),#1131,.T.);
#1186=ADVANCED_FACE('',(#1056),#1132,.T.);
#1187=ADVANCED_FACE('',(#1057),#1133,.F.);
#1188=ADVANCED_FACE('',(#1058),#1134,.T.);
#1189=ADVANCED_FACE('',(#1059),#1135,.T.);
#1190=ADVANCED_FACE('',(#1060),#1136,.T.);
#1191=ADVANCED_FACE('',(#1061),#1137,.T.);
#1192=ADVANCED_FACE('',(#1062),#1138,.T.);
#1193=ADVANCED_FACE('',(#1063),#1139,.T.);
#1194=ADVANCED_FACE('',(#1064),#1140,.F.);
#1195=ADVANCED_FACE('',(#1065),#1141,.T.);
#1196=ADVANCED_FACE('',(#1066,#1067),#12,.F.);
#1197=ADVANCED_FACE('',(#1068,#1069),#13,.F.);
#1198=ADVANCED_FACE('',(#1070),#1142,.T.);
#1199=ADVANCED_FACE('',(#1071),#1143,.T.);
#1200=ADVANCED_FACE('',(#1072),#1144,.F.);
#1201=ADVANCED_FACE('',(#1073),#1145,.T.);
#1202=ADVANCED_FACE('',(#1074),#1146,.F.);
#1203=ADVANCED_FACE('',(#1075),#1147,.F.);
#1204=ADVANCED_FACE('',(#1076),#1148,.T.);
#1205=ADVANCED_FACE('',(#1077),#1149,.T.);
#1206=ADVANCED_FACE('',(#1078),#1150,.T.);
#1207=ADVANCED_FACE('',(#1079),#1151,.F.);
#1208=ADVANCED_FACE('',(#1080),#1152,.T.);
#1209=ADVANCED_FACE('',(#1081),#1153,.F.);
#1210=ADVANCED_FACE('',(#1082,#1083,#1084,#1085),#1154,.T.);
#1211=ADVANCED_FACE('',(#1086),#1155,.T.);
#1212=ADVANCED_FACE('',(#1087),#1156,.T.);
#1213=ADVANCED_FACE('',(#1088,#1089,#1090,#1091),#1157,.T.);
#1214=ADVANCED_FACE('',(#1092),#1158,.F.);
#1215=ADVANCED_FACE('',(#1093),#1159,.T.);
#1216=ADVANCED_FACE('',(#1094,#1095),#14,.F.);
#1217=ADVANCED_FACE('',(#1096,#1097),#15,.F.);
#1218=ADVANCED_FACE('',(#1098,#1099),#16,.F.);
#1219=ADVANCED_FACE('',(#1100,#1101),#17,.F.);
#1220=ADVANCED_FACE('',(#1102,#1103),#18,.F.);
#1221=ADVANCED_FACE('',(#1104,#1105),#19,.F.);
#1222=CLOSED_SHELL('',(#1160,#1161,#1162,#1163,#1164,#1165,#1166,#1167,
#1168,#1169,#1170,#1171,#1172,#1173,#1174,#1175,#1176,#1177,#1178,#1179,
#1180,#1181,#1182,#1183,#1184,#1185,#1186,#1187,#1188,#1189,#1190,#1191,
#1192,#1193,#1194,#1195,#1196,#1197,#1198,#1199,#1200,#1201,#1202,#1203,
#1204,#1205,#1206,#1207,#1208,#1209,#1210,#1211,#1212,#1213,#1214,#1215,
#1216,#1217,#1218,#1219,#1220,#1221));
#1223=STYLED_ITEM('',(#1224),#1231);
#1224=PRESENTATION_STYLE_ASSIGNMENT((#1225));
#1225=SURFACE_STYLE_USAGE(.BOTH.,#1226);
#1226=SURFACE_SIDE_STYLE('',(#1227));
#1227=SURFACE_STYLE_FILL_AREA(#1228);
#1228=FILL_AREA_STYLE('',(#1229));
#1229=FILL_AREA_STYLE_COLOUR('',#1230);
#1230=COLOUR_RGB('',0.262745098039216,0.282352941176471,0.301960784313725);
#1231=MANIFOLD_SOLID_BREP('Part 1',#1222);
#1232=SHAPE_DEFINITION_REPRESENTATION(#1961,#1233);
#1233=SHAPE_REPRESENTATION('Part 1',(#1234),#1956);
#1234=AXIS2_PLACEMENT_3D('',#1618,#1313,#1314);
#1235=AXIS2_PLACEMENT_3D('',#1619,#1315,#1316);
#1236=AXIS2_PLACEMENT_3D('',#1620,#1317,#1318);
#1237=AXIS2_PLACEMENT_3D('',#1622,#1319,#1320);
#1238=AXIS2_PLACEMENT_3D('',#1664,#1341,#1342);
#1239=AXIS2_PLACEMENT_3D('',#1666,#1343,#1344);
#1240=AXIS2_PLACEMENT_3D('',#1668,#1345,#1346);
#1241=AXIS2_PLACEMENT_3D('',#1670,#1347,#1348);
#1242=AXIS2_PLACEMENT_3D('',#1672,#1349,#1350);
#1243=AXIS2_PLACEMENT_3D('',#1684,#1357,#1358);
#1244=AXIS2_PLACEMENT_3D('',#1695,#1364,#1365);
#1245=AXIS2_PLACEMENT_3D('',#1705,#1371,#1372);
#1246=AXIS2_PLACEMENT_3D('',#1715,#1378,#1379);
#1247=AXIS2_PLACEMENT_3D('',#1716,#1380,#1381);
#1248=AXIS2_PLACEMENT_3D('',#1739,#1393,#1394);
#1249=AXIS2_PLACEMENT_3D('',#1750,#1401,#1402);
#1250=AXIS2_PLACEMENT_3D('',#1767,#1411,#1412);
#1251=AXIS2_PLACEMENT_3D('',#1770,#1415,#1416);
#1252=AXIS2_PLACEMENT_3D('',#1773,#1419,#1420);
#1253=AXIS2_PLACEMENT_3D('',#1776,#1423,#1424);
#1254=AXIS2_PLACEMENT_3D('',#1779,#1427,#1428);
#1255=AXIS2_PLACEMENT_3D('',#1793,#1436,#1437);
#1256=AXIS2_PLACEMENT_3D('',#1794,#1438,#1439);
#1257=AXIS2_PLACEMENT_3D('',#1815,#1450,#1451);
#1258=AXIS2_PLACEMENT_3D('',#1821,#1455,#1456);
#1259=AXIS2_PLACEMENT_3D('',#1822,#1457,#1458);
#1260=AXIS2_PLACEMENT_3D('',#1843,#1469,#1470);
#1261=AXIS2_PLACEMENT_3D('',#1844,#1471,#1472);
#1262=AXIS2_PLACEMENT_3D('',#1864,#1482,#1483);
#1263=AXIS2_PLACEMENT_3D('',#1867,#1486,#1487);
#1264=AXIS2_PLACEMENT_3D('',#1871,#1491,#1492);
#1265=AXIS2_PLACEMENT_3D('',#1874,#1495,#1496);
#1266=AXIS2_PLACEMENT_3D('',#1877,#1499,#1500);
#1267=AXIS2_PLACEMENT_3D('',#1880,#1503,#1504);
#1268=AXIS2_PLACEMENT_3D('',#1881,#1505,#1506);
#1269=AXIS2_PLACEMENT_3D('',#1883,#1508,#1509);
#1270=AXIS2_PLACEMENT_3D('',#1885,#1511,#1512);
#1271=AXIS2_PLACEMENT_3D('',#1889,#1516,#1517);
#1272=AXIS2_PLACEMENT_3D('',#1891,#1519,#1520);
#1273=AXIS2_PLACEMENT_3D('',#1893,#1522,#1523);
#1274=AXIS2_PLACEMENT_3D('',#1894,#1524,#1525);
#1275=AXIS2_PLACEMENT_3D('',#1895,#1526,#1527);
#1276=AXIS2_PLACEMENT_3D('',#1896,#1528,#1529);
#1277=AXIS2_PLACEMENT_3D('',#1897,#1530,#1531);
#1278=AXIS2_PLACEMENT_3D('',#1899,#1533,#1534);
#1279=AXIS2_PLACEMENT_3D('',#1901,#1536,#1537);
#1280=AXIS2_PLACEMENT_3D('',#1903,#1539,#1540);
#1281=AXIS2_PLACEMENT_3D('',#1905,#1542,#1543);
#1282=AXIS2_PLACEMENT_3D('',#1906,#1544,#1545);
#1283=AXIS2_PLACEMENT_3D('',#1907,#1546,#1547);
#1284=AXIS2_PLACEMENT_3D('',#1908,#1548,#1549);
#1285=AXIS2_PLACEMENT_3D('',#1909,#1550,#1551);
#1286=AXIS2_PLACEMENT_3D('',#1911,#1553,#1554);
#1287=AXIS2_PLACEMENT_3D('',#1913,#1556,#1557);
#1288=AXIS2_PLACEMENT_3D('',#1914,#1558,#1559);
#1289=AXIS2_PLACEMENT_3D('',#1916,#1561,#1562);
#1290=AXIS2_PLACEMENT_3D('',#1918,#1564,#1565);
#1291=AXIS2_PLACEMENT_3D('',#1919,#1566,#1567);
#1292=AXIS2_PLACEMENT_3D('',#1922,#1570,#1571);
#1293=AXIS2_PLACEMENT_3D('',#1925,#1574,#1575);
#1294=AXIS2_PLACEMENT_3D('',#1926,#1576,#1577);
#1295=AXIS2_PLACEMENT_3D('',#1927,#1578,#1579);
#1296=AXIS2_PLACEMENT_3D('',#1928,#1580,#1581);
#1297=AXIS2_PLACEMENT_3D('',#1930,#1582,#1583);
#1298=AXIS2_PLACEMENT_3D('',#1932,#1584,#1585);
#1299=AXIS2_PLACEMENT_3D('',#1936,#1588,#1589);
#1300=AXIS2_PLACEMENT_3D('',#1937,#1590,#1591);
#1301=AXIS2_PLACEMENT_3D('',#1939,#1593,#1594);
#1302=AXIS2_PLACEMENT_3D('',#1940,#1595,#1596);
#1303=AXIS2_PLACEMENT_3D('',#1942,#1597,#1598);
#1304=AXIS2_PLACEMENT_3D('',#1944,#1599,#1600);
#1305=AXIS2_PLACEMENT_3D('',#1947,#1602,#1603);
#1306=AXIS2_PLACEMENT_3D('',#1948,#1604,#1605);
#1307=AXIS2_PLACEMENT_3D('',#1949,#1606,#1607);
#1308=AXIS2_PLACEMENT_3D('',#1950,#1608,#1609);
#1309=AXIS2_PLACEMENT_3D('',#1951,#1610,#1611);
#1310=AXIS2_PLACEMENT_3D('',#1952,#1612,#1613);
#1311=AXIS2_PLACEMENT_3D('',#1953,#1614,#1615);
#1312=AXIS2_PLACEMENT_3D('',#1954,#1616,#1617);
#1313=DIRECTION('',(0.,0.,1.));
#1314=DIRECTION('',(1.,0.,0.));
#1315=DIRECTION('',(0.,0.,1.));
#1316=DIRECTION('',(1.,0.,0.));
#1317=DIRECTION('',(0.,0.,1.));
#1318=DIRECTION('',(1.,0.,0.));
#1319=DIRECTION('',(0.,0.,-1.));
#1320=DIRECTION('',(1.,0.,0.));
#1321=DIRECTION('',(1.,0.,0.));
#1322=DIRECTION('',(0.,-1.,0.));
#1323=DIRECTION('',(1.,0.,0.));
#1324=DIRECTION('',(0.,-1.,0.));
#1325=DIRECTION('',(1.,0.,0.));
#1326=DIRECTION('',(0.,-1.,0.));
#1327=DIRECTION('',(-1.,0.,0.));
#1328=DIRECTION('',(0.,-1.,0.));
#1329=DIRECTION('',(-1.,0.,0.));
#1330=DIRECTION('',(-0.707106781186548,-0.707106781186548,0.));
#1331=DIRECTION('',(0.,-1.,0.));
#1332=DIRECTION('',(-1.,0.,0.));
#1333=DIRECTION('',(-3.41607084500048E-16,-1.,0.));
#1334=DIRECTION('',(-1.,0.,0.));
#1335=DIRECTION('',(0.,1.,0.));
#1336=DIRECTION('',(-0.707106781186548,0.707106781186548,0.));
#1337=DIRECTION('',(-1.,0.,0.));
#1338=DIRECTION('',(1.91417762866406E-16,-1.,0.));
#1339=DIRECTION('',(-1.,0.,0.));
#1340=DIRECTION('',(1.91417762866406E-16,-1.,0.));
#1341=DIRECTION('',(0.,0.,1.));
#1342=DIRECTION('',(1.,0.,0.));
#1343=DIRECTION('',(0.,0.,1.));
#1344=DIRECTION('',(1.,0.,0.));
#1345=DIRECTION('',(0.,0.,-1.));
#1346=DIRECTION('',(1.,0.,0.));
#1347=DIRECTION('',(0.,0.,-1.));
#1348=DIRECTION('',(1.,0.,0.));
#1349=DIRECTION('',(0.,-1.,0.));
#1350=DIRECTION('',(0.,0.,-1.));
#1351=DIRECTION('',(0.,0.,-1.));
#1352=DIRECTION('',(1.,0.,0.));
#1353=DIRECTION('',(1.,0.,0.));
#1354=DIRECTION('',(0.,0.,1.));
#1355=DIRECTION('',(-1.,0.,0.));
#1356=DIRECTION('',(0.,0.,-1.));
#1357=DIRECTION('',(0.,-1.,0.));
#1358=DIRECTION('',(0.,0.,-1.));
#1359=DIRECTION('',(1.,0.,0.));
#1360=DIRECTION('',(-1.38777878078145E-16,0.,1.));
#1361=DIRECTION('',(-1.,0.,0.));
#1362=DIRECTION('',(0.,0.,-1.));
#1363=DIRECTION('',(-1.,0.,0.));
#1364=DIRECTION('',(0.,-1.,0.));
#1365=DIRECTION('',(0.,0.,-1.));
#1366=DIRECTION('',(0.,0.,-1.));
#1367=DIRECTION('',(0.,0.,-1.));
#1368=DIRECTION('',(-1.,0.,0.));
#1369=DIRECTION('',(0.,0.,-1.));
#1370=DIRECTION('',(1.,0.,0.));
#1371=DIRECTION('',(0.,-1.,0.));
#1372=DIRECTION('',(0.,0.,-1.));
#1373=DIRECTION('',(0.,0.,-1.));
#1374=DIRECTION('',(1.,0.,0.));
#1375=DIRECTION('',(0.,0.,-1.));
#1376=DIRECTION('',(-1.,0.,0.));
#1377=DIRECTION('',(0.,0.,-1.));
#1378=DIRECTION('',(0.,0.,1.));
#1379=DIRECTION('',(1.,0.,0.));
#1380=DIRECTION('',(0.,0.,-1.));
#1381=DIRECTION('',(1.,0.,0.));
#1382=DIRECTION('',(0.,-1.,0.));
#1383=DIRECTION('',(1.,0.,0.));
#1384=DIRECTION('',(0.707106781186548,0.707106781186548,0.));
#1385=DIRECTION('',(0.707106781186548,-0.707106781186548,0.));
#1386=DIRECTION('',(1.91417762866406E-16,-1.,0.));
#1387=DIRECTION('',(-1.,0.,0.));
#1388=DIRECTION('',(1.91417762866406E-16,-1.,0.));
#1389=DIRECTION('',(0.707106781186548,0.707106781186548,0.));
#1390=DIRECTION('',(-1.,0.,0.));
#1391=DIRECTION('',(-3.41607084500048E-16,-1.,0.));
#1392=DIRECTION('',(-0.707106781186548,0.707106781186548,0.));
#1393=DIRECTION('',(0.,0.,-1.));
#1394=DIRECTION('',(1.,0.,0.));
#1395=DIRECTION('',(-1.,0.,0.));
#1396=DIRECTION('',(0.,1.,0.));
#1397=DIRECTION('',(0.,1.,0.));
#1398=DIRECTION('',(0.,1.,0.));
#1399=DIRECTION('',(-1.,0.,0.));
#1400=DIRECTION('',(0.,1.,0.));
#1401=DIRECTION('',(0.,0.,1.));
#1402=DIRECTION('',(1.,0.,0.));
#1403=DIRECTION('',(0.,-1.,0.));
#1404=DIRECTION('',(1.,0.,0.));
#1405=DIRECTION('',(-3.41607084500048E-16,-1.,0.));
#1406=DIRECTION('',(-1.,0.,0.));
#1407=DIRECTION('',(0.,-1.,0.));
#1408=DIRECTION('',(-1.,0.,0.));
#1409=DIRECTION('',(0.,1.,0.));
#1410=DIRECTION('',(-1.,0.,0.));
#1411=DIRECTION('',(0.,-0.707106781186547,0.707106781186548));
#1412=DIRECTION('',(-1.,0.,0.));
#1413=DIRECTION('',(0.,-0.707106781186548,-0.707106781186547));
#1414=DIRECTION('',(0.,-0.707106781186548,-0.707106781186547));
#1415=DIRECTION('',(0.,-0.707106781186547,-0.707106781186548));
#1416=DIRECTION('',(1.,0.,0.));
#1417=DIRECTION('',(0.,0.707106781186548,-0.707106781186547));
#1418=DIRECTION('',(0.,0.707106781186548,-0.707106781186547));
#1419=DIRECTION('',(0.,-1.,0.));
#1420=DIRECTION('',(0.,0.,-1.));
#1421=DIRECTION('',(0.,0.,-1.));
#1422=DIRECTION('',(0.,0.,-1.));
#1423=DIRECTION('',(0.,-1.,0.));
#1424=DIRECTION('',(0.,0.,-1.));
#1425=DIRECTION('',(0.,0.,-1.));
#1426=DIRECTION('',(0.,0.,-1.));
#1427=DIRECTION('',(0.707106781186547,-2.4155268595135E-16,-0.707106781186548));
#1428=DIRECTION('',(3.41607084500048E-16,1.,0.));
#1429=DIRECTION('',(-0.707106781186548,-2.32248400940087E-32,-0.707106781186547));
#1430=DIRECTION('',(3.41607084500048E-16,1.,0.));
#1431=DIRECTION('',(0.707106781186548,0.,0.707106781186547));
#1432=DIRECTION('',(0.707106781186548,0.,0.707106781186547));
#1433=DIRECTION('',(-1.91417762866406E-16,1.,-5.33024847366454E-16));
#1434=DIRECTION('',(0.707106781186548,0.,0.707106781186547));
#1435=DIRECTION('',(-1.91417762866406E-16,1.,-5.33024847366454E-16));
#1436=DIRECTION('',(0.,0.,1.));
#1437=DIRECTION('',(1.,0.,0.));
#1438=DIRECTION('',(0.,0.,1.));
#1439=DIRECTION('',(1.,0.,0.));
#1440=DIRECTION('',(0.707106781186548,-0.707106781186548,0.));
#1441=DIRECTION('',(1.91417762866406E-16,-1.,0.));
#1442=DIRECTION('',(-1.,0.,0.));
#1443=DIRECTION('',(1.91417762866406E-16,-1.,0.));
#1444=DIRECTION('',(-0.707106781186548,-0.707106781186548,0.));
#1445=DIRECTION('',(0.707106781186548,-0.707106781186548,0.));
#1446=DIRECTION('',(0.,-1.,0.));
#1447=DIRECTION('',(-0.707106781186548,-0.707106781186548,0.));
#1448=DIRECTION('',(-3.41607084500048E-16,-1.,0.));
#1449=DIRECTION('',(-1.,0.,0.));
#1450=DIRECTION('',(-0.707106781186548,-0.707106781186548,0.));
#1451=DIRECTION('',(0.707106781186548,-0.707106781186548,0.));
#1452=DIRECTION('',(0.,0.,-1.));
#1453=DIRECTION('',(0.,0.,-1.));
#1454=DIRECTION('',(0.707106781186548,-0.707106781186548,0.));
#1455=DIRECTION('',(0.,0.,1.));
#1456=DIRECTION('',(1.,0.,0.));
#1457=DIRECTION('',(0.,0.,1.));
#1458=DIRECTION('',(1.,0.,0.));
#1459=DIRECTION('',(1.91417762866406E-16,-1.,0.));
#1460=DIRECTION('',(-1.,0.,0.));
#1461=DIRECTION('',(0.,-1.,0.));
#1462=DIRECTION('',(-0.707106781186548,-0.707106781186548,0.));
#1463=DIRECTION('',(-1.,0.,0.));
#1464=DIRECTION('',(0.,-1.,0.));
#1465=DIRECTION('',(0.707106781186548,-0.707106781186548,0.));
#1466=DIRECTION('',(-0.707106781186548,-0.707106781186548,0.));
#1467=DIRECTION('',(1.91417762866406E-16,-1.,0.));
#1468=DIRECTION('',(-1.,0.,0.));
#1469=DIRECTION('',(0.,0.,1.));
#1470=DIRECTION('',(1.,0.,0.));
#1471=DIRECTION('',(0.,0.,1.));
#1472=DIRECTION('',(1.,0.,0.));
#1473=DIRECTION('',(1.91417762866406E-16,-1.,0.));
#1474=DIRECTION('',(-1.,0.,0.));
#1475=DIRECTION('',(1.91417762866406E-16,-1.,0.));
#1476=DIRECTION('',(0.707106781186548,-0.707106781186548,0.));
#1477=DIRECTION('',(0.707106781186548,0.707106781186548,0.));
#1478=DIRECTION('',(1.,0.,0.));
#1479=DIRECTION('',(0.707106781186548,-0.707106781186548,0.));
#1480=DIRECTION('',(0.,1.,0.));
#1481=DIRECTION('',(0.707106781186548,0.707106781186548,0.));
#1482=DIRECTION('',(0.707106781186548,-0.707106781186548,0.));
#1483=DIRECTION('',(0.707106781186548,0.707106781186548,0.));
#1484=DIRECTION('',(0.,0.,-1.));
#1485=DIRECTION('',(0.,0.,-1.));
#1486=DIRECTION('',(0.,1.,0.));
#1487=DIRECTION('',(0.,0.,1.));
#1488=DIRECTION('',(1.38777878078145E-16,0.,-1.));
#1489=DIRECTION('',(0.,0.,-1.));
#1490=DIRECTION('',(0.,0.,-1.));
#1491=DIRECTION('',(-1.,0.,0.));
#1492=DIRECTION('',(0.,0.,1.));
#1493=DIRECTION('',(0.,0.,-1.));
#1494=DIRECTION('',(0.,0.,-1.));
#1495=DIRECTION('',(0.707106781186548,-0.707106781186548,0.));
#1496=DIRECTION('',(0.707106781186548,0.707106781186548,0.));
#1497=DIRECTION('',(0.,0.,-1.));
#1498=DIRECTION('',(0.,0.,-1.));
#1499=DIRECTION('',(0.,-1.,0.));
#1500=DIRECTION('',(0.,0.,-1.));
#1501=DIRECTION('',(0.,0.,-1.));
#1502=DIRECTION('',(0.,0.,-1.));
#1503=DIRECTION('',(1.,0.,0.));
#1504=DIRECTION('',(0.,0.,-1.));
#1505=DIRECTION('',(0.,-1.,0.));
#1506=DIRECTION('',(0.,0.,-1.));
#1507=DIRECTION('',(0.,0.,-1.));
#1508=DIRECTION('',(1.,0.,0.));
#1509=DIRECTION('',(0.,0.,-1.));
#1510=DIRECTION('',(0.,0.,-1.));
#1511=DIRECTION('',(1.,-3.41607084500048E-16,0.));
#1512=DIRECTION('',(3.41607084500048E-16,1.,0.));
#1513=DIRECTION('',(0.,0.,1.));
#1514=DIRECTION('',(0.,0.,-1.));
#1515=DIRECTION('',(0.,0.,-1.));
#1516=DIRECTION('',(0.707106781186548,0.707106781186548,0.));
#1517=DIRECTION('',(0.,0.,1.));
#1518=DIRECTION('',(0.707106781186548,-0.707106781186548,0.));
#1519=DIRECTION('',(-0.707106781186548,0.707106781186548,0.));
#1520=DIRECTION('',(0.,0.,-1.));
#1521=DIRECTION('',(0.707106781186548,0.707106781186548,0.));
#1522=DIRECTION('',(0.577350269189626,0.577350269189626,-0.577350269189626));
#1523=DIRECTION('',(-0.707106781186548,0.,-0.707106781186547));
#1524=DIRECTION('',(0.577350269189626,-0.577350269189626,-0.577350269189626));
#1525=DIRECTION('',(-0.707106781186548,0.,-0.707106781186547));
#1526=DIRECTION('',(-0.707106781186548,-0.707106781186548,0.));
#1527=DIRECTION('',(0.707106781186548,-0.707106781186548,0.));
#1528=DIRECTION('',(0.,-1.,0.));
#1529=DIRECTION('',(0.,0.,-1.));
#1530=DIRECTION('',(-0.707106781186548,-0.707106781186548,0.));
#1531=DIRECTION('',(0.707106781186548,-0.707106781186548,0.));
#1532=DIRECTION('',(0.,0.,-1.));
#1533=DIRECTION('',(-0.707106781186548,0.707106781186548,0.));
#1534=DIRECTION('',(-0.707106781186548,-0.707106781186548,0.));
#1535=DIRECTION('',(0.,0.,1.));
#1536=DIRECTION('',(0.707106781186548,-0.707106781186548,0.));
#1537=DIRECTION('',(0.707106781186548,0.707106781186548,0.));
#1538=DIRECTION('',(0.,0.,-1.));
#1539=DIRECTION('',(-0.707106781186548,-0.707106781186548,0.));
#1540=DIRECTION('',(0.707106781186548,-0.707106781186548,0.));
#1541=DIRECTION('',(0.,0.,-1.));
#1542=DIRECTION('',(0.,0.,1.));
#1543=DIRECTION('',(1.,0.,0.));
#1544=DIRECTION('',(0.,0.,1.));
#1545=DIRECTION('',(1.,0.,0.));
#1546=DIRECTION('',(-1.,0.,0.));
#1547=DIRECTION('',(0.,0.,1.));
#1548=DIRECTION('',(-1.,0.,0.));
#1549=DIRECTION('',(0.,0.,1.));
#1550=DIRECTION('',(-1.,-1.91417762866406E-16,0.));
#1551=DIRECTION('',(1.91417762866406E-16,-1.,0.));
#1552=DIRECTION('',(0.,0.,-1.));
#1553=DIRECTION('',(-1.,-1.91417762866406E-16,0.));
#1554=DIRECTION('',(1.91417762866406E-16,-1.,0.));
#1555=DIRECTION('',(0.,0.,-1.));
#1556=DIRECTION('',(0.,1.,0.));
#1557=DIRECTION('',(0.,0.,1.));
#1558=DIRECTION('',(-1.,-1.91417762866406E-16,0.));
#1559=DIRECTION('',(1.91417762866406E-16,-1.,0.));
#1560=DIRECTION('',(0.,0.,-1.));
#1561=DIRECTION('',(0.,1.,0.));
#1562=DIRECTION('',(0.,0.,1.));
#1563=DIRECTION('',(0.,0.,-1.));
#1564=DIRECTION('',(-1.,-1.91417762866406E-16,0.));
#1565=DIRECTION('',(1.91417762866406E-16,-1.,0.));
#1566=DIRECTION('',(-1.,-1.91417762866406E-16,0.));
#1567=DIRECTION('',(1.91417762866406E-16,-1.,0.));
#1568=DIRECTION('',(0.,0.,-1.));
#1569=DIRECTION('',(0.,0.,-1.));
#1570=DIRECTION('',(-1.,-1.91417762866406E-16,0.));
#1571=DIRECTION('',(1.91417762866406E-16,-1.,0.));
#1572=DIRECTION('',(0.,0.,-1.));
#1573=DIRECTION('',(0.,0.,-1.));
#1574=DIRECTION('',(0.,1.,0.));
#1575=DIRECTION('',(0.,0.,1.));
#1576=DIRECTION('',(0.,1.,0.));
#1577=DIRECTION('',(0.,0.,1.));
#1578=DIRECTION('',(0.,0.,-1.));
#1579=DIRECTION('',(-1.,0.,0.));
#1580=DIRECTION('',(0.,0.,-1.));
#1581=DIRECTION('',(-1.,0.,0.));
#1582=DIRECTION('',(0.,0.,-1.));
#1583=DIRECTION('',(-1.,0.,0.));
#1584=DIRECTION('',(0.,0.,-1.));
#1585=DIRECTION('',(-1.,0.,0.));
#1586=DIRECTION('',(0.,-1.,0.));
#1587=DIRECTION('',(0.,-1.,0.));
#1588=DIRECTION('',(-1.,0.,0.));
#1589=DIRECTION('',(0.,0.,1.));
#1590=DIRECTION('',(-1.,0.,0.));
#1591=DIRECTION('',(0.,0.,1.));
#1592=DIRECTION('',(0.,-1.,0.));
#1593=DIRECTION('',(0.,0.,-1.));
#1594=DIRECTION('',(-1.,0.,0.));
#1595=DIRECTION('',(0.,0.,-1.));
#1596=DIRECTION('',(-1.,0.,0.));
#1597=DIRECTION('',(0.,0.,-1.));
#1598=DIRECTION('',(-1.,0.,0.));
#1599=DIRECTION('',(0.,0.,-1.));
#1600=DIRECTION('',(-1.,0.,0.));
#1601=DIRECTION('',(0.,-1.,0.));
#1602=DIRECTION('',(1.,0.,1.38777878078145E-16));
#1603=DIRECTION('',(1.38777878078145E-16,0.,-1.));
#1604=DIRECTION('',(-1.,0.,0.));
#1605=DIRECTION('',(0.,0.,1.));
#1606=DIRECTION('',(0.,0.,1.));
#1607=DIRECTION('',(1.,0.,0.));
#1608=DIRECTION('',(0.,0.,1.));
#1609=DIRECTION('',(1.,0.,0.));
#1610=DIRECTION('',(0.,0.,1.));
#1611=DIRECTION('',(1.,0.,0.));
#1612=DIRECTION('',(0.,0.,1.));
#1613=DIRECTION('',(1.,0.,0.));
#1614=DIRECTION('',(0.,0.,1.));
#1615=DIRECTION('',(1.,0.,0.));
#1616=DIRECTION('',(0.,0.,1.));
#1617=DIRECTION('',(1.,0.,0.));
#1618=CARTESIAN_POINT('',(0.,0.,0.));
#1619=CARTESIAN_POINT('',(0.,0.,0.02));
#1620=CARTESIAN_POINT('',(0.11,0.15,0.02));
#1621=CARTESIAN_POINT('',(0.1125,0.15,0.02));
#1622=CARTESIAN_POINT('',(0.11,-0.15,0.02));
#1623=CARTESIAN_POINT('',(0.1125,-0.15,0.02));
#1624=CARTESIAN_POINT('',(-0.168964466094068,0.1575,0.02));
#1625=CARTESIAN_POINT('',(0.105,0.1575,0.02));
#1626=CARTESIAN_POINT('',(0.172928932188134,0.1575,0.02));
#1627=CARTESIAN_POINT('',(0.105,9.8375,0.02));
#1628=CARTESIAN_POINT('',(0.105,0.1225,0.02));
#1629=CARTESIAN_POINT('',(0.,0.1225,0.02));
#1630=CARTESIAN_POINT('',(0.145,0.1225,0.02));
#1631=CARTESIAN_POINT('',(0.145,0.,0.02));
#1632=CARTESIAN_POINT('',(0.145,-0.1225,0.02));
#1633=CARTESIAN_POINT('',(0.,-0.1225,0.02));
#1634=CARTESIAN_POINT('',(0.105,-0.1225,0.02));
#1635=CARTESIAN_POINT('',(0.105,9.8375,0.02));
#1636=CARTESIAN_POINT('',(0.105,-0.1625,0.02));
#1637=CARTESIAN_POINT('',(-5.55111512312578E-17,-0.1625,0.02));
#1638=CARTESIAN_POINT('',(0.165,-0.1625,0.02));
#1639=CARTESIAN_POINT('',(0.165,-0.16,0.02));
#1640=CARTESIAN_POINT('',(0.165,-0.1575,0.02));
#1641=CARTESIAN_POINT('',(0.168964466094068,-0.1575,0.02));
#1642=CARTESIAN_POINT('',(0.172928932188134,-0.1575,0.02));
#1643=CARTESIAN_POINT('',(0.176464466094067,-0.153964466094067,0.02));
#1644=CARTESIAN_POINT('',(0.18,-0.150428932188134,0.02));
#1645=CARTESIAN_POINT('',(0.18,-0.146464466094067,0.02));
#1646=CARTESIAN_POINT('',(0.18,-0.1425,0.02));
#1647=CARTESIAN_POINT('',(0.1825,-0.1425,0.02));
#1648=CARTESIAN_POINT('',(0.185,-0.1425,0.02));
#1649=CARTESIAN_POINT('',(0.185,0.,0.02));
#1650=CARTESIAN_POINT('',(0.185,0.1425,0.02));
#1651=CARTESIAN_POINT('',(0.1825,0.1425,0.02));
#1652=CARTESIAN_POINT('',(0.18,0.1425,0.02));
#1653=CARTESIAN_POINT('',(0.18,0.146464466094067,0.02));
#1654=CARTESIAN_POINT('',(0.18,0.150428932188134,0.02));
#1655=CARTESIAN_POINT('',(0.176464466094067,0.153964466094067,0.02));
#1656=CARTESIAN_POINT('',(0.,0.145,0.02));
#1657=CARTESIAN_POINT('',(0.1775,0.145,0.02));
#1658=CARTESIAN_POINT('',(0.1755,0.145,0.02));
#1659=CARTESIAN_POINT('',(0.1775,3.39766529087872E-17,0.02));
#1660=CARTESIAN_POINT('',(0.1775,-0.145,0.02));
#1661=CARTESIAN_POINT('',(0.,-0.145,0.02));
#1662=CARTESIAN_POINT('',(0.1755,-0.145,0.02));
#1663=CARTESIAN_POINT('',(0.1755,3.35938173830543E-17,0.02));
#1664=CARTESIAN_POINT('',(0.11,0.14,0.02));
#1665=CARTESIAN_POINT('',(0.1125,0.14,0.02));
#1666=CARTESIAN_POINT('',(0.11,0.13,0.02));
#1667=CARTESIAN_POINT('',(0.1125,0.13,0.02));
#1668=CARTESIAN_POINT('',(0.11,-0.13,0.02));
#1669=CARTESIAN_POINT('',(0.1125,-0.13,0.02));
#1670=CARTESIAN_POINT('',(0.11,-0.14,0.02));
#1671=CARTESIAN_POINT('',(0.1125,-0.14,0.02));
#1672=CARTESIAN_POINT('',(-5.55111512312578E-17,-0.1625,0.02));
#1673=CARTESIAN_POINT('',(0.105,-0.1625,0.015));
#1674=CARTESIAN_POINT('',(0.105,-0.1625,0.01));
#1675=CARTESIAN_POINT('',(0.185,-0.1625,0.01));
#1676=CARTESIAN_POINT('',(0.115,-0.1625,0.01));
#1677=CARTESIAN_POINT('',(0.185,-0.1625,0.01));
#1678=CARTESIAN_POINT('',(0.175,-0.1625,0.01));
#1679=CARTESIAN_POINT('',(0.175,-0.1625,0.02));
#1680=CARTESIAN_POINT('',(0.175,-0.1625,0.22));
#1681=CARTESIAN_POINT('',(-5.55111512312578E-17,-0.1625,0.22));
#1682=CARTESIAN_POINT('',(0.165,-0.1625,0.22));
#1683=CARTESIAN_POINT('',(0.165,-0.1625,0.22));
#1684=CARTESIAN_POINT('',(5.55111512312578E-17,0.1625,0.02));
#1685=CARTESIAN_POINT('',(5.55111512312578E-17,0.1625,0.01));
#1686=CARTESIAN_POINT('',(0.115,0.1625,0.01));
#1687=CARTESIAN_POINT('',(0.105,0.1625,0.01));
#1688=CARTESIAN_POINT('',(0.105,0.1625,0.02));
#1689=CARTESIAN_POINT('',(0.105,0.1625,0.22));
#1690=CARTESIAN_POINT('',(5.55111512312578E-17,0.1625,0.22));
#1691=CARTESIAN_POINT('',(0.175,0.1625,0.22));
#1692=CARTESIAN_POINT('',(0.175,0.1625,0.));
#1693=CARTESIAN_POINT('',(0.175,0.1625,0.01));
#1694=CARTESIAN_POINT('',(5.55111512312578E-17,0.1625,0.01));
#1695=CARTESIAN_POINT('',(0.,-0.1225,0.03));
#1696=CARTESIAN_POINT('',(0.105,-0.1225,0.03));
#1697=CARTESIAN_POINT('',(0.105,-0.1225,0.01));
#1698=CARTESIAN_POINT('',(0.145,-0.1225,0.03));
#1699=CARTESIAN_POINT('',(0.145,-0.1225,0.005));
#1700=CARTESIAN_POINT('',(0.,-0.1225,0.005));
#1701=CARTESIAN_POINT('',(0.115,-0.1225,0.005));
#1702=CARTESIAN_POINT('',(0.115,-0.1225,0.03));
#1703=CARTESIAN_POINT('',(0.115,-0.1225,0.01));
#1704=CARTESIAN_POINT('',(0.,-0.1225,0.01));
#1705=CARTESIAN_POINT('',(0.,0.1225,0.03));
#1706=CARTESIAN_POINT('',(0.105,0.1225,0.03));
#1707=CARTESIAN_POINT('',(0.105,0.1225,0.01));
#1708=CARTESIAN_POINT('',(0.,0.1225,0.01));
#1709=CARTESIAN_POINT('',(0.115,0.1225,0.01));
#1710=CARTESIAN_POINT('',(0.115,0.1225,0.03));
#1711=CARTESIAN_POINT('',(0.115,0.1225,0.005));
#1712=CARTESIAN_POINT('',(0.,0.1225,0.005));
#1713=CARTESIAN_POINT('',(0.145,0.1225,0.005));
#1714=CARTESIAN_POINT('',(0.145,0.1225,0.03));
#1715=CARTESIAN_POINT('',(2.77555756156289E-17,2.77555756156289E-17,0.22));
#1716=CARTESIAN_POINT('',(0.172928932188134,0.150428932188134,0.22));
#1717=CARTESIAN_POINT('',(0.175428932188134,0.150428932188134,0.22));
#1718=CARTESIAN_POINT('',(0.105,9.8375,0.22));
#1719=CARTESIAN_POINT('',(0.105,0.1575,0.22));
#1720=CARTESIAN_POINT('',(-0.168964466094068,0.1575,0.22));
#1721=CARTESIAN_POINT('',(0.164443650813896,0.1575,0.22));
#1722=CARTESIAN_POINT('',(0.16161522368915,0.154671572875254,0.22));
#1723=CARTESIAN_POINT('',(0.16161522368915,0.154671572875254,0.22));
#1724=CARTESIAN_POINT('',(0.169254310985676,0.147032485578728,0.22));
#1725=CARTESIAN_POINT('',(0.1755,0.140786796564404,0.22));
#1726=CARTESIAN_POINT('',(0.1755,6.13493929986832E-17,0.22));
#1727=CARTESIAN_POINT('',(0.1755,0.145,0.22));
#1728=CARTESIAN_POINT('',(2.77555756156289E-17,0.145,0.22));
#1729=CARTESIAN_POINT('',(0.1775,0.145,0.22));
#1730=CARTESIAN_POINT('',(0.1775,6.1732228524416E-17,0.22));
#1731=CARTESIAN_POINT('',(0.1775,0.14,0.22));
#1732=CARTESIAN_POINT('',(0.176893398282202,0.139393398282202,0.22));
#1733=CARTESIAN_POINT('',(0.18,0.1425,0.22));
#1734=CARTESIAN_POINT('',(0.1825,0.1425,0.22));
#1735=CARTESIAN_POINT('',(0.185,0.1425,0.22));
#1736=CARTESIAN_POINT('',(0.185,0.,0.22));
#1737=CARTESIAN_POINT('',(0.185,0.1525,0.22));
#1738=CARTESIAN_POINT('',(0.16875,0.16875,0.22));
#1739=CARTESIAN_POINT('',(0.,0.,0.005));
#1740=CARTESIAN_POINT('',(0.,-0.1425,0.005));
#1741=CARTESIAN_POINT('',(0.165,-0.1425,0.005));
#1742=CARTESIAN_POINT('',(0.115,-0.1425,0.005));
#1743=CARTESIAN_POINT('',(0.115,0.,0.005));
#1744=CARTESIAN_POINT('',(0.145,0.,0.005));
#1745=CARTESIAN_POINT('',(0.115,0.,0.005));
#1746=CARTESIAN_POINT('',(0.115,0.1425,0.005));
#1747=CARTESIAN_POINT('',(0.,0.1425,0.005));
#1748=CARTESIAN_POINT('',(0.165,0.1425,0.005));
#1749=CARTESIAN_POINT('',(0.165,0.,0.005));
#1750=CARTESIAN_POINT('',(0.,0.,0.));
#1751=CARTESIAN_POINT('',(0.115,9.8375,1.7347234759768E-18));
#1752=CARTESIAN_POINT('',(0.115,0.152500000000002,8.4741241801467E-16));
#1753=CARTESIAN_POINT('',(0.115,0.1425,1.7347234759768E-18));
#1754=CARTESIAN_POINT('',(0.,0.1525,0.));
#1755=CARTESIAN_POINT('',(0.175,0.1525,0.));
#1756=CARTESIAN_POINT('',(0.175,-0.1625,0.));
#1757=CARTESIAN_POINT('',(0.175,-0.1525,0.));
#1758=CARTESIAN_POINT('',(-0.185,-0.1525,0.));
#1759=CARTESIAN_POINT('',(0.115,-0.152499999999997,-9.28510740516586E-16));
#1760=CARTESIAN_POINT('',(0.115,9.8375,1.7347234759768E-18));
#1761=CARTESIAN_POINT('',(0.115,-0.1425,1.7347234759768E-18));
#1762=CARTESIAN_POINT('',(0.,-0.1425,0.));
#1763=CARTESIAN_POINT('',(0.165,-0.1425,0.));
#1764=CARTESIAN_POINT('',(0.165,0.,0.));
#1765=CARTESIAN_POINT('',(0.165,0.1425,0.));
#1766=CARTESIAN_POINT('',(0.,0.1425,0.));
#1767=CARTESIAN_POINT('',(5.55111512312578E-17,0.1625,0.01));
#1768=CARTESIAN_POINT('',(0.115,0.1625,0.01));
#1769=CARTESIAN_POINT('',(0.175,0.1575,0.005));
#1770=CARTESIAN_POINT('',(0.,-0.1525,0.));
#1771=CARTESIAN_POINT('',(0.115,-0.1525,0.));
#1772=CARTESIAN_POINT('',(0.175,-0.1525,0.));
#1773=CARTESIAN_POINT('',(0.,-0.1425,0.005));
#1774=CARTESIAN_POINT('',(0.115,-0.1425,0.005));
#1775=CARTESIAN_POINT('',(0.165,-0.1425,0.005));
#1776=CARTESIAN_POINT('',(0.,0.1425,0.005));
#1777=CARTESIAN_POINT('',(0.115,0.1425,0.005));
#1778=CARTESIAN_POINT('',(0.165,0.1425,0.005));
#1779=CARTESIAN_POINT('',(0.175,-5.97812397875084E-17,0.));
#1780=CARTESIAN_POINT('',(0.185,0.1525,0.01));
#1781=CARTESIAN_POINT('',(0.185,0.1525,0.01));
#1782=CARTESIAN_POINT('',(0.185,0.1625,0.01));
#1783=CARTESIAN_POINT('',(0.185,-0.1525,0.01));
#1784=CARTESIAN_POINT('',(0.175,-0.1525,-1.70803542250025E-18));
#1785=CARTESIAN_POINT('',(0.175,-0.145,2.47665136262535E-17));
#1786=CARTESIAN_POINT('',(0.1755,-0.145,0.000500000000000056));
#1787=CARTESIAN_POINT('',(0.1775,-0.145,0.00250000000000015));
#1788=CARTESIAN_POINT('',(0.1775,-5.79701332619262E-17,0.00250000000000006));
#1789=CARTESIAN_POINT('',(0.1775,0.145,0.00250000000000009));
#1790=CARTESIAN_POINT('',(0.175,0.145,-2.47665136262535E-17));
#1791=CARTESIAN_POINT('',(0.1755,0.145,0.0005));
#1792=CARTESIAN_POINT('',(0.1755,-5.94190184823919E-17,0.000500000000000083));
#1793=CARTESIAN_POINT('',(2.77555756156289E-17,2.77555756156289E-17,0.22));
#1794=CARTESIAN_POINT('',(0.172928932188134,-0.150428932188134,0.22));
#1795=CARTESIAN_POINT('',(0.175428932188134,-0.150428932188134,0.22));
#1796=CARTESIAN_POINT('',(0.177171572875254,-0.13911522368915,0.22));
#1797=CARTESIAN_POINT('',(0.1775,-0.139443650813896,0.22));
#1798=CARTESIAN_POINT('',(0.180556349186104,-0.1425,0.22));
#1799=CARTESIAN_POINT('',(0.1775,6.1732228524416E-17,0.22));
#1800=CARTESIAN_POINT('',(0.1775,-0.145,0.22));
#1801=CARTESIAN_POINT('',(2.77555756156289E-17,-0.145,0.22));
#1802=CARTESIAN_POINT('',(0.1755,-0.145,0.22));
#1803=CARTESIAN_POINT('',(0.1755,6.13493929986832E-17,0.22));
#1804=CARTESIAN_POINT('',(0.1755,-0.140786796564404,0.22));
#1805=CARTESIAN_POINT('',(0.169393398282202,-0.146893398282202,0.22));
#1806=CARTESIAN_POINT('',(0.16161522368915,-0.154671572875254,0.22));
#1807=CARTESIAN_POINT('',(0.16161522368915,-0.154671572875254,0.22));
#1808=CARTESIAN_POINT('',(0.165,-0.158056349186104,0.22));
#1809=CARTESIAN_POINT('',(0.165,-0.16,0.22));
#1810=CARTESIAN_POINT('',(0.16875,-0.16875,0.22));
#1811=CARTESIAN_POINT('',(0.185,-0.1525,0.22));
#1812=CARTESIAN_POINT('',(0.185,0.,0.22));
#1813=CARTESIAN_POINT('',(0.185,-0.1425,0.22));
#1814=CARTESIAN_POINT('',(0.1825,-0.1425,0.22));
#1815=CARTESIAN_POINT('',(0.177171572875254,-0.13911522368915,0.219));
#1816=CARTESIAN_POINT('',(0.1775,-0.139443650813896,0.219));
#1817=CARTESIAN_POINT('',(0.1775,-0.139443650813896,0.218));
#1818=CARTESIAN_POINT('',(0.180556349186104,-0.1425,0.22));
#1819=CARTESIAN_POINT('',(0.180556349186104,-0.1425,0.218));
#1820=CARTESIAN_POINT('',(0.177171572875254,-0.13911522368915,0.218));
#1821=CARTESIAN_POINT('',(0.169393398282202,-0.146893398282202,0.218));
#1822=CARTESIAN_POINT('',(0.172928932188134,-0.150428932188134,0.218));
#1823=CARTESIAN_POINT('',(0.175428932188134,-0.150428932188134,0.218));
#1824=CARTESIAN_POINT('',(0.1775,-0.146893398282202,0.218));
#1825=CARTESIAN_POINT('',(0.1775,-0.145,0.218));
#1826=CARTESIAN_POINT('',(0.1825,-0.1425,0.218));
#1827=CARTESIAN_POINT('',(0.18,-0.1425,0.218));
#1828=CARTESIAN_POINT('',(0.18,-0.146464466094067,0.218));
#1829=CARTESIAN_POINT('',(0.18,-0.150428932188134,0.218));
#1830=CARTESIAN_POINT('',(0.176464466094067,-0.153964466094067,0.218));
#1831=CARTESIAN_POINT('',(0.172928932188134,-0.1575,0.218));
#1832=CARTESIAN_POINT('',(0.168964466094068,-0.1575,0.218));
#1833=CARTESIAN_POINT('',(0.165,-0.1575,0.218));
#1834=CARTESIAN_POINT('',(0.165,-0.16,0.218));
#1835=CARTESIAN_POINT('',(0.165,-0.158056349186104,0.218));
#1836=CARTESIAN_POINT('',(0.16161522368915,-0.154671572875254,0.218));
#1837=CARTESIAN_POINT('',(0.16161522368915,-0.154671572875254,0.218));
#1838=CARTESIAN_POINT('',(0.169393398282202,-0.146893398282202,0.218));
#1839=CARTESIAN_POINT('',(0.1755,-0.140786796564404,0.218));
#1840=CARTESIAN_POINT('',(0.1755,-0.146893398282202,0.218));
#1841=CARTESIAN_POINT('',(0.1755,-0.145,0.218));
#1842=CARTESIAN_POINT('',(0.169393398282202,-0.145,0.218));
#1843=CARTESIAN_POINT('',(0.169254310985676,0.147032485578728,0.218));
#1844=CARTESIAN_POINT('',(0.172928932188134,0.150428932188134,0.218));
#1845=CARTESIAN_POINT('',(0.175428932188134,0.150428932188134,0.218));
#1846=CARTESIAN_POINT('',(0.1775,0.147032485578728,0.218));
#1847=CARTESIAN_POINT('',(0.1775,0.145,0.218));
#1848=CARTESIAN_POINT('',(0.1775,0.14,0.218));
#1849=CARTESIAN_POINT('',(0.169254310985676,0.145,0.218));
#1850=CARTESIAN_POINT('',(0.1755,0.145,0.218));
#1851=CARTESIAN_POINT('',(0.1755,0.147032485578728,0.218));
#1852=CARTESIAN_POINT('',(0.1755,0.140786796564404,0.218));
#1853=CARTESIAN_POINT('',(0.169254310985676,0.147032485578728,0.218));
#1854=CARTESIAN_POINT('',(0.16161522368915,0.154671572875254,0.218));
#1855=CARTESIAN_POINT('',(0.16161522368915,0.154671572875254,0.218));
#1856=CARTESIAN_POINT('',(0.164443650813896,0.1575,0.218));
#1857=CARTESIAN_POINT('',(-0.168964466094068,0.1575,0.218));
#1858=CARTESIAN_POINT('',(0.172928932188134,0.1575,0.218));
#1859=CARTESIAN_POINT('',(0.176325378797542,0.154103553390594,0.218));
#1860=CARTESIAN_POINT('',(0.18,0.150428932188135,0.218));
#1861=CARTESIAN_POINT('',(0.18,0.146464466094067,0.218));
#1862=CARTESIAN_POINT('',(0.18,0.1425,0.218));
#1863=CARTESIAN_POINT('',(0.176893398282202,0.139393398282202,0.218));
#1864=CARTESIAN_POINT('',(0.176893398282202,0.139393398282202,0.219));
#1865=CARTESIAN_POINT('',(0.1775,0.14,0.219));
#1866=CARTESIAN_POINT('',(0.18,0.1425,0.22));
#1867=CARTESIAN_POINT('',(-0.168964466094068,0.1575,0.22));
#1868=CARTESIAN_POINT('',(0.105,0.1575,0.22));
#1869=CARTESIAN_POINT('',(0.172928932188134,0.1575,0.22));
#1870=CARTESIAN_POINT('',(0.164443650813896,0.1575,0.22));
#1871=CARTESIAN_POINT('',(0.18,0.146464466094067,0.22));
#1872=CARTESIAN_POINT('',(0.18,0.1425,0.22));
#1873=CARTESIAN_POINT('',(0.18,0.150428932188134,0.22));
#1874=CARTESIAN_POINT('',(0.176464466094067,-0.153964466094067,0.22));
#1875=CARTESIAN_POINT('',(0.18,-0.150428932188134,0.22));
#1876=CARTESIAN_POINT('',(0.172928932188134,-0.1575,0.22));
#1877=CARTESIAN_POINT('',(0.1825,-0.1425,0.22));
#1878=CARTESIAN_POINT('',(0.185,-0.1425,0.22));
#1879=CARTESIAN_POINT('',(0.18,-0.1425,0.22));
#1880=CARTESIAN_POINT('',(0.18,-0.146464466094067,0.22));
#1881=CARTESIAN_POINT('',(0.168964466094068,-0.1575,0.22));
#1882=CARTESIAN_POINT('',(0.165,-0.1575,0.22));
#1883=CARTESIAN_POINT('',(0.165,-0.16,0.22));
#1884=CARTESIAN_POINT('',(0.165,-0.158056349186104,0.22));
#1885=CARTESIAN_POINT('',(0.185,0.,0.02));
#1886=CARTESIAN_POINT('',(0.185,0.1525,0.02));
#1887=CARTESIAN_POINT('',(0.185,0.1425,0.22));
#1888=CARTESIAN_POINT('',(0.185,-0.1525,0.02));
#1889=CARTESIAN_POINT('',(0.175,0.1625,0.02));
#1890=CARTESIAN_POINT('',(0.185,0.1525,0.01));
#1891=CARTESIAN_POINT('',(0.185,-0.1525,0.02));
#1892=CARTESIAN_POINT('',(0.18,-0.1575,0.01));
#1893=CARTESIAN_POINT('',(0.185,0.1525,0.01));
#1894=CARTESIAN_POINT('',(0.175,-0.1525,0.));
#1895=CARTESIAN_POINT('',(0.176464466094067,0.153964466094067,0.22));
#1896=CARTESIAN_POINT('',(0.1825,0.1425,0.22));
#1897=CARTESIAN_POINT('',(0.16161522368915,-0.154671572875254,0.219));
#1898=CARTESIAN_POINT('',(0.16161522368915,-0.154671572875254,0.219));
#1899=CARTESIAN_POINT('',(0.169393398282202,-0.146893398282202,0.12));
#1900=CARTESIAN_POINT('',(0.1755,-0.140786796564404,0.12));
#1901=CARTESIAN_POINT('',(0.16161522368915,0.154671572875254,0.219));
#1902=CARTESIAN_POINT('',(0.16161522368915,0.154671572875254,0.219));
#1903=CARTESIAN_POINT('',(0.169254310985676,0.147032485578728,0.12));
#1904=CARTESIAN_POINT('',(0.1755,0.140786796564404,0.12));
#1905=CARTESIAN_POINT('',(0.172928932188134,0.150428932188134,0.195));
#1906=CARTESIAN_POINT('',(0.172928932188134,-0.150428932188134,0.195));
#1907=CARTESIAN_POINT('',(0.165,0.,0.005));
#1908=CARTESIAN_POINT('',(0.145,0.,0.03));
#1909=CARTESIAN_POINT('',(0.1755,-1.66533453693773E-16,0.317));
#1910=CARTESIAN_POINT('',(0.1755,0.145,0.317));
#1911=CARTESIAN_POINT('',(0.1775,5.55111512312578E-17,0.317));
#1912=CARTESIAN_POINT('',(0.1775,0.145,0.317));
#1913=CARTESIAN_POINT('',(0.1765,0.145,0.317));
#1914=CARTESIAN_POINT('',(0.1755,-1.66533453693773E-16,0.317));
#1915=CARTESIAN_POINT('',(0.1755,-0.145,0.317));
#1916=CARTESIAN_POINT('',(0.1765,-0.145,0.317));
#1917=CARTESIAN_POINT('',(0.1775,-0.145,0.317));
#1918=CARTESIAN_POINT('',(0.1775,5.55111512312578E-17,0.317));
#1919=CARTESIAN_POINT('',(0.1775,5.55111512312578E-17,0.317));
#1920=CARTESIAN_POINT('',(0.1775,0.145,0.317));
#1921=CARTESIAN_POINT('',(0.1775,-0.145,0.317));
#1922=CARTESIAN_POINT('',(0.1755,-1.66533453693773E-16,0.317));
#1923=CARTESIAN_POINT('',(0.1755,-0.145,0.317));
#1924=CARTESIAN_POINT('',(0.1755,0.145,0.317));
#1925=CARTESIAN_POINT('',(0.1765,-0.145,0.317));
#1926=CARTESIAN_POINT('',(0.1765,0.145,0.317));
#1927=CARTESIAN_POINT('',(0.185,9.8375,0.01));
#1928=CARTESIAN_POINT('',(0.11,0.15,0.01));
#1929=CARTESIAN_POINT('',(0.1075,0.15,0.01));
#1930=CARTESIAN_POINT('',(0.11,0.13,0.01));
#1931=CARTESIAN_POINT('',(0.1075,0.13,0.01));
#1932=CARTESIAN_POINT('',(0.11,0.14,0.01));
#1933=CARTESIAN_POINT('',(0.1075,0.14,0.01));
#1934=CARTESIAN_POINT('',(0.115,9.8375,0.01));
#1935=CARTESIAN_POINT('',(0.105,9.8375,0.01));
#1936=CARTESIAN_POINT('',(0.115,9.8375,0.005));
#1937=CARTESIAN_POINT('',(0.115,9.8375,0.005));
#1938=CARTESIAN_POINT('',(0.115,9.8375,0.01));
#1939=CARTESIAN_POINT('',(0.185,9.8375,0.01));
#1940=CARTESIAN_POINT('',(0.11,-0.14,0.01));
#1941=CARTESIAN_POINT('',(0.1075,-0.14,0.01));
#1942=CARTESIAN_POINT('',(0.11,-0.15,0.01));
#1943=CARTESIAN_POINT('',(0.1075,-0.15,0.01));
#1944=CARTESIAN_POINT('',(0.11,-0.13,0.01));
#1945=CARTESIAN_POINT('',(0.1075,-0.13,0.01));
#1946=CARTESIAN_POINT('',(0.105,9.8375,0.01));
#1947=CARTESIAN_POINT('',(0.105,9.8375,0.12));
#1948=CARTESIAN_POINT('',(0.105,9.8375,0.015));
#1949=CARTESIAN_POINT('',(0.11,-0.13,-0.005));
#1950=CARTESIAN_POINT('',(0.11,-0.15,-0.005));
#1951=CARTESIAN_POINT('',(0.11,-0.14,-0.005));
#1952=CARTESIAN_POINT('',(0.11,0.14,-0.005));
#1953=CARTESIAN_POINT('',(0.11,0.13,-0.005));
#1954=CARTESIAN_POINT('',(0.11,0.15,-0.005));
#1955=MECHANICAL_DESIGN_GEOMETRIC_PRESENTATION_REPRESENTATION('',(#1223),
#1956);
#1956=(
GEOMETRIC_REPRESENTATION_CONTEXT(3)
GLOBAL_UNCERTAINTY_ASSIGNED_CONTEXT((#1957))
GLOBAL_UNIT_ASSIGNED_CONTEXT((#1960,#1959,#1958))
REPRESENTATION_CONTEXT('Part 1','TOP_LEVEL_ASSEMBLY_PART')
);
#1957=UNCERTAINTY_MEASURE_WITH_UNIT(LENGTH_MEASURE(1.E-8),#1960,
'DISTANCE_ACCURACY_VALUE','Maximum Tolerance applied to model');
#1958=(
NAMED_UNIT(*)
SI_UNIT($,.STERADIAN.)
SOLID_ANGLE_UNIT()
);
#1959=(
NAMED_UNIT(*)
PLANE_ANGLE_UNIT()
SI_UNIT($,.RADIAN.)
);
#1960=(
LENGTH_UNIT()
NAMED_UNIT(*)
SI_UNIT($,.METRE.)
);
#1961=PRODUCT_DEFINITION_SHAPE('','',#1962);
#1962=PRODUCT_DEFINITION('','',#1964,#1963);
#1963=PRODUCT_DEFINITION_CONTEXT('',#1970,'design');
#1964=PRODUCT_DEFINITION_FORMATION_WITH_SPECIFIED_SOURCE('','',#1966,
 .NOT_KNOWN.);
#1965=PRODUCT_RELATED_PRODUCT_CATEGORY('','',(#1966));
#1966=PRODUCT('Part 1','Part 1','Part 1',(#1968));
#1967=PRODUCT_CATEGORY('','');
#1968=PRODUCT_CONTEXT('',#1970,'mechanical');
#1969=APPLICATION_PROTOCOL_DEFINITION('international standard',
'ap242_managed_model_based_3d_engineering',2020,#1970);
#1970=APPLICATION_CONTEXT('managed model based 3d engineering');
ENDSEC;
END-ISO-10303-21;
