ISO-10303-21;
HEADER;
/* Generated by software containing ST-Developer
 * from STEP Tools, Inc. (www.steptools.com) 
 */
/* OPTION: using custom renumber hook */

FILE_DESCRIPTION(
/* description */ ('STEP AP242 Edition 2',
'CAx-IF Rec.Pracs.---Representation and Presentation of Product Manufa
cturing Information (PMI)---4.0---2014-10-13',
'CAx-IF Rec.Pracs.---3D Tessellated Geometry---0.4---2014-09-14','2;1',
'CAx-IF Rec.Pracs.---User Defined Attributes---1.5---2016-08-15'),
/* implementation_level */ '2;1');

FILE_NAME(
/* name */ 'Cover part 2',
/* time_stamp */ '2026-06-21T04:09:58Z',
/* author */ (''),
/* organization */ (''),
/* preprocessor_version */ 'ST-DEVELOPER v20',
/* originating_system */ 'ONSHAPE BY PTC INC, 1.216',
/* authorisation */ '  ');

FILE_SCHEMA (('AP242_MANAGED_MODEL_BASED_3D_ENGINEERING_MIM_LF { 1 0 10303 442 3 1 4 }'));
ENDSEC;

DATA;
#10=SHAPE_REPRESENTATION_RELATIONSHIP('','',#1547,#11);
#11=ADVANCED_BREP_SHAPE_REPRESENTATION('',(#1545),#2446);
#12=CYLINDRICAL_SURFACE('',#1604,0.0025);
#13=CYLINDRICAL_SURFACE('',#1605,0.0025);
#14=CYLINDRICAL_SURFACE('',#1632,0.0025);
#15=CYLINDRICAL_SURFACE('',#1633,0.0025);
#16=CYLINDRICAL_SURFACE('',#1634,0.0025);
#17=CYLINDRICAL_SURFACE('',#1635,0.0025);
#18=CYLINDRICAL_SURFACE('',#1636,0.0025);
#19=CYLINDRICAL_SURFACE('',#1637,0.0025);
#20=CIRCLE('',#1556,0.0025);
#21=CIRCLE('',#1557,0.0025);
#22=CIRCLE('',#1558,0.0025);
#23=CIRCLE('',#1559,0.0025);
#24=CIRCLE('',#1560,0.0025);
#25=CIRCLE('',#1561,0.0025);
#26=CIRCLE('',#1563,0.0025);
#27=CIRCLE('',#1564,0.0025);
#28=CIRCLE('',#1565,0.0025);
#29=CIRCLE('',#1566,0.0025);
#30=CIRCLE('',#1567,0.0025);
#31=CIRCLE('',#1568,0.0025);
#32=CIRCLE('',#1573,0.0025);
#33=CIRCLE('',#1577,0.0025);
#34=CIRCLE('',#1579,0.0025);
#35=CIRCLE('',#1582,0.0025);
#36=ORIENTED_EDGE('',*,*,#450,.F.);
#37=ORIENTED_EDGE('',*,*,#451,.T.);
#38=ORIENTED_EDGE('',*,*,#452,.T.);
#39=ORIENTED_EDGE('',*,*,#453,.T.);
#40=ORIENTED_EDGE('',*,*,#454,.F.);
#41=ORIENTED_EDGE('',*,*,#455,.T.);
#42=ORIENTED_EDGE('',*,*,#456,.T.);
#43=ORIENTED_EDGE('',*,*,#457,.T.);
#44=ORIENTED_EDGE('',*,*,#458,.F.);
#45=ORIENTED_EDGE('',*,*,#459,.T.);
#46=ORIENTED_EDGE('',*,*,#460,.F.);
#47=ORIENTED_EDGE('',*,*,#461,.T.);
#48=ORIENTED_EDGE('',*,*,#462,.T.);
#49=ORIENTED_EDGE('',*,*,#463,.T.);
#50=ORIENTED_EDGE('',*,*,#464,.F.);
#51=ORIENTED_EDGE('',*,*,#465,.F.);
#52=ORIENTED_EDGE('',*,*,#466,.T.);
#53=ORIENTED_EDGE('',*,*,#467,.T.);
#54=ORIENTED_EDGE('',*,*,#468,.T.);
#55=ORIENTED_EDGE('',*,*,#469,.T.);
#56=ORIENTED_EDGE('',*,*,#470,.F.);
#57=ORIENTED_EDGE('',*,*,#471,.F.);
#58=ORIENTED_EDGE('',*,*,#472,.F.);
#59=ORIENTED_EDGE('',*,*,#473,.F.);
#60=ORIENTED_EDGE('',*,*,#474,.F.);
#61=ORIENTED_EDGE('',*,*,#475,.F.);
#62=ORIENTED_EDGE('',*,*,#476,.T.);
#63=ORIENTED_EDGE('',*,*,#477,.T.);
#64=ORIENTED_EDGE('',*,*,#472,.T.);
#65=ORIENTED_EDGE('',*,*,#478,.T.);
#66=ORIENTED_EDGE('',*,*,#461,.F.);
#67=ORIENTED_EDGE('',*,*,#479,.F.);
#68=ORIENTED_EDGE('',*,*,#453,.F.);
#69=ORIENTED_EDGE('',*,*,#480,.T.);
#70=ORIENTED_EDGE('',*,*,#469,.F.);
#71=ORIENTED_EDGE('',*,*,#481,.F.);
#72=ORIENTED_EDGE('',*,*,#482,.T.);
#73=ORIENTED_EDGE('',*,*,#483,.T.);
#74=ORIENTED_EDGE('',*,*,#484,.T.);
#75=ORIENTED_EDGE('',*,*,#485,.F.);
#76=ORIENTED_EDGE('',*,*,#486,.T.);
#77=ORIENTED_EDGE('',*,*,#487,.T.);
#78=ORIENTED_EDGE('',*,*,#488,.F.);
#79=ORIENTED_EDGE('',*,*,#489,.F.);
#80=ORIENTED_EDGE('',*,*,#490,.T.);
#81=ORIENTED_EDGE('',*,*,#491,.T.);
#82=ORIENTED_EDGE('',*,*,#492,.T.);
#83=ORIENTED_EDGE('',*,*,#493,.F.);
#84=ORIENTED_EDGE('',*,*,#494,.T.);
#85=ORIENTED_EDGE('',*,*,#495,.T.);
#86=ORIENTED_EDGE('',*,*,#496,.F.);
#87=ORIENTED_EDGE('',*,*,#497,.F.);
#88=ORIENTED_EDGE('',*,*,#498,.T.);
#89=ORIENTED_EDGE('',*,*,#499,.T.);
#90=ORIENTED_EDGE('',*,*,#500,.F.);
#91=ORIENTED_EDGE('',*,*,#501,.F.);
#92=ORIENTED_EDGE('',*,*,#502,.T.);
#93=ORIENTED_EDGE('',*,*,#503,.F.);
#94=ORIENTED_EDGE('',*,*,#504,.F.);
#95=ORIENTED_EDGE('',*,*,#505,.F.);
#96=ORIENTED_EDGE('',*,*,#506,.F.);
#97=ORIENTED_EDGE('',*,*,#507,.F.);
#98=ORIENTED_EDGE('',*,*,#508,.F.);
#99=ORIENTED_EDGE('',*,*,#509,.F.);
#100=ORIENTED_EDGE('',*,*,#510,.T.);
#101=ORIENTED_EDGE('',*,*,#511,.T.);
#102=ORIENTED_EDGE('',*,*,#512,.T.);
#103=ORIENTED_EDGE('',*,*,#513,.F.);
#104=ORIENTED_EDGE('',*,*,#514,.F.);
#105=ORIENTED_EDGE('',*,*,#515,.F.);
#106=ORIENTED_EDGE('',*,*,#516,.T.);
#107=ORIENTED_EDGE('',*,*,#517,.T.);
#108=ORIENTED_EDGE('',*,*,#518,.T.);
#109=ORIENTED_EDGE('',*,*,#519,.F.);
#110=ORIENTED_EDGE('',*,*,#520,.F.);
#111=ORIENTED_EDGE('',*,*,#521,.F.);
#112=ORIENTED_EDGE('',*,*,#481,.T.);
#113=ORIENTED_EDGE('',*,*,#468,.F.);
#114=ORIENTED_EDGE('',*,*,#522,.T.);
#115=ORIENTED_EDGE('',*,*,#523,.F.);
#116=ORIENTED_EDGE('',*,*,#524,.F.);
#117=ORIENTED_EDGE('',*,*,#466,.F.);
#118=ORIENTED_EDGE('',*,*,#525,.T.);
#119=ORIENTED_EDGE('',*,*,#475,.T.);
#120=ORIENTED_EDGE('',*,*,#526,.F.);
#121=ORIENTED_EDGE('',*,*,#527,.T.);
#122=ORIENTED_EDGE('',*,*,#528,.T.);
#123=ORIENTED_EDGE('',*,*,#473,.T.);
#124=ORIENTED_EDGE('',*,*,#479,.T.);
#125=ORIENTED_EDGE('',*,*,#529,.T.);
#126=ORIENTED_EDGE('',*,*,#530,.F.);
#127=ORIENTED_EDGE('',*,*,#531,.F.);
#128=ORIENTED_EDGE('',*,*,#532,.F.);
#129=ORIENTED_EDGE('',*,*,#533,.F.);
#130=ORIENTED_EDGE('',*,*,#534,.F.);
#131=ORIENTED_EDGE('',*,*,#535,.F.);
#132=ORIENTED_EDGE('',*,*,#503,.T.);
#133=ORIENTED_EDGE('',*,*,#536,.T.);
#134=ORIENTED_EDGE('',*,*,#519,.T.);
#135=ORIENTED_EDGE('',*,*,#460,.T.);
#136=ORIENTED_EDGE('',*,*,#537,.T.);
#137=ORIENTED_EDGE('',*,*,#538,.T.);
#138=ORIENTED_EDGE('',*,*,#539,.T.);
#139=ORIENTED_EDGE('',*,*,#521,.T.);
#140=ORIENTED_EDGE('',*,*,#540,.F.);
#141=ORIENTED_EDGE('',*,*,#541,.F.);
#142=ORIENTED_EDGE('',*,*,#542,.T.);
#143=ORIENTED_EDGE('',*,*,#454,.T.);
#144=ORIENTED_EDGE('',*,*,#458,.T.);
#145=ORIENTED_EDGE('',*,*,#543,.T.);
#146=ORIENTED_EDGE('',*,*,#477,.F.);
#147=ORIENTED_EDGE('',*,*,#544,.F.);
#148=ORIENTED_EDGE('',*,*,#464,.T.);
#149=ORIENTED_EDGE('',*,*,#545,.T.);
#150=ORIENTED_EDGE('',*,*,#450,.T.);
#151=ORIENTED_EDGE('',*,*,#546,.T.);
#152=ORIENTED_EDGE('',*,*,#547,.T.);
#153=ORIENTED_EDGE('',*,*,#541,.T.);
#154=ORIENTED_EDGE('',*,*,#548,.T.);
#155=ORIENTED_EDGE('',*,*,#549,.T.);
#156=ORIENTED_EDGE('',*,*,#550,.F.);
#157=ORIENTED_EDGE('',*,*,#551,.T.);
#158=ORIENTED_EDGE('',*,*,#552,.T.);
#159=ORIENTED_EDGE('',*,*,#553,.F.);
#160=ORIENTED_EDGE('',*,*,#554,.F.);
#161=ORIENTED_EDGE('',*,*,#555,.T.);
#162=ORIENTED_EDGE('',*,*,#556,.T.);
#163=ORIENTED_EDGE('',*,*,#557,.F.);
#164=ORIENTED_EDGE('',*,*,#558,.F.);
#165=ORIENTED_EDGE('',*,*,#559,.T.);
#166=ORIENTED_EDGE('',*,*,#560,.F.);
#167=ORIENTED_EDGE('',*,*,#501,.T.);
#168=ORIENTED_EDGE('',*,*,#561,.F.);
#169=ORIENTED_EDGE('',*,*,#562,.F.);
#170=ORIENTED_EDGE('',*,*,#563,.F.);
#171=ORIENTED_EDGE('',*,*,#549,.F.);
#172=ORIENTED_EDGE('',*,*,#564,.F.);
#173=ORIENTED_EDGE('',*,*,#474,.T.);
#174=ORIENTED_EDGE('',*,*,#565,.T.);
#175=ORIENTED_EDGE('',*,*,#566,.F.);
#176=ORIENTED_EDGE('',*,*,#567,.F.);
#177=ORIENTED_EDGE('',*,*,#568,.T.);
#178=ORIENTED_EDGE('',*,*,#569,.T.);
#179=ORIENTED_EDGE('',*,*,#570,.T.);
#180=ORIENTED_EDGE('',*,*,#571,.T.);
#181=ORIENTED_EDGE('',*,*,#572,.T.);
#182=ORIENTED_EDGE('',*,*,#538,.F.);
#183=ORIENTED_EDGE('',*,*,#573,.T.);
#184=ORIENTED_EDGE('',*,*,#574,.F.);
#185=ORIENTED_EDGE('',*,*,#575,.T.);
#186=ORIENTED_EDGE('',*,*,#576,.F.);
#187=ORIENTED_EDGE('',*,*,#577,.T.);
#188=ORIENTED_EDGE('',*,*,#578,.F.);
#189=ORIENTED_EDGE('',*,*,#579,.T.);
#190=ORIENTED_EDGE('',*,*,#580,.F.);
#191=ORIENTED_EDGE('',*,*,#581,.F.);
#192=ORIENTED_EDGE('',*,*,#582,.T.);
#193=ORIENTED_EDGE('',*,*,#583,.F.);
#194=ORIENTED_EDGE('',*,*,#584,.T.);
#195=ORIENTED_EDGE('',*,*,#585,.T.);
#196=ORIENTED_EDGE('',*,*,#586,.T.);
#197=ORIENTED_EDGE('',*,*,#587,.T.);
#198=ORIENTED_EDGE('',*,*,#588,.T.);
#199=ORIENTED_EDGE('',*,*,#589,.T.);
#200=ORIENTED_EDGE('',*,*,#590,.F.);
#201=ORIENTED_EDGE('',*,*,#591,.F.);
#202=ORIENTED_EDGE('',*,*,#570,.F.);
#203=ORIENTED_EDGE('',*,*,#592,.T.);
#204=ORIENTED_EDGE('',*,*,#591,.T.);
#205=ORIENTED_EDGE('',*,*,#593,.F.);
#206=ORIENTED_EDGE('',*,*,#594,.F.);
#207=ORIENTED_EDGE('',*,*,#595,.F.);
#208=ORIENTED_EDGE('',*,*,#596,.F.);
#209=ORIENTED_EDGE('',*,*,#597,.T.);
#210=ORIENTED_EDGE('',*,*,#562,.T.);
#211=ORIENTED_EDGE('',*,*,#598,.T.);
#212=ORIENTED_EDGE('',*,*,#599,.F.);
#213=ORIENTED_EDGE('',*,*,#600,.F.);
#214=ORIENTED_EDGE('',*,*,#601,.F.);
#215=ORIENTED_EDGE('',*,*,#602,.T.);
#216=ORIENTED_EDGE('',*,*,#603,.T.);
#217=ORIENTED_EDGE('',*,*,#596,.T.);
#218=ORIENTED_EDGE('',*,*,#604,.T.);
#219=ORIENTED_EDGE('',*,*,#551,.F.);
#220=ORIENTED_EDGE('',*,*,#605,.T.);
#221=ORIENTED_EDGE('',*,*,#606,.F.);
#222=ORIENTED_EDGE('',*,*,#599,.T.);
#223=ORIENTED_EDGE('',*,*,#607,.T.);
#224=ORIENTED_EDGE('',*,*,#511,.F.);
#225=ORIENTED_EDGE('',*,*,#587,.F.);
#226=ORIENTED_EDGE('',*,*,#608,.T.);
#227=ORIENTED_EDGE('',*,*,#506,.T.);
#228=ORIENTED_EDGE('',*,*,#609,.F.);
#229=ORIENTED_EDGE('',*,*,#610,.F.);
#230=ORIENTED_EDGE('',*,*,#575,.F.);
#231=ORIENTED_EDGE('',*,*,#611,.T.);
#232=ORIENTED_EDGE('',*,*,#508,.T.);
#233=ORIENTED_EDGE('',*,*,#612,.F.);
#234=ORIENTED_EDGE('',*,*,#585,.F.);
#235=ORIENTED_EDGE('',*,*,#586,.F.);
#236=ORIENTED_EDGE('',*,*,#612,.T.);
#237=ORIENTED_EDGE('',*,*,#507,.T.);
#238=ORIENTED_EDGE('',*,*,#608,.F.);
#239=ORIENTED_EDGE('',*,*,#588,.F.);
#240=ORIENTED_EDGE('',*,*,#609,.T.);
#241=ORIENTED_EDGE('',*,*,#505,.T.);
#242=ORIENTED_EDGE('',*,*,#613,.F.);
#243=ORIENTED_EDGE('',*,*,#589,.F.);
#244=ORIENTED_EDGE('',*,*,#613,.T.);
#245=ORIENTED_EDGE('',*,*,#504,.T.);
#246=ORIENTED_EDGE('',*,*,#539,.F.);
#247=ORIENTED_EDGE('',*,*,#572,.F.);
#248=ORIENTED_EDGE('',*,*,#614,.T.);
#249=ORIENTED_EDGE('',*,*,#615,.T.);
#250=ORIENTED_EDGE('',*,*,#558,.T.);
#251=ORIENTED_EDGE('',*,*,#616,.T.);
#252=ORIENTED_EDGE('',*,*,#509,.T.);
#253=ORIENTED_EDGE('',*,*,#611,.F.);
#254=ORIENTED_EDGE('',*,*,#574,.T.);
#255=ORIENTED_EDGE('',*,*,#617,.T.);
#256=ORIENTED_EDGE('',*,*,#618,.T.);
#257=ORIENTED_EDGE('',*,*,#542,.F.);
#258=ORIENTED_EDGE('',*,*,#559,.F.);
#259=ORIENTED_EDGE('',*,*,#615,.F.);
#260=ORIENTED_EDGE('',*,*,#619,.F.);
#261=ORIENTED_EDGE('',*,*,#617,.F.);
#262=ORIENTED_EDGE('',*,*,#573,.F.);
#263=ORIENTED_EDGE('',*,*,#537,.F.);
#264=ORIENTED_EDGE('',*,*,#620,.F.);
#265=ORIENTED_EDGE('',*,*,#621,.F.);
#266=ORIENTED_EDGE('',*,*,#618,.F.);
#267=ORIENTED_EDGE('',*,*,#622,.F.);
#268=ORIENTED_EDGE('',*,*,#546,.F.);
#269=ORIENTED_EDGE('',*,*,#619,.T.);
#270=ORIENTED_EDGE('',*,*,#621,.T.);
#271=ORIENTED_EDGE('',*,*,#455,.F.);
#272=ORIENTED_EDGE('',*,*,#622,.T.);
#273=ORIENTED_EDGE('',*,*,#620,.T.);
#274=ORIENTED_EDGE('',*,*,#459,.F.);
#275=ORIENTED_EDGE('',*,*,#598,.F.);
#276=ORIENTED_EDGE('',*,*,#561,.T.);
#277=ORIENTED_EDGE('',*,*,#512,.F.);
#278=ORIENTED_EDGE('',*,*,#607,.F.);
#279=ORIENTED_EDGE('',*,*,#510,.F.);
#280=ORIENTED_EDGE('',*,*,#616,.F.);
#281=ORIENTED_EDGE('',*,*,#557,.T.);
#282=ORIENTED_EDGE('',*,*,#623,.T.);
#283=ORIENTED_EDGE('',*,*,#606,.T.);
#284=ORIENTED_EDGE('',*,*,#576,.T.);
#285=ORIENTED_EDGE('',*,*,#610,.T.);
#286=ORIENTED_EDGE('',*,*,#584,.F.);
#287=ORIENTED_EDGE('',*,*,#624,.F.);
#288=ORIENTED_EDGE('',*,*,#614,.F.);
#289=ORIENTED_EDGE('',*,*,#571,.F.);
#290=ORIENTED_EDGE('',*,*,#593,.T.);
#291=ORIENTED_EDGE('',*,*,#590,.T.);
#292=ORIENTED_EDGE('',*,*,#625,.F.);
#293=ORIENTED_EDGE('',*,*,#577,.F.);
#294=ORIENTED_EDGE('',*,*,#624,.T.);
#295=ORIENTED_EDGE('',*,*,#583,.T.);
#296=ORIENTED_EDGE('',*,*,#550,.T.);
#297=ORIENTED_EDGE('',*,*,#563,.T.);
#298=ORIENTED_EDGE('',*,*,#597,.F.);
#299=ORIENTED_EDGE('',*,*,#605,.F.);
#300=ORIENTED_EDGE('',*,*,#600,.T.);
#301=ORIENTED_EDGE('',*,*,#623,.F.);
#302=ORIENTED_EDGE('',*,*,#556,.F.);
#303=ORIENTED_EDGE('',*,*,#626,.T.);
#304=ORIENTED_EDGE('',*,*,#627,.F.);
#305=ORIENTED_EDGE('',*,*,#601,.T.);
#306=ORIENTED_EDGE('',*,*,#626,.F.);
#307=ORIENTED_EDGE('',*,*,#555,.F.);
#308=ORIENTED_EDGE('',*,*,#547,.F.);
#309=ORIENTED_EDGE('',*,*,#594,.T.);
#310=ORIENTED_EDGE('',*,*,#567,.T.);
#311=ORIENTED_EDGE('',*,*,#579,.F.);
#312=ORIENTED_EDGE('',*,*,#486,.F.);
#313=ORIENTED_EDGE('',*,*,#628,.F.);
#314=ORIENTED_EDGE('',*,*,#629,.T.);
#315=ORIENTED_EDGE('',*,*,#630,.T.);
#316=ORIENTED_EDGE('',*,*,#485,.T.);
#317=ORIENTED_EDGE('',*,*,#631,.F.);
#318=ORIENTED_EDGE('',*,*,#632,.F.);
#319=ORIENTED_EDGE('',*,*,#628,.T.);
#320=ORIENTED_EDGE('',*,*,#488,.T.);
#321=ORIENTED_EDGE('',*,*,#633,.F.);
#322=ORIENTED_EDGE('',*,*,#634,.F.);
#323=ORIENTED_EDGE('',*,*,#631,.T.);
#324=ORIENTED_EDGE('',*,*,#487,.F.);
#325=ORIENTED_EDGE('',*,*,#630,.F.);
#326=ORIENTED_EDGE('',*,*,#635,.T.);
#327=ORIENTED_EDGE('',*,*,#633,.T.);
#328=ORIENTED_EDGE('',*,*,#629,.F.);
#329=ORIENTED_EDGE('',*,*,#632,.T.);
#330=ORIENTED_EDGE('',*,*,#634,.T.);
#331=ORIENTED_EDGE('',*,*,#635,.F.);
#332=ORIENTED_EDGE('',*,*,#604,.F.);
#333=ORIENTED_EDGE('',*,*,#595,.T.);
#334=ORIENTED_EDGE('',*,*,#636,.F.);
#335=ORIENTED_EDGE('',*,*,#552,.F.);
#336=ORIENTED_EDGE('',*,*,#554,.T.);
#337=ORIENTED_EDGE('',*,*,#637,.T.);
#338=ORIENTED_EDGE('',*,*,#602,.F.);
#339=ORIENTED_EDGE('',*,*,#627,.T.);
#340=ORIENTED_EDGE('',*,*,#553,.T.);
#341=ORIENTED_EDGE('',*,*,#636,.T.);
#342=ORIENTED_EDGE('',*,*,#603,.F.);
#343=ORIENTED_EDGE('',*,*,#637,.F.);
#344=ORIENTED_EDGE('',*,*,#638,.T.);
#345=ORIENTED_EDGE('',*,*,#581,.T.);
#346=ORIENTED_EDGE('',*,*,#639,.F.);
#347=ORIENTED_EDGE('',*,*,#568,.F.);
#348=ORIENTED_EDGE('',*,*,#639,.T.);
#349=ORIENTED_EDGE('',*,*,#580,.T.);
#350=ORIENTED_EDGE('',*,*,#592,.F.);
#351=ORIENTED_EDGE('',*,*,#569,.F.);
#352=ORIENTED_EDGE('',*,*,#578,.T.);
#353=ORIENTED_EDGE('',*,*,#625,.T.);
#354=ORIENTED_EDGE('',*,*,#582,.F.);
#355=ORIENTED_EDGE('',*,*,#638,.F.);
#356=ORIENTED_EDGE('',*,*,#490,.F.);
#357=ORIENTED_EDGE('',*,*,#640,.F.);
#358=ORIENTED_EDGE('',*,*,#532,.T.);
#359=ORIENTED_EDGE('',*,*,#641,.T.);
#360=ORIENTED_EDGE('',*,*,#489,.T.);
#361=ORIENTED_EDGE('',*,*,#642,.F.);
#362=ORIENTED_EDGE('',*,*,#529,.F.);
#363=ORIENTED_EDGE('',*,*,#640,.T.);
#364=ORIENTED_EDGE('',*,*,#492,.F.);
#365=ORIENTED_EDGE('',*,*,#643,.F.);
#366=ORIENTED_EDGE('',*,*,#530,.T.);
#367=ORIENTED_EDGE('',*,*,#642,.T.);
#368=ORIENTED_EDGE('',*,*,#491,.F.);
#369=ORIENTED_EDGE('',*,*,#641,.F.);
#370=ORIENTED_EDGE('',*,*,#531,.T.);
#371=ORIENTED_EDGE('',*,*,#643,.T.);
#372=ORIENTED_EDGE('',*,*,#494,.F.);
#373=ORIENTED_EDGE('',*,*,#644,.F.);
#374=ORIENTED_EDGE('',*,*,#645,.T.);
#375=ORIENTED_EDGE('',*,*,#524,.T.);
#376=ORIENTED_EDGE('',*,*,#646,.T.);
#377=ORIENTED_EDGE('',*,*,#493,.T.);
#378=ORIENTED_EDGE('',*,*,#647,.F.);
#379=ORIENTED_EDGE('',*,*,#648,.F.);
#380=ORIENTED_EDGE('',*,*,#644,.T.);
#381=ORIENTED_EDGE('',*,*,#496,.T.);
#382=ORIENTED_EDGE('',*,*,#649,.F.);
#383=ORIENTED_EDGE('',*,*,#522,.F.);
#384=ORIENTED_EDGE('',*,*,#650,.F.);
#385=ORIENTED_EDGE('',*,*,#647,.T.);
#386=ORIENTED_EDGE('',*,*,#495,.F.);
#387=ORIENTED_EDGE('',*,*,#646,.F.);
#388=ORIENTED_EDGE('',*,*,#523,.T.);
#389=ORIENTED_EDGE('',*,*,#649,.T.);
#390=ORIENTED_EDGE('',*,*,#467,.F.);
#391=ORIENTED_EDGE('',*,*,#645,.F.);
#392=ORIENTED_EDGE('',*,*,#648,.T.);
#393=ORIENTED_EDGE('',*,*,#650,.T.);
#394=ORIENTED_EDGE('',*,*,#498,.F.);
#395=ORIENTED_EDGE('',*,*,#651,.F.);
#396=ORIENTED_EDGE('',*,*,#526,.T.);
#397=ORIENTED_EDGE('',*,*,#564,.T.);
#398=ORIENTED_EDGE('',*,*,#652,.T.);
#399=ORIENTED_EDGE('',*,*,#497,.T.);
#400=ORIENTED_EDGE('',*,*,#653,.F.);
#401=ORIENTED_EDGE('',*,*,#527,.F.);
#402=ORIENTED_EDGE('',*,*,#651,.T.);
#403=ORIENTED_EDGE('',*,*,#500,.T.);
#404=ORIENTED_EDGE('',*,*,#654,.F.);
#405=ORIENTED_EDGE('',*,*,#565,.F.);
#406=ORIENTED_EDGE('',*,*,#528,.F.);
#407=ORIENTED_EDGE('',*,*,#653,.T.);
#408=ORIENTED_EDGE('',*,*,#499,.F.);
#409=ORIENTED_EDGE('',*,*,#652,.F.);
#410=ORIENTED_EDGE('',*,*,#566,.T.);
#411=ORIENTED_EDGE('',*,*,#654,.T.);
#412=ORIENTED_EDGE('',*,*,#544,.T.);
#413=ORIENTED_EDGE('',*,*,#476,.F.);
#414=ORIENTED_EDGE('',*,*,#525,.F.);
#415=ORIENTED_EDGE('',*,*,#465,.T.);
#416=ORIENTED_EDGE('',*,*,#540,.T.);
#417=ORIENTED_EDGE('',*,*,#520,.T.);
#418=ORIENTED_EDGE('',*,*,#536,.F.);
#419=ORIENTED_EDGE('',*,*,#502,.F.);
#420=ORIENTED_EDGE('',*,*,#560,.T.);
#421=ORIENTED_EDGE('',*,*,#548,.F.);
#422=ORIENTED_EDGE('',*,*,#518,.F.);
#423=ORIENTED_EDGE('',*,*,#484,.F.);
#424=ORIENTED_EDGE('',*,*,#517,.F.);
#425=ORIENTED_EDGE('',*,*,#483,.F.);
#426=ORIENTED_EDGE('',*,*,#516,.F.);
#427=ORIENTED_EDGE('',*,*,#482,.F.);
#428=ORIENTED_EDGE('',*,*,#533,.T.);
#429=ORIENTED_EDGE('',*,*,#513,.T.);
#430=ORIENTED_EDGE('',*,*,#534,.T.);
#431=ORIENTED_EDGE('',*,*,#514,.T.);
#432=ORIENTED_EDGE('',*,*,#535,.T.);
#433=ORIENTED_EDGE('',*,*,#515,.T.);
#434=ORIENTED_EDGE('',*,*,#655,.F.);
#435=ORIENTED_EDGE('',*,*,#462,.F.);
#436=ORIENTED_EDGE('',*,*,#480,.F.);
#437=ORIENTED_EDGE('',*,*,#452,.F.);
#438=ORIENTED_EDGE('',*,*,#545,.F.);
#439=ORIENTED_EDGE('',*,*,#463,.F.);
#440=ORIENTED_EDGE('',*,*,#655,.T.);
#441=ORIENTED_EDGE('',*,*,#451,.F.);
#442=ORIENTED_EDGE('',*,*,#656,.T.);
#443=ORIENTED_EDGE('',*,*,#470,.T.);
#444=ORIENTED_EDGE('',*,*,#543,.F.);
#445=ORIENTED_EDGE('',*,*,#457,.F.);
#446=ORIENTED_EDGE('',*,*,#478,.F.);
#447=ORIENTED_EDGE('',*,*,#471,.T.);
#448=ORIENTED_EDGE('',*,*,#656,.F.);
#449=ORIENTED_EDGE('',*,*,#456,.F.);
#450=EDGE_CURVE('',#657,#658,#796,.T.);
#451=EDGE_CURVE('',#657,#659,#797,.F.);
#452=EDGE_CURVE('',#659,#660,#798,.F.);
#453=EDGE_CURVE('',#660,#661,#799,.F.);
#454=EDGE_CURVE('',#662,#661,#800,.T.);
#455=EDGE_CURVE('',#662,#658,#801,.T.);
#456=EDGE_CURVE('',#663,#664,#802,.T.);
#457=EDGE_CURVE('',#664,#665,#803,.T.);
#458=EDGE_CURVE('',#666,#665,#804,.T.);
#459=EDGE_CURVE('',#666,#667,#805,.F.);
#460=EDGE_CURVE('',#668,#667,#806,.T.);
#461=EDGE_CURVE('',#668,#663,#807,.T.);
#462=EDGE_CURVE('',#669,#670,#808,.T.);
#463=EDGE_CURVE('',#670,#671,#809,.T.);
#464=EDGE_CURVE('',#672,#671,#810,.T.);
#465=EDGE_CURVE('',#673,#672,#811,.T.);
#466=EDGE_CURVE('',#673,#674,#812,.T.);
#467=EDGE_CURVE('',#674,#675,#813,.T.);
#468=EDGE_CURVE('',#675,#676,#814,.T.);
#469=EDGE_CURVE('',#676,#669,#815,.T.);
#470=EDGE_CURVE('',#677,#678,#816,.T.);
#471=EDGE_CURVE('',#679,#677,#817,.T.);
#472=EDGE_CURVE('',#680,#679,#818,.T.);
#473=EDGE_CURVE('',#681,#680,#819,.T.);
#474=EDGE_CURVE('',#682,#681,#820,.T.);
#475=EDGE_CURVE('',#683,#682,#821,.T.);
#476=EDGE_CURVE('',#683,#684,#822,.T.);
#477=EDGE_CURVE('',#684,#678,#823,.T.);
#478=EDGE_CURVE('',#679,#663,#824,.T.);
#479=EDGE_CURVE('',#680,#668,#825,.T.);
#480=EDGE_CURVE('',#660,#669,#826,.T.);
#481=EDGE_CURVE('',#661,#676,#827,.T.);
#482=EDGE_CURVE('',#685,#685,#20,.T.);
#483=EDGE_CURVE('',#686,#686,#21,.T.);
#484=EDGE_CURVE('',#687,#687,#22,.T.);
#485=EDGE_CURVE('',#688,#689,#828,.T.);
#486=EDGE_CURVE('',#688,#690,#829,.T.);
#487=EDGE_CURVE('',#690,#691,#830,.T.);
#488=EDGE_CURVE('',#689,#691,#831,.T.);
#489=EDGE_CURVE('',#692,#693,#832,.T.);
#490=EDGE_CURVE('',#692,#694,#833,.T.);
#491=EDGE_CURVE('',#694,#695,#834,.T.);
#492=EDGE_CURVE('',#695,#693,#835,.T.);
#493=EDGE_CURVE('',#696,#697,#836,.T.);
#494=EDGE_CURVE('',#696,#698,#837,.T.);
#495=EDGE_CURVE('',#698,#699,#838,.T.);
#496=EDGE_CURVE('',#697,#699,#839,.T.);
#497=EDGE_CURVE('',#700,#701,#840,.T.);
#498=EDGE_CURVE('',#700,#702,#841,.T.);
#499=EDGE_CURVE('',#702,#703,#842,.T.);
#500=EDGE_CURVE('',#701,#703,#843,.T.);
#501=EDGE_CURVE('',#704,#705,#844,.T.);
#502=EDGE_CURVE('',#704,#706,#845,.T.);
#503=EDGE_CURVE('',#707,#706,#846,.T.);
#504=EDGE_CURVE('',#708,#707,#847,.T.);
#505=EDGE_CURVE('',#709,#708,#848,.T.);
#506=EDGE_CURVE('',#710,#709,#849,.T.);
#507=EDGE_CURVE('',#711,#710,#850,.T.);
#508=EDGE_CURVE('',#712,#711,#851,.T.);
#509=EDGE_CURVE('',#713,#712,#852,.T.);
#510=EDGE_CURVE('',#713,#714,#853,.T.);
#511=EDGE_CURVE('',#714,#715,#854,.T.);
#512=EDGE_CURVE('',#715,#705,#855,.T.);
#513=EDGE_CURVE('',#716,#716,#23,.T.);
#514=EDGE_CURVE('',#717,#717,#24,.T.);
#515=EDGE_CURVE('',#718,#718,#25,.T.);
#516=EDGE_CURVE('',#719,#719,#26,.F.);
#517=EDGE_CURVE('',#720,#720,#27,.F.);
#518=EDGE_CURVE('',#721,#721,#28,.F.);
#519=EDGE_CURVE('',#722,#668,#856,.T.);
#520=EDGE_CURVE('',#723,#722,#857,.T.);
#521=EDGE_CURVE('',#661,#723,#858,.T.);
#522=EDGE_CURVE('',#675,#724,#859,.T.);
#523=EDGE_CURVE('',#725,#724,#860,.T.);
#524=EDGE_CURVE('',#674,#725,#861,.T.);
#525=EDGE_CURVE('',#673,#683,#862,.T.);
#526=EDGE_CURVE('',#726,#682,#863,.T.);
#527=EDGE_CURVE('',#726,#727,#864,.T.);
#528=EDGE_CURVE('',#727,#681,#865,.T.);
#529=EDGE_CURVE('',#728,#729,#866,.T.);
#530=EDGE_CURVE('',#730,#729,#867,.T.);
#531=EDGE_CURVE('',#731,#730,#868,.T.);
#532=EDGE_CURVE('',#728,#731,#869,.T.);
#533=EDGE_CURVE('',#732,#732,#29,.T.);
#534=EDGE_CURVE('',#733,#733,#30,.T.);
#535=EDGE_CURVE('',#734,#734,#31,.T.);
#536=EDGE_CURVE('',#706,#722,#870,.T.);
#537=EDGE_CURVE('',#667,#735,#871,.T.);
#538=EDGE_CURVE('',#735,#736,#872,.T.);
#539=EDGE_CURVE('',#736,#707,#873,.T.);
#540=EDGE_CURVE('',#737,#723,#874,.T.);
#541=EDGE_CURVE('',#738,#737,#875,.T.);
#542=EDGE_CURVE('',#738,#662,#876,.T.);
#543=EDGE_CURVE('',#665,#678,#877,.T.);
#544=EDGE_CURVE('',#672,#684,#878,.T.);
#545=EDGE_CURVE('',#671,#657,#879,.T.);
#546=EDGE_CURVE('',#658,#666,#880,.T.);
#547=EDGE_CURVE('',#739,#739,#32,.T.);
#548=EDGE_CURVE('',#737,#740,#881,.T.);
#549=EDGE_CURVE('',#740,#741,#882,.T.);
#550=EDGE_CURVE('',#742,#741,#883,.T.);
#551=EDGE_CURVE('',#742,#743,#884,.T.);
#552=EDGE_CURVE('',#743,#744,#885,.T.);
#553=EDGE_CURVE('',#745,#744,#886,.T.);
#554=EDGE_CURVE('',#746,#745,#887,.T.);
#555=EDGE_CURVE('',#746,#747,#888,.T.);
#556=EDGE_CURVE('',#747,#748,#889,.T.);
#557=EDGE_CURVE('',#749,#748,#890,.T.);
#558=EDGE_CURVE('',#750,#749,#891,.T.);
#559=EDGE_CURVE('',#750,#738,#892,.T.);
#560=EDGE_CURVE('',#704,#740,#893,.T.);
#561=EDGE_CURVE('',#751,#705,#894,.T.);
#562=EDGE_CURVE('',#752,#751,#895,.T.);
#563=EDGE_CURVE('',#741,#752,#896,.T.);
#564=EDGE_CURVE('',#682,#753,#897,.T.);
#565=EDGE_CURVE('',#681,#754,#898,.T.);
#566=EDGE_CURVE('',#753,#754,#899,.T.);
#567=EDGE_CURVE('',#755,#755,#33,.T.);
#568=EDGE_CURVE('',#756,#757,#900,.T.);
#569=EDGE_CURVE('',#757,#758,#901,.T.);
#570=EDGE_CURVE('',#758,#759,#902,.T.);
#571=EDGE_CURVE('',#759,#760,#903,.T.);
#572=EDGE_CURVE('',#760,#736,#904,.T.);
#573=EDGE_CURVE('',#735,#761,#905,.F.);
#574=EDGE_CURVE('',#762,#761,#906,.T.);
#575=EDGE_CURVE('',#762,#763,#907,.T.);
#576=EDGE_CURVE('',#764,#763,#908,.T.);
#577=EDGE_CURVE('',#764,#765,#909,.T.);
#578=EDGE_CURVE('',#756,#765,#910,.T.);
#579=EDGE_CURVE('',#766,#766,#34,.T.);
#580=EDGE_CURVE('',#767,#768,#911,.T.);
#581=EDGE_CURVE('',#769,#767,#912,.T.);
#582=EDGE_CURVE('',#769,#770,#913,.T.);
#583=EDGE_CURVE('',#771,#770,#914,.T.);
#584=EDGE_CURVE('',#771,#772,#915,.T.);
#585=EDGE_CURVE('',#772,#773,#916,.T.);
#586=EDGE_CURVE('',#773,#774,#917,.T.);
#587=EDGE_CURVE('',#774,#775,#918,.T.);
#588=EDGE_CURVE('',#775,#776,#919,.T.);
#589=EDGE_CURVE('',#776,#777,#920,.T.);
#590=EDGE_CURVE('',#778,#777,#921,.T.);
#591=EDGE_CURVE('',#768,#778,#922,.T.);
#592=EDGE_CURVE('',#758,#768,#923,.T.);
#593=EDGE_CURVE('',#759,#778,#924,.T.);
#594=EDGE_CURVE('',#779,#779,#35,.F.);
#595=EDGE_CURVE('',#780,#781,#925,.T.);
#596=EDGE_CURVE('',#782,#780,#926,.T.);
#597=EDGE_CURVE('',#782,#752,#927,.T.);
#598=EDGE_CURVE('',#751,#783,#928,.T.);
#599=EDGE_CURVE('',#784,#783,#929,.T.);
#600=EDGE_CURVE('',#785,#784,#930,.T.);
#601=EDGE_CURVE('',#786,#785,#931,.T.);
#602=EDGE_CURVE('',#786,#787,#932,.T.);
#603=EDGE_CURVE('',#787,#781,#933,.T.);
#604=EDGE_CURVE('',#780,#743,#934,.T.);
#605=EDGE_CURVE('',#742,#782,#935,.T.);
#606=EDGE_CURVE('',#784,#714,#936,.T.);
#607=EDGE_CURVE('',#783,#715,#937,.T.);
#608=EDGE_CURVE('',#774,#710,#938,.T.);
#609=EDGE_CURVE('',#775,#709,#939,.T.);
#610=EDGE_CURVE('',#763,#772,#940,.T.);
#611=EDGE_CURVE('',#762,#712,#941,.T.);
#612=EDGE_CURVE('',#773,#711,#942,.T.);
#613=EDGE_CURVE('',#776,#708,#943,.T.);
#614=EDGE_CURVE('',#760,#777,#944,.T.);
#615=EDGE_CURVE('',#788,#750,#945,.T.);
#616=EDGE_CURVE('',#749,#713,#946,.T.);
#617=EDGE_CURVE('',#761,#789,#947,.T.);
#618=EDGE_CURVE('',#789,#788,#948,.T.);
#619=EDGE_CURVE('',#662,#788,#949,.T.);
#620=EDGE_CURVE('',#789,#667,#950,.F.);
#621=EDGE_CURVE('',#788,#658,#951,.T.);
#622=EDGE_CURVE('',#666,#789,#952,.T.);
#623=EDGE_CURVE('',#748,#784,#953,.T.);
#624=EDGE_CURVE('',#764,#771,#954,.T.);
#625=EDGE_CURVE('',#765,#770,#955,.T.);
#626=EDGE_CURVE('',#747,#785,#956,.T.);
#627=EDGE_CURVE('',#786,#746,#957,.T.);
#628=EDGE_CURVE('',#790,#688,#958,.T.);
#629=EDGE_CURVE('',#790,#791,#959,.T.);
#630=EDGE_CURVE('',#791,#690,#960,.T.);
#631=EDGE_CURVE('',#792,#689,#961,.T.);
#632=EDGE_CURVE('',#790,#792,#962,.T.);
#633=EDGE_CURVE('',#793,#691,#963,.T.);
#634=EDGE_CURVE('',#792,#793,#964,.T.);
#635=EDGE_CURVE('',#791,#793,#965,.T.);
#636=EDGE_CURVE('',#744,#781,#966,.T.);
#637=EDGE_CURVE('',#745,#787,#967,.T.);
#638=EDGE_CURVE('',#756,#769,#968,.T.);
#639=EDGE_CURVE('',#757,#767,#969,.T.);
#640=EDGE_CURVE('',#728,#692,#970,.T.);
#641=EDGE_CURVE('',#731,#694,#971,.T.);
#642=EDGE_CURVE('',#729,#693,#972,.T.);
#643=EDGE_CURVE('',#730,#695,#973,.T.);
#644=EDGE_CURVE('',#794,#696,#974,.T.);
#645=EDGE_CURVE('',#794,#674,#975,.T.);
#646=EDGE_CURVE('',#725,#698,#976,.T.);
#647=EDGE_CURVE('',#795,#697,#977,.T.);
#648=EDGE_CURVE('',#794,#795,#978,.T.);
#649=EDGE_CURVE('',#724,#699,#979,.T.);
#650=EDGE_CURVE('',#795,#675,#980,.T.);
#651=EDGE_CURVE('',#726,#700,#981,.T.);
#652=EDGE_CURVE('',#753,#702,#982,.T.);
#653=EDGE_CURVE('',#727,#701,#983,.T.);
#654=EDGE_CURVE('',#754,#703,#984,.T.);
#655=EDGE_CURVE('',#670,#659,#985,.T.);
#656=EDGE_CURVE('',#664,#677,#986,.T.);
#657=VERTEX_POINT('',#2024);
#658=VERTEX_POINT('',#2025);
#659=VERTEX_POINT('',#2027);
#660=VERTEX_POINT('',#2029);
#661=VERTEX_POINT('',#2031);
#662=VERTEX_POINT('',#2033);
#663=VERTEX_POINT('',#2037);
#664=VERTEX_POINT('',#2038);
#665=VERTEX_POINT('',#2040);
#666=VERTEX_POINT('',#2042);
#667=VERTEX_POINT('',#2044);
#668=VERTEX_POINT('',#2046);
#669=VERTEX_POINT('',#2050);
#670=VERTEX_POINT('',#2051);
#671=VERTEX_POINT('',#2053);
#672=VERTEX_POINT('',#2055);
#673=VERTEX_POINT('',#2057);
#674=VERTEX_POINT('',#2059);
#675=VERTEX_POINT('',#2061);
#676=VERTEX_POINT('',#2063);
#677=VERTEX_POINT('',#2067);
#678=VERTEX_POINT('',#2068);
#679=VERTEX_POINT('',#2070);
#680=VERTEX_POINT('',#2072);
#681=VERTEX_POINT('',#2074);
#682=VERTEX_POINT('',#2076);
#683=VERTEX_POINT('',#2078);
#684=VERTEX_POINT('',#2080);
#685=VERTEX_POINT('',#2090);
#686=VERTEX_POINT('',#2092);
#687=VERTEX_POINT('',#2094);
#688=VERTEX_POINT('',#2096);
#689=VERTEX_POINT('',#2097);
#690=VERTEX_POINT('',#2099);
#691=VERTEX_POINT('',#2101);
#692=VERTEX_POINT('',#2104);
#693=VERTEX_POINT('',#2105);
#694=VERTEX_POINT('',#2107);
#695=VERTEX_POINT('',#2109);
#696=VERTEX_POINT('',#2112);
#697=VERTEX_POINT('',#2113);
#698=VERTEX_POINT('',#2115);
#699=VERTEX_POINT('',#2117);
#700=VERTEX_POINT('',#2120);
#701=VERTEX_POINT('',#2121);
#702=VERTEX_POINT('',#2123);
#703=VERTEX_POINT('',#2125);
#704=VERTEX_POINT('',#2128);
#705=VERTEX_POINT('',#2129);
#706=VERTEX_POINT('',#2131);
#707=VERTEX_POINT('',#2133);
#708=VERTEX_POINT('',#2135);
#709=VERTEX_POINT('',#2137);
#710=VERTEX_POINT('',#2139);
#711=VERTEX_POINT('',#2141);
#712=VERTEX_POINT('',#2143);
#713=VERTEX_POINT('',#2145);
#714=VERTEX_POINT('',#2147);
#715=VERTEX_POINT('',#2149);
#716=VERTEX_POINT('',#2152);
#717=VERTEX_POINT('',#2154);
#718=VERTEX_POINT('',#2156);
#719=VERTEX_POINT('',#2159);
#720=VERTEX_POINT('',#2161);
#721=VERTEX_POINT('',#2163);
#722=VERTEX_POINT('',#2165);
#723=VERTEX_POINT('',#2167);
#724=VERTEX_POINT('',#2170);
#725=VERTEX_POINT('',#2172);
#726=VERTEX_POINT('',#2176);
#727=VERTEX_POINT('',#2178);
#728=VERTEX_POINT('',#2181);
#729=VERTEX_POINT('',#2182);
#730=VERTEX_POINT('',#2184);
#731=VERTEX_POINT('',#2186);
#732=VERTEX_POINT('',#2189);
#733=VERTEX_POINT('',#2191);
#734=VERTEX_POINT('',#2193);
#735=VERTEX_POINT('',#2197);
#736=VERTEX_POINT('',#2199);
#737=VERTEX_POINT('',#2203);
#738=VERTEX_POINT('',#2205);
#739=VERTEX_POINT('',#2214);
#740=VERTEX_POINT('',#2216);
#741=VERTEX_POINT('',#2218);
#742=VERTEX_POINT('',#2220);
#743=VERTEX_POINT('',#2222);
#744=VERTEX_POINT('',#2224);
#745=VERTEX_POINT('',#2226);
#746=VERTEX_POINT('',#2228);
#747=VERTEX_POINT('',#2230);
#748=VERTEX_POINT('',#2232);
#749=VERTEX_POINT('',#2234);
#750=VERTEX_POINT('',#2236);
#751=VERTEX_POINT('',#2241);
#752=VERTEX_POINT('',#2243);
#753=VERTEX_POINT('',#2247);
#754=VERTEX_POINT('',#2249);
#755=VERTEX_POINT('',#2253);
#756=VERTEX_POINT('',#2255);
#757=VERTEX_POINT('',#2256);
#758=VERTEX_POINT('',#2258);
#759=VERTEX_POINT('',#2260);
#760=VERTEX_POINT('',#2262);
#761=VERTEX_POINT('',#2265);
#762=VERTEX_POINT('',#2267);
#763=VERTEX_POINT('',#2269);
#764=VERTEX_POINT('',#2271);
#765=VERTEX_POINT('',#2273);
#766=VERTEX_POINT('',#2277);
#767=VERTEX_POINT('',#2279);
#768=VERTEX_POINT('',#2280);
#769=VERTEX_POINT('',#2282);
#770=VERTEX_POINT('',#2284);
#771=VERTEX_POINT('',#2286);
#772=VERTEX_POINT('',#2288);
#773=VERTEX_POINT('',#2290);
#774=VERTEX_POINT('',#2292);
#775=VERTEX_POINT('',#2294);
#776=VERTEX_POINT('',#2296);
#777=VERTEX_POINT('',#2298);
#778=VERTEX_POINT('',#2300);
#779=VERTEX_POINT('',#2307);
#780=VERTEX_POINT('',#2309);
#781=VERTEX_POINT('',#2310);
#782=VERTEX_POINT('',#2312);
#783=VERTEX_POINT('',#2315);
#784=VERTEX_POINT('',#2317);
#785=VERTEX_POINT('',#2319);
#786=VERTEX_POINT('',#2321);
#787=VERTEX_POINT('',#2323);
#788=VERTEX_POINT('',#2345);
#789=VERTEX_POINT('',#2348);
#790=VERTEX_POINT('',#2376);
#791=VERTEX_POINT('',#2378);
#792=VERTEX_POINT('',#2382);
#793=VERTEX_POINT('',#2386);
#794=VERTEX_POINT('',#2411);
#795=VERTEX_POINT('',#2416);
#796=LINE('',#2023,#987);
#797=LINE('',#2026,#988);
#798=LINE('',#2028,#989);
#799=LINE('',#2030,#990);
#800=LINE('',#2032,#991);
#801=LINE('',#2034,#992);
#802=LINE('',#2036,#993);
#803=LINE('',#2039,#994);
#804=LINE('',#2041,#995);
#805=LINE('',#2043,#996);
#806=LINE('',#2045,#997);
#807=LINE('',#2047,#998);
#808=LINE('',#2049,#999);
#809=LINE('',#2052,#1000);
#810=LINE('',#2054,#1001);
#811=LINE('',#2056,#1002);
#812=LINE('',#2058,#1003);
#813=LINE('',#2060,#1004);
#814=LINE('',#2062,#1005);
#815=LINE('',#2064,#1006);
#816=LINE('',#2066,#1007);
#817=LINE('',#2069,#1008);
#818=LINE('',#2071,#1009);
#819=LINE('',#2073,#1010);
#820=LINE('',#2075,#1011);
#821=LINE('',#2077,#1012);
#822=LINE('',#2079,#1013);
#823=LINE('',#2081,#1014);
#824=LINE('',#2083,#1015);
#825=LINE('',#2084,#1016);
#826=LINE('',#2086,#1017);
#827=LINE('',#2087,#1018);
#828=LINE('',#2095,#1019);
#829=LINE('',#2098,#1020);
#830=LINE('',#2100,#1021);
#831=LINE('',#2102,#1022);
#832=LINE('',#2103,#1023);
#833=LINE('',#2106,#1024);
#834=LINE('',#2108,#1025);
#835=LINE('',#2110,#1026);
#836=LINE('',#2111,#1027);
#837=LINE('',#2114,#1028);
#838=LINE('',#2116,#1029);
#839=LINE('',#2118,#1030);
#840=LINE('',#2119,#1031);
#841=LINE('',#2122,#1032);
#842=LINE('',#2124,#1033);
#843=LINE('',#2126,#1034);
#844=LINE('',#2127,#1035);
#845=LINE('',#2130,#1036);
#846=LINE('',#2132,#1037);
#847=LINE('',#2134,#1038);
#848=LINE('',#2136,#1039);
#849=LINE('',#2138,#1040);
#850=LINE('',#2140,#1041);
#851=LINE('',#2142,#1042);
#852=LINE('',#2144,#1043);
#853=LINE('',#2146,#1044);
#854=LINE('',#2148,#1045);
#855=LINE('',#2150,#1046);
#856=LINE('',#2164,#1047);
#857=LINE('',#2166,#1048);
#858=LINE('',#2168,#1049);
#859=LINE('',#2169,#1050);
#860=LINE('',#2171,#1051);
#861=LINE('',#2173,#1052);
#862=LINE('',#2174,#1053);
#863=LINE('',#2175,#1054);
#864=LINE('',#2177,#1055);
#865=LINE('',#2179,#1056);
#866=LINE('',#2180,#1057);
#867=LINE('',#2183,#1058);
#868=LINE('',#2185,#1059);
#869=LINE('',#2187,#1060);
#870=LINE('',#2195,#1061);
#871=LINE('',#2196,#1062);
#872=LINE('',#2198,#1063);
#873=LINE('',#2200,#1064);
#874=LINE('',#2202,#1065);
#875=LINE('',#2204,#1066);
#876=LINE('',#2206,#1067);
#877=LINE('',#2208,#1068);
#878=LINE('',#2209,#1069);
#879=LINE('',#2210,#1070);
#880=LINE('',#2211,#1071);
#881=LINE('',#2215,#1072);
#882=LINE('',#2217,#1073);
#883=LINE('',#2219,#1074);
#884=LINE('',#2221,#1075);
#885=LINE('',#2223,#1076);
#886=LINE('',#2225,#1077);
#887=LINE('',#2227,#1078);
#888=LINE('',#2229,#1079);
#889=LINE('',#2231,#1080);
#890=LINE('',#2233,#1081);
#891=LINE('',#2235,#1082);
#892=LINE('',#2237,#1083);
#893=LINE('',#2239,#1084);
#894=LINE('',#2240,#1085);
#895=LINE('',#2242,#1086);
#896=LINE('',#2244,#1087);
#897=LINE('',#2246,#1088);
#898=LINE('',#2248,#1089);
#899=LINE('',#2250,#1090);
#900=LINE('',#2254,#1091);
#901=LINE('',#2257,#1092);
#902=LINE('',#2259,#1093);
#903=LINE('',#2261,#1094);
#904=LINE('',#2263,#1095);
#905=LINE('',#2264,#1096);
#906=LINE('',#2266,#1097);
#907=LINE('',#2268,#1098);
#908=LINE('',#2270,#1099);
#909=LINE('',#2272,#1100);
#910=LINE('',#2274,#1101);
#911=LINE('',#2278,#1102);
#912=LINE('',#2281,#1103);
#913=LINE('',#2283,#1104);
#914=LINE('',#2285,#1105);
#915=LINE('',#2287,#1106);
#916=LINE('',#2289,#1107);
#917=LINE('',#2291,#1108);
#918=LINE('',#2293,#1109);
#919=LINE('',#2295,#1110);
#920=LINE('',#2297,#1111);
#921=LINE('',#2299,#1112);
#922=LINE('',#2301,#1113);
#923=LINE('',#2303,#1114);
#924=LINE('',#2304,#1115);
#925=LINE('',#2308,#1116);
#926=LINE('',#2311,#1117);
#927=LINE('',#2313,#1118);
#928=LINE('',#2314,#1119);
#929=LINE('',#2316,#1120);
#930=LINE('',#2318,#1121);
#931=LINE('',#2320,#1122);
#932=LINE('',#2322,#1123);
#933=LINE('',#2324,#1124);
#934=LINE('',#2326,#1125);
#935=LINE('',#2327,#1126);
#936=LINE('',#2329,#1127);
#937=LINE('',#2330,#1128);
#938=LINE('',#2332,#1129);
#939=LINE('',#2333,#1130);
#940=LINE('',#2335,#1131);
#941=LINE('',#2336,#1132);
#942=LINE('',#2337,#1133);
#943=LINE('',#2340,#1134);
#944=LINE('',#2342,#1135);
#945=LINE('',#2344,#1136);
#946=LINE('',#2346,#1137);
#947=LINE('',#2347,#1138);
#948=LINE('',#2349,#1139);
#949=LINE('',#2351,#1140);
#950=LINE('',#2353,#1141);
#951=LINE('',#2355,#1142);
#952=LINE('',#2356,#1143);
#953=LINE('',#2361,#1144);
#954=LINE('',#2363,#1145);
#955=LINE('',#2366,#1146);
#956=LINE('',#2369,#1147);
#957=LINE('',#2371,#1148);
#958=LINE('',#2375,#1149);
#959=LINE('',#2377,#1150);
#960=LINE('',#2379,#1151);
#961=LINE('',#2381,#1152);
#962=LINE('',#2383,#1153);
#963=LINE('',#2385,#1154);
#964=LINE('',#2387,#1155);
#965=LINE('',#2389,#1156);
#966=LINE('',#2392,#1157);
#967=LINE('',#2394,#1158);
#968=LINE('',#2397,#1159);
#969=LINE('',#2398,#1160);
#970=LINE('',#2402,#1161);
#971=LINE('',#2403,#1162);
#972=LINE('',#2405,#1163);
#973=LINE('',#2407,#1164);
#974=LINE('',#2410,#1165);
#975=LINE('',#2412,#1166);
#976=LINE('',#2413,#1167);
#977=LINE('',#2415,#1168);
#978=LINE('',#2417,#1169);
#979=LINE('',#2419,#1170);
#980=LINE('',#2420,#1171);
#981=LINE('',#2424,#1172);
#982=LINE('',#2425,#1173);
#983=LINE('',#2427,#1174);
#984=LINE('',#2429,#1175);
#985=LINE('',#2440,#1176);
#986=LINE('',#2443,#1177);
#987=VECTOR('',#1646,1.);
#988=VECTOR('',#1647,1.);
#989=VECTOR('',#1648,1.);
#990=VECTOR('',#1649,1.);
#991=VECTOR('',#1650,1.);
#992=VECTOR('',#1651,1.);
#993=VECTOR('',#1654,1.);
#994=VECTOR('',#1655,1.);
#995=VECTOR('',#1656,1.);
#996=VECTOR('',#1657,1.);
#997=VECTOR('',#1658,1.);
#998=VECTOR('',#1659,1.);
#999=VECTOR('',#1662,1.);
#1000=VECTOR('',#1663,1.);
#1001=VECTOR('',#1664,1.);
#1002=VECTOR('',#1665,1.);
#1003=VECTOR('',#1666,1.);
#1004=VECTOR('',#1667,1.);
#1005=VECTOR('',#1668,1.);
#1006=VECTOR('',#1669,1.);
#1007=VECTOR('',#1672,1.);
#1008=VECTOR('',#1673,1.);
#1009=VECTOR('',#1674,1.);
#1010=VECTOR('',#1675,1.);
#1011=VECTOR('',#1676,1.);
#1012=VECTOR('',#1677,1.);
#1013=VECTOR('',#1678,1.);
#1014=VECTOR('',#1679,1.);
#1015=VECTOR('',#1682,1.);
#1016=VECTOR('',#1683,1.);
#1017=VECTOR('',#1686,1.);
#1018=VECTOR('',#1687,1.);
#1019=VECTOR('',#1696,1.);
#1020=VECTOR('',#1697,1.);
#1021=VECTOR('',#1698,1.);
#1022=VECTOR('',#1699,1.);
#1023=VECTOR('',#1700,1.);
#1024=VECTOR('',#1701,1.);
#1025=VECTOR('',#1702,1.);
#1026=VECTOR('',#1703,1.);
#1027=VECTOR('',#1704,1.);
#1028=VECTOR('',#1705,1.);
#1029=VECTOR('',#1706,1.);
#1030=VECTOR('',#1707,1.);
#1031=VECTOR('',#1708,1.);
#1032=VECTOR('',#1709,1.);
#1033=VECTOR('',#1710,1.);
#1034=VECTOR('',#1711,1.);
#1035=VECTOR('',#1712,1.);
#1036=VECTOR('',#1713,1.);
#1037=VECTOR('',#1714,1.);
#1038=VECTOR('',#1715,1.);
#1039=VECTOR('',#1716,1.);
#1040=VECTOR('',#1717,1.);
#1041=VECTOR('',#1718,1.);
#1042=VECTOR('',#1719,1.);
#1043=VECTOR('',#1720,1.);
#1044=VECTOR('',#1721,1.);
#1045=VECTOR('',#1722,1.);
#1046=VECTOR('',#1723,1.);
#1047=VECTOR('',#1738,1.);
#1048=VECTOR('',#1739,1.);
#1049=VECTOR('',#1740,1.);
#1050=VECTOR('',#1741,1.);
#1051=VECTOR('',#1742,1.);
#1052=VECTOR('',#1743,1.);
#1053=VECTOR('',#1744,1.);
#1054=VECTOR('',#1745,1.);
#1055=VECTOR('',#1746,1.);
#1056=VECTOR('',#1747,1.);
#1057=VECTOR('',#1748,1.);
#1058=VECTOR('',#1749,1.);
#1059=VECTOR('',#1750,1.);
#1060=VECTOR('',#1751,1.);
#1061=VECTOR('',#1760,1.);
#1062=VECTOR('',#1761,1.);
#1063=VECTOR('',#1762,1.);
#1064=VECTOR('',#1763,1.);
#1065=VECTOR('',#1766,1.);
#1066=VECTOR('',#1767,1.);
#1067=VECTOR('',#1768,1.);
#1068=VECTOR('',#1771,1.);
#1069=VECTOR('',#1772,1.);
#1070=VECTOR('',#1773,1.);
#1071=VECTOR('',#1774,1.);
#1072=VECTOR('',#1779,1.);
#1073=VECTOR('',#1780,1.);
#1074=VECTOR('',#1781,1.);
#1075=VECTOR('',#1782,1.);
#1076=VECTOR('',#1783,1.);
#1077=VECTOR('',#1784,1.);
#1078=VECTOR('',#1785,1.);
#1079=VECTOR('',#1786,1.);
#1080=VECTOR('',#1787,1.);
#1081=VECTOR('',#1788,1.);
#1082=VECTOR('',#1789,1.);
#1083=VECTOR('',#1790,1.);
#1084=VECTOR('',#1793,1.);
#1085=VECTOR('',#1794,1.);
#1086=VECTOR('',#1795,1.);
#1087=VECTOR('',#1796,1.);
#1088=VECTOR('',#1799,1.);
#1089=VECTOR('',#1800,1.);
#1090=VECTOR('',#1801,1.);
#1091=VECTOR('',#1806,1.);
#1092=VECTOR('',#1807,1.);
#1093=VECTOR('',#1808,1.);
#1094=VECTOR('',#1809,1.);
#1095=VECTOR('',#1810,1.);
#1096=VECTOR('',#1811,1.);
#1097=VECTOR('',#1812,1.);
#1098=VECTOR('',#1813,1.);
#1099=VECTOR('',#1814,1.);
#1100=VECTOR('',#1815,1.);
#1101=VECTOR('',#1816,1.);
#1102=VECTOR('',#1821,1.);
#1103=VECTOR('',#1822,1.);
#1104=VECTOR('',#1823,1.);
#1105=VECTOR('',#1824,1.);
#1106=VECTOR('',#1825,1.);
#1107=VECTOR('',#1826,1.);
#1108=VECTOR('',#1827,1.);
#1109=VECTOR('',#1828,1.);
#1110=VECTOR('',#1829,1.);
#1111=VECTOR('',#1830,1.);
#1112=VECTOR('',#1831,1.);
#1113=VECTOR('',#1832,1.);
#1114=VECTOR('',#1835,1.);
#1115=VECTOR('',#1836,1.);
#1116=VECTOR('',#1841,1.);
#1117=VECTOR('',#1842,1.);
#1118=VECTOR('',#1843,1.);
#1119=VECTOR('',#1844,1.);
#1120=VECTOR('',#1845,1.);
#1121=VECTOR('',#1846,1.);
#1122=VECTOR('',#1847,1.);
#1123=VECTOR('',#1848,1.);
#1124=VECTOR('',#1849,1.);
#1125=VECTOR('',#1852,1.);
#1126=VECTOR('',#1853,1.);
#1127=VECTOR('',#1856,1.);
#1128=VECTOR('',#1857,1.);
#1129=VECTOR('',#1860,1.);
#1130=VECTOR('',#1861,1.);
#1131=VECTOR('',#1864,1.);
#1132=VECTOR('',#1865,1.);
#1133=VECTOR('',#1866,1.);
#1134=VECTOR('',#1871,1.);
#1135=VECTOR('',#1874,1.);
#1136=VECTOR('',#1877,1.);
#1137=VECTOR('',#1878,1.);
#1138=VECTOR('',#1879,1.);
#1139=VECTOR('',#1880,1.);
#1140=VECTOR('',#1883,1.);
#1141=VECTOR('',#1886,1.);
#1142=VECTOR('',#1889,1.);
#1143=VECTOR('',#1890,1.);
#1144=VECTOR('',#1899,1.);
#1145=VECTOR('',#1902,1.);
#1146=VECTOR('',#1907,1.);
#1147=VECTOR('',#1912,1.);
#1148=VECTOR('',#1915,1.);
#1149=VECTOR('',#1922,1.);
#1150=VECTOR('',#1923,1.);
#1151=VECTOR('',#1924,1.);
#1152=VECTOR('',#1927,1.);
#1153=VECTOR('',#1928,1.);
#1154=VECTOR('',#1931,1.);
#1155=VECTOR('',#1932,1.);
#1156=VECTOR('',#1935,1.);
#1157=VECTOR('',#1940,1.);
#1158=VECTOR('',#1943,1.);
#1159=VECTOR('',#1948,1.);
#1160=VECTOR('',#1949,1.);
#1161=VECTOR('',#1956,1.);
#1162=VECTOR('',#1957,1.);
#1163=VECTOR('',#1960,1.);
#1164=VECTOR('',#1963,1.);
#1165=VECTOR('',#1968,1.);
#1166=VECTOR('',#1969,1.);
#1167=VECTOR('',#1970,1.);
#1168=VECTOR('',#1973,1.);
#1169=VECTOR('',#1974,1.);
#1170=VECTOR('',#1977,1.);
#1171=VECTOR('',#1978,1.);
#1172=VECTOR('',#1985,1.);
#1173=VECTOR('',#1986,1.);
#1174=VECTOR('',#1989,1.);
#1175=VECTOR('',#1992,1.);
#1176=VECTOR('',#2013,1.);
#1177=VECTOR('',#2018,1.);
#1178=EDGE_LOOP('',(#36,#37,#38,#39,#40,#41));
#1179=EDGE_LOOP('',(#42,#43,#44,#45,#46,#47));
#1180=EDGE_LOOP('',(#48,#49,#50,#51,#52,#53,#54,#55));
#1181=EDGE_LOOP('',(#56,#57,#58,#59,#60,#61,#62,#63));
#1182=EDGE_LOOP('',(#64,#65,#66,#67));
#1183=EDGE_LOOP('',(#68,#69,#70,#71));
#1184=EDGE_LOOP('',(#72));
#1185=EDGE_LOOP('',(#73));
#1186=EDGE_LOOP('',(#74));
#1187=EDGE_LOOP('',(#75,#76,#77,#78));
#1188=EDGE_LOOP('',(#79,#80,#81,#82));
#1189=EDGE_LOOP('',(#83,#84,#85,#86));
#1190=EDGE_LOOP('',(#87,#88,#89,#90));
#1191=EDGE_LOOP('',(#91,#92,#93,#94,#95,#96,#97,#98,#99,#100,#101,#102));
#1192=EDGE_LOOP('',(#103));
#1193=EDGE_LOOP('',(#104));
#1194=EDGE_LOOP('',(#105));
#1195=EDGE_LOOP('',(#106));
#1196=EDGE_LOOP('',(#107));
#1197=EDGE_LOOP('',(#108));
#1198=EDGE_LOOP('',(#109,#110,#111,#112,#113,#114,#115,#116,#117,#118,#119,
#120,#121,#122,#123,#124));
#1199=EDGE_LOOP('',(#125,#126,#127,#128));
#1200=EDGE_LOOP('',(#129));
#1201=EDGE_LOOP('',(#130));
#1202=EDGE_LOOP('',(#131));
#1203=EDGE_LOOP('',(#132,#133,#134,#135,#136,#137,#138));
#1204=EDGE_LOOP('',(#139,#140,#141,#142,#143));
#1205=EDGE_LOOP('',(#144,#145,#146,#147,#148,#149,#150,#151));
#1206=EDGE_LOOP('',(#152));
#1207=EDGE_LOOP('',(#153,#154,#155,#156,#157,#158,#159,#160,#161,#162,#163,
#164,#165));
#1208=EDGE_LOOP('',(#166,#167,#168,#169,#170,#171));
#1209=EDGE_LOOP('',(#172,#173,#174,#175));
#1210=EDGE_LOOP('',(#176));
#1211=EDGE_LOOP('',(#177,#178,#179,#180,#181,#182,#183,#184,#185,#186,#187,
#188));
#1212=EDGE_LOOP('',(#189));
#1213=EDGE_LOOP('',(#190,#191,#192,#193,#194,#195,#196,#197,#198,#199,#200,
#201));
#1214=EDGE_LOOP('',(#202,#203,#204,#205));
#1215=EDGE_LOOP('',(#206));
#1216=EDGE_LOOP('',(#207,#208,#209,#210,#211,#212,#213,#214,#215,#216));
#1217=EDGE_LOOP('',(#217,#218,#219,#220));
#1218=EDGE_LOOP('',(#221,#222,#223,#224));
#1219=EDGE_LOOP('',(#225,#226,#227,#228));
#1220=EDGE_LOOP('',(#229,#230,#231,#232,#233,#234));
#1221=EDGE_LOOP('',(#235,#236,#237,#238));
#1222=EDGE_LOOP('',(#239,#240,#241,#242));
#1223=EDGE_LOOP('',(#243,#244,#245,#246,#247,#248));
#1224=EDGE_LOOP('',(#249,#250,#251,#252,#253,#254,#255,#256));
#1225=EDGE_LOOP('',(#257,#258,#259,#260));
#1226=EDGE_LOOP('',(#261,#262,#263,#264));
#1227=EDGE_LOOP('',(#265,#266,#267,#268));
#1228=EDGE_LOOP('',(#269,#270,#271));
#1229=EDGE_LOOP('',(#272,#273,#274));
#1230=EDGE_LOOP('',(#275,#276,#277,#278));
#1231=EDGE_LOOP('',(#279,#280,#281,#282,#283));
#1232=EDGE_LOOP('',(#284,#285,#286,#287));
#1233=EDGE_LOOP('',(#288,#289,#290,#291));
#1234=EDGE_LOOP('',(#292,#293,#294,#295));
#1235=EDGE_LOOP('',(#296,#297,#298,#299));
#1236=EDGE_LOOP('',(#300,#301,#302,#303));
#1237=EDGE_LOOP('',(#304,#305,#306,#307));
#1238=EDGE_LOOP('',(#308));
#1239=EDGE_LOOP('',(#309));
#1240=EDGE_LOOP('',(#310));
#1241=EDGE_LOOP('',(#311));
#1242=EDGE_LOOP('',(#312,#313,#314,#315));
#1243=EDGE_LOOP('',(#316,#317,#318,#319));
#1244=EDGE_LOOP('',(#320,#321,#322,#323));
#1245=EDGE_LOOP('',(#324,#325,#326,#327));
#1246=EDGE_LOOP('',(#328,#329,#330,#331));
#1247=EDGE_LOOP('',(#332,#333,#334,#335));
#1248=EDGE_LOOP('',(#336,#337,#338,#339));
#1249=EDGE_LOOP('',(#340,#341,#342,#343));
#1250=EDGE_LOOP('',(#344,#345,#346,#347));
#1251=EDGE_LOOP('',(#348,#349,#350,#351));
#1252=EDGE_LOOP('',(#352,#353,#354,#355));
#1253=EDGE_LOOP('',(#356,#357,#358,#359));
#1254=EDGE_LOOP('',(#360,#361,#362,#363));
#1255=EDGE_LOOP('',(#364,#365,#366,#367));
#1256=EDGE_LOOP('',(#368,#369,#370,#371));
#1257=EDGE_LOOP('',(#372,#373,#374,#375,#376));
#1258=EDGE_LOOP('',(#377,#378,#379,#380));
#1259=EDGE_LOOP('',(#381,#382,#383,#384,#385));
#1260=EDGE_LOOP('',(#386,#387,#388,#389));
#1261=EDGE_LOOP('',(#390,#391,#392,#393));
#1262=EDGE_LOOP('',(#394,#395,#396,#397,#398));
#1263=EDGE_LOOP('',(#399,#400,#401,#402));
#1264=EDGE_LOOP('',(#403,#404,#405,#406,#407));
#1265=EDGE_LOOP('',(#408,#409,#410,#411));
#1266=EDGE_LOOP('',(#412,#413,#414,#415));
#1267=EDGE_LOOP('',(#416,#417,#418,#419,#420,#421));
#1268=EDGE_LOOP('',(#422));
#1269=EDGE_LOOP('',(#423));
#1270=EDGE_LOOP('',(#424));
#1271=EDGE_LOOP('',(#425));
#1272=EDGE_LOOP('',(#426));
#1273=EDGE_LOOP('',(#427));
#1274=EDGE_LOOP('',(#428));
#1275=EDGE_LOOP('',(#429));
#1276=EDGE_LOOP('',(#430));
#1277=EDGE_LOOP('',(#431));
#1278=EDGE_LOOP('',(#432));
#1279=EDGE_LOOP('',(#433));
#1280=EDGE_LOOP('',(#434,#435,#436,#437));
#1281=EDGE_LOOP('',(#438,#439,#440,#441));
#1282=EDGE_LOOP('',(#442,#443,#444,#445));
#1283=EDGE_LOOP('',(#446,#447,#448,#449));
#1284=FACE_BOUND('',#1178,.T.);
#1285=FACE_BOUND('',#1179,.T.);
#1286=FACE_BOUND('',#1180,.T.);
#1287=FACE_BOUND('',#1181,.T.);
#1288=FACE_BOUND('',#1182,.T.);
#1289=FACE_BOUND('',#1183,.T.);
#1290=FACE_BOUND('',#1184,.T.);
#1291=FACE_BOUND('',#1185,.T.);
#1292=FACE_BOUND('',#1186,.T.);
#1293=FACE_BOUND('',#1187,.T.);
#1294=FACE_BOUND('',#1188,.T.);
#1295=FACE_BOUND('',#1189,.T.);
#1296=FACE_BOUND('',#1190,.T.);
#1297=FACE_BOUND('',#1191,.T.);
#1298=FACE_BOUND('',#1192,.T.);
#1299=FACE_BOUND('',#1193,.T.);
#1300=FACE_BOUND('',#1194,.T.);
#1301=FACE_BOUND('',#1195,.T.);
#1302=FACE_BOUND('',#1196,.T.);
#1303=FACE_BOUND('',#1197,.T.);
#1304=FACE_BOUND('',#1198,.T.);
#1305=FACE_BOUND('',#1199,.T.);
#1306=FACE_BOUND('',#1200,.T.);
#1307=FACE_BOUND('',#1201,.T.);
#1308=FACE_BOUND('',#1202,.T.);
#1309=FACE_BOUND('',#1203,.T.);
#1310=FACE_BOUND('',#1204,.T.);
#1311=FACE_BOUND('',#1205,.T.);
#1312=FACE_BOUND('',#1206,.T.);
#1313=FACE_BOUND('',#1207,.T.);
#1314=FACE_BOUND('',#1208,.T.);
#1315=FACE_BOUND('',#1209,.T.);
#1316=FACE_BOUND('',#1210,.T.);
#1317=FACE_BOUND('',#1211,.T.);
#1318=FACE_BOUND('',#1212,.T.);
#1319=FACE_BOUND('',#1213,.T.);
#1320=FACE_BOUND('',#1214,.T.);
#1321=FACE_BOUND('',#1215,.T.);
#1322=FACE_BOUND('',#1216,.T.);
#1323=FACE_BOUND('',#1217,.T.);
#1324=FACE_BOUND('',#1218,.T.);
#1325=FACE_BOUND('',#1219,.T.);
#1326=FACE_BOUND('',#1220,.T.);
#1327=FACE_BOUND('',#1221,.T.);
#1328=FACE_BOUND('',#1222,.T.);
#1329=FACE_BOUND('',#1223,.T.);
#1330=FACE_BOUND('',#1224,.T.);
#1331=FACE_BOUND('',#1225,.T.);
#1332=FACE_BOUND('',#1226,.T.);
#1333=FACE_BOUND('',#1227,.T.);
#1334=FACE_BOUND('',#1228,.T.);
#1335=FACE_BOUND('',#1229,.T.);
#1336=FACE_BOUND('',#1230,.T.);
#1337=FACE_BOUND('',#1231,.T.);
#1338=FACE_BOUND('',#1232,.T.);
#1339=FACE_BOUND('',#1233,.T.);
#1340=FACE_BOUND('',#1234,.T.);
#1341=FACE_BOUND('',#1235,.T.);
#1342=FACE_BOUND('',#1236,.T.);
#1343=FACE_BOUND('',#1237,.T.);
#1344=FACE_BOUND('',#1238,.T.);
#1345=FACE_BOUND('',#1239,.T.);
#1346=FACE_BOUND('',#1240,.T.);
#1347=FACE_BOUND('',#1241,.T.);
#1348=FACE_BOUND('',#1242,.T.);
#1349=FACE_BOUND('',#1243,.T.);
#1350=FACE_BOUND('',#1244,.T.);
#1351=FACE_BOUND('',#1245,.T.);
#1352=FACE_BOUND('',#1246,.T.);
#1353=FACE_BOUND('',#1247,.T.);
#1354=FACE_BOUND('',#1248,.T.);
#1355=FACE_BOUND('',#1249,.T.);
#1356=FACE_BOUND('',#1250,.T.);
#1357=FACE_BOUND('',#1251,.T.);
#1358=FACE_BOUND('',#1252,.T.);
#1359=FACE_BOUND('',#1253,.T.);
#1360=FACE_BOUND('',#1254,.T.);
#1361=FACE_BOUND('',#1255,.T.);
#1362=FACE_BOUND('',#1256,.T.);
#1363=FACE_BOUND('',#1257,.T.);
#1364=FACE_BOUND('',#1258,.T.);
#1365=FACE_BOUND('',#1259,.T.);
#1366=FACE_BOUND('',#1260,.T.);
#1367=FACE_BOUND('',#1261,.T.);
#1368=FACE_BOUND('',#1262,.T.);
#1369=FACE_BOUND('',#1263,.T.);
#1370=FACE_BOUND('',#1264,.T.);
#1371=FACE_BOUND('',#1265,.T.);
#1372=FACE_BOUND('',#1266,.T.);
#1373=FACE_BOUND('',#1267,.T.);
#1374=FACE_BOUND('',#1268,.T.);
#1375=FACE_BOUND('',#1269,.T.);
#1376=FACE_BOUND('',#1270,.T.);
#1377=FACE_BOUND('',#1271,.T.);
#1378=FACE_BOUND('',#1272,.T.);
#1379=FACE_BOUND('',#1273,.T.);
#1380=FACE_BOUND('',#1274,.T.);
#1381=FACE_BOUND('',#1275,.T.);
#1382=FACE_BOUND('',#1276,.T.);
#1383=FACE_BOUND('',#1277,.T.);
#1384=FACE_BOUND('',#1278,.T.);
#1385=FACE_BOUND('',#1279,.T.);
#1386=FACE_BOUND('',#1280,.T.);
#1387=FACE_BOUND('',#1281,.T.);
#1388=FACE_BOUND('',#1282,.T.);
#1389=FACE_BOUND('',#1283,.T.);
#1390=PLANE('',#1549);
#1391=PLANE('',#1550);
#1392=PLANE('',#1551);
#1393=PLANE('',#1552);
#1394=PLANE('',#1553);
#1395=PLANE('',#1554);
#1396=PLANE('',#1555);
#1397=PLANE('',#1562);
#1398=PLANE('',#1569);
#1399=PLANE('',#1570);
#1400=PLANE('',#1571);
#1401=PLANE('',#1572);
#1402=PLANE('',#1574);
#1403=PLANE('',#1575);
#1404=PLANE('',#1576);
#1405=PLANE('',#1578);
#1406=PLANE('',#1580);
#1407=PLANE('',#1581);
#1408=PLANE('',#1583);
#1409=PLANE('',#1584);
#1410=PLANE('',#1585);
#1411=PLANE('',#1586);
#1412=PLANE('',#1587);
#1413=PLANE('',#1588);
#1414=PLANE('',#1589);
#1415=PLANE('',#1590);
#1416=PLANE('',#1591);
#1417=PLANE('',#1592);
#1418=PLANE('',#1593);
#1419=PLANE('',#1594);
#1420=PLANE('',#1595);
#1421=PLANE('',#1596);
#1422=PLANE('',#1597);
#1423=PLANE('',#1598);
#1424=PLANE('',#1599);
#1425=PLANE('',#1600);
#1426=PLANE('',#1601);
#1427=PLANE('',#1602);
#1428=PLANE('',#1603);
#1429=PLANE('',#1606);
#1430=PLANE('',#1607);
#1431=PLANE('',#1608);
#1432=PLANE('',#1609);
#1433=PLANE('',#1610);
#1434=PLANE('',#1611);
#1435=PLANE('',#1612);
#1436=PLANE('',#1613);
#1437=PLANE('',#1614);
#1438=PLANE('',#1615);
#1439=PLANE('',#1616);
#1440=PLANE('',#1617);
#1441=PLANE('',#1618);
#1442=PLANE('',#1619);
#1443=PLANE('',#1620);
#1444=PLANE('',#1621);
#1445=PLANE('',#1622);
#1446=PLANE('',#1623);
#1447=PLANE('',#1624);
#1448=PLANE('',#1625);
#1449=PLANE('',#1626);
#1450=PLANE('',#1627);
#1451=PLANE('',#1628);
#1452=PLANE('',#1629);
#1453=PLANE('',#1630);
#1454=PLANE('',#1631);
#1455=PLANE('',#1638);
#1456=PLANE('',#1639);
#1457=PLANE('',#1640);
#1458=PLANE('',#1641);
#1459=ADVANCED_FACE('',(#1284),#1390,.F.);
#1460=ADVANCED_FACE('',(#1285),#1391,.T.);
#1461=ADVANCED_FACE('',(#1286),#1392,.T.);
#1462=ADVANCED_FACE('',(#1287),#1393,.F.);
#1463=ADVANCED_FACE('',(#1288),#1394,.T.);
#1464=ADVANCED_FACE('',(#1289),#1395,.T.);
#1465=ADVANCED_FACE('',(#1290,#1291,#1292,#1293,#1294,#1295,#1296,#1297,
#1298,#1299,#1300),#1396,.T.);
#1466=ADVANCED_FACE('',(#1301,#1302,#1303,#1304,#1305,#1306,#1307,#1308),
#1397,.T.);
#1467=ADVANCED_FACE('',(#1309),#1398,.T.);
#1468=ADVANCED_FACE('',(#1310),#1399,.F.);
#1469=ADVANCED_FACE('',(#1311),#1400,.F.);
#1470=ADVANCED_FACE('',(#1312,#1313),#1401,.T.);
#1471=ADVANCED_FACE('',(#1314),#1402,.F.);
#1472=ADVANCED_FACE('',(#1315),#1403,.T.);
#1473=ADVANCED_FACE('',(#1316,#1317),#1404,.T.);
#1474=ADVANCED_FACE('',(#1318,#1319),#1405,.F.);
#1475=ADVANCED_FACE('',(#1320),#1406,.T.);
#1476=ADVANCED_FACE('',(#1321,#1322),#1407,.F.);
#1477=ADVANCED_FACE('',(#1323),#1408,.T.);
#1478=ADVANCED_FACE('',(#1324),#1409,.T.);
#1479=ADVANCED_FACE('',(#1325),#1410,.F.);
#1480=ADVANCED_FACE('',(#1326),#1411,.F.);
#1481=ADVANCED_FACE('',(#1327),#1412,.F.);
#1482=ADVANCED_FACE('',(#1328),#1413,.F.);
#1483=ADVANCED_FACE('',(#1329),#1414,.F.);
#1484=ADVANCED_FACE('',(#1330),#1415,.T.);
#1485=ADVANCED_FACE('',(#1331),#1416,.T.);
#1486=ADVANCED_FACE('',(#1332),#1417,.F.);
#1487=ADVANCED_FACE('',(#1333),#1418,.T.);
#1488=ADVANCED_FACE('',(#1334),#1419,.T.);
#1489=ADVANCED_FACE('',(#1335),#1420,.T.);
#1490=ADVANCED_FACE('',(#1336),#1421,.T.);
#1491=ADVANCED_FACE('',(#1337),#1422,.T.);
#1492=ADVANCED_FACE('',(#1338),#1423,.F.);
#1493=ADVANCED_FACE('',(#1339),#1424,.T.);
#1494=ADVANCED_FACE('',(#1340),#1425,.T.);
#1495=ADVANCED_FACE('',(#1341),#1426,.F.);
#1496=ADVANCED_FACE('',(#1342),#1427,.T.);
#1497=ADVANCED_FACE('',(#1343),#1428,.T.);
#1498=ADVANCED_FACE('',(#1344,#1345),#12,.F.);
#1499=ADVANCED_FACE('',(#1346,#1347),#13,.F.);
#1500=ADVANCED_FACE('',(#1348),#1429,.T.);
#1501=ADVANCED_FACE('',(#1349),#1430,.F.);
#1502=ADVANCED_FACE('',(#1350),#1431,.F.);
#1503=ADVANCED_FACE('',(#1351),#1432,.T.);
#1504=ADVANCED_FACE('',(#1352),#1433,.T.);
#1505=ADVANCED_FACE('',(#1353),#1434,.T.);
#1506=ADVANCED_FACE('',(#1354),#1435,.F.);
#1507=ADVANCED_FACE('',(#1355),#1436,.F.);
#1508=ADVANCED_FACE('',(#1356),#1437,.T.);
#1509=ADVANCED_FACE('',(#1357),#1438,.T.);
#1510=ADVANCED_FACE('',(#1358),#1439,.F.);
#1511=ADVANCED_FACE('',(#1359),#1440,.T.);
#1512=ADVANCED_FACE('',(#1360),#1441,.F.);
#1513=ADVANCED_FACE('',(#1361),#1442,.T.);
#1514=ADVANCED_FACE('',(#1362),#1443,.T.);
#1515=ADVANCED_FACE('',(#1363),#1444,.T.);
#1516=ADVANCED_FACE('',(#1364),#1445,.F.);
#1517=ADVANCED_FACE('',(#1365),#1446,.F.);
#1518=ADVANCED_FACE('',(#1366),#1447,.T.);
#1519=ADVANCED_FACE('',(#1367),#1448,.T.);
#1520=ADVANCED_FACE('',(#1368),#1449,.T.);
#1521=ADVANCED_FACE('',(#1369),#1450,.F.);
#1522=ADVANCED_FACE('',(#1370),#1451,.F.);
#1523=ADVANCED_FACE('',(#1371),#1452,.T.);
#1524=ADVANCED_FACE('',(#1372),#1453,.F.);
#1525=ADVANCED_FACE('',(#1373),#1454,.T.);
#1526=ADVANCED_FACE('',(#1374,#1375),#14,.F.);
#1527=ADVANCED_FACE('',(#1376,#1377),#15,.F.);
#1528=ADVANCED_FACE('',(#1378,#1379),#16,.F.);
#1529=ADVANCED_FACE('',(#1380,#1381),#17,.F.);
#1530=ADVANCED_FACE('',(#1382,#1383),#18,.F.);
#1531=ADVANCED_FACE('',(#1384,#1385),#19,.F.);
#1532=ADVANCED_FACE('',(#1386),#1455,.T.);
#1533=ADVANCED_FACE('',(#1387),#1456,.T.);
#1534=ADVANCED_FACE('',(#1388),#1457,.T.);
#1535=ADVANCED_FACE('',(#1389),#1458,.T.);
#1536=CLOSED_SHELL('',(#1459,#1460,#1461,#1462,#1463,#1464,#1465,#1466,
#1467,#1468,#1469,#1470,#1471,#1472,#1473,#1474,#1475,#1476,#1477,#1478,
#1479,#1480,#1481,#1482,#1483,#1484,#1485,#1486,#1487,#1488,#1489,#1490,
#1491,#1492,#1493,#1494,#1495,#1496,#1497,#1498,#1499,#1500,#1501,#1502,
#1503,#1504,#1505,#1506,#1507,#1508,#1509,#1510,#1511,#1512,#1513,#1514,
#1515,#1516,#1517,#1518,#1519,#1520,#1521,#1522,#1523,#1524,#1525,#1526,
#1527,#1528,#1529,#1530,#1531,#1532,#1533,#1534,#1535));
#1537=STYLED_ITEM('',(#1538),#1545);
#1538=PRESENTATION_STYLE_ASSIGNMENT((#1539));
#1539=SURFACE_STYLE_USAGE(.BOTH.,#1540);
#1540=SURFACE_SIDE_STYLE('',(#1541));
#1541=SURFACE_STYLE_FILL_AREA(#1542);
#1542=FILL_AREA_STYLE('',(#1543));
#1543=FILL_AREA_STYLE_COLOUR('',#1544);
#1544=COLOUR_RGB('',0.262745098039216,0.282352941176471,0.301960784313725);
#1545=MANIFOLD_SOLID_BREP('Part 1',#1536);
#1546=SHAPE_DEFINITION_REPRESENTATION(#2451,#1547);
#1547=SHAPE_REPRESENTATION('Part 1',(#1548),#2446);
#1548=AXIS2_PLACEMENT_3D('',#2021,#1642,#1643);
#1549=AXIS2_PLACEMENT_3D('',#2022,#1644,#1645);
#1550=AXIS2_PLACEMENT_3D('',#2035,#1652,#1653);
#1551=AXIS2_PLACEMENT_3D('',#2048,#1660,#1661);
#1552=AXIS2_PLACEMENT_3D('',#2065,#1670,#1671);
#1553=AXIS2_PLACEMENT_3D('',#2082,#1680,#1681);
#1554=AXIS2_PLACEMENT_3D('',#2085,#1684,#1685);
#1555=AXIS2_PLACEMENT_3D('',#2088,#1688,#1689);
#1556=AXIS2_PLACEMENT_3D('',#2089,#1690,#1691);
#1557=AXIS2_PLACEMENT_3D('',#2091,#1692,#1693);
#1558=AXIS2_PLACEMENT_3D('',#2093,#1694,#1695);
#1559=AXIS2_PLACEMENT_3D('',#2151,#1724,#1725);
#1560=AXIS2_PLACEMENT_3D('',#2153,#1726,#1727);
#1561=AXIS2_PLACEMENT_3D('',#2155,#1728,#1729);
#1562=AXIS2_PLACEMENT_3D('',#2157,#1730,#1731);
#1563=AXIS2_PLACEMENT_3D('',#2158,#1732,#1733);
#1564=AXIS2_PLACEMENT_3D('',#2160,#1734,#1735);
#1565=AXIS2_PLACEMENT_3D('',#2162,#1736,#1737);
#1566=AXIS2_PLACEMENT_3D('',#2188,#1752,#1753);
#1567=AXIS2_PLACEMENT_3D('',#2190,#1754,#1755);
#1568=AXIS2_PLACEMENT_3D('',#2192,#1756,#1757);
#1569=AXIS2_PLACEMENT_3D('',#2194,#1758,#1759);
#1570=AXIS2_PLACEMENT_3D('',#2201,#1764,#1765);
#1571=AXIS2_PLACEMENT_3D('',#2207,#1769,#1770);
#1572=AXIS2_PLACEMENT_3D('',#2212,#1775,#1776);
#1573=AXIS2_PLACEMENT_3D('',#2213,#1777,#1778);
#1574=AXIS2_PLACEMENT_3D('',#2238,#1791,#1792);
#1575=AXIS2_PLACEMENT_3D('',#2245,#1797,#1798);
#1576=AXIS2_PLACEMENT_3D('',#2251,#1802,#1803);
#1577=AXIS2_PLACEMENT_3D('',#2252,#1804,#1805);
#1578=AXIS2_PLACEMENT_3D('',#2275,#1817,#1818);
#1579=AXIS2_PLACEMENT_3D('',#2276,#1819,#1820);
#1580=AXIS2_PLACEMENT_3D('',#2302,#1833,#1834);
#1581=AXIS2_PLACEMENT_3D('',#2305,#1837,#1838);
#1582=AXIS2_PLACEMENT_3D('',#2306,#1839,#1840);
#1583=AXIS2_PLACEMENT_3D('',#2325,#1850,#1851);
#1584=AXIS2_PLACEMENT_3D('',#2328,#1854,#1855);
#1585=AXIS2_PLACEMENT_3D('',#2331,#1858,#1859);
#1586=AXIS2_PLACEMENT_3D('',#2334,#1862,#1863);
#1587=AXIS2_PLACEMENT_3D('',#2338,#1867,#1868);
#1588=AXIS2_PLACEMENT_3D('',#2339,#1869,#1870);
#1589=AXIS2_PLACEMENT_3D('',#2341,#1872,#1873);
#1590=AXIS2_PLACEMENT_3D('',#2343,#1875,#1876);
#1591=AXIS2_PLACEMENT_3D('',#2350,#1881,#1882);
#1592=AXIS2_PLACEMENT_3D('',#2352,#1884,#1885);
#1593=AXIS2_PLACEMENT_3D('',#2354,#1887,#1888);
#1594=AXIS2_PLACEMENT_3D('',#2357,#1891,#1892);
#1595=AXIS2_PLACEMENT_3D('',#2358,#1893,#1894);
#1596=AXIS2_PLACEMENT_3D('',#2359,#1895,#1896);
#1597=AXIS2_PLACEMENT_3D('',#2360,#1897,#1898);
#1598=AXIS2_PLACEMENT_3D('',#2362,#1900,#1901);
#1599=AXIS2_PLACEMENT_3D('',#2364,#1903,#1904);
#1600=AXIS2_PLACEMENT_3D('',#2365,#1905,#1906);
#1601=AXIS2_PLACEMENT_3D('',#2367,#1908,#1909);
#1602=AXIS2_PLACEMENT_3D('',#2368,#1910,#1911);
#1603=AXIS2_PLACEMENT_3D('',#2370,#1913,#1914);
#1604=AXIS2_PLACEMENT_3D('',#2372,#1916,#1917);
#1605=AXIS2_PLACEMENT_3D('',#2373,#1918,#1919);
#1606=AXIS2_PLACEMENT_3D('',#2374,#1920,#1921);
#1607=AXIS2_PLACEMENT_3D('',#2380,#1925,#1926);
#1608=AXIS2_PLACEMENT_3D('',#2384,#1929,#1930);
#1609=AXIS2_PLACEMENT_3D('',#2388,#1933,#1934);
#1610=AXIS2_PLACEMENT_3D('',#2390,#1936,#1937);
#1611=AXIS2_PLACEMENT_3D('',#2391,#1938,#1939);
#1612=AXIS2_PLACEMENT_3D('',#2393,#1941,#1942);
#1613=AXIS2_PLACEMENT_3D('',#2395,#1944,#1945);
#1614=AXIS2_PLACEMENT_3D('',#2396,#1946,#1947);
#1615=AXIS2_PLACEMENT_3D('',#2399,#1950,#1951);
#1616=AXIS2_PLACEMENT_3D('',#2400,#1952,#1953);
#1617=AXIS2_PLACEMENT_3D('',#2401,#1954,#1955);
#1618=AXIS2_PLACEMENT_3D('',#2404,#1958,#1959);
#1619=AXIS2_PLACEMENT_3D('',#2406,#1961,#1962);
#1620=AXIS2_PLACEMENT_3D('',#2408,#1964,#1965);
#1621=AXIS2_PLACEMENT_3D('',#2409,#1966,#1967);
#1622=AXIS2_PLACEMENT_3D('',#2414,#1971,#1972);
#1623=AXIS2_PLACEMENT_3D('',#2418,#1975,#1976);
#1624=AXIS2_PLACEMENT_3D('',#2421,#1979,#1980);
#1625=AXIS2_PLACEMENT_3D('',#2422,#1981,#1982);
#1626=AXIS2_PLACEMENT_3D('',#2423,#1983,#1984);
#1627=AXIS2_PLACEMENT_3D('',#2426,#1987,#1988);
#1628=AXIS2_PLACEMENT_3D('',#2428,#1990,#1991);
#1629=AXIS2_PLACEMENT_3D('',#2430,#1993,#1994);
#1630=AXIS2_PLACEMENT_3D('',#2431,#1995,#1996);
#1631=AXIS2_PLACEMENT_3D('',#2432,#1997,#1998);
#1632=AXIS2_PLACEMENT_3D('',#2433,#1999,#2000);
#1633=AXIS2_PLACEMENT_3D('',#2434,#2001,#2002);
#1634=AXIS2_PLACEMENT_3D('',#2435,#2003,#2004);
#1635=AXIS2_PLACEMENT_3D('',#2436,#2005,#2006);
#1636=AXIS2_PLACEMENT_3D('',#2437,#2007,#2008);
#1637=AXIS2_PLACEMENT_3D('',#2438,#2009,#2010);
#1638=AXIS2_PLACEMENT_3D('',#2439,#2011,#2012);
#1639=AXIS2_PLACEMENT_3D('',#2441,#2014,#2015);
#1640=AXIS2_PLACEMENT_3D('',#2442,#2016,#2017);
#1641=AXIS2_PLACEMENT_3D('',#2444,#2019,#2020);
#1642=DIRECTION('',(0.,0.,1.));
#1643=DIRECTION('',(1.,0.,0.));
#1644=DIRECTION('',(0.,-0.707106781186547,0.707106781186548));
#1645=DIRECTION('',(-1.,0.,0.));
#1646=DIRECTION('',(1.,0.,0.));
#1647=DIRECTION('',(0.,-0.707106781186548,-0.707106781186547));
#1648=DIRECTION('',(1.,0.,0.));
#1649=DIRECTION('',(0.,-0.707106781186548,-0.707106781186547));
#1650=DIRECTION('',(-1.,0.,0.));
#1651=DIRECTION('',(0.,-0.707106781186548,-0.707106781186547));
#1652=DIRECTION('',(0.,-0.707106781186547,-0.707106781186548));
#1653=DIRECTION('',(1.,0.,0.));
#1654=DIRECTION('',(1.,0.,0.));
#1655=DIRECTION('',(0.,0.707106781186548,-0.707106781186547));
#1656=DIRECTION('',(-1.,0.,0.));
#1657=DIRECTION('',(0.,0.707106781186548,-0.707106781186547));
#1658=DIRECTION('',(1.,0.,0.));
#1659=DIRECTION('',(0.,0.707106781186548,-0.707106781186547));
#1660=DIRECTION('',(0.,-1.,0.));
#1661=DIRECTION('',(0.,0.,-1.));
#1662=DIRECTION('',(1.,0.,0.));
#1663=DIRECTION('',(0.,0.,-1.));
#1664=DIRECTION('',(-1.,0.,0.));
#1665=DIRECTION('',(0.,0.,-1.));
#1666=DIRECTION('',(-1.,0.,0.));
#1667=DIRECTION('',(-1.,0.,0.));
#1668=DIRECTION('',(-1.,0.,0.));
#1669=DIRECTION('',(0.,0.,-1.));
#1670=DIRECTION('',(0.,-1.,0.));
#1671=DIRECTION('',(0.,0.,-1.));
#1672=DIRECTION('',(0.,0.,-1.));
#1673=DIRECTION('',(1.,0.,0.));
#1674=DIRECTION('',(0.,0.,-1.));
#1675=DIRECTION('',(-1.,0.,0.));
#1676=DIRECTION('',(-1.,0.,0.));
#1677=DIRECTION('',(-1.,0.,0.));
#1678=DIRECTION('',(0.,0.,-1.));
#1679=DIRECTION('',(-1.,0.,0.));
#1680=DIRECTION('',(-1.,0.,0.));
#1681=DIRECTION('',(0.,0.,1.));
#1682=DIRECTION('',(0.,-1.,0.));
#1683=DIRECTION('',(0.,-1.,0.));
#1684=DIRECTION('',(-1.,0.,0.));
#1685=DIRECTION('',(0.,0.,1.));
#1686=DIRECTION('',(0.,-1.,0.));
#1687=DIRECTION('',(0.,-1.,0.));
#1688=DIRECTION('',(0.,0.,1.));
#1689=DIRECTION('',(1.,0.,0.));
#1690=DIRECTION('',(0.,0.,-1.));
#1691=DIRECTION('',(1.,0.,0.));
#1692=DIRECTION('',(0.,0.,-1.));
#1693=DIRECTION('',(1.,0.,0.));
#1694=DIRECTION('',(0.,0.,-1.));
#1695=DIRECTION('',(1.,0.,0.));
#1696=DIRECTION('',(5.74253288599219E-16,-1.,0.));
#1697=DIRECTION('',(1.,0.,0.));
#1698=DIRECTION('',(5.74253288599219E-16,-1.,0.));
#1699=DIRECTION('',(1.,0.,0.));
#1700=DIRECTION('',(4.08170229641602E-16,-1.,0.));
#1701=DIRECTION('',(1.,-4.6259292692715E-16,0.));
#1702=DIRECTION('',(4.08170229641602E-16,-1.,0.));
#1703=DIRECTION('',(-1.,4.62592926927149E-16,0.));
#1704=DIRECTION('',(-1.,0.,0.));
#1705=DIRECTION('',(0.,-1.,0.));
#1706=DIRECTION('',(-1.,0.,0.));
#1707=DIRECTION('',(0.,-1.,0.));
#1708=DIRECTION('',(-1.,0.,0.));
#1709=DIRECTION('',(7.93016446160827E-16,-1.,0.));
#1710=DIRECTION('',(-1.,0.,0.));
#1711=DIRECTION('',(7.93016446160826E-16,-1.,0.));
#1712=DIRECTION('',(1.,0.,0.));
#1713=DIRECTION('',(0.,-1.,0.));
#1714=DIRECTION('',(-1.,0.,0.));
#1715=DIRECTION('',(0.,-1.,0.));
#1716=DIRECTION('',(-1.,0.,0.));
#1717=DIRECTION('',(-0.707106781186549,-0.707106781186546,0.));
#1718=DIRECTION('',(0.,-1.,0.));
#1719=DIRECTION('',(-1.,0.,0.));
#1720=DIRECTION('',(-3.41607084500048E-16,-1.,0.));
#1721=DIRECTION('',(-1.,0.,0.));
#1722=DIRECTION('',(0.,1.,0.));
#1723=DIRECTION('',(-0.707106781186548,0.707106781186548,0.));
#1724=DIRECTION('',(0.,0.,1.));
#1725=DIRECTION('',(1.,0.,0.));
#1726=DIRECTION('',(0.,0.,1.));
#1727=DIRECTION('',(1.,0.,0.));
#1728=DIRECTION('',(0.,0.,1.));
#1729=DIRECTION('',(1.,0.,0.));
#1730=DIRECTION('',(0.,0.,-1.));
#1731=DIRECTION('',(1.,0.,0.));
#1732=DIRECTION('',(0.,0.,-1.));
#1733=DIRECTION('',(-1.,0.,0.));
#1734=DIRECTION('',(0.,0.,-1.));
#1735=DIRECTION('',(-1.,0.,0.));
#1736=DIRECTION('',(0.,0.,-1.));
#1737=DIRECTION('',(-1.,0.,0.));
#1738=DIRECTION('',(1.,0.,0.));
#1739=DIRECTION('',(0.,-1.,0.));
#1740=DIRECTION('',(-1.,0.,0.));
#1741=DIRECTION('',(0.,-1.,0.));
#1742=DIRECTION('',(-1.,0.,0.));
#1743=DIRECTION('',(0.,-1.,0.));
#1744=DIRECTION('',(0.,-1.,0.));
#1745=DIRECTION('',(7.93016446160827E-16,-1.,0.));
#1746=DIRECTION('',(-1.,0.,0.));
#1747=DIRECTION('',(7.93016446160826E-16,-1.,0.));
#1748=DIRECTION('',(4.08170229641602E-16,-1.,0.));
#1749=DIRECTION('',(-1.,4.62592926927149E-16,0.));
#1750=DIRECTION('',(4.08170229641602E-16,-1.,0.));
#1751=DIRECTION('',(1.,-4.6259292692715E-16,0.));
#1752=DIRECTION('',(0.,0.,-1.));
#1753=DIRECTION('',(-1.,0.,0.));
#1754=DIRECTION('',(0.,0.,-1.));
#1755=DIRECTION('',(-1.,0.,0.));
#1756=DIRECTION('',(0.,0.,-1.));
#1757=DIRECTION('',(-1.,0.,0.));
#1758=DIRECTION('',(0.,-1.,0.));
#1759=DIRECTION('',(0.,0.,-1.));
#1760=DIRECTION('',(0.,0.,-1.));
#1761=DIRECTION('',(0.,0.,1.));
#1762=DIRECTION('',(-1.,0.,0.));
#1763=DIRECTION('',(0.,0.,-1.));
#1764=DIRECTION('',(0.,-1.,0.));
#1765=DIRECTION('',(0.,0.,-1.));
#1766=DIRECTION('',(9.83799901652689E-17,0.,-1.));
#1767=DIRECTION('',(-1.,0.,0.));
#1768=DIRECTION('',(0.,0.,-1.));
#1769=DIRECTION('',(0.,0.,1.));
#1770=DIRECTION('',(1.,0.,0.));
#1771=DIRECTION('',(0.,1.,0.));
#1772=DIRECTION('',(0.,-1.,0.));
#1773=DIRECTION('',(0.,1.,0.));
#1774=DIRECTION('',(-3.41607084500048E-16,-1.,0.));
#1775=DIRECTION('',(0.,0.,1.));
#1776=DIRECTION('',(1.,0.,0.));
#1777=DIRECTION('',(0.,0.,-1.));
#1778=DIRECTION('',(1.,0.,0.));
#1779=DIRECTION('',(0.,-1.,0.));
#1780=DIRECTION('',(1.,0.,0.));
#1781=DIRECTION('',(0.707106781186548,0.707106781186548,0.));
#1782=DIRECTION('',(0.707106781186548,-0.707106781186548,0.));
#1783=DIRECTION('',(-5.74253288599219E-16,1.,0.));
#1784=DIRECTION('',(-1.,0.,0.));
#1785=DIRECTION('',(-5.74253288599219E-16,1.,0.));
#1786=DIRECTION('',(0.707106781186548,-0.707106781186548,0.));
#1787=DIRECTION('',(0.707106781186548,0.707106781186548,0.));
#1788=DIRECTION('',(-1.,0.,0.));
#1789=DIRECTION('',(-3.41607084500048E-16,-1.,0.));
#1790=DIRECTION('',(-0.707106781186548,0.707106781186548,0.));
#1791=DIRECTION('',(0.,1.,0.));
#1792=DIRECTION('',(0.,0.,1.));
#1793=DIRECTION('',(-9.83799901652689E-17,0.,1.));
#1794=DIRECTION('',(0.,0.,-1.));
#1795=DIRECTION('',(1.,0.,0.));
#1796=DIRECTION('',(0.,0.,-1.));
#1797=DIRECTION('',(0.,0.,1.));
#1798=DIRECTION('',(1.,0.,0.));
#1799=DIRECTION('',(7.93016446160827E-16,-1.,0.));
#1800=DIRECTION('',(7.93016446160826E-16,-1.,0.));
#1801=DIRECTION('',(-1.,0.,0.));
#1802=DIRECTION('',(0.,0.,1.));
#1803=DIRECTION('',(1.,0.,0.));
#1804=DIRECTION('',(0.,0.,1.));
#1805=DIRECTION('',(1.,0.,0.));
#1806=DIRECTION('',(-1.,0.,0.));
#1807=DIRECTION('',(-5.74253288599219E-16,1.,0.));
#1808=DIRECTION('',(-0.707106781186549,-0.707106781186546,0.));
#1809=DIRECTION('',(0.707106781186546,-0.707106781186549,0.));
#1810=DIRECTION('',(0.,-1.,0.));
#1811=DIRECTION('',(-0.707106781186548,-0.707106781186548,0.));
#1812=DIRECTION('',(-3.41607084500048E-16,-1.,0.));
#1813=DIRECTION('',(-1.,0.,0.));
#1814=DIRECTION('',(0.707106781186546,-0.707106781186549,0.));
#1815=DIRECTION('',(-0.707106781186549,-0.707106781186546,0.));
#1816=DIRECTION('',(-5.74253288599219E-16,1.,0.));
#1817=DIRECTION('',(0.,0.,1.));
#1818=DIRECTION('',(1.,0.,0.));
#1819=DIRECTION('',(0.,0.,1.));
#1820=DIRECTION('',(1.,0.,0.));
#1821=DIRECTION('',(-5.74253288599219E-16,1.,0.));
#1822=DIRECTION('',(-1.,0.,0.));
#1823=DIRECTION('',(-5.74253288599219E-16,1.,0.));
#1824=DIRECTION('',(-0.707106781186549,-0.707106781186546,0.));
#1825=DIRECTION('',(0.707106781186546,-0.707106781186549,0.));
#1826=DIRECTION('',(-1.,0.,0.));
#1827=DIRECTION('',(0.,-1.,0.));
#1828=DIRECTION('',(-0.707106781186549,-0.707106781186546,0.));
#1829=DIRECTION('',(-1.,0.,0.));
#1830=DIRECTION('',(0.,-1.,0.));
#1831=DIRECTION('',(0.707106781186546,-0.707106781186549,0.));
#1832=DIRECTION('',(-0.707106781186549,-0.707106781186546,0.));
#1833=DIRECTION('',(-0.707106781186546,0.707106781186549,0.));
#1834=DIRECTION('',(-0.707106781186549,-0.707106781186546,0.));
#1835=DIRECTION('',(0.,0.,-1.));
#1836=DIRECTION('',(0.,0.,-1.));
#1837=DIRECTION('',(0.,0.,1.));
#1838=DIRECTION('',(1.,0.,0.));
#1839=DIRECTION('',(0.,0.,1.));
#1840=DIRECTION('',(1.,0.,0.));
#1841=DIRECTION('',(-5.74253288599219E-16,1.,0.));
#1842=DIRECTION('',(0.707106781186548,-0.707106781186548,0.));
#1843=DIRECTION('',(0.707106781186548,0.707106781186548,0.));
#1844=DIRECTION('',(0.707106781186548,-0.707106781186548,0.));
#1845=DIRECTION('',(0.,1.,0.));
#1846=DIRECTION('',(0.707106781186548,0.707106781186548,0.));
#1847=DIRECTION('',(0.707106781186548,-0.707106781186548,0.));
#1848=DIRECTION('',(-5.74253288599219E-16,1.,0.));
#1849=DIRECTION('',(-1.,0.,0.));
#1850=DIRECTION('',(-0.707106781186548,-0.707106781186548,0.));
#1851=DIRECTION('',(0.707106781186548,-0.707106781186548,0.));
#1852=DIRECTION('',(0.,0.,1.));
#1853=DIRECTION('',(0.,0.,-1.));
#1854=DIRECTION('',(-1.,0.,0.));
#1855=DIRECTION('',(0.,0.,1.));
#1856=DIRECTION('',(0.,0.,-1.));
#1857=DIRECTION('',(0.,0.,-1.));
#1858=DIRECTION('',(0.707106781186546,-0.707106781186549,0.));
#1859=DIRECTION('',(0.707106781186549,0.707106781186546,0.));
#1860=DIRECTION('',(0.,0.,-1.));
#1861=DIRECTION('',(0.,0.,-1.));
#1862=DIRECTION('',(0.,-1.,0.));
#1863=DIRECTION('',(0.,0.,-1.));
#1864=DIRECTION('',(0.,0.,-1.));
#1865=DIRECTION('',(0.,0.,-1.));
#1866=DIRECTION('',(0.,0.,-1.));
#1867=DIRECTION('',(1.,0.,0.));
#1868=DIRECTION('',(0.,0.,-1.));
#1869=DIRECTION('',(0.,-1.,0.));
#1870=DIRECTION('',(0.,0.,-1.));
#1871=DIRECTION('',(0.,0.,-1.));
#1872=DIRECTION('',(1.,0.,0.));
#1873=DIRECTION('',(0.,0.,-1.));
#1874=DIRECTION('',(0.,0.,-1.));
#1875=DIRECTION('',(1.,-3.41607084500048E-16,0.));
#1876=DIRECTION('',(3.41607084500048E-16,1.,0.));
#1877=DIRECTION('',(0.,0.,1.));
#1878=DIRECTION('',(0.,0.,-1.));
#1879=DIRECTION('',(0.,0.,-1.));
#1880=DIRECTION('',(3.41607084500048E-16,1.,0.));
#1881=DIRECTION('',(0.707106781186548,0.707106781186548,0.));
#1882=DIRECTION('',(0.,0.,1.));
#1883=DIRECTION('',(0.707106781186548,-0.707106781186548,0.));
#1884=DIRECTION('',(-0.707106781186548,0.707106781186548,0.));
#1885=DIRECTION('',(0.,0.,-1.));
#1886=DIRECTION('',(0.707106781186548,0.707106781186548,0.));
#1887=DIRECTION('',(0.707106781186547,-2.4155268595135E-16,-0.707106781186548));
#1888=DIRECTION('',(3.41607084500048E-16,1.,0.));
#1889=DIRECTION('',(-0.707106781186548,-2.32248400940087E-32,-0.707106781186547));
#1890=DIRECTION('',(0.707106781186548,0.,0.707106781186547));
#1891=DIRECTION('',(0.577350269189626,0.577350269189626,-0.577350269189626));
#1892=DIRECTION('',(-0.707106781186548,0.,-0.707106781186547));
#1893=DIRECTION('',(0.577350269189626,-0.577350269189626,-0.577350269189626));
#1894=DIRECTION('',(-0.707106781186548,0.,-0.707106781186547));
#1895=DIRECTION('',(-0.707106781186548,-0.707106781186548,0.));
#1896=DIRECTION('',(0.707106781186548,-0.707106781186548,0.));
#1897=DIRECTION('',(0.,-1.,0.));
#1898=DIRECTION('',(0.,0.,-1.));
#1899=DIRECTION('',(0.,0.,-1.));
#1900=DIRECTION('',(-0.707106781186549,-0.707106781186546,0.));
#1901=DIRECTION('',(0.707106781186546,-0.707106781186549,0.));
#1902=DIRECTION('',(0.,0.,-1.));
#1903=DIRECTION('',(-0.707106781186549,-0.707106781186546,0.));
#1904=DIRECTION('',(0.707106781186546,-0.707106781186549,0.));
#1905=DIRECTION('',(-0.707106781186546,0.707106781186549,0.));
#1906=DIRECTION('',(-0.707106781186549,-0.707106781186546,0.));
#1907=DIRECTION('',(0.,0.,-1.));
#1908=DIRECTION('',(0.707106781186548,-0.707106781186548,0.));
#1909=DIRECTION('',(0.707106781186548,0.707106781186548,0.));
#1910=DIRECTION('',(0.707106781186548,-0.707106781186548,0.));
#1911=DIRECTION('',(0.707106781186548,0.707106781186548,0.));
#1912=DIRECTION('',(0.,0.,-1.));
#1913=DIRECTION('',(-0.707106781186548,-0.707106781186548,0.));
#1914=DIRECTION('',(0.707106781186548,-0.707106781186548,0.));
#1915=DIRECTION('',(0.,0.,1.));
#1916=DIRECTION('',(0.,0.,1.));
#1917=DIRECTION('',(1.,0.,0.));
#1918=DIRECTION('',(0.,0.,1.));
#1919=DIRECTION('',(1.,0.,0.));
#1920=DIRECTION('',(0.,-1.,0.));
#1921=DIRECTION('',(0.,0.,-1.));
#1922=DIRECTION('',(0.,0.,1.));
#1923=DIRECTION('',(1.,0.,0.));
#1924=DIRECTION('',(0.,0.,1.));
#1925=DIRECTION('',(-1.,-5.74253288599219E-16,0.));
#1926=DIRECTION('',(5.74253288599219E-16,-1.,0.));
#1927=DIRECTION('',(0.,0.,1.));
#1928=DIRECTION('',(5.74253288599219E-16,-1.,0.));
#1929=DIRECTION('',(0.,-1.,0.));
#1930=DIRECTION('',(0.,0.,-1.));
#1931=DIRECTION('',(0.,0.,1.));
#1932=DIRECTION('',(1.,0.,0.));
#1933=DIRECTION('',(-1.,-5.74253288599219E-16,0.));
#1934=DIRECTION('',(5.74253288599219E-16,-1.,0.));
#1935=DIRECTION('',(5.74253288599219E-16,-1.,0.));
#1936=DIRECTION('',(0.,0.,1.));
#1937=DIRECTION('',(1.,0.,0.));
#1938=DIRECTION('',(1.,5.74253288599219E-16,0.));
#1939=DIRECTION('',(-5.74253288599219E-16,1.,0.));
#1940=DIRECTION('',(0.,0.,-1.));
#1941=DIRECTION('',(1.,5.74253288599219E-16,0.));
#1942=DIRECTION('',(-5.74253288599219E-16,1.,0.));
#1943=DIRECTION('',(0.,0.,-1.));
#1944=DIRECTION('',(0.,1.,0.));
#1945=DIRECTION('',(0.,0.,1.));
#1946=DIRECTION('',(0.,1.,0.));
#1947=DIRECTION('',(0.,0.,1.));
#1948=DIRECTION('',(0.,0.,-1.));
#1949=DIRECTION('',(0.,0.,-1.));
#1950=DIRECTION('',(1.,5.74253288599219E-16,0.));
#1951=DIRECTION('',(-5.74253288599219E-16,1.,0.));
#1952=DIRECTION('',(1.,5.74253288599219E-16,0.));
#1953=DIRECTION('',(-5.74253288599219E-16,1.,0.));
#1954=DIRECTION('',(-4.6259292692715E-16,-1.,0.));
#1955=DIRECTION('',(1.,-4.6259292692715E-16,0.));
#1956=DIRECTION('',(0.,0.,1.));
#1957=DIRECTION('',(0.,0.,1.));
#1958=DIRECTION('',(-1.,-4.08170229641602E-16,0.));
#1959=DIRECTION('',(4.08170229641602E-16,-1.,0.));
#1960=DIRECTION('',(0.,0.,1.));
#1961=DIRECTION('',(4.62592926927149E-16,1.,0.));
#1962=DIRECTION('',(-1.,4.62592926927149E-16,0.));
#1963=DIRECTION('',(0.,0.,1.));
#1964=DIRECTION('',(-1.,-4.08170229641602E-16,0.));
#1965=DIRECTION('',(4.08170229641602E-16,-1.,0.));
#1966=DIRECTION('',(-1.,0.,0.));
#1967=DIRECTION('',(0.,0.,1.));
#1968=DIRECTION('',(0.,0.,1.));
#1969=DIRECTION('',(0.,-1.,0.));
#1970=DIRECTION('',(0.,0.,1.));
#1971=DIRECTION('',(0.,1.,0.));
#1972=DIRECTION('',(0.,0.,1.));
#1973=DIRECTION('',(0.,0.,1.));
#1974=DIRECTION('',(-1.,0.,0.));
#1975=DIRECTION('',(-1.,0.,0.));
#1976=DIRECTION('',(0.,0.,1.));
#1977=DIRECTION('',(0.,0.,1.));
#1978=DIRECTION('',(0.,-1.,0.));
#1979=DIRECTION('',(0.,1.,0.));
#1980=DIRECTION('',(0.,0.,1.));
#1981=DIRECTION('',(0.,0.,1.));
#1982=DIRECTION('',(1.,0.,0.));
#1983=DIRECTION('',(-1.,-7.93016446160827E-16,0.));
#1984=DIRECTION('',(7.93016446160827E-16,-1.,0.));
#1985=DIRECTION('',(0.,0.,1.));
#1986=DIRECTION('',(0.,0.,1.));
#1987=DIRECTION('',(0.,1.,0.));
#1988=DIRECTION('',(0.,0.,1.));
#1989=DIRECTION('',(0.,0.,1.));
#1990=DIRECTION('',(-1.,-7.93016446160826E-16,0.));
#1991=DIRECTION('',(7.93016446160826E-16,-1.,0.));
#1992=DIRECTION('',(0.,0.,1.));
#1993=DIRECTION('',(0.,1.,0.));
#1994=DIRECTION('',(0.,0.,1.));
#1995=DIRECTION('',(1.,0.,0.));
#1996=DIRECTION('',(0.,0.,-1.));
#1997=DIRECTION('',(-1.,0.,-9.83799901652689E-17));
#1998=DIRECTION('',(-9.83799901652689E-17,0.,1.));
#1999=DIRECTION('',(0.,0.,1.));
#2000=DIRECTION('',(1.,0.,0.));
#2001=DIRECTION('',(0.,0.,1.));
#2002=DIRECTION('',(1.,0.,0.));
#2003=DIRECTION('',(0.,0.,1.));
#2004=DIRECTION('',(1.,0.,0.));
#2005=DIRECTION('',(0.,0.,1.));
#2006=DIRECTION('',(1.,0.,0.));
#2007=DIRECTION('',(0.,0.,1.));
#2008=DIRECTION('',(1.,0.,0.));
#2009=DIRECTION('',(0.,0.,1.));
#2010=DIRECTION('',(1.,0.,0.));
#2011=DIRECTION('',(0.,0.,-1.));
#2012=DIRECTION('',(1.,0.,0.));
#2013=DIRECTION('',(0.,1.,0.));
#2014=DIRECTION('',(-1.,0.,0.));
#2015=DIRECTION('',(0.,0.,1.));
#2016=DIRECTION('',(-1.,0.,0.));
#2017=DIRECTION('',(0.,0.,1.));
#2018=DIRECTION('',(0.,1.,0.));
#2019=DIRECTION('',(0.,0.,-1.));
#2020=DIRECTION('',(1.,0.,0.));
#2021=CARTESIAN_POINT('',(0.,0.,0.));
#2022=CARTESIAN_POINT('',(5.55111512312578E-17,0.1625,0.01));
#2023=CARTESIAN_POINT('',(0.,0.1525,0.));
#2024=CARTESIAN_POINT('',(0.12,0.1525,-1.47451495458029E-17));
#2025=CARTESIAN_POINT('',(0.175,0.1525,0.));
#2026=CARTESIAN_POINT('',(0.12,0.1625,0.01));
#2027=CARTESIAN_POINT('',(0.12,0.1575,0.005));
#2028=CARTESIAN_POINT('',(5.55111512312578E-17,0.1575,0.005));
#2029=CARTESIAN_POINT('',(0.115,0.1575,0.005));
#2030=CARTESIAN_POINT('',(0.115,0.1625,0.01));
#2031=CARTESIAN_POINT('',(0.115,0.1625,0.01));
#2032=CARTESIAN_POINT('',(5.55111512312578E-17,0.1625,0.01));
#2033=CARTESIAN_POINT('',(0.175,0.1625,0.01));
#2034=CARTESIAN_POINT('',(0.175,0.1575,0.005));
#2035=CARTESIAN_POINT('',(0.,-0.1525,0.));
#2036=CARTESIAN_POINT('',(0.,-0.1575,0.005));
#2037=CARTESIAN_POINT('',(0.115,-0.1575,0.005));
#2038=CARTESIAN_POINT('',(0.12,-0.1575,0.005));
#2039=CARTESIAN_POINT('',(0.12,-0.1525,0.));
#2040=CARTESIAN_POINT('',(0.12,-0.1525,-1.38777878078145E-17));
#2041=CARTESIAN_POINT('',(-0.185,-0.1525,0.));
#2042=CARTESIAN_POINT('',(0.175,-0.1525,0.));
#2043=CARTESIAN_POINT('',(0.175,-0.1525,0.));
#2044=CARTESIAN_POINT('',(0.175,-0.1625,0.01));
#2045=CARTESIAN_POINT('',(0.185,-0.1625,0.01));
#2046=CARTESIAN_POINT('',(0.115,-0.1625,0.01));
#2047=CARTESIAN_POINT('',(0.115,-0.1525,0.));
#2048=CARTESIAN_POINT('',(0.,0.1325,0.01));
#2049=CARTESIAN_POINT('',(0.,0.1325,0.005));
#2050=CARTESIAN_POINT('',(0.115,0.1325,0.005));
#2051=CARTESIAN_POINT('',(0.12,0.1325,0.005));
#2052=CARTESIAN_POINT('',(0.12,0.1325,0.01));
#2053=CARTESIAN_POINT('',(0.12,0.1325,0.));
#2054=CARTESIAN_POINT('',(0.,0.1325,0.));
#2055=CARTESIAN_POINT('',(0.155,0.1325,0.));
#2056=CARTESIAN_POINT('',(0.155,0.1325,0.01));
#2057=CARTESIAN_POINT('',(0.155,0.1325,0.01));
#2058=CARTESIAN_POINT('',(0.,0.1325,0.01));
#2059=CARTESIAN_POINT('',(0.1475,0.1325,0.01));
#2060=CARTESIAN_POINT('',(0.,0.1325,0.01));
#2061=CARTESIAN_POINT('',(0.1325,0.1325,0.01));
#2062=CARTESIAN_POINT('',(0.,0.1325,0.01));
#2063=CARTESIAN_POINT('',(0.115,0.1325,0.01));
#2064=CARTESIAN_POINT('',(0.115,0.1325,0.01));
#2065=CARTESIAN_POINT('',(0.,-0.1325,0.01));
#2066=CARTESIAN_POINT('',(0.12,-0.1325,0.01));
#2067=CARTESIAN_POINT('',(0.12,-0.1325,0.005));
#2068=CARTESIAN_POINT('',(0.12,-0.1325,0.));
#2069=CARTESIAN_POINT('',(0.,-0.1325,0.005));
#2070=CARTESIAN_POINT('',(0.115,-0.1325,0.005));
#2071=CARTESIAN_POINT('',(0.115,-0.1325,0.01));
#2072=CARTESIAN_POINT('',(0.115,-0.1325,0.01));
#2073=CARTESIAN_POINT('',(0.,-0.1325,0.01));
#2074=CARTESIAN_POINT('',(0.1325,-0.1325,0.01));
#2075=CARTESIAN_POINT('',(0.,-0.1325,0.01));
#2076=CARTESIAN_POINT('',(0.1475,-0.1325,0.01));
#2077=CARTESIAN_POINT('',(0.,-0.1325,0.01));
#2078=CARTESIAN_POINT('',(0.155,-0.1325,0.01));
#2079=CARTESIAN_POINT('',(0.155,-0.1325,0.01));
#2080=CARTESIAN_POINT('',(0.155,-0.1325,0.));
#2081=CARTESIAN_POINT('',(0.,-0.1325,0.));
#2082=CARTESIAN_POINT('',(0.115,0.8375,0.005));
#2083=CARTESIAN_POINT('',(0.115,0.8375,0.005));
#2084=CARTESIAN_POINT('',(0.115,0.8375,0.01));
#2085=CARTESIAN_POINT('',(0.115,0.8375,0.005));
#2086=CARTESIAN_POINT('',(0.115,0.8375,0.005));
#2087=CARTESIAN_POINT('',(0.115,0.8375,0.01));
#2088=CARTESIAN_POINT('',(0.,0.,0.02));
#2089=CARTESIAN_POINT('',(0.11,-0.145,0.02));
#2090=CARTESIAN_POINT('',(0.1125,-0.145,0.02));
#2091=CARTESIAN_POINT('',(0.11,-0.1375,0.02));
#2092=CARTESIAN_POINT('',(0.1125,-0.1375,0.02));
#2093=CARTESIAN_POINT('',(0.11,-0.1525,0.02));
#2094=CARTESIAN_POINT('',(0.1125,-0.1525,0.02));
#2095=CARTESIAN_POINT('',(0.1745,1.11022302462516E-16,0.02));
#2096=CARTESIAN_POINT('',(0.1745,0.145,0.02));
#2097=CARTESIAN_POINT('',(0.1745,-0.145,0.02));
#2098=CARTESIAN_POINT('',(0.1755,0.145,0.02));
#2099=CARTESIAN_POINT('',(0.1765,0.145,0.02));
#2100=CARTESIAN_POINT('',(0.1765,1.11022302462516E-16,0.02));
#2101=CARTESIAN_POINT('',(0.1765,-0.145,0.02));
#2102=CARTESIAN_POINT('',(0.1755,-0.145,0.02));
#2103=CARTESIAN_POINT('',(0.1225,-0.028,0.02));
#2104=CARTESIAN_POINT('',(0.1225,0.006,0.02));
#2105=CARTESIAN_POINT('',(0.1225,-0.062,0.02));
#2106=CARTESIAN_POINT('',(0.13,0.006,0.02));
#2107=CARTESIAN_POINT('',(0.1375,0.0060000000000001,0.02));
#2108=CARTESIAN_POINT('',(0.1375,-0.028,0.02));
#2109=CARTESIAN_POINT('',(0.1375,-0.062,0.02));
#2110=CARTESIAN_POINT('',(0.13,-0.062,0.02));
#2111=CARTESIAN_POINT('',(0.14,0.151,0.02));
#2112=CARTESIAN_POINT('',(0.1475,0.151,0.02));
#2113=CARTESIAN_POINT('',(0.1325,0.151,0.02));
#2114=CARTESIAN_POINT('',(0.1475,0.1335,0.02));
#2115=CARTESIAN_POINT('',(0.1475,0.116,0.02));
#2116=CARTESIAN_POINT('',(0.14,0.116,0.02));
#2117=CARTESIAN_POINT('',(0.1325,0.116,0.02));
#2118=CARTESIAN_POINT('',(0.1325,0.1335,0.02));
#2119=CARTESIAN_POINT('',(0.14,-0.118,0.02));
#2120=CARTESIAN_POINT('',(0.1475,-0.118,0.02));
#2121=CARTESIAN_POINT('',(0.1325,-0.118,0.02));
#2122=CARTESIAN_POINT('',(0.1475,-0.1355,0.02));
#2123=CARTESIAN_POINT('',(0.1475,-0.153,0.02));
#2124=CARTESIAN_POINT('',(0.14,-0.153,0.02));
#2125=CARTESIAN_POINT('',(0.1325,-0.153,0.02));
#2126=CARTESIAN_POINT('',(0.1325,-0.1355,0.02));
#2127=CARTESIAN_POINT('',(-0.168964466094068,0.1575,0.02));
#2128=CARTESIAN_POINT('',(0.105,0.1575,0.02));
#2129=CARTESIAN_POINT('',(0.172928932188134,0.1575,0.02));
#2130=CARTESIAN_POINT('',(0.105,0.8375,0.02));
#2131=CARTESIAN_POINT('',(0.105,-0.1625,0.02));
#2132=CARTESIAN_POINT('',(-5.55111512312578E-17,-0.1625,0.02));
#2133=CARTESIAN_POINT('',(0.165,-0.1625,0.02));
#2134=CARTESIAN_POINT('',(0.165,-0.16,0.02));
#2135=CARTESIAN_POINT('',(0.165,-0.1575,0.02));
#2136=CARTESIAN_POINT('',(0.168964466094068,-0.1575,0.02));
#2137=CARTESIAN_POINT('',(0.172928932188134,-0.1575,0.02));
#2138=CARTESIAN_POINT('',(0.176464466094067,-0.153964466094067,0.02));
#2139=CARTESIAN_POINT('',(0.18,-0.150428932188134,0.02));
#2140=CARTESIAN_POINT('',(0.18,-0.146464466094067,0.02));
#2141=CARTESIAN_POINT('',(0.18,-0.1425,0.02));
#2142=CARTESIAN_POINT('',(0.1825,-0.1425,0.02));
#2143=CARTESIAN_POINT('',(0.185,-0.1425,0.02));
#2144=CARTESIAN_POINT('',(0.185,0.,0.02));
#2145=CARTESIAN_POINT('',(0.185,0.1425,0.02));
#2146=CARTESIAN_POINT('',(0.1825,0.1425,0.02));
#2147=CARTESIAN_POINT('',(0.18,0.1425,0.02));
#2148=CARTESIAN_POINT('',(0.18,0.146464466094067,0.02));
#2149=CARTESIAN_POINT('',(0.18,0.150428932188134,0.02));
#2150=CARTESIAN_POINT('',(0.176464466094067,0.153964466094067,0.02));
#2151=CARTESIAN_POINT('',(0.11,0.1375,0.02));
#2152=CARTESIAN_POINT('',(0.1125,0.1375,0.02));
#2153=CARTESIAN_POINT('',(0.11,0.145,0.02));
#2154=CARTESIAN_POINT('',(0.1125,0.145,0.02));
#2155=CARTESIAN_POINT('',(0.11,0.1525,0.02));
#2156=CARTESIAN_POINT('',(0.1125,0.1525,0.02));
#2157=CARTESIAN_POINT('',(0.,2.77555756156289E-17,0.01));
#2158=CARTESIAN_POINT('',(0.11,-0.145,0.01));
#2159=CARTESIAN_POINT('',(0.1075,-0.145,0.01));
#2160=CARTESIAN_POINT('',(0.11,-0.1375,0.01));
#2161=CARTESIAN_POINT('',(0.1075,-0.1375,0.01));
#2162=CARTESIAN_POINT('',(0.11,-0.1525,0.01));
#2163=CARTESIAN_POINT('',(0.1075,-0.1525,0.01));
#2164=CARTESIAN_POINT('',(0.185,-0.1625,0.01));
#2165=CARTESIAN_POINT('',(0.105,-0.1625,0.01));
#2166=CARTESIAN_POINT('',(0.105,0.8375,0.01));
#2167=CARTESIAN_POINT('',(0.105,0.1625,0.01));
#2168=CARTESIAN_POINT('',(5.55111512312578E-17,0.1625,0.01));
#2169=CARTESIAN_POINT('',(0.1325,0.1335,0.01));
#2170=CARTESIAN_POINT('',(0.1325,0.116,0.01));
#2171=CARTESIAN_POINT('',(0.14,0.116,0.01));
#2172=CARTESIAN_POINT('',(0.1475,0.116,0.01));
#2173=CARTESIAN_POINT('',(0.1475,0.1335,0.01));
#2174=CARTESIAN_POINT('',(0.155,0.,0.01));
#2175=CARTESIAN_POINT('',(0.1475,-0.1355,0.01));
#2176=CARTESIAN_POINT('',(0.1475,-0.118,0.01));
#2177=CARTESIAN_POINT('',(0.14,-0.118,0.01));
#2178=CARTESIAN_POINT('',(0.1325,-0.118,0.01));
#2179=CARTESIAN_POINT('',(0.1325,-0.1355,0.01));
#2180=CARTESIAN_POINT('',(0.1225,-0.028,0.01));
#2181=CARTESIAN_POINT('',(0.1225,0.006,0.01));
#2182=CARTESIAN_POINT('',(0.1225,-0.062,0.01));
#2183=CARTESIAN_POINT('',(0.13,-0.062,0.01));
#2184=CARTESIAN_POINT('',(0.1375,-0.062,0.01));
#2185=CARTESIAN_POINT('',(0.1375,-0.028,0.01));
#2186=CARTESIAN_POINT('',(0.1375,0.0060000000000001,0.01));
#2187=CARTESIAN_POINT('',(0.13,0.006,0.01));
#2188=CARTESIAN_POINT('',(0.11,0.1375,0.01));
#2189=CARTESIAN_POINT('',(0.1075,0.1375,0.01));
#2190=CARTESIAN_POINT('',(0.11,0.145,0.01));
#2191=CARTESIAN_POINT('',(0.1075,0.145,0.01));
#2192=CARTESIAN_POINT('',(0.11,0.1525,0.01));
#2193=CARTESIAN_POINT('',(0.1075,0.1525,0.01));
#2194=CARTESIAN_POINT('',(-5.55111512312578E-17,-0.1625,0.02));
#2195=CARTESIAN_POINT('',(0.105,-0.1625,0.015));
#2196=CARTESIAN_POINT('',(0.175,-0.1625,0.02));
#2197=CARTESIAN_POINT('',(0.175,-0.1625,0.275));
#2198=CARTESIAN_POINT('',(-5.55111512312578E-17,-0.1625,0.275));
#2199=CARTESIAN_POINT('',(0.165,-0.1625,0.275));
#2200=CARTESIAN_POINT('',(0.165,-0.1625,0.275));
#2201=CARTESIAN_POINT('',(5.55111512312578E-17,0.1625,0.02));
#2202=CARTESIAN_POINT('',(0.105,0.1625,0.02));
#2203=CARTESIAN_POINT('',(0.105,0.1625,0.275));
#2204=CARTESIAN_POINT('',(5.55111512312578E-17,0.1625,0.275));
#2205=CARTESIAN_POINT('',(0.175,0.1625,0.275));
#2206=CARTESIAN_POINT('',(0.175,0.1625,0.));
#2207=CARTESIAN_POINT('',(0.,0.,0.));
#2208=CARTESIAN_POINT('',(0.12,-2.77555756156289E-17,0.));
#2209=CARTESIAN_POINT('',(0.155,0.,0.));
#2210=CARTESIAN_POINT('',(0.12,-2.77555756156289E-17,0.));
#2211=CARTESIAN_POINT('',(0.175,-0.1625,0.));
#2212=CARTESIAN_POINT('',(2.77555756156289E-17,2.77555756156289E-17,0.275));
#2213=CARTESIAN_POINT('',(0.172928932188135,0.150428932188135,0.275));
#2214=CARTESIAN_POINT('',(0.175428932188135,0.150428932188135,0.275));
#2215=CARTESIAN_POINT('',(0.105,2.77555756156289E-17,0.275));
#2216=CARTESIAN_POINT('',(0.105,0.1575,0.275));
#2217=CARTESIAN_POINT('',(-0.168964466094068,0.1575,0.275));
#2218=CARTESIAN_POINT('',(0.164443650813896,0.1575,0.275));
#2219=CARTESIAN_POINT('',(0.16161522368915,0.154671572875254,0.275));
#2220=CARTESIAN_POINT('',(0.16161522368915,0.154671572875254,0.275));
#2221=CARTESIAN_POINT('',(0.169254310985676,0.147032485578728,0.275));
#2222=CARTESIAN_POINT('',(0.1745,0.141786796564404,0.275));
#2223=CARTESIAN_POINT('',(0.1745,1.27962774476193E-16,0.275));
#2224=CARTESIAN_POINT('',(0.1745,0.145,0.275));
#2225=CARTESIAN_POINT('',(2.77555756156289E-17,0.145,0.275));
#2226=CARTESIAN_POINT('',(0.1765,0.145,0.275));
#2227=CARTESIAN_POINT('',(0.1765,1.29111281053391E-16,0.275));
#2228=CARTESIAN_POINT('',(0.1765,0.139786796564404,0.275));
#2229=CARTESIAN_POINT('',(0.169254310985676,0.147032485578728,0.275));
#2230=CARTESIAN_POINT('',(0.176893398282202,0.139393398282202,0.275));
#2231=CARTESIAN_POINT('',(0.176893398282202,0.139393398282202,0.275));
#2232=CARTESIAN_POINT('',(0.18,0.1425,0.275));
#2233=CARTESIAN_POINT('',(0.1825,0.1425,0.275));
#2234=CARTESIAN_POINT('',(0.185,0.1425,0.275));
#2235=CARTESIAN_POINT('',(0.185,0.,0.275));
#2236=CARTESIAN_POINT('',(0.185,0.1525,0.275));
#2237=CARTESIAN_POINT('',(0.16875,0.16875,0.275));
#2238=CARTESIAN_POINT('',(-0.168964466094068,0.1575,0.275));
#2239=CARTESIAN_POINT('',(0.105,0.1575,0.275));
#2240=CARTESIAN_POINT('',(0.172928932188134,0.1575,0.275));
#2241=CARTESIAN_POINT('',(0.172928932188135,0.1575,0.273));
#2242=CARTESIAN_POINT('',(-0.168964466094068,0.1575,0.273));
#2243=CARTESIAN_POINT('',(0.164443650813896,0.1575,0.273));
#2244=CARTESIAN_POINT('',(0.164443650813896,0.1575,0.275));
#2245=CARTESIAN_POINT('',(0.,0.,0.01));
#2246=CARTESIAN_POINT('',(0.1475,-0.1355,0.01));
#2247=CARTESIAN_POINT('',(0.1475,-0.153,0.01));
#2248=CARTESIAN_POINT('',(0.1325,-0.1355,0.01));
#2249=CARTESIAN_POINT('',(0.1325,-0.153,0.01));
#2250=CARTESIAN_POINT('',(0.14,-0.153,0.01));
#2251=CARTESIAN_POINT('',(2.77555756156289E-17,2.77555756156289E-17,0.275));
#2252=CARTESIAN_POINT('',(0.172928932188135,-0.150428932188135,0.275));
#2253=CARTESIAN_POINT('',(0.175428932188135,-0.150428932188135,0.275));
#2254=CARTESIAN_POINT('',(2.77555756156289E-17,-0.145,0.275));
#2255=CARTESIAN_POINT('',(0.1765,-0.145,0.275));
#2256=CARTESIAN_POINT('',(0.1745,-0.145,0.275));
#2257=CARTESIAN_POINT('',(0.1745,1.27962774476193E-16,0.275));
#2258=CARTESIAN_POINT('',(0.1745,-0.141786796564403,0.275));
#2259=CARTESIAN_POINT('',(0.169393398282202,-0.146893398282202,0.275));
#2260=CARTESIAN_POINT('',(0.16161522368915,-0.154671572875254,0.275));
#2261=CARTESIAN_POINT('',(0.16161522368915,-0.154671572875254,0.275));
#2262=CARTESIAN_POINT('',(0.165,-0.158056349186104,0.275));
#2263=CARTESIAN_POINT('',(0.165,-0.16,0.275));
#2264=CARTESIAN_POINT('',(0.16875,-0.16875,0.275));
#2265=CARTESIAN_POINT('',(0.185,-0.1525,0.275));
#2266=CARTESIAN_POINT('',(0.185,0.,0.275));
#2267=CARTESIAN_POINT('',(0.185,-0.1425,0.275));
#2268=CARTESIAN_POINT('',(0.1825,-0.1425,0.275));
#2269=CARTESIAN_POINT('',(0.180556349186104,-0.1425,0.275));
#2270=CARTESIAN_POINT('',(0.177171572875254,-0.13911522368915,0.275));
#2271=CARTESIAN_POINT('',(0.177171572875254,-0.13911522368915,0.275));
#2272=CARTESIAN_POINT('',(0.169393398282202,-0.146893398282202,0.275));
#2273=CARTESIAN_POINT('',(0.1765,-0.139786796564403,0.275));
#2274=CARTESIAN_POINT('',(0.1765,1.29111281053391E-16,0.275));
#2275=CARTESIAN_POINT('',(0.169393398282202,-0.146893398282202,0.273));
#2276=CARTESIAN_POINT('',(0.172928932188135,-0.150428932188135,0.273));
#2277=CARTESIAN_POINT('',(0.175428932188135,-0.150428932188135,0.273));
#2278=CARTESIAN_POINT('',(0.1745,-0.146893398282202,0.273));
#2279=CARTESIAN_POINT('',(0.1745,-0.145,0.273));
#2280=CARTESIAN_POINT('',(0.1745,-0.141786796564403,0.273));
#2281=CARTESIAN_POINT('',(0.169393398282202,-0.145,0.273));
#2282=CARTESIAN_POINT('',(0.1765,-0.145,0.273));
#2283=CARTESIAN_POINT('',(0.1765,-0.146893398282202,0.273));
#2284=CARTESIAN_POINT('',(0.1765,-0.139786796564403,0.273));
#2285=CARTESIAN_POINT('',(0.169393398282202,-0.146893398282202,0.273));
#2286=CARTESIAN_POINT('',(0.177171572875254,-0.13911522368915,0.273));
#2287=CARTESIAN_POINT('',(0.177171572875254,-0.13911522368915,0.273));
#2288=CARTESIAN_POINT('',(0.180556349186104,-0.1425,0.273));
#2289=CARTESIAN_POINT('',(0.1825,-0.1425,0.273));
#2290=CARTESIAN_POINT('',(0.18,-0.1425,0.273));
#2291=CARTESIAN_POINT('',(0.18,-0.146464466094067,0.273));
#2292=CARTESIAN_POINT('',(0.18,-0.150428932188134,0.273));
#2293=CARTESIAN_POINT('',(0.176464466094067,-0.153964466094067,0.273));
#2294=CARTESIAN_POINT('',(0.172928932188134,-0.1575,0.273));
#2295=CARTESIAN_POINT('',(0.168964466094068,-0.1575,0.273));
#2296=CARTESIAN_POINT('',(0.165,-0.1575,0.273));
#2297=CARTESIAN_POINT('',(0.165,-0.16,0.273));
#2298=CARTESIAN_POINT('',(0.165,-0.158056349186104,0.273));
#2299=CARTESIAN_POINT('',(0.16161522368915,-0.154671572875254,0.273));
#2300=CARTESIAN_POINT('',(0.16161522368915,-0.154671572875254,0.273));
#2301=CARTESIAN_POINT('',(0.169393398282202,-0.146893398282202,0.273));
#2302=CARTESIAN_POINT('',(0.169393398282202,-0.146893398282202,0.1475));
#2303=CARTESIAN_POINT('',(0.1745,-0.141786796564403,0.1475));
#2304=CARTESIAN_POINT('',(0.16161522368915,-0.154671572875254,0.274));
#2305=CARTESIAN_POINT('',(0.169254310985676,0.147032485578728,0.273));
#2306=CARTESIAN_POINT('',(0.172928932188135,0.150428932188135,0.273));
#2307=CARTESIAN_POINT('',(0.175428932188135,0.150428932188135,0.273));
#2308=CARTESIAN_POINT('',(0.1745,0.147032485578728,0.273));
#2309=CARTESIAN_POINT('',(0.1745,0.141786796564404,0.273));
#2310=CARTESIAN_POINT('',(0.1745,0.145,0.273));
#2311=CARTESIAN_POINT('',(0.169254310985676,0.147032485578728,0.273));
#2312=CARTESIAN_POINT('',(0.16161522368915,0.154671572875254,0.273));
#2313=CARTESIAN_POINT('',(0.16161522368915,0.154671572875254,0.273));
#2314=CARTESIAN_POINT('',(0.176325378797542,0.154103553390594,0.273));
#2315=CARTESIAN_POINT('',(0.18,0.150428932188135,0.273));
#2316=CARTESIAN_POINT('',(0.18,0.146464466094067,0.273));
#2317=CARTESIAN_POINT('',(0.18,0.1425,0.273));
#2318=CARTESIAN_POINT('',(0.176893398282202,0.139393398282202,0.273));
#2319=CARTESIAN_POINT('',(0.176893398282202,0.139393398282202,0.273));
#2320=CARTESIAN_POINT('',(0.169254310985676,0.147032485578728,0.273));
#2321=CARTESIAN_POINT('',(0.1765,0.139786796564404,0.273));
#2322=CARTESIAN_POINT('',(0.1765,0.147032485578728,0.273));
#2323=CARTESIAN_POINT('',(0.1765,0.145,0.273));
#2324=CARTESIAN_POINT('',(0.169254310985676,0.145,0.273));
#2325=CARTESIAN_POINT('',(0.169254310985676,0.147032485578728,0.1475));
#2326=CARTESIAN_POINT('',(0.1745,0.141786796564404,0.1475));
#2327=CARTESIAN_POINT('',(0.16161522368915,0.154671572875254,0.274));
#2328=CARTESIAN_POINT('',(0.18,0.146464466094067,0.275));
#2329=CARTESIAN_POINT('',(0.18,0.1425,0.275));
#2330=CARTESIAN_POINT('',(0.18,0.150428932188134,0.275));
#2331=CARTESIAN_POINT('',(0.176464466094067,-0.153964466094067,0.275));
#2332=CARTESIAN_POINT('',(0.18,-0.150428932188134,0.275));
#2333=CARTESIAN_POINT('',(0.172928932188134,-0.1575,0.275));
#2334=CARTESIAN_POINT('',(0.1825,-0.1425,0.275));
#2335=CARTESIAN_POINT('',(0.180556349186104,-0.1425,0.275));
#2336=CARTESIAN_POINT('',(0.185,-0.1425,0.275));
#2337=CARTESIAN_POINT('',(0.18,-0.1425,0.275));
#2338=CARTESIAN_POINT('',(0.18,-0.146464466094067,0.275));
#2339=CARTESIAN_POINT('',(0.168964466094068,-0.1575,0.275));
#2340=CARTESIAN_POINT('',(0.165,-0.1575,0.275));
#2341=CARTESIAN_POINT('',(0.165,-0.16,0.275));
#2342=CARTESIAN_POINT('',(0.165,-0.158056349186104,0.275));
#2343=CARTESIAN_POINT('',(0.185,0.,0.02));
#2344=CARTESIAN_POINT('',(0.185,0.1525,0.02));
#2345=CARTESIAN_POINT('',(0.185,0.1525,0.01));
#2346=CARTESIAN_POINT('',(0.185,0.1425,0.275));
#2347=CARTESIAN_POINT('',(0.185,-0.1525,0.02));
#2348=CARTESIAN_POINT('',(0.185,-0.1525,0.01));
#2349=CARTESIAN_POINT('',(0.185,0.1625,0.01));
#2350=CARTESIAN_POINT('',(0.175,0.1625,0.02));
#2351=CARTESIAN_POINT('',(0.185,0.1525,0.01));
#2352=CARTESIAN_POINT('',(0.185,-0.1525,0.02));
#2353=CARTESIAN_POINT('',(0.18,-0.1575,0.01));
#2354=CARTESIAN_POINT('',(0.175,-5.97812397875084E-17,0.));
#2355=CARTESIAN_POINT('',(0.185,0.1525,0.01));
#2356=CARTESIAN_POINT('',(0.175,-0.1525,-1.70803542250025E-18));
#2357=CARTESIAN_POINT('',(0.185,0.1525,0.01));
#2358=CARTESIAN_POINT('',(0.175,-0.1525,0.));
#2359=CARTESIAN_POINT('',(0.176464466094067,0.153964466094067,0.275));
#2360=CARTESIAN_POINT('',(0.1825,0.1425,0.275));
#2361=CARTESIAN_POINT('',(0.18,0.1425,0.275));
#2362=CARTESIAN_POINT('',(0.177171572875254,-0.13911522368915,0.274));
#2363=CARTESIAN_POINT('',(0.177171572875254,-0.13911522368915,0.274));
#2364=CARTESIAN_POINT('',(0.16161522368915,-0.154671572875254,0.274));
#2365=CARTESIAN_POINT('',(0.169393398282202,-0.146893398282202,0.1475));
#2366=CARTESIAN_POINT('',(0.1765,-0.139786796564403,0.1475));
#2367=CARTESIAN_POINT('',(0.16161522368915,0.154671572875254,0.274));
#2368=CARTESIAN_POINT('',(0.176893398282202,0.139393398282202,0.274));
#2369=CARTESIAN_POINT('',(0.176893398282202,0.139393398282202,0.274));
#2370=CARTESIAN_POINT('',(0.169254310985676,0.147032485578728,0.1475));
#2371=CARTESIAN_POINT('',(0.1765,0.139786796564404,0.1475));
#2372=CARTESIAN_POINT('',(0.172928932188135,0.150428932188135,0.25));
#2373=CARTESIAN_POINT('',(0.172928932188135,-0.150428932188135,0.25));
#2374=CARTESIAN_POINT('',(0.1755,0.145,0.015));
#2375=CARTESIAN_POINT('',(0.1745,0.145,0.015));
#2376=CARTESIAN_POINT('',(0.1745,0.145,0.015));
#2377=CARTESIAN_POINT('',(0.1755,0.145,0.015));
#2378=CARTESIAN_POINT('',(0.1765,0.145,0.015));
#2379=CARTESIAN_POINT('',(0.1765,0.145,0.015));
#2380=CARTESIAN_POINT('',(0.1745,1.11022302462516E-16,0.015));
#2381=CARTESIAN_POINT('',(0.1745,-0.145,0.015));
#2382=CARTESIAN_POINT('',(0.1745,-0.145,0.015));
#2383=CARTESIAN_POINT('',(0.1745,1.11022302462516E-16,0.015));
#2384=CARTESIAN_POINT('',(0.1755,-0.145,0.015));
#2385=CARTESIAN_POINT('',(0.1765,-0.145,0.015));
#2386=CARTESIAN_POINT('',(0.1765,-0.145,0.015));
#2387=CARTESIAN_POINT('',(0.1755,-0.145,0.015));
#2388=CARTESIAN_POINT('',(0.1765,1.11022302462516E-16,0.015));
#2389=CARTESIAN_POINT('',(0.1765,1.11022302462516E-16,0.015));
#2390=CARTESIAN_POINT('',(0.,0.,0.015));
#2391=CARTESIAN_POINT('',(0.1745,1.11022302462516E-16,0.492));
#2392=CARTESIAN_POINT('',(0.1745,0.145,0.492));
#2393=CARTESIAN_POINT('',(0.1765,1.11022302462516E-16,0.492));
#2394=CARTESIAN_POINT('',(0.1765,0.145,0.492));
#2395=CARTESIAN_POINT('',(0.1755,0.145,0.492));
#2396=CARTESIAN_POINT('',(0.1755,-0.145,0.492));
#2397=CARTESIAN_POINT('',(0.1765,-0.145,0.492));
#2398=CARTESIAN_POINT('',(0.1745,-0.145,0.492));
#2399=CARTESIAN_POINT('',(0.1745,1.11022302462516E-16,0.492));
#2400=CARTESIAN_POINT('',(0.1765,1.11022302462516E-16,0.492));
#2401=CARTESIAN_POINT('',(0.13,0.006,0.01));
#2402=CARTESIAN_POINT('',(0.1225,0.006,0.01));
#2403=CARTESIAN_POINT('',(0.1375,0.0060000000000001,0.01));
#2404=CARTESIAN_POINT('',(0.1225,-0.028,0.01));
#2405=CARTESIAN_POINT('',(0.1225,-0.062,0.01));
#2406=CARTESIAN_POINT('',(0.13,-0.062,0.01));
#2407=CARTESIAN_POINT('',(0.1375,-0.062,0.01));
#2408=CARTESIAN_POINT('',(0.1375,-0.028,0.01));
#2409=CARTESIAN_POINT('',(0.1475,0.1335,0.01));
#2410=CARTESIAN_POINT('',(0.1475,0.151,0.01));
#2411=CARTESIAN_POINT('',(0.1475,0.151,0.01));
#2412=CARTESIAN_POINT('',(0.1475,0.1335,0.01));
#2413=CARTESIAN_POINT('',(0.1475,0.116,0.01));
#2414=CARTESIAN_POINT('',(0.14,0.151,0.01));
#2415=CARTESIAN_POINT('',(0.1325,0.151,0.01));
#2416=CARTESIAN_POINT('',(0.1325,0.151,0.01));
#2417=CARTESIAN_POINT('',(0.14,0.151,0.01));
#2418=CARTESIAN_POINT('',(0.1325,0.1335,0.01));
#2419=CARTESIAN_POINT('',(0.1325,0.116,0.01));
#2420=CARTESIAN_POINT('',(0.1325,0.1335,0.01));
#2421=CARTESIAN_POINT('',(0.14,0.116,0.01));
#2422=CARTESIAN_POINT('',(0.,0.,0.01));
#2423=CARTESIAN_POINT('',(0.1475,-0.1355,0.01));
#2424=CARTESIAN_POINT('',(0.1475,-0.118,0.01));
#2425=CARTESIAN_POINT('',(0.1475,-0.153,0.01));
#2426=CARTESIAN_POINT('',(0.14,-0.118,0.01));
#2427=CARTESIAN_POINT('',(0.1325,-0.118,0.01));
#2428=CARTESIAN_POINT('',(0.1325,-0.1355,0.01));
#2429=CARTESIAN_POINT('',(0.1325,-0.153,0.01));
#2430=CARTESIAN_POINT('',(0.14,-0.153,0.01));
#2431=CARTESIAN_POINT('',(0.155,0.,0.01));
#2432=CARTESIAN_POINT('',(0.105,0.8375,0.161063114404679));
#2433=CARTESIAN_POINT('',(0.11,-0.1525,-0.005));
#2434=CARTESIAN_POINT('',(0.11,-0.1375,-0.005));
#2435=CARTESIAN_POINT('',(0.11,-0.145,-0.005));
#2436=CARTESIAN_POINT('',(0.11,0.1375,-0.005));
#2437=CARTESIAN_POINT('',(0.11,0.145,-0.005));
#2438=CARTESIAN_POINT('',(0.11,0.1525,-0.005));
#2439=CARTESIAN_POINT('',(0.1325,2.77555756156289E-17,0.005));
#2440=CARTESIAN_POINT('',(0.12,-2.77555756156289E-17,0.005));
#2441=CARTESIAN_POINT('',(0.12,-2.77555756156289E-17,0.005));
#2442=CARTESIAN_POINT('',(0.12,-2.77555756156289E-17,0.005));
#2443=CARTESIAN_POINT('',(0.12,-2.77555756156289E-17,0.005));
#2444=CARTESIAN_POINT('',(0.1325,2.77555756156289E-17,0.005));
#2445=MECHANICAL_DESIGN_GEOMETRIC_PRESENTATION_REPRESENTATION('',(#1537),
#2446);
#2446=(
GEOMETRIC_REPRESENTATION_CONTEXT(3)
GLOBAL_UNCERTAINTY_ASSIGNED_CONTEXT((#2447))
GLOBAL_UNIT_ASSIGNED_CONTEXT((#2450,#2449,#2448))
REPRESENTATION_CONTEXT('Part 1','TOP_LEVEL_ASSEMBLY_PART')
);
#2447=UNCERTAINTY_MEASURE_WITH_UNIT(LENGTH_MEASURE(1.E-8),#2450,
'DISTANCE_ACCURACY_VALUE','Maximum Tolerance applied to model');
#2448=(
NAMED_UNIT(*)
SI_UNIT($,.STERADIAN.)
SOLID_ANGLE_UNIT()
);
#2449=(
NAMED_UNIT(*)
PLANE_ANGLE_UNIT()
SI_UNIT($,.RADIAN.)
);
#2450=(
LENGTH_UNIT()
NAMED_UNIT(*)
SI_UNIT($,.METRE.)
);
#2451=PRODUCT_DEFINITION_SHAPE('','',#2452);
#2452=PRODUCT_DEFINITION('','',#2454,#2453);
#2453=PRODUCT_DEFINITION_CONTEXT('',#2460,'design');
#2454=PRODUCT_DEFINITION_FORMATION_WITH_SPECIFIED_SOURCE('','',#2456,
 .NOT_KNOWN.);
#2455=PRODUCT_RELATED_PRODUCT_CATEGORY('','',(#2456));
#2456=PRODUCT('Part 1','Part 1','Part 1',(#2458));
#2457=PRODUCT_CATEGORY('','');
#2458=PRODUCT_CONTEXT('',#2460,'mechanical');
#2459=APPLICATION_PROTOCOL_DEFINITION('international standard',
'ap242_managed_model_based_3d_engineering',2020,#2460);
#2460=APPLICATION_CONTEXT('managed model based 3d engineering');
ENDSEC;
END-ISO-10303-21;
