ISO-10303-21;
HEADER;
/* Generated by software containing ST-Developer
 * from STEP Tools, Inc. (www.steptools.com) 
 */
/* OPTION: using custom renumber hook */

FILE_DESCRIPTION(
/* description */ ('STEP AP242 Edition 2',
'CAx-IF Rec.Pracs.---Representation and Presentation of Product Manufa
cturing Information (PMI)---4.0---2014-10-13',
'CAx-IF Rec.Pracs.---3D Tessellated Geometry---0.4---2014-09-14','2;1',
'CAx-IF Rec.Pracs.---User Defined Attributes---1.5---2016-08-15'),
/* implementation_level */ '2;1');

FILE_NAME(
/* name */ 'Heatbed holder',
/* time_stamp */ '2026-06-26T08:54:06Z',
/* author */ (''),
/* organization */ (''),
/* preprocessor_version */ 'ST-DEVELOPER v20',
/* originating_system */ 'ONSHAPE BY PTC INC, 1.216',
/* authorisation */ '  ');

FILE_SCHEMA (('AP242_MANAGED_MODEL_BASED_3D_ENGINEERING_MIM_LF { 1 0 10303 442 3 1 4 }'));
ENDSEC;

DATA;
#10=SHAPE_REPRESENTATION_RELATIONSHIP('','',#1109,#11);
#11=ADVANCED_BREP_SHAPE_REPRESENTATION('',(#1107),#1823);
#12=CYLINDRICAL_SURFACE('',#1163,0.02);
#13=CYLINDRICAL_SURFACE('',#1164,0.01);
#14=CYLINDRICAL_SURFACE('',#1165,0.02);
#15=CYLINDRICAL_SURFACE('',#1169,0.02);
#16=CYLINDRICAL_SURFACE('',#1170,0.01);
#17=CYLINDRICAL_SURFACE('',#1171,0.02);
#18=CYLINDRICAL_SURFACE('',#1173,0.0208333333333333);
#19=CYLINDRICAL_SURFACE('',#1174,0.015);
#20=CYLINDRICAL_SURFACE('',#1175,0.0208333333333333);
#21=CYLINDRICAL_SURFACE('',#1179,0.0208333333333333);
#22=CYLINDRICAL_SURFACE('',#1180,0.015);
#23=CYLINDRICAL_SURFACE('',#1181,0.0075);
#24=CYLINDRICAL_SURFACE('',#1182,0.00175);
#25=CYLINDRICAL_SURFACE('',#1183,0.00175);
#26=CYLINDRICAL_SURFACE('',#1184,0.00175);
#27=CYLINDRICAL_SURFACE('',#1185,0.0025);
#28=CYLINDRICAL_SURFACE('',#1186,0.00175);
#29=CYLINDRICAL_SURFACE('',#1187,0.00175);
#30=CYLINDRICAL_SURFACE('',#1188,0.00175);
#31=CYLINDRICAL_SURFACE('',#1189,0.00175);
#32=CYLINDRICAL_SURFACE('',#1190,0.0025);
#33=CYLINDRICAL_SURFACE('',#1191,0.00175);
#34=CYLINDRICAL_SURFACE('',#1192,0.0208333333333333);
#35=CYLINDRICAL_SURFACE('',#1193,0.0075);
#36=CIRCLE('',#1113,0.0208333333333333);
#37=CIRCLE('',#1114,0.015);
#38=CIRCLE('',#1115,0.0208333333333333);
#39=CIRCLE('',#1116,0.0208333333333333);
#40=CIRCLE('',#1117,0.015);
#41=CIRCLE('',#1118,0.0208333333333333);
#42=CIRCLE('',#1119,0.02);
#43=CIRCLE('',#1120,0.01);
#44=CIRCLE('',#1121,0.02);
#45=CIRCLE('',#1122,0.02);
#46=CIRCLE('',#1123,0.01);
#47=CIRCLE('',#1124,0.02);
#48=CIRCLE('',#1125,0.00175);
#49=CIRCLE('',#1126,0.0025);
#50=CIRCLE('',#1127,0.00175);
#51=CIRCLE('',#1128,0.00175);
#52=CIRCLE('',#1129,0.00175);
#53=CIRCLE('',#1130,0.00175);
#54=CIRCLE('',#1131,0.0025);
#55=CIRCLE('',#1132,0.00175);
#56=CIRCLE('',#1133,0.00175);
#57=CIRCLE('',#1134,0.00175);
#58=CIRCLE('',#1135,0.0075);
#59=CIRCLE('',#1136,0.0075);
#60=CIRCLE('',#1138,0.02);
#61=CIRCLE('',#1139,0.01);
#62=CIRCLE('',#1140,0.02);
#63=CIRCLE('',#1141,0.02);
#64=CIRCLE('',#1142,0.01);
#65=CIRCLE('',#1143,0.02);
#66=CIRCLE('',#1144,0.0208333333333333);
#67=CIRCLE('',#1145,0.015);
#68=CIRCLE('',#1146,0.0208333333333333);
#69=CIRCLE('',#1147,0.0208333333333333);
#70=CIRCLE('',#1148,0.015);
#71=CIRCLE('',#1149,0.0208333333333333);
#72=CIRCLE('',#1150,0.00175);
#73=CIRCLE('',#1151,0.0025);
#74=CIRCLE('',#1152,0.00175);
#75=CIRCLE('',#1153,0.00175);
#76=CIRCLE('',#1154,0.00175);
#77=CIRCLE('',#1155,0.00175);
#78=CIRCLE('',#1156,0.0025);
#79=CIRCLE('',#1157,0.00175);
#80=CIRCLE('',#1158,0.00175);
#81=CIRCLE('',#1159,0.00175);
#82=CIRCLE('',#1160,0.0075);
#83=CIRCLE('',#1161,0.0075);
#84=ORIENTED_EDGE('',*,*,#372,.F.);
#85=ORIENTED_EDGE('',*,*,#373,.T.);
#86=ORIENTED_EDGE('',*,*,#374,.T.);
#87=ORIENTED_EDGE('',*,*,#375,.F.);
#88=ORIENTED_EDGE('',*,*,#376,.T.);
#89=ORIENTED_EDGE('',*,*,#377,.T.);
#90=ORIENTED_EDGE('',*,*,#378,.F.);
#91=ORIENTED_EDGE('',*,*,#379,.F.);
#92=ORIENTED_EDGE('',*,*,#380,.T.);
#93=ORIENTED_EDGE('',*,*,#381,.T.);
#94=ORIENTED_EDGE('',*,*,#382,.F.);
#95=ORIENTED_EDGE('',*,*,#383,.F.);
#96=ORIENTED_EDGE('',*,*,#384,.F.);
#97=ORIENTED_EDGE('',*,*,#385,.T.);
#98=ORIENTED_EDGE('',*,*,#386,.T.);
#99=ORIENTED_EDGE('',*,*,#387,.F.);
#100=ORIENTED_EDGE('',*,*,#388,.F.);
#101=ORIENTED_EDGE('',*,*,#389,.T.);
#102=ORIENTED_EDGE('',*,*,#390,.T.);
#103=ORIENTED_EDGE('',*,*,#391,.F.);
#104=ORIENTED_EDGE('',*,*,#392,.F.);
#105=ORIENTED_EDGE('',*,*,#393,.T.);
#106=ORIENTED_EDGE('',*,*,#394,.T.);
#107=ORIENTED_EDGE('',*,*,#395,.F.);
#108=ORIENTED_EDGE('',*,*,#396,.F.);
#109=ORIENTED_EDGE('',*,*,#397,.F.);
#110=ORIENTED_EDGE('',*,*,#398,.T.);
#111=ORIENTED_EDGE('',*,*,#399,.T.);
#112=ORIENTED_EDGE('',*,*,#400,.F.);
#113=ORIENTED_EDGE('',*,*,#401,.T.);
#114=ORIENTED_EDGE('',*,*,#402,.F.);
#115=ORIENTED_EDGE('',*,*,#403,.F.);
#116=ORIENTED_EDGE('',*,*,#404,.F.);
#117=ORIENTED_EDGE('',*,*,#405,.T.);
#118=ORIENTED_EDGE('',*,*,#406,.T.);
#119=ORIENTED_EDGE('',*,*,#407,.T.);
#120=ORIENTED_EDGE('',*,*,#408,.T.);
#121=ORIENTED_EDGE('',*,*,#409,.F.);
#122=ORIENTED_EDGE('',*,*,#410,.T.);
#123=ORIENTED_EDGE('',*,*,#411,.T.);
#124=ORIENTED_EDGE('',*,*,#412,.F.);
#125=ORIENTED_EDGE('',*,*,#413,.T.);
#126=ORIENTED_EDGE('',*,*,#414,.T.);
#127=ORIENTED_EDGE('',*,*,#415,.F.);
#128=ORIENTED_EDGE('',*,*,#416,.F.);
#129=ORIENTED_EDGE('',*,*,#417,.F.);
#130=ORIENTED_EDGE('',*,*,#418,.T.);
#131=ORIENTED_EDGE('',*,*,#419,.F.);
#132=ORIENTED_EDGE('',*,*,#420,.T.);
#133=ORIENTED_EDGE('',*,*,#421,.T.);
#134=ORIENTED_EDGE('',*,*,#422,.T.);
#135=ORIENTED_EDGE('',*,*,#423,.T.);
#136=ORIENTED_EDGE('',*,*,#424,.T.);
#137=ORIENTED_EDGE('',*,*,#425,.F.);
#138=ORIENTED_EDGE('',*,*,#426,.F.);
#139=ORIENTED_EDGE('',*,*,#427,.F.);
#140=ORIENTED_EDGE('',*,*,#428,.F.);
#141=ORIENTED_EDGE('',*,*,#429,.F.);
#142=ORIENTED_EDGE('',*,*,#430,.F.);
#143=ORIENTED_EDGE('',*,*,#431,.T.);
#144=ORIENTED_EDGE('',*,*,#432,.F.);
#145=ORIENTED_EDGE('',*,*,#433,.F.);
#146=ORIENTED_EDGE('',*,*,#434,.T.);
#147=ORIENTED_EDGE('',*,*,#435,.T.);
#148=ORIENTED_EDGE('',*,*,#436,.F.);
#149=ORIENTED_EDGE('',*,*,#437,.T.);
#150=ORIENTED_EDGE('',*,*,#438,.T.);
#151=ORIENTED_EDGE('',*,*,#439,.F.);
#152=ORIENTED_EDGE('',*,*,#440,.T.);
#153=ORIENTED_EDGE('',*,*,#441,.T.);
#154=ORIENTED_EDGE('',*,*,#442,.F.);
#155=ORIENTED_EDGE('',*,*,#443,.T.);
#156=ORIENTED_EDGE('',*,*,#444,.T.);
#157=ORIENTED_EDGE('',*,*,#445,.T.);
#158=ORIENTED_EDGE('',*,*,#446,.F.);
#159=ORIENTED_EDGE('',*,*,#447,.F.);
#160=ORIENTED_EDGE('',*,*,#448,.T.);
#161=ORIENTED_EDGE('',*,*,#449,.F.);
#162=ORIENTED_EDGE('',*,*,#450,.F.);
#163=ORIENTED_EDGE('',*,*,#451,.T.);
#164=ORIENTED_EDGE('',*,*,#452,.F.);
#165=ORIENTED_EDGE('',*,*,#453,.F.);
#166=ORIENTED_EDGE('',*,*,#454,.F.);
#167=ORIENTED_EDGE('',*,*,#455,.F.);
#168=ORIENTED_EDGE('',*,*,#456,.T.);
#169=ORIENTED_EDGE('',*,*,#457,.T.);
#170=ORIENTED_EDGE('',*,*,#458,.T.);
#171=ORIENTED_EDGE('',*,*,#459,.F.);
#172=ORIENTED_EDGE('',*,*,#460,.F.);
#173=ORIENTED_EDGE('',*,*,#461,.F.);
#174=ORIENTED_EDGE('',*,*,#462,.F.);
#175=ORIENTED_EDGE('',*,*,#463,.F.);
#176=ORIENTED_EDGE('',*,*,#464,.F.);
#177=ORIENTED_EDGE('',*,*,#465,.T.);
#178=ORIENTED_EDGE('',*,*,#466,.T.);
#179=ORIENTED_EDGE('',*,*,#467,.T.);
#180=ORIENTED_EDGE('',*,*,#468,.T.);
#181=ORIENTED_EDGE('',*,*,#469,.T.);
#182=ORIENTED_EDGE('',*,*,#470,.T.);
#183=ORIENTED_EDGE('',*,*,#471,.F.);
#184=ORIENTED_EDGE('',*,*,#472,.F.);
#185=ORIENTED_EDGE('',*,*,#473,.T.);
#186=ORIENTED_EDGE('',*,*,#474,.T.);
#187=ORIENTED_EDGE('',*,*,#475,.F.);
#188=ORIENTED_EDGE('',*,*,#400,.T.);
#189=ORIENTED_EDGE('',*,*,#476,.F.);
#190=ORIENTED_EDGE('',*,*,#440,.F.);
#191=ORIENTED_EDGE('',*,*,#477,.T.);
#192=ORIENTED_EDGE('',*,*,#419,.T.);
#193=ORIENTED_EDGE('',*,*,#478,.F.);
#194=ORIENTED_EDGE('',*,*,#441,.F.);
#195=ORIENTED_EDGE('',*,*,#476,.T.);
#196=ORIENTED_EDGE('',*,*,#418,.F.);
#197=ORIENTED_EDGE('',*,*,#479,.F.);
#198=ORIENTED_EDGE('',*,*,#442,.T.);
#199=ORIENTED_EDGE('',*,*,#478,.T.);
#200=ORIENTED_EDGE('',*,*,#417,.T.);
#201=ORIENTED_EDGE('',*,*,#480,.F.);
#202=ORIENTED_EDGE('',*,*,#443,.F.);
#203=ORIENTED_EDGE('',*,*,#479,.T.);
#204=ORIENTED_EDGE('',*,*,#416,.T.);
#205=ORIENTED_EDGE('',*,*,#481,.F.);
#206=ORIENTED_EDGE('',*,*,#444,.F.);
#207=ORIENTED_EDGE('',*,*,#480,.T.);
#208=ORIENTED_EDGE('',*,*,#415,.T.);
#209=ORIENTED_EDGE('',*,*,#482,.F.);
#210=ORIENTED_EDGE('',*,*,#445,.F.);
#211=ORIENTED_EDGE('',*,*,#481,.T.);
#212=ORIENTED_EDGE('',*,*,#414,.F.);
#213=ORIENTED_EDGE('',*,*,#483,.F.);
#214=ORIENTED_EDGE('',*,*,#446,.T.);
#215=ORIENTED_EDGE('',*,*,#482,.T.);
#216=ORIENTED_EDGE('',*,*,#413,.F.);
#217=ORIENTED_EDGE('',*,*,#484,.F.);
#218=ORIENTED_EDGE('',*,*,#447,.T.);
#219=ORIENTED_EDGE('',*,*,#483,.T.);
#220=ORIENTED_EDGE('',*,*,#412,.T.);
#221=ORIENTED_EDGE('',*,*,#485,.F.);
#222=ORIENTED_EDGE('',*,*,#448,.F.);
#223=ORIENTED_EDGE('',*,*,#484,.T.);
#224=ORIENTED_EDGE('',*,*,#411,.F.);
#225=ORIENTED_EDGE('',*,*,#486,.F.);
#226=ORIENTED_EDGE('',*,*,#449,.T.);
#227=ORIENTED_EDGE('',*,*,#485,.T.);
#228=ORIENTED_EDGE('',*,*,#410,.F.);
#229=ORIENTED_EDGE('',*,*,#487,.F.);
#230=ORIENTED_EDGE('',*,*,#450,.T.);
#231=ORIENTED_EDGE('',*,*,#486,.T.);
#232=ORIENTED_EDGE('',*,*,#409,.T.);
#233=ORIENTED_EDGE('',*,*,#488,.F.);
#234=ORIENTED_EDGE('',*,*,#451,.F.);
#235=ORIENTED_EDGE('',*,*,#487,.T.);
#236=ORIENTED_EDGE('',*,*,#408,.F.);
#237=ORIENTED_EDGE('',*,*,#489,.F.);
#238=ORIENTED_EDGE('',*,*,#452,.T.);
#239=ORIENTED_EDGE('',*,*,#488,.T.);
#240=ORIENTED_EDGE('',*,*,#407,.F.);
#241=ORIENTED_EDGE('',*,*,#490,.F.);
#242=ORIENTED_EDGE('',*,*,#453,.T.);
#243=ORIENTED_EDGE('',*,*,#489,.T.);
#244=ORIENTED_EDGE('',*,*,#406,.F.);
#245=ORIENTED_EDGE('',*,*,#491,.F.);
#246=ORIENTED_EDGE('',*,*,#454,.T.);
#247=ORIENTED_EDGE('',*,*,#490,.T.);
#248=ORIENTED_EDGE('',*,*,#405,.F.);
#249=ORIENTED_EDGE('',*,*,#492,.F.);
#250=ORIENTED_EDGE('',*,*,#455,.T.);
#251=ORIENTED_EDGE('',*,*,#491,.T.);
#252=ORIENTED_EDGE('',*,*,#404,.T.);
#253=ORIENTED_EDGE('',*,*,#493,.F.);
#254=ORIENTED_EDGE('',*,*,#456,.F.);
#255=ORIENTED_EDGE('',*,*,#492,.T.);
#256=ORIENTED_EDGE('',*,*,#403,.T.);
#257=ORIENTED_EDGE('',*,*,#494,.F.);
#258=ORIENTED_EDGE('',*,*,#457,.F.);
#259=ORIENTED_EDGE('',*,*,#493,.T.);
#260=ORIENTED_EDGE('',*,*,#402,.T.);
#261=ORIENTED_EDGE('',*,*,#495,.F.);
#262=ORIENTED_EDGE('',*,*,#458,.F.);
#263=ORIENTED_EDGE('',*,*,#494,.T.);
#264=ORIENTED_EDGE('',*,*,#470,.F.);
#265=ORIENTED_EDGE('',*,*,#430,.T.);
#266=ORIENTED_EDGE('',*,*,#469,.F.);
#267=ORIENTED_EDGE('',*,*,#429,.T.);
#268=ORIENTED_EDGE('',*,*,#468,.F.);
#269=ORIENTED_EDGE('',*,*,#428,.T.);
#270=ORIENTED_EDGE('',*,*,#467,.F.);
#271=ORIENTED_EDGE('',*,*,#427,.T.);
#272=ORIENTED_EDGE('',*,*,#466,.F.);
#273=ORIENTED_EDGE('',*,*,#426,.T.);
#274=ORIENTED_EDGE('',*,*,#465,.F.);
#275=ORIENTED_EDGE('',*,*,#425,.T.);
#276=ORIENTED_EDGE('',*,*,#464,.T.);
#277=ORIENTED_EDGE('',*,*,#424,.F.);
#278=ORIENTED_EDGE('',*,*,#463,.T.);
#279=ORIENTED_EDGE('',*,*,#423,.F.);
#280=ORIENTED_EDGE('',*,*,#462,.T.);
#281=ORIENTED_EDGE('',*,*,#422,.F.);
#282=ORIENTED_EDGE('',*,*,#461,.T.);
#283=ORIENTED_EDGE('',*,*,#421,.F.);
#284=ORIENTED_EDGE('',*,*,#460,.T.);
#285=ORIENTED_EDGE('',*,*,#420,.F.);
#286=ORIENTED_EDGE('',*,*,#401,.F.);
#287=ORIENTED_EDGE('',*,*,#477,.F.);
#288=ORIENTED_EDGE('',*,*,#459,.T.);
#289=ORIENTED_EDGE('',*,*,#495,.T.);
#290=ORIENTED_EDGE('',*,*,#471,.T.);
#291=ORIENTED_EDGE('',*,*,#431,.F.);
#292=ORIENTED_EDGE('',*,*,#473,.F.);
#293=ORIENTED_EDGE('',*,*,#496,.F.);
#294=ORIENTED_EDGE('',*,*,#372,.T.);
#295=ORIENTED_EDGE('',*,*,#497,.T.);
#296=ORIENTED_EDGE('',*,*,#472,.T.);
#297=ORIENTED_EDGE('',*,*,#498,.F.);
#298=ORIENTED_EDGE('',*,*,#373,.F.);
#299=ORIENTED_EDGE('',*,*,#496,.T.);
#300=ORIENTED_EDGE('',*,*,#475,.T.);
#301=ORIENTED_EDGE('',*,*,#499,.F.);
#302=ORIENTED_EDGE('',*,*,#374,.F.);
#303=ORIENTED_EDGE('',*,*,#498,.T.);
#304=ORIENTED_EDGE('',*,*,#474,.F.);
#305=ORIENTED_EDGE('',*,*,#497,.F.);
#306=ORIENTED_EDGE('',*,*,#375,.T.);
#307=ORIENTED_EDGE('',*,*,#499,.T.);
#308=ORIENTED_EDGE('',*,*,#396,.T.);
#309=ORIENTED_EDGE('',*,*,#500,.T.);
#310=ORIENTED_EDGE('',*,*,#377,.F.);
#311=ORIENTED_EDGE('',*,*,#501,.F.);
#312=ORIENTED_EDGE('',*,*,#397,.T.);
#313=ORIENTED_EDGE('',*,*,#501,.T.);
#314=ORIENTED_EDGE('',*,*,#376,.F.);
#315=ORIENTED_EDGE('',*,*,#502,.F.);
#316=ORIENTED_EDGE('',*,*,#502,.T.);
#317=ORIENTED_EDGE('',*,*,#379,.T.);
#318=ORIENTED_EDGE('',*,*,#503,.F.);
#319=ORIENTED_EDGE('',*,*,#398,.F.);
#320=ORIENTED_EDGE('',*,*,#503,.T.);
#321=ORIENTED_EDGE('',*,*,#378,.T.);
#322=ORIENTED_EDGE('',*,*,#500,.F.);
#323=ORIENTED_EDGE('',*,*,#399,.F.);
#324=ORIENTED_EDGE('',*,*,#432,.T.);
#325=ORIENTED_EDGE('',*,*,#504,.T.);
#326=ORIENTED_EDGE('',*,*,#381,.F.);
#327=ORIENTED_EDGE('',*,*,#505,.F.);
#328=ORIENTED_EDGE('',*,*,#433,.T.);
#329=ORIENTED_EDGE('',*,*,#505,.T.);
#330=ORIENTED_EDGE('',*,*,#380,.F.);
#331=ORIENTED_EDGE('',*,*,#506,.F.);
#332=ORIENTED_EDGE('',*,*,#506,.T.);
#333=ORIENTED_EDGE('',*,*,#383,.T.);
#334=ORIENTED_EDGE('',*,*,#507,.F.);
#335=ORIENTED_EDGE('',*,*,#434,.F.);
#336=ORIENTED_EDGE('',*,*,#507,.T.);
#337=ORIENTED_EDGE('',*,*,#382,.T.);
#338=ORIENTED_EDGE('',*,*,#504,.F.);
#339=ORIENTED_EDGE('',*,*,#435,.F.);
#340=ORIENTED_EDGE('',*,*,#392,.T.);
#341=ORIENTED_EDGE('',*,*,#508,.T.);
#342=ORIENTED_EDGE('',*,*,#385,.F.);
#343=ORIENTED_EDGE('',*,*,#509,.F.);
#344=ORIENTED_EDGE('',*,*,#509,.T.);
#345=ORIENTED_EDGE('',*,*,#384,.T.);
#346=ORIENTED_EDGE('',*,*,#510,.F.);
#347=ORIENTED_EDGE('',*,*,#393,.F.);
#348=ORIENTED_EDGE('',*,*,#510,.T.);
#349=ORIENTED_EDGE('',*,*,#387,.T.);
#350=ORIENTED_EDGE('',*,*,#511,.F.);
#351=ORIENTED_EDGE('',*,*,#394,.F.);
#352=ORIENTED_EDGE('',*,*,#395,.T.);
#353=ORIENTED_EDGE('',*,*,#511,.T.);
#354=ORIENTED_EDGE('',*,*,#386,.F.);
#355=ORIENTED_EDGE('',*,*,#508,.F.);
#356=ORIENTED_EDGE('',*,*,#436,.T.);
#357=ORIENTED_EDGE('',*,*,#512,.T.);
#358=ORIENTED_EDGE('',*,*,#389,.F.);
#359=ORIENTED_EDGE('',*,*,#513,.F.);
#360=ORIENTED_EDGE('',*,*,#513,.T.);
#361=ORIENTED_EDGE('',*,*,#388,.T.);
#362=ORIENTED_EDGE('',*,*,#514,.F.);
#363=ORIENTED_EDGE('',*,*,#437,.F.);
#364=ORIENTED_EDGE('',*,*,#514,.T.);
#365=ORIENTED_EDGE('',*,*,#391,.T.);
#366=ORIENTED_EDGE('',*,*,#515,.F.);
#367=ORIENTED_EDGE('',*,*,#438,.F.);
#368=ORIENTED_EDGE('',*,*,#439,.T.);
#369=ORIENTED_EDGE('',*,*,#515,.T.);
#370=ORIENTED_EDGE('',*,*,#390,.F.);
#371=ORIENTED_EDGE('',*,*,#512,.F.);
#372=EDGE_CURVE('',#516,#517,#620,.T.);
#373=EDGE_CURVE('',#516,#518,#621,.T.);
#374=EDGE_CURVE('',#518,#519,#622,.T.);
#375=EDGE_CURVE('',#517,#519,#623,.T.);
#376=EDGE_CURVE('',#520,#521,#624,.T.);
#377=EDGE_CURVE('',#521,#522,#625,.T.);
#378=EDGE_CURVE('',#523,#522,#626,.T.);
#379=EDGE_CURVE('',#520,#523,#627,.T.);
#380=EDGE_CURVE('',#524,#525,#628,.T.);
#381=EDGE_CURVE('',#525,#526,#629,.T.);
#382=EDGE_CURVE('',#527,#526,#630,.T.);
#383=EDGE_CURVE('',#524,#527,#631,.T.);
#384=EDGE_CURVE('',#528,#529,#632,.T.);
#385=EDGE_CURVE('',#528,#530,#633,.T.);
#386=EDGE_CURVE('',#530,#531,#634,.T.);
#387=EDGE_CURVE('',#529,#531,#635,.T.);
#388=EDGE_CURVE('',#532,#533,#636,.T.);
#389=EDGE_CURVE('',#532,#534,#637,.T.);
#390=EDGE_CURVE('',#534,#535,#638,.T.);
#391=EDGE_CURVE('',#533,#535,#639,.T.);
#392=EDGE_CURVE('',#536,#537,#640,.T.);
#393=EDGE_CURVE('',#536,#538,#641,.T.);
#394=EDGE_CURVE('',#538,#539,#642,.T.);
#395=EDGE_CURVE('',#537,#539,#643,.T.);
#396=EDGE_CURVE('',#540,#541,#644,.T.);
#397=EDGE_CURVE('',#542,#540,#645,.T.);
#398=EDGE_CURVE('',#542,#543,#646,.T.);
#399=EDGE_CURVE('',#543,#541,#647,.T.);
#400=EDGE_CURVE('',#544,#545,#648,.T.);
#401=EDGE_CURVE('',#544,#546,#36,.T.);
#402=EDGE_CURVE('',#547,#546,#37,.T.);
#403=EDGE_CURVE('',#548,#547,#38,.T.);
#404=EDGE_CURVE('',#549,#548,#649,.T.);
#405=EDGE_CURVE('',#549,#550,#650,.T.);
#406=EDGE_CURVE('',#550,#551,#651,.T.);
#407=EDGE_CURVE('',#551,#552,#39,.T.);
#408=EDGE_CURVE('',#552,#553,#40,.T.);
#409=EDGE_CURVE('',#554,#553,#41,.T.);
#410=EDGE_CURVE('',#554,#555,#652,.T.);
#411=EDGE_CURVE('',#555,#556,#42,.T.);
#412=EDGE_CURVE('',#557,#556,#43,.T.);
#413=EDGE_CURVE('',#557,#558,#44,.T.);
#414=EDGE_CURVE('',#558,#559,#653,.T.);
#415=EDGE_CURVE('',#560,#559,#654,.T.);
#416=EDGE_CURVE('',#561,#560,#655,.T.);
#417=EDGE_CURVE('',#562,#561,#45,.T.);
#418=EDGE_CURVE('',#562,#563,#46,.T.);
#419=EDGE_CURVE('',#545,#563,#47,.T.);
#420=EDGE_CURVE('',#564,#564,#48,.T.);
#421=EDGE_CURVE('',#565,#565,#49,.T.);
#422=EDGE_CURVE('',#566,#566,#50,.T.);
#423=EDGE_CURVE('',#567,#567,#51,.T.);
#424=EDGE_CURVE('',#568,#568,#52,.T.);
#425=EDGE_CURVE('',#569,#569,#53,.T.);
#426=EDGE_CURVE('',#570,#570,#54,.T.);
#427=EDGE_CURVE('',#571,#571,#55,.T.);
#428=EDGE_CURVE('',#572,#572,#56,.T.);
#429=EDGE_CURVE('',#573,#573,#57,.T.);
#430=EDGE_CURVE('',#574,#574,#58,.T.);
#431=EDGE_CURVE('',#575,#575,#59,.T.);
#432=EDGE_CURVE('',#576,#577,#656,.T.);
#433=EDGE_CURVE('',#578,#576,#657,.T.);
#434=EDGE_CURVE('',#578,#579,#658,.T.);
#435=EDGE_CURVE('',#579,#577,#659,.T.);
#436=EDGE_CURVE('',#580,#581,#660,.T.);
#437=EDGE_CURVE('',#580,#582,#661,.T.);
#438=EDGE_CURVE('',#582,#583,#662,.T.);
#439=EDGE_CURVE('',#581,#583,#663,.T.);
#440=EDGE_CURVE('',#584,#585,#664,.T.);
#441=EDGE_CURVE('',#585,#586,#60,.T.);
#442=EDGE_CURVE('',#587,#586,#61,.T.);
#443=EDGE_CURVE('',#587,#588,#62,.T.);
#444=EDGE_CURVE('',#588,#589,#665,.T.);
#445=EDGE_CURVE('',#589,#590,#666,.T.);
#446=EDGE_CURVE('',#591,#590,#667,.T.);
#447=EDGE_CURVE('',#592,#591,#63,.T.);
#448=EDGE_CURVE('',#592,#593,#64,.T.);
#449=EDGE_CURVE('',#594,#593,#65,.T.);
#450=EDGE_CURVE('',#595,#594,#668,.T.);
#451=EDGE_CURVE('',#595,#596,#66,.T.);
#452=EDGE_CURVE('',#597,#596,#67,.T.);
#453=EDGE_CURVE('',#598,#597,#68,.T.);
#454=EDGE_CURVE('',#599,#598,#669,.T.);
#455=EDGE_CURVE('',#600,#599,#670,.T.);
#456=EDGE_CURVE('',#600,#601,#671,.T.);
#457=EDGE_CURVE('',#601,#602,#69,.T.);
#458=EDGE_CURVE('',#602,#603,#70,.T.);
#459=EDGE_CURVE('',#584,#603,#71,.T.);
#460=EDGE_CURVE('',#604,#604,#72,.T.);
#461=EDGE_CURVE('',#605,#605,#73,.T.);
#462=EDGE_CURVE('',#606,#606,#74,.T.);
#463=EDGE_CURVE('',#607,#607,#75,.T.);
#464=EDGE_CURVE('',#608,#608,#76,.T.);
#465=EDGE_CURVE('',#609,#609,#77,.T.);
#466=EDGE_CURVE('',#610,#610,#78,.T.);
#467=EDGE_CURVE('',#611,#611,#79,.T.);
#468=EDGE_CURVE('',#612,#612,#80,.T.);
#469=EDGE_CURVE('',#613,#613,#81,.T.);
#470=EDGE_CURVE('',#614,#614,#82,.T.);
#471=EDGE_CURVE('',#615,#615,#83,.T.);
#472=EDGE_CURVE('',#616,#617,#672,.T.);
#473=EDGE_CURVE('',#616,#618,#673,.T.);
#474=EDGE_CURVE('',#618,#619,#674,.T.);
#475=EDGE_CURVE('',#617,#619,#675,.T.);
#476=EDGE_CURVE('',#585,#545,#676,.T.);
#477=EDGE_CURVE('',#584,#544,#677,.T.);
#478=EDGE_CURVE('',#586,#563,#678,.T.);
#479=EDGE_CURVE('',#587,#562,#679,.T.);
#480=EDGE_CURVE('',#588,#561,#680,.T.);
#481=EDGE_CURVE('',#589,#560,#681,.T.);
#482=EDGE_CURVE('',#590,#559,#682,.T.);
#483=EDGE_CURVE('',#591,#558,#683,.T.);
#484=EDGE_CURVE('',#592,#557,#684,.T.);
#485=EDGE_CURVE('',#593,#556,#685,.T.);
#486=EDGE_CURVE('',#594,#555,#686,.T.);
#487=EDGE_CURVE('',#595,#554,#687,.T.);
#488=EDGE_CURVE('',#596,#553,#688,.T.);
#489=EDGE_CURVE('',#597,#552,#689,.T.);
#490=EDGE_CURVE('',#598,#551,#690,.T.);
#491=EDGE_CURVE('',#599,#550,#691,.T.);
#492=EDGE_CURVE('',#600,#549,#692,.T.);
#493=EDGE_CURVE('',#601,#548,#693,.T.);
#494=EDGE_CURVE('',#602,#547,#694,.T.);
#495=EDGE_CURVE('',#603,#546,#695,.T.);
#496=EDGE_CURVE('',#516,#616,#696,.T.);
#497=EDGE_CURVE('',#517,#618,#697,.T.);
#498=EDGE_CURVE('',#518,#617,#698,.T.);
#499=EDGE_CURVE('',#519,#619,#699,.T.);
#500=EDGE_CURVE('',#541,#522,#700,.T.);
#501=EDGE_CURVE('',#540,#521,#701,.T.);
#502=EDGE_CURVE('',#542,#520,#702,.T.);
#503=EDGE_CURVE('',#543,#523,#703,.T.);
#504=EDGE_CURVE('',#577,#526,#704,.T.);
#505=EDGE_CURVE('',#576,#525,#705,.T.);
#506=EDGE_CURVE('',#578,#524,#706,.T.);
#507=EDGE_CURVE('',#579,#527,#707,.T.);
#508=EDGE_CURVE('',#537,#530,#708,.T.);
#509=EDGE_CURVE('',#536,#528,#709,.T.);
#510=EDGE_CURVE('',#538,#529,#710,.T.);
#511=EDGE_CURVE('',#539,#531,#711,.T.);
#512=EDGE_CURVE('',#581,#534,#712,.T.);
#513=EDGE_CURVE('',#580,#532,#713,.T.);
#514=EDGE_CURVE('',#582,#533,#714,.T.);
#515=EDGE_CURVE('',#583,#535,#715,.T.);
#516=VERTEX_POINT('',#1521);
#517=VERTEX_POINT('',#1522);
#518=VERTEX_POINT('',#1524);
#519=VERTEX_POINT('',#1526);
#520=VERTEX_POINT('',#1529);
#521=VERTEX_POINT('',#1530);
#522=VERTEX_POINT('',#1532);
#523=VERTEX_POINT('',#1534);
#524=VERTEX_POINT('',#1537);
#525=VERTEX_POINT('',#1538);
#526=VERTEX_POINT('',#1540);
#527=VERTEX_POINT('',#1542);
#528=VERTEX_POINT('',#1545);
#529=VERTEX_POINT('',#1546);
#530=VERTEX_POINT('',#1548);
#531=VERTEX_POINT('',#1550);
#532=VERTEX_POINT('',#1553);
#533=VERTEX_POINT('',#1554);
#534=VERTEX_POINT('',#1556);
#535=VERTEX_POINT('',#1558);
#536=VERTEX_POINT('',#1562);
#537=VERTEX_POINT('',#1563);
#538=VERTEX_POINT('',#1565);
#539=VERTEX_POINT('',#1567);
#540=VERTEX_POINT('',#1570);
#541=VERTEX_POINT('',#1571);
#542=VERTEX_POINT('',#1573);
#543=VERTEX_POINT('',#1575);
#544=VERTEX_POINT('',#1578);
#545=VERTEX_POINT('',#1579);
#546=VERTEX_POINT('',#1581);
#547=VERTEX_POINT('',#1583);
#548=VERTEX_POINT('',#1585);
#549=VERTEX_POINT('',#1587);
#550=VERTEX_POINT('',#1589);
#551=VERTEX_POINT('',#1591);
#552=VERTEX_POINT('',#1593);
#553=VERTEX_POINT('',#1595);
#554=VERTEX_POINT('',#1597);
#555=VERTEX_POINT('',#1599);
#556=VERTEX_POINT('',#1601);
#557=VERTEX_POINT('',#1603);
#558=VERTEX_POINT('',#1605);
#559=VERTEX_POINT('',#1607);
#560=VERTEX_POINT('',#1609);
#561=VERTEX_POINT('',#1611);
#562=VERTEX_POINT('',#1613);
#563=VERTEX_POINT('',#1615);
#564=VERTEX_POINT('',#1618);
#565=VERTEX_POINT('',#1620);
#566=VERTEX_POINT('',#1622);
#567=VERTEX_POINT('',#1624);
#568=VERTEX_POINT('',#1626);
#569=VERTEX_POINT('',#1628);
#570=VERTEX_POINT('',#1630);
#571=VERTEX_POINT('',#1632);
#572=VERTEX_POINT('',#1634);
#573=VERTEX_POINT('',#1636);
#574=VERTEX_POINT('',#1638);
#575=VERTEX_POINT('',#1640);
#576=VERTEX_POINT('',#1642);
#577=VERTEX_POINT('',#1643);
#578=VERTEX_POINT('',#1645);
#579=VERTEX_POINT('',#1647);
#580=VERTEX_POINT('',#1650);
#581=VERTEX_POINT('',#1651);
#582=VERTEX_POINT('',#1653);
#583=VERTEX_POINT('',#1655);
#584=VERTEX_POINT('',#1659);
#585=VERTEX_POINT('',#1660);
#586=VERTEX_POINT('',#1662);
#587=VERTEX_POINT('',#1664);
#588=VERTEX_POINT('',#1666);
#589=VERTEX_POINT('',#1668);
#590=VERTEX_POINT('',#1670);
#591=VERTEX_POINT('',#1672);
#592=VERTEX_POINT('',#1674);
#593=VERTEX_POINT('',#1676);
#594=VERTEX_POINT('',#1678);
#595=VERTEX_POINT('',#1680);
#596=VERTEX_POINT('',#1682);
#597=VERTEX_POINT('',#1684);
#598=VERTEX_POINT('',#1686);
#599=VERTEX_POINT('',#1688);
#600=VERTEX_POINT('',#1690);
#601=VERTEX_POINT('',#1692);
#602=VERTEX_POINT('',#1694);
#603=VERTEX_POINT('',#1696);
#604=VERTEX_POINT('',#1699);
#605=VERTEX_POINT('',#1701);
#606=VERTEX_POINT('',#1703);
#607=VERTEX_POINT('',#1705);
#608=VERTEX_POINT('',#1707);
#609=VERTEX_POINT('',#1709);
#610=VERTEX_POINT('',#1711);
#611=VERTEX_POINT('',#1713);
#612=VERTEX_POINT('',#1715);
#613=VERTEX_POINT('',#1717);
#614=VERTEX_POINT('',#1719);
#615=VERTEX_POINT('',#1721);
#616=VERTEX_POINT('',#1723);
#617=VERTEX_POINT('',#1724);
#618=VERTEX_POINT('',#1726);
#619=VERTEX_POINT('',#1728);
#620=LINE('',#1520,#716);
#621=LINE('',#1523,#717);
#622=LINE('',#1525,#718);
#623=LINE('',#1527,#719);
#624=LINE('',#1528,#720);
#625=LINE('',#1531,#721);
#626=LINE('',#1533,#722);
#627=LINE('',#1535,#723);
#628=LINE('',#1536,#724);
#629=LINE('',#1539,#725);
#630=LINE('',#1541,#726);
#631=LINE('',#1543,#727);
#632=LINE('',#1544,#728);
#633=LINE('',#1547,#729);
#634=LINE('',#1549,#730);
#635=LINE('',#1551,#731);
#636=LINE('',#1552,#732);
#637=LINE('',#1555,#733);
#638=LINE('',#1557,#734);
#639=LINE('',#1559,#735);
#640=LINE('',#1561,#736);
#641=LINE('',#1564,#737);
#642=LINE('',#1566,#738);
#643=LINE('',#1568,#739);
#644=LINE('',#1569,#740);
#645=LINE('',#1572,#741);
#646=LINE('',#1574,#742);
#647=LINE('',#1576,#743);
#648=LINE('',#1577,#744);
#649=LINE('',#1586,#745);
#650=LINE('',#1588,#746);
#651=LINE('',#1590,#747);
#652=LINE('',#1598,#748);
#653=LINE('',#1606,#749);
#654=LINE('',#1608,#750);
#655=LINE('',#1610,#751);
#656=LINE('',#1641,#752);
#657=LINE('',#1644,#753);
#658=LINE('',#1646,#754);
#659=LINE('',#1648,#755);
#660=LINE('',#1649,#756);
#661=LINE('',#1652,#757);
#662=LINE('',#1654,#758);
#663=LINE('',#1656,#759);
#664=LINE('',#1658,#760);
#665=LINE('',#1667,#761);
#666=LINE('',#1669,#762);
#667=LINE('',#1671,#763);
#668=LINE('',#1679,#764);
#669=LINE('',#1687,#765);
#670=LINE('',#1689,#766);
#671=LINE('',#1691,#767);
#672=LINE('',#1722,#768);
#673=LINE('',#1725,#769);
#674=LINE('',#1727,#770);
#675=LINE('',#1729,#771);
#676=LINE('',#1731,#772);
#677=LINE('',#1732,#773);
#678=LINE('',#1734,#774);
#679=LINE('',#1736,#775);
#680=LINE('',#1738,#776);
#681=LINE('',#1740,#777);
#682=LINE('',#1742,#778);
#683=LINE('',#1744,#779);
#684=LINE('',#1746,#780);
#685=LINE('',#1748,#781);
#686=LINE('',#1750,#782);
#687=LINE('',#1752,#783);
#688=LINE('',#1754,#784);
#689=LINE('',#1756,#785);
#690=LINE('',#1758,#786);
#691=LINE('',#1760,#787);
#692=LINE('',#1762,#788);
#693=LINE('',#1764,#789);
#694=LINE('',#1766,#790);
#695=LINE('',#1768,#791);
#696=LINE('',#1783,#792);
#697=LINE('',#1784,#793);
#698=LINE('',#1786,#794);
#699=LINE('',#1788,#795);
#700=LINE('',#1791,#796);
#701=LINE('',#1792,#797);
#702=LINE('',#1794,#798);
#703=LINE('',#1796,#799);
#704=LINE('',#1799,#800);
#705=LINE('',#1800,#801);
#706=LINE('',#1802,#802);
#707=LINE('',#1804,#803);
#708=LINE('',#1807,#804);
#709=LINE('',#1808,#805);
#710=LINE('',#1810,#806);
#711=LINE('',#1812,#807);
#712=LINE('',#1815,#808);
#713=LINE('',#1816,#809);
#714=LINE('',#1818,#810);
#715=LINE('',#1820,#811);
#716=VECTOR('',#1218,1.);
#717=VECTOR('',#1219,1.);
#718=VECTOR('',#1220,1.);
#719=VECTOR('',#1221,1.);
#720=VECTOR('',#1222,1.);
#721=VECTOR('',#1223,1.);
#722=VECTOR('',#1224,1.);
#723=VECTOR('',#1225,1.);
#724=VECTOR('',#1226,1.);
#725=VECTOR('',#1227,1.);
#726=VECTOR('',#1228,1.);
#727=VECTOR('',#1229,1.);
#728=VECTOR('',#1230,1.);
#729=VECTOR('',#1231,1.);
#730=VECTOR('',#1232,1.);
#731=VECTOR('',#1233,1.);
#732=VECTOR('',#1234,1.);
#733=VECTOR('',#1235,1.);
#734=VECTOR('',#1236,1.);
#735=VECTOR('',#1237,1.);
#736=VECTOR('',#1240,1.);
#737=VECTOR('',#1241,1.);
#738=VECTOR('',#1242,1.);
#739=VECTOR('',#1243,1.);
#740=VECTOR('',#1244,1.);
#741=VECTOR('',#1245,1.);
#742=VECTOR('',#1246,1.);
#743=VECTOR('',#1247,1.);
#744=VECTOR('',#1248,1.);
#745=VECTOR('',#1255,1.);
#746=VECTOR('',#1256,1.);
#747=VECTOR('',#1257,1.);
#748=VECTOR('',#1264,1.);
#749=VECTOR('',#1271,1.);
#750=VECTOR('',#1272,1.);
#751=VECTOR('',#1273,1.);
#752=VECTOR('',#1304,1.);
#753=VECTOR('',#1305,1.);
#754=VECTOR('',#1306,1.);
#755=VECTOR('',#1307,1.);
#756=VECTOR('',#1308,1.);
#757=VECTOR('',#1309,1.);
#758=VECTOR('',#1310,1.);
#759=VECTOR('',#1311,1.);
#760=VECTOR('',#1314,1.);
#761=VECTOR('',#1321,1.);
#762=VECTOR('',#1322,1.);
#763=VECTOR('',#1323,1.);
#764=VECTOR('',#1330,1.);
#765=VECTOR('',#1337,1.);
#766=VECTOR('',#1338,1.);
#767=VECTOR('',#1339,1.);
#768=VECTOR('',#1370,1.);
#769=VECTOR('',#1371,1.);
#770=VECTOR('',#1372,1.);
#771=VECTOR('',#1373,1.);
#772=VECTOR('',#1376,1.);
#773=VECTOR('',#1377,1.);
#774=VECTOR('',#1380,1.);
#775=VECTOR('',#1383,1.);
#776=VECTOR('',#1386,1.);
#777=VECTOR('',#1389,1.);
#778=VECTOR('',#1392,1.);
#779=VECTOR('',#1395,1.);
#780=VECTOR('',#1398,1.);
#781=VECTOR('',#1401,1.);
#782=VECTOR('',#1404,1.);
#783=VECTOR('',#1407,1.);
#784=VECTOR('',#1410,1.);
#785=VECTOR('',#1413,1.);
#786=VECTOR('',#1416,1.);
#787=VECTOR('',#1419,1.);
#788=VECTOR('',#1422,1.);
#789=VECTOR('',#1425,1.);
#790=VECTOR('',#1428,1.);
#791=VECTOR('',#1431,1.);
#792=VECTOR('',#1460,1.);
#793=VECTOR('',#1461,1.);
#794=VECTOR('',#1464,1.);
#795=VECTOR('',#1467,1.);
#796=VECTOR('',#1472,1.);
#797=VECTOR('',#1473,1.);
#798=VECTOR('',#1476,1.);
#799=VECTOR('',#1479,1.);
#800=VECTOR('',#1484,1.);
#801=VECTOR('',#1485,1.);
#802=VECTOR('',#1488,1.);
#803=VECTOR('',#1491,1.);
#804=VECTOR('',#1496,1.);
#805=VECTOR('',#1497,1.);
#806=VECTOR('',#1500,1.);
#807=VECTOR('',#1503,1.);
#808=VECTOR('',#1508,1.);
#809=VECTOR('',#1509,1.);
#810=VECTOR('',#1512,1.);
#811=VECTOR('',#1515,1.);
#812=EDGE_LOOP('',(#84,#85,#86,#87));
#813=EDGE_LOOP('',(#88,#89,#90,#91));
#814=EDGE_LOOP('',(#92,#93,#94,#95));
#815=EDGE_LOOP('',(#96,#97,#98,#99));
#816=EDGE_LOOP('',(#100,#101,#102,#103));
#817=EDGE_LOOP('',(#104,#105,#106,#107));
#818=EDGE_LOOP('',(#108,#109,#110,#111));
#819=EDGE_LOOP('',(#112,#113,#114,#115,#116,#117,#118,#119,#120,#121,#122,
#123,#124,#125,#126,#127,#128,#129,#130,#131));
#820=EDGE_LOOP('',(#132));
#821=EDGE_LOOP('',(#133));
#822=EDGE_LOOP('',(#134));
#823=EDGE_LOOP('',(#135));
#824=EDGE_LOOP('',(#136));
#825=EDGE_LOOP('',(#137));
#826=EDGE_LOOP('',(#138));
#827=EDGE_LOOP('',(#139));
#828=EDGE_LOOP('',(#140));
#829=EDGE_LOOP('',(#141));
#830=EDGE_LOOP('',(#142));
#831=EDGE_LOOP('',(#143));
#832=EDGE_LOOP('',(#144,#145,#146,#147));
#833=EDGE_LOOP('',(#148,#149,#150,#151));
#834=EDGE_LOOP('',(#152,#153,#154,#155,#156,#157,#158,#159,#160,#161,#162,
#163,#164,#165,#166,#167,#168,#169,#170,#171));
#835=EDGE_LOOP('',(#172));
#836=EDGE_LOOP('',(#173));
#837=EDGE_LOOP('',(#174));
#838=EDGE_LOOP('',(#175));
#839=EDGE_LOOP('',(#176));
#840=EDGE_LOOP('',(#177));
#841=EDGE_LOOP('',(#178));
#842=EDGE_LOOP('',(#179));
#843=EDGE_LOOP('',(#180));
#844=EDGE_LOOP('',(#181));
#845=EDGE_LOOP('',(#182));
#846=EDGE_LOOP('',(#183));
#847=EDGE_LOOP('',(#184,#185,#186,#187));
#848=EDGE_LOOP('',(#188,#189,#190,#191));
#849=EDGE_LOOP('',(#192,#193,#194,#195));
#850=EDGE_LOOP('',(#196,#197,#198,#199));
#851=EDGE_LOOP('',(#200,#201,#202,#203));
#852=EDGE_LOOP('',(#204,#205,#206,#207));
#853=EDGE_LOOP('',(#208,#209,#210,#211));
#854=EDGE_LOOP('',(#212,#213,#214,#215));
#855=EDGE_LOOP('',(#216,#217,#218,#219));
#856=EDGE_LOOP('',(#220,#221,#222,#223));
#857=EDGE_LOOP('',(#224,#225,#226,#227));
#858=EDGE_LOOP('',(#228,#229,#230,#231));
#859=EDGE_LOOP('',(#232,#233,#234,#235));
#860=EDGE_LOOP('',(#236,#237,#238,#239));
#861=EDGE_LOOP('',(#240,#241,#242,#243));
#862=EDGE_LOOP('',(#244,#245,#246,#247));
#863=EDGE_LOOP('',(#248,#249,#250,#251));
#864=EDGE_LOOP('',(#252,#253,#254,#255));
#865=EDGE_LOOP('',(#256,#257,#258,#259));
#866=EDGE_LOOP('',(#260,#261,#262,#263));
#867=EDGE_LOOP('',(#264));
#868=EDGE_LOOP('',(#265));
#869=EDGE_LOOP('',(#266));
#870=EDGE_LOOP('',(#267));
#871=EDGE_LOOP('',(#268));
#872=EDGE_LOOP('',(#269));
#873=EDGE_LOOP('',(#270));
#874=EDGE_LOOP('',(#271));
#875=EDGE_LOOP('',(#272));
#876=EDGE_LOOP('',(#273));
#877=EDGE_LOOP('',(#274));
#878=EDGE_LOOP('',(#275));
#879=EDGE_LOOP('',(#276));
#880=EDGE_LOOP('',(#277));
#881=EDGE_LOOP('',(#278));
#882=EDGE_LOOP('',(#279));
#883=EDGE_LOOP('',(#280));
#884=EDGE_LOOP('',(#281));
#885=EDGE_LOOP('',(#282));
#886=EDGE_LOOP('',(#283));
#887=EDGE_LOOP('',(#284));
#888=EDGE_LOOP('',(#285));
#889=EDGE_LOOP('',(#286,#287,#288,#289));
#890=EDGE_LOOP('',(#290));
#891=EDGE_LOOP('',(#291));
#892=EDGE_LOOP('',(#292,#293,#294,#295));
#893=EDGE_LOOP('',(#296,#297,#298,#299));
#894=EDGE_LOOP('',(#300,#301,#302,#303));
#895=EDGE_LOOP('',(#304,#305,#306,#307));
#896=EDGE_LOOP('',(#308,#309,#310,#311));
#897=EDGE_LOOP('',(#312,#313,#314,#315));
#898=EDGE_LOOP('',(#316,#317,#318,#319));
#899=EDGE_LOOP('',(#320,#321,#322,#323));
#900=EDGE_LOOP('',(#324,#325,#326,#327));
#901=EDGE_LOOP('',(#328,#329,#330,#331));
#902=EDGE_LOOP('',(#332,#333,#334,#335));
#903=EDGE_LOOP('',(#336,#337,#338,#339));
#904=EDGE_LOOP('',(#340,#341,#342,#343));
#905=EDGE_LOOP('',(#344,#345,#346,#347));
#906=EDGE_LOOP('',(#348,#349,#350,#351));
#907=EDGE_LOOP('',(#352,#353,#354,#355));
#908=EDGE_LOOP('',(#356,#357,#358,#359));
#909=EDGE_LOOP('',(#360,#361,#362,#363));
#910=EDGE_LOOP('',(#364,#365,#366,#367));
#911=EDGE_LOOP('',(#368,#369,#370,#371));
#912=FACE_BOUND('',#812,.T.);
#913=FACE_BOUND('',#813,.T.);
#914=FACE_BOUND('',#814,.T.);
#915=FACE_BOUND('',#815,.T.);
#916=FACE_BOUND('',#816,.T.);
#917=FACE_BOUND('',#817,.T.);
#918=FACE_BOUND('',#818,.T.);
#919=FACE_BOUND('',#819,.T.);
#920=FACE_BOUND('',#820,.T.);
#921=FACE_BOUND('',#821,.T.);
#922=FACE_BOUND('',#822,.T.);
#923=FACE_BOUND('',#823,.T.);
#924=FACE_BOUND('',#824,.T.);
#925=FACE_BOUND('',#825,.T.);
#926=FACE_BOUND('',#826,.T.);
#927=FACE_BOUND('',#827,.T.);
#928=FACE_BOUND('',#828,.T.);
#929=FACE_BOUND('',#829,.T.);
#930=FACE_BOUND('',#830,.T.);
#931=FACE_BOUND('',#831,.T.);
#932=FACE_BOUND('',#832,.T.);
#933=FACE_BOUND('',#833,.T.);
#934=FACE_BOUND('',#834,.T.);
#935=FACE_BOUND('',#835,.T.);
#936=FACE_BOUND('',#836,.T.);
#937=FACE_BOUND('',#837,.T.);
#938=FACE_BOUND('',#838,.T.);
#939=FACE_BOUND('',#839,.T.);
#940=FACE_BOUND('',#840,.T.);
#941=FACE_BOUND('',#841,.T.);
#942=FACE_BOUND('',#842,.T.);
#943=FACE_BOUND('',#843,.T.);
#944=FACE_BOUND('',#844,.T.);
#945=FACE_BOUND('',#845,.T.);
#946=FACE_BOUND('',#846,.T.);
#947=FACE_BOUND('',#847,.T.);
#948=FACE_BOUND('',#848,.T.);
#949=FACE_BOUND('',#849,.T.);
#950=FACE_BOUND('',#850,.T.);
#951=FACE_BOUND('',#851,.T.);
#952=FACE_BOUND('',#852,.T.);
#953=FACE_BOUND('',#853,.T.);
#954=FACE_BOUND('',#854,.T.);
#955=FACE_BOUND('',#855,.T.);
#956=FACE_BOUND('',#856,.T.);
#957=FACE_BOUND('',#857,.T.);
#958=FACE_BOUND('',#858,.T.);
#959=FACE_BOUND('',#859,.T.);
#960=FACE_BOUND('',#860,.T.);
#961=FACE_BOUND('',#861,.T.);
#962=FACE_BOUND('',#862,.T.);
#963=FACE_BOUND('',#863,.T.);
#964=FACE_BOUND('',#864,.T.);
#965=FACE_BOUND('',#865,.T.);
#966=FACE_BOUND('',#866,.T.);
#967=FACE_BOUND('',#867,.T.);
#968=FACE_BOUND('',#868,.T.);
#969=FACE_BOUND('',#869,.T.);
#970=FACE_BOUND('',#870,.T.);
#971=FACE_BOUND('',#871,.T.);
#972=FACE_BOUND('',#872,.T.);
#973=FACE_BOUND('',#873,.T.);
#974=FACE_BOUND('',#874,.T.);
#975=FACE_BOUND('',#875,.T.);
#976=FACE_BOUND('',#876,.T.);
#977=FACE_BOUND('',#877,.T.);
#978=FACE_BOUND('',#878,.T.);
#979=FACE_BOUND('',#879,.T.);
#980=FACE_BOUND('',#880,.T.);
#981=FACE_BOUND('',#881,.T.);
#982=FACE_BOUND('',#882,.T.);
#983=FACE_BOUND('',#883,.T.);
#984=FACE_BOUND('',#884,.T.);
#985=FACE_BOUND('',#885,.T.);
#986=FACE_BOUND('',#886,.T.);
#987=FACE_BOUND('',#887,.T.);
#988=FACE_BOUND('',#888,.T.);
#989=FACE_BOUND('',#889,.T.);
#990=FACE_BOUND('',#890,.T.);
#991=FACE_BOUND('',#891,.T.);
#992=FACE_BOUND('',#892,.T.);
#993=FACE_BOUND('',#893,.T.);
#994=FACE_BOUND('',#894,.T.);
#995=FACE_BOUND('',#895,.T.);
#996=FACE_BOUND('',#896,.T.);
#997=FACE_BOUND('',#897,.T.);
#998=FACE_BOUND('',#898,.T.);
#999=FACE_BOUND('',#899,.T.);
#1000=FACE_BOUND('',#900,.T.);
#1001=FACE_BOUND('',#901,.T.);
#1002=FACE_BOUND('',#902,.T.);
#1003=FACE_BOUND('',#903,.T.);
#1004=FACE_BOUND('',#904,.T.);
#1005=FACE_BOUND('',#905,.T.);
#1006=FACE_BOUND('',#906,.T.);
#1007=FACE_BOUND('',#907,.T.);
#1008=FACE_BOUND('',#908,.T.);
#1009=FACE_BOUND('',#909,.T.);
#1010=FACE_BOUND('',#910,.T.);
#1011=FACE_BOUND('',#911,.T.);
#1012=PLANE('',#1111);
#1013=PLANE('',#1112);
#1014=PLANE('',#1137);
#1015=PLANE('',#1162);
#1016=PLANE('',#1166);
#1017=PLANE('',#1167);
#1018=PLANE('',#1168);
#1019=PLANE('',#1172);
#1020=PLANE('',#1176);
#1021=PLANE('',#1177);
#1022=PLANE('',#1178);
#1023=PLANE('',#1194);
#1024=PLANE('',#1195);
#1025=PLANE('',#1196);
#1026=PLANE('',#1197);
#1027=PLANE('',#1198);
#1028=PLANE('',#1199);
#1029=PLANE('',#1200);
#1030=PLANE('',#1201);
#1031=PLANE('',#1202);
#1032=PLANE('',#1203);
#1033=PLANE('',#1204);
#1034=PLANE('',#1205);
#1035=PLANE('',#1206);
#1036=PLANE('',#1207);
#1037=PLANE('',#1208);
#1038=PLANE('',#1209);
#1039=PLANE('',#1210);
#1040=PLANE('',#1211);
#1041=PLANE('',#1212);
#1042=PLANE('',#1213);
#1043=ADVANCED_FACE('',(#912,#913,#914,#915,#916),#1012,.T.);
#1044=ADVANCED_FACE('',(#917,#918,#919,#920,#921,#922,#923,#924,#925,#926,
#927,#928,#929,#930,#931,#932,#933),#1013,.F.);
#1045=ADVANCED_FACE('',(#934,#935,#936,#937,#938,#939,#940,#941,#942,#943,
#944,#945,#946,#947),#1014,.T.);
#1046=ADVANCED_FACE('',(#948),#1015,.F.);
#1047=ADVANCED_FACE('',(#949),#12,.F.);
#1048=ADVANCED_FACE('',(#950),#13,.T.);
#1049=ADVANCED_FACE('',(#951),#14,.F.);
#1050=ADVANCED_FACE('',(#952),#1016,.F.);
#1051=ADVANCED_FACE('',(#953),#1017,.F.);
#1052=ADVANCED_FACE('',(#954),#1018,.T.);
#1053=ADVANCED_FACE('',(#955),#15,.F.);
#1054=ADVANCED_FACE('',(#956),#16,.T.);
#1055=ADVANCED_FACE('',(#957),#17,.F.);
#1056=ADVANCED_FACE('',(#958),#1019,.T.);
#1057=ADVANCED_FACE('',(#959),#18,.F.);
#1058=ADVANCED_FACE('',(#960),#19,.T.);
#1059=ADVANCED_FACE('',(#961),#20,.F.);
#1060=ADVANCED_FACE('',(#962),#1020,.T.);
#1061=ADVANCED_FACE('',(#963),#1021,.T.);
#1062=ADVANCED_FACE('',(#964),#1022,.F.);
#1063=ADVANCED_FACE('',(#965),#21,.F.);
#1064=ADVANCED_FACE('',(#966),#22,.T.);
#1065=ADVANCED_FACE('',(#967,#968),#23,.F.);
#1066=ADVANCED_FACE('',(#969,#970),#24,.F.);
#1067=ADVANCED_FACE('',(#971,#972),#25,.F.);
#1068=ADVANCED_FACE('',(#973,#974),#26,.F.);
#1069=ADVANCED_FACE('',(#975,#976),#27,.F.);
#1070=ADVANCED_FACE('',(#977,#978),#28,.F.);
#1071=ADVANCED_FACE('',(#979,#980),#29,.F.);
#1072=ADVANCED_FACE('',(#981,#982),#30,.F.);
#1073=ADVANCED_FACE('',(#983,#984),#31,.F.);
#1074=ADVANCED_FACE('',(#985,#986),#32,.F.);
#1075=ADVANCED_FACE('',(#987,#988),#33,.F.);
#1076=ADVANCED_FACE('',(#989),#34,.F.);
#1077=ADVANCED_FACE('',(#990,#991),#35,.F.);
#1078=ADVANCED_FACE('',(#992),#1023,.T.);
#1079=ADVANCED_FACE('',(#993),#1024,.F.);
#1080=ADVANCED_FACE('',(#994),#1025,.F.);
#1081=ADVANCED_FACE('',(#995),#1026,.T.);
#1082=ADVANCED_FACE('',(#996),#1027,.T.);
#1083=ADVANCED_FACE('',(#997),#1028,.T.);
#1084=ADVANCED_FACE('',(#998),#1029,.F.);
#1085=ADVANCED_FACE('',(#999),#1030,.F.);
#1086=ADVANCED_FACE('',(#1000),#1031,.T.);
#1087=ADVANCED_FACE('',(#1001),#1032,.T.);
#1088=ADVANCED_FACE('',(#1002),#1033,.F.);
#1089=ADVANCED_FACE('',(#1003),#1034,.F.);
#1090=ADVANCED_FACE('',(#1004),#1035,.T.);
#1091=ADVANCED_FACE('',(#1005),#1036,.F.);
#1092=ADVANCED_FACE('',(#1006),#1037,.F.);
#1093=ADVANCED_FACE('',(#1007),#1038,.T.);
#1094=ADVANCED_FACE('',(#1008),#1039,.T.);
#1095=ADVANCED_FACE('',(#1009),#1040,.F.);
#1096=ADVANCED_FACE('',(#1010),#1041,.F.);
#1097=ADVANCED_FACE('',(#1011),#1042,.T.);
#1098=CLOSED_SHELL('',(#1043,#1044,#1045,#1046,#1047,#1048,#1049,#1050,
#1051,#1052,#1053,#1054,#1055,#1056,#1057,#1058,#1059,#1060,#1061,#1062,
#1063,#1064,#1065,#1066,#1067,#1068,#1069,#1070,#1071,#1072,#1073,#1074,
#1075,#1076,#1077,#1078,#1079,#1080,#1081,#1082,#1083,#1084,#1085,#1086,
#1087,#1088,#1089,#1090,#1091,#1092,#1093,#1094,#1095,#1096,#1097));
#1099=STYLED_ITEM('',(#1100),#1107);
#1100=PRESENTATION_STYLE_ASSIGNMENT((#1101));
#1101=SURFACE_STYLE_USAGE(.BOTH.,#1102);
#1102=SURFACE_SIDE_STYLE('',(#1103));
#1103=SURFACE_STYLE_FILL_AREA(#1104);
#1104=FILL_AREA_STYLE('',(#1105));
#1105=FILL_AREA_STYLE_COLOUR('',#1106);
#1106=COLOUR_RGB('',0.623529411764706,0.666666666666667,0.701960784313725);
#1107=MANIFOLD_SOLID_BREP('Part 1',#1098);
#1108=SHAPE_DEFINITION_REPRESENTATION(#1828,#1109);
#1109=SHAPE_REPRESENTATION('Part 1',(#1110),#1823);
#1110=AXIS2_PLACEMENT_3D('',#1518,#1214,#1215);
#1111=AXIS2_PLACEMENT_3D('',#1519,#1216,#1217);
#1112=AXIS2_PLACEMENT_3D('',#1560,#1238,#1239);
#1113=AXIS2_PLACEMENT_3D('',#1580,#1249,#1250);
#1114=AXIS2_PLACEMENT_3D('',#1582,#1251,#1252);
#1115=AXIS2_PLACEMENT_3D('',#1584,#1253,#1254);
#1116=AXIS2_PLACEMENT_3D('',#1592,#1258,#1259);
#1117=AXIS2_PLACEMENT_3D('',#1594,#1260,#1261);
#1118=AXIS2_PLACEMENT_3D('',#1596,#1262,#1263);
#1119=AXIS2_PLACEMENT_3D('',#1600,#1265,#1266);
#1120=AXIS2_PLACEMENT_3D('',#1602,#1267,#1268);
#1121=AXIS2_PLACEMENT_3D('',#1604,#1269,#1270);
#1122=AXIS2_PLACEMENT_3D('',#1612,#1274,#1275);
#1123=AXIS2_PLACEMENT_3D('',#1614,#1276,#1277);
#1124=AXIS2_PLACEMENT_3D('',#1616,#1278,#1279);
#1125=AXIS2_PLACEMENT_3D('',#1617,#1280,#1281);
#1126=AXIS2_PLACEMENT_3D('',#1619,#1282,#1283);
#1127=AXIS2_PLACEMENT_3D('',#1621,#1284,#1285);
#1128=AXIS2_PLACEMENT_3D('',#1623,#1286,#1287);
#1129=AXIS2_PLACEMENT_3D('',#1625,#1288,#1289);
#1130=AXIS2_PLACEMENT_3D('',#1627,#1290,#1291);
#1131=AXIS2_PLACEMENT_3D('',#1629,#1292,#1293);
#1132=AXIS2_PLACEMENT_3D('',#1631,#1294,#1295);
#1133=AXIS2_PLACEMENT_3D('',#1633,#1296,#1297);
#1134=AXIS2_PLACEMENT_3D('',#1635,#1298,#1299);
#1135=AXIS2_PLACEMENT_3D('',#1637,#1300,#1301);
#1136=AXIS2_PLACEMENT_3D('',#1639,#1302,#1303);
#1137=AXIS2_PLACEMENT_3D('',#1657,#1312,#1313);
#1138=AXIS2_PLACEMENT_3D('',#1661,#1315,#1316);
#1139=AXIS2_PLACEMENT_3D('',#1663,#1317,#1318);
#1140=AXIS2_PLACEMENT_3D('',#1665,#1319,#1320);
#1141=AXIS2_PLACEMENT_3D('',#1673,#1324,#1325);
#1142=AXIS2_PLACEMENT_3D('',#1675,#1326,#1327);
#1143=AXIS2_PLACEMENT_3D('',#1677,#1328,#1329);
#1144=AXIS2_PLACEMENT_3D('',#1681,#1331,#1332);
#1145=AXIS2_PLACEMENT_3D('',#1683,#1333,#1334);
#1146=AXIS2_PLACEMENT_3D('',#1685,#1335,#1336);
#1147=AXIS2_PLACEMENT_3D('',#1693,#1340,#1341);
#1148=AXIS2_PLACEMENT_3D('',#1695,#1342,#1343);
#1149=AXIS2_PLACEMENT_3D('',#1697,#1344,#1345);
#1150=AXIS2_PLACEMENT_3D('',#1698,#1346,#1347);
#1151=AXIS2_PLACEMENT_3D('',#1700,#1348,#1349);
#1152=AXIS2_PLACEMENT_3D('',#1702,#1350,#1351);
#1153=AXIS2_PLACEMENT_3D('',#1704,#1352,#1353);
#1154=AXIS2_PLACEMENT_3D('',#1706,#1354,#1355);
#1155=AXIS2_PLACEMENT_3D('',#1708,#1356,#1357);
#1156=AXIS2_PLACEMENT_3D('',#1710,#1358,#1359);
#1157=AXIS2_PLACEMENT_3D('',#1712,#1360,#1361);
#1158=AXIS2_PLACEMENT_3D('',#1714,#1362,#1363);
#1159=AXIS2_PLACEMENT_3D('',#1716,#1364,#1365);
#1160=AXIS2_PLACEMENT_3D('',#1718,#1366,#1367);
#1161=AXIS2_PLACEMENT_3D('',#1720,#1368,#1369);
#1162=AXIS2_PLACEMENT_3D('',#1730,#1374,#1375);
#1163=AXIS2_PLACEMENT_3D('',#1733,#1378,#1379);
#1164=AXIS2_PLACEMENT_3D('',#1735,#1381,#1382);
#1165=AXIS2_PLACEMENT_3D('',#1737,#1384,#1385);
#1166=AXIS2_PLACEMENT_3D('',#1739,#1387,#1388);
#1167=AXIS2_PLACEMENT_3D('',#1741,#1390,#1391);
#1168=AXIS2_PLACEMENT_3D('',#1743,#1393,#1394);
#1169=AXIS2_PLACEMENT_3D('',#1745,#1396,#1397);
#1170=AXIS2_PLACEMENT_3D('',#1747,#1399,#1400);
#1171=AXIS2_PLACEMENT_3D('',#1749,#1402,#1403);
#1172=AXIS2_PLACEMENT_3D('',#1751,#1405,#1406);
#1173=AXIS2_PLACEMENT_3D('',#1753,#1408,#1409);
#1174=AXIS2_PLACEMENT_3D('',#1755,#1411,#1412);
#1175=AXIS2_PLACEMENT_3D('',#1757,#1414,#1415);
#1176=AXIS2_PLACEMENT_3D('',#1759,#1417,#1418);
#1177=AXIS2_PLACEMENT_3D('',#1761,#1420,#1421);
#1178=AXIS2_PLACEMENT_3D('',#1763,#1423,#1424);
#1179=AXIS2_PLACEMENT_3D('',#1765,#1426,#1427);
#1180=AXIS2_PLACEMENT_3D('',#1767,#1429,#1430);
#1181=AXIS2_PLACEMENT_3D('',#1769,#1432,#1433);
#1182=AXIS2_PLACEMENT_3D('',#1770,#1434,#1435);
#1183=AXIS2_PLACEMENT_3D('',#1771,#1436,#1437);
#1184=AXIS2_PLACEMENT_3D('',#1772,#1438,#1439);
#1185=AXIS2_PLACEMENT_3D('',#1773,#1440,#1441);
#1186=AXIS2_PLACEMENT_3D('',#1774,#1442,#1443);
#1187=AXIS2_PLACEMENT_3D('',#1775,#1444,#1445);
#1188=AXIS2_PLACEMENT_3D('',#1776,#1446,#1447);
#1189=AXIS2_PLACEMENT_3D('',#1777,#1448,#1449);
#1190=AXIS2_PLACEMENT_3D('',#1778,#1450,#1451);
#1191=AXIS2_PLACEMENT_3D('',#1779,#1452,#1453);
#1192=AXIS2_PLACEMENT_3D('',#1780,#1454,#1455);
#1193=AXIS2_PLACEMENT_3D('',#1781,#1456,#1457);
#1194=AXIS2_PLACEMENT_3D('',#1782,#1458,#1459);
#1195=AXIS2_PLACEMENT_3D('',#1785,#1462,#1463);
#1196=AXIS2_PLACEMENT_3D('',#1787,#1465,#1466);
#1197=AXIS2_PLACEMENT_3D('',#1789,#1468,#1469);
#1198=AXIS2_PLACEMENT_3D('',#1790,#1470,#1471);
#1199=AXIS2_PLACEMENT_3D('',#1793,#1474,#1475);
#1200=AXIS2_PLACEMENT_3D('',#1795,#1477,#1478);
#1201=AXIS2_PLACEMENT_3D('',#1797,#1480,#1481);
#1202=AXIS2_PLACEMENT_3D('',#1798,#1482,#1483);
#1203=AXIS2_PLACEMENT_3D('',#1801,#1486,#1487);
#1204=AXIS2_PLACEMENT_3D('',#1803,#1489,#1490);
#1205=AXIS2_PLACEMENT_3D('',#1805,#1492,#1493);
#1206=AXIS2_PLACEMENT_3D('',#1806,#1494,#1495);
#1207=AXIS2_PLACEMENT_3D('',#1809,#1498,#1499);
#1208=AXIS2_PLACEMENT_3D('',#1811,#1501,#1502);
#1209=AXIS2_PLACEMENT_3D('',#1813,#1504,#1505);
#1210=AXIS2_PLACEMENT_3D('',#1814,#1506,#1507);
#1211=AXIS2_PLACEMENT_3D('',#1817,#1510,#1511);
#1212=AXIS2_PLACEMENT_3D('',#1819,#1513,#1514);
#1213=AXIS2_PLACEMENT_3D('',#1821,#1516,#1517);
#1214=DIRECTION('',(0.,0.,1.));
#1215=DIRECTION('',(1.,0.,0.));
#1216=DIRECTION('',(0.,0.,1.));
#1217=DIRECTION('',(1.,0.,0.));
#1218=DIRECTION('',(-6.48494757374507E-17,-1.,0.));
#1219=DIRECTION('',(-1.,0.,0.));
#1220=DIRECTION('',(-6.48494757374507E-17,-1.,0.));
#1221=DIRECTION('',(-1.,0.,0.));
#1222=DIRECTION('',(0.,-1.,0.));
#1223=DIRECTION('',(-1.,0.,0.));
#1224=DIRECTION('',(0.,-1.,0.));
#1225=DIRECTION('',(-1.,0.,0.));
#1226=DIRECTION('',(0.,-1.,0.));
#1227=DIRECTION('',(-1.,0.,0.));
#1228=DIRECTION('',(0.,-1.,0.));
#1229=DIRECTION('',(-1.,0.,0.));
#1230=DIRECTION('',(-1.,0.,0.));
#1231=DIRECTION('',(0.,-1.,0.));
#1232=DIRECTION('',(-1.,0.,0.));
#1233=DIRECTION('',(0.,-1.,0.));
#1234=DIRECTION('',(-1.,0.,0.));
#1235=DIRECTION('',(0.,-1.,0.));
#1236=DIRECTION('',(-1.,0.,0.));
#1237=DIRECTION('',(0.,-1.,0.));
#1238=DIRECTION('',(0.,0.,1.));
#1239=DIRECTION('',(1.,0.,0.));
#1240=DIRECTION('',(0.,-1.,0.));
#1241=DIRECTION('',(-1.,0.,0.));
#1242=DIRECTION('',(0.,-1.,0.));
#1243=DIRECTION('',(-1.,0.,0.));
#1244=DIRECTION('',(-1.,0.,0.));
#1245=DIRECTION('',(0.,-1.,0.));
#1246=DIRECTION('',(-1.,0.,0.));
#1247=DIRECTION('',(0.,-1.,0.));
#1248=DIRECTION('',(-1.,0.,0.));
#1249=DIRECTION('',(0.,0.,1.));
#1250=DIRECTION('',(1.,0.,0.));
#1251=DIRECTION('',(0.,0.,1.));
#1252=DIRECTION('',(1.,0.,0.));
#1253=DIRECTION('',(0.,0.,-1.));
#1254=DIRECTION('',(1.,0.,0.));
#1255=DIRECTION('',(-1.,0.,0.));
#1256=DIRECTION('',(0.,-1.,0.));
#1257=DIRECTION('',(-1.,0.,0.));
#1258=DIRECTION('',(0.,0.,1.));
#1259=DIRECTION('',(1.,0.,0.));
#1260=DIRECTION('',(0.,0.,-1.));
#1261=DIRECTION('',(1.,0.,0.));
#1262=DIRECTION('',(0.,0.,-1.));
#1263=DIRECTION('',(1.,0.,0.));
#1264=DIRECTION('',(-1.,0.,0.));
#1265=DIRECTION('',(0.,0.,1.));
#1266=DIRECTION('',(1.,0.,0.));
#1267=DIRECTION('',(0.,0.,1.));
#1268=DIRECTION('',(1.,0.,0.));
#1269=DIRECTION('',(0.,0.,1.));
#1270=DIRECTION('',(1.,0.,0.));
#1271=DIRECTION('',(-1.,0.,0.));
#1272=DIRECTION('',(-1.27319154200133E-16,-1.,0.));
#1273=DIRECTION('',(-1.,0.,0.));
#1274=DIRECTION('',(0.,0.,-1.));
#1275=DIRECTION('',(1.,0.,0.));
#1276=DIRECTION('',(0.,0.,-1.));
#1277=DIRECTION('',(1.,0.,0.));
#1278=DIRECTION('',(0.,0.,-1.));
#1279=DIRECTION('',(1.,0.,0.));
#1280=DIRECTION('',(0.,0.,1.));
#1281=DIRECTION('',(1.,0.,0.));
#1282=DIRECTION('',(0.,0.,1.));
#1283=DIRECTION('',(1.,0.,0.));
#1284=DIRECTION('',(0.,0.,1.));
#1285=DIRECTION('',(1.,0.,0.));
#1286=DIRECTION('',(0.,0.,1.));
#1287=DIRECTION('',(1.,0.,0.));
#1288=DIRECTION('',(0.,0.,1.));
#1289=DIRECTION('',(1.,0.,0.));
#1290=DIRECTION('',(0.,0.,-1.));
#1291=DIRECTION('',(1.,0.,0.));
#1292=DIRECTION('',(0.,0.,-1.));
#1293=DIRECTION('',(1.,0.,0.));
#1294=DIRECTION('',(0.,0.,-1.));
#1295=DIRECTION('',(1.,0.,0.));
#1296=DIRECTION('',(0.,0.,-1.));
#1297=DIRECTION('',(1.,0.,0.));
#1298=DIRECTION('',(0.,0.,-1.));
#1299=DIRECTION('',(1.,0.,0.));
#1300=DIRECTION('',(0.,0.,-1.));
#1301=DIRECTION('',(1.,0.,0.));
#1302=DIRECTION('',(0.,0.,1.));
#1303=DIRECTION('',(1.,0.,0.));
#1304=DIRECTION('',(-1.,0.,0.));
#1305=DIRECTION('',(0.,-1.,0.));
#1306=DIRECTION('',(-1.,0.,0.));
#1307=DIRECTION('',(0.,-1.,0.));
#1308=DIRECTION('',(0.,-1.,0.));
#1309=DIRECTION('',(-1.,0.,0.));
#1310=DIRECTION('',(0.,-1.,0.));
#1311=DIRECTION('',(-1.,0.,0.));
#1312=DIRECTION('',(0.,0.,1.));
#1313=DIRECTION('',(1.,0.,0.));
#1314=DIRECTION('',(-1.,0.,0.));
#1315=DIRECTION('',(0.,0.,-1.));
#1316=DIRECTION('',(1.,0.,0.));
#1317=DIRECTION('',(0.,0.,-1.));
#1318=DIRECTION('',(1.,0.,0.));
#1319=DIRECTION('',(0.,0.,-1.));
#1320=DIRECTION('',(1.,0.,0.));
#1321=DIRECTION('',(-1.,0.,0.));
#1322=DIRECTION('',(-1.27319154200133E-16,-1.,0.));
#1323=DIRECTION('',(-1.,0.,0.));
#1324=DIRECTION('',(0.,0.,1.));
#1325=DIRECTION('',(1.,0.,0.));
#1326=DIRECTION('',(0.,0.,1.));
#1327=DIRECTION('',(1.,0.,0.));
#1328=DIRECTION('',(0.,0.,1.));
#1329=DIRECTION('',(1.,0.,0.));
#1330=DIRECTION('',(-1.,0.,0.));
#1331=DIRECTION('',(0.,0.,-1.));
#1332=DIRECTION('',(1.,0.,0.));
#1333=DIRECTION('',(0.,0.,-1.));
#1334=DIRECTION('',(1.,0.,0.));
#1335=DIRECTION('',(0.,0.,1.));
#1336=DIRECTION('',(1.,0.,0.));
#1337=DIRECTION('',(-1.,0.,0.));
#1338=DIRECTION('',(0.,-1.,0.));
#1339=DIRECTION('',(-1.,0.,0.));
#1340=DIRECTION('',(0.,0.,-1.));
#1341=DIRECTION('',(1.,0.,0.));
#1342=DIRECTION('',(0.,0.,1.));
#1343=DIRECTION('',(1.,0.,0.));
#1344=DIRECTION('',(0.,0.,1.));
#1345=DIRECTION('',(1.,0.,0.));
#1346=DIRECTION('',(0.,0.,1.));
#1347=DIRECTION('',(1.,0.,0.));
#1348=DIRECTION('',(0.,0.,1.));
#1349=DIRECTION('',(1.,0.,0.));
#1350=DIRECTION('',(0.,0.,1.));
#1351=DIRECTION('',(1.,0.,0.));
#1352=DIRECTION('',(0.,0.,1.));
#1353=DIRECTION('',(1.,0.,0.));
#1354=DIRECTION('',(0.,0.,1.));
#1355=DIRECTION('',(1.,0.,0.));
#1356=DIRECTION('',(0.,0.,-1.));
#1357=DIRECTION('',(1.,0.,0.));
#1358=DIRECTION('',(0.,0.,-1.));
#1359=DIRECTION('',(1.,0.,0.));
#1360=DIRECTION('',(0.,0.,-1.));
#1361=DIRECTION('',(1.,0.,0.));
#1362=DIRECTION('',(0.,0.,-1.));
#1363=DIRECTION('',(1.,0.,0.));
#1364=DIRECTION('',(0.,0.,-1.));
#1365=DIRECTION('',(1.,0.,0.));
#1366=DIRECTION('',(0.,0.,-1.));
#1367=DIRECTION('',(1.,0.,0.));
#1368=DIRECTION('',(0.,0.,1.));
#1369=DIRECTION('',(1.,0.,0.));
#1370=DIRECTION('',(-1.,0.,0.));
#1371=DIRECTION('',(-6.48494757374507E-17,-1.,0.));
#1372=DIRECTION('',(-1.,0.,0.));
#1373=DIRECTION('',(-6.48494757374507E-17,-1.,0.));
#1374=DIRECTION('',(0.,-1.,0.));
#1375=DIRECTION('',(0.,0.,-1.));
#1376=DIRECTION('',(0.,0.,-1.));
#1377=DIRECTION('',(0.,0.,-1.));
#1378=DIRECTION('',(0.,0.,-1.));
#1379=DIRECTION('',(-1.,0.,0.));
#1380=DIRECTION('',(0.,0.,-1.));
#1381=DIRECTION('',(0.,0.,-1.));
#1382=DIRECTION('',(-1.,0.,0.));
#1383=DIRECTION('',(0.,0.,-1.));
#1384=DIRECTION('',(0.,0.,-1.));
#1385=DIRECTION('',(-1.,0.,0.));
#1386=DIRECTION('',(0.,0.,-1.));
#1387=DIRECTION('',(0.,-1.,0.));
#1388=DIRECTION('',(0.,0.,-1.));
#1389=DIRECTION('',(0.,0.,-1.));
#1390=DIRECTION('',(1.,-1.27319154200133E-16,0.));
#1391=DIRECTION('',(1.27319154200133E-16,1.,0.));
#1392=DIRECTION('',(0.,0.,-1.));
#1393=DIRECTION('',(0.,-1.,0.));
#1394=DIRECTION('',(0.,0.,-1.));
#1395=DIRECTION('',(0.,0.,-1.));
#1396=DIRECTION('',(0.,0.,-1.));
#1397=DIRECTION('',(-1.,0.,0.));
#1398=DIRECTION('',(0.,0.,-1.));
#1399=DIRECTION('',(0.,0.,-1.));
#1400=DIRECTION('',(-1.,0.,0.));
#1401=DIRECTION('',(0.,0.,-1.));
#1402=DIRECTION('',(0.,0.,-1.));
#1403=DIRECTION('',(-1.,0.,0.));
#1404=DIRECTION('',(0.,0.,-1.));
#1405=DIRECTION('',(0.,-1.,0.));
#1406=DIRECTION('',(0.,0.,-1.));
#1407=DIRECTION('',(0.,0.,-1.));
#1408=DIRECTION('',(0.,0.,-1.));
#1409=DIRECTION('',(-1.,0.,0.));
#1410=DIRECTION('',(0.,0.,-1.));
#1411=DIRECTION('',(0.,0.,-1.));
#1412=DIRECTION('',(-1.,0.,0.));
#1413=DIRECTION('',(0.,0.,-1.));
#1414=DIRECTION('',(0.,0.,-1.));
#1415=DIRECTION('',(-1.,0.,0.));
#1416=DIRECTION('',(0.,0.,-1.));
#1417=DIRECTION('',(0.,-1.,0.));
#1418=DIRECTION('',(0.,0.,-1.));
#1419=DIRECTION('',(0.,0.,-1.));
#1420=DIRECTION('',(1.,0.,0.));
#1421=DIRECTION('',(0.,0.,-1.));
#1422=DIRECTION('',(0.,0.,-1.));
#1423=DIRECTION('',(0.,-1.,0.));
#1424=DIRECTION('',(0.,0.,-1.));
#1425=DIRECTION('',(0.,0.,-1.));
#1426=DIRECTION('',(0.,0.,-1.));
#1427=DIRECTION('',(-1.,0.,0.));
#1428=DIRECTION('',(0.,0.,-1.));
#1429=DIRECTION('',(0.,0.,-1.));
#1430=DIRECTION('',(-1.,0.,0.));
#1431=DIRECTION('',(0.,0.,-1.));
#1432=DIRECTION('',(0.,0.,-1.));
#1433=DIRECTION('',(-1.,0.,0.));
#1434=DIRECTION('',(0.,0.,-1.));
#1435=DIRECTION('',(-1.,0.,0.));
#1436=DIRECTION('',(0.,0.,-1.));
#1437=DIRECTION('',(-1.,0.,0.));
#1438=DIRECTION('',(0.,0.,-1.));
#1439=DIRECTION('',(-1.,0.,0.));
#1440=DIRECTION('',(0.,0.,-1.));
#1441=DIRECTION('',(-1.,0.,0.));
#1442=DIRECTION('',(0.,0.,-1.));
#1443=DIRECTION('',(-1.,0.,0.));
#1444=DIRECTION('',(0.,0.,-1.));
#1445=DIRECTION('',(-1.,0.,0.));
#1446=DIRECTION('',(0.,0.,-1.));
#1447=DIRECTION('',(-1.,0.,0.));
#1448=DIRECTION('',(0.,0.,-1.));
#1449=DIRECTION('',(-1.,0.,0.));
#1450=DIRECTION('',(0.,0.,-1.));
#1451=DIRECTION('',(-1.,0.,0.));
#1452=DIRECTION('',(0.,0.,-1.));
#1453=DIRECTION('',(-1.,0.,0.));
#1454=DIRECTION('',(0.,0.,-1.));
#1455=DIRECTION('',(-1.,0.,0.));
#1456=DIRECTION('',(0.,0.,-1.));
#1457=DIRECTION('',(-1.,0.,0.));
#1458=DIRECTION('',(-1.,6.48494757374507E-17,0.));
#1459=DIRECTION('',(-6.48494757374507E-17,-1.,0.));
#1460=DIRECTION('',(0.,0.,1.));
#1461=DIRECTION('',(0.,0.,1.));
#1462=DIRECTION('',(0.,1.,0.));
#1463=DIRECTION('',(0.,0.,1.));
#1464=DIRECTION('',(0.,0.,1.));
#1465=DIRECTION('',(-1.,6.48494757374507E-17,0.));
#1466=DIRECTION('',(-6.48494757374507E-17,-1.,0.));
#1467=DIRECTION('',(0.,0.,1.));
#1468=DIRECTION('',(0.,1.,0.));
#1469=DIRECTION('',(0.,0.,1.));
#1470=DIRECTION('',(0.,1.,0.));
#1471=DIRECTION('',(0.,0.,1.));
#1472=DIRECTION('',(0.,0.,1.));
#1473=DIRECTION('',(0.,0.,1.));
#1474=DIRECTION('',(-1.,0.,0.));
#1475=DIRECTION('',(0.,0.,1.));
#1476=DIRECTION('',(0.,0.,1.));
#1477=DIRECTION('',(0.,1.,0.));
#1478=DIRECTION('',(0.,0.,1.));
#1479=DIRECTION('',(0.,0.,1.));
#1480=DIRECTION('',(-1.,0.,0.));
#1481=DIRECTION('',(0.,0.,1.));
#1482=DIRECTION('',(0.,1.,0.));
#1483=DIRECTION('',(0.,0.,1.));
#1484=DIRECTION('',(0.,0.,1.));
#1485=DIRECTION('',(0.,0.,1.));
#1486=DIRECTION('',(-1.,0.,0.));
#1487=DIRECTION('',(0.,0.,1.));
#1488=DIRECTION('',(0.,0.,1.));
#1489=DIRECTION('',(0.,1.,0.));
#1490=DIRECTION('',(0.,0.,1.));
#1491=DIRECTION('',(0.,0.,1.));
#1492=DIRECTION('',(-1.,0.,0.));
#1493=DIRECTION('',(0.,0.,1.));
#1494=DIRECTION('',(-1.,0.,0.));
#1495=DIRECTION('',(0.,0.,1.));
#1496=DIRECTION('',(0.,0.,1.));
#1497=DIRECTION('',(0.,0.,1.));
#1498=DIRECTION('',(0.,1.,0.));
#1499=DIRECTION('',(0.,0.,1.));
#1500=DIRECTION('',(0.,0.,1.));
#1501=DIRECTION('',(-1.,0.,0.));
#1502=DIRECTION('',(0.,0.,1.));
#1503=DIRECTION('',(0.,0.,1.));
#1504=DIRECTION('',(0.,1.,0.));
#1505=DIRECTION('',(0.,0.,1.));
#1506=DIRECTION('',(-1.,0.,0.));
#1507=DIRECTION('',(0.,0.,1.));
#1508=DIRECTION('',(0.,0.,1.));
#1509=DIRECTION('',(0.,0.,1.));
#1510=DIRECTION('',(0.,1.,0.));
#1511=DIRECTION('',(0.,0.,1.));
#1512=DIRECTION('',(0.,0.,1.));
#1513=DIRECTION('',(-1.,0.,0.));
#1514=DIRECTION('',(0.,0.,1.));
#1515=DIRECTION('',(0.,0.,1.));
#1516=DIRECTION('',(0.,1.,0.));
#1517=DIRECTION('',(0.,0.,1.));
#1518=CARTESIAN_POINT('',(0.,0.,0.));
#1519=CARTESIAN_POINT('',(0.,0.,0.002));
#1520=CARTESIAN_POINT('',(0.107,-1.38777878078145E-17,0.002));
#1521=CARTESIAN_POINT('',(0.107,0.107,0.002));
#1522=CARTESIAN_POINT('',(0.107,-0.107,0.002));
#1523=CARTESIAN_POINT('',(0.,0.107,0.002));
#1524=CARTESIAN_POINT('',(-0.107,0.107,0.002));
#1525=CARTESIAN_POINT('',(-0.107,1.38777878078145E-17,0.002));
#1526=CARTESIAN_POINT('',(-0.107,-0.107,0.002));
#1527=CARTESIAN_POINT('',(-1.38777878078145E-17,-0.107,0.002));
#1528=CARTESIAN_POINT('',(0.09,0.0475,0.002));
#1529=CARTESIAN_POINT('',(0.09,0.09,0.002));
#1530=CARTESIAN_POINT('',(0.09,0.005,0.002));
#1531=CARTESIAN_POINT('',(0.0475,0.005,0.002));
#1532=CARTESIAN_POINT('',(0.005,0.005,0.002));
#1533=CARTESIAN_POINT('',(0.005,0.0475,0.002));
#1534=CARTESIAN_POINT('',(0.005,0.09,0.002));
#1535=CARTESIAN_POINT('',(0.0475,0.09,0.002));
#1536=CARTESIAN_POINT('',(-0.005,-0.0475,0.002));
#1537=CARTESIAN_POINT('',(-0.005,-0.005,0.002));
#1538=CARTESIAN_POINT('',(-0.005,-0.09,0.002));
#1539=CARTESIAN_POINT('',(-0.0475,-0.09,0.002));
#1540=CARTESIAN_POINT('',(-0.09,-0.09,0.002));
#1541=CARTESIAN_POINT('',(-0.09,-0.0475,0.002));
#1542=CARTESIAN_POINT('',(-0.09,-0.005,0.002));
#1543=CARTESIAN_POINT('',(-0.0475,-0.005,0.002));
#1544=CARTESIAN_POINT('',(0.0475,-0.005,0.002));
#1545=CARTESIAN_POINT('',(0.09,-0.005,0.002));
#1546=CARTESIAN_POINT('',(0.005,-0.005,0.002));
#1547=CARTESIAN_POINT('',(0.09,-0.0475,0.002));
#1548=CARTESIAN_POINT('',(0.09,-0.09,0.002));
#1549=CARTESIAN_POINT('',(0.0475,-0.09,0.002));
#1550=CARTESIAN_POINT('',(0.005,-0.09,0.002));
#1551=CARTESIAN_POINT('',(0.005,-0.0475,0.002));
#1552=CARTESIAN_POINT('',(-0.0475,0.09,0.002));
#1553=CARTESIAN_POINT('',(-0.005,0.09,0.002));
#1554=CARTESIAN_POINT('',(-0.09,0.09,0.002));
#1555=CARTESIAN_POINT('',(-0.005,0.0475,0.002));
#1556=CARTESIAN_POINT('',(-0.005,0.005,0.002));
#1557=CARTESIAN_POINT('',(-0.0475,0.005,0.002));
#1558=CARTESIAN_POINT('',(-0.09,0.005,0.002));
#1559=CARTESIAN_POINT('',(-0.09,0.0475,0.002));
#1560=CARTESIAN_POINT('',(0.,0.,0.));
#1561=CARTESIAN_POINT('',(0.09,0.,0.));
#1562=CARTESIAN_POINT('',(0.09,-0.005,0.));
#1563=CARTESIAN_POINT('',(0.09,-0.09,0.));
#1564=CARTESIAN_POINT('',(0.,-0.005,0.));
#1565=CARTESIAN_POINT('',(0.005,-0.005,0.));
#1566=CARTESIAN_POINT('',(0.005,0.,0.));
#1567=CARTESIAN_POINT('',(0.005,-0.09,0.));
#1568=CARTESIAN_POINT('',(0.,-0.09,0.));
#1569=CARTESIAN_POINT('',(0.,0.005,0.));
#1570=CARTESIAN_POINT('',(0.09,0.005,0.));
#1571=CARTESIAN_POINT('',(0.005,0.005,0.));
#1572=CARTESIAN_POINT('',(0.09,0.,0.));
#1573=CARTESIAN_POINT('',(0.09,0.09,0.));
#1574=CARTESIAN_POINT('',(0.,0.09,0.));
#1575=CARTESIAN_POINT('',(0.005,0.09,0.));
#1576=CARTESIAN_POINT('',(0.005,0.,0.));
#1577=CARTESIAN_POINT('',(-0.042,0.109,0.));
#1578=CARTESIAN_POINT('',(-0.035,0.109,0.));
#1579=CARTESIAN_POINT('',(-0.049,0.109,0.));
#1580=CARTESIAN_POINT('',(-0.035,0.129833333333333,0.));
#1581=CARTESIAN_POINT('',(-0.015,0.124,0.));
#1582=CARTESIAN_POINT('',(-4.14966488916289E-18,0.124,0.));
#1583=CARTESIAN_POINT('',(0.015,0.124,0.));
#1584=CARTESIAN_POINT('',(0.035,0.129833333333333,0.));
#1585=CARTESIAN_POINT('',(0.035,0.109,0.));
#1586=CARTESIAN_POINT('',(0.072,0.109,0.));
#1587=CARTESIAN_POINT('',(0.109,0.109,0.));
#1588=CARTESIAN_POINT('',(0.109,-0.0545,0.));
#1589=CARTESIAN_POINT('',(0.109,-0.109,0.));
#1590=CARTESIAN_POINT('',(0.072,-0.109,0.));
#1591=CARTESIAN_POINT('',(0.035,-0.109,0.));
#1592=CARTESIAN_POINT('',(0.035,-0.129833333333333,0.));
#1593=CARTESIAN_POINT('',(0.015,-0.124,0.));
#1594=CARTESIAN_POINT('',(-5.20819271477065E-17,-0.124,0.));
#1595=CARTESIAN_POINT('',(-0.015,-0.124,0.));
#1596=CARTESIAN_POINT('',(-0.035,-0.129833333333333,0.));
#1597=CARTESIAN_POINT('',(-0.035,-0.109,0.));
#1598=CARTESIAN_POINT('',(-0.042,-0.109,0.));
#1599=CARTESIAN_POINT('',(-0.049,-0.109,0.));
#1600=CARTESIAN_POINT('',(-0.0430209254629259,-0.128085352175952,0.));
#1601=CARTESIAN_POINT('',(-0.063,-0.129,0.));
#1602=CARTESIAN_POINT('',(-0.073,-0.129,0.));
#1603=CARTESIAN_POINT('',(-0.083,-0.129,0.));
#1604=CARTESIAN_POINT('',(-0.102979074537074,-0.128085352175952,0.));
#1605=CARTESIAN_POINT('',(-0.097,-0.109,0.));
#1606=CARTESIAN_POINT('',(-0.103,-0.109,0.));
#1607=CARTESIAN_POINT('',(-0.109,-0.109,0.));
#1608=CARTESIAN_POINT('',(-0.109,0.0545,0.));
#1609=CARTESIAN_POINT('',(-0.109,0.109,0.));
#1610=CARTESIAN_POINT('',(-0.103,0.109,0.));
#1611=CARTESIAN_POINT('',(-0.097,0.109,0.));
#1612=CARTESIAN_POINT('',(-0.102979074537074,0.128085352175952,0.));
#1613=CARTESIAN_POINT('',(-0.083,0.129,0.));
#1614=CARTESIAN_POINT('',(-0.073,0.129,0.));
#1615=CARTESIAN_POINT('',(-0.063,0.129,0.));
#1616=CARTESIAN_POINT('',(-0.0430209254629259,0.128085352175952,0.));
#1617=CARTESIAN_POINT('',(-1.07156594925393E-19,0.116,0.));
#1618=CARTESIAN_POINT('',(0.00175,0.116,0.));
#1619=CARTESIAN_POINT('',(-1.44298044169441E-18,0.124,0.));
#1620=CARTESIAN_POINT('',(0.0025,0.124,0.));
#1621=CARTESIAN_POINT('',(-1.07156594925393E-19,0.132,0.));
#1622=CARTESIAN_POINT('',(0.00175,0.132,0.));
#1623=CARTESIAN_POINT('',(-0.008,0.124,0.));
#1624=CARTESIAN_POINT('',(-0.00625,0.124,0.));
#1625=CARTESIAN_POINT('',(0.008,0.124,0.));
#1626=CARTESIAN_POINT('',(0.00975,0.124,0.));
#1627=CARTESIAN_POINT('',(-3.1680550588616E-19,-0.132,0.));
#1628=CARTESIAN_POINT('',(0.00175,-0.132,0.));
#1629=CARTESIAN_POINT('',(6.69676964388411E-19,-0.124,0.));
#1630=CARTESIAN_POINT('',(0.0025,-0.124,0.));
#1631=CARTESIAN_POINT('',(1.08959634625423E-19,-0.116,0.));
#1632=CARTESIAN_POINT('',(0.00175,-0.116,0.));
#1633=CARTESIAN_POINT('',(-0.008,-0.124,0.));
#1634=CARTESIAN_POINT('',(-0.00625,-0.124,0.));
#1635=CARTESIAN_POINT('',(0.008,-0.124,0.));
#1636=CARTESIAN_POINT('',(0.00975,-0.124,0.));
#1637=CARTESIAN_POINT('',(-0.073,-0.129,0.));
#1638=CARTESIAN_POINT('',(-0.0655,-0.129,0.));
#1639=CARTESIAN_POINT('',(-0.073,0.129,0.));
#1640=CARTESIAN_POINT('',(-0.0655,0.129,0.));
#1641=CARTESIAN_POINT('',(0.,-0.09,0.));
#1642=CARTESIAN_POINT('',(-0.005,-0.09,0.));
#1643=CARTESIAN_POINT('',(-0.09,-0.09,0.));
#1644=CARTESIAN_POINT('',(-0.005,0.,0.));
#1645=CARTESIAN_POINT('',(-0.005,-0.005,0.));
#1646=CARTESIAN_POINT('',(0.,-0.005,0.));
#1647=CARTESIAN_POINT('',(-0.09,-0.005,0.));
#1648=CARTESIAN_POINT('',(-0.09,0.,0.));
#1649=CARTESIAN_POINT('',(-0.005,0.,0.));
#1650=CARTESIAN_POINT('',(-0.005,0.09,0.));
#1651=CARTESIAN_POINT('',(-0.005,0.005,0.));
#1652=CARTESIAN_POINT('',(0.,0.09,0.));
#1653=CARTESIAN_POINT('',(-0.09,0.09,0.));
#1654=CARTESIAN_POINT('',(-0.09,0.,0.));
#1655=CARTESIAN_POINT('',(-0.09,0.005,0.));
#1656=CARTESIAN_POINT('',(0.,0.005,0.));
#1657=CARTESIAN_POINT('',(0.,0.,0.005));
#1658=CARTESIAN_POINT('',(-0.042,0.109,0.005));
#1659=CARTESIAN_POINT('',(-0.035,0.109,0.005));
#1660=CARTESIAN_POINT('',(-0.049,0.109,0.005));
#1661=CARTESIAN_POINT('',(-0.0430209254629259,0.128085352175952,0.005));
#1662=CARTESIAN_POINT('',(-0.063,0.129,0.005));
#1663=CARTESIAN_POINT('',(-0.073,0.129,0.005));
#1664=CARTESIAN_POINT('',(-0.083,0.129,0.005));
#1665=CARTESIAN_POINT('',(-0.102979074537074,0.128085352175952,0.005));
#1666=CARTESIAN_POINT('',(-0.097,0.109,0.005));
#1667=CARTESIAN_POINT('',(-0.103,0.109,0.005));
#1668=CARTESIAN_POINT('',(-0.109,0.109,0.005));
#1669=CARTESIAN_POINT('',(-0.109,0.0545,0.005));
#1670=CARTESIAN_POINT('',(-0.109,-0.109,0.005));
#1671=CARTESIAN_POINT('',(-0.103,-0.109,0.005));
#1672=CARTESIAN_POINT('',(-0.097,-0.109,0.005));
#1673=CARTESIAN_POINT('',(-0.102979074537074,-0.128085352175952,0.005));
#1674=CARTESIAN_POINT('',(-0.083,-0.129,0.005));
#1675=CARTESIAN_POINT('',(-0.073,-0.129,0.005));
#1676=CARTESIAN_POINT('',(-0.063,-0.129,0.005));
#1677=CARTESIAN_POINT('',(-0.0430209254629259,-0.128085352175952,0.005));
#1678=CARTESIAN_POINT('',(-0.049,-0.109,0.005));
#1679=CARTESIAN_POINT('',(-0.042,-0.109,0.005));
#1680=CARTESIAN_POINT('',(-0.035,-0.109,0.005));
#1681=CARTESIAN_POINT('',(-0.035,-0.129833333333333,0.005));
#1682=CARTESIAN_POINT('',(-0.015,-0.124,0.005));
#1683=CARTESIAN_POINT('',(-5.20819271477065E-17,-0.124,0.005));
#1684=CARTESIAN_POINT('',(0.015,-0.124,0.005));
#1685=CARTESIAN_POINT('',(0.035,-0.129833333333333,0.005));
#1686=CARTESIAN_POINT('',(0.035,-0.109,0.005));
#1687=CARTESIAN_POINT('',(0.072,-0.109,0.005));
#1688=CARTESIAN_POINT('',(0.109,-0.109,0.005));
#1689=CARTESIAN_POINT('',(0.109,-0.0545,0.005));
#1690=CARTESIAN_POINT('',(0.109,0.109,0.005));
#1691=CARTESIAN_POINT('',(0.072,0.109,0.005));
#1692=CARTESIAN_POINT('',(0.035,0.109,0.005));
#1693=CARTESIAN_POINT('',(0.035,0.129833333333333,0.005));
#1694=CARTESIAN_POINT('',(0.015,0.124,0.005));
#1695=CARTESIAN_POINT('',(-4.14966488916289E-18,0.124,0.005));
#1696=CARTESIAN_POINT('',(-0.015,0.124,0.005));
#1697=CARTESIAN_POINT('',(-0.035,0.129833333333333,0.005));
#1698=CARTESIAN_POINT('',(-1.07156594925393E-19,0.116,0.005));
#1699=CARTESIAN_POINT('',(0.00175,0.116,0.005));
#1700=CARTESIAN_POINT('',(-1.44298044169441E-18,0.124,0.005));
#1701=CARTESIAN_POINT('',(0.0025,0.124,0.005));
#1702=CARTESIAN_POINT('',(-1.07156594925393E-19,0.132,0.005));
#1703=CARTESIAN_POINT('',(0.00175,0.132,0.005));
#1704=CARTESIAN_POINT('',(-0.008,0.124,0.005));
#1705=CARTESIAN_POINT('',(-0.00625,0.124,0.005));
#1706=CARTESIAN_POINT('',(0.008,0.124,0.005));
#1707=CARTESIAN_POINT('',(0.00975,0.124,0.005));
#1708=CARTESIAN_POINT('',(-3.1680550588616E-19,-0.132,0.005));
#1709=CARTESIAN_POINT('',(0.00175,-0.132,0.005));
#1710=CARTESIAN_POINT('',(6.69676964388411E-19,-0.124,0.005));
#1711=CARTESIAN_POINT('',(0.0025,-0.124,0.005));
#1712=CARTESIAN_POINT('',(1.08959634625423E-19,-0.116,0.005));
#1713=CARTESIAN_POINT('',(0.00175,-0.116,0.005));
#1714=CARTESIAN_POINT('',(-0.008,-0.124,0.005));
#1715=CARTESIAN_POINT('',(-0.00625,-0.124,0.005));
#1716=CARTESIAN_POINT('',(0.008,-0.124,0.005));
#1717=CARTESIAN_POINT('',(0.00975,-0.124,0.005));
#1718=CARTESIAN_POINT('',(-0.073,-0.129,0.005));
#1719=CARTESIAN_POINT('',(-0.0655,-0.129,0.005));
#1720=CARTESIAN_POINT('',(-0.073,0.129,0.005));
#1721=CARTESIAN_POINT('',(-0.0655,0.129,0.005));
#1722=CARTESIAN_POINT('',(0.,0.107,0.005));
#1723=CARTESIAN_POINT('',(0.107,0.107,0.005));
#1724=CARTESIAN_POINT('',(-0.107,0.107,0.005));
#1725=CARTESIAN_POINT('',(0.107,-1.38777878078145E-17,0.005));
#1726=CARTESIAN_POINT('',(0.107,-0.107,0.005));
#1727=CARTESIAN_POINT('',(-1.38777878078145E-17,-0.107,0.005));
#1728=CARTESIAN_POINT('',(-0.107,-0.107,0.005));
#1729=CARTESIAN_POINT('',(-0.107,1.38777878078145E-17,0.005));
#1730=CARTESIAN_POINT('',(-0.042,0.109,0.005));
#1731=CARTESIAN_POINT('',(-0.049,0.109,0.005));
#1732=CARTESIAN_POINT('',(-0.035,0.109,0.005));
#1733=CARTESIAN_POINT('',(-0.0430209254629259,0.128085352175952,0.005));
#1734=CARTESIAN_POINT('',(-0.063,0.129,0.005));
#1735=CARTESIAN_POINT('',(-0.073,0.129,0.005));
#1736=CARTESIAN_POINT('',(-0.083,0.129,0.005));
#1737=CARTESIAN_POINT('',(-0.102979074537074,0.128085352175952,0.005));
#1738=CARTESIAN_POINT('',(-0.097,0.109,0.005));
#1739=CARTESIAN_POINT('',(-0.103,0.109,0.005));
#1740=CARTESIAN_POINT('',(-0.109,0.109,0.005));
#1741=CARTESIAN_POINT('',(-0.109,0.0545,0.005));
#1742=CARTESIAN_POINT('',(-0.109,-0.109,0.005));
#1743=CARTESIAN_POINT('',(-0.103,-0.109,0.005));
#1744=CARTESIAN_POINT('',(-0.097,-0.109,0.005));
#1745=CARTESIAN_POINT('',(-0.102979074537074,-0.128085352175952,0.005));
#1746=CARTESIAN_POINT('',(-0.083,-0.129,0.005));
#1747=CARTESIAN_POINT('',(-0.073,-0.129,0.005));
#1748=CARTESIAN_POINT('',(-0.063,-0.129,0.005));
#1749=CARTESIAN_POINT('',(-0.0430209254629259,-0.128085352175952,0.005));
#1750=CARTESIAN_POINT('',(-0.049,-0.109,0.005));
#1751=CARTESIAN_POINT('',(-0.042,-0.109,0.005));
#1752=CARTESIAN_POINT('',(-0.035,-0.109,0.005));
#1753=CARTESIAN_POINT('',(-0.035,-0.129833333333333,0.005));
#1754=CARTESIAN_POINT('',(-0.015,-0.124,0.005));
#1755=CARTESIAN_POINT('',(-5.20819271477065E-17,-0.124,0.005));
#1756=CARTESIAN_POINT('',(0.015,-0.124,0.005));
#1757=CARTESIAN_POINT('',(0.035,-0.129833333333333,0.005));
#1758=CARTESIAN_POINT('',(0.035,-0.109,0.005));
#1759=CARTESIAN_POINT('',(0.072,-0.109,0.005));
#1760=CARTESIAN_POINT('',(0.109,-0.109,0.005));
#1761=CARTESIAN_POINT('',(0.109,-0.0545,0.005));
#1762=CARTESIAN_POINT('',(0.109,0.109,0.005));
#1763=CARTESIAN_POINT('',(0.072,0.109,0.005));
#1764=CARTESIAN_POINT('',(0.035,0.109,0.005));
#1765=CARTESIAN_POINT('',(0.035,0.129833333333333,0.005));
#1766=CARTESIAN_POINT('',(0.015,0.124,0.005));
#1767=CARTESIAN_POINT('',(-4.14966488916289E-18,0.124,0.005));
#1768=CARTESIAN_POINT('',(-0.015,0.124,0.005));
#1769=CARTESIAN_POINT('',(-0.073,-0.129,0.005));
#1770=CARTESIAN_POINT('',(0.008,-0.124,0.005));
#1771=CARTESIAN_POINT('',(-0.008,-0.124,0.005));
#1772=CARTESIAN_POINT('',(1.08959634625423E-19,-0.116,0.005));
#1773=CARTESIAN_POINT('',(6.69676964388411E-19,-0.124,0.005));
#1774=CARTESIAN_POINT('',(-3.1680550588616E-19,-0.132,0.005));
#1775=CARTESIAN_POINT('',(0.008,0.124,0.005));
#1776=CARTESIAN_POINT('',(-0.008,0.124,0.005));
#1777=CARTESIAN_POINT('',(-1.07156594925393E-19,0.132,0.005));
#1778=CARTESIAN_POINT('',(-1.44298044169441E-18,0.124,0.005));
#1779=CARTESIAN_POINT('',(-1.07156594925393E-19,0.116,0.005));
#1780=CARTESIAN_POINT('',(-0.035,0.129833333333333,0.005));
#1781=CARTESIAN_POINT('',(-0.073,0.129,0.005));
#1782=CARTESIAN_POINT('',(0.107,-1.38777878078145E-17,0.002));
#1783=CARTESIAN_POINT('',(0.107,0.107,0.002));
#1784=CARTESIAN_POINT('',(0.107,-0.107,0.002));
#1785=CARTESIAN_POINT('',(0.,0.107,0.002));
#1786=CARTESIAN_POINT('',(-0.107,0.107,0.002));
#1787=CARTESIAN_POINT('',(-0.107,1.38777878078145E-17,0.002));
#1788=CARTESIAN_POINT('',(-0.107,-0.107,0.002));
#1789=CARTESIAN_POINT('',(-1.38777878078145E-17,-0.107,0.002));
#1790=CARTESIAN_POINT('',(0.0475,0.005,-0.023));
#1791=CARTESIAN_POINT('',(0.005,0.005,-0.023));
#1792=CARTESIAN_POINT('',(0.09,0.005,-0.023));
#1793=CARTESIAN_POINT('',(0.09,0.0475,-0.023));
#1794=CARTESIAN_POINT('',(0.09,0.09,-0.023));
#1795=CARTESIAN_POINT('',(0.0475,0.09,-0.023));
#1796=CARTESIAN_POINT('',(0.005,0.09,-0.023));
#1797=CARTESIAN_POINT('',(0.005,0.0475,-0.023));
#1798=CARTESIAN_POINT('',(-0.0475,-0.09,-0.023));
#1799=CARTESIAN_POINT('',(-0.09,-0.09,-0.023));
#1800=CARTESIAN_POINT('',(-0.005,-0.09,-0.023));
#1801=CARTESIAN_POINT('',(-0.005,-0.0475,-0.023));
#1802=CARTESIAN_POINT('',(-0.005,-0.005,-0.023));
#1803=CARTESIAN_POINT('',(-0.0475,-0.005,-0.023));
#1804=CARTESIAN_POINT('',(-0.09,-0.005,-0.023));
#1805=CARTESIAN_POINT('',(-0.09,-0.0475,-0.023));
#1806=CARTESIAN_POINT('',(0.09,-0.0475,-0.023));
#1807=CARTESIAN_POINT('',(0.09,-0.09,-0.023));
#1808=CARTESIAN_POINT('',(0.09,-0.005,-0.023));
#1809=CARTESIAN_POINT('',(0.0475,-0.005,-0.023));
#1810=CARTESIAN_POINT('',(0.005,-0.005,-0.023));
#1811=CARTESIAN_POINT('',(0.005,-0.0475,-0.023));
#1812=CARTESIAN_POINT('',(0.005,-0.09,-0.023));
#1813=CARTESIAN_POINT('',(0.0475,-0.09,-0.023));
#1814=CARTESIAN_POINT('',(-0.005,0.0475,-0.023));
#1815=CARTESIAN_POINT('',(-0.005,0.005,-0.023));
#1816=CARTESIAN_POINT('',(-0.005,0.09,-0.023));
#1817=CARTESIAN_POINT('',(-0.0475,0.09,-0.023));
#1818=CARTESIAN_POINT('',(-0.09,0.09,-0.023));
#1819=CARTESIAN_POINT('',(-0.09,0.0475,-0.023));
#1820=CARTESIAN_POINT('',(-0.09,0.005,-0.023));
#1821=CARTESIAN_POINT('',(-0.0475,0.005,-0.023));
#1822=MECHANICAL_DESIGN_GEOMETRIC_PRESENTATION_REPRESENTATION('',(#1099),
#1823);
#1823=(
GEOMETRIC_REPRESENTATION_CONTEXT(3)
GLOBAL_UNCERTAINTY_ASSIGNED_CONTEXT((#1824))
GLOBAL_UNIT_ASSIGNED_CONTEXT((#1827,#1826,#1825))
REPRESENTATION_CONTEXT('Part 1','TOP_LEVEL_ASSEMBLY_PART')
);
#1824=UNCERTAINTY_MEASURE_WITH_UNIT(LENGTH_MEASURE(1.E-8),#1827,
'DISTANCE_ACCURACY_VALUE','Maximum Tolerance applied to model');
#1825=(
NAMED_UNIT(*)
SI_UNIT($,.STERADIAN.)
SOLID_ANGLE_UNIT()
);
#1826=(
NAMED_UNIT(*)
PLANE_ANGLE_UNIT()
SI_UNIT($,.RADIAN.)
);
#1827=(
LENGTH_UNIT()
NAMED_UNIT(*)
SI_UNIT($,.METRE.)
);
#1828=PRODUCT_DEFINITION_SHAPE('','',#1829);
#1829=PRODUCT_DEFINITION('','',#1831,#1830);
#1830=PRODUCT_DEFINITION_CONTEXT('',#1837,'design');
#1831=PRODUCT_DEFINITION_FORMATION_WITH_SPECIFIED_SOURCE('','',#1833,
 .NOT_KNOWN.);
#1832=PRODUCT_RELATED_PRODUCT_CATEGORY('','',(#1833));
#1833=PRODUCT('Part 1','Part 1','Part 1',(#1835));
#1834=PRODUCT_CATEGORY('','');
#1835=PRODUCT_CONTEXT('',#1837,'mechanical');
#1836=APPLICATION_PROTOCOL_DEFINITION('international standard',
'ap242_managed_model_based_3d_engineering',2020,#1837);
#1837=APPLICATION_CONTEXT('managed model based 3d engineering');
ENDSEC;
END-ISO-10303-21;
