ISO-10303-21;
HEADER;
/* Generated by software containing ST-Developer
 * from STEP Tools, Inc. (www.steptools.com) 
 */
/* OPTION: using custom renumber hook */

FILE_DESCRIPTION(
/* description */ ('STEP AP242 Edition 2',
'CAx-IF Rec.Pracs.---Representation and Presentation of Product Manufa
cturing Information (PMI)---4.0---2014-10-13',
'CAx-IF Rec.Pracs.---3D Tessellated Geometry---0.4---2014-09-14','2;1',
'CAx-IF Rec.Pracs.---User Defined Attributes---1.5---2016-08-15'),
/* implementation_level */ '2;1');

FILE_NAME(
/* name */ 'Pillars',
/* time_stamp */ '2026-06-26T08:34:53Z',
/* author */ (''),
/* organization */ (''),
/* preprocessor_version */ 'ST-DEVELOPER v20',
/* originating_system */ 'ONSHAPE BY PTC INC, 1.216',
/* authorisation */ '  ');

FILE_SCHEMA (('AP242_MANAGED_MODEL_BASED_3D_ENGINEERING_MIM_LF { 1 0 10303 442 3 1 4 }'));
ENDSEC;

DATA;
#10=SHAPE_REPRESENTATION_RELATIONSHIP('','',#275,#11);
#11=ADVANCED_BREP_SHAPE_REPRESENTATION('',(#273),#473);
#12=CYLINDRICAL_SURFACE('',#288,0.0075);
#13=CYLINDRICAL_SURFACE('',#296,0.0075);
#14=CYLINDRICAL_SURFACE('',#312,0.0015);
#15=CYLINDRICAL_SURFACE('',#313,0.0015);
#16=CYLINDRICAL_SURFACE('',#314,0.0015);
#17=CYLINDRICAL_SURFACE('',#315,0.0015);
#18=CYLINDRICAL_SURFACE('',#316,0.0025);
#19=CYLINDRICAL_SURFACE('',#317,0.0025);
#20=CYLINDRICAL_SURFACE('',#318,0.0015);
#21=TOROIDAL_SURFACE('',#282,0.848097301136946,0.841597301136953);
#22=TOROIDAL_SURFACE('',#292,0.848097301136363,0.841597301136363);
#23=TOROIDAL_SURFACE('',#304,0.84809730113669,0.841597301136694);
#24=ORIENTED_EDGE('',*,*,#72,.F.);
#25=ORIENTED_EDGE('',*,*,#73,.F.);
#26=ORIENTED_EDGE('',*,*,#74,.F.);
#27=ORIENTED_EDGE('',*,*,#75,.F.);
#28=ORIENTED_EDGE('',*,*,#75,.T.);
#29=ORIENTED_EDGE('',*,*,#76,.F.);
#30=ORIENTED_EDGE('',*,*,#77,.T.);
#31=ORIENTED_EDGE('',*,*,#78,.T.);
#32=ORIENTED_EDGE('',*,*,#76,.T.);
#33=ORIENTED_EDGE('',*,*,#79,.F.);
#34=ORIENTED_EDGE('',*,*,#80,.F.);
#35=ORIENTED_EDGE('',*,*,#79,.T.);
#36=ORIENTED_EDGE('',*,*,#80,.T.);
#37=ORIENTED_EDGE('',*,*,#81,.F.);
#38=ORIENTED_EDGE('',*,*,#81,.T.);
#39=ORIENTED_EDGE('',*,*,#82,.F.);
#40=ORIENTED_EDGE('',*,*,#83,.F.);
#41=ORIENTED_EDGE('',*,*,#82,.T.);
#42=ORIENTED_EDGE('',*,*,#83,.T.);
#43=ORIENTED_EDGE('',*,*,#84,.F.);
#44=ORIENTED_EDGE('',*,*,#85,.T.);
#45=ORIENTED_EDGE('',*,*,#86,.T.);
#46=ORIENTED_EDGE('',*,*,#87,.T.);
#47=ORIENTED_EDGE('',*,*,#88,.T.);
#48=ORIENTED_EDGE('',*,*,#89,.F.);
#49=ORIENTED_EDGE('',*,*,#84,.T.);
#50=ORIENTED_EDGE('',*,*,#89,.T.);
#51=ORIENTED_EDGE('',*,*,#90,.F.);
#52=ORIENTED_EDGE('',*,*,#91,.F.);
#53=ORIENTED_EDGE('',*,*,#92,.F.);
#54=ORIENTED_EDGE('',*,*,#93,.F.);
#55=ORIENTED_EDGE('',*,*,#94,.F.);
#56=ORIENTED_EDGE('',*,*,#95,.F.);
#57=ORIENTED_EDGE('',*,*,#90,.T.);
#58=ORIENTED_EDGE('',*,*,#88,.F.);
#59=ORIENTED_EDGE('',*,*,#95,.T.);
#60=ORIENTED_EDGE('',*,*,#87,.F.);
#61=ORIENTED_EDGE('',*,*,#94,.T.);
#62=ORIENTED_EDGE('',*,*,#86,.F.);
#63=ORIENTED_EDGE('',*,*,#93,.T.);
#64=ORIENTED_EDGE('',*,*,#85,.F.);
#65=ORIENTED_EDGE('',*,*,#92,.T.);
#66=ORIENTED_EDGE('',*,*,#78,.F.);
#67=ORIENTED_EDGE('',*,*,#74,.T.);
#68=ORIENTED_EDGE('',*,*,#77,.F.);
#69=ORIENTED_EDGE('',*,*,#73,.T.);
#70=ORIENTED_EDGE('',*,*,#72,.T.);
#71=ORIENTED_EDGE('',*,*,#91,.T.);
#72=EDGE_CURVE('',#96,#96,#120,.T.);
#73=EDGE_CURVE('',#97,#97,#121,.T.);
#74=EDGE_CURVE('',#98,#98,#122,.T.);
#75=EDGE_CURVE('',#99,#99,#123,.T.);
#76=EDGE_CURVE('',#100,#100,#124,.T.);
#77=EDGE_CURVE('',#101,#101,#125,.T.);
#78=EDGE_CURVE('',#102,#102,#126,.T.);
#79=EDGE_CURVE('',#103,#103,#127,.T.);
#80=EDGE_CURVE('',#104,#104,#128,.T.);
#81=EDGE_CURVE('',#105,#105,#129,.T.);
#82=EDGE_CURVE('',#106,#106,#130,.T.);
#83=EDGE_CURVE('',#107,#107,#131,.T.);
#84=EDGE_CURVE('',#108,#108,#132,.T.);
#85=EDGE_CURVE('',#109,#109,#133,.T.);
#86=EDGE_CURVE('',#110,#110,#134,.T.);
#87=EDGE_CURVE('',#111,#111,#135,.T.);
#88=EDGE_CURVE('',#112,#112,#136,.T.);
#89=EDGE_CURVE('',#113,#113,#137,.T.);
#90=EDGE_CURVE('',#114,#114,#138,.T.);
#91=EDGE_CURVE('',#115,#115,#139,.T.);
#92=EDGE_CURVE('',#116,#116,#140,.T.);
#93=EDGE_CURVE('',#117,#117,#141,.T.);
#94=EDGE_CURVE('',#118,#118,#142,.T.);
#95=EDGE_CURVE('',#119,#119,#143,.T.);
#96=VERTEX_POINT('',#408);
#97=VERTEX_POINT('',#410);
#98=VERTEX_POINT('',#412);
#99=VERTEX_POINT('',#414);
#100=VERTEX_POINT('',#417);
#101=VERTEX_POINT('',#420);
#102=VERTEX_POINT('',#422);
#103=VERTEX_POINT('',#424);
#104=VERTEX_POINT('',#427);
#105=VERTEX_POINT('',#430);
#106=VERTEX_POINT('',#433);
#107=VERTEX_POINT('',#436);
#108=VERTEX_POINT('',#439);
#109=VERTEX_POINT('',#442);
#110=VERTEX_POINT('',#444);
#111=VERTEX_POINT('',#446);
#112=VERTEX_POINT('',#448);
#113=VERTEX_POINT('',#450);
#114=VERTEX_POINT('',#453);
#115=VERTEX_POINT('',#456);
#116=VERTEX_POINT('',#458);
#117=VERTEX_POINT('',#460);
#118=VERTEX_POINT('',#462);
#119=VERTEX_POINT('',#464);
#120=CIRCLE('',#278,0.0015);
#121=CIRCLE('',#279,0.0025);
#122=CIRCLE('',#280,0.0025);
#123=CIRCLE('',#281,0.0175);
#124=CIRCLE('',#283,0.0170157006571982);
#125=CIRCLE('',#285,0.0025);
#126=CIRCLE('',#286,0.0025);
#127=CIRCLE('',#287,0.0075);
#128=CIRCLE('',#289,0.0075);
#129=CIRCLE('',#291,0.0100875299194577);
#130=CIRCLE('',#293,0.0100875299194577);
#131=CIRCLE('',#295,0.0075);
#132=CIRCLE('',#297,0.0075);
#133=CIRCLE('',#299,0.0015);
#134=CIRCLE('',#300,0.0015);
#135=CIRCLE('',#301,0.0015);
#136=CIRCLE('',#302,0.0015);
#137=CIRCLE('',#303,0.0170157006571981);
#138=CIRCLE('',#305,0.0175);
#139=CIRCLE('',#307,0.0015);
#140=CIRCLE('',#308,0.0015);
#141=CIRCLE('',#309,0.0015);
#142=CIRCLE('',#310,0.0015);
#143=CIRCLE('',#311,0.0015);
#144=EDGE_LOOP('',(#24));
#145=EDGE_LOOP('',(#25));
#146=EDGE_LOOP('',(#26));
#147=EDGE_LOOP('',(#27));
#148=EDGE_LOOP('',(#28));
#149=EDGE_LOOP('',(#29));
#150=EDGE_LOOP('',(#30));
#151=EDGE_LOOP('',(#31));
#152=EDGE_LOOP('',(#32));
#153=EDGE_LOOP('',(#33));
#154=EDGE_LOOP('',(#34));
#155=EDGE_LOOP('',(#35));
#156=EDGE_LOOP('',(#36));
#157=EDGE_LOOP('',(#37));
#158=EDGE_LOOP('',(#38));
#159=EDGE_LOOP('',(#39));
#160=EDGE_LOOP('',(#40));
#161=EDGE_LOOP('',(#41));
#162=EDGE_LOOP('',(#42));
#163=EDGE_LOOP('',(#43));
#164=EDGE_LOOP('',(#44));
#165=EDGE_LOOP('',(#45));
#166=EDGE_LOOP('',(#46));
#167=EDGE_LOOP('',(#47));
#168=EDGE_LOOP('',(#48));
#169=EDGE_LOOP('',(#49));
#170=EDGE_LOOP('',(#50));
#171=EDGE_LOOP('',(#51));
#172=EDGE_LOOP('',(#52));
#173=EDGE_LOOP('',(#53));
#174=EDGE_LOOP('',(#54));
#175=EDGE_LOOP('',(#55));
#176=EDGE_LOOP('',(#56));
#177=EDGE_LOOP('',(#57));
#178=EDGE_LOOP('',(#58));
#179=EDGE_LOOP('',(#59));
#180=EDGE_LOOP('',(#60));
#181=EDGE_LOOP('',(#61));
#182=EDGE_LOOP('',(#62));
#183=EDGE_LOOP('',(#63));
#184=EDGE_LOOP('',(#64));
#185=EDGE_LOOP('',(#65));
#186=EDGE_LOOP('',(#66));
#187=EDGE_LOOP('',(#67));
#188=EDGE_LOOP('',(#68));
#189=EDGE_LOOP('',(#69));
#190=EDGE_LOOP('',(#70));
#191=EDGE_LOOP('',(#71));
#192=FACE_BOUND('',#144,.T.);
#193=FACE_BOUND('',#145,.T.);
#194=FACE_BOUND('',#146,.T.);
#195=FACE_BOUND('',#147,.T.);
#196=FACE_BOUND('',#148,.T.);
#197=FACE_BOUND('',#149,.T.);
#198=FACE_BOUND('',#150,.T.);
#199=FACE_BOUND('',#151,.T.);
#200=FACE_BOUND('',#152,.T.);
#201=FACE_BOUND('',#153,.T.);
#202=FACE_BOUND('',#154,.T.);
#203=FACE_BOUND('',#155,.T.);
#204=FACE_BOUND('',#156,.T.);
#205=FACE_BOUND('',#157,.T.);
#206=FACE_BOUND('',#158,.T.);
#207=FACE_BOUND('',#159,.T.);
#208=FACE_BOUND('',#160,.T.);
#209=FACE_BOUND('',#161,.T.);
#210=FACE_BOUND('',#162,.T.);
#211=FACE_BOUND('',#163,.T.);
#212=FACE_BOUND('',#164,.T.);
#213=FACE_BOUND('',#165,.T.);
#214=FACE_BOUND('',#166,.T.);
#215=FACE_BOUND('',#167,.T.);
#216=FACE_BOUND('',#168,.T.);
#217=FACE_BOUND('',#169,.T.);
#218=FACE_BOUND('',#170,.T.);
#219=FACE_BOUND('',#171,.T.);
#220=FACE_BOUND('',#172,.T.);
#221=FACE_BOUND('',#173,.T.);
#222=FACE_BOUND('',#174,.T.);
#223=FACE_BOUND('',#175,.T.);
#224=FACE_BOUND('',#176,.T.);
#225=FACE_BOUND('',#177,.T.);
#226=FACE_BOUND('',#178,.T.);
#227=FACE_BOUND('',#179,.T.);
#228=FACE_BOUND('',#180,.T.);
#229=FACE_BOUND('',#181,.T.);
#230=FACE_BOUND('',#182,.T.);
#231=FACE_BOUND('',#183,.T.);
#232=FACE_BOUND('',#184,.T.);
#233=FACE_BOUND('',#185,.T.);
#234=FACE_BOUND('',#186,.T.);
#235=FACE_BOUND('',#187,.T.);
#236=FACE_BOUND('',#188,.T.);
#237=FACE_BOUND('',#189,.T.);
#238=FACE_BOUND('',#190,.T.);
#239=FACE_BOUND('',#191,.T.);
#240=PLANE('',#277);
#241=PLANE('',#284);
#242=PLANE('',#290);
#243=PLANE('',#294);
#244=PLANE('',#298);
#245=PLANE('',#306);
#246=ADVANCED_FACE('',(#192,#193,#194,#195),#240,.T.);
#247=ADVANCED_FACE('',(#196,#197),#21,.F.);
#248=ADVANCED_FACE('',(#198,#199,#200,#201),#241,.T.);
#249=ADVANCED_FACE('',(#202,#203),#12,.T.);
#250=ADVANCED_FACE('',(#204,#205),#242,.T.);
#251=ADVANCED_FACE('',(#206,#207),#22,.F.);
#252=ADVANCED_FACE('',(#208,#209),#243,.F.);
#253=ADVANCED_FACE('',(#210,#211),#13,.T.);
#254=ADVANCED_FACE('',(#212,#213,#214,#215,#216,#217),#244,.F.);
#255=ADVANCED_FACE('',(#218,#219),#23,.F.);
#256=ADVANCED_FACE('',(#220,#221,#222,#223,#224,#225),#245,.F.);
#257=ADVANCED_FACE('',(#226,#227),#14,.F.);
#258=ADVANCED_FACE('',(#228,#229),#15,.F.);
#259=ADVANCED_FACE('',(#230,#231),#16,.F.);
#260=ADVANCED_FACE('',(#232,#233),#17,.F.);
#261=ADVANCED_FACE('',(#234,#235),#18,.F.);
#262=ADVANCED_FACE('',(#236,#237),#19,.F.);
#263=ADVANCED_FACE('',(#238,#239),#20,.F.);
#264=CLOSED_SHELL('',(#246,#247,#248,#249,#250,#251,#252,#253,#254,#255,
#256,#257,#258,#259,#260,#261,#262,#263));
#265=STYLED_ITEM('',(#266),#273);
#266=PRESENTATION_STYLE_ASSIGNMENT((#267));
#267=SURFACE_STYLE_USAGE(.BOTH.,#268);
#268=SURFACE_SIDE_STYLE('',(#269));
#269=SURFACE_STYLE_FILL_AREA(#270);
#270=FILL_AREA_STYLE('',(#271));
#271=FILL_AREA_STYLE_COLOUR('',#272);
#272=COLOUR_RGB('',0.43921568627451,0.474509803921569,0.501960784313726);
#273=MANIFOLD_SOLID_BREP('Part 1',#264);
#274=SHAPE_DEFINITION_REPRESENTATION(#478,#275);
#275=SHAPE_REPRESENTATION('Part 1',(#276),#473);
#276=AXIS2_PLACEMENT_3D('',#405,#319,#320);
#277=AXIS2_PLACEMENT_3D('',#406,#321,#322);
#278=AXIS2_PLACEMENT_3D('',#407,#323,#324);
#279=AXIS2_PLACEMENT_3D('',#409,#325,#326);
#280=AXIS2_PLACEMENT_3D('',#411,#327,#328);
#281=AXIS2_PLACEMENT_3D('',#413,#329,#330);
#282=AXIS2_PLACEMENT_3D('',#415,#331,#332);
#283=AXIS2_PLACEMENT_3D('',#416,#333,#334);
#284=AXIS2_PLACEMENT_3D('',#418,#335,#336);
#285=AXIS2_PLACEMENT_3D('',#419,#337,#338);
#286=AXIS2_PLACEMENT_3D('',#421,#339,#340);
#287=AXIS2_PLACEMENT_3D('',#423,#341,#342);
#288=AXIS2_PLACEMENT_3D('',#425,#343,#344);
#289=AXIS2_PLACEMENT_3D('',#426,#345,#346);
#290=AXIS2_PLACEMENT_3D('',#428,#347,#348);
#291=AXIS2_PLACEMENT_3D('',#429,#349,#350);
#292=AXIS2_PLACEMENT_3D('',#431,#351,#352);
#293=AXIS2_PLACEMENT_3D('',#432,#353,#354);
#294=AXIS2_PLACEMENT_3D('',#434,#355,#356);
#295=AXIS2_PLACEMENT_3D('',#435,#357,#358);
#296=AXIS2_PLACEMENT_3D('',#437,#359,#360);
#297=AXIS2_PLACEMENT_3D('',#438,#361,#362);
#298=AXIS2_PLACEMENT_3D('',#440,#363,#364);
#299=AXIS2_PLACEMENT_3D('',#441,#365,#366);
#300=AXIS2_PLACEMENT_3D('',#443,#367,#368);
#301=AXIS2_PLACEMENT_3D('',#445,#369,#370);
#302=AXIS2_PLACEMENT_3D('',#447,#371,#372);
#303=AXIS2_PLACEMENT_3D('',#449,#373,#374);
#304=AXIS2_PLACEMENT_3D('',#451,#375,#376);
#305=AXIS2_PLACEMENT_3D('',#452,#377,#378);
#306=AXIS2_PLACEMENT_3D('',#454,#379,#380);
#307=AXIS2_PLACEMENT_3D('',#455,#381,#382);
#308=AXIS2_PLACEMENT_3D('',#457,#383,#384);
#309=AXIS2_PLACEMENT_3D('',#459,#385,#386);
#310=AXIS2_PLACEMENT_3D('',#461,#387,#388);
#311=AXIS2_PLACEMENT_3D('',#463,#389,#390);
#312=AXIS2_PLACEMENT_3D('',#465,#391,#392);
#313=AXIS2_PLACEMENT_3D('',#466,#393,#394);
#314=AXIS2_PLACEMENT_3D('',#467,#395,#396);
#315=AXIS2_PLACEMENT_3D('',#468,#397,#398);
#316=AXIS2_PLACEMENT_3D('',#469,#399,#400);
#317=AXIS2_PLACEMENT_3D('',#470,#401,#402);
#318=AXIS2_PLACEMENT_3D('',#471,#403,#404);
#319=DIRECTION('',(0.,0.,1.));
#320=DIRECTION('',(1.,0.,0.));
#321=DIRECTION('',(1.,0.,0.));
#322=DIRECTION('',(0.,0.,-1.));
#323=DIRECTION('',(1.,0.,0.));
#324=DIRECTION('',(0.,0.,-1.));
#325=DIRECTION('',(1.,0.,0.));
#326=DIRECTION('',(0.,0.,-1.));
#327=DIRECTION('',(1.,0.,0.));
#328=DIRECTION('',(0.,0.,-1.));
#329=DIRECTION('',(-1.,0.,0.));
#330=DIRECTION('',(0.,0.,1.));
#331=DIRECTION('',(-1.,0.,0.));
#332=DIRECTION('',(0.,0.,1.));
#333=DIRECTION('',(-1.,0.,0.));
#334=DIRECTION('',(0.,0.,1.));
#335=DIRECTION('',(-1.,0.,0.));
#336=DIRECTION('',(0.,0.,1.));
#337=DIRECTION('',(1.,0.,0.));
#338=DIRECTION('',(0.,0.,-1.));
#339=DIRECTION('',(1.,0.,0.));
#340=DIRECTION('',(0.,0.,-1.));
#341=DIRECTION('',(-1.,0.,0.));
#342=DIRECTION('',(0.,0.,1.));
#343=DIRECTION('',(-1.,0.,0.));
#344=DIRECTION('',(0.,0.,1.));
#345=DIRECTION('',(-1.,0.,0.));
#346=DIRECTION('',(0.,0.,1.));
#347=DIRECTION('',(1.,0.,0.));
#348=DIRECTION('',(0.,0.,-1.));
#349=DIRECTION('',(-1.,0.,0.));
#350=DIRECTION('',(0.,0.,1.));
#351=DIRECTION('',(-1.,0.,0.));
#352=DIRECTION('',(0.,0.,1.));
#353=DIRECTION('',(-1.,0.,0.));
#354=DIRECTION('',(0.,0.,1.));
#355=DIRECTION('',(1.,0.,0.));
#356=DIRECTION('',(0.,0.,-1.));
#357=DIRECTION('',(-1.,0.,0.));
#358=DIRECTION('',(0.,0.,1.));
#359=DIRECTION('',(-1.,0.,0.));
#360=DIRECTION('',(0.,0.,1.));
#361=DIRECTION('',(-1.,0.,0.));
#362=DIRECTION('',(0.,0.,1.));
#363=DIRECTION('',(-1.,0.,0.));
#364=DIRECTION('',(0.,0.,1.));
#365=DIRECTION('',(-1.,0.,0.));
#366=DIRECTION('',(0.,0.,1.));
#367=DIRECTION('',(-1.,0.,0.));
#368=DIRECTION('',(0.,0.,1.));
#369=DIRECTION('',(-1.,0.,0.));
#370=DIRECTION('',(0.,0.,1.));
#371=DIRECTION('',(-1.,0.,0.));
#372=DIRECTION('',(0.,0.,1.));
#373=DIRECTION('',(-1.,0.,0.));
#374=DIRECTION('',(0.,0.,1.));
#375=DIRECTION('',(-1.,0.,0.));
#376=DIRECTION('',(0.,0.,1.));
#377=DIRECTION('',(-1.,0.,0.));
#378=DIRECTION('',(0.,0.,1.));
#379=DIRECTION('',(1.,0.,0.));
#380=DIRECTION('',(0.,0.,-1.));
#381=DIRECTION('',(-1.,0.,0.));
#382=DIRECTION('',(0.,0.,1.));
#383=DIRECTION('',(-1.,0.,0.));
#384=DIRECTION('',(0.,0.,1.));
#385=DIRECTION('',(-1.,0.,0.));
#386=DIRECTION('',(0.,0.,1.));
#387=DIRECTION('',(-1.,0.,0.));
#388=DIRECTION('',(0.,0.,1.));
#389=DIRECTION('',(-1.,0.,0.));
#390=DIRECTION('',(0.,0.,1.));
#391=DIRECTION('',(-1.,0.,0.));
#392=DIRECTION('',(0.,0.,1.));
#393=DIRECTION('',(-1.,0.,0.));
#394=DIRECTION('',(0.,0.,1.));
#395=DIRECTION('',(-1.,0.,0.));
#396=DIRECTION('',(0.,0.,1.));
#397=DIRECTION('',(-1.,0.,0.));
#398=DIRECTION('',(0.,0.,1.));
#399=DIRECTION('',(1.,0.,0.));
#400=DIRECTION('',(0.,0.,-1.));
#401=DIRECTION('',(1.,0.,0.));
#402=DIRECTION('',(0.,0.,-1.));
#403=DIRECTION('',(-1.,0.,0.));
#404=DIRECTION('',(0.,0.,1.));
#405=CARTESIAN_POINT('',(0.,0.,0.));
#406=CARTESIAN_POINT('',(0.135625,0.00875,0.));
#407=CARTESIAN_POINT('',(0.135625,0.,9.18485099360515E-20));
#408=CARTESIAN_POINT('',(0.135625,0.,-0.0015));
#409=CARTESIAN_POINT('',(0.135625,0.,0.012));
#410=CARTESIAN_POINT('',(0.135625,0.,0.0095));
#411=CARTESIAN_POINT('',(0.135625,0.,-0.012));
#412=CARTESIAN_POINT('',(0.135625,0.,-0.0145));
#413=CARTESIAN_POINT('',(0.135625,0.,0.));
#414=CARTESIAN_POINT('',(0.135625,0.,0.0175));
#415=CARTESIAN_POINT('',(-9.62840918106167E-14,0.,0.));
#416=CARTESIAN_POINT('',(0.132625,0.,0.));
#417=CARTESIAN_POINT('',(0.132625,0.,0.0170157006571982));
#418=CARTESIAN_POINT('',(0.132625,0.0122578503285991,0.));
#419=CARTESIAN_POINT('',(0.132625,0.,0.012));
#420=CARTESIAN_POINT('',(0.132625,0.,0.0095));
#421=CARTESIAN_POINT('',(0.132625,0.,-0.012));
#422=CARTESIAN_POINT('',(0.132625,0.,-0.0145));
#423=CARTESIAN_POINT('',(0.132625,0.,0.));
#424=CARTESIAN_POINT('',(0.132625,0.,0.0075));
#425=CARTESIAN_POINT('',(0.,0.,0.));
#426=CARTESIAN_POINT('',(0.077625,0.,0.));
#427=CARTESIAN_POINT('',(0.077625,0.,0.0075));
#428=CARTESIAN_POINT('',(0.077625,0.00879376495972885,0.));
#429=CARTESIAN_POINT('',(0.077625,0.,0.));
#430=CARTESIAN_POINT('',(0.077625,0.,0.0100875299194577));
#431=CARTESIAN_POINT('',(-1.01421299677886E-18,0.,0.));
#432=CARTESIAN_POINT('',(-0.077625,0.,0.));
#433=CARTESIAN_POINT('',(-0.077625,0.,0.0100875299194577));
#434=CARTESIAN_POINT('',(-0.077625,0.00879376495972885,0.));
#435=CARTESIAN_POINT('',(-0.077625,0.,0.));
#436=CARTESIAN_POINT('',(-0.077625,0.,0.0075));
#437=CARTESIAN_POINT('',(0.,0.,0.));
#438=CARTESIAN_POINT('',(-0.132625,0.,0.));
#439=CARTESIAN_POINT('',(-0.132625,0.,0.0075));
#440=CARTESIAN_POINT('',(-0.132625,0.0122578503285991,0.));
#441=CARTESIAN_POINT('',(-0.132625,2.16840434497101E-19,0.012));
#442=CARTESIAN_POINT('',(-0.132625,2.16840434497101E-19,0.0135));
#443=CARTESIAN_POINT('',(-0.132625,-0.012,3.36777869765522E-19));
#444=CARTESIAN_POINT('',(-0.132625,-0.012,0.0015));
#445=CARTESIAN_POINT('',(-0.132625,0.,-0.012));
#446=CARTESIAN_POINT('',(-0.132625,0.,-0.0105));
#447=CARTESIAN_POINT('',(-0.132625,0.012,9.18485099360515E-20));
#448=CARTESIAN_POINT('',(-0.132625,0.012,0.0015));
#449=CARTESIAN_POINT('',(-0.132625,0.,0.));
#450=CARTESIAN_POINT('',(-0.132625,0.,0.0170157006571981));
#451=CARTESIAN_POINT('',(5.64409630143814E-14,0.,0.));
#452=CARTESIAN_POINT('',(-0.135625,0.,0.));
#453=CARTESIAN_POINT('',(-0.135625,0.,0.0175));
#454=CARTESIAN_POINT('',(-0.135625,0.00875,0.));
#455=CARTESIAN_POINT('',(-0.135625,0.,9.18485099360515E-20));
#456=CARTESIAN_POINT('',(-0.135625,0.,0.0015));
#457=CARTESIAN_POINT('',(-0.135625,2.16840434497101E-19,0.012));
#458=CARTESIAN_POINT('',(-0.135625,2.16840434497101E-19,0.0135));
#459=CARTESIAN_POINT('',(-0.135625,-0.012,3.36777869765522E-19));
#460=CARTESIAN_POINT('',(-0.135625,-0.012,0.0015));
#461=CARTESIAN_POINT('',(-0.135625,0.,-0.012));
#462=CARTESIAN_POINT('',(-0.135625,0.,-0.0105));
#463=CARTESIAN_POINT('',(-0.135625,0.012,9.18485099360515E-20));
#464=CARTESIAN_POINT('',(-0.135625,0.012,0.0015));
#465=CARTESIAN_POINT('',(-0.132625,0.012,9.18485099360515E-20));
#466=CARTESIAN_POINT('',(-0.132625,0.,-0.012));
#467=CARTESIAN_POINT('',(-0.132625,-0.012,3.36777869765522E-19));
#468=CARTESIAN_POINT('',(-0.132625,2.16840434497101E-19,0.012));
#469=CARTESIAN_POINT('',(0.132625,0.,-0.012));
#470=CARTESIAN_POINT('',(0.132625,0.,0.012));
#471=CARTESIAN_POINT('',(19.864375,0.,9.18485099360515E-20));
#472=MECHANICAL_DESIGN_GEOMETRIC_PRESENTATION_REPRESENTATION('',(#265),
#473);
#473=(
GEOMETRIC_REPRESENTATION_CONTEXT(3)
GLOBAL_UNCERTAINTY_ASSIGNED_CONTEXT((#474))
GLOBAL_UNIT_ASSIGNED_CONTEXT((#477,#476,#475))
REPRESENTATION_CONTEXT('Part 1','TOP_LEVEL_ASSEMBLY_PART')
);
#474=UNCERTAINTY_MEASURE_WITH_UNIT(LENGTH_MEASURE(1.E-8),#477,
'DISTANCE_ACCURACY_VALUE','Maximum Tolerance applied to model');
#475=(
NAMED_UNIT(*)
SI_UNIT($,.STERADIAN.)
SOLID_ANGLE_UNIT()
);
#476=(
NAMED_UNIT(*)
PLANE_ANGLE_UNIT()
SI_UNIT($,.RADIAN.)
);
#477=(
LENGTH_UNIT()
NAMED_UNIT(*)
SI_UNIT($,.METRE.)
);
#478=PRODUCT_DEFINITION_SHAPE('','',#479);
#479=PRODUCT_DEFINITION('','',#481,#480);
#480=PRODUCT_DEFINITION_CONTEXT('',#487,'design');
#481=PRODUCT_DEFINITION_FORMATION_WITH_SPECIFIED_SOURCE('','',#483,
 .NOT_KNOWN.);
#482=PRODUCT_RELATED_PRODUCT_CATEGORY('','',(#483));
#483=PRODUCT('Part 1','Part 1','Part 1',(#485));
#484=PRODUCT_CATEGORY('','');
#485=PRODUCT_CONTEXT('',#487,'mechanical');
#486=APPLICATION_PROTOCOL_DEFINITION('international standard',
'ap242_managed_model_based_3d_engineering',2020,#487);
#487=APPLICATION_CONTEXT('managed model based 3d engineering');
ENDSEC;
END-ISO-10303-21;
