ISO-10303-21;
HEADER;
/* Generated by software containing ST-Developer
 * from STEP Tools, Inc. (www.steptools.com) 
 */
/* OPTION: using custom renumber hook */

FILE_DESCRIPTION(
/* description */ ('STEP AP242 Edition 2',
'CAx-IF Rec.Pracs.---Representation and Presentation of Product Manufa
cturing Information (PMI)---4.0---2014-10-13',
'CAx-IF Rec.Pracs.---3D Tessellated Geometry---0.4---2014-09-14','2;1',
'CAx-IF Rec.Pracs.---User Defined Attributes---1.5---2016-08-15'),
/* implementation_level */ '2;1');

FILE_NAME(
/* name */ 'Stepper holder Base',
/* time_stamp */ '2026-06-27T07:36:27Z',
/* author */ (''),
/* organization */ (''),
/* preprocessor_version */ 'ST-DEVELOPER v20',
/* originating_system */ 'ONSHAPE BY PTC INC, 1.217',
/* authorisation */ '  ');

FILE_SCHEMA (('AP242_MANAGED_MODEL_BASED_3D_ENGINEERING_MIM_LF { 1 0 10303 442 3 1 4 }'));
ENDSEC;

DATA;
#10=SHAPE_REPRESENTATION_RELATIONSHIP('','',#543,#11);
#11=ADVANCED_BREP_SHAPE_REPRESENTATION('',(#541),#871);
#12=CYLINDRICAL_SURFACE('',#560,0.0015);
#13=CYLINDRICAL_SURFACE('',#562,0.0015);
#14=CYLINDRICAL_SURFACE('',#564,0.011);
#15=CYLINDRICAL_SURFACE('',#566,0.0015);
#16=CYLINDRICAL_SURFACE('',#569,0.0015);
#17=CYLINDRICAL_SURFACE('',#582,0.0025);
#18=CYLINDRICAL_SURFACE('',#583,0.0025);
#19=CIRCLE('',#547,0.0025);
#20=CIRCLE('',#551,0.0025);
#21=CIRCLE('',#554,0.0015);
#22=CIRCLE('',#555,0.011);
#23=CIRCLE('',#556,0.0015);
#24=CIRCLE('',#557,0.0015);
#25=CIRCLE('',#558,0.0015);
#26=CIRCLE('',#561,0.0015);
#27=CIRCLE('',#563,0.0015);
#28=CIRCLE('',#565,0.011);
#29=CIRCLE('',#567,0.0015);
#30=CIRCLE('',#570,0.0015);
#31=CIRCLE('',#574,0.0025);
#32=CIRCLE('',#579,0.0025);
#33=ORIENTED_EDGE('',*,*,#165,.T.);
#34=ORIENTED_EDGE('',*,*,#166,.T.);
#35=ORIENTED_EDGE('',*,*,#167,.T.);
#36=ORIENTED_EDGE('',*,*,#168,.F.);
#37=ORIENTED_EDGE('',*,*,#169,.F.);
#38=ORIENTED_EDGE('',*,*,#170,.F.);
#39=ORIENTED_EDGE('',*,*,#171,.F.);
#40=ORIENTED_EDGE('',*,*,#172,.F.);
#41=ORIENTED_EDGE('',*,*,#173,.F.);
#42=ORIENTED_EDGE('',*,*,#174,.T.);
#43=ORIENTED_EDGE('',*,*,#175,.T.);
#44=ORIENTED_EDGE('',*,*,#176,.F.);
#45=ORIENTED_EDGE('',*,*,#177,.F.);
#46=ORIENTED_EDGE('',*,*,#178,.T.);
#47=ORIENTED_EDGE('',*,*,#179,.F.);
#48=ORIENTED_EDGE('',*,*,#180,.F.);
#49=ORIENTED_EDGE('',*,*,#181,.F.);
#50=ORIENTED_EDGE('',*,*,#182,.F.);
#51=ORIENTED_EDGE('',*,*,#183,.T.);
#52=ORIENTED_EDGE('',*,*,#184,.T.);
#53=ORIENTED_EDGE('',*,*,#185,.T.);
#54=ORIENTED_EDGE('',*,*,#186,.T.);
#55=ORIENTED_EDGE('',*,*,#187,.F.);
#56=ORIENTED_EDGE('',*,*,#188,.T.);
#57=ORIENTED_EDGE('',*,*,#189,.T.);
#58=ORIENTED_EDGE('',*,*,#190,.F.);
#59=ORIENTED_EDGE('',*,*,#191,.F.);
#60=ORIENTED_EDGE('',*,*,#192,.F.);
#61=ORIENTED_EDGE('',*,*,#193,.T.);
#62=ORIENTED_EDGE('',*,*,#194,.T.);
#63=ORIENTED_EDGE('',*,*,#188,.F.);
#64=ORIENTED_EDGE('',*,*,#195,.F.);
#65=ORIENTED_EDGE('',*,*,#196,.F.);
#66=ORIENTED_EDGE('',*,*,#197,.T.);
#67=ORIENTED_EDGE('',*,*,#198,.F.);
#68=ORIENTED_EDGE('',*,*,#174,.F.);
#69=ORIENTED_EDGE('',*,*,#199,.T.);
#70=ORIENTED_EDGE('',*,*,#200,.T.);
#71=ORIENTED_EDGE('',*,*,#200,.F.);
#72=ORIENTED_EDGE('',*,*,#201,.T.);
#73=ORIENTED_EDGE('',*,*,#190,.T.);
#74=ORIENTED_EDGE('',*,*,#202,.F.);
#75=ORIENTED_EDGE('',*,*,#203,.T.);
#76=ORIENTED_EDGE('',*,*,#204,.F.);
#77=ORIENTED_EDGE('',*,*,#205,.F.);
#78=ORIENTED_EDGE('',*,*,#206,.F.);
#79=ORIENTED_EDGE('',*,*,#207,.T.);
#80=ORIENTED_EDGE('',*,*,#185,.F.);
#81=ORIENTED_EDGE('',*,*,#208,.T.);
#82=ORIENTED_EDGE('',*,*,#201,.F.);
#83=ORIENTED_EDGE('',*,*,#209,.T.);
#84=ORIENTED_EDGE('',*,*,#169,.T.);
#85=ORIENTED_EDGE('',*,*,#210,.T.);
#86=ORIENTED_EDGE('',*,*,#206,.T.);
#87=ORIENTED_EDGE('',*,*,#211,.F.);
#88=ORIENTED_EDGE('',*,*,#205,.T.);
#89=ORIENTED_EDGE('',*,*,#212,.F.);
#90=ORIENTED_EDGE('',*,*,#204,.T.);
#91=ORIENTED_EDGE('',*,*,#213,.F.);
#92=ORIENTED_EDGE('',*,*,#203,.F.);
#93=ORIENTED_EDGE('',*,*,#214,.T.);
#94=ORIENTED_EDGE('',*,*,#215,.F.);
#95=ORIENTED_EDGE('',*,*,#187,.T.);
#96=ORIENTED_EDGE('',*,*,#216,.F.);
#97=ORIENTED_EDGE('',*,*,#167,.F.);
#98=ORIENTED_EDGE('',*,*,#217,.F.);
#99=ORIENTED_EDGE('',*,*,#202,.T.);
#100=ORIENTED_EDGE('',*,*,#207,.F.);
#101=ORIENTED_EDGE('',*,*,#218,.T.);
#102=ORIENTED_EDGE('',*,*,#168,.T.);
#103=ORIENTED_EDGE('',*,*,#216,.T.);
#104=ORIENTED_EDGE('',*,*,#186,.F.);
#105=ORIENTED_EDGE('',*,*,#210,.F.);
#106=ORIENTED_EDGE('',*,*,#214,.F.);
#107=ORIENTED_EDGE('',*,*,#213,.T.);
#108=ORIENTED_EDGE('',*,*,#212,.T.);
#109=ORIENTED_EDGE('',*,*,#211,.T.);
#110=ORIENTED_EDGE('',*,*,#218,.F.);
#111=ORIENTED_EDGE('',*,*,#183,.F.);
#112=ORIENTED_EDGE('',*,*,#219,.F.);
#113=ORIENTED_EDGE('',*,*,#220,.T.);
#114=ORIENTED_EDGE('',*,*,#196,.T.);
#115=ORIENTED_EDGE('',*,*,#221,.T.);
#116=ORIENTED_EDGE('',*,*,#182,.T.);
#117=ORIENTED_EDGE('',*,*,#222,.F.);
#118=ORIENTED_EDGE('',*,*,#223,.F.);
#119=ORIENTED_EDGE('',*,*,#219,.T.);
#120=ORIENTED_EDGE('',*,*,#181,.T.);
#121=ORIENTED_EDGE('',*,*,#193,.F.);
#122=ORIENTED_EDGE('',*,*,#224,.F.);
#123=ORIENTED_EDGE('',*,*,#222,.T.);
#124=ORIENTED_EDGE('',*,*,#220,.F.);
#125=ORIENTED_EDGE('',*,*,#223,.T.);
#126=ORIENTED_EDGE('',*,*,#224,.T.);
#127=ORIENTED_EDGE('',*,*,#197,.F.);
#128=ORIENTED_EDGE('',*,*,#165,.F.);
#129=ORIENTED_EDGE('',*,*,#225,.F.);
#130=ORIENTED_EDGE('',*,*,#226,.T.);
#131=ORIENTED_EDGE('',*,*,#176,.T.);
#132=ORIENTED_EDGE('',*,*,#227,.T.);
#133=ORIENTED_EDGE('',*,*,#172,.T.);
#134=ORIENTED_EDGE('',*,*,#228,.F.);
#135=ORIENTED_EDGE('',*,*,#229,.F.);
#136=ORIENTED_EDGE('',*,*,#225,.T.);
#137=ORIENTED_EDGE('',*,*,#171,.T.);
#138=ORIENTED_EDGE('',*,*,#178,.F.);
#139=ORIENTED_EDGE('',*,*,#230,.F.);
#140=ORIENTED_EDGE('',*,*,#228,.T.);
#141=ORIENTED_EDGE('',*,*,#226,.F.);
#142=ORIENTED_EDGE('',*,*,#229,.T.);
#143=ORIENTED_EDGE('',*,*,#230,.T.);
#144=ORIENTED_EDGE('',*,*,#177,.T.);
#145=ORIENTED_EDGE('',*,*,#173,.T.);
#146=ORIENTED_EDGE('',*,*,#227,.F.);
#147=ORIENTED_EDGE('',*,*,#192,.T.);
#148=ORIENTED_EDGE('',*,*,#221,.F.);
#149=ORIENTED_EDGE('',*,*,#179,.T.);
#150=ORIENTED_EDGE('',*,*,#170,.T.);
#151=ORIENTED_EDGE('',*,*,#209,.F.);
#152=ORIENTED_EDGE('',*,*,#199,.F.);
#153=ORIENTED_EDGE('',*,*,#198,.T.);
#154=ORIENTED_EDGE('',*,*,#217,.T.);
#155=ORIENTED_EDGE('',*,*,#166,.F.);
#156=ORIENTED_EDGE('',*,*,#175,.F.);
#157=ORIENTED_EDGE('',*,*,#195,.T.);
#158=ORIENTED_EDGE('',*,*,#191,.T.);
#159=ORIENTED_EDGE('',*,*,#208,.F.);
#160=ORIENTED_EDGE('',*,*,#184,.F.);
#161=ORIENTED_EDGE('',*,*,#180,.T.);
#162=ORIENTED_EDGE('',*,*,#215,.T.);
#163=ORIENTED_EDGE('',*,*,#189,.F.);
#164=ORIENTED_EDGE('',*,*,#194,.F.);
#165=EDGE_CURVE('',#231,#232,#277,.T.);
#166=EDGE_CURVE('',#232,#233,#278,.T.);
#167=EDGE_CURVE('',#233,#234,#279,.T.);
#168=EDGE_CURVE('',#235,#234,#280,.T.);
#169=EDGE_CURVE('',#236,#235,#281,.T.);
#170=EDGE_CURVE('',#237,#236,#282,.T.);
#171=EDGE_CURVE('',#238,#237,#283,.T.);
#172=EDGE_CURVE('',#231,#238,#284,.T.);
#173=EDGE_CURVE('',#239,#239,#19,.T.);
#174=EDGE_CURVE('',#240,#241,#285,.T.);
#175=EDGE_CURVE('',#241,#232,#286,.T.);
#176=EDGE_CURVE('',#242,#232,#287,.T.);
#177=EDGE_CURVE('',#243,#242,#288,.T.);
#178=EDGE_CURVE('',#243,#237,#289,.T.);
#179=EDGE_CURVE('',#240,#237,#290,.T.);
#180=EDGE_CURVE('',#244,#245,#291,.T.);
#181=EDGE_CURVE('',#246,#244,#292,.T.);
#182=EDGE_CURVE('',#247,#246,#293,.T.);
#183=EDGE_CURVE('',#247,#248,#294,.T.);
#184=EDGE_CURVE('',#248,#249,#295,.T.);
#185=EDGE_CURVE('',#249,#250,#296,.T.);
#186=EDGE_CURVE('',#250,#251,#297,.T.);
#187=EDGE_CURVE('',#245,#251,#298,.T.);
#188=EDGE_CURVE('',#252,#253,#299,.T.);
#189=EDGE_CURVE('',#253,#254,#300,.T.);
#190=EDGE_CURVE('',#255,#254,#301,.T.);
#191=EDGE_CURVE('',#252,#255,#302,.T.);
#192=EDGE_CURVE('',#256,#256,#20,.T.);
#193=EDGE_CURVE('',#257,#244,#303,.T.);
#194=EDGE_CURVE('',#244,#253,#304,.T.);
#195=EDGE_CURVE('',#248,#252,#305,.T.);
#196=EDGE_CURVE('',#258,#248,#306,.T.);
#197=EDGE_CURVE('',#258,#257,#307,.T.);
#198=EDGE_CURVE('',#241,#259,#308,.T.);
#199=EDGE_CURVE('',#240,#260,#309,.T.);
#200=EDGE_CURVE('',#260,#259,#310,.T.);
#201=EDGE_CURVE('',#260,#255,#311,.T.);
#202=EDGE_CURVE('',#259,#254,#312,.T.);
#203=EDGE_CURVE('',#261,#261,#21,.T.);
#204=EDGE_CURVE('',#262,#262,#22,.T.);
#205=EDGE_CURVE('',#263,#263,#23,.T.);
#206=EDGE_CURVE('',#264,#264,#24,.T.);
#207=EDGE_CURVE('',#265,#265,#25,.T.);
#208=EDGE_CURVE('',#249,#255,#313,.T.);
#209=EDGE_CURVE('',#260,#236,#314,.T.);
#210=EDGE_CURVE('',#235,#250,#315,.T.);
#211=EDGE_CURVE('',#266,#266,#26,.T.);
#212=EDGE_CURVE('',#267,#267,#27,.T.);
#213=EDGE_CURVE('',#268,#268,#28,.T.);
#214=EDGE_CURVE('',#269,#269,#29,.T.);
#215=EDGE_CURVE('',#245,#254,#316,.T.);
#216=EDGE_CURVE('',#234,#251,#317,.T.);
#217=EDGE_CURVE('',#259,#233,#318,.T.);
#218=EDGE_CURVE('',#270,#270,#30,.T.);
#219=EDGE_CURVE('',#271,#247,#319,.T.);
#220=EDGE_CURVE('',#271,#258,#320,.T.);
#221=EDGE_CURVE('',#272,#272,#31,.T.);
#222=EDGE_CURVE('',#273,#246,#321,.T.);
#223=EDGE_CURVE('',#271,#273,#322,.T.);
#224=EDGE_CURVE('',#273,#257,#323,.T.);
#225=EDGE_CURVE('',#274,#231,#324,.T.);
#226=EDGE_CURVE('',#274,#242,#325,.T.);
#227=EDGE_CURVE('',#275,#275,#32,.T.);
#228=EDGE_CURVE('',#276,#238,#326,.T.);
#229=EDGE_CURVE('',#274,#276,#327,.T.);
#230=EDGE_CURVE('',#276,#243,#328,.T.);
#231=VERTEX_POINT('',#731);
#232=VERTEX_POINT('',#732);
#233=VERTEX_POINT('',#734);
#234=VERTEX_POINT('',#736);
#235=VERTEX_POINT('',#738);
#236=VERTEX_POINT('',#740);
#237=VERTEX_POINT('',#742);
#238=VERTEX_POINT('',#744);
#239=VERTEX_POINT('',#748);
#240=VERTEX_POINT('',#750);
#241=VERTEX_POINT('',#751);
#242=VERTEX_POINT('',#754);
#243=VERTEX_POINT('',#756);
#244=VERTEX_POINT('',#761);
#245=VERTEX_POINT('',#762);
#246=VERTEX_POINT('',#764);
#247=VERTEX_POINT('',#766);
#248=VERTEX_POINT('',#768);
#249=VERTEX_POINT('',#770);
#250=VERTEX_POINT('',#772);
#251=VERTEX_POINT('',#774);
#252=VERTEX_POINT('',#778);
#253=VERTEX_POINT('',#779);
#254=VERTEX_POINT('',#781);
#255=VERTEX_POINT('',#783);
#256=VERTEX_POINT('',#787);
#257=VERTEX_POINT('',#789);
#258=VERTEX_POINT('',#793);
#259=VERTEX_POINT('',#797);
#260=VERTEX_POINT('',#799);
#261=VERTEX_POINT('',#805);
#262=VERTEX_POINT('',#807);
#263=VERTEX_POINT('',#809);
#264=VERTEX_POINT('',#811);
#265=VERTEX_POINT('',#813);
#266=VERTEX_POINT('',#820);
#267=VERTEX_POINT('',#823);
#268=VERTEX_POINT('',#826);
#269=VERTEX_POINT('',#829);
#270=VERTEX_POINT('',#836);
#271=VERTEX_POINT('',#840);
#272=VERTEX_POINT('',#844);
#273=VERTEX_POINT('',#846);
#274=VERTEX_POINT('',#853);
#275=VERTEX_POINT('',#857);
#276=VERTEX_POINT('',#859);
#277=LINE('',#730,#329);
#278=LINE('',#733,#330);
#279=LINE('',#735,#331);
#280=LINE('',#737,#332);
#281=LINE('',#739,#333);
#282=LINE('',#741,#334);
#283=LINE('',#743,#335);
#284=LINE('',#745,#336);
#285=LINE('',#749,#337);
#286=LINE('',#752,#338);
#287=LINE('',#753,#339);
#288=LINE('',#755,#340);
#289=LINE('',#757,#341);
#290=LINE('',#758,#342);
#291=LINE('',#760,#343);
#292=LINE('',#763,#344);
#293=LINE('',#765,#345);
#294=LINE('',#767,#346);
#295=LINE('',#769,#347);
#296=LINE('',#771,#348);
#297=LINE('',#773,#349);
#298=LINE('',#775,#350);
#299=LINE('',#777,#351);
#300=LINE('',#780,#352);
#301=LINE('',#782,#353);
#302=LINE('',#784,#354);
#303=LINE('',#788,#355);
#304=LINE('',#790,#356);
#305=LINE('',#791,#357);
#306=LINE('',#792,#358);
#307=LINE('',#794,#359);
#308=LINE('',#796,#360);
#309=LINE('',#798,#361);
#310=LINE('',#800,#362);
#311=LINE('',#802,#363);
#312=LINE('',#803,#364);
#313=LINE('',#815,#365);
#314=LINE('',#816,#366);
#315=LINE('',#817,#367);
#316=LINE('',#831,#368);
#317=LINE('',#832,#369);
#318=LINE('',#833,#370);
#319=LINE('',#839,#371);
#320=LINE('',#841,#372);
#321=LINE('',#845,#373);
#322=LINE('',#847,#374);
#323=LINE('',#849,#375);
#324=LINE('',#852,#376);
#325=LINE('',#854,#377);
#326=LINE('',#858,#378);
#327=LINE('',#860,#379);
#328=LINE('',#862,#380);
#329=VECTOR('',#592,1.);
#330=VECTOR('',#593,1.);
#331=VECTOR('',#594,1.);
#332=VECTOR('',#595,1.);
#333=VECTOR('',#596,1.);
#334=VECTOR('',#597,1.);
#335=VECTOR('',#598,1.);
#336=VECTOR('',#599,1.);
#337=VECTOR('',#604,1.);
#338=VECTOR('',#605,1.);
#339=VECTOR('',#606,1.);
#340=VECTOR('',#607,1.);
#341=VECTOR('',#608,1.);
#342=VECTOR('',#609,1.);
#343=VECTOR('',#612,1.);
#344=VECTOR('',#613,1.);
#345=VECTOR('',#614,1.);
#346=VECTOR('',#615,1.);
#347=VECTOR('',#616,1.);
#348=VECTOR('',#617,1.);
#349=VECTOR('',#618,1.);
#350=VECTOR('',#619,1.);
#351=VECTOR('',#622,1.);
#352=VECTOR('',#623,1.);
#353=VECTOR('',#624,1.);
#354=VECTOR('',#625,1.);
#355=VECTOR('',#630,1.);
#356=VECTOR('',#631,1.);
#357=VECTOR('',#632,1.);
#358=VECTOR('',#633,1.);
#359=VECTOR('',#634,1.);
#360=VECTOR('',#637,1.);
#361=VECTOR('',#638,1.);
#362=VECTOR('',#639,1.);
#363=VECTOR('',#642,1.);
#364=VECTOR('',#643,1.);
#365=VECTOR('',#656,1.);
#366=VECTOR('',#657,1.);
#367=VECTOR('',#658,1.);
#368=VECTOR('',#677,1.);
#369=VECTOR('',#678,1.);
#370=VECTOR('',#679,1.);
#371=VECTOR('',#688,1.);
#372=VECTOR('',#689,1.);
#373=VECTOR('',#694,1.);
#374=VECTOR('',#695,1.);
#375=VECTOR('',#698,1.);
#376=VECTOR('',#703,1.);
#377=VECTOR('',#704,1.);
#378=VECTOR('',#709,1.);
#379=VECTOR('',#710,1.);
#380=VECTOR('',#713,1.);
#381=EDGE_LOOP('',(#33,#34,#35,#36,#37,#38,#39,#40));
#382=EDGE_LOOP('',(#41));
#383=EDGE_LOOP('',(#42,#43,#44,#45,#46,#47));
#384=EDGE_LOOP('',(#48,#49,#50,#51,#52,#53,#54,#55));
#385=EDGE_LOOP('',(#56,#57,#58,#59));
#386=EDGE_LOOP('',(#60));
#387=EDGE_LOOP('',(#61,#62,#63,#64,#65,#66));
#388=EDGE_LOOP('',(#67,#68,#69,#70));
#389=EDGE_LOOP('',(#71,#72,#73,#74));
#390=EDGE_LOOP('',(#75));
#391=EDGE_LOOP('',(#76));
#392=EDGE_LOOP('',(#77));
#393=EDGE_LOOP('',(#78));
#394=EDGE_LOOP('',(#79));
#395=EDGE_LOOP('',(#80,#81,#82,#83,#84,#85));
#396=EDGE_LOOP('',(#86));
#397=EDGE_LOOP('',(#87));
#398=EDGE_LOOP('',(#88));
#399=EDGE_LOOP('',(#89));
#400=EDGE_LOOP('',(#90));
#401=EDGE_LOOP('',(#91));
#402=EDGE_LOOP('',(#92));
#403=EDGE_LOOP('',(#93));
#404=EDGE_LOOP('',(#94,#95,#96,#97,#98,#99));
#405=EDGE_LOOP('',(#100));
#406=EDGE_LOOP('',(#101));
#407=EDGE_LOOP('',(#102,#103,#104,#105));
#408=EDGE_LOOP('',(#106));
#409=EDGE_LOOP('',(#107));
#410=EDGE_LOOP('',(#108));
#411=EDGE_LOOP('',(#109));
#412=EDGE_LOOP('',(#110));
#413=EDGE_LOOP('',(#111,#112,#113,#114));
#414=EDGE_LOOP('',(#115));
#415=EDGE_LOOP('',(#116,#117,#118,#119));
#416=EDGE_LOOP('',(#120,#121,#122,#123));
#417=EDGE_LOOP('',(#124,#125,#126,#127));
#418=EDGE_LOOP('',(#128,#129,#130,#131));
#419=EDGE_LOOP('',(#132));
#420=EDGE_LOOP('',(#133,#134,#135,#136));
#421=EDGE_LOOP('',(#137,#138,#139,#140));
#422=EDGE_LOOP('',(#141,#142,#143,#144));
#423=EDGE_LOOP('',(#145));
#424=EDGE_LOOP('',(#146));
#425=EDGE_LOOP('',(#147));
#426=EDGE_LOOP('',(#148));
#427=EDGE_LOOP('',(#149,#150,#151,#152));
#428=EDGE_LOOP('',(#153,#154,#155,#156));
#429=EDGE_LOOP('',(#157,#158,#159,#160));
#430=EDGE_LOOP('',(#161,#162,#163,#164));
#431=FACE_BOUND('',#381,.T.);
#432=FACE_BOUND('',#382,.T.);
#433=FACE_BOUND('',#383,.T.);
#434=FACE_BOUND('',#384,.T.);
#435=FACE_BOUND('',#385,.T.);
#436=FACE_BOUND('',#386,.T.);
#437=FACE_BOUND('',#387,.T.);
#438=FACE_BOUND('',#388,.T.);
#439=FACE_BOUND('',#389,.T.);
#440=FACE_BOUND('',#390,.T.);
#441=FACE_BOUND('',#391,.T.);
#442=FACE_BOUND('',#392,.T.);
#443=FACE_BOUND('',#393,.T.);
#444=FACE_BOUND('',#394,.T.);
#445=FACE_BOUND('',#395,.T.);
#446=FACE_BOUND('',#396,.T.);
#447=FACE_BOUND('',#397,.T.);
#448=FACE_BOUND('',#398,.T.);
#449=FACE_BOUND('',#399,.T.);
#450=FACE_BOUND('',#400,.T.);
#451=FACE_BOUND('',#401,.T.);
#452=FACE_BOUND('',#402,.T.);
#453=FACE_BOUND('',#403,.T.);
#454=FACE_BOUND('',#404,.T.);
#455=FACE_BOUND('',#405,.T.);
#456=FACE_BOUND('',#406,.T.);
#457=FACE_BOUND('',#407,.T.);
#458=FACE_BOUND('',#408,.T.);
#459=FACE_BOUND('',#409,.T.);
#460=FACE_BOUND('',#410,.T.);
#461=FACE_BOUND('',#411,.T.);
#462=FACE_BOUND('',#412,.T.);
#463=FACE_BOUND('',#413,.T.);
#464=FACE_BOUND('',#414,.T.);
#465=FACE_BOUND('',#415,.T.);
#466=FACE_BOUND('',#416,.T.);
#467=FACE_BOUND('',#417,.T.);
#468=FACE_BOUND('',#418,.T.);
#469=FACE_BOUND('',#419,.T.);
#470=FACE_BOUND('',#420,.T.);
#471=FACE_BOUND('',#421,.T.);
#472=FACE_BOUND('',#422,.T.);
#473=FACE_BOUND('',#423,.T.);
#474=FACE_BOUND('',#424,.T.);
#475=FACE_BOUND('',#425,.T.);
#476=FACE_BOUND('',#426,.T.);
#477=FACE_BOUND('',#427,.T.);
#478=FACE_BOUND('',#428,.T.);
#479=FACE_BOUND('',#429,.T.);
#480=FACE_BOUND('',#430,.T.);
#481=PLANE('',#545);
#482=PLANE('',#546);
#483=PLANE('',#548);
#484=PLANE('',#549);
#485=PLANE('',#550);
#486=PLANE('',#552);
#487=PLANE('',#553);
#488=PLANE('',#559);
#489=PLANE('',#568);
#490=PLANE('',#571);
#491=PLANE('',#572);
#492=PLANE('',#573);
#493=PLANE('',#575);
#494=PLANE('',#576);
#495=PLANE('',#577);
#496=PLANE('',#578);
#497=PLANE('',#580);
#498=PLANE('',#581);
#499=PLANE('',#584);
#500=PLANE('',#585);
#501=PLANE('',#586);
#502=PLANE('',#587);
#503=ADVANCED_FACE('',(#431),#481,.T.);
#504=ADVANCED_FACE('',(#432,#433),#482,.T.);
#505=ADVANCED_FACE('',(#434),#483,.F.);
#506=ADVANCED_FACE('',(#435),#484,.T.);
#507=ADVANCED_FACE('',(#436,#437),#485,.T.);
#508=ADVANCED_FACE('',(#438),#486,.F.);
#509=ADVANCED_FACE('',(#439,#440,#441,#442,#443,#444),#487,.T.);
#510=ADVANCED_FACE('',(#445),#488,.F.);
#511=ADVANCED_FACE('',(#446,#447),#12,.F.);
#512=ADVANCED_FACE('',(#448,#449),#13,.F.);
#513=ADVANCED_FACE('',(#450,#451),#14,.F.);
#514=ADVANCED_FACE('',(#452,#453),#15,.F.);
#515=ADVANCED_FACE('',(#454),#489,.T.);
#516=ADVANCED_FACE('',(#455,#456),#16,.F.);
#517=ADVANCED_FACE('',(#457,#458,#459,#460,#461,#462),#490,.F.);
#518=ADVANCED_FACE('',(#463),#491,.T.);
#519=ADVANCED_FACE('',(#464,#465),#492,.F.);
#520=ADVANCED_FACE('',(#466),#493,.F.);
#521=ADVANCED_FACE('',(#467),#494,.T.);
#522=ADVANCED_FACE('',(#468),#495,.T.);
#523=ADVANCED_FACE('',(#469,#470),#496,.F.);
#524=ADVANCED_FACE('',(#471),#497,.F.);
#525=ADVANCED_FACE('',(#472),#498,.T.);
#526=ADVANCED_FACE('',(#473,#474),#17,.F.);
#527=ADVANCED_FACE('',(#475,#476),#18,.F.);
#528=ADVANCED_FACE('',(#477),#499,.F.);
#529=ADVANCED_FACE('',(#478),#500,.T.);
#530=ADVANCED_FACE('',(#479),#501,.F.);
#531=ADVANCED_FACE('',(#480),#502,.T.);
#532=CLOSED_SHELL('',(#503,#504,#505,#506,#507,#508,#509,#510,#511,#512,
#513,#514,#515,#516,#517,#518,#519,#520,#521,#522,#523,#524,#525,#526,#527,
#528,#529,#530,#531));
#533=STYLED_ITEM('',(#534),#541);
#534=PRESENTATION_STYLE_ASSIGNMENT((#535));
#535=SURFACE_STYLE_USAGE(.BOTH.,#536);
#536=SURFACE_SIDE_STYLE('',(#537));
#537=SURFACE_STYLE_FILL_AREA(#538);
#538=FILL_AREA_STYLE('',(#539));
#539=FILL_AREA_STYLE_COLOUR('',#540);
#540=COLOUR_RGB('',0.43921568627451,0.474509803921569,0.501960784313726);
#541=MANIFOLD_SOLID_BREP('Part 1',#532);
#542=SHAPE_DEFINITION_REPRESENTATION(#876,#543);
#543=SHAPE_REPRESENTATION('Part 1',(#544),#871);
#544=AXIS2_PLACEMENT_3D('',#728,#588,#589);
#545=AXIS2_PLACEMENT_3D('',#729,#590,#591);
#546=AXIS2_PLACEMENT_3D('',#746,#600,#601);
#547=AXIS2_PLACEMENT_3D('',#747,#602,#603);
#548=AXIS2_PLACEMENT_3D('',#759,#610,#611);
#549=AXIS2_PLACEMENT_3D('',#776,#620,#621);
#550=AXIS2_PLACEMENT_3D('',#785,#626,#627);
#551=AXIS2_PLACEMENT_3D('',#786,#628,#629);
#552=AXIS2_PLACEMENT_3D('',#795,#635,#636);
#553=AXIS2_PLACEMENT_3D('',#801,#640,#641);
#554=AXIS2_PLACEMENT_3D('',#804,#644,#645);
#555=AXIS2_PLACEMENT_3D('',#806,#646,#647);
#556=AXIS2_PLACEMENT_3D('',#808,#648,#649);
#557=AXIS2_PLACEMENT_3D('',#810,#650,#651);
#558=AXIS2_PLACEMENT_3D('',#812,#652,#653);
#559=AXIS2_PLACEMENT_3D('',#814,#654,#655);
#560=AXIS2_PLACEMENT_3D('',#818,#659,#660);
#561=AXIS2_PLACEMENT_3D('',#819,#661,#662);
#562=AXIS2_PLACEMENT_3D('',#821,#663,#664);
#563=AXIS2_PLACEMENT_3D('',#822,#665,#666);
#564=AXIS2_PLACEMENT_3D('',#824,#667,#668);
#565=AXIS2_PLACEMENT_3D('',#825,#669,#670);
#566=AXIS2_PLACEMENT_3D('',#827,#671,#672);
#567=AXIS2_PLACEMENT_3D('',#828,#673,#674);
#568=AXIS2_PLACEMENT_3D('',#830,#675,#676);
#569=AXIS2_PLACEMENT_3D('',#834,#680,#681);
#570=AXIS2_PLACEMENT_3D('',#835,#682,#683);
#571=AXIS2_PLACEMENT_3D('',#837,#684,#685);
#572=AXIS2_PLACEMENT_3D('',#838,#686,#687);
#573=AXIS2_PLACEMENT_3D('',#842,#690,#691);
#574=AXIS2_PLACEMENT_3D('',#843,#692,#693);
#575=AXIS2_PLACEMENT_3D('',#848,#696,#697);
#576=AXIS2_PLACEMENT_3D('',#850,#699,#700);
#577=AXIS2_PLACEMENT_3D('',#851,#701,#702);
#578=AXIS2_PLACEMENT_3D('',#855,#705,#706);
#579=AXIS2_PLACEMENT_3D('',#856,#707,#708);
#580=AXIS2_PLACEMENT_3D('',#861,#711,#712);
#581=AXIS2_PLACEMENT_3D('',#863,#714,#715);
#582=AXIS2_PLACEMENT_3D('',#864,#716,#717);
#583=AXIS2_PLACEMENT_3D('',#865,#718,#719);
#584=AXIS2_PLACEMENT_3D('',#866,#720,#721);
#585=AXIS2_PLACEMENT_3D('',#867,#722,#723);
#586=AXIS2_PLACEMENT_3D('',#868,#724,#725);
#587=AXIS2_PLACEMENT_3D('',#869,#726,#727);
#588=DIRECTION('',(0.,0.,1.));
#589=DIRECTION('',(1.,0.,0.));
#590=DIRECTION('',(1.,1.65211759616839E-16,0.));
#591=DIRECTION('',(-1.65211759616839E-16,1.,0.));
#592=DIRECTION('',(0.,0.,1.));
#593=DIRECTION('',(6.13581071457494E-17,-0.371390676354104,-0.928476690885259));
#594=DIRECTION('',(0.,0.,-1.));
#595=DIRECTION('',(1.65211759616839E-16,-1.,0.));
#596=DIRECTION('',(0.,0.,-1.));
#597=DIRECTION('',(-6.13581071457494E-17,0.371390676354103,-0.928476690885259));
#598=DIRECTION('',(0.,0.,1.));
#599=DIRECTION('',(-1.65211759616839E-16,1.,0.));
#600=DIRECTION('',(0.,0.,1.));
#601=DIRECTION('',(1.,0.,0.));
#602=DIRECTION('',(0.,0.,1.));
#603=DIRECTION('',(1.,0.,0.));
#604=DIRECTION('',(3.30423519233678E-16,-1.,0.));
#605=DIRECTION('',(1.,1.65211759616839E-16,0.));
#606=DIRECTION('',(-1.,-1.65211759616839E-16,0.));
#607=DIRECTION('',(1.65211759616839E-16,-1.,0.));
#608=DIRECTION('',(-1.,-1.65211759616839E-16,0.));
#609=DIRECTION('',(1.,1.65211759616839E-16,0.));
#610=DIRECTION('',(1.,1.65211759616839E-16,0.));
#611=DIRECTION('',(-1.65211759616839E-16,1.,0.));
#612=DIRECTION('',(6.13581071457494E-17,-0.371390676354104,-0.928476690885259));
#613=DIRECTION('',(0.,0.,1.));
#614=DIRECTION('',(1.65211759616839E-16,-1.,0.));
#615=DIRECTION('',(0.,0.,1.));
#616=DIRECTION('',(-6.13581071457493E-17,0.371390676354103,-0.928476690885259));
#617=DIRECTION('',(0.,0.,-1.));
#618=DIRECTION('',(1.65211759616839E-16,-1.,0.));
#619=DIRECTION('',(0.,0.,-1.));
#620=DIRECTION('',(1.,0.,0.));
#621=DIRECTION('',(0.,0.,-1.));
#622=DIRECTION('',(0.,-1.,0.));
#623=DIRECTION('',(0.,-0.371390676354104,-0.928476690885259));
#624=DIRECTION('',(0.,-1.,0.));
#625=DIRECTION('',(0.,0.371390676354103,-0.928476690885259));
#626=DIRECTION('',(0.,0.,1.));
#627=DIRECTION('',(1.,0.,0.));
#628=DIRECTION('',(0.,0.,1.));
#629=DIRECTION('',(1.,0.,0.));
#630=DIRECTION('',(1.,1.65211759616839E-16,0.));
#631=DIRECTION('',(1.,1.65211759616839E-16,0.));
#632=DIRECTION('',(1.,1.65211759616839E-16,0.));
#633=DIRECTION('',(1.,1.65211759616839E-16,0.));
#634=DIRECTION('',(1.65211759616839E-16,-1.,0.));
#635=DIRECTION('',(1.,3.30423519233678E-16,0.));
#636=DIRECTION('',(-3.30423519233678E-16,1.,0.));
#637=DIRECTION('',(1.22716214291499E-16,-0.371390676354104,-0.928476690885259));
#638=DIRECTION('',(-1.22716214291499E-16,0.371390676354103,-0.928476690885259));
#639=DIRECTION('',(3.30423519233678E-16,-1.,0.));
#640=DIRECTION('',(0.,0.,1.));
#641=DIRECTION('',(1.,0.,0.));
#642=DIRECTION('',(-1.,0.,0.));
#643=DIRECTION('',(-1.,0.,0.));
#644=DIRECTION('',(0.,0.,-1.));
#645=DIRECTION('',(1.,0.,0.));
#646=DIRECTION('',(0.,0.,1.));
#647=DIRECTION('',(1.,0.,0.));
#648=DIRECTION('',(0.,0.,1.));
#649=DIRECTION('',(1.,0.,0.));
#650=DIRECTION('',(0.,0.,1.));
#651=DIRECTION('',(1.,0.,0.));
#652=DIRECTION('',(0.,0.,-1.));
#653=DIRECTION('',(1.,0.,0.));
#654=DIRECTION('',(0.,-1.,0.));
#655=DIRECTION('',(0.,0.,-1.));
#656=DIRECTION('',(1.,1.65211759616839E-16,0.));
#657=DIRECTION('',(1.,1.65211759616839E-16,0.));
#658=DIRECTION('',(-1.,0.,0.));
#659=DIRECTION('',(0.,0.,-1.));
#660=DIRECTION('',(-1.,0.,0.));
#661=DIRECTION('',(0.,0.,1.));
#662=DIRECTION('',(1.,0.,0.));
#663=DIRECTION('',(0.,0.,-1.));
#664=DIRECTION('',(-1.,0.,0.));
#665=DIRECTION('',(0.,0.,1.));
#666=DIRECTION('',(1.,0.,0.));
#667=DIRECTION('',(0.,0.,-1.));
#668=DIRECTION('',(-1.,0.,0.));
#669=DIRECTION('',(0.,0.,1.));
#670=DIRECTION('',(1.,0.,0.));
#671=DIRECTION('',(0.,0.,-1.));
#672=DIRECTION('',(-1.,0.,0.));
#673=DIRECTION('',(0.,0.,-1.));
#674=DIRECTION('',(1.,0.,0.));
#675=DIRECTION('',(0.,-1.,0.));
#676=DIRECTION('',(0.,0.,-1.));
#677=DIRECTION('',(1.,1.65211759616839E-16,0.));
#678=DIRECTION('',(-1.,0.,0.));
#679=DIRECTION('',(1.,1.65211759616839E-16,0.));
#680=DIRECTION('',(0.,0.,-1.));
#681=DIRECTION('',(-1.,0.,0.));
#682=DIRECTION('',(0.,0.,-1.));
#683=DIRECTION('',(1.,0.,0.));
#684=DIRECTION('',(0.,0.,1.));
#685=DIRECTION('',(1.,0.,0.));
#686=DIRECTION('',(-1.65211759616839E-16,1.,0.));
#687=DIRECTION('',(-1.,-1.65211759616839E-16,0.));
#688=DIRECTION('',(1.,1.65211759616839E-16,0.));
#689=DIRECTION('',(0.,0.,1.));
#690=DIRECTION('',(0.,0.,1.));
#691=DIRECTION('',(1.,0.,0.));
#692=DIRECTION('',(0.,0.,1.));
#693=DIRECTION('',(1.,0.,0.));
#694=DIRECTION('',(1.,1.65211759616839E-16,0.));
#695=DIRECTION('',(1.65211759616839E-16,-1.,0.));
#696=DIRECTION('',(-1.65211759616839E-16,1.,0.));
#697=DIRECTION('',(-1.,-1.65211759616839E-16,0.));
#698=DIRECTION('',(0.,0.,1.));
#699=DIRECTION('',(-1.,-1.65211759616839E-16,0.));
#700=DIRECTION('',(1.65211759616839E-16,-1.,0.));
#701=DIRECTION('',(1.65211759616839E-16,-1.,0.));
#702=DIRECTION('',(1.,1.65211759616839E-16,0.));
#703=DIRECTION('',(-1.,-1.65211759616839E-16,0.));
#704=DIRECTION('',(0.,0.,1.));
#705=DIRECTION('',(0.,0.,1.));
#706=DIRECTION('',(1.,0.,0.));
#707=DIRECTION('',(0.,0.,1.));
#708=DIRECTION('',(1.,0.,0.));
#709=DIRECTION('',(-1.,-1.65211759616839E-16,0.));
#710=DIRECTION('',(-1.65211759616839E-16,1.,0.));
#711=DIRECTION('',(1.65211759616839E-16,-1.,0.));
#712=DIRECTION('',(1.,1.65211759616839E-16,0.));
#713=DIRECTION('',(0.,0.,1.));
#714=DIRECTION('',(1.,1.65211759616839E-16,0.));
#715=DIRECTION('',(-1.65211759616839E-16,1.,0.));
#716=DIRECTION('',(0.,0.,1.));
#717=DIRECTION('',(1.,0.,0.));
#718=DIRECTION('',(0.,0.,1.));
#719=DIRECTION('',(1.,0.,0.));
#720=DIRECTION('',(1.53395267864373E-16,-0.928476690885259,-0.371390676354103));
#721=DIRECTION('',(0.,0.371390676354103,-0.928476690885259));
#722=DIRECTION('',(1.53395267864373E-16,-0.928476690885259,0.371390676354104));
#723=DIRECTION('',(0.,-0.371390676354104,-0.928476690885259));
#724=DIRECTION('',(1.53395267864373E-16,-0.928476690885259,-0.371390676354103));
#725=DIRECTION('',(0.,0.371390676354103,-0.928476690885259));
#726=DIRECTION('',(1.53395267864373E-16,-0.928476690885259,0.371390676354104));
#727=DIRECTION('',(0.,-0.371390676354104,-0.928476690885259));
#728=CARTESIAN_POINT('',(0.,0.,0.));
#729=CARTESIAN_POINT('',(0.0225,0.,0.002));
#730=CARTESIAN_POINT('',(0.0225,-0.005,0.041));
#731=CARTESIAN_POINT('',(0.0225,-0.005,0.04));
#732=CARTESIAN_POINT('',(0.0225,-0.005,0.042));
#733=CARTESIAN_POINT('',(0.0225,-0.013,0.022));
#734=CARTESIAN_POINT('',(0.0225,-0.021,0.00199999999999997));
#735=CARTESIAN_POINT('',(0.0225,-0.021,0.002));
#736=CARTESIAN_POINT('',(0.0225,-0.021,0.));
#737=CARTESIAN_POINT('',(0.0225,0.,0.));
#738=CARTESIAN_POINT('',(0.0225,0.021,0.));
#739=CARTESIAN_POINT('',(0.0225,0.021,0.002));
#740=CARTESIAN_POINT('',(0.0225,0.021,0.00199999999999997));
#741=CARTESIAN_POINT('',(0.0225,0.013,0.022));
#742=CARTESIAN_POINT('',(0.0225,0.005,0.042));
#743=CARTESIAN_POINT('',(0.0225,0.005,0.041));
#744=CARTESIAN_POINT('',(0.0225,0.005,0.04));
#745=CARTESIAN_POINT('',(0.0225,-1.7347234759768E-18,0.04));
#746=CARTESIAN_POINT('',(-0.0015,3.46944695195361E-18,0.042));
#747=CARTESIAN_POINT('',(0.0275,1.53080849893419E-19,0.042));
#748=CARTESIAN_POINT('',(0.03,1.53080849893419E-19,0.042));
#749=CARTESIAN_POINT('',(0.0195,-3.46944695195361E-18,0.042));
#750=CARTESIAN_POINT('',(0.0195,0.005,0.042));
#751=CARTESIAN_POINT('',(0.0195,-0.005,0.042));
#752=CARTESIAN_POINT('',(-0.0775,-0.005,0.042));
#753=CARTESIAN_POINT('',(0.0325,-0.005,0.042));
#754=CARTESIAN_POINT('',(0.0325,-0.005,0.042));
#755=CARTESIAN_POINT('',(0.0325,1.65211759616839E-18,0.042));
#756=CARTESIAN_POINT('',(0.0325,0.005,0.042));
#757=CARTESIAN_POINT('',(0.0325,0.005,0.042));
#758=CARTESIAN_POINT('',(-0.0775,0.005,0.042));
#759=CARTESIAN_POINT('',(-0.0255,0.,0.002));
#760=CARTESIAN_POINT('',(-0.0255,-0.0181034482758621,0.00924137931034484));
#761=CARTESIAN_POINT('',(-0.0255,-0.005,0.042));
#762=CARTESIAN_POINT('',(-0.0255,-0.021,0.00199999999999997));
#763=CARTESIAN_POINT('',(-0.0255,-0.005,0.041));
#764=CARTESIAN_POINT('',(-0.0255,-0.005,0.04));
#765=CARTESIAN_POINT('',(-0.0255,9.54097911787244E-18,0.04));
#766=CARTESIAN_POINT('',(-0.0255,0.005,0.04));
#767=CARTESIAN_POINT('',(-0.0255,0.005,0.041));
#768=CARTESIAN_POINT('',(-0.0255,0.005,0.042));
#769=CARTESIAN_POINT('',(-0.0255,0.018103448275862,0.00924137931034482));
#770=CARTESIAN_POINT('',(-0.0255,0.021,0.00199999999999997));
#771=CARTESIAN_POINT('',(-0.0255,0.021,0.002));
#772=CARTESIAN_POINT('',(-0.0255,0.021,0.));
#773=CARTESIAN_POINT('',(-0.0255,0.,0.));
#774=CARTESIAN_POINT('',(-0.0255,-0.021,0.));
#775=CARTESIAN_POINT('',(-0.0255,-0.021,0.002));
#776=CARTESIAN_POINT('',(-0.0225,3.46944695195361E-18,0.042));
#777=CARTESIAN_POINT('',(-0.0225,3.46944695195361E-18,0.042));
#778=CARTESIAN_POINT('',(-0.0225,0.005,0.042));
#779=CARTESIAN_POINT('',(-0.0225,-0.005,0.042));
#780=CARTESIAN_POINT('',(-0.0225,-0.00431034482758621,0.0437241379310345));
#781=CARTESIAN_POINT('',(-0.0225,-0.021,0.002));
#782=CARTESIAN_POINT('',(-0.0225,3.46944695195361E-18,0.002));
#783=CARTESIAN_POINT('',(-0.0225,0.021,0.00199999999999997));
#784=CARTESIAN_POINT('',(-0.0225,0.00431034482758619,0.0437241379310345));
#785=CARTESIAN_POINT('',(-0.0015,3.46944695195361E-18,0.042));
#786=CARTESIAN_POINT('',(-0.0305,1.53080849893419E-19,0.042));
#787=CARTESIAN_POINT('',(-0.028,1.53080849893419E-19,0.042));
#788=CARTESIAN_POINT('',(-0.0355,-0.005,0.042));
#789=CARTESIAN_POINT('',(-0.0355,-0.005,0.042));
#790=CARTESIAN_POINT('',(-0.0775,-0.005,0.042));
#791=CARTESIAN_POINT('',(-0.0775,0.005,0.042));
#792=CARTESIAN_POINT('',(-0.0355,0.005,0.042));
#793=CARTESIAN_POINT('',(-0.0355,0.005,0.042));
#794=CARTESIAN_POINT('',(-0.0355,-1.65211759616838E-18,0.042));
#795=CARTESIAN_POINT('',(0.0195,-3.46944695195361E-18,0.042));
#796=CARTESIAN_POINT('',(0.0195,-0.00431034482758621,0.0437241379310345));
#797=CARTESIAN_POINT('',(0.0195,-0.021,0.00199999999999997));
#798=CARTESIAN_POINT('',(0.0195,0.0043103448275862,0.0437241379310345));
#799=CARTESIAN_POINT('',(0.0195,0.021,0.002));
#800=CARTESIAN_POINT('',(0.0195,-3.46944695195361E-18,0.002));
#801=CARTESIAN_POINT('',(-0.0015,0.,0.002));
#802=CARTESIAN_POINT('',(0.021,0.021,0.002));
#803=CARTESIAN_POINT('',(0.021,-0.021,0.002));
#804=CARTESIAN_POINT('',(0.014,0.0155,0.002));
#805=CARTESIAN_POINT('',(0.0155,0.0155,0.002));
#806=CARTESIAN_POINT('',(-0.0015,0.,0.002));
#807=CARTESIAN_POINT('',(0.0095,0.,0.002));
#808=CARTESIAN_POINT('',(-0.017,0.0155,0.002));
#809=CARTESIAN_POINT('',(-0.0155,0.0155,0.002));
#810=CARTESIAN_POINT('',(0.014,-0.0155,0.002));
#811=CARTESIAN_POINT('',(0.0155,-0.0155,0.002));
#812=CARTESIAN_POINT('',(-0.017,-0.0155,0.002));
#813=CARTESIAN_POINT('',(-0.0155,-0.0155,0.002));
#814=CARTESIAN_POINT('',(0.021,0.021,0.002));
#815=CARTESIAN_POINT('',(-0.0775,0.021,0.00199999999999997));
#816=CARTESIAN_POINT('',(-0.0775,0.021,0.00199999999999997));
#817=CARTESIAN_POINT('',(0.021,0.021,0.));
#818=CARTESIAN_POINT('',(0.014,-0.0155,0.002));
#819=CARTESIAN_POINT('',(0.014,-0.0155,0.));
#820=CARTESIAN_POINT('',(0.0155,-0.0155,0.));
#821=CARTESIAN_POINT('',(-0.017,0.0155,0.002));
#822=CARTESIAN_POINT('',(-0.017,0.0155,0.));
#823=CARTESIAN_POINT('',(-0.0155,0.0155,0.));
#824=CARTESIAN_POINT('',(-0.0015,0.,0.002));
#825=CARTESIAN_POINT('',(-0.0015,0.,0.));
#826=CARTESIAN_POINT('',(0.0095,0.,0.));
#827=CARTESIAN_POINT('',(0.014,0.0155,0.002));
#828=CARTESIAN_POINT('',(0.014,0.0155,0.));
#829=CARTESIAN_POINT('',(0.0155,0.0155,0.));
#830=CARTESIAN_POINT('',(0.021,-0.021,0.002));
#831=CARTESIAN_POINT('',(-0.0775,-0.021,0.00199999999999997));
#832=CARTESIAN_POINT('',(0.021,-0.021,0.));
#833=CARTESIAN_POINT('',(-0.0775,-0.021,0.00199999999999997));
#834=CARTESIAN_POINT('',(-0.017,-0.0155,0.002));
#835=CARTESIAN_POINT('',(-0.017,-0.0155,0.));
#836=CARTESIAN_POINT('',(-0.0155,-0.0155,0.));
#837=CARTESIAN_POINT('',(-0.0015,0.,0.));
#838=CARTESIAN_POINT('',(-0.0355,0.005,0.041));
#839=CARTESIAN_POINT('',(-0.0355,0.005,0.04));
#840=CARTESIAN_POINT('',(-0.0355,0.005,0.04));
#841=CARTESIAN_POINT('',(-0.0355,0.005,0.041));
#842=CARTESIAN_POINT('',(-0.0355,7.88886152170405E-18,0.04));
#843=CARTESIAN_POINT('',(-0.0305,1.53080849893419E-19,0.04));
#844=CARTESIAN_POINT('',(-0.028,1.53080849893419E-19,0.04));
#845=CARTESIAN_POINT('',(-0.0355,-0.005,0.04));
#846=CARTESIAN_POINT('',(-0.0355,-0.005,0.04));
#847=CARTESIAN_POINT('',(-0.0355,7.88886152170405E-18,0.04));
#848=CARTESIAN_POINT('',(-0.0355,-0.005,0.041));
#849=CARTESIAN_POINT('',(-0.0355,-0.005,0.041));
#850=CARTESIAN_POINT('',(-0.0355,1.07387643750946E-18,0.021));
#851=CARTESIAN_POINT('',(0.0325,-0.005,0.041));
#852=CARTESIAN_POINT('',(0.0325,-0.005,0.04));
#853=CARTESIAN_POINT('',(0.0325,-0.005,0.04));
#854=CARTESIAN_POINT('',(0.0325,-0.005,0.041));
#855=CARTESIAN_POINT('',(0.0325,-8.26058798084191E-20,0.04));
#856=CARTESIAN_POINT('',(0.0275,1.53080849893419E-19,0.04));
#857=CARTESIAN_POINT('',(0.03,1.53080849893419E-19,0.04));
#858=CARTESIAN_POINT('',(0.0325,0.005,0.04));
#859=CARTESIAN_POINT('',(0.0325,0.005,0.04));
#860=CARTESIAN_POINT('',(0.0325,-8.26058798084191E-20,0.04));
#861=CARTESIAN_POINT('',(0.0325,0.005,0.041));
#862=CARTESIAN_POINT('',(0.0325,0.005,0.041));
#863=CARTESIAN_POINT('',(0.0325,-1.56951171635996E-18,0.021));
#864=CARTESIAN_POINT('',(0.0275,1.53080849893419E-19,0.0355));
#865=CARTESIAN_POINT('',(-0.0305,1.53080849893419E-19,0.0355));
#866=CARTESIAN_POINT('',(-0.0775,0.013,0.022));
#867=CARTESIAN_POINT('',(-0.0775,-0.013,0.022));
#868=CARTESIAN_POINT('',(-0.0775,0.013,0.022));
#869=CARTESIAN_POINT('',(-0.0775,-0.013,0.022));
#870=MECHANICAL_DESIGN_GEOMETRIC_PRESENTATION_REPRESENTATION('',(#533),
#871);
#871=(
GEOMETRIC_REPRESENTATION_CONTEXT(3)
GLOBAL_UNCERTAINTY_ASSIGNED_CONTEXT((#872))
GLOBAL_UNIT_ASSIGNED_CONTEXT((#875,#874,#873))
REPRESENTATION_CONTEXT('Part 1','TOP_LEVEL_ASSEMBLY_PART')
);
#872=UNCERTAINTY_MEASURE_WITH_UNIT(LENGTH_MEASURE(1.E-8),#875,
'DISTANCE_ACCURACY_VALUE','Maximum Tolerance applied to model');
#873=(
NAMED_UNIT(*)
SI_UNIT($,.STERADIAN.)
SOLID_ANGLE_UNIT()
);
#874=(
NAMED_UNIT(*)
PLANE_ANGLE_UNIT()
SI_UNIT($,.RADIAN.)
);
#875=(
LENGTH_UNIT()
NAMED_UNIT(*)
SI_UNIT($,.METRE.)
);
#876=PRODUCT_DEFINITION_SHAPE('','',#877);
#877=PRODUCT_DEFINITION('','',#879,#878);
#878=PRODUCT_DEFINITION_CONTEXT('',#885,'design');
#879=PRODUCT_DEFINITION_FORMATION_WITH_SPECIFIED_SOURCE('','',#881,
 .NOT_KNOWN.);
#880=PRODUCT_RELATED_PRODUCT_CATEGORY('','',(#881));
#881=PRODUCT('Part 1','Part 1','Part 1',(#883));
#882=PRODUCT_CATEGORY('','');
#883=PRODUCT_CONTEXT('',#885,'mechanical');
#884=APPLICATION_PROTOCOL_DEFINITION('international standard',
'ap242_managed_model_based_3d_engineering',2020,#885);
#885=APPLICATION_CONTEXT('managed model based 3d engineering');
ENDSEC;
END-ISO-10303-21;
