ISO-10303-21;
HEADER;
/* Generated by software containing ST-Developer
 * from STEP Tools, Inc. (www.steptools.com) 
 */
/* OPTION: using custom renumber hook */

FILE_DESCRIPTION(
/* description */ ('STEP AP242 Edition 2',
'CAx-IF Rec.Pracs.---Representation and Presentation of Product Manufa
cturing Information (PMI)---4.0---2014-10-13',
'CAx-IF Rec.Pracs.---3D Tessellated Geometry---0.4---2014-09-14','2;1',
'CAx-IF Rec.Pracs.---User Defined Attributes---1.5---2016-08-15'),
/* implementation_level */ '2;1');

FILE_NAME(
/* name */ 'Yaxis nema holder',
/* time_stamp */ '2026-06-27T06:46:03Z',
/* author */ (''),
/* organization */ (''),
/* preprocessor_version */ 'ST-DEVELOPER v20',
/* originating_system */ 'ONSHAPE BY PTC INC, 1.217',
/* authorisation */ '  ');

FILE_SCHEMA (('AP242_MANAGED_MODEL_BASED_3D_ENGINEERING_MIM_LF { 1 0 10303 442 3 1 4 }'));
ENDSEC;

DATA;
#10=SHAPE_REPRESENTATION_RELATIONSHIP('','',#649,#11);
#11=ADVANCED_BREP_SHAPE_REPRESENTATION('',(#647),#1065);
#12=CYLINDRICAL_SURFACE('',#653,0.006);
#13=CYLINDRICAL_SURFACE('',#672,0.0175);
#14=CYLINDRICAL_SURFACE('',#678,0.0015);
#15=CYLINDRICAL_SURFACE('',#681,0.0015);
#16=CYLINDRICAL_SURFACE('',#684,0.0015);
#17=CYLINDRICAL_SURFACE('',#688,0.0015);
#18=CYLINDRICAL_SURFACE('',#695,0.004);
#19=CYLINDRICAL_SURFACE('',#699,0.0015);
#20=CYLINDRICAL_SURFACE('',#701,0.011);
#21=CYLINDRICAL_SURFACE('',#703,0.0015);
#22=CYLINDRICAL_SURFACE('',#704,0.0015);
#23=CYLINDRICAL_SURFACE('',#705,0.0015);
#24=CIRCLE('',#652,0.006);
#25=CIRCLE('',#654,0.006);
#26=CIRCLE('',#655,0.006);
#27=CIRCLE('',#656,0.006);
#28=CIRCLE('',#659,0.0015);
#29=CIRCLE('',#660,0.0015);
#30=CIRCLE('',#661,0.0015);
#31=CIRCLE('',#662,0.0015);
#32=CIRCLE('',#663,0.011);
#33=CIRCLE('',#665,0.0015);
#34=CIRCLE('',#666,0.0015);
#35=CIRCLE('',#667,0.011);
#36=CIRCLE('',#668,0.0015);
#37=CIRCLE('',#669,0.0015);
#38=CIRCLE('',#673,0.0175);
#39=CIRCLE('',#674,0.0175);
#40=CIRCLE('',#679,0.0015);
#41=CIRCLE('',#680,0.0015);
#42=CIRCLE('',#682,0.0015);
#43=CIRCLE('',#683,0.0015);
#44=CIRCLE('',#685,0.0015);
#45=CIRCLE('',#686,0.0015);
#46=CIRCLE('',#689,0.0015);
#47=CIRCLE('',#690,0.0015);
#48=CIRCLE('',#694,0.004);
#49=CIRCLE('',#696,0.004);
#50=ORIENTED_EDGE('',*,*,#214,.F.);
#51=ORIENTED_EDGE('',*,*,#215,.T.);
#52=ORIENTED_EDGE('',*,*,#216,.T.);
#53=ORIENTED_EDGE('',*,*,#217,.T.);
#54=ORIENTED_EDGE('',*,*,#218,.F.);
#55=ORIENTED_EDGE('',*,*,#219,.F.);
#56=ORIENTED_EDGE('',*,*,#220,.T.);
#57=ORIENTED_EDGE('',*,*,#221,.T.);
#58=ORIENTED_EDGE('',*,*,#217,.F.);
#59=ORIENTED_EDGE('',*,*,#222,.F.);
#60=ORIENTED_EDGE('',*,*,#223,.T.);
#61=ORIENTED_EDGE('',*,*,#224,.T.);
#62=ORIENTED_EDGE('',*,*,#225,.T.);
#63=ORIENTED_EDGE('',*,*,#226,.T.);
#64=ORIENTED_EDGE('',*,*,#227,.T.);
#65=ORIENTED_EDGE('',*,*,#228,.T.);
#66=ORIENTED_EDGE('',*,*,#229,.F.);
#67=ORIENTED_EDGE('',*,*,#230,.T.);
#68=ORIENTED_EDGE('',*,*,#231,.T.);
#69=ORIENTED_EDGE('',*,*,#232,.F.);
#70=ORIENTED_EDGE('',*,*,#233,.F.);
#71=ORIENTED_EDGE('',*,*,#234,.T.);
#72=ORIENTED_EDGE('',*,*,#235,.F.);
#73=ORIENTED_EDGE('',*,*,#236,.T.);
#74=ORIENTED_EDGE('',*,*,#237,.T.);
#75=ORIENTED_EDGE('',*,*,#238,.T.);
#76=ORIENTED_EDGE('',*,*,#215,.F.);
#77=ORIENTED_EDGE('',*,*,#239,.F.);
#78=ORIENTED_EDGE('',*,*,#229,.T.);
#79=ORIENTED_EDGE('',*,*,#240,.F.);
#80=ORIENTED_EDGE('',*,*,#241,.T.);
#81=ORIENTED_EDGE('',*,*,#242,.T.);
#82=ORIENTED_EDGE('',*,*,#243,.F.);
#83=ORIENTED_EDGE('',*,*,#244,.T.);
#84=ORIENTED_EDGE('',*,*,#245,.T.);
#85=ORIENTED_EDGE('',*,*,#227,.F.);
#86=ORIENTED_EDGE('',*,*,#246,.T.);
#87=ORIENTED_EDGE('',*,*,#247,.T.);
#88=ORIENTED_EDGE('',*,*,#248,.F.);
#89=ORIENTED_EDGE('',*,*,#249,.F.);
#90=ORIENTED_EDGE('',*,*,#250,.F.);
#91=ORIENTED_EDGE('',*,*,#251,.F.);
#92=ORIENTED_EDGE('',*,*,#247,.F.);
#93=ORIENTED_EDGE('',*,*,#252,.T.);
#94=ORIENTED_EDGE('',*,*,#253,.T.);
#95=ORIENTED_EDGE('',*,*,#254,.F.);
#96=ORIENTED_EDGE('',*,*,#255,.F.);
#97=ORIENTED_EDGE('',*,*,#256,.F.);
#98=ORIENTED_EDGE('',*,*,#257,.T.);
#99=ORIENTED_EDGE('',*,*,#258,.T.);
#100=ORIENTED_EDGE('',*,*,#259,.T.);
#101=ORIENTED_EDGE('',*,*,#260,.F.);
#102=ORIENTED_EDGE('',*,*,#261,.F.);
#103=ORIENTED_EDGE('',*,*,#256,.T.);
#104=ORIENTED_EDGE('',*,*,#262,.T.);
#105=ORIENTED_EDGE('',*,*,#263,.F.);
#106=ORIENTED_EDGE('',*,*,#264,.F.);
#107=ORIENTED_EDGE('',*,*,#260,.T.);
#108=ORIENTED_EDGE('',*,*,#265,.F.);
#109=ORIENTED_EDGE('',*,*,#266,.T.);
#110=ORIENTED_EDGE('',*,*,#238,.F.);
#111=ORIENTED_EDGE('',*,*,#267,.T.);
#112=ORIENTED_EDGE('',*,*,#248,.T.);
#113=ORIENTED_EDGE('',*,*,#254,.T.);
#114=ORIENTED_EDGE('',*,*,#263,.T.);
#115=ORIENTED_EDGE('',*,*,#268,.T.);
#116=ORIENTED_EDGE('',*,*,#269,.F.);
#117=ORIENTED_EDGE('',*,*,#220,.F.);
#118=ORIENTED_EDGE('',*,*,#270,.F.);
#119=ORIENTED_EDGE('',*,*,#223,.F.);
#120=ORIENTED_EDGE('',*,*,#271,.T.);
#121=ORIENTED_EDGE('',*,*,#265,.T.);
#122=ORIENTED_EDGE('',*,*,#272,.F.);
#123=ORIENTED_EDGE('',*,*,#273,.F.);
#124=ORIENTED_EDGE('',*,*,#274,.T.);
#125=ORIENTED_EDGE('',*,*,#275,.F.);
#126=ORIENTED_EDGE('',*,*,#276,.T.);
#127=ORIENTED_EDGE('',*,*,#277,.F.);
#128=ORIENTED_EDGE('',*,*,#278,.T.);
#129=ORIENTED_EDGE('',*,*,#279,.F.);
#130=ORIENTED_EDGE('',*,*,#280,.F.);
#131=ORIENTED_EDGE('',*,*,#273,.T.);
#132=ORIENTED_EDGE('',*,*,#281,.F.);
#133=ORIENTED_EDGE('',*,*,#258,.F.);
#134=ORIENTED_EDGE('',*,*,#252,.F.);
#135=ORIENTED_EDGE('',*,*,#246,.F.);
#136=ORIENTED_EDGE('',*,*,#230,.F.);
#137=ORIENTED_EDGE('',*,*,#239,.T.);
#138=ORIENTED_EDGE('',*,*,#282,.T.);
#139=ORIENTED_EDGE('',*,*,#283,.F.);
#140=ORIENTED_EDGE('',*,*,#253,.F.);
#141=ORIENTED_EDGE('',*,*,#257,.F.);
#142=ORIENTED_EDGE('',*,*,#261,.T.);
#143=ORIENTED_EDGE('',*,*,#264,.T.);
#144=ORIENTED_EDGE('',*,*,#278,.F.);
#145=ORIENTED_EDGE('',*,*,#276,.F.);
#146=ORIENTED_EDGE('',*,*,#274,.F.);
#147=ORIENTED_EDGE('',*,*,#282,.F.);
#148=ORIENTED_EDGE('',*,*,#255,.T.);
#149=ORIENTED_EDGE('',*,*,#281,.T.);
#150=ORIENTED_EDGE('',*,*,#272,.T.);
#151=ORIENTED_EDGE('',*,*,#268,.F.);
#152=ORIENTED_EDGE('',*,*,#262,.F.);
#153=ORIENTED_EDGE('',*,*,#259,.F.);
#154=ORIENTED_EDGE('',*,*,#279,.T.);
#155=ORIENTED_EDGE('',*,*,#277,.T.);
#156=ORIENTED_EDGE('',*,*,#275,.T.);
#157=ORIENTED_EDGE('',*,*,#283,.T.);
#158=ORIENTED_EDGE('',*,*,#284,.F.);
#159=ORIENTED_EDGE('',*,*,#285,.F.);
#160=ORIENTED_EDGE('',*,*,#286,.F.);
#161=ORIENTED_EDGE('',*,*,#287,.T.);
#162=ORIENTED_EDGE('',*,*,#286,.T.);
#163=ORIENTED_EDGE('',*,*,#288,.T.);
#164=ORIENTED_EDGE('',*,*,#289,.F.);
#165=ORIENTED_EDGE('',*,*,#290,.F.);
#166=ORIENTED_EDGE('',*,*,#289,.T.);
#167=ORIENTED_EDGE('',*,*,#291,.T.);
#168=ORIENTED_EDGE('',*,*,#226,.F.);
#169=ORIENTED_EDGE('',*,*,#292,.F.);
#170=ORIENTED_EDGE('',*,*,#293,.F.);
#171=ORIENTED_EDGE('',*,*,#249,.T.);
#172=ORIENTED_EDGE('',*,*,#267,.F.);
#173=ORIENTED_EDGE('',*,*,#237,.F.);
#174=ORIENTED_EDGE('',*,*,#233,.T.);
#175=ORIENTED_EDGE('',*,*,#242,.F.);
#176=ORIENTED_EDGE('',*,*,#243,.T.);
#177=ORIENTED_EDGE('',*,*,#293,.T.);
#178=ORIENTED_EDGE('',*,*,#236,.F.);
#179=ORIENTED_EDGE('',*,*,#294,.F.);
#180=ORIENTED_EDGE('',*,*,#294,.T.);
#181=ORIENTED_EDGE('',*,*,#235,.T.);
#182=ORIENTED_EDGE('',*,*,#295,.F.);
#183=ORIENTED_EDGE('',*,*,#244,.F.);
#184=ORIENTED_EDGE('',*,*,#295,.T.);
#185=ORIENTED_EDGE('',*,*,#240,.T.);
#186=ORIENTED_EDGE('',*,*,#228,.F.);
#187=ORIENTED_EDGE('',*,*,#245,.F.);
#188=ORIENTED_EDGE('',*,*,#232,.T.);
#189=ORIENTED_EDGE('',*,*,#241,.F.);
#190=ORIENTED_EDGE('',*,*,#231,.F.);
#191=ORIENTED_EDGE('',*,*,#250,.T.);
#192=ORIENTED_EDGE('',*,*,#234,.F.);
#193=ORIENTED_EDGE('',*,*,#251,.T.);
#194=ORIENTED_EDGE('',*,*,#285,.T.);
#195=ORIENTED_EDGE('',*,*,#218,.T.);
#196=ORIENTED_EDGE('',*,*,#291,.F.);
#197=ORIENTED_EDGE('',*,*,#288,.F.);
#198=ORIENTED_EDGE('',*,*,#290,.T.);
#199=ORIENTED_EDGE('',*,*,#292,.T.);
#200=ORIENTED_EDGE('',*,*,#225,.F.);
#201=ORIENTED_EDGE('',*,*,#287,.F.);
#202=ORIENTED_EDGE('',*,*,#269,.T.);
#203=ORIENTED_EDGE('',*,*,#280,.T.);
#204=ORIENTED_EDGE('',*,*,#214,.T.);
#205=ORIENTED_EDGE('',*,*,#221,.F.);
#206=ORIENTED_EDGE('',*,*,#270,.T.);
#207=ORIENTED_EDGE('',*,*,#219,.T.);
#208=ORIENTED_EDGE('',*,*,#284,.T.);
#209=ORIENTED_EDGE('',*,*,#224,.F.);
#210=ORIENTED_EDGE('',*,*,#222,.T.);
#211=ORIENTED_EDGE('',*,*,#216,.F.);
#212=ORIENTED_EDGE('',*,*,#266,.F.);
#213=ORIENTED_EDGE('',*,*,#271,.F.);
#214=EDGE_CURVE('',#296,#297,#354,.T.);
#215=EDGE_CURVE('',#296,#298,#355,.T.);
#216=EDGE_CURVE('',#298,#299,#356,.T.);
#217=EDGE_CURVE('',#299,#297,#24,.T.);
#218=EDGE_CURVE('',#300,#301,#357,.F.);
#219=EDGE_CURVE('',#302,#300,#358,.T.);
#220=EDGE_CURVE('',#302,#303,#25,.F.);
#221=EDGE_CURVE('',#303,#297,#359,.T.);
#222=EDGE_CURVE('',#304,#299,#360,.T.);
#223=EDGE_CURVE('',#304,#305,#26,.F.);
#224=EDGE_CURVE('',#305,#306,#361,.T.);
#225=EDGE_CURVE('',#306,#307,#362,.F.);
#226=EDGE_CURVE('',#307,#301,#27,.T.);
#227=EDGE_CURVE('',#308,#309,#363,.T.);
#228=EDGE_CURVE('',#309,#310,#364,.T.);
#229=EDGE_CURVE('',#311,#310,#365,.T.);
#230=EDGE_CURVE('',#311,#308,#366,.T.);
#231=EDGE_CURVE('',#312,#312,#28,.T.);
#232=EDGE_CURVE('',#313,#313,#29,.T.);
#233=EDGE_CURVE('',#314,#314,#30,.T.);
#234=EDGE_CURVE('',#315,#315,#31,.T.);
#235=EDGE_CURVE('',#316,#317,#32,.T.);
#236=EDGE_CURVE('',#316,#318,#367,.T.);
#237=EDGE_CURVE('',#318,#319,#368,.T.);
#238=EDGE_CURVE('',#319,#298,#369,.T.);
#239=EDGE_CURVE('',#311,#296,#370,.T.);
#240=EDGE_CURVE('',#317,#310,#371,.T.);
#241=EDGE_CURVE('',#320,#320,#33,.T.);
#242=EDGE_CURVE('',#321,#321,#34,.T.);
#243=EDGE_CURVE('',#322,#323,#372,.T.);
#244=EDGE_CURVE('',#322,#324,#35,.T.);
#245=EDGE_CURVE('',#324,#309,#373,.T.);
#246=EDGE_CURVE('',#308,#325,#374,.T.);
#247=EDGE_CURVE('',#325,#326,#375,.T.);
#248=EDGE_CURVE('',#327,#326,#376,.T.);
#249=EDGE_CURVE('',#323,#327,#377,.T.);
#250=EDGE_CURVE('',#328,#328,#36,.F.);
#251=EDGE_CURVE('',#329,#329,#37,.F.);
#252=EDGE_CURVE('',#325,#330,#378,.T.);
#253=EDGE_CURVE('',#330,#331,#379,.T.);
#254=EDGE_CURVE('',#326,#331,#380,.T.);
#255=EDGE_CURVE('',#332,#333,#381,.T.);
#256=EDGE_CURVE('',#334,#332,#382,.T.);
#257=EDGE_CURVE('',#334,#330,#383,.T.);
#258=EDGE_CURVE('',#330,#333,#384,.T.);
#259=EDGE_CURVE('',#332,#335,#38,.T.);
#260=EDGE_CURVE('',#336,#335,#385,.T.);
#261=EDGE_CURVE('',#334,#336,#39,.T.);
#262=EDGE_CURVE('',#335,#337,#386,.T.);
#263=EDGE_CURVE('',#331,#337,#387,.T.);
#264=EDGE_CURVE('',#336,#331,#388,.T.);
#265=EDGE_CURVE('',#338,#339,#389,.T.);
#266=EDGE_CURVE('',#338,#298,#390,.T.);
#267=EDGE_CURVE('',#319,#327,#391,.T.);
#268=EDGE_CURVE('',#337,#339,#392,.T.);
#269=EDGE_CURVE('',#303,#340,#393,.T.);
#270=EDGE_CURVE('',#305,#302,#394,.T.);
#271=EDGE_CURVE('',#304,#338,#395,.T.);
#272=EDGE_CURVE('',#341,#339,#396,.T.);
#273=EDGE_CURVE('',#340,#341,#397,.T.);
#274=EDGE_CURVE('',#342,#342,#40,.T.);
#275=EDGE_CURVE('',#343,#343,#41,.T.);
#276=EDGE_CURVE('',#344,#344,#42,.T.);
#277=EDGE_CURVE('',#345,#345,#43,.T.);
#278=EDGE_CURVE('',#346,#346,#44,.T.);
#279=EDGE_CURVE('',#347,#347,#45,.T.);
#280=EDGE_CURVE('',#340,#296,#398,.T.);
#281=EDGE_CURVE('',#333,#341,#399,.T.);
#282=EDGE_CURVE('',#348,#348,#46,.T.);
#283=EDGE_CURVE('',#349,#349,#47,.T.);
#284=EDGE_CURVE('',#300,#306,#400,.T.);
#285=EDGE_CURVE('',#350,#300,#401,.T.);
#286=EDGE_CURVE('',#351,#350,#48,.T.);
#287=EDGE_CURVE('',#351,#306,#402,.T.);
#288=EDGE_CURVE('',#350,#352,#403,.F.);
#289=EDGE_CURVE('',#353,#352,#49,.T.);
#290=EDGE_CURVE('',#351,#353,#404,.F.);
#291=EDGE_CURVE('',#352,#301,#405,.T.);
#292=EDGE_CURVE('',#353,#307,#406,.T.);
#293=EDGE_CURVE('',#323,#318,#407,.T.);
#294=EDGE_CURVE('',#322,#316,#408,.T.);
#295=EDGE_CURVE('',#324,#317,#409,.T.);
#296=VERTEX_POINT('',#892);
#297=VERTEX_POINT('',#893);
#298=VERTEX_POINT('',#895);
#299=VERTEX_POINT('',#897);
#300=VERTEX_POINT('',#901);
#301=VERTEX_POINT('',#902);
#302=VERTEX_POINT('',#904);
#303=VERTEX_POINT('',#906);
#304=VERTEX_POINT('',#909);
#305=VERTEX_POINT('',#911);
#306=VERTEX_POINT('',#913);
#307=VERTEX_POINT('',#915);
#308=VERTEX_POINT('',#919);
#309=VERTEX_POINT('',#920);
#310=VERTEX_POINT('',#922);
#311=VERTEX_POINT('',#924);
#312=VERTEX_POINT('',#928);
#313=VERTEX_POINT('',#930);
#314=VERTEX_POINT('',#932);
#315=VERTEX_POINT('',#934);
#316=VERTEX_POINT('',#936);
#317=VERTEX_POINT('',#937);
#318=VERTEX_POINT('',#939);
#319=VERTEX_POINT('',#941);
#320=VERTEX_POINT('',#947);
#321=VERTEX_POINT('',#949);
#322=VERTEX_POINT('',#951);
#323=VERTEX_POINT('',#952);
#324=VERTEX_POINT('',#954);
#325=VERTEX_POINT('',#957);
#326=VERTEX_POINT('',#959);
#327=VERTEX_POINT('',#961);
#328=VERTEX_POINT('',#964);
#329=VERTEX_POINT('',#966);
#330=VERTEX_POINT('',#969);
#331=VERTEX_POINT('',#971);
#332=VERTEX_POINT('',#975);
#333=VERTEX_POINT('',#976);
#334=VERTEX_POINT('',#978);
#335=VERTEX_POINT('',#983);
#336=VERTEX_POINT('',#985);
#337=VERTEX_POINT('',#989);
#338=VERTEX_POINT('',#994);
#339=VERTEX_POINT('',#995);
#340=VERTEX_POINT('',#1001);
#341=VERTEX_POINT('',#1005);
#342=VERTEX_POINT('',#1009);
#343=VERTEX_POINT('',#1011);
#344=VERTEX_POINT('',#1014);
#345=VERTEX_POINT('',#1016);
#346=VERTEX_POINT('',#1019);
#347=VERTEX_POINT('',#1021);
#348=VERTEX_POINT('',#1027);
#349=VERTEX_POINT('',#1029);
#350=VERTEX_POINT('',#1035);
#351=VERTEX_POINT('',#1037);
#352=VERTEX_POINT('',#1041);
#353=VERTEX_POINT('',#1043);
#354=LINE('',#891,#410);
#355=LINE('',#894,#411);
#356=LINE('',#896,#412);
#357=LINE('',#900,#413);
#358=LINE('',#903,#414);
#359=LINE('',#907,#415);
#360=LINE('',#908,#416);
#361=LINE('',#912,#417);
#362=LINE('',#914,#418);
#363=LINE('',#918,#419);
#364=LINE('',#921,#420);
#365=LINE('',#923,#421);
#366=LINE('',#925,#422);
#367=LINE('',#938,#423);
#368=LINE('',#940,#424);
#369=LINE('',#942,#425);
#370=LINE('',#943,#426);
#371=LINE('',#944,#427);
#372=LINE('',#950,#428);
#373=LINE('',#955,#429);
#374=LINE('',#956,#430);
#375=LINE('',#958,#431);
#376=LINE('',#960,#432);
#377=LINE('',#962,#433);
#378=LINE('',#968,#434);
#379=LINE('',#970,#435);
#380=LINE('',#972,#436);
#381=LINE('',#974,#437);
#382=LINE('',#977,#438);
#383=LINE('',#979,#439);
#384=LINE('',#980,#440);
#385=LINE('',#984,#441);
#386=LINE('',#988,#442);
#387=LINE('',#990,#443);
#388=LINE('',#991,#444);
#389=LINE('',#993,#445);
#390=LINE('',#996,#446);
#391=LINE('',#997,#447);
#392=LINE('',#998,#448);
#393=LINE('',#1000,#449);
#394=LINE('',#1002,#450);
#395=LINE('',#1003,#451);
#396=LINE('',#1004,#452);
#397=LINE('',#1006,#453);
#398=LINE('',#1023,#454);
#399=LINE('',#1024,#455);
#400=LINE('',#1033,#456);
#401=LINE('',#1034,#457);
#402=LINE('',#1038,#458);
#403=LINE('',#1040,#459);
#404=LINE('',#1044,#460);
#405=LINE('',#1046,#461);
#406=LINE('',#1047,#462);
#407=LINE('',#1049,#463);
#408=LINE('',#1052,#464);
#409=LINE('',#1054,#465);
#410=VECTOR('',#715,1.);
#411=VECTOR('',#716,1.);
#412=VECTOR('',#717,1.);
#413=VECTOR('',#722,1.);
#414=VECTOR('',#723,1.);
#415=VECTOR('',#726,1.);
#416=VECTOR('',#727,1.);
#417=VECTOR('',#730,1.);
#418=VECTOR('',#731,1.);
#419=VECTOR('',#736,1.);
#420=VECTOR('',#737,1.);
#421=VECTOR('',#738,1.);
#422=VECTOR('',#739,1.);
#423=VECTOR('',#752,1.);
#424=VECTOR('',#753,1.);
#425=VECTOR('',#754,1.);
#426=VECTOR('',#755,1.);
#427=VECTOR('',#756,1.);
#428=VECTOR('',#763,1.);
#429=VECTOR('',#766,1.);
#430=VECTOR('',#767,1.);
#431=VECTOR('',#768,1.);
#432=VECTOR('',#769,1.);
#433=VECTOR('',#770,1.);
#434=VECTOR('',#777,1.);
#435=VECTOR('',#778,1.);
#436=VECTOR('',#779,1.);
#437=VECTOR('',#782,1.);
#438=VECTOR('',#783,1.);
#439=VECTOR('',#784,1.);
#440=VECTOR('',#785,1.);
#441=VECTOR('',#790,1.);
#442=VECTOR('',#795,1.);
#443=VECTOR('',#796,1.);
#444=VECTOR('',#797,1.);
#445=VECTOR('',#800,1.);
#446=VECTOR('',#801,1.);
#447=VECTOR('',#802,1.);
#448=VECTOR('',#803,1.);
#449=VECTOR('',#806,1.);
#450=VECTOR('',#807,1.);
#451=VECTOR('',#808,1.);
#452=VECTOR('',#809,1.);
#453=VECTOR('',#810,1.);
#454=VECTOR('',#831,1.);
#455=VECTOR('',#832,1.);
#456=VECTOR('',#845,1.);
#457=VECTOR('',#846,1.);
#458=VECTOR('',#849,1.);
#459=VECTOR('',#852,1.);
#460=VECTOR('',#855,1.);
#461=VECTOR('',#858,1.);
#462=VECTOR('',#859,1.);
#463=VECTOR('',#862,1.);
#464=VECTOR('',#867,1.);
#465=VECTOR('',#870,1.);
#466=EDGE_LOOP('',(#50,#51,#52,#53));
#467=EDGE_LOOP('',(#54,#55,#56,#57,#58,#59,#60,#61,#62,#63));
#468=EDGE_LOOP('',(#64,#65,#66,#67));
#469=EDGE_LOOP('',(#68));
#470=EDGE_LOOP('',(#69));
#471=EDGE_LOOP('',(#70));
#472=EDGE_LOOP('',(#71));
#473=EDGE_LOOP('',(#72,#73,#74,#75,#76,#77,#78,#79));
#474=EDGE_LOOP('',(#80));
#475=EDGE_LOOP('',(#81));
#476=EDGE_LOOP('',(#82,#83,#84,#85,#86,#87,#88,#89));
#477=EDGE_LOOP('',(#90));
#478=EDGE_LOOP('',(#91));
#479=EDGE_LOOP('',(#92,#93,#94,#95));
#480=EDGE_LOOP('',(#96,#97,#98,#99));
#481=EDGE_LOOP('',(#100,#101,#102,#103));
#482=EDGE_LOOP('',(#104,#105,#106,#107));
#483=EDGE_LOOP('',(#108,#109,#110,#111,#112,#113,#114,#115));
#484=EDGE_LOOP('',(#116,#117,#118,#119,#120,#121,#122,#123));
#485=EDGE_LOOP('',(#124));
#486=EDGE_LOOP('',(#125));
#487=EDGE_LOOP('',(#126));
#488=EDGE_LOOP('',(#127));
#489=EDGE_LOOP('',(#128));
#490=EDGE_LOOP('',(#129));
#491=EDGE_LOOP('',(#130,#131,#132,#133,#134,#135,#136,#137));
#492=EDGE_LOOP('',(#138));
#493=EDGE_LOOP('',(#139));
#494=EDGE_LOOP('',(#140,#141,#142,#143));
#495=EDGE_LOOP('',(#144));
#496=EDGE_LOOP('',(#145));
#497=EDGE_LOOP('',(#146));
#498=EDGE_LOOP('',(#147));
#499=EDGE_LOOP('',(#148,#149,#150,#151,#152,#153));
#500=EDGE_LOOP('',(#154));
#501=EDGE_LOOP('',(#155));
#502=EDGE_LOOP('',(#156));
#503=EDGE_LOOP('',(#157));
#504=EDGE_LOOP('',(#158,#159,#160,#161));
#505=EDGE_LOOP('',(#162,#163,#164,#165));
#506=EDGE_LOOP('',(#166,#167,#168,#169));
#507=EDGE_LOOP('',(#170,#171,#172,#173));
#508=EDGE_LOOP('',(#174));
#509=EDGE_LOOP('',(#175));
#510=EDGE_LOOP('',(#176,#177,#178,#179));
#511=EDGE_LOOP('',(#180,#181,#182,#183));
#512=EDGE_LOOP('',(#184,#185,#186,#187));
#513=EDGE_LOOP('',(#188));
#514=EDGE_LOOP('',(#189));
#515=EDGE_LOOP('',(#190));
#516=EDGE_LOOP('',(#191));
#517=EDGE_LOOP('',(#192));
#518=EDGE_LOOP('',(#193));
#519=EDGE_LOOP('',(#194,#195,#196,#197));
#520=EDGE_LOOP('',(#198,#199,#200,#201));
#521=EDGE_LOOP('',(#202,#203,#204,#205));
#522=EDGE_LOOP('',(#206,#207,#208,#209));
#523=EDGE_LOOP('',(#210,#211,#212,#213));
#524=FACE_BOUND('',#466,.T.);
#525=FACE_BOUND('',#467,.T.);
#526=FACE_BOUND('',#468,.T.);
#527=FACE_BOUND('',#469,.T.);
#528=FACE_BOUND('',#470,.T.);
#529=FACE_BOUND('',#471,.T.);
#530=FACE_BOUND('',#472,.T.);
#531=FACE_BOUND('',#473,.T.);
#532=FACE_BOUND('',#474,.T.);
#533=FACE_BOUND('',#475,.T.);
#534=FACE_BOUND('',#476,.T.);
#535=FACE_BOUND('',#477,.T.);
#536=FACE_BOUND('',#478,.T.);
#537=FACE_BOUND('',#479,.T.);
#538=FACE_BOUND('',#480,.T.);
#539=FACE_BOUND('',#481,.T.);
#540=FACE_BOUND('',#482,.T.);
#541=FACE_BOUND('',#483,.T.);
#542=FACE_BOUND('',#484,.T.);
#543=FACE_BOUND('',#485,.T.);
#544=FACE_BOUND('',#486,.T.);
#545=FACE_BOUND('',#487,.T.);
#546=FACE_BOUND('',#488,.T.);
#547=FACE_BOUND('',#489,.T.);
#548=FACE_BOUND('',#490,.T.);
#549=FACE_BOUND('',#491,.T.);
#550=FACE_BOUND('',#492,.T.);
#551=FACE_BOUND('',#493,.T.);
#552=FACE_BOUND('',#494,.T.);
#553=FACE_BOUND('',#495,.T.);
#554=FACE_BOUND('',#496,.T.);
#555=FACE_BOUND('',#497,.T.);
#556=FACE_BOUND('',#498,.T.);
#557=FACE_BOUND('',#499,.T.);
#558=FACE_BOUND('',#500,.T.);
#559=FACE_BOUND('',#501,.T.);
#560=FACE_BOUND('',#502,.T.);
#561=FACE_BOUND('',#503,.T.);
#562=FACE_BOUND('',#504,.T.);
#563=FACE_BOUND('',#505,.T.);
#564=FACE_BOUND('',#506,.T.);
#565=FACE_BOUND('',#507,.T.);
#566=FACE_BOUND('',#508,.T.);
#567=FACE_BOUND('',#509,.T.);
#568=FACE_BOUND('',#510,.T.);
#569=FACE_BOUND('',#511,.T.);
#570=FACE_BOUND('',#512,.T.);
#571=FACE_BOUND('',#513,.T.);
#572=FACE_BOUND('',#514,.T.);
#573=FACE_BOUND('',#515,.T.);
#574=FACE_BOUND('',#516,.T.);
#575=FACE_BOUND('',#517,.T.);
#576=FACE_BOUND('',#518,.T.);
#577=FACE_BOUND('',#519,.T.);
#578=FACE_BOUND('',#520,.T.);
#579=FACE_BOUND('',#521,.T.);
#580=FACE_BOUND('',#522,.T.);
#581=FACE_BOUND('',#523,.T.);
#582=PLANE('',#651);
#583=PLANE('',#657);
#584=PLANE('',#658);
#585=PLANE('',#664);
#586=PLANE('',#670);
#587=PLANE('',#671);
#588=PLANE('',#675);
#589=PLANE('',#676);
#590=PLANE('',#677);
#591=PLANE('',#687);
#592=PLANE('',#691);
#593=PLANE('',#692);
#594=PLANE('',#693);
#595=PLANE('',#697);
#596=PLANE('',#698);
#597=PLANE('',#700);
#598=PLANE('',#702);
#599=PLANE('',#706);
#600=PLANE('',#707);
#601=PLANE('',#708);
#602=PLANE('',#709);
#603=PLANE('',#710);
#604=ADVANCED_FACE('',(#524),#582,.F.);
#605=ADVANCED_FACE('',(#525),#12,.T.);
#606=ADVANCED_FACE('',(#526),#583,.T.);
#607=ADVANCED_FACE('',(#527,#528,#529,#530,#531),#584,.T.);
#608=ADVANCED_FACE('',(#532,#533,#534,#535,#536),#585,.F.);
#609=ADVANCED_FACE('',(#537),#586,.F.);
#610=ADVANCED_FACE('',(#538),#587,.T.);
#611=ADVANCED_FACE('',(#539),#13,.T.);
#612=ADVANCED_FACE('',(#540),#588,.F.);
#613=ADVANCED_FACE('',(#541),#589,.F.);
#614=ADVANCED_FACE('',(#542),#590,.T.);
#615=ADVANCED_FACE('',(#543,#544),#14,.F.);
#616=ADVANCED_FACE('',(#545,#546),#15,.F.);
#617=ADVANCED_FACE('',(#547,#548),#16,.F.);
#618=ADVANCED_FACE('',(#549),#591,.T.);
#619=ADVANCED_FACE('',(#550,#551),#17,.F.);
#620=ADVANCED_FACE('',(#552,#553,#554,#555,#556),#592,.T.);
#621=ADVANCED_FACE('',(#557,#558,#559,#560,#561),#593,.F.);
#622=ADVANCED_FACE('',(#562),#594,.F.);
#623=ADVANCED_FACE('',(#563),#18,.F.);
#624=ADVANCED_FACE('',(#564),#595,.F.);
#625=ADVANCED_FACE('',(#565),#596,.T.);
#626=ADVANCED_FACE('',(#566,#567),#19,.F.);
#627=ADVANCED_FACE('',(#568),#597,.T.);
#628=ADVANCED_FACE('',(#569),#20,.F.);
#629=ADVANCED_FACE('',(#570),#598,.F.);
#630=ADVANCED_FACE('',(#571,#572),#21,.F.);
#631=ADVANCED_FACE('',(#573,#574),#22,.F.);
#632=ADVANCED_FACE('',(#575,#576),#23,.F.);
#633=ADVANCED_FACE('',(#577),#599,.F.);
#634=ADVANCED_FACE('',(#578),#600,.T.);
#635=ADVANCED_FACE('',(#579),#601,.F.);
#636=ADVANCED_FACE('',(#580),#602,.F.);
#637=ADVANCED_FACE('',(#581),#603,.T.);
#638=CLOSED_SHELL('',(#604,#605,#606,#607,#608,#609,#610,#611,#612,#613,
#614,#615,#616,#617,#618,#619,#620,#621,#622,#623,#624,#625,#626,#627,#628,
#629,#630,#631,#632,#633,#634,#635,#636,#637));
#639=STYLED_ITEM('',(#640),#647);
#640=PRESENTATION_STYLE_ASSIGNMENT((#641));
#641=SURFACE_STYLE_USAGE(.BOTH.,#642);
#642=SURFACE_SIDE_STYLE('',(#643));
#643=SURFACE_STYLE_FILL_AREA(#644);
#644=FILL_AREA_STYLE('',(#645));
#645=FILL_AREA_STYLE_COLOUR('',#646);
#646=COLOUR_RGB('',0.43921568627451,0.474509803921569,0.501960784313726);
#647=MANIFOLD_SOLID_BREP('Part 1',#638);
#648=SHAPE_DEFINITION_REPRESENTATION(#1070,#649);
#649=SHAPE_REPRESENTATION('Part 1',(#650),#1065);
#650=AXIS2_PLACEMENT_3D('',#889,#711,#712);
#651=AXIS2_PLACEMENT_3D('',#890,#713,#714);
#652=AXIS2_PLACEMENT_3D('',#898,#718,#719);
#653=AXIS2_PLACEMENT_3D('',#899,#720,#721);
#654=AXIS2_PLACEMENT_3D('',#905,#724,#725);
#655=AXIS2_PLACEMENT_3D('',#910,#728,#729);
#656=AXIS2_PLACEMENT_3D('',#916,#732,#733);
#657=AXIS2_PLACEMENT_3D('',#917,#734,#735);
#658=AXIS2_PLACEMENT_3D('',#926,#740,#741);
#659=AXIS2_PLACEMENT_3D('',#927,#742,#743);
#660=AXIS2_PLACEMENT_3D('',#929,#744,#745);
#661=AXIS2_PLACEMENT_3D('',#931,#746,#747);
#662=AXIS2_PLACEMENT_3D('',#933,#748,#749);
#663=AXIS2_PLACEMENT_3D('',#935,#750,#751);
#664=AXIS2_PLACEMENT_3D('',#945,#757,#758);
#665=AXIS2_PLACEMENT_3D('',#946,#759,#760);
#666=AXIS2_PLACEMENT_3D('',#948,#761,#762);
#667=AXIS2_PLACEMENT_3D('',#953,#764,#765);
#668=AXIS2_PLACEMENT_3D('',#963,#771,#772);
#669=AXIS2_PLACEMENT_3D('',#965,#773,#774);
#670=AXIS2_PLACEMENT_3D('',#967,#775,#776);
#671=AXIS2_PLACEMENT_3D('',#973,#780,#781);
#672=AXIS2_PLACEMENT_3D('',#981,#786,#787);
#673=AXIS2_PLACEMENT_3D('',#982,#788,#789);
#674=AXIS2_PLACEMENT_3D('',#986,#791,#792);
#675=AXIS2_PLACEMENT_3D('',#987,#793,#794);
#676=AXIS2_PLACEMENT_3D('',#992,#798,#799);
#677=AXIS2_PLACEMENT_3D('',#999,#804,#805);
#678=AXIS2_PLACEMENT_3D('',#1007,#811,#812);
#679=AXIS2_PLACEMENT_3D('',#1008,#813,#814);
#680=AXIS2_PLACEMENT_3D('',#1010,#815,#816);
#681=AXIS2_PLACEMENT_3D('',#1012,#817,#818);
#682=AXIS2_PLACEMENT_3D('',#1013,#819,#820);
#683=AXIS2_PLACEMENT_3D('',#1015,#821,#822);
#684=AXIS2_PLACEMENT_3D('',#1017,#823,#824);
#685=AXIS2_PLACEMENT_3D('',#1018,#825,#826);
#686=AXIS2_PLACEMENT_3D('',#1020,#827,#828);
#687=AXIS2_PLACEMENT_3D('',#1022,#829,#830);
#688=AXIS2_PLACEMENT_3D('',#1025,#833,#834);
#689=AXIS2_PLACEMENT_3D('',#1026,#835,#836);
#690=AXIS2_PLACEMENT_3D('',#1028,#837,#838);
#691=AXIS2_PLACEMENT_3D('',#1030,#839,#840);
#692=AXIS2_PLACEMENT_3D('',#1031,#841,#842);
#693=AXIS2_PLACEMENT_3D('',#1032,#843,#844);
#694=AXIS2_PLACEMENT_3D('',#1036,#847,#848);
#695=AXIS2_PLACEMENT_3D('',#1039,#850,#851);
#696=AXIS2_PLACEMENT_3D('',#1042,#853,#854);
#697=AXIS2_PLACEMENT_3D('',#1045,#856,#857);
#698=AXIS2_PLACEMENT_3D('',#1048,#860,#861);
#699=AXIS2_PLACEMENT_3D('',#1050,#863,#864);
#700=AXIS2_PLACEMENT_3D('',#1051,#865,#866);
#701=AXIS2_PLACEMENT_3D('',#1053,#868,#869);
#702=AXIS2_PLACEMENT_3D('',#1055,#871,#872);
#703=AXIS2_PLACEMENT_3D('',#1056,#873,#874);
#704=AXIS2_PLACEMENT_3D('',#1057,#875,#876);
#705=AXIS2_PLACEMENT_3D('',#1058,#877,#878);
#706=AXIS2_PLACEMENT_3D('',#1059,#879,#880);
#707=AXIS2_PLACEMENT_3D('',#1060,#881,#882);
#708=AXIS2_PLACEMENT_3D('',#1061,#883,#884);
#709=AXIS2_PLACEMENT_3D('',#1062,#885,#886);
#710=AXIS2_PLACEMENT_3D('',#1063,#887,#888);
#711=DIRECTION('',(0.,0.,1.));
#712=DIRECTION('',(1.,0.,0.));
#713=DIRECTION('',(1.,3.30423519233678E-16,0.));
#714=DIRECTION('',(-3.30423519233678E-16,1.,0.));
#715=DIRECTION('',(1.27525026592019E-16,-0.385944157025434,0.922522144806252));
#716=DIRECTION('',(3.30423519233678E-16,-1.,0.));
#717=DIRECTION('',(-1.27525026592019E-16,0.385944157025434,0.922522144806252));
#718=DIRECTION('',(1.,3.30423519233678E-16,0.));
#719=DIRECTION('',(-3.30423519233678E-16,1.,0.));
#720=DIRECTION('',(1.,1.65211759616839E-16,0.));
#721=DIRECTION('',(-1.65211759616839E-16,1.,0.));
#722=DIRECTION('',(1.,1.65211759616839E-16,0.));
#723=DIRECTION('',(-1.,-3.30423519233678E-16,0.));
#724=DIRECTION('',(1.,1.65211759616839E-16,0.));
#725=DIRECTION('',(-1.65211759616839E-16,1.,0.));
#726=DIRECTION('',(-1.,-3.30423519233678E-16,0.));
#727=DIRECTION('',(-1.,-3.30423519233678E-16,0.));
#728=DIRECTION('',(1.,1.65211759616839E-16,0.));
#729=DIRECTION('',(-1.65211759616839E-16,1.,0.));
#730=DIRECTION('',(-1.,-3.30423519233678E-16,0.));
#731=DIRECTION('',(1.,1.65211759616839E-16,0.));
#732=DIRECTION('',(1.,1.65211759616839E-16,0.));
#733=DIRECTION('',(-1.65211759616839E-16,1.,0.));
#734=DIRECTION('',(-1.,-3.30423519233678E-16,0.));
#735=DIRECTION('',(3.30423519233678E-16,-1.,0.));
#736=DIRECTION('',(3.30423519233678E-16,-1.,0.));
#737=DIRECTION('',(0.,0.,1.));
#738=DIRECTION('',(3.30423519233678E-16,-1.,0.));
#739=DIRECTION('',(0.,0.,-1.));
#740=DIRECTION('',(0.,0.,1.));
#741=DIRECTION('',(1.,0.,0.));
#742=DIRECTION('',(0.,0.,-1.));
#743=DIRECTION('',(1.,0.,0.));
#744=DIRECTION('',(0.,0.,1.));
#745=DIRECTION('',(1.,0.,0.));
#746=DIRECTION('',(0.,0.,1.));
#747=DIRECTION('',(1.,0.,0.));
#748=DIRECTION('',(0.,0.,-1.));
#749=DIRECTION('',(1.,0.,0.));
#750=DIRECTION('',(0.,0.,1.));
#751=DIRECTION('',(1.,0.,0.));
#752=DIRECTION('',(-1.,-1.65211759616839E-16,0.));
#753=DIRECTION('',(3.30423519233678E-16,-1.,0.));
#754=DIRECTION('',(1.,3.30423519233678E-16,0.));
#755=DIRECTION('',(1.,3.30423519233678E-16,0.));
#756=DIRECTION('',(-1.,-3.30423519233678E-16,0.));
#757=DIRECTION('',(0.,0.,1.));
#758=DIRECTION('',(1.,0.,0.));
#759=DIRECTION('',(0.,0.,1.));
#760=DIRECTION('',(1.,0.,0.));
#761=DIRECTION('',(0.,0.,1.));
#762=DIRECTION('',(1.,0.,0.));
#763=DIRECTION('',(-1.,-1.65211759616839E-16,0.));
#764=DIRECTION('',(0.,0.,1.));
#765=DIRECTION('',(1.,0.,0.));
#766=DIRECTION('',(-1.,-3.30423519233678E-16,0.));
#767=DIRECTION('',(1.,3.30423519233678E-16,0.));
#768=DIRECTION('',(3.30423519233678E-16,-1.,0.));
#769=DIRECTION('',(1.,3.30423519233678E-16,0.));
#770=DIRECTION('',(3.30423519233678E-16,-1.,0.));
#771=DIRECTION('',(0.,0.,1.));
#772=DIRECTION('',(1.,0.,0.));
#773=DIRECTION('',(0.,0.,1.));
#774=DIRECTION('',(1.,0.,0.));
#775=DIRECTION('',(1.,3.30423519233678E-16,0.));
#776=DIRECTION('',(-3.30423519233678E-16,1.,0.));
#777=DIRECTION('',(0.,0.,-1.));
#778=DIRECTION('',(3.30423519233678E-16,-1.,0.));
#779=DIRECTION('',(0.,0.,-1.));
#780=DIRECTION('',(-0.196116135138184,0.98058067569092,0.));
#781=DIRECTION('',(-0.98058067569092,-0.196116135138184,0.));
#782=DIRECTION('',(0.98058067569092,0.196116135138184,0.));
#783=DIRECTION('',(0.,0.,-1.));
#784=DIRECTION('',(0.98058067569092,0.196116135138184,0.));
#785=DIRECTION('',(0.,0.,-1.));
#786=DIRECTION('',(0.,0.,-1.));
#787=DIRECTION('',(-1.,0.,0.));
#788=DIRECTION('',(0.,0.,1.));
#789=DIRECTION('',(1.,0.,0.));
#790=DIRECTION('',(0.,0.,-1.));
#791=DIRECTION('',(0.,0.,1.));
#792=DIRECTION('',(1.,0.,0.));
#793=DIRECTION('',(0.196116135138184,0.98058067569092,0.));
#794=DIRECTION('',(-0.98058067569092,0.196116135138184,0.));
#795=DIRECTION('',(0.98058067569092,-0.196116135138184,0.));
#796=DIRECTION('',(0.,0.,-1.));
#797=DIRECTION('',(0.98058067569092,-0.196116135138184,0.));
#798=DIRECTION('',(0.,1.,0.));
#799=DIRECTION('',(0.,0.,1.));
#800=DIRECTION('',(0.,0.,-1.));
#801=DIRECTION('',(-1.,-3.30423519233678E-16,0.));
#802=DIRECTION('',(0.,0.,-1.));
#803=DIRECTION('',(1.,0.,0.));
#804=DIRECTION('',(1.,1.65211759616839E-16,0.));
#805=DIRECTION('',(-1.65211759616839E-16,1.,0.));
#806=DIRECTION('',(-6.37625132960095E-17,0.385944157025434,-0.922522144806252));
#807=DIRECTION('',(-1.65211759616839E-16,1.,0.));
#808=DIRECTION('',(6.37625132960096E-17,-0.385944157025434,-0.922522144806252));
#809=DIRECTION('',(1.65211759616839E-16,-1.,0.));
#810=DIRECTION('',(0.,0.,-1.));
#811=DIRECTION('',(0.,0.,-1.));
#812=DIRECTION('',(-1.,0.,0.));
#813=DIRECTION('',(0.,0.,1.));
#814=DIRECTION('',(1.,0.,0.));
#815=DIRECTION('',(0.,0.,1.));
#816=DIRECTION('',(1.,0.,0.));
#817=DIRECTION('',(0.,0.,-1.));
#818=DIRECTION('',(-1.,0.,0.));
#819=DIRECTION('',(0.,0.,1.));
#820=DIRECTION('',(1.,0.,0.));
#821=DIRECTION('',(0.,0.,1.));
#822=DIRECTION('',(1.,0.,0.));
#823=DIRECTION('',(0.,0.,-1.));
#824=DIRECTION('',(-1.,0.,0.));
#825=DIRECTION('',(0.,0.,1.));
#826=DIRECTION('',(1.,0.,0.));
#827=DIRECTION('',(0.,0.,1.));
#828=DIRECTION('',(1.,0.,0.));
#829=DIRECTION('',(0.,1.,0.));
#830=DIRECTION('',(0.,0.,1.));
#831=DIRECTION('',(-1.,-3.30423519233678E-16,0.));
#832=DIRECTION('',(1.,0.,0.));
#833=DIRECTION('',(0.,0.,-1.));
#834=DIRECTION('',(-1.,0.,0.));
#835=DIRECTION('',(0.,0.,1.));
#836=DIRECTION('',(1.,0.,0.));
#837=DIRECTION('',(0.,0.,1.));
#838=DIRECTION('',(1.,0.,0.));
#839=DIRECTION('',(0.,0.,1.));
#840=DIRECTION('',(1.,0.,0.));
#841=DIRECTION('',(0.,0.,1.));
#842=DIRECTION('',(1.,0.,0.));
#843=DIRECTION('',(1.,3.30423519233678E-16,0.));
#844=DIRECTION('',(-3.30423519233678E-16,1.,0.));
#845=DIRECTION('',(3.30423519233678E-16,-1.,0.));
#846=DIRECTION('',(0.,0.,1.));
#847=DIRECTION('',(1.,3.30423519233678E-16,0.));
#848=DIRECTION('',(-3.30423519233678E-16,1.,0.));
#849=DIRECTION('',(0.,0.,1.));
#850=DIRECTION('',(1.,1.65211759616839E-16,0.));
#851=DIRECTION('',(-1.65211759616839E-16,1.,0.));
#852=DIRECTION('',(1.,1.65211759616839E-16,0.));
#853=DIRECTION('',(1.,1.65211759616839E-16,0.));
#854=DIRECTION('',(-1.65211759616839E-16,1.,0.));
#855=DIRECTION('',(1.,1.65211759616839E-16,0.));
#856=DIRECTION('',(1.,1.65211759616839E-16,0.));
#857=DIRECTION('',(-1.65211759616839E-16,1.,0.));
#858=DIRECTION('',(0.,0.,1.));
#859=DIRECTION('',(0.,0.,1.));
#860=DIRECTION('',(-1.,-3.30423519233678E-16,0.));
#861=DIRECTION('',(3.30423519233678E-16,-1.,0.));
#862=DIRECTION('',(0.,0.,1.));
#863=DIRECTION('',(0.,0.,1.));
#864=DIRECTION('',(1.,0.,0.));
#865=DIRECTION('',(-1.65211759616839E-16,1.,0.));
#866=DIRECTION('',(-1.,-1.65211759616839E-16,0.));
#867=DIRECTION('',(0.,0.,1.));
#868=DIRECTION('',(0.,0.,1.));
#869=DIRECTION('',(1.,0.,0.));
#870=DIRECTION('',(0.,0.,1.));
#871=DIRECTION('',(-3.30423519233678E-16,1.,0.));
#872=DIRECTION('',(-1.,-3.30423519233678E-16,0.));
#873=DIRECTION('',(0.,0.,1.));
#874=DIRECTION('',(1.,0.,0.));
#875=DIRECTION('',(0.,0.,1.));
#876=DIRECTION('',(1.,0.,0.));
#877=DIRECTION('',(0.,0.,1.));
#878=DIRECTION('',(1.,0.,0.));
#879=DIRECTION('',(-1.0842021724855E-16,1.,0.));
#880=DIRECTION('',(-1.,-1.0842021724855E-16,0.));
#881=DIRECTION('',(-1.0842021724855E-16,1.,0.));
#882=DIRECTION('',(-1.,-1.0842021724855E-16,0.));
#883=DIRECTION('',(3.04823013657882E-16,-0.922522144806252,-0.385944157025434));
#884=DIRECTION('',(0.,0.385944157025434,-0.922522144806252));
#885=DIRECTION('',(0.,0.,-1.));
#886=DIRECTION('',(-1.,0.,0.));
#887=DIRECTION('',(3.04823013657882E-16,-0.922522144806252,0.385944157025434));
#888=DIRECTION('',(0.,-0.385944157025434,-0.922522144806252));
#889=CARTESIAN_POINT('',(0.,0.,0.));
#890=CARTESIAN_POINT('',(0.0175,0.,0.08465));
#891=CARTESIAN_POINT('',(0.0175,0.0124968816350859,0.064325));
#892=CARTESIAN_POINT('',(0.0175,0.021,0.044));
#893=CARTESIAN_POINT('',(0.0175,0.00553513286883753,0.0809656649421526));
#894=CARTESIAN_POINT('',(0.0175,-1.26264394845625E-49,0.044));
#895=CARTESIAN_POINT('',(0.0175,-0.021,0.044));
#896=CARTESIAN_POINT('',(0.0175,-0.0124968816350859,0.064325));
#897=CARTESIAN_POINT('',(0.0175,-0.0055351328688375,0.0809656649421526));
#898=CARTESIAN_POINT('',(0.0175,1.00779173366272E-17,0.07865));
#899=CARTESIAN_POINT('',(0.0095,8.75622325969245E-18,0.07865));
#900=CARTESIAN_POINT('',(0.0095,0.003,0.0838461524227066));
#901=CARTESIAN_POINT('',(0.0175,0.003,0.0838461524227066));
#902=CARTESIAN_POINT('',(0.0095,0.003,0.0838461524227066));
#903=CARTESIAN_POINT('',(0.0425,0.003,0.0838461524227066));
#904=CARTESIAN_POINT('',(0.0195,0.003,0.0838461524227066));
#905=CARTESIAN_POINT('',(0.0195,1.07387643750945E-17,0.07865));
#906=CARTESIAN_POINT('',(0.0195,0.00553513286883753,0.0809656649421526));
#907=CARTESIAN_POINT('',(0.0425,0.00553513286883754,0.0809656649421526));
#908=CARTESIAN_POINT('',(0.0425,-0.00553513286883749,0.0809656649421526));
#909=CARTESIAN_POINT('',(0.0195,-0.0055351328688375,0.0809656649421526));
#910=CARTESIAN_POINT('',(0.0195,1.07387643750945E-17,0.07865));
#911=CARTESIAN_POINT('',(0.0195,-0.003,0.0838461524227066));
#912=CARTESIAN_POINT('',(0.0425,-0.003,0.0838461524227066));
#913=CARTESIAN_POINT('',(0.0175,-0.003,0.0838461524227066));
#914=CARTESIAN_POINT('',(0.0095,-0.003,0.0838461524227066));
#915=CARTESIAN_POINT('',(0.0095,-0.003,0.0838461524227066));
#916=CARTESIAN_POINT('',(0.0095,8.75622325969245E-18,0.07865));
#917=CARTESIAN_POINT('',(-0.0245,-1.50342701251323E-17,0.043325));
#918=CARTESIAN_POINT('',(-0.0245,-1.38777878078145E-17,0.042));
#919=CARTESIAN_POINT('',(-0.0245,0.021,0.042));
#920=CARTESIAN_POINT('',(-0.0245,0.011,0.042));
#921=CARTESIAN_POINT('',(-0.0245,0.011,0.019));
#922=CARTESIAN_POINT('',(-0.0245,0.011,0.044));
#923=CARTESIAN_POINT('',(-0.0245,-1.38777878078145E-17,0.044));
#924=CARTESIAN_POINT('',(-0.0245,0.021,0.044));
#925=CARTESIAN_POINT('',(-0.0245,0.021,0.08465));
#926=CARTESIAN_POINT('',(-0.0245,-1.38777878078145E-17,0.044));
#927=CARTESIAN_POINT('',(-0.019,-0.0155,0.044));
#928=CARTESIAN_POINT('',(-0.0175,-0.0155,0.044));
#929=CARTESIAN_POINT('',(0.012,-0.0155,0.044));
#930=CARTESIAN_POINT('',(0.0135,-0.0155,0.044));
#931=CARTESIAN_POINT('',(-0.019,0.0155,0.044));
#932=CARTESIAN_POINT('',(-0.0175,0.0155,0.044));
#933=CARTESIAN_POINT('',(0.012,0.0155,0.044));
#934=CARTESIAN_POINT('',(0.0135,0.0155,0.044));
#935=CARTESIAN_POINT('',(-0.0035,0.,0.044));
#936=CARTESIAN_POINT('',(-0.0035,-0.011,0.044));
#937=CARTESIAN_POINT('',(-0.0035,0.011,0.044));
#938=CARTESIAN_POINT('',(-0.014,-0.011,0.044));
#939=CARTESIAN_POINT('',(-0.0245,-0.011,0.044));
#940=CARTESIAN_POINT('',(-0.0245,-1.38777878078145E-17,0.044));
#941=CARTESIAN_POINT('',(-0.0245,-0.021,0.044));
#942=CARTESIAN_POINT('',(-0.0245,-0.021,0.044));
#943=CARTESIAN_POINT('',(-0.0245,0.021,0.044));
#944=CARTESIAN_POINT('',(-0.014,0.011,0.044));
#945=CARTESIAN_POINT('',(-0.0245,-1.38777878078145E-17,0.042));
#946=CARTESIAN_POINT('',(0.012,-0.0155,0.042));
#947=CARTESIAN_POINT('',(0.0135,-0.0155,0.042));
#948=CARTESIAN_POINT('',(-0.019,0.0155,0.042));
#949=CARTESIAN_POINT('',(-0.0175,0.0155,0.042));
#950=CARTESIAN_POINT('',(-0.0245,-0.011,0.042));
#951=CARTESIAN_POINT('',(-0.0035,-0.011,0.042));
#952=CARTESIAN_POINT('',(-0.0245,-0.011,0.042));
#953=CARTESIAN_POINT('',(-0.0035,0.,0.042));
#954=CARTESIAN_POINT('',(-0.0035,0.011,0.042));
#955=CARTESIAN_POINT('',(-0.0245,0.011,0.042));
#956=CARTESIAN_POINT('',(-0.0245,0.021,0.042));
#957=CARTESIAN_POINT('',(0.0175,0.021,0.042));
#958=CARTESIAN_POINT('',(0.0175,-1.26264394845625E-49,0.042));
#959=CARTESIAN_POINT('',(0.0175,-0.021,0.042));
#960=CARTESIAN_POINT('',(-0.0245,-0.021,0.042));
#961=CARTESIAN_POINT('',(-0.0245,-0.021,0.042));
#962=CARTESIAN_POINT('',(-0.0245,-1.38777878078145E-17,0.042));
#963=CARTESIAN_POINT('',(-0.019,-0.0155,0.042));
#964=CARTESIAN_POINT('',(-0.0175,-0.0155,0.042));
#965=CARTESIAN_POINT('',(0.012,0.0155,0.042));
#966=CARTESIAN_POINT('',(0.0135,0.0155,0.042));
#967=CARTESIAN_POINT('',(0.0175,0.,0.08465));
#968=CARTESIAN_POINT('',(0.0175,0.021,0.08465));
#969=CARTESIAN_POINT('',(0.0175,0.021,0.002));
#970=CARTESIAN_POINT('',(0.0175,0.,0.002));
#971=CARTESIAN_POINT('',(0.0175,-0.021,0.002));
#972=CARTESIAN_POINT('',(0.0175,-0.021,0.08465));
#973=CARTESIAN_POINT('',(0.00875,0.01925,0.002));
#974=CARTESIAN_POINT('',(0.00875,0.01925,0.));
#975=CARTESIAN_POINT('',(1.66146882940061E-17,0.0175,0.));
#976=CARTESIAN_POINT('',(0.0175,0.021,0.));
#977=CARTESIAN_POINT('',(1.66146882940061E-17,0.0175,0.002));
#978=CARTESIAN_POINT('',(1.66146882940061E-17,0.0175,0.002));
#979=CARTESIAN_POINT('',(0.00875,0.01925,0.002));
#980=CARTESIAN_POINT('',(0.0175,0.021,0.002));
#981=CARTESIAN_POINT('',(1.97621930582499E-18,2.80628942523074E-18,0.002));
#982=CARTESIAN_POINT('',(1.97621930582499E-18,2.80628942523074E-18,0.));
#983=CARTESIAN_POINT('',(1.23284244969904E-17,-0.0175,0.));
#984=CARTESIAN_POINT('',(1.23284244969904E-17,-0.0175,0.002));
#985=CARTESIAN_POINT('',(1.23284244969904E-17,-0.0175,0.002));
#986=CARTESIAN_POINT('',(1.97621930582499E-18,2.80628942523074E-18,0.002));
#987=CARTESIAN_POINT('',(0.00875,-0.01925,0.002));
#988=CARTESIAN_POINT('',(0.00875,-0.01925,0.));
#989=CARTESIAN_POINT('',(0.0175,-0.021,0.));
#990=CARTESIAN_POINT('',(0.0175,-0.021,0.002));
#991=CARTESIAN_POINT('',(0.00875,-0.01925,0.002));
#992=CARTESIAN_POINT('',(0.0185,-0.021,0.002));
#993=CARTESIAN_POINT('',(0.0195,-0.021,0.002));
#994=CARTESIAN_POINT('',(0.0195,-0.021,0.044));
#995=CARTESIAN_POINT('',(0.0195,-0.021,0.));
#996=CARTESIAN_POINT('',(0.0425,-0.021,0.044));
#997=CARTESIAN_POINT('',(-0.0245,-0.021,0.08465));
#998=CARTESIAN_POINT('',(0.0185,-0.021,0.));
#999=CARTESIAN_POINT('',(0.0195,3.46944695195361E-18,0.002));
#1000=CARTESIAN_POINT('',(0.0195,0.0328257545844273,0.0157329041401725));
#1001=CARTESIAN_POINT('',(0.0195,0.021,0.044));
#1002=CARTESIAN_POINT('',(0.0195,3.46944695195361E-18,0.0838461524227066));
#1003=CARTESIAN_POINT('',(0.0195,-0.0328257545844273,0.0157329041401725));
#1004=CARTESIAN_POINT('',(0.0195,3.46944695195361E-18,0.));
#1005=CARTESIAN_POINT('',(0.0195,0.021,0.));
#1006=CARTESIAN_POINT('',(0.0195,0.021,0.002));
#1007=CARTESIAN_POINT('',(0.012,8.50790030675905E-19,0.002));
#1008=CARTESIAN_POINT('',(0.012,8.50790030675905E-19,0.002));
#1009=CARTESIAN_POINT('',(0.0135,8.50790030675905E-19,0.002));
#1010=CARTESIAN_POINT('',(0.012,8.50790030675905E-19,0.));
#1011=CARTESIAN_POINT('',(0.0135,8.50790030675905E-19,0.));
#1012=CARTESIAN_POINT('',(4.81872135272958E-5,-0.012,0.002));
#1013=CARTESIAN_POINT('',(4.81872135272958E-5,-0.012,0.002));
#1014=CARTESIAN_POINT('',(0.0015481872135273,-0.012,0.002));
#1015=CARTESIAN_POINT('',(4.81872135272958E-5,-0.012,0.));
#1016=CARTESIAN_POINT('',(0.0015481872135273,-0.012,0.));
#1017=CARTESIAN_POINT('',(-0.012,-6.67093010803802E-19,0.002));
#1018=CARTESIAN_POINT('',(-0.012,-6.67093010803802E-19,0.002));
#1019=CARTESIAN_POINT('',(-0.0105,-6.67093010803802E-19,0.002));
#1020=CARTESIAN_POINT('',(-0.012,-6.67093010803802E-19,0.));
#1021=CARTESIAN_POINT('',(-0.0105,-6.67093010803802E-19,0.));
#1022=CARTESIAN_POINT('',(0.0185,0.021,0.002));
#1023=CARTESIAN_POINT('',(0.0425,0.021,0.044));
#1024=CARTESIAN_POINT('',(0.0185,0.021,0.));
#1025=CARTESIAN_POINT('',(4.81872135272912E-5,0.012,0.002));
#1026=CARTESIAN_POINT('',(4.81872135272912E-5,0.012,0.002));
#1027=CARTESIAN_POINT('',(0.00154818721352729,0.012,0.002));
#1028=CARTESIAN_POINT('',(4.81872135272912E-5,0.012,0.));
#1029=CARTESIAN_POINT('',(0.00154818721352729,0.012,0.));
#1030=CARTESIAN_POINT('',(0.001,0.,0.002));
#1031=CARTESIAN_POINT('',(0.001,0.,0.));
#1032=CARTESIAN_POINT('',(0.0175,0.,0.08465));
#1033=CARTESIAN_POINT('',(0.0175,4.33680868994202E-19,0.0838461524227066));
#1034=CARTESIAN_POINT('',(0.0175,0.003,0.07965));
#1035=CARTESIAN_POINT('',(0.0175,0.003,0.0812957513110646));
#1036=CARTESIAN_POINT('',(0.0175,1.00779173366272E-17,0.07865));
#1037=CARTESIAN_POINT('',(0.0175,-0.003,0.0812957513110646));
#1038=CARTESIAN_POINT('',(0.0175,-0.003,0.07965));
#1039=CARTESIAN_POINT('',(0.0095,8.75622325969245E-18,0.07865));
#1040=CARTESIAN_POINT('',(0.0095,0.003,0.0812957513110646));
#1041=CARTESIAN_POINT('',(0.0095,0.003,0.0812957513110646));
#1042=CARTESIAN_POINT('',(0.0095,8.75622325969245E-18,0.07865));
#1043=CARTESIAN_POINT('',(0.0095,-0.003,0.0812957513110646));
#1044=CARTESIAN_POINT('',(0.0095,-0.003,0.0812957513110646));
#1045=CARTESIAN_POINT('',(0.0095,-1.89993523559365E-18,0.042325));
#1046=CARTESIAN_POINT('',(0.0095,0.003,0.07965));
#1047=CARTESIAN_POINT('',(0.0095,-0.003,0.07965));
#1048=CARTESIAN_POINT('',(-0.0245,-1.50342701251323E-17,0.043325));
#1049=CARTESIAN_POINT('',(-0.0245,-0.011,0.019));
#1050=CARTESIAN_POINT('',(-0.019,0.0155,0.019));
#1051=CARTESIAN_POINT('',(-0.014,-0.011,0.019));
#1052=CARTESIAN_POINT('',(-0.0035,-0.011,0.019));
#1053=CARTESIAN_POINT('',(-0.0035,0.,0.019));
#1054=CARTESIAN_POINT('',(-0.0035,0.011,0.019));
#1055=CARTESIAN_POINT('',(-0.014,0.011,0.019));
#1056=CARTESIAN_POINT('',(0.012,-0.0155,0.019));
#1057=CARTESIAN_POINT('',(-0.019,-0.0155,0.019));
#1058=CARTESIAN_POINT('',(0.012,0.0155,0.019));
#1059=CARTESIAN_POINT('',(0.0135,0.003,0.07965));
#1060=CARTESIAN_POINT('',(0.0135,-0.003,0.07965));
#1061=CARTESIAN_POINT('',(0.0425,0.012496881635086,0.064325));
#1062=CARTESIAN_POINT('',(0.0425,8.69426884983614E-18,0.0838461524227066));
#1063=CARTESIAN_POINT('',(0.0425,-0.0124968816350859,0.064325));
#1064=MECHANICAL_DESIGN_GEOMETRIC_PRESENTATION_REPRESENTATION('',(#639),
#1065);
#1065=(
GEOMETRIC_REPRESENTATION_CONTEXT(3)
GLOBAL_UNCERTAINTY_ASSIGNED_CONTEXT((#1066))
GLOBAL_UNIT_ASSIGNED_CONTEXT((#1069,#1068,#1067))
REPRESENTATION_CONTEXT('Part 1','TOP_LEVEL_ASSEMBLY_PART')
);
#1066=UNCERTAINTY_MEASURE_WITH_UNIT(LENGTH_MEASURE(1.E-8),#1069,
'DISTANCE_ACCURACY_VALUE','Maximum Tolerance applied to model');
#1067=(
NAMED_UNIT(*)
SI_UNIT($,.STERADIAN.)
SOLID_ANGLE_UNIT()
);
#1068=(
NAMED_UNIT(*)
PLANE_ANGLE_UNIT()
SI_UNIT($,.RADIAN.)
);
#1069=(
LENGTH_UNIT()
NAMED_UNIT(*)
SI_UNIT($,.METRE.)
);
#1070=PRODUCT_DEFINITION_SHAPE('','',#1071);
#1071=PRODUCT_DEFINITION('','',#1073,#1072);
#1072=PRODUCT_DEFINITION_CONTEXT('',#1079,'design');
#1073=PRODUCT_DEFINITION_FORMATION_WITH_SPECIFIED_SOURCE('','',#1075,
 .NOT_KNOWN.);
#1074=PRODUCT_RELATED_PRODUCT_CATEGORY('','',(#1075));
#1075=PRODUCT('Part 1','Part 1','Part 1',(#1077));
#1076=PRODUCT_CATEGORY('','');
#1077=PRODUCT_CONTEXT('',#1079,'mechanical');
#1078=APPLICATION_PROTOCOL_DEFINITION('international standard',
'ap242_managed_model_based_3d_engineering',2020,#1079);
#1079=APPLICATION_CONTEXT('managed model based 3d engineering');
ENDSEC;
END-ISO-10303-21;
