ISO-10303-21;
HEADER;
/* Generated by software containing ST-Developer
 * from STEP Tools, Inc. (www.steptools.com) 
 */
/* OPTION: using custom renumber hook */

FILE_DESCRIPTION(
/* description */ ('STEP AP242 Edition 2',
'CAx-IF Rec.Pracs.---Representation and Presentation of Product Manufa
cturing Information (PMI)---4.0---2014-10-13',
'CAx-IF Rec.Pracs.---3D Tessellated Geometry---0.4---2014-09-14','2;1',
'CAx-IF Rec.Pracs.---User Defined Attributes---1.5---2016-08-15'),
/* implementation_level */ '2;1');

FILE_NAME(
/* name */ 'Yaxis nema bore holder',
/* time_stamp */ '2026-06-27T07:21:51Z',
/* author */ (''),
/* organization */ (''),
/* preprocessor_version */ 'ST-DEVELOPER v20',
/* originating_system */ 'ONSHAPE BY PTC INC, 1.217',
/* authorisation */ '  ');

FILE_SCHEMA (('AP242_MANAGED_MODEL_BASED_3D_ENGINEERING_MIM_LF { 1 0 10303 442 3 1 4 }'));
ENDSEC;

DATA;
#10=SHAPE_REPRESENTATION_RELATIONSHIP('','',#639,#11);
#11=ADVANCED_BREP_SHAPE_REPRESENTATION('',(#637),#1053);
#12=CYLINDRICAL_SURFACE('',#643,0.006);
#13=CYLINDRICAL_SURFACE('',#657,0.0175);
#14=CYLINDRICAL_SURFACE('',#662,0.0015);
#15=CYLINDRICAL_SURFACE('',#665,0.0015);
#16=CYLINDRICAL_SURFACE('',#668,0.0015);
#17=CYLINDRICAL_SURFACE('',#671,0.0015);
#18=CYLINDRICAL_SURFACE('',#679,0.004);
#19=CYLINDRICAL_SURFACE('',#682,0.021);
#20=CYLINDRICAL_SURFACE('',#688,0.0075);
#21=CYLINDRICAL_SURFACE('',#692,0.0025);
#22=CYLINDRICAL_SURFACE('',#695,0.0025);
#23=CIRCLE('',#642,0.006);
#24=CIRCLE('',#644,0.006);
#25=CIRCLE('',#645,0.006);
#26=CIRCLE('',#646,0.006);
#27=CIRCLE('',#648,0.0075);
#28=CIRCLE('',#649,0.021);
#29=CIRCLE('',#651,0.0025);
#30=CIRCLE('',#652,0.021);
#31=CIRCLE('',#658,0.0175);
#32=CIRCLE('',#659,0.0175);
#33=CIRCLE('',#663,0.0015);
#34=CIRCLE('',#664,0.0015);
#35=CIRCLE('',#666,0.0015);
#36=CIRCLE('',#667,0.0015);
#37=CIRCLE('',#669,0.0015);
#38=CIRCLE('',#670,0.0015);
#39=CIRCLE('',#672,0.0015);
#40=CIRCLE('',#673,0.0015);
#41=CIRCLE('',#675,0.0025);
#42=CIRCLE('',#678,0.004);
#43=CIRCLE('',#680,0.004);
#44=CIRCLE('',#689,0.0075);
#45=CIRCLE('',#691,0.0025);
#46=CIRCLE('',#693,0.0025);
#47=ORIENTED_EDGE('',*,*,#207,.F.);
#48=ORIENTED_EDGE('',*,*,#208,.T.);
#49=ORIENTED_EDGE('',*,*,#209,.T.);
#50=ORIENTED_EDGE('',*,*,#210,.T.);
#51=ORIENTED_EDGE('',*,*,#211,.F.);
#52=ORIENTED_EDGE('',*,*,#212,.F.);
#53=ORIENTED_EDGE('',*,*,#213,.T.);
#54=ORIENTED_EDGE('',*,*,#214,.T.);
#55=ORIENTED_EDGE('',*,*,#210,.F.);
#56=ORIENTED_EDGE('',*,*,#215,.F.);
#57=ORIENTED_EDGE('',*,*,#216,.T.);
#58=ORIENTED_EDGE('',*,*,#217,.T.);
#59=ORIENTED_EDGE('',*,*,#218,.T.);
#60=ORIENTED_EDGE('',*,*,#219,.T.);
#61=ORIENTED_EDGE('',*,*,#220,.T.);
#62=ORIENTED_EDGE('',*,*,#221,.T.);
#63=ORIENTED_EDGE('',*,*,#222,.F.);
#64=ORIENTED_EDGE('',*,*,#223,.F.);
#65=ORIENTED_EDGE('',*,*,#224,.F.);
#66=ORIENTED_EDGE('',*,*,#225,.T.);
#67=ORIENTED_EDGE('',*,*,#226,.T.);
#68=ORIENTED_EDGE('',*,*,#208,.F.);
#69=ORIENTED_EDGE('',*,*,#227,.F.);
#70=ORIENTED_EDGE('',*,*,#228,.F.);
#71=ORIENTED_EDGE('',*,*,#229,.F.);
#72=ORIENTED_EDGE('',*,*,#230,.F.);
#73=ORIENTED_EDGE('',*,*,#231,.T.);
#74=ORIENTED_EDGE('',*,*,#232,.T.);
#75=ORIENTED_EDGE('',*,*,#233,.F.);
#76=ORIENTED_EDGE('',*,*,#234,.T.);
#77=ORIENTED_EDGE('',*,*,#226,.F.);
#78=ORIENTED_EDGE('',*,*,#235,.F.);
#79=ORIENTED_EDGE('',*,*,#229,.T.);
#80=ORIENTED_EDGE('',*,*,#236,.T.);
#81=ORIENTED_EDGE('',*,*,#237,.T.);
#82=ORIENTED_EDGE('',*,*,#238,.T.);
#83=ORIENTED_EDGE('',*,*,#239,.F.);
#84=ORIENTED_EDGE('',*,*,#240,.T.);
#85=ORIENTED_EDGE('',*,*,#241,.F.);
#86=ORIENTED_EDGE('',*,*,#242,.F.);
#87=ORIENTED_EDGE('',*,*,#243,.F.);
#88=ORIENTED_EDGE('',*,*,#231,.F.);
#89=ORIENTED_EDGE('',*,*,#244,.T.);
#90=ORIENTED_EDGE('',*,*,#227,.T.);
#91=ORIENTED_EDGE('',*,*,#232,.F.);
#92=ORIENTED_EDGE('',*,*,#243,.T.);
#93=ORIENTED_EDGE('',*,*,#245,.T.);
#94=ORIENTED_EDGE('',*,*,#236,.F.);
#95=ORIENTED_EDGE('',*,*,#246,.F.);
#96=ORIENTED_EDGE('',*,*,#247,.F.);
#97=ORIENTED_EDGE('',*,*,#248,.T.);
#98=ORIENTED_EDGE('',*,*,#242,.T.);
#99=ORIENTED_EDGE('',*,*,#249,.T.);
#100=ORIENTED_EDGE('',*,*,#250,.F.);
#101=ORIENTED_EDGE('',*,*,#251,.F.);
#102=ORIENTED_EDGE('',*,*,#247,.T.);
#103=ORIENTED_EDGE('',*,*,#252,.T.);
#104=ORIENTED_EDGE('',*,*,#237,.F.);
#105=ORIENTED_EDGE('',*,*,#253,.F.);
#106=ORIENTED_EDGE('',*,*,#250,.T.);
#107=ORIENTED_EDGE('',*,*,#254,.F.);
#108=ORIENTED_EDGE('',*,*,#213,.F.);
#109=ORIENTED_EDGE('',*,*,#255,.F.);
#110=ORIENTED_EDGE('',*,*,#216,.F.);
#111=ORIENTED_EDGE('',*,*,#256,.T.);
#112=ORIENTED_EDGE('',*,*,#233,.T.);
#113=ORIENTED_EDGE('',*,*,#257,.F.);
#114=ORIENTED_EDGE('',*,*,#240,.F.);
#115=ORIENTED_EDGE('',*,*,#258,.T.);
#116=ORIENTED_EDGE('',*,*,#259,.F.);
#117=ORIENTED_EDGE('',*,*,#260,.T.);
#118=ORIENTED_EDGE('',*,*,#261,.F.);
#119=ORIENTED_EDGE('',*,*,#262,.T.);
#120=ORIENTED_EDGE('',*,*,#263,.F.);
#121=ORIENTED_EDGE('',*,*,#264,.T.);
#122=ORIENTED_EDGE('',*,*,#265,.F.);
#123=ORIENTED_EDGE('',*,*,#266,.F.);
#124=ORIENTED_EDGE('',*,*,#245,.F.);
#125=ORIENTED_EDGE('',*,*,#248,.F.);
#126=ORIENTED_EDGE('',*,*,#251,.T.);
#127=ORIENTED_EDGE('',*,*,#253,.T.);
#128=ORIENTED_EDGE('',*,*,#262,.F.);
#129=ORIENTED_EDGE('',*,*,#260,.F.);
#130=ORIENTED_EDGE('',*,*,#258,.F.);
#131=ORIENTED_EDGE('',*,*,#264,.F.);
#132=ORIENTED_EDGE('',*,*,#246,.T.);
#133=ORIENTED_EDGE('',*,*,#241,.T.);
#134=ORIENTED_EDGE('',*,*,#257,.T.);
#135=ORIENTED_EDGE('',*,*,#238,.F.);
#136=ORIENTED_EDGE('',*,*,#252,.F.);
#137=ORIENTED_EDGE('',*,*,#249,.F.);
#138=ORIENTED_EDGE('',*,*,#263,.T.);
#139=ORIENTED_EDGE('',*,*,#261,.T.);
#140=ORIENTED_EDGE('',*,*,#259,.T.);
#141=ORIENTED_EDGE('',*,*,#265,.T.);
#142=ORIENTED_EDGE('',*,*,#267,.F.);
#143=ORIENTED_EDGE('',*,*,#268,.F.);
#144=ORIENTED_EDGE('',*,*,#269,.F.);
#145=ORIENTED_EDGE('',*,*,#270,.T.);
#146=ORIENTED_EDGE('',*,*,#269,.T.);
#147=ORIENTED_EDGE('',*,*,#271,.T.);
#148=ORIENTED_EDGE('',*,*,#272,.F.);
#149=ORIENTED_EDGE('',*,*,#273,.F.);
#150=ORIENTED_EDGE('',*,*,#272,.T.);
#151=ORIENTED_EDGE('',*,*,#274,.T.);
#152=ORIENTED_EDGE('',*,*,#219,.F.);
#153=ORIENTED_EDGE('',*,*,#275,.F.);
#154=ORIENTED_EDGE('',*,*,#230,.T.);
#155=ORIENTED_EDGE('',*,*,#235,.T.);
#156=ORIENTED_EDGE('',*,*,#225,.F.);
#157=ORIENTED_EDGE('',*,*,#244,.F.);
#158=ORIENTED_EDGE('',*,*,#268,.T.);
#159=ORIENTED_EDGE('',*,*,#211,.T.);
#160=ORIENTED_EDGE('',*,*,#274,.F.);
#161=ORIENTED_EDGE('',*,*,#271,.F.);
#162=ORIENTED_EDGE('',*,*,#273,.T.);
#163=ORIENTED_EDGE('',*,*,#275,.T.);
#164=ORIENTED_EDGE('',*,*,#218,.F.);
#165=ORIENTED_EDGE('',*,*,#270,.F.);
#166=ORIENTED_EDGE('',*,*,#254,.T.);
#167=ORIENTED_EDGE('',*,*,#239,.T.);
#168=ORIENTED_EDGE('',*,*,#207,.T.);
#169=ORIENTED_EDGE('',*,*,#214,.F.);
#170=ORIENTED_EDGE('',*,*,#255,.T.);
#171=ORIENTED_EDGE('',*,*,#212,.T.);
#172=ORIENTED_EDGE('',*,*,#267,.T.);
#173=ORIENTED_EDGE('',*,*,#217,.F.);
#174=ORIENTED_EDGE('',*,*,#215,.T.);
#175=ORIENTED_EDGE('',*,*,#209,.F.);
#176=ORIENTED_EDGE('',*,*,#234,.F.);
#177=ORIENTED_EDGE('',*,*,#256,.F.);
#178=ORIENTED_EDGE('',*,*,#276,.F.);
#179=ORIENTED_EDGE('',*,*,#224,.T.);
#180=ORIENTED_EDGE('',*,*,#277,.F.);
#181=ORIENTED_EDGE('',*,*,#276,.T.);
#182=ORIENTED_EDGE('',*,*,#278,.F.);
#183=ORIENTED_EDGE('',*,*,#277,.T.);
#184=ORIENTED_EDGE('',*,*,#278,.T.);
#185=ORIENTED_EDGE('',*,*,#266,.T.);
#186=ORIENTED_EDGE('',*,*,#228,.T.);
#187=ORIENTED_EDGE('',*,*,#220,.F.);
#188=ORIENTED_EDGE('',*,*,#279,.F.);
#189=ORIENTED_EDGE('',*,*,#280,.T.);
#190=ORIENTED_EDGE('',*,*,#281,.T.);
#191=ORIENTED_EDGE('',*,*,#223,.T.);
#192=ORIENTED_EDGE('',*,*,#282,.F.);
#193=ORIENTED_EDGE('',*,*,#283,.F.);
#194=ORIENTED_EDGE('',*,*,#279,.T.);
#195=ORIENTED_EDGE('',*,*,#222,.T.);
#196=ORIENTED_EDGE('',*,*,#284,.F.);
#197=ORIENTED_EDGE('',*,*,#285,.F.);
#198=ORIENTED_EDGE('',*,*,#282,.T.);
#199=ORIENTED_EDGE('',*,*,#221,.F.);
#200=ORIENTED_EDGE('',*,*,#281,.F.);
#201=ORIENTED_EDGE('',*,*,#286,.T.);
#202=ORIENTED_EDGE('',*,*,#284,.T.);
#203=ORIENTED_EDGE('',*,*,#280,.F.);
#204=ORIENTED_EDGE('',*,*,#283,.T.);
#205=ORIENTED_EDGE('',*,*,#285,.T.);
#206=ORIENTED_EDGE('',*,*,#286,.F.);
#207=EDGE_CURVE('',#287,#288,#343,.T.);
#208=EDGE_CURVE('',#287,#289,#344,.T.);
#209=EDGE_CURVE('',#289,#290,#345,.T.);
#210=EDGE_CURVE('',#290,#288,#23,.T.);
#211=EDGE_CURVE('',#291,#292,#346,.F.);
#212=EDGE_CURVE('',#293,#291,#347,.T.);
#213=EDGE_CURVE('',#293,#294,#24,.F.);
#214=EDGE_CURVE('',#294,#288,#348,.T.);
#215=EDGE_CURVE('',#295,#290,#349,.T.);
#216=EDGE_CURVE('',#295,#296,#25,.F.);
#217=EDGE_CURVE('',#296,#297,#350,.T.);
#218=EDGE_CURVE('',#297,#298,#351,.F.);
#219=EDGE_CURVE('',#298,#292,#26,.T.);
#220=EDGE_CURVE('',#299,#300,#352,.T.);
#221=EDGE_CURVE('',#300,#301,#353,.T.);
#222=EDGE_CURVE('',#302,#301,#354,.T.);
#223=EDGE_CURVE('',#299,#302,#355,.T.);
#224=EDGE_CURVE('',#303,#303,#27,.T.);
#225=EDGE_CURVE('',#304,#305,#28,.T.);
#226=EDGE_CURVE('',#305,#289,#356,.T.);
#227=EDGE_CURVE('',#304,#287,#357,.T.);
#228=EDGE_CURVE('',#306,#306,#29,.F.);
#229=EDGE_CURVE('',#307,#308,#358,.T.);
#230=EDGE_CURVE('',#309,#307,#30,.T.);
#231=EDGE_CURVE('',#309,#310,#359,.T.);
#232=EDGE_CURVE('',#310,#308,#360,.T.);
#233=EDGE_CURVE('',#311,#312,#361,.T.);
#234=EDGE_CURVE('',#311,#289,#362,.T.);
#235=EDGE_CURVE('',#307,#305,#363,.T.);
#236=EDGE_CURVE('',#308,#313,#364,.T.);
#237=EDGE_CURVE('',#313,#314,#365,.T.);
#238=EDGE_CURVE('',#314,#312,#366,.T.);
#239=EDGE_CURVE('',#315,#287,#367,.T.);
#240=EDGE_CURVE('',#315,#316,#368,.T.);
#241=EDGE_CURVE('',#317,#316,#369,.T.);
#242=EDGE_CURVE('',#318,#317,#370,.T.);
#243=EDGE_CURVE('',#310,#318,#371,.T.);
#244=EDGE_CURVE('',#309,#304,#372,.T.);
#245=EDGE_CURVE('',#318,#313,#373,.T.);
#246=EDGE_CURVE('',#319,#317,#374,.T.);
#247=EDGE_CURVE('',#320,#319,#375,.T.);
#248=EDGE_CURVE('',#320,#318,#376,.T.);
#249=EDGE_CURVE('',#319,#321,#31,.T.);
#250=EDGE_CURVE('',#322,#321,#377,.T.);
#251=EDGE_CURVE('',#320,#322,#32,.T.);
#252=EDGE_CURVE('',#321,#314,#378,.T.);
#253=EDGE_CURVE('',#322,#313,#379,.T.);
#254=EDGE_CURVE('',#294,#315,#380,.T.);
#255=EDGE_CURVE('',#296,#293,#381,.T.);
#256=EDGE_CURVE('',#295,#311,#382,.T.);
#257=EDGE_CURVE('',#316,#312,#383,.T.);
#258=EDGE_CURVE('',#323,#323,#33,.T.);
#259=EDGE_CURVE('',#324,#324,#34,.T.);
#260=EDGE_CURVE('',#325,#325,#35,.T.);
#261=EDGE_CURVE('',#326,#326,#36,.T.);
#262=EDGE_CURVE('',#327,#327,#37,.T.);
#263=EDGE_CURVE('',#328,#328,#38,.T.);
#264=EDGE_CURVE('',#329,#329,#39,.T.);
#265=EDGE_CURVE('',#330,#330,#40,.T.);
#266=EDGE_CURVE('',#331,#331,#41,.T.);
#267=EDGE_CURVE('',#291,#297,#384,.T.);
#268=EDGE_CURVE('',#332,#291,#385,.T.);
#269=EDGE_CURVE('',#333,#332,#42,.T.);
#270=EDGE_CURVE('',#333,#297,#386,.T.);
#271=EDGE_CURVE('',#332,#334,#387,.F.);
#272=EDGE_CURVE('',#335,#334,#43,.T.);
#273=EDGE_CURVE('',#333,#335,#388,.F.);
#274=EDGE_CURVE('',#334,#292,#389,.T.);
#275=EDGE_CURVE('',#335,#298,#390,.T.);
#276=EDGE_CURVE('',#336,#336,#44,.T.);
#277=EDGE_CURVE('',#337,#337,#45,.T.);
#278=EDGE_CURVE('',#338,#338,#46,.T.);
#279=EDGE_CURVE('',#339,#299,#391,.T.);
#280=EDGE_CURVE('',#339,#340,#392,.T.);
#281=EDGE_CURVE('',#340,#300,#393,.T.);
#282=EDGE_CURVE('',#341,#302,#394,.T.);
#283=EDGE_CURVE('',#339,#341,#395,.T.);
#284=EDGE_CURVE('',#342,#301,#396,.T.);
#285=EDGE_CURVE('',#341,#342,#397,.T.);
#286=EDGE_CURVE('',#340,#342,#398,.T.);
#287=VERTEX_POINT('',#882);
#288=VERTEX_POINT('',#883);
#289=VERTEX_POINT('',#885);
#290=VERTEX_POINT('',#887);
#291=VERTEX_POINT('',#891);
#292=VERTEX_POINT('',#892);
#293=VERTEX_POINT('',#894);
#294=VERTEX_POINT('',#896);
#295=VERTEX_POINT('',#899);
#296=VERTEX_POINT('',#901);
#297=VERTEX_POINT('',#903);
#298=VERTEX_POINT('',#905);
#299=VERTEX_POINT('',#909);
#300=VERTEX_POINT('',#910);
#301=VERTEX_POINT('',#912);
#302=VERTEX_POINT('',#914);
#303=VERTEX_POINT('',#917);
#304=VERTEX_POINT('',#919);
#305=VERTEX_POINT('',#920);
#306=VERTEX_POINT('',#925);
#307=VERTEX_POINT('',#927);
#308=VERTEX_POINT('',#928);
#309=VERTEX_POINT('',#930);
#310=VERTEX_POINT('',#932);
#311=VERTEX_POINT('',#936);
#312=VERTEX_POINT('',#937);
#313=VERTEX_POINT('',#941);
#314=VERTEX_POINT('',#943);
#315=VERTEX_POINT('',#947);
#316=VERTEX_POINT('',#949);
#317=VERTEX_POINT('',#951);
#318=VERTEX_POINT('',#953);
#319=VERTEX_POINT('',#960);
#320=VERTEX_POINT('',#962);
#321=VERTEX_POINT('',#966);
#322=VERTEX_POINT('',#968);
#323=VERTEX_POINT('',#980);
#324=VERTEX_POINT('',#982);
#325=VERTEX_POINT('',#985);
#326=VERTEX_POINT('',#987);
#327=VERTEX_POINT('',#990);
#328=VERTEX_POINT('',#992);
#329=VERTEX_POINT('',#995);
#330=VERTEX_POINT('',#997);
#331=VERTEX_POINT('',#1000);
#332=VERTEX_POINT('',#1005);
#333=VERTEX_POINT('',#1007);
#334=VERTEX_POINT('',#1011);
#335=VERTEX_POINT('',#1013);
#336=VERTEX_POINT('',#1026);
#337=VERTEX_POINT('',#1029);
#338=VERTEX_POINT('',#1032);
#339=VERTEX_POINT('',#1037);
#340=VERTEX_POINT('',#1039);
#341=VERTEX_POINT('',#1043);
#342=VERTEX_POINT('',#1047);
#343=LINE('',#881,#399);
#344=LINE('',#884,#400);
#345=LINE('',#886,#401);
#346=LINE('',#890,#402);
#347=LINE('',#893,#403);
#348=LINE('',#897,#404);
#349=LINE('',#898,#405);
#350=LINE('',#902,#406);
#351=LINE('',#904,#407);
#352=LINE('',#908,#408);
#353=LINE('',#911,#409);
#354=LINE('',#913,#410);
#355=LINE('',#915,#411);
#356=LINE('',#921,#412);
#357=LINE('',#922,#413);
#358=LINE('',#926,#414);
#359=LINE('',#931,#415);
#360=LINE('',#933,#416);
#361=LINE('',#935,#417);
#362=LINE('',#938,#418);
#363=LINE('',#939,#419);
#364=LINE('',#940,#420);
#365=LINE('',#942,#421);
#366=LINE('',#944,#422);
#367=LINE('',#946,#423);
#368=LINE('',#948,#424);
#369=LINE('',#950,#425);
#370=LINE('',#952,#426);
#371=LINE('',#954,#427);
#372=LINE('',#955,#428);
#373=LINE('',#957,#429);
#374=LINE('',#959,#430);
#375=LINE('',#961,#431);
#376=LINE('',#963,#432);
#377=LINE('',#967,#433);
#378=LINE('',#971,#434);
#379=LINE('',#972,#435);
#380=LINE('',#974,#436);
#381=LINE('',#975,#437);
#382=LINE('',#976,#438);
#383=LINE('',#977,#439);
#384=LINE('',#1003,#440);
#385=LINE('',#1004,#441);
#386=LINE('',#1008,#442);
#387=LINE('',#1010,#443);
#388=LINE('',#1014,#444);
#389=LINE('',#1016,#445);
#390=LINE('',#1017,#446);
#391=LINE('',#1036,#447);
#392=LINE('',#1038,#448);
#393=LINE('',#1040,#449);
#394=LINE('',#1042,#450);
#395=LINE('',#1044,#451);
#396=LINE('',#1046,#452);
#397=LINE('',#1048,#453);
#398=LINE('',#1050,#454);
#399=VECTOR('',#705,1.);
#400=VECTOR('',#706,1.);
#401=VECTOR('',#707,1.);
#402=VECTOR('',#712,1.);
#403=VECTOR('',#713,1.);
#404=VECTOR('',#716,1.);
#405=VECTOR('',#717,1.);
#406=VECTOR('',#720,1.);
#407=VECTOR('',#721,1.);
#408=VECTOR('',#726,1.);
#409=VECTOR('',#727,1.);
#410=VECTOR('',#728,1.);
#411=VECTOR('',#729,1.);
#412=VECTOR('',#734,1.);
#413=VECTOR('',#735,1.);
#414=VECTOR('',#740,1.);
#415=VECTOR('',#743,1.);
#416=VECTOR('',#744,1.);
#417=VECTOR('',#747,1.);
#418=VECTOR('',#748,1.);
#419=VECTOR('',#749,1.);
#420=VECTOR('',#750,1.);
#421=VECTOR('',#751,1.);
#422=VECTOR('',#752,1.);
#423=VECTOR('',#755,1.);
#424=VECTOR('',#756,1.);
#425=VECTOR('',#757,1.);
#426=VECTOR('',#758,1.);
#427=VECTOR('',#759,1.);
#428=VECTOR('',#760,1.);
#429=VECTOR('',#763,1.);
#430=VECTOR('',#766,1.);
#431=VECTOR('',#767,1.);
#432=VECTOR('',#768,1.);
#433=VECTOR('',#773,1.);
#434=VECTOR('',#778,1.);
#435=VECTOR('',#779,1.);
#436=VECTOR('',#782,1.);
#437=VECTOR('',#783,1.);
#438=VECTOR('',#784,1.);
#439=VECTOR('',#785,1.);
#440=VECTOR('',#818,1.);
#441=VECTOR('',#819,1.);
#442=VECTOR('',#822,1.);
#443=VECTOR('',#825,1.);
#444=VECTOR('',#828,1.);
#445=VECTOR('',#831,1.);
#446=VECTOR('',#832,1.);
#447=VECTOR('',#863,1.);
#448=VECTOR('',#864,1.);
#449=VECTOR('',#865,1.);
#450=VECTOR('',#868,1.);
#451=VECTOR('',#869,1.);
#452=VECTOR('',#872,1.);
#453=VECTOR('',#873,1.);
#454=VECTOR('',#876,1.);
#455=EDGE_LOOP('',(#47,#48,#49,#50));
#456=EDGE_LOOP('',(#51,#52,#53,#54,#55,#56,#57,#58,#59,#60));
#457=EDGE_LOOP('',(#61,#62,#63,#64));
#458=EDGE_LOOP('',(#65));
#459=EDGE_LOOP('',(#66,#67,#68,#69));
#460=EDGE_LOOP('',(#70));
#461=EDGE_LOOP('',(#71,#72,#73,#74));
#462=EDGE_LOOP('',(#75,#76,#77,#78,#79,#80,#81,#82));
#463=EDGE_LOOP('',(#83,#84,#85,#86,#87,#88,#89,#90));
#464=EDGE_LOOP('',(#91,#92,#93,#94));
#465=EDGE_LOOP('',(#95,#96,#97,#98));
#466=EDGE_LOOP('',(#99,#100,#101,#102));
#467=EDGE_LOOP('',(#103,#104,#105,#106));
#468=EDGE_LOOP('',(#107,#108,#109,#110,#111,#112,#113,#114));
#469=EDGE_LOOP('',(#115));
#470=EDGE_LOOP('',(#116));
#471=EDGE_LOOP('',(#117));
#472=EDGE_LOOP('',(#118));
#473=EDGE_LOOP('',(#119));
#474=EDGE_LOOP('',(#120));
#475=EDGE_LOOP('',(#121));
#476=EDGE_LOOP('',(#122));
#477=EDGE_LOOP('',(#123));
#478=EDGE_LOOP('',(#124,#125,#126,#127));
#479=EDGE_LOOP('',(#128));
#480=EDGE_LOOP('',(#129));
#481=EDGE_LOOP('',(#130));
#482=EDGE_LOOP('',(#131));
#483=EDGE_LOOP('',(#132,#133,#134,#135,#136,#137));
#484=EDGE_LOOP('',(#138));
#485=EDGE_LOOP('',(#139));
#486=EDGE_LOOP('',(#140));
#487=EDGE_LOOP('',(#141));
#488=EDGE_LOOP('',(#142,#143,#144,#145));
#489=EDGE_LOOP('',(#146,#147,#148,#149));
#490=EDGE_LOOP('',(#150,#151,#152,#153));
#491=EDGE_LOOP('',(#154,#155,#156,#157));
#492=EDGE_LOOP('',(#158,#159,#160,#161));
#493=EDGE_LOOP('',(#162,#163,#164,#165));
#494=EDGE_LOOP('',(#166,#167,#168,#169));
#495=EDGE_LOOP('',(#170,#171,#172,#173));
#496=EDGE_LOOP('',(#174,#175,#176,#177));
#497=EDGE_LOOP('',(#178));
#498=EDGE_LOOP('',(#179));
#499=EDGE_LOOP('',(#180));
#500=EDGE_LOOP('',(#181));
#501=EDGE_LOOP('',(#182));
#502=EDGE_LOOP('',(#183));
#503=EDGE_LOOP('',(#184));
#504=EDGE_LOOP('',(#185));
#505=EDGE_LOOP('',(#186));
#506=EDGE_LOOP('',(#187,#188,#189,#190));
#507=EDGE_LOOP('',(#191,#192,#193,#194));
#508=EDGE_LOOP('',(#195,#196,#197,#198));
#509=EDGE_LOOP('',(#199,#200,#201,#202));
#510=EDGE_LOOP('',(#203,#204,#205,#206));
#511=FACE_BOUND('',#455,.T.);
#512=FACE_BOUND('',#456,.T.);
#513=FACE_BOUND('',#457,.T.);
#514=FACE_BOUND('',#458,.T.);
#515=FACE_BOUND('',#459,.T.);
#516=FACE_BOUND('',#460,.T.);
#517=FACE_BOUND('',#461,.T.);
#518=FACE_BOUND('',#462,.T.);
#519=FACE_BOUND('',#463,.T.);
#520=FACE_BOUND('',#464,.T.);
#521=FACE_BOUND('',#465,.T.);
#522=FACE_BOUND('',#466,.T.);
#523=FACE_BOUND('',#467,.T.);
#524=FACE_BOUND('',#468,.T.);
#525=FACE_BOUND('',#469,.T.);
#526=FACE_BOUND('',#470,.T.);
#527=FACE_BOUND('',#471,.T.);
#528=FACE_BOUND('',#472,.T.);
#529=FACE_BOUND('',#473,.T.);
#530=FACE_BOUND('',#474,.T.);
#531=FACE_BOUND('',#475,.T.);
#532=FACE_BOUND('',#476,.T.);
#533=FACE_BOUND('',#477,.T.);
#534=FACE_BOUND('',#478,.T.);
#535=FACE_BOUND('',#479,.T.);
#536=FACE_BOUND('',#480,.T.);
#537=FACE_BOUND('',#481,.T.);
#538=FACE_BOUND('',#482,.T.);
#539=FACE_BOUND('',#483,.T.);
#540=FACE_BOUND('',#484,.T.);
#541=FACE_BOUND('',#485,.T.);
#542=FACE_BOUND('',#486,.T.);
#543=FACE_BOUND('',#487,.T.);
#544=FACE_BOUND('',#488,.T.);
#545=FACE_BOUND('',#489,.T.);
#546=FACE_BOUND('',#490,.T.);
#547=FACE_BOUND('',#491,.T.);
#548=FACE_BOUND('',#492,.T.);
#549=FACE_BOUND('',#493,.T.);
#550=FACE_BOUND('',#494,.T.);
#551=FACE_BOUND('',#495,.T.);
#552=FACE_BOUND('',#496,.T.);
#553=FACE_BOUND('',#497,.T.);
#554=FACE_BOUND('',#498,.T.);
#555=FACE_BOUND('',#499,.T.);
#556=FACE_BOUND('',#500,.T.);
#557=FACE_BOUND('',#501,.T.);
#558=FACE_BOUND('',#502,.T.);
#559=FACE_BOUND('',#503,.T.);
#560=FACE_BOUND('',#504,.T.);
#561=FACE_BOUND('',#505,.T.);
#562=FACE_BOUND('',#506,.T.);
#563=FACE_BOUND('',#507,.T.);
#564=FACE_BOUND('',#508,.T.);
#565=FACE_BOUND('',#509,.T.);
#566=FACE_BOUND('',#510,.T.);
#567=PLANE('',#641);
#568=PLANE('',#647);
#569=PLANE('',#650);
#570=PLANE('',#653);
#571=PLANE('',#654);
#572=PLANE('',#655);
#573=PLANE('',#656);
#574=PLANE('',#660);
#575=PLANE('',#661);
#576=PLANE('',#674);
#577=PLANE('',#676);
#578=PLANE('',#677);
#579=PLANE('',#681);
#580=PLANE('',#683);
#581=PLANE('',#684);
#582=PLANE('',#685);
#583=PLANE('',#686);
#584=PLANE('',#687);
#585=PLANE('',#690);
#586=PLANE('',#694);
#587=PLANE('',#696);
#588=PLANE('',#697);
#589=PLANE('',#698);
#590=PLANE('',#699);
#591=PLANE('',#700);
#592=ADVANCED_FACE('',(#511),#567,.F.);
#593=ADVANCED_FACE('',(#512),#12,.T.);
#594=ADVANCED_FACE('',(#513,#514,#515),#568,.T.);
#595=ADVANCED_FACE('',(#516,#517),#569,.F.);
#596=ADVANCED_FACE('',(#518),#570,.F.);
#597=ADVANCED_FACE('',(#519),#571,.T.);
#598=ADVANCED_FACE('',(#520),#572,.F.);
#599=ADVANCED_FACE('',(#521),#573,.T.);
#600=ADVANCED_FACE('',(#522),#13,.T.);
#601=ADVANCED_FACE('',(#523),#574,.F.);
#602=ADVANCED_FACE('',(#524),#575,.T.);
#603=ADVANCED_FACE('',(#525,#526),#14,.F.);
#604=ADVANCED_FACE('',(#527,#528),#15,.F.);
#605=ADVANCED_FACE('',(#529,#530),#16,.F.);
#606=ADVANCED_FACE('',(#531,#532),#17,.F.);
#607=ADVANCED_FACE('',(#533,#534,#535,#536,#537,#538),#576,.T.);
#608=ADVANCED_FACE('',(#539,#540,#541,#542,#543),#577,.F.);
#609=ADVANCED_FACE('',(#544),#578,.F.);
#610=ADVANCED_FACE('',(#545),#18,.F.);
#611=ADVANCED_FACE('',(#546),#579,.F.);
#612=ADVANCED_FACE('',(#547),#19,.T.);
#613=ADVANCED_FACE('',(#548),#580,.F.);
#614=ADVANCED_FACE('',(#549),#581,.T.);
#615=ADVANCED_FACE('',(#550),#582,.F.);
#616=ADVANCED_FACE('',(#551),#583,.F.);
#617=ADVANCED_FACE('',(#552),#584,.T.);
#618=ADVANCED_FACE('',(#553,#554),#20,.T.);
#619=ADVANCED_FACE('',(#555,#556),#585,.T.);
#620=ADVANCED_FACE('',(#557,#558),#21,.T.);
#621=ADVANCED_FACE('',(#559),#586,.T.);
#622=ADVANCED_FACE('',(#560,#561),#22,.T.);
#623=ADVANCED_FACE('',(#562),#587,.T.);
#624=ADVANCED_FACE('',(#563),#588,.F.);
#625=ADVANCED_FACE('',(#564),#589,.F.);
#626=ADVANCED_FACE('',(#565),#590,.T.);
#627=ADVANCED_FACE('',(#566),#591,.T.);
#628=CLOSED_SHELL('',(#592,#593,#594,#595,#596,#597,#598,#599,#600,#601,
#602,#603,#604,#605,#606,#607,#608,#609,#610,#611,#612,#613,#614,#615,#616,
#617,#618,#619,#620,#621,#622,#623,#624,#625,#626,#627));
#629=STYLED_ITEM('',(#630),#637);
#630=PRESENTATION_STYLE_ASSIGNMENT((#631));
#631=SURFACE_STYLE_USAGE(.BOTH.,#632);
#632=SURFACE_SIDE_STYLE('',(#633));
#633=SURFACE_STYLE_FILL_AREA(#634);
#634=FILL_AREA_STYLE('',(#635));
#635=FILL_AREA_STYLE_COLOUR('',#636);
#636=COLOUR_RGB('',0.43921568627451,0.474509803921569,0.501960784313726);
#637=MANIFOLD_SOLID_BREP('Part 1',#628);
#638=SHAPE_DEFINITION_REPRESENTATION(#1058,#639);
#639=SHAPE_REPRESENTATION('Part 1',(#640),#1053);
#640=AXIS2_PLACEMENT_3D('',#879,#701,#702);
#641=AXIS2_PLACEMENT_3D('',#880,#703,#704);
#642=AXIS2_PLACEMENT_3D('',#888,#708,#709);
#643=AXIS2_PLACEMENT_3D('',#889,#710,#711);
#644=AXIS2_PLACEMENT_3D('',#895,#714,#715);
#645=AXIS2_PLACEMENT_3D('',#900,#718,#719);
#646=AXIS2_PLACEMENT_3D('',#906,#722,#723);
#647=AXIS2_PLACEMENT_3D('',#907,#724,#725);
#648=AXIS2_PLACEMENT_3D('',#916,#730,#731);
#649=AXIS2_PLACEMENT_3D('',#918,#732,#733);
#650=AXIS2_PLACEMENT_3D('',#923,#736,#737);
#651=AXIS2_PLACEMENT_3D('',#924,#738,#739);
#652=AXIS2_PLACEMENT_3D('',#929,#741,#742);
#653=AXIS2_PLACEMENT_3D('',#934,#745,#746);
#654=AXIS2_PLACEMENT_3D('',#945,#753,#754);
#655=AXIS2_PLACEMENT_3D('',#956,#761,#762);
#656=AXIS2_PLACEMENT_3D('',#958,#764,#765);
#657=AXIS2_PLACEMENT_3D('',#964,#769,#770);
#658=AXIS2_PLACEMENT_3D('',#965,#771,#772);
#659=AXIS2_PLACEMENT_3D('',#969,#774,#775);
#660=AXIS2_PLACEMENT_3D('',#970,#776,#777);
#661=AXIS2_PLACEMENT_3D('',#973,#780,#781);
#662=AXIS2_PLACEMENT_3D('',#978,#786,#787);
#663=AXIS2_PLACEMENT_3D('',#979,#788,#789);
#664=AXIS2_PLACEMENT_3D('',#981,#790,#791);
#665=AXIS2_PLACEMENT_3D('',#983,#792,#793);
#666=AXIS2_PLACEMENT_3D('',#984,#794,#795);
#667=AXIS2_PLACEMENT_3D('',#986,#796,#797);
#668=AXIS2_PLACEMENT_3D('',#988,#798,#799);
#669=AXIS2_PLACEMENT_3D('',#989,#800,#801);
#670=AXIS2_PLACEMENT_3D('',#991,#802,#803);
#671=AXIS2_PLACEMENT_3D('',#993,#804,#805);
#672=AXIS2_PLACEMENT_3D('',#994,#806,#807);
#673=AXIS2_PLACEMENT_3D('',#996,#808,#809);
#674=AXIS2_PLACEMENT_3D('',#998,#810,#811);
#675=AXIS2_PLACEMENT_3D('',#999,#812,#813);
#676=AXIS2_PLACEMENT_3D('',#1001,#814,#815);
#677=AXIS2_PLACEMENT_3D('',#1002,#816,#817);
#678=AXIS2_PLACEMENT_3D('',#1006,#820,#821);
#679=AXIS2_PLACEMENT_3D('',#1009,#823,#824);
#680=AXIS2_PLACEMENT_3D('',#1012,#826,#827);
#681=AXIS2_PLACEMENT_3D('',#1015,#829,#830);
#682=AXIS2_PLACEMENT_3D('',#1018,#833,#834);
#683=AXIS2_PLACEMENT_3D('',#1019,#835,#836);
#684=AXIS2_PLACEMENT_3D('',#1020,#837,#838);
#685=AXIS2_PLACEMENT_3D('',#1021,#839,#840);
#686=AXIS2_PLACEMENT_3D('',#1022,#841,#842);
#687=AXIS2_PLACEMENT_3D('',#1023,#843,#844);
#688=AXIS2_PLACEMENT_3D('',#1024,#845,#846);
#689=AXIS2_PLACEMENT_3D('',#1025,#847,#848);
#690=AXIS2_PLACEMENT_3D('',#1027,#849,#850);
#691=AXIS2_PLACEMENT_3D('',#1028,#851,#852);
#692=AXIS2_PLACEMENT_3D('',#1030,#853,#854);
#693=AXIS2_PLACEMENT_3D('',#1031,#855,#856);
#694=AXIS2_PLACEMENT_3D('',#1033,#857,#858);
#695=AXIS2_PLACEMENT_3D('',#1034,#859,#860);
#696=AXIS2_PLACEMENT_3D('',#1035,#861,#862);
#697=AXIS2_PLACEMENT_3D('',#1041,#866,#867);
#698=AXIS2_PLACEMENT_3D('',#1045,#870,#871);
#699=AXIS2_PLACEMENT_3D('',#1049,#874,#875);
#700=AXIS2_PLACEMENT_3D('',#1051,#877,#878);
#701=DIRECTION('',(0.,0.,1.));
#702=DIRECTION('',(1.,0.,0.));
#703=DIRECTION('',(1.,3.30423519233678E-16,0.));
#704=DIRECTION('',(-3.30423519233678E-16,1.,0.));
#705=DIRECTION('',(1.27525026592019E-16,-0.385944157025434,0.922522144806252));
#706=DIRECTION('',(3.30423519233678E-16,-1.,0.));
#707=DIRECTION('',(-1.27525026592019E-16,0.385944157025434,0.922522144806252));
#708=DIRECTION('',(1.,3.30423519233678E-16,0.));
#709=DIRECTION('',(-3.30423519233678E-16,1.,0.));
#710=DIRECTION('',(1.,1.65211759616839E-16,0.));
#711=DIRECTION('',(-1.65211759616839E-16,1.,0.));
#712=DIRECTION('',(1.,1.65211759616839E-16,0.));
#713=DIRECTION('',(-1.,-3.30423519233678E-16,0.));
#714=DIRECTION('',(1.,1.65211759616839E-16,0.));
#715=DIRECTION('',(-1.65211759616839E-16,1.,0.));
#716=DIRECTION('',(-1.,-3.30423519233678E-16,0.));
#717=DIRECTION('',(-1.,-3.30423519233678E-16,0.));
#718=DIRECTION('',(1.,1.65211759616839E-16,0.));
#719=DIRECTION('',(-1.65211759616839E-16,1.,0.));
#720=DIRECTION('',(-1.,-3.30423519233678E-16,0.));
#721=DIRECTION('',(1.,1.65211759616839E-16,0.));
#722=DIRECTION('',(1.,1.65211759616839E-16,0.));
#723=DIRECTION('',(-1.65211759616839E-16,1.,0.));
#724=DIRECTION('',(0.,0.,1.));
#725=DIRECTION('',(1.,0.,0.));
#726=DIRECTION('',(-1.,0.,0.));
#727=DIRECTION('',(0.,1.,0.));
#728=DIRECTION('',(-1.,0.,0.));
#729=DIRECTION('',(1.0842021724855E-16,1.,0.));
#730=DIRECTION('',(0.,0.,1.));
#731=DIRECTION('',(1.,0.,0.));
#732=DIRECTION('',(0.,0.,1.));
#733=DIRECTION('',(1.,0.,0.));
#734=DIRECTION('',(1.,3.30423519233678E-16,0.));
#735=DIRECTION('',(1.,3.30423519233678E-16,0.));
#736=DIRECTION('',(0.,0.,1.));
#737=DIRECTION('',(1.,0.,0.));
#738=DIRECTION('',(0.,0.,1.));
#739=DIRECTION('',(1.,0.,0.));
#740=DIRECTION('',(1.,3.30423519233678E-16,0.));
#741=DIRECTION('',(0.,0.,1.));
#742=DIRECTION('',(1.,0.,0.));
#743=DIRECTION('',(1.,3.30423519233678E-16,0.));
#744=DIRECTION('',(3.30423519233678E-16,-1.,0.));
#745=DIRECTION('',(0.,1.,0.));
#746=DIRECTION('',(0.,0.,1.));
#747=DIRECTION('',(0.,0.,-1.));
#748=DIRECTION('',(-1.,-3.30423519233678E-16,0.));
#749=DIRECTION('',(0.,0.,1.));
#750=DIRECTION('',(0.,0.,-1.));
#751=DIRECTION('',(0.,0.,-1.));
#752=DIRECTION('',(1.,0.,0.));
#753=DIRECTION('',(0.,1.,0.));
#754=DIRECTION('',(0.,0.,1.));
#755=DIRECTION('',(-1.,-3.30423519233678E-16,0.));
#756=DIRECTION('',(0.,0.,-1.));
#757=DIRECTION('',(1.,0.,0.));
#758=DIRECTION('',(0.,0.,-1.));
#759=DIRECTION('',(0.,0.,-1.));
#760=DIRECTION('',(0.,0.,1.));
#761=DIRECTION('',(1.,3.30423519233678E-16,0.));
#762=DIRECTION('',(-3.30423519233678E-16,1.,0.));
#763=DIRECTION('',(3.30423519233678E-16,-1.,0.));
#764=DIRECTION('',(-0.196116135138184,0.98058067569092,0.));
#765=DIRECTION('',(-0.98058067569092,-0.196116135138184,0.));
#766=DIRECTION('',(0.98058067569092,0.196116135138184,0.));
#767=DIRECTION('',(0.,0.,-1.));
#768=DIRECTION('',(0.98058067569092,0.196116135138184,0.));
#769=DIRECTION('',(0.,0.,-1.));
#770=DIRECTION('',(-1.,0.,0.));
#771=DIRECTION('',(0.,0.,1.));
#772=DIRECTION('',(1.,0.,0.));
#773=DIRECTION('',(0.,0.,-1.));
#774=DIRECTION('',(0.,0.,1.));
#775=DIRECTION('',(1.,0.,0.));
#776=DIRECTION('',(0.196116135138184,0.98058067569092,0.));
#777=DIRECTION('',(-0.98058067569092,0.196116135138184,0.));
#778=DIRECTION('',(0.98058067569092,-0.196116135138184,0.));
#779=DIRECTION('',(0.98058067569092,-0.196116135138184,0.));
#780=DIRECTION('',(1.,1.65211759616839E-16,0.));
#781=DIRECTION('',(-1.65211759616839E-16,1.,0.));
#782=DIRECTION('',(-6.37625132960095E-17,0.385944157025434,-0.922522144806252));
#783=DIRECTION('',(-1.65211759616839E-16,1.,0.));
#784=DIRECTION('',(6.37625132960096E-17,-0.385944157025434,-0.922522144806252));
#785=DIRECTION('',(1.65211759616839E-16,-1.,0.));
#786=DIRECTION('',(0.,0.,-1.));
#787=DIRECTION('',(-1.,0.,0.));
#788=DIRECTION('',(0.,0.,1.));
#789=DIRECTION('',(1.,0.,0.));
#790=DIRECTION('',(0.,0.,1.));
#791=DIRECTION('',(1.,0.,0.));
#792=DIRECTION('',(0.,0.,-1.));
#793=DIRECTION('',(-1.,0.,0.));
#794=DIRECTION('',(0.,0.,1.));
#795=DIRECTION('',(1.,0.,0.));
#796=DIRECTION('',(0.,0.,1.));
#797=DIRECTION('',(1.,0.,0.));
#798=DIRECTION('',(0.,0.,-1.));
#799=DIRECTION('',(-1.,0.,0.));
#800=DIRECTION('',(0.,0.,1.));
#801=DIRECTION('',(1.,0.,0.));
#802=DIRECTION('',(0.,0.,1.));
#803=DIRECTION('',(1.,0.,0.));
#804=DIRECTION('',(0.,0.,-1.));
#805=DIRECTION('',(-1.,0.,0.));
#806=DIRECTION('',(0.,0.,1.));
#807=DIRECTION('',(1.,0.,0.));
#808=DIRECTION('',(0.,0.,1.));
#809=DIRECTION('',(1.,0.,0.));
#810=DIRECTION('',(0.,0.,1.));
#811=DIRECTION('',(1.,0.,0.));
#812=DIRECTION('',(0.,0.,1.));
#813=DIRECTION('',(1.,0.,0.));
#814=DIRECTION('',(0.,0.,1.));
#815=DIRECTION('',(1.,0.,0.));
#816=DIRECTION('',(1.,3.30423519233678E-16,0.));
#817=DIRECTION('',(-3.30423519233678E-16,1.,0.));
#818=DIRECTION('',(3.30423519233678E-16,-1.,0.));
#819=DIRECTION('',(0.,0.,1.));
#820=DIRECTION('',(1.,3.30423519233678E-16,0.));
#821=DIRECTION('',(-3.30423519233678E-16,1.,0.));
#822=DIRECTION('',(0.,0.,1.));
#823=DIRECTION('',(1.,1.65211759616839E-16,0.));
#824=DIRECTION('',(-1.65211759616839E-16,1.,0.));
#825=DIRECTION('',(1.,1.65211759616839E-16,0.));
#826=DIRECTION('',(1.,1.65211759616839E-16,0.));
#827=DIRECTION('',(-1.65211759616839E-16,1.,0.));
#828=DIRECTION('',(1.,1.65211759616839E-16,0.));
#829=DIRECTION('',(1.,1.65211759616839E-16,0.));
#830=DIRECTION('',(-1.65211759616839E-16,1.,0.));
#831=DIRECTION('',(0.,0.,1.));
#832=DIRECTION('',(0.,0.,1.));
#833=DIRECTION('',(0.,0.,1.));
#834=DIRECTION('',(1.,0.,0.));
#835=DIRECTION('',(-1.0842021724855E-16,1.,0.));
#836=DIRECTION('',(-1.,-1.0842021724855E-16,0.));
#837=DIRECTION('',(-1.0842021724855E-16,1.,0.));
#838=DIRECTION('',(-1.,-1.0842021724855E-16,0.));
#839=DIRECTION('',(3.04823013657882E-16,-0.922522144806252,-0.385944157025434));
#840=DIRECTION('',(0.,0.385944157025434,-0.922522144806252));
#841=DIRECTION('',(0.,0.,-1.));
#842=DIRECTION('',(-1.,0.,0.));
#843=DIRECTION('',(3.04823013657882E-16,-0.922522144806252,0.385944157025434));
#844=DIRECTION('',(0.,-0.385944157025434,-0.922522144806252));
#845=DIRECTION('',(0.,0.,-1.));
#846=DIRECTION('',(-1.,0.,0.));
#847=DIRECTION('',(0.,0.,1.));
#848=DIRECTION('',(1.,0.,0.));
#849=DIRECTION('',(0.,0.,1.));
#850=DIRECTION('',(1.,0.,0.));
#851=DIRECTION('',(0.,0.,1.));
#852=DIRECTION('',(1.,0.,0.));
#853=DIRECTION('',(0.,0.,-1.));
#854=DIRECTION('',(-1.,0.,0.));
#855=DIRECTION('',(0.,0.,1.));
#856=DIRECTION('',(1.,0.,0.));
#857=DIRECTION('',(0.,0.,1.));
#858=DIRECTION('',(1.,0.,0.));
#859=DIRECTION('',(0.,0.,-1.));
#860=DIRECTION('',(-1.,0.,0.));
#861=DIRECTION('',(0.,-1.,0.));
#862=DIRECTION('',(0.,0.,-1.));
#863=DIRECTION('',(0.,0.,-1.));
#864=DIRECTION('',(-1.,0.,0.));
#865=DIRECTION('',(0.,0.,-1.));
#866=DIRECTION('',(-1.,1.0842021724855E-16,0.));
#867=DIRECTION('',(-1.0842021724855E-16,-1.,0.));
#868=DIRECTION('',(0.,0.,-1.));
#869=DIRECTION('',(1.0842021724855E-16,1.,0.));
#870=DIRECTION('',(0.,-1.,0.));
#871=DIRECTION('',(0.,0.,-1.));
#872=DIRECTION('',(0.,0.,-1.));
#873=DIRECTION('',(-1.,0.,0.));
#874=DIRECTION('',(-1.,0.,0.));
#875=DIRECTION('',(0.,0.,1.));
#876=DIRECTION('',(0.,1.,0.));
#877=DIRECTION('',(0.,0.,1.));
#878=DIRECTION('',(1.,0.,0.));
#879=CARTESIAN_POINT('',(0.,0.,0.));
#880=CARTESIAN_POINT('',(0.0175,0.,0.08465));
#881=CARTESIAN_POINT('',(0.0175,0.0124968816350859,0.064325));
#882=CARTESIAN_POINT('',(0.0175,0.021,0.044));
#883=CARTESIAN_POINT('',(0.0175,0.00553513286883753,0.0809656649421526));
#884=CARTESIAN_POINT('',(0.0175,-1.26264394845625E-49,0.044));
#885=CARTESIAN_POINT('',(0.0175,-0.021,0.044));
#886=CARTESIAN_POINT('',(0.0175,-0.0124968816350859,0.064325));
#887=CARTESIAN_POINT('',(0.0175,-0.0055351328688375,0.0809656649421526));
#888=CARTESIAN_POINT('',(0.0175,1.00779173366272E-17,0.07865));
#889=CARTESIAN_POINT('',(0.0095,8.75622325969245E-18,0.07865));
#890=CARTESIAN_POINT('',(0.0095,0.003,0.0838461524227066));
#891=CARTESIAN_POINT('',(0.0175,0.003,0.0838461524227066));
#892=CARTESIAN_POINT('',(0.0095,0.003,0.0838461524227066));
#893=CARTESIAN_POINT('',(0.0425,0.003,0.0838461524227066));
#894=CARTESIAN_POINT('',(0.0195,0.003,0.0838461524227066));
#895=CARTESIAN_POINT('',(0.0195,1.07387643750945E-17,0.07865));
#896=CARTESIAN_POINT('',(0.0195,0.00553513286883753,0.0809656649421526));
#897=CARTESIAN_POINT('',(0.0425,0.00553513286883754,0.0809656649421526));
#898=CARTESIAN_POINT('',(0.0425,-0.00553513286883749,0.0809656649421526));
#899=CARTESIAN_POINT('',(0.0195,-0.0055351328688375,0.0809656649421526));
#900=CARTESIAN_POINT('',(0.0195,1.07387643750945E-17,0.07865));
#901=CARTESIAN_POINT('',(0.0195,-0.003,0.0838461524227066));
#902=CARTESIAN_POINT('',(0.0425,-0.003,0.0838461524227066));
#903=CARTESIAN_POINT('',(0.0175,-0.003,0.0838461524227066));
#904=CARTESIAN_POINT('',(0.0095,-0.003,0.0838461524227066));
#905=CARTESIAN_POINT('',(0.0095,-0.003,0.0838461524227066));
#906=CARTESIAN_POINT('',(0.0095,8.75622325969245E-18,0.07865));
#907=CARTESIAN_POINT('',(-0.0245,-1.38777878078145E-17,0.044));
#908=CARTESIAN_POINT('',(-0.0035,-0.012,0.044));
#909=CARTESIAN_POINT('',(-0.001,-0.012,0.044));
#910=CARTESIAN_POINT('',(-0.006,-0.012,0.044));
#911=CARTESIAN_POINT('',(-0.006,-0.011,0.044));
#912=CARTESIAN_POINT('',(-0.006,-0.01,0.044));
#913=CARTESIAN_POINT('',(-0.0035,-0.01,0.044));
#914=CARTESIAN_POINT('',(-0.001,-0.01,0.044));
#915=CARTESIAN_POINT('',(-0.001,-0.011,0.044));
#916=CARTESIAN_POINT('',(-0.0035,4.43959936334282E-18,0.044));
#917=CARTESIAN_POINT('',(0.004,4.43959936334282E-18,0.044));
#918=CARTESIAN_POINT('',(-0.0035,3.98035681366256E-18,0.044));
#919=CARTESIAN_POINT('',(-0.0035,0.021,0.044));
#920=CARTESIAN_POINT('',(-0.0035,-0.021,0.044));
#921=CARTESIAN_POINT('',(-0.0245,-0.021,0.044));
#922=CARTESIAN_POINT('',(-0.0245,0.021,0.044));
#923=CARTESIAN_POINT('',(-0.0245,-1.38777878078145E-17,0.042));
#924=CARTESIAN_POINT('',(0.,1.53080849893419E-19,0.042));
#925=CARTESIAN_POINT('',(0.0025,1.53080849893419E-19,0.042));
#926=CARTESIAN_POINT('',(-0.0245,-0.021,0.042));
#927=CARTESIAN_POINT('',(-0.0035,-0.021,0.042));
#928=CARTESIAN_POINT('',(0.0175,-0.021,0.042));
#929=CARTESIAN_POINT('',(-0.0035,3.98035681366256E-18,0.042));
#930=CARTESIAN_POINT('',(-0.0035,0.021,0.042));
#931=CARTESIAN_POINT('',(-0.0245,0.021,0.042));
#932=CARTESIAN_POINT('',(0.0175,0.021,0.042));
#933=CARTESIAN_POINT('',(0.0175,-1.26264394845625E-49,0.042));
#934=CARTESIAN_POINT('',(0.0185,-0.021,0.002));
#935=CARTESIAN_POINT('',(0.0195,-0.021,0.002));
#936=CARTESIAN_POINT('',(0.0195,-0.021,0.044));
#937=CARTESIAN_POINT('',(0.0195,-0.021,0.));
#938=CARTESIAN_POINT('',(0.0425,-0.021,0.044));
#939=CARTESIAN_POINT('',(-0.0035,-0.021,0.019));
#940=CARTESIAN_POINT('',(0.0175,-0.021,0.08465));
#941=CARTESIAN_POINT('',(0.0175,-0.021,0.002));
#942=CARTESIAN_POINT('',(0.0175,-0.021,0.002));
#943=CARTESIAN_POINT('',(0.0175,-0.021,0.));
#944=CARTESIAN_POINT('',(0.0185,-0.021,0.));
#945=CARTESIAN_POINT('',(0.0185,0.021,0.002));
#946=CARTESIAN_POINT('',(0.0425,0.021,0.044));
#947=CARTESIAN_POINT('',(0.0195,0.021,0.044));
#948=CARTESIAN_POINT('',(0.0195,0.021,0.002));
#949=CARTESIAN_POINT('',(0.0195,0.021,0.));
#950=CARTESIAN_POINT('',(0.0185,0.021,0.));
#951=CARTESIAN_POINT('',(0.0175,0.021,0.));
#952=CARTESIAN_POINT('',(0.0175,0.021,0.002));
#953=CARTESIAN_POINT('',(0.0175,0.021,0.002));
#954=CARTESIAN_POINT('',(0.0175,0.021,0.08465));
#955=CARTESIAN_POINT('',(-0.0035,0.021,0.019));
#956=CARTESIAN_POINT('',(0.0175,0.,0.08465));
#957=CARTESIAN_POINT('',(0.0175,0.,0.002));
#958=CARTESIAN_POINT('',(0.00875,0.01925,0.002));
#959=CARTESIAN_POINT('',(0.00875,0.01925,0.));
#960=CARTESIAN_POINT('',(1.66146882940061E-17,0.0175,0.));
#961=CARTESIAN_POINT('',(1.66146882940061E-17,0.0175,0.002));
#962=CARTESIAN_POINT('',(1.66146882940061E-17,0.0175,0.002));
#963=CARTESIAN_POINT('',(0.00875,0.01925,0.002));
#964=CARTESIAN_POINT('',(1.97621930582499E-18,2.80628942523074E-18,0.002));
#965=CARTESIAN_POINT('',(1.97621930582499E-18,2.80628942523074E-18,0.));
#966=CARTESIAN_POINT('',(1.23284244969904E-17,-0.0175,0.));
#967=CARTESIAN_POINT('',(1.23284244969904E-17,-0.0175,0.002));
#968=CARTESIAN_POINT('',(1.23284244969904E-17,-0.0175,0.002));
#969=CARTESIAN_POINT('',(1.97621930582499E-18,2.80628942523074E-18,0.002));
#970=CARTESIAN_POINT('',(0.00875,-0.01925,0.002));
#971=CARTESIAN_POINT('',(0.00875,-0.01925,0.));
#972=CARTESIAN_POINT('',(0.00875,-0.01925,0.002));
#973=CARTESIAN_POINT('',(0.0195,3.46944695195361E-18,0.002));
#974=CARTESIAN_POINT('',(0.0195,0.0328257545844273,0.0157329041401725));
#975=CARTESIAN_POINT('',(0.0195,3.46944695195361E-18,0.0838461524227066));
#976=CARTESIAN_POINT('',(0.0195,-0.0328257545844273,0.0157329041401725));
#977=CARTESIAN_POINT('',(0.0195,3.46944695195361E-18,0.));
#978=CARTESIAN_POINT('',(0.012,8.50790030675905E-19,0.002));
#979=CARTESIAN_POINT('',(0.012,8.50790030675905E-19,0.002));
#980=CARTESIAN_POINT('',(0.0135,8.50790030675905E-19,0.002));
#981=CARTESIAN_POINT('',(0.012,8.50790030675905E-19,0.));
#982=CARTESIAN_POINT('',(0.0135,8.50790030675905E-19,0.));
#983=CARTESIAN_POINT('',(4.81872135272958E-5,-0.012,0.002));
#984=CARTESIAN_POINT('',(4.81872135272958E-5,-0.012,0.002));
#985=CARTESIAN_POINT('',(0.0015481872135273,-0.012,0.002));
#986=CARTESIAN_POINT('',(4.81872135272958E-5,-0.012,0.));
#987=CARTESIAN_POINT('',(0.0015481872135273,-0.012,0.));
#988=CARTESIAN_POINT('',(-0.012,-6.67093010803802E-19,0.002));
#989=CARTESIAN_POINT('',(-0.012,-6.67093010803802E-19,0.002));
#990=CARTESIAN_POINT('',(-0.0105,-6.67093010803802E-19,0.002));
#991=CARTESIAN_POINT('',(-0.012,-6.67093010803802E-19,0.));
#992=CARTESIAN_POINT('',(-0.0105,-6.67093010803802E-19,0.));
#993=CARTESIAN_POINT('',(4.81872135272912E-5,0.012,0.002));
#994=CARTESIAN_POINT('',(4.81872135272912E-5,0.012,0.002));
#995=CARTESIAN_POINT('',(0.00154818721352729,0.012,0.002));
#996=CARTESIAN_POINT('',(4.81872135272912E-5,0.012,0.));
#997=CARTESIAN_POINT('',(0.00154818721352729,0.012,0.));
#998=CARTESIAN_POINT('',(0.001,0.,0.002));
#999=CARTESIAN_POINT('',(0.,1.53080849893419E-19,0.002));
#1000=CARTESIAN_POINT('',(0.0025,1.53080849893419E-19,0.002));
#1001=CARTESIAN_POINT('',(0.001,0.,0.));
#1002=CARTESIAN_POINT('',(0.0175,0.,0.08465));
#1003=CARTESIAN_POINT('',(0.0175,4.33680868994202E-19,0.0838461524227066));
#1004=CARTESIAN_POINT('',(0.0175,0.003,0.07965));
#1005=CARTESIAN_POINT('',(0.0175,0.003,0.0812957513110646));
#1006=CARTESIAN_POINT('',(0.0175,1.00779173366272E-17,0.07865));
#1007=CARTESIAN_POINT('',(0.0175,-0.003,0.0812957513110646));
#1008=CARTESIAN_POINT('',(0.0175,-0.003,0.07965));
#1009=CARTESIAN_POINT('',(0.0095,8.75622325969245E-18,0.07865));
#1010=CARTESIAN_POINT('',(0.0095,0.003,0.0812957513110646));
#1011=CARTESIAN_POINT('',(0.0095,0.003,0.0812957513110646));
#1012=CARTESIAN_POINT('',(0.0095,8.75622325969245E-18,0.07865));
#1013=CARTESIAN_POINT('',(0.0095,-0.003,0.0812957513110646));
#1014=CARTESIAN_POINT('',(0.0095,-0.003,0.0812957513110646));
#1015=CARTESIAN_POINT('',(0.0095,-1.89993523559365E-18,0.042325));
#1016=CARTESIAN_POINT('',(0.0095,0.003,0.07965));
#1017=CARTESIAN_POINT('',(0.0095,-0.003,0.07965));
#1018=CARTESIAN_POINT('',(-0.0035,3.98035681366256E-18,0.019));
#1019=CARTESIAN_POINT('',(0.0135,0.003,0.07965));
#1020=CARTESIAN_POINT('',(0.0135,-0.003,0.07965));
#1021=CARTESIAN_POINT('',(0.0425,0.012496881635086,0.064325));
#1022=CARTESIAN_POINT('',(0.0425,8.69426884983614E-18,0.0838461524227066));
#1023=CARTESIAN_POINT('',(0.0425,-0.0124968816350859,0.064325));
#1024=CARTESIAN_POINT('',(-0.0035,4.43959936334282E-18,0.048));
#1025=CARTESIAN_POINT('',(-0.0035,4.43959936334282E-18,0.048));
#1026=CARTESIAN_POINT('',(0.004,4.43959936334282E-18,0.048));
#1027=CARTESIAN_POINT('',(-0.0035,0.,0.048));
#1028=CARTESIAN_POINT('',(-0.0035,4.59268021323624E-18,0.048));
#1029=CARTESIAN_POINT('',(-0.001,4.59268021323624E-18,0.048));
#1030=CARTESIAN_POINT('',(-0.0035,4.59268021323624E-18,0.068));
#1031=CARTESIAN_POINT('',(-0.0035,4.59268021323624E-18,0.068));
#1032=CARTESIAN_POINT('',(-0.001,4.59268021323624E-18,0.068));
#1033=CARTESIAN_POINT('',(-0.0035,3.46944695195361E-18,0.068));
#1034=CARTESIAN_POINT('',(0.,1.53080849893419E-19,0.04339));
#1035=CARTESIAN_POINT('',(-0.0035,-0.012,0.069));
#1036=CARTESIAN_POINT('',(-0.001,-0.012,0.069));
#1037=CARTESIAN_POINT('',(-0.001,-0.012,0.069));
#1038=CARTESIAN_POINT('',(-0.0035,-0.012,0.069));
#1039=CARTESIAN_POINT('',(-0.006,-0.012,0.069));
#1040=CARTESIAN_POINT('',(-0.006,-0.012,0.069));
#1041=CARTESIAN_POINT('',(-0.001,-0.011,0.069));
#1042=CARTESIAN_POINT('',(-0.001,-0.01,0.069));
#1043=CARTESIAN_POINT('',(-0.001,-0.01,0.069));
#1044=CARTESIAN_POINT('',(-0.001,-0.011,0.069));
#1045=CARTESIAN_POINT('',(-0.0035,-0.01,0.069));
#1046=CARTESIAN_POINT('',(-0.006,-0.01,0.069));
#1047=CARTESIAN_POINT('',(-0.006,-0.01,0.069));
#1048=CARTESIAN_POINT('',(-0.0035,-0.01,0.069));
#1049=CARTESIAN_POINT('',(-0.006,-0.011,0.069));
#1050=CARTESIAN_POINT('',(-0.006,-0.011,0.069));
#1051=CARTESIAN_POINT('',(-0.0035,0.,0.069));
#1052=MECHANICAL_DESIGN_GEOMETRIC_PRESENTATION_REPRESENTATION('',(#629),
#1053);
#1053=(
GEOMETRIC_REPRESENTATION_CONTEXT(3)
GLOBAL_UNCERTAINTY_ASSIGNED_CONTEXT((#1054))
GLOBAL_UNIT_ASSIGNED_CONTEXT((#1057,#1056,#1055))
REPRESENTATION_CONTEXT('Part 1','TOP_LEVEL_ASSEMBLY_PART')
);
#1054=UNCERTAINTY_MEASURE_WITH_UNIT(LENGTH_MEASURE(1.E-8),#1057,
'DISTANCE_ACCURACY_VALUE','Maximum Tolerance applied to model');
#1055=(
NAMED_UNIT(*)
SI_UNIT($,.STERADIAN.)
SOLID_ANGLE_UNIT()
);
#1056=(
NAMED_UNIT(*)
PLANE_ANGLE_UNIT()
SI_UNIT($,.RADIAN.)
);
#1057=(
LENGTH_UNIT()
NAMED_UNIT(*)
SI_UNIT($,.METRE.)
);
#1058=PRODUCT_DEFINITION_SHAPE('','',#1059);
#1059=PRODUCT_DEFINITION('','',#1061,#1060);
#1060=PRODUCT_DEFINITION_CONTEXT('',#1067,'design');
#1061=PRODUCT_DEFINITION_FORMATION_WITH_SPECIFIED_SOURCE('','',#1063,
 .NOT_KNOWN.);
#1062=PRODUCT_RELATED_PRODUCT_CATEGORY('','',(#1063));
#1063=PRODUCT('Part 1','Part 1','Part 1',(#1065));
#1064=PRODUCT_CATEGORY('','');
#1065=PRODUCT_CONTEXT('',#1067,'mechanical');
#1066=APPLICATION_PROTOCOL_DEFINITION('international standard',
'ap242_managed_model_based_3d_engineering',2020,#1067);
#1067=APPLICATION_CONTEXT('managed model based 3d engineering');
ENDSEC;
END-ISO-10303-21;
